<?xml version="1.0" encoding="utf-8"?>
<!-- Generator: Adobe Illustrator 24.2.1, SVG Export Plug-In . SVG Version: 6.00 Build 0)  -->
<svg version="1.1" xmlns="http://www.w3.org/2000/svg" xmlns:xlink="http://www.w3.org/1999/xlink" x="0px" y="0px" width="500px"
	 height="500px" viewBox="0 0 500 500" style="enable-background:new 0 0 500 500;" xml:space="preserve">
<style type="text/css">
	.st0{fill:#FFFFFF;}
</style>
<g id="Lager_1">
</g>
<g id="Lager_2">
	<g>
		<g>
			<g>
				<path class="st0" d="M108.5,119.3c1.9,0,1.9-3,0-3C106.6,116.3,106.6,119.3,108.5,119.3L108.5,119.3z"/>
			</g>
		</g>
		<g>
			<g>
				<path d="M145,123.2c-2.1,5.3-4.1,10.7-6.2,16c-1.2,3.1-2.4,6.1-3.5,9.2c-5.8,15.1-11.6,30.2-17.6,45.2
					c-3.4,8.7-6.9,17.4-10.4,26.1c-0.4,0.9-0.8,1.9-2,1.8c-0.8-0.1-1.5-0.6-1.8-1.4C90.3,187,77.9,153.5,66.3,119.7
					c-0.5-1.6,1-3.2,2.6-2.5c0,0,0,0,0,0c1.3,0.6,2.1,2,2.8,3.3c2.3,4.5,3.8,9.3,5.3,14c6.7,20.8,14.5,41.4,22.2,61.9l5.9,15.7
					c0.5,0.1,0.4,0.1,0.9,0.1c2.4-3.4,3.9-7.3,5.4-11.3c9.8-26.4,19.5-52.8,29-79.3c0.5-1.3,1-2.7,2.3-3.4c0.7-0.4,1.6-0.4,2.2,0
					c1.4,0.9,0.9,2.7,0.4,4.1C145.2,122.6,145.1,122.9,145,123.2z"/>
			</g>
			<g>
				<path d="M104.4,142.8c-6.1,0.1-12.2,0.2-18.3,0.3c6.4,17.5,12.8,34.9,19.3,52.3c6-17.7,12.1-35.3,18.1-53
					C117.1,142.6,110.7,142.7,104.4,142.8z"/>
			</g>
		</g>
		<g>
			<rect x="159.1" y="131.8" width="18.5" height="75.7"/>
			<path d="M205,217H192v-95.9h13c0.5,0,0.9-0.4,0.9-0.9v-2.6c0-0.5-0.4-0.9-0.9-0.9h-31.2c-0.5,0-0.9,0.4-0.9,0.9v2.6
				c0,0.5,0.4,0.9,0.9,0.9h14.2V217h-14.1c-0.5,0-0.9,0.4-0.9,0.9v2.6c0,0.5,0.4,0.9,0.9,0.9H205c0.5,0,0.9-0.4,0.9-0.9V218
				C206,217.4,205.6,217,205,217z"/>
		</g>
		<g>
			<g>
				<path d="M42.7,353.2c-6.3-1.3-12.2-4.8-16.3-9.8c-5.8-7.1-8.2-16.7-7.3-25.8c0.2-1.6,0.4-3.3,0.9-4.8c0.9-2.9,2.7-5.5,4.5-8
					c2.5-3.5,5.3-6.9,9-9c3.3-1.8,7.1-2.5,10.8-3c3.5-0.4,7-0.6,10.4,0c2.9,0.5,5.6,1.6,8.2,3c10,5.7,16.7,16.9,16.7,28.5
					c-1.3-0.2-2.6-0.3-3.8-0.3c0.8-7.3-1.8-14.9-6.8-20.2c-5.1-5.4-12.6-8.4-20.1-8.2s-14.7,3.7-19.7,9.2
					c-7.1,7.9-9.1,20.1-4.5,29.7s15.4,15.9,25.9,14.7c0,1.4,0,2.8,0.1,4.2C48,353.8,45.3,353.7,42.7,353.2z"/>
			</g>
			<g>
				<path d="M53.6,305.8c3.4,1,6.5,3.3,9.4,5.5c-8,9.2-16.4,18.1-25.2,26.7c-2.8-1.6-4.3-4.6-5.4-7.5c-0.8-2.2-1.4-4.4-1.5-6.7
					c-0.2-4.1,1.4-8.3,4.1-11.4c2.7-3.2,6.4-5.4,10.4-6.5c1.5-0.4,3.1-0.7,4.7-0.7C51.4,305.3,52.5,305.5,53.6,305.8z"/>
			</g>
			<g>
				<path d="M21.3,367.6c1.3,10.5,8.2,20.3,17.9,24.6c11.1,5,25.1,2.5,33.9-5.9c8.8-8.4,11.7-22.3,7.2-33.6
					c-4.5-11.3-16.3-19.2-28.5-19.2c0,0-0.5,0-0.9,0c-0.2,0.1-0.4,0.2-0.4,0.2c-0.8,0.5-0.6,1.8,0.2,2.4c0.7,0.6,1.7,0.6,2.6,0.7
					c9.2,0.8,17.8,6.6,22.1,14.7c4.3,8.2,4.1,18.5-0.5,26.6c-0.9,1.6-1.9,3.1-3.2,4.4c-1.1,1.1-2.3,2.1-3.5,3
					c-8.5,5.9-20.1,7.3-29.4,2.8s-15.5-15.1-14-25.4c-1.2,0.1-2.4,0.1-3.6,0.2C21,364.6,21.1,366.1,21.3,367.6z"/>
			</g>
			<g>
				<path d="M64.3,376.6c0.1-0.2,0.2-0.4,0.3-0.6c1.2-2.5,1.7-5.3,1.9-8c-4.2,0-8.4,0.1-12.6,0.1c-6,0.1-12,0.1-18-0.4
					c-0.5,6.5,4,13.1,10.2,15c3.1,1,6.5,0.8,9.7,0.2c1.1-0.2,2.1-0.5,3.1-0.9C61.3,380.9,63.1,378.9,64.3,376.6z"/>
			</g>
		</g>
		<g>
			<path d="M232,290h-75.2c-0.4,0-0.8,0.3-0.8,0.8v2.6c0,0.4,0.3,0.8,0.8,0.8h35.5V393c0,0.8,0.6,1.4,1.4,1.4h1.3
				c0.8,0,1.4-0.6,1.4-1.4V294H232c0.4,0,0.8-0.3,0.8-0.8v-2.6C232.8,290.3,232.5,290,232,290z"/>
			<rect x="157.4" y="299.4" width="28.2" height="22.5"/>
			<rect x="203.9" y="299.5" width="28.2" height="22.5"/>
		</g>
		<g>
			<g>
				<path d="M289.4,123.5c-2.1,5.3-4.1,10.7-6.2,16c-1.2,3.1-2.4,6.1-3.5,9.2c-5.8,15.1-11.6,30.2-17.6,45.2
					c-3.4,8.7-6.9,17.4-10.4,26.1c-0.4,0.9-0.8,1.9-2,1.8c-0.8-0.1-1.5-0.6-1.8-1.4c-13.3-33.1-25.8-66.6-37.3-100.4
					c-0.5-1.6,1-3.2,2.6-2.5c0,0,0,0,0,0c1.3,0.6,2.1,2,2.8,3.3c2.3,4.5,3.8,9.3,5.3,14c6.7,20.8,14.5,41.4,22.2,61.9l5.9,15.7
					c0.5,0.1,0.4,0.1,0.9,0.1c2.4-3.4,3.9-7.3,5.4-11.3c9.8-26.4,19.5-52.8,29-79.3c0.5-1.3,1-2.7,2.3-3.4c0.7-0.4,1.6-0.4,2.2,0
					c1.4,0.9,0.9,2.7,0.4,4.1C289.6,122.9,289.5,123.2,289.4,123.5z"/>
			</g>
			<g>
				<path d="M248.8,143.1c-6.1,0.1-12.2,0.2-18.3,0.3c6.4,17.5,12.8,34.9,19.3,52.3c6-17.7,12.1-35.3,18.1-53
					C261.5,142.9,255.2,143,248.8,143.1z"/>
			</g>
		</g>
		<g>
			<g>
				<path d="M367.5,215.5c-2.1-5.3-4.1-10.7-6.2-16c-1.2-3.1-2.4-6.1-3.5-9.2c-5.8-15.1-11.6-30.2-17.6-45.2
					c-3.4-8.7-6.9-17.4-10.4-26.1c-0.4-0.9-0.8-1.9-2-1.8c-0.8,0.1-1.5,0.6-1.8,1.4c-13.3,33.1-25.8,66.6-37.3,100.4
					c-0.5,1.6,1,3.2,2.6,2.5c0,0,0,0,0,0c1.3-0.6,2.1-2,2.8-3.3c2.3-4.5,3.8-9.3,5.3-14c6.7-20.8,14.5-41.4,22.2-61.9l5.9-15.7
					c0.5-0.1,0.4-0.1,0.9-0.1c2.4,3.4,3.9,7.3,5.4,11.3c9.8,26.4,19.5,52.8,29,79.3c0.5,1.3,1,2.7,2.3,3.4c0.7,0.4,1.6,0.4,2.2,0
					c1.4-0.9,0.9-2.7,0.4-4.1C367.7,216.1,367.6,215.8,367.5,215.5z"/>
			</g>
			<g>
				<path d="M326.9,195.9c-6.1-0.1-12.2-0.2-18.3-0.3c6.4-17.5,12.8-34.9,19.3-52.3c6,17.7,12.1,35.3,18.1,53
					C339.6,196.1,333.2,196,326.9,195.9z"/>
			</g>
		</g>
		<g>
			<g>
				<path d="M161.8,388.4c-2.1-5.3-4.1-10.7-6.2-16c-1.2-3.1-2.4-6.1-3.5-9.2c-5.8-15.1-11.6-30.2-17.6-45.2
					c-3.4-8.7-6.9-17.4-10.4-26.1c-0.4-0.9-0.8-1.9-2-1.8c-0.8,0.1-1.5,0.6-1.8,1.4c-13.3,33.1-25.8,66.6-37.3,100.4
					c-0.5,1.6,1,3.2,2.6,2.5c0,0,0,0,0,0c1.3-0.6,2.1-2,2.8-3.3c2.3-4.5,3.8-9.3,5.3-14c6.7-20.8,14.5-41.4,22.2-61.9l5.9-15.7
					c0.5-0.1,0.4-0.1,0.9-0.1c2.4,3.4,3.9,7.3,5.4,11.3c9.8,26.4,19.5,52.8,29,79.3c0.5,1.3,1,2.7,2.3,3.4c0.7,0.4,1.6,0.4,2.2,0
					c1.4-0.9,0.9-2.7,0.4-4.1C162,389,161.9,388.7,161.8,388.4z"/>
			</g>
			<g>
				<path d="M121.2,368.8c-6.1-0.1-12.2-0.2-18.3-0.3c6.4-17.5,12.8-34.9,19.3-52.3c6,17.7,12.1,35.3,18.1,53
					C133.9,369,127.6,368.9,121.2,368.8z"/>
			</g>
		</g>
		<g>
			<rect x="240.5" y="304.9" width="18.5" height="75.7"/>
			<path d="M286.5,390.2h-13.1v-95.9h13c0.5,0,0.9-0.4,0.9-0.9v-2.6c0-0.5-0.4-0.9-0.9-0.9h-31.2c-0.5,0-0.9,0.4-0.9,0.9v2.6
				c0,0.5,0.4,0.9,0.9,0.9h14.2v95.9h-14.1c-0.5,0-0.9,0.4-0.9,0.9v2.6c0,0.5,0.4,0.9,0.9,0.9h31.2c0.5,0,0.9-0.4,0.9-0.9v-2.6
				C287.4,390.6,287,390.2,286.5,390.2z"/>
		</g>
		<g>
			<g>
				<path d="M376,296.4c-2.1,5.3-4.1,10.7-6.2,16c-1.2,3.1-2.4,6.1-3.5,9.2c-5.8,15.1-11.6,30.2-17.6,45.2
					c-3.4,8.7-6.9,17.4-10.4,26.1c-0.4,0.9-0.8,1.9-2,1.8c-0.8-0.1-1.5-0.6-1.8-1.4c-13.3-33.1-25.8-66.6-37.3-100.4
					c-0.5-1.6,1-3.2,2.6-2.5c0,0,0,0,0,0c1.3,0.6,2.1,2,2.8,3.3c2.3,4.5,3.8,9.3,5.3,14c6.7,20.8,14.5,41.4,22.2,61.9l5.9,15.7
					c0.5,0.1,0.4,0.1,0.9,0.1c2.4-3.4,3.9-7.3,5.4-11.3c9.8-26.4,19.5-52.8,29-79.3c0.5-1.3,1-2.7,2.3-3.4c0.7-0.4,1.6-0.4,2.2,0
					c1.4,0.9,0.9,2.7,0.4,4.1C376.2,295.8,376.1,296.1,376,296.4z"/>
			</g>
			<g>
				<path d="M335.4,316c-6.1,0.1-12.2,0.2-18.3,0.3c6.4,17.5,12.8,34.9,19.3,52.3c6-17.7,12.1-35.3,18.1-53
					C348.1,315.8,341.8,315.9,335.4,316z"/>
			</g>
		</g>
		<g>
			<g>
				<path d="M448.4,388.7c-2.1-5.3-4.1-10.7-6.2-16c-1.2-3.1-2.4-6.1-3.5-9.2c-5.8-15.1-11.6-30.2-17.6-45.2
					c-3.4-8.7-6.9-17.4-10.4-26.1c-0.4-0.9-0.8-1.9-2-1.8c-0.8,0.1-1.5,0.6-1.8,1.4c-13.3,33.1-25.8,66.6-37.3,100.4
					c-0.5,1.6,1,3.2,2.6,2.5c0,0,0,0,0,0c1.3-0.6,2.1-2,2.8-3.3c2.3-4.5,3.8-9.3,5.3-14c6.7-20.8,14.5-41.4,22.2-61.9l5.9-15.7
					c0.5-0.1,0.4-0.1,0.9-0.1c2.4,3.4,3.9,7.3,5.4,11.3c9.8,26.4,19.5,52.8,29,79.3c0.5,1.3,1,2.7,2.3,3.4c0.7,0.4,1.6,0.4,2.2,0
					c1.4-0.9,0.9-2.7,0.4-4.1C448.7,389.2,448.6,389,448.4,388.7z"/>
			</g>
			<g>
				<path d="M407.8,369.1c-6.1-0.1-12.2-0.2-18.3-0.3c6.4-17.5,12.8-34.9,19.3-52.3c6,17.7,12.1,35.3,18.1,53
					C420.5,369.3,414.2,369.2,407.8,369.1z"/>
			</g>
		</g>
		<g>
			<g>
				<path d="M44.3,160.5c-0.8,1.2-1.4,2.7-1.6,4c-4.5,23.1-9,46.2-13.5,69.3c-0.4,2-0.2,4.8,1.3,5.8c0.6,0.4,1.4,0.3,2-0.1
					c1-0.7,1.6-2.1,1.4-3.4c0-0.3-0.1-0.6,0-0.8c5.6-24.3,10.3-48.7,14-73.3C48.1,159.9,45.5,158.8,44.3,160.5
					C44.3,160.5,44.3,160.5,44.3,160.5z"/>
			</g>
			<circle cx="49.1" cy="144.6" r="10.2"/>
		</g>
		<g>
			<path d="M472.5,365.4c0.8-1.2,1.4-2.7,1.6-4c4.5-23.1,9-46.2,13.5-69.3c0.4-2,0.2-4.8-1.3-5.8c-0.6-0.4-1.4-0.3-2,0.1
				c-1,0.7-1.6,2.1-1.4,3.4c0,0.3,0.1,0.6,0,0.8c-5.6,24.3-10.3,48.7-14,73.3C468.6,366,471.3,367.1,472.5,365.4
				C472.5,365.4,472.5,365.4,472.5,365.4z"/>
		</g>
		<circle cx="467.6" cy="381.3" r="10.2"/>
	</g>
</g>
</svg>
