<?xml version="1.0" encoding="utf-8"?>
<!-- Generator: Adobe Illustrator 24.3.0, SVG Export Plug-In . SVG Version: 6.00 Build 0)  -->
<svg version="1.1" id="Lager_1" xmlns="http://www.w3.org/2000/svg" xmlns:xlink="http://www.w3.org/1999/xlink" x="0px" y="0px"
	 width="500px" height="500px" viewBox="0 0 500 500" style="enable-background:new 0 0 500 500;" xml:space="preserve">
<style type="text/css">
	.st0{fill:#FFFFFF;}
	.st1{fill-rule:evenodd;clip-rule:evenodd;}
	.st2{opacity:0.3;fill:#57AD80;}
	.st3{fill:#E06A53;}
	.st4{opacity:0.74;}
	.st5{opacity:0.45;}
	.st6{fill:#57AD80;}
	.st7{opacity:0.62;}
	.st8{fill:#010508;}
	.st9{fill:#295C77;}
	.st10{fill:#CCC6A6;}
	.st11{fill:#DFE5E5;}
	.st12{fill:#BCB59B;}
	.st13{fill:#2A576B;}
</style>
<g>
	<rect x="1" y="1" class="st0" width="500" height="500"/>
	<g>
		<g>
			<path class="st1" d="M124.8,11.7c0,0.5-2.5,0.3-1.8,1c-0.9,0-1.8,0-2.7,0c-0.4-0.3,3.5-0.6,0.9-0.7
				C121.6,11.6,123.5,11.7,124.8,11.7z M136.5,10.1c-0.2,0.3-1.8,0.2-1.8,0.5c-1.8,0.3-1.2-0.4-1.7-0.5c-1.4-0.2-5.2,0.4-4.4-0.5
				C132.3,9.4,134.6,9.7,136.5,10.1z M124.8,12.2l4.5,0C129.2,12.9,124,13.2,124.8,12.2z M174.9,8.8c-2.1,0.3-1.7,0.5-4.5,0.2
				c-1.7,0-0.6,0.8-1.8,1l-8.9,0c-2.8-0.2,1.6-0.3,2.7-0.2c-0.2-0.6-3.1-0.5-2.6-1.2c-1.7,0-0.6,0.8-1.8,1c-5.2,0.2-5.8-0.8-7.9-1.5
				c-2.6,0.3-5.5,0.3-7.1-0.3c4.1-0.5,10.2,0.5,14.2,0.8c-0.6-0.2-2-0.3-1.7-0.7c3.3,0.1,7,0.1,7.1,1c5,0.6,8.3-0.7,12.5-0.7
				c-0.2,0,0.6,0.8,1.7,0.5c0.2-0.7-3-0.5-1.7-1.4c2.8,0.5,4-0.2,6.3-0.2c1.6,0,2.7,0.5,5.3,0.3c0,0.2-1.1,0.2-1.8,0.2
				c-3,0.6-2.3,2.3-7.3,2.4c2.2-0.3,1.8-1.3,3.7-1.7c-0.1-0.3-1.6-0.2-2.7-0.3c-0.7,0.6-1.1,0.7-1.9,1.7
				C174.8,9.7,175,9.2,174.9,8.8z M142.6,12c0.6,0.8-3.2,0.8-4.5,0.5C138.3,12,140.4,12,142.6,12z M162.2,12.1l-1.8,0
				c-2.9,0.2-2.7-0.4-4.4-0.5c-7.8-0.2,1.3-0.1,2.7-0.5C159.8,11.5,162.4,11.4,162.2,12.1z M148.8,12.5c-1.9,0.1-2.3-0.2-3.5-0.3
				c1.1-0.4,4.7-0.1,3.6-1.2C150.9,11.2,149.6,12.4,148.8,12.5z M138.3,10.1c-2.5-0.1,0-0.8,1.8-0.5c-0.7-0.6-6.2,0-7.1-0.5
				c2.1-0.5,3.1,0.1,6.3-0.2c0.2,0.6,3.1,0.5,2.6,1.2C140.2,10.3,139,9.4,138.3,10.1z M119.6,10.5c-1-1,7.3-1,6.2,0
				C123.3,10.2,122.1,10.2,119.6,10.5z M3.6,446c-0.8-1-0.4,2.7-0.5,4.4c-0.4-0.7-0.7-4.2,0-4.5c0-1.7-0.8-0.6-1-1.8
				c0.4-2.1,0-5,0.3-7.1c0-0.3,0.6,0.3,0.7,0c0.2-0.6-0.2-6.3,0.5-3.5c0.2,3.6-0.4,3.9-0.7,5.3c0,2.3,0.1,4.3,0.5,5.4
				c1-1.1,0-2.9,0-5.3c1.2-2.9,0.1-16.2,0.8-22.2c0.3,12.9,0.1,29.5-0.2,41.9C3.4,456.4,4.3,448.2,3.6,446z M6.6,474.7
				c0.5,0.6,0.6,1.8,0.6,3.2c0,0.7,0,1.4,0,2.1c0,0.2,0,0.3,0,0.5c0,0.1,0,0.2,0,0.4c0,0.2,0,0.4,0.1,0.6c0.2,1,0.2,0.6,0,2.5
				c-0.9,0.8-1-1-1-3.1c0-0.7,0-1.3,0.1-2c0-0.7,0.1-1.3,0.1-1.9C6.6,475.8,6.6,474.9,6.6,474.7z M7.4,466.8
				c-0.2-0.6-0.7-1.4-0.7-0.1c-0.1,1.8,0.4,2.2,0.5,0.9c0.7,1.7-0.3,4.2,0,7.1l-0.5,0c-0.2-6.8-0.9-13.3-0.9-18.8
				c0-3,0.7-3.4,0.3-7.1c0.3-1,0.4-0.3,0.7,0.1c0.7-0.8,0.6-4.5,0.8-7.1c0.9-0.8-0.3,7.3,0.5,5.4c0.7,1.8-0.7,2.6-1,3.5
				c0.4,2.2-0.4,2.2-0.5,2.6c-0.1,1,0.1,2.7,0,3.6c-0.1,0.4-0.7,0.1-0.5,1.7c0.1,0.9,0.3,0.4,0.5,0c0.6-1.1,0-1.9,0.5-4.4
				c0-0.2,0.4,1.3,0.5,0.9c0.2-1.5-0.4-5.2,0.5-4.4C7.9,458,7.6,461.6,7.4,466.8z M6.7,464.9c0.1-1.7,0.7-1.6,0.5-4.4
				C6.5,459.4,6.1,464.2,6.7,464.9z M131.3,9.1c-3.7,0-3.5-1-8-0.8c2.5-0.8,4.9-0.7,7.1,0c1.8-0.6,5.8-1,8-0.2
				c2.1,0.6-2.3-0.2-4.5,0C132.2,8.2,132.2,8.8,131.3,9.1z M8,488.5c0.1,1.1-0.2,2.6-0.5,3.5c-0.3,0.9-0.7,1-0.7-0.9
				C7.6,492.7,7.2,488.6,8,488.5z M6.3,484.1l0,3.3C5.6,488.8,5.6,483.2,6.3,484.1z M116.8,11.9c0.9,0,1.8,0,2.7,0l-0.1,1
				c-0.9,0-1.8,0-2.7,0C118.3,12.4,116.7,12.6,116.8,11.9z M8.2,439.2c0.6,0.7,0.5,4.1,1.2,4.5c-0.1,6.2,0.2,13.9-0.3,18.7
				c-0.6-5.4,0.1-11.8-0.2-16.9C8.8,442.7,8.3,441.9,8.2,439.2z M14.4,152.7c1.3,2.8,0.8,7.8,0.7,14.3c-0.8-0.8-0.1-4.4-0.2-7.1
				C14.8,157,14.4,155.2,14.4,152.7z M184.7,10.1c-3.8,0,1.4,1-2.7,0.9c0.6,0.2,2,0.3,1.7,0.7c-1.7,0.2-2.9-0.2-4.4-0.3
				c-1.5-0.1-5.2,0.3-4.4-0.5c2.1-0.1,3.4,0.1,4.4,0.3c1.9,0,0.2-0.8,0-0.7c0.6-0.5,4,0,2.7-0.9c4.1,0.6,5-0.5,8,0
				c-0.5,0.2-1,0.4-0.9,0.7C187.8,10.2,184.5,10.6,184.7,10.1z M9.3,422.3c0.7,1.4,0.4,3.9,0,5.3c0,0.9,0.3,0.7,0.5,0.9
				c-0.5,2.1,0.2,4.2,0.2,6.3c0,1,0.3,4-0.5,3.5c0.3-3.8-0.7-5.9-0.7-8.1C8.7,427.5,9.4,426.1,9.3,422.3z M335.3,500.2
				c1.2,1-8.1,1.6-7.1,0.2c1.8,0,1.1,0.7,3.5,0.5c2.1-0.1-0.9-0.7-1.7-0.7c-3.9-0.1-2.3,1.3-6.3,1.2c0.7-0.8,3.9-1.7,7.2-1.6
				C333.1,499.8,333,500.2,335.3,500.2z M261.4,499.2c-2.2,0.1-5.7,0.6-5.3-0.5c1.7,0.1,1.6,0.7,4.4,0.5c0.7-0.8-3.6-0.3-2.6-1.2
				c2.4,0.1,8.6,1,7.1,0c1.3-0.6,4.9,0.1,4.4,0.7c-1,0.1-2.6-0.1-3.6,0c-0.5,0.1-0.7,0.5-0.9,0.5
				C263.9,499.3,262.5,499.1,261.4,499.2z M274.6,502.3c-2.7,0.5-9.2,0-13.4,0.2c1.2-0.4,2.4-0.8,1.9-1.7c3-0.2,1.3,0.8,1.7,1.2
				c2.4,0.2,1.1-0.5,1.8-0.7c0.5-0.1,2.1-0.3,1.8,0c0.4-0.4,0.3-0.7-0.8-1c-0.5-0.1-1.1,0.2-0.9,0.2c-0.9-0.1-3.5-1.1-5.3-0.7
				c1-0.6,4.6-0.6,5.3,0c4.8,0.1,4.5-0.7,8.9-0.2c-0.1,0.6-3,0.5-5.4,0.5l0,0.7c3.5,0,3.6-0.8,7.1-0.2c1,0,0.8-0.4,0.9-0.7
				c2.4-0.2,1.8,0.5,3.5,0.5c2.5,0.1,1.8-0.8,5.4-0.5c-0.1,0.8-2.6,0.9-5.4,0.9c-3.2,0.5-2.7,0.9-3.7,1.7c-3.4,0.3-0.1-1.1-3.5-0.7
				C273.5,501.9,273.7,502.3,274.6,502.3z M323.9,497.5c1.3-0.4,1.7,0.2,3.6,0.3c1.7,0,2.7-0.3,3.6-0.2c2.4,0.2,3.8,0.7,6.2,0.8
				c-2.4,1.3-6.2-0.6-9.8,0.2C326.6,498.1,325.5,497.8,323.9,497.5z M311.4,498.2c-0.4-0.5,4.1-0.8,4.5-0.2c2.2-0.3,3.3-0.9,7.2-0.7
				c-4.5,0.3-1.6,1,1.7,1.2c-3.9,1.3-7.5-0.5-12.5,0.2C312.4,498.4,312.1,498.3,311.4,498.2z M232,499c0.9,0,1.8,0,2.7,0
				c-0.5,0.6-0.8,1.2-3.6,1.2C230.4,499.5,232.3,499.6,232,499z M232.7,502.1c1.7,0.1,1.6,0.7,4.4,0.5c0.9-0.2,1-0.5,2.7-0.5
				c-0.1,0.3-0.2,0.7,0.8,0.7C238.5,503.2,232.9,503.4,232.7,502.1z M241.6,502.7c1-1,4.2,0.1,8-0.2c-1.7-1.1,6,0.2,8.9-0.4
				c0.6,1-4.7,0.6-7.2,0.7C247.7,502.8,243.7,503.2,241.6,502.7z M239.9,501.5c0-0.2,1.1-0.2,1.8-0.2c0.1-0.4-0.6-0.6-1.7-0.7
				c-0.1-0.3,5.2-0.3,1.8-0.7c0.5-0.9,3.1,0.2,3.5,0.3c1,0.1,2.6-0.1,3.6,0c0.4,0.1,0.5,0.4,0.9,0.5c1.3,0.2,3.1-0.1,2.6,0.5
				c1.6,0.1,4.5-0.2,3.5,0.5c-2.3-0.3-5.4-0.2-8-0.5c-1.6-0.2-3.1-1.5-5.3-0.5c1.6,0.5,5.9,0.2,5.3,1.2
				C243.4,501.9,243.6,500.9,239.9,501.5z M335.5,498.1c-0.5-0.2-1-0.4,0-0.5c3.7-0.2,12.3,0.2,18.7,0.1c3.2-0.2,3.2,0.4,0,0.2
				C347.9,498.1,341.4,498.4,335.5,498.1z M245.4,498.4c1.7-0.3,1.1-1.3,4.5-1.2c-2.7,0.3,2.3,1.3-1.9,1.2c0.5,0.5,4.5,0.1,3.5,1
				c-3.3-0.7-7.6,0-12.4-0.5c2.4-0.6-1.4-0.2-0.8-1C242.4,497.6,241.8,498.5,245.4,498.4z M247.4,496c-2.9-0.6,6.4,0.2,6.3-0.4
				c2.5,0.4,3.8-0.3,6.2,0.3c-3.3,0.2-7.9,0.9-9.8,0.7C253,496,250.8,496,247.4,496z M309.5,500.1c1.8,0.1,2-0.5,2.7-0.5
				c2.3,0,1.1,0.6,3.5,0.7c-2.1,0.8,0.2,1.3-3.7,1.4c-0.6-0.7,1.6-0.7,1-1.4c-2.3-0.1-5.1,0.8-2.8,1.2c-0.2,0.3-0.9,0.1-0.9,0
				l-1.8,0c-0.6-0.7,2.5-0.4,1.9-1.2c-4,0.2-4.7,0.7-8,0.2c0.1-0.7,2.1-0.9,3.6-1.2C308,499.4,307.4,500,309.5,500.1z M415.6,498.2
				c-1.7-0.5,7.2-0.1,9.8-0.2C423.9,499.1,419.4,498,415.6,498.2z M380.6,502.9c1.4,0.4,3.7,0.6,7.1,0.5c-0.4,0.8-6.2,0.7-6.3,0.2
				c-0.4,0.5-3.6,0.3-4.5,0.7c2.8,0.8,8.6-0.1,9.8-0.2c-0.2,0,0.1,0.5,0,0.5c1.9-0.2,2.7-0.6,3.6-0.9c1.5,0,2.3,0.2,2.6,0.5
				c2.2-0.1,4.9-0.4,6.3-0.2c3.4-0.3,0.1,1.1,3.5,0.7c1.3-0.1,0.1-0.4-0.9-0.5c0.7-0.5,5-0.1,7.1-0.2c-1.1,0.3-3.4,0.3-4.5,0.7
				c0.2,0.2,0.9,0.2,0.9,0.5c2-0.1,2.9-0.5,4.5-0.7c-0.9,0.8,6.8,0.6,8.9,0.8c-1.7,0.3-3.2,0.6-5.4,0.7c0.3,0.3,2.2,0.2,3.5,0.3
				c-2.8,0.7-13.2,0.9-18.8,0.9c-1.5,0-1.7-0.1-1.7-0.5c-0.9,0.1-0.7,0.4-1.8,0.5c-1.9,0.1-1.4-0.5-1.8-0.5c-1.1,0-1.5,0.4-2.7,0.5
				c-1.9,0.1-4.6-0.5-7.1-0.5c-4,0-7.6,0.3-11.6,0.2c-3.5-0.1-6.8-0.6-10.6-0.8c-1.5-0.1-2.3,0.2-2.7,0.2c-5.9,0-11.7-0.9-16.9-0.1
				c-0.6-0.2-1.6-0.4-2.6-0.5c0.7-0.5,5.5,0.1,4.5-0.9c-2.6,0.3-5.2,0.7-7.2,1.2c-4.2-0.8-11.9-0.2-17.8-0.6
				c-2.1-0.1-1.9-0.5-3.5-0.7c-2.2-0.3-5.4-0.1-6.2-0.7c0.7-1.1,5.2-0.2,7.1-0.2c2.7,0,6-0.1,8,0c1,0,1.8-0.2,1.8-0.2
				c0.7,0,2.4,0.5,2.6,0.5c1.1,0,3.2-0.2,4.5-0.2c3.1,0.1,4.1,0.3,7.1-0.2c0.2,0.7-3.6,0.9-0.1,1.2c1.3-0.1-0.3-0.3,0-0.7
				c2-0.3,4.9-0.3,5.4-0.9c7,0.4,11.6,0.2,16.9,0.8c3.4-0.2,5.9-0.6,7.2-1.4c2.2,0.2,4.8,0.3,8,0.3l-0.1,1
				C379.3,503.6,380.8,503.5,380.6,502.9z M348.5,503.4c0.2,0.3,1,0.4,1.8,0.5c0-1.1-2.5-0.5-5.3-0.5c0.8,0.4,0.2,1.2,1.7,1.4
				C348.5,504.3,345.5,503.8,348.5,503.4z M354.7,503.9c-2.8-0.1-2.4,0.6-4.5,0.7c0-0.2-1.5-0.3-1.8,0c3.3-0.2,1.4,0.9,4.4,0.7
				C351.9,504.5,355,504.7,354.7,503.9z M360.9,504.4c-0.4-0.7-3.3-0.7-5.3-1c-0.8,0.7,1.2,0.6,0.8,1.2
				C358.5,504.8,358.4,504.2,360.9,504.4z M399.1,506.1c0.7,0.1,1,0.2,0.9,0.5c2.2-0.1,4.6-0.2,4.5-0.9
				C401.9,505.6,399.9,505.7,399.1,506.1z M372.4,505.2c-2.8,0.3-8.7-0.6-7.1,0C366.3,505.4,374.4,505.7,372.4,505.2z M375.2,503.6
				c-0.5-1.4-9.1-0.1-9.8,0.7C370.5,504.5,369.6,503.1,375.2,503.6z M7.5,493.1c-0.1,1.1,0.1,1.1,0.4,1.1c0.5-0.2,0.9-0.5,1.9-0.3
				c-0.5,0.4-1.6,0.6-2.4,0.8c-0.2-0.2-0.4-0.1-0.8,0.5C6.6,494,6.9,493.4,7.5,493.1z M501,501c-1.2,1-4.4,0-8,0.2
				C490.8,500.8,498.9,501.1,501,501z M337.1,500.5c3.4-0.3,1.7,0.7,4.4,0.5c-1.3,0.7-4.4-0.4-5.4,0.2
				C333.1,500.9,338.6,501.1,337.1,500.5z M343.2,502.7c0.5,0.5-1.7,0.3-1.8,0.7c-2.5-0.3-3.7-0.3-6.2,0
				C336.5,502.2,339.1,503,343.2,502.7z M363.1,497.7c1.2,0,2.4,0,3.6,0c-0.5,0.2-1,0.4-0.9,0.7l1.8,0c1.1-0.1,0.9-0.5,0-0.5
				c1.1-0.7,3.4,0.2,4.4,0.3c0.1-0.4-1.1-0.5-0.8-1c2.1,0.8,4.7,0.6,8.9,0.5c-0.3,0.6-4.2,0.1-3.6,0.9c-0.3,0-0.9-0.1-1.5-0.2
				c-0.6-0.1-1.1-0.3-1.1-0.3c-0.6,0-0.9,0.5-0.9,0.5c-1.9,0-3.9-0.2-8,0C364.8,498.2,362.4,498.4,363.1,497.7z M200.6,10.9
				c0.1,0.7-3.2,0.8-4.5,0.5C196.3,10.8,198.4,10.8,200.6,10.9z M356.7,499.9c3.7,0,6.4,1,8-0.2c3.3-0.2,2.5,0.6,5.3,0.5
				c3.5,0.2,4.7-0.9,7.1-0.2c-0.8,0.5-3.7,0.6-7.2,0.7C365.6,500.8,357.5,501,356.7,499.9z M354.9,500.1c-0.8,1.9-7.7,0.1-11.6,0.9
				c1.1-1.1,0.5-0.3-1.7-0.7C344.7,499.1,350.2,501,354.9,500.1z M361.9,502.3c1.6,0,1.9-0.3,3.6-0.2c1.4,1-3.9,0.1-3.6,0.7
				c-4.2-0.2-8-0.6-13.3-0.5C347.1,501.6,359.4,502.3,361.9,502.3z M496.8,483.3c-2.3,1-3.3,2.4-7.3,3.1c-0.6,0.1-3.1,0-4.5,0.2
				c-1.4,0.2-4.9,0.9-8.1,0.4c-1.9,0.1-2.9,0.5-4.5,0.7c-12.8-0.3-20.9,0.4-29.4-0.1c0.7-0.2,1.6-0.4,2.7-0.5
				c-0.6-0.8-2.4-0.3-4.4-0.3c-0.6-0.7-5.2-1.3-7.1-1c2.5,0.7,5.1,1.4,7.9,1.5c-3.5,0.6-6.6-0.2-10.7,0.2c1.6-0.8-2.6-0.8,1.8-1
				c-1.2-0.3-4.4-0.5-5.3-0.3c0.1,0.8,3.5,0.7,2.6,1.7c-1.5,0-3,0-4.4,0c5.8-0.3-1-1.6-3.5-1c-0.1,0.4,1.9,0.1,2.7,0.3
				c2.1,0.5-5,0.1-7.2,0.4c-0.6-0.2-2-0.3-1.7-0.7c-2.7,0.6-6.8-0.4-9.7-0.8c4.6-0.3,10.1-0.4,10.8-1.9c1,0.1,0.6,0.5,1.7,0.5
				c2.7-0.1-0.8-0.5,0.1-1c3.3,0.2,4.3-0.3,7.1-0.2c0.8,0.7-2,0.4-3.6,0.5c-0.9,1.1,6.3,0.6,7.1,0c2.8-0.1,2,0.7,5.3,0.5
				c0.9-0.2,1.8-0.5,2.7-0.7c0-0.5-2.9,0-2.7,0c-1.2-0.1-1.4-0.5-2.6-0.5c-1.4,0-4,0.4-7.1,0c7.8-0.3,16.1-0.4,24.1-0.6
				c-1.1,1-1.1,1.7-0.2,2.4c2.7,0.2,2.6-0.4,5.4-0.2c2.4-0.2-2.3-0.5-0.8-1.2c1.5,0,3,0,4.5,0c-0.3-1.1-2.8-0.9-6.2-0.8
				c2.2-0.9,9.2-0.5,13.4-0.9c-0.5,0.2-1,0.4-0.9,0.7c2.2,0,2.8-0.4,4.5-0.5c-0.4-0.2-0.7-0.4-1.7-0.5c3.8-0.7,10.6-0.6,16.1-0.9
				c-1,0.3-1,0.6,0.8,0.7c2,0.2,3.7-0.9,1.8-1c0.1-0.5,3.8-0.1,5.4-0.2C494,481.3,494.2,482.6,496.8,483.3z M433.4,485.6
				c0.1-0.8-6.6-1.1-7.1-0.3C428.8,485.7,430,485.3,433.4,485.6z M449.5,485.4c-2.7-0.7-3.7-0.6-2.5-1.9c-4.6-0.3-1.4,1.4-2.8,1.4
				c-1.3-0.6-8.3-0.7-8.1,0.4c2.8,0.3,2.2-0.4,3.6-0.5C443.3,485.2,446.4,486.3,449.5,485.4z M468.3,484.1c-3.5-0.4-4.4,0.1-6.3,0.2
				c-1.3,0.1-5.7-0.3-4.5,0.5c0.2,0.5,3.9,0.1,4.4,0.5C463.2,484.1,466.1,484.7,468.3,484.1z M466.4,485.5c-0.3,0.6,1.8,0.6,3.5,0.7
				C470.9,485.5,468.7,485.5,466.4,485.5z M472.8,483.6c-2.2,0-2.8,0.4-3.6,0.7c1.2,0.1,1.7,0.3,3.5,0.3L472.8,483.6z M475.5,482.9
				c-0.7,0.2-2.5,1.6,0.8,1.4C477.6,484.4,478.3,482.6,475.5,482.9z M488,482c0.9,0,0.7-0.3-0.9-0.2c-0.3,0.8,1,1.2,3.5,1.2
				C491.5,482.2,487.7,482.7,488,482z M65.7,494.9c-2.2-0.3-7,0.1-7.1-0.8c3.9-0.1,5,0.4,8.9,0.3C67.2,494.6,65.7,494.5,65.7,494.9z
				 M63.1,493.9c-3-0.5,4.1-1,5.4-0.5C67.4,493.9,64.1,493,63.1,493.9z M92.5,493.5c-0.4,0.5-7.8,1.7-10.7,0.4
				c-1.7,0.2-3.3,0.4-5.4,0.5c-0.2-0.2,0.4-0.2,0.9-0.2c0.2-0.2-0.3-0.2-0.9-0.2c2.8-1.1,11.7,1.1,11.6-0.7
				C90.6,493.1,90.3,493.6,92.5,493.5z M55.9,494.3c-4.3-0.2-4.6,0.7-8.9,0.4c0.1-1,5.6-0.5,7.2-1.2c1.4,0.2,5.2,1,2.6,1.5
				c0,0.7,3.5-0.7,3.6,0c-0.2,0.9-4,0.7-6.3,0.4C53.3,494.7,55.5,494.8,55.9,494.3z M79.9,495.9c-5.7-0.3-8.2,0-14.2-0.3
				c0.8-1.1,4.4-1.4,9-1.4c1.4,1-3.9,0.1-3.6,0.7C73.7,495.7,78.5,494.6,79.9,495.9z M270.5,496.3c-0.2-0.4,1.6-0.6,0.1-0.7
				c1.4-0.7,4,0.2,3.5,0.7L270.5,496.3z M40.7,495.2c2.4-0.2,4.4,0.4,8.9,0c-0.3,0.6-4.2,0.1-3.6,0.9
				C43.9,496,40.3,496.1,40.7,495.2z M12.6,492.4c0.4-0.3,1.9-0.5,3.2-0.5c1.4,0,2.8,0.1,3.5,0.5c0.3,0.9-1,0-1.6,0
				C16.3,492.4,13.7,492.7,12.6,492.4z M89.7,495.7c5.7,0,0.7-1.5,6.3-1.4c-0.6,0.7-2.9,0.8-2.8,1.7c-3.7,0-7.8,0.6-8.9-0.5
				C87,495.6,91.9,494.7,89.7,495.7z M22.2,492c2.1-0.5,8,0,11.6-0.2C29.7,492.3,25.7,492.4,22.2,492z M31.9,494.2
				c2.3,0.4,2.7-0.1,5.3,0.3c-0.3,0.5-3.3,0.2-3.6,0.7C32.4,495,31.9,494.7,31.9,494.2z M12.5,494.8c0.6-0.6-0.3-0.8-1.9-0.7
				c1.1-0.5,2.2-0.5,3.4-0.4c1.2,0.1,2.6,0.3,3.8,0c0.5,0.3,0.3,0.9,1.5,1c1.8-0.1-0.5-0.5,0.2-1c0.2,0.1,0.6,0.2,0.9,0.2
				c0.2,0,0.4,0,0.6,0c0.1,0,0.2,0,0.4,0c0.2,0,0.4,0,0.6,0c0.4,0.2-0.3,0.4-0.7,0.6c-0.2,0.1-0.3,0.2-0.2,0.2
				c0.1,0.1,0.1,0.1,0.9,0.2c0,0-0.1,0.1-0.3,0.1c-0.1,0-0.3,0.1-0.5,0.1c-0.3,0.1-0.8,0.2-1.2,0.2c-0.9,0.1-1.8,0.1-2-0.2
				c-1.3,0-1,0.6-2.7,0.5c-0.1-0.5,1.1-0.5,2.1-0.5c0.3-0.4-0.4-0.4-0.4-0.7c-2.3,0.4-3.6,1.4-7.1,1.4c2.5-1.1-0.5-0.5-2.4-0.3
				c0.3-0.4,1.3-0.5,1.5-1C11,494.4,10.5,495,12.5,494.8z M42.7,491.4c2,0.5,5.5,0.1,8.9,0c1.6,0,1.9,0.2,3.5,0.3
				c1.6,0,1.9-0.3,3.6-0.2c6.9,0.1,16.1,0.2,24.9,0.1c-0.3,1.3-6,0.4-8.1,0.4c-2.6,0-4.2,0.6-6.3,0.2c-1.1,0.1-0.9,0.5,0,0.5
				c-0.9,0.6-3.9-0.2-3.5-0.7c-7.6,0.3-13.1-0.2-18.7,0.4C45.5,492.1,43,492,42.7,491.4z M278.6,495.9c-2.3-0.6,5.3-0.8,7.2-0.4
				C285.3,496.1,279,495.2,278.6,495.9z M288.9,501.9c-1.7-0.1-3.5-0.7-5.3-0.5c-0.4-1,6,0.3,5.3,0.3c0.7,0,4.3-0.2,7.1-0.2
				c2.7,0,4.9,0.3,7.1,0c0.2,0.4,1.5,0.6,3.5,0.5c-2.8,0.7-6.4-0.3-10.7-0.3C293.3,501.7,291.2,502.1,288.9,501.9z M281.2,497.3
				c0.6,0.7-3.1,0.3-1.9,1.2c-1.5,0-2.3-0.2-2.6-0.5C278.2,497.8,277.8,497.1,281.2,497.3z M276.6,498c-2.5-0.1,1,1.6-2.8,1.2
				c-1.1-0.6,2.7-1,0.1-1.2C274.3,497.5,276.4,497.5,276.6,498z M280,501.9c2.7-0.1,3.4,0.8,5.3,0.3
				C288.1,502.4,277.9,503.3,280,501.9z M135.5,489.9c3.7,0,3.4,0.3,6.2,0c0,1.4-5.3-0.3-4.5,1.2
				C134.2,491.4,135.9,490.4,135.5,489.9z M233.5,489.9c4.8-0.7,11.1,0.2,16,0.1c3.9-0.1,6.3-0.9,8.9-0.4c0.2,0.7-3.4,0.3-5.4,0.5
				c-1.7,0.1-3.1,0.4-4.5,0.5c-1.3,0-1.3-0.2-1.8-0.2c-1,0-3.5,0.5-4.4-0.3C237.8,490.3,238.1,490.3,233.5,489.9z M293.4,500.5
				c-0.8,0.4-2.9,0.3-4.5,0.5C288.4,500.1,292.1,500.1,293.4,500.5z M302.5,497.2c1.4,0.4,3.4,0.5,5.3,0.7c-2.9,1.8-10.9,0.8-17,0.9
				c-1,0-0.8,0.4-0.9,0.7c-2.4-0.9-4.8,0-8,0.2c-2.8,0.1-2.3-0.7-4.4-0.7c2.9-0.6,6.3,0.3,9.8-0.2c1.6-0.4,1.6-1.2,4.5-1.2
				c0.2,0.4-0.9,0.4-0.9,0.7C296.1,498,302.4,499.2,302.5,497.2z M286.9,491.8c0.9-1,4.3-1,8.1-0.7c1-0.5,7.7-0.9,7.1,0.3
				C296.9,491.5,290,492.1,286.9,491.8z M493.1,132.1c-0.4-4.3-0.1-11.3-0.4-16.1C493.3,120.4,493.3,127.1,493.1,132.1z M-7.9,443.5
				c0.8,0.6,0.3,3.4,0.2,5.4C-8.4,448.3-8,445.5-7.9,443.5z M-6.7,449.8l0-8C-6,441.5-5.8,450.3-6.7,449.8z M-9.1,448.7
				c-0.7-0.7-0.3-2.4-0.2-4.5C-8.7,444.4-8.8,447.6-9.1,448.7z M-6.2,394.6c-0.5-0.4-0.1-4.4-0.2-6.3
				C-5.5,389.2-6.2,391.9-6.2,394.6z M-11.3,450.4c0.3,6.3-0.2,9.4-0.1,14.3c-0.9-1.4-0.1,4-1,2.6c0.3-2.9,0.1-5.7,0.3-8
				c0-0.2,0.4,0.2,0.5,0c0.2-0.7-0.1-3.5,0-4.5c-0.2-1.4-0.4,0.2-1-1c0.8-2.1,0-4.7,0.5-8c0-1-0.2-0.5-0.2,0
				c-0.7-0.9,0.3-2.4,0.3-3.5c0.5-0.3,0.6,5.4,0.9,2.7c0.6,1.7-0.4,4.5-1,2.6C-11.7,448.5-11.9,450.9-11.3,450.4z M-6.3,468.5
				c-0.9-0.7-0.3-6.5-0.4-9.8C-5.7,460.6-6.9,465-6.3,468.5z M-9.5,380.1c0.6,0.2,0.8-1.3,1-2.6c-0.2-0.8-0.4-1.4-0.7-1.8
				c0.1-2.1,0.4-3.3,0.3-6.2c0.6,2.2,0.8,0.4,1.2,2.8c-0.4,3.5-0.3-0.2-1-0.1c0.1,3.1,1.1,3.1,0.7,8.1c-1.3-0.4-0.7,1.7-0.7,5.3
				c-1-0.1-1.2-3.4-1.2-7.2C-9.5,378-9.5,379-9.5,380.1z M-9.9,465.6c0.5,1-0.3,4.8,0,8C-10.7,473.3-10,467.8-9.9,465.6z
				 M-13.2,456.5c-0.5,0.1-0.1-3.2-0.2-4.5C-12.5,452.4-12.8,455.1-13.2,456.5z M-9.9,363.1c-0.3-1.6-0.8-2.4-0.7-5.4
				C-9.8,357.8-10,360.9-9.9,363.1z M-9.5,338.2c-0.1,0.7-0.3,1.4-0.3,2.7c-0.3-1.6-0.8-2.4-0.7-5.4C-10,335.8-10,337.9-9.5,338.2z
				 M-6.3,472.1c-0.1,6.9-0.1,11.3-0.1,15.7c0,5.3-0.1,10.6-0.2,19.1c-0.4,4.2-0.2-4.3-0.2-7.2c0-8,0.1-20.6,0.1-29.4
				C-6.4,470-6.3,471-6.3,472.1z M-10.1,301.6c-0.1-3.8,0.6-3.4,1.2-2.6C-8.8,301.8-9.6,300.8-10.1,301.6z M-12.7,261.4
				c-0.1-2.3,0.1-3.8,0.7-3.5C-11.9,260.2-12.1,261.7-12.7,261.4z M-12.7,296.1c-0.4-5.2-0.2-12,0.3-17.8c0.1-2.8-0.7-2.1-0.5-5.4
				c0.2,0.2,0.2,0.9,0.5,0.9c0.3-4.8-0.3-6.6-0.4-9.8c1.2,1.2,1.2-2.2,1.5-4.4c1.1,2.2,0,8.1-0.5,9.8c0.9,0.6,1.8,4.7,1.4,7.2
				c-0.7,0.3-0.2-3.3-0.7-3.6c-0.7,0.8,0.1,3,0.2,3.6c-0.2,0.9,0.3,4.2,0,5.3c0,0.1-0.5-0.1-0.5,0c0,1.1,0.4,2.1,0.5,3.6
				c0.1,1.4-0.2,1.3-0.3,1.8c0,1.2,0.5,2.3,0,4.5c-0.1,0.4-0.1,1.4-0.2,1.8C-11.8,294.6-12.7,291.5-12.7,296.1z M-11.9,292.6
				c-0.2-4,1.3-7-0.4-7.2C-12.3,288.1-12.7,292.4-11.9,292.6z M-6.3,366.9c0.8,0.5,0.3,4.3,0.2,6.3C-6.6,372.8-6.2,368.8-6.3,366.9z
				 M-7.5,365.1c0.5,1.9,0.1,7.4,0.2,10.7C-7.8,373.9-7.3,368.4-7.5,365.1z M-5.7,244c-0.8-1.7-0.1-3.6-0.2-7.1
				C-5.5,234.5-5.7,242.1-5.7,244z M-5.8,274.3c-0.4-3.2-0.2-7.7-0.2-12.5c0-4,0.2-18.4,0.3-10.7C-5.6,257-5.9,267.8-5.8,274.3z
				 M20.4,3.7c1,0.5-0.4,0.5-2.4,0.5c-2-0.1-4.7-0.2-5.8,0c1.3-0.5,4.2-0.9,6-0.2C19.2,4,20.3,4,20.4,3.7z M33.5,4.5
				c-3.2-0.2-6.5-0.4-10.7-0.3C25.2,3.7,33.2,3.5,33.5,4.5z M39.6,6.5c2.2,0,0.2,0.8-0.1,1c-2.2,0-2.7-0.4-4.4-0.5
				C35.9,6.3,39.3,7.5,39.6,6.5z M1.1,509c3.9-0.4,14.9-0.3,18.6,0.1c-3,0.3-6.7,0.3-10.1,0.2C6.1,509.1,3.1,509,1.1,509z
				 M-10.6,258.8c-2.1-0.5-2-7.9-1.1-13.4c-0.1-1.3-0.4-0.1-0.5,0.9c-0.7-2.6,0.4-5.8,0.5-8c0-1.1-0.3-0.4-0.2,0
				c-0.3-2.1-0.2-7.9,0.3-9.8c-0.4-1.4,0-5.1-0.9-4.5c0.7-3.5,0.4-7.5,0.3-12.5c0.3-2.1,1.2-2,1.2-5.3c-0.5-2.2-0.5,4.9-1.5,1.7
				c-0.1-1.8,0.1-2.8,0.5-2.6c-0.1-6.1,0.4-14.1-0.1-18.7c0-1.9,0.2-2.8,0.7-2.6c-0.9-1.3-0.9-6.4-0.4-10.7c-0.6-1-0.4-4.9-0.7-7.2
				c0.5-0.4,0.5,1.3,0.5,2.7c0.7-2.3-0.3-5.6,0.3-8c0-1-0.2-0.5-0.2,0c-0.9-1,0.2-1.4,0.3-2.7c0,0,0-3.9,0-4.5c0-1.5,0-3,0-4.5
				c0-0.5,0.1-1.2,0.3-1.7c0.1-0.5,0.2-0.9,0.2-0.9c0-1-0.6-2.3-0.7-3.6c-0.1-1.4,0.3-1.6,0.3-2.7c0-0.7-0.3-0.9-0.2-1.8
				c0.1-3.5,0.6-5.7,0.3-8c0-0.3-0.3,1.3-0.3,2.2c-0.3-4,0.2-8.2,0.3-12c0-1.4-0.2-2.9-0.2-4.5c0-0.5,0.3-2,0.3-3.5
				c0-1.2-0.4-0.2-0.5-0.9c-0.3-1.6,0.2-4.5,0-6.2c0.4,0.2,0.5,1.6,0.5,3.6c0.4-3.5,0.9,1.3,1.4-0.8c0-0.7-0.2-0.9-0.2-1.8
				c-0.1-2.7-0.5,0.8-1-0.1c-0.4-0.7,0.1-1.9,0-3.6c0-0.3-0.5-2.5-0.5-2.7c0-0.4,0.8-4-0.2-3.6c-0.1-2,0.5-1.2,0.5-2.6
				c0.1-1.5-0.2-1.7-0.5-1.8c0.5-3.8,0.7-6.6,0.1-10.7c0.3-2.2,0.7-4,0.8-7.1c-0.4-0.4-0.5,0.7-0.5,1.8c-0.4-1.6,0.1-3.2-0.2-6.3
				c0-1.7-0.8-0.6-1-1.8c0.4-2.8-0.6-3.9-0.7-5.4c-0.1-0.8,0.1-2.9,0-4.5c-0.4-6.4,0-18.7,0.1-28.5c0-1.9-0.6-5,0.3-6.2
				c0.1-1,0-1.3-0.2-1.6c-0.1-0.1-0.1-0.2-0.2-0.4c-0.1-0.3-0.1-0.7-0.1-1.3c0.1-6.7,0.1-12.6,0.1-18.2c0-5.5,0-10.6,0.1-15.3
				c3.1,0.1,6.1,0.2,9.1,0.4c-2.5,0.3-5.5,0.2-8.6,0.1c-0.1,2.9-0.2,6,0.1,9.3c0.9,2.7,0.5-4.8,0.5-8.4c0-0.1,0-0.2,0-0.3
				c1.8,0,4.5,0.2,4.3,0.2c3.4-0.1,4.6-0.6,7-0.5c8.2,0.6,17.5,0.7,22.1-0.2c0.5,0,1,0,1.5,0.1c0.5,0,1,0,1.4,0c0.9,0,1.9,0,2.8,0
				c1.8,0,3.5,0,5.1,0c3.3,0,6.2,0,8.8,0.5c5.2-0.9,15-0.1,21.4,0.1c2-1,8.9-0.2,15.2-0.2c4.8,0,9.4-0.4,13.4-0.4
				c5.7,0,11.4,0.1,16,0.1c4.8,0,9.8,0.6,13.4-0.2c2.3,0.8,4.3,0,7.1,0c1.5,0,1.5,0.2,2.7,0.3c4.9,0.1,11.1-0.4,17-0.4
				c3.2,0,6,0.3,8.9,0.3c1.8,0,3.5-0.4,5.4-0.5c2-0.1,4.1,0.3,6.2,0.3c3,0,6-0.6,8.9-0.2c0.9,0,0.7-0.3,0.9-0.5
				c2.1,0.2,4,0.4,7.1,0.3c2.7,0.6,4.2,1.4,9.7,1.2c1.7,0.7-3.7,1.1-2.8,2.4c1,0.7,4.6,0,6.2,0c1.4-0.2-0.2-0.4,1-1
				c3.4-0.2,1.9,0.9,4.4,1c3.3,0.3,2.6-0.6,5.4-0.5c-0.1,0.4,1.1,0.5,0.8,1c3.1,0.2,3.4-0.3,6.3-0.2c0.2,0.4-0.9,0.4-0.9,0.7
				c3.3-0.1,6.1-0.4,8,0.3c1.1,0,0.4-0.3,0-0.2c2.6-0.3,8.5-0.2,10.7,0.3c1.7-0.2,0.7-0.7,2.7-0.2c2.4-0.1,4.2-0.5,5.4-0.9
				c1.2,0.2,1.1,0.8,2.6,1c0.7-0.1,1.5-0.2,2.7-0.2c0.1-0.6-1.5-0.7-0.8-1.4c2.3,0,1.1,0.2,0.9,0.5c2.5,0.3,2.4-0.4,4.5-0.2
				c2.2,0.2,4.4,2,6.2,0.5c-0.2-0.3-2.6-0.3-2.7,0c-1.5-0.3-0.9-1-1.7-1.4c2.1-0.1,4.1-0.3,7.1-0.2c-0.4,0.5-4.9-0.1-4.5,0.7
				c3.3,0.6,10.1,0.1,11.6-0.7c2.9,0.3,8.5-0.2,8,1c3.3,0.3,2.6-0.6,5.4-0.5c1.6,0.2-0.6,0.3-1.8,0.2c0.3,0.8,5.6,1,2.5,1.9
				c1.2,0.3,5,0.4,6.2,0c-0.7-0.4-2.8-0.4-4.4-0.5c1.5-0.4-1.3-1.4,2.8-1.4c4.2,0-1,0.3-0.1,1c3,0,3.9-0.8,5.3,0
				c2.7-0.1-0.8-0.5,0.1-1c1.7,0.4,5.9,0.2,8.9,0.3c1.7,0.4-1.6,1,1.7,1.2c1.5,0,2.3-0.2,2.7-0.5c-0.2-0.3-2.7-0.1-2.6-0.5
				c-0.9-0.8,2.8-0.4,4.5-0.5c-0.7-0.9-3.6-0.2-6.2-0.3c1.6-1.2,6.1-0.3,10.7-0.4c-0.3,0.3-1.6,0.4-1.8,0.7c5.8-0.4,5.7,0.7,7.9,1.2
				c0.7,0,0.9-0.2,1.8-0.2c-1.3-0.8-3.8-1.2-4.3-2.2c1.9,0.2,3.5,0.5,3.5,1.2c2.8,0.1,3.7-0.3,4.5-0.7c1.2,0.2,1.6,0.5,1.7,1
				c2.9-0.1,1.1-0.5,5.4-0.2c1.4,0.1,3.6,0.2,3.5,0.5c3.3-0.2-0.3-0.7,1.9-1.2c-0.9,0-1.8,0-2.7,0c0.9-0.5,6.5-0.1,5.3,0.7
				c4-0.2,5.3,0.3,8.9,0.3c-2.1-0.5-9.5-0.6-7-1.5c2.5,0,2,0.7,4.4,0.7c0.7,0,0.9-0.2,1.8-0.2c0.1-0.4-1.1-0.5-0.8-1
				c-1.9-0.1-2.4,0.2-3.6,0.2c-1.6-0.6,5.5-0.4,7.1,0c0.1,0.4-1.1,0.5-1,1c3.5-0.4,9.4-0.3,10.7,0.5c1.7-0.4-0.7-0.8-1.7-1.2
				c4.9-0.7,9.1,1.4,15.1,0.6c2.8-0.2,1,0.8,4.4,0.5c2.8,0.2,1.9-0.6,3.6-0.7c4.3,0.5,7,0.1,9.7,0.8c0.9-0.2,1-0.5,2.7-0.5
				c1.2-0.2,1.2-0.8,2.7-0.9c-1-0.3-0.7-0.5,0.9-0.5c0.2,0.7-2.6,1.4,0.8,1.7c2.3,0-1.2-0.4,0.1-1c3.4,0.2,5.6-0.5,8-0.4
				c3.3,0,5.6,0.9,9.7,0.8c2.1,0.1-0.4-1.1,2.7-0.7c2.8-0.1,0.4,0.3,0.9,0.5c0.5,0.2,2.9,0.1,2.6,0.7c3.6-0.3,1.2-0.8,2.8-1.4
				c2.7,0.3,7.1,0.4,9.8,0c1.9,0.5-0.2,0.8-1,1.2c1.5,0.5,5.5,0,8.9-0.2c-0.8,0.8,0.5,1.1-2.8,1.4c0.3,0.3,2.2,0.2,3.5,0.3
				c2,0,0.4-1,1-1.4c2.7,0,2.2-0.9,5.4-0.7c1,0,0.8-0.4,0.9-0.7c5.8,0.4,11.1,0.1,16,0.3c0.9,0,0.7-0.3,0.9-0.5
				c3.7,0.1,6.5-0.1,8.9,0c0.2,0-0.2,0.4,0,0.5c0.7,0.2,3.5-0.1,4.5,0c0.5,0,0.6-0.1,0.8-0.3c0.2-0.1,0.3-0.2,1.3-0.2
				c0.5-0.2,0.4-0.3,0.1-0.4c-0.3-0.1-1-0.1-1.3-0.1c-0.7,0-1.4-0.1-0.9-0.5c0.5-0.1,0.9-0.1,1.3-0.1c0.6,0,1,0,1.4,0.1
				c0.8,0.1,1.2,0.3,1.8,0.4c1,0.3,2.2,0.6,6.4,0.2c0.3,0.4-1.5,0.4-1.7,0.7c2.1,0.2,4.2,0,5.9-0.1c1.8-0.1,3.2-0.2,4,0.2
				c1.7,0,1.5-0.4,1.9-0.7c5.2,0.3,9.2,0.2,13.5,0.1c0.1,2.5,0.2,5.1,0.3,8c-0.3-0.1-0.1-4.3-0.5-4c-0.4,1.2-0.2,4.9,0.1,7.3
				c0.3,2.3,0.7,3.2,0.6-1.9c0.5,0.3,0.1,7.3,0.2,10.3c-0.5-0.5-0.6,1.2-1,1.7c0,1.6,0.2,0.7,0.2-0.1c0.4,1.6,0.2,5.3,0.1,8.6
				c0,0.8-0.1,1.6-0.1,2.4c0,0.4,0,0.7,0,1.1c0,0.2,0,0.4,0,0.6c0,0.8,0.2,1.4,0.5,1.8c0.1,2.8-0.7,2-0.5,5.3
				c0.5,0.5,0.5-1.2,0.5-2.6c0.5,0.9-0.1,5.1-0.3,6.2c0.1,1.5,0.8-1.1,0.7,2.7c0.1,1.9-0.4,1.7-0.7,1.7c-0.2,3,0.6,5.6,0.7,9
				c0,0.5-0.2,1.1-0.3,1.8c0,1.2,0.2,1.5,0.2,1.8c0,2.2-0.1,6.1,0,9.8c0,1.6,0,4.6,0,6.2c0,2.3,0.6,4.4,0,6.2
				c-0.1,0.4-0.4,2.2-0.3,3.5c0,0.1,0.5,0.9,0.5,0.9c0,0.3-1.1,6.2,0.2,7.1c0.1,3.5,0.1,5.5,0.2,10.7c0,1,0.2,3.8,0.2,3.6
				c0,1.2-0.5,1.4-0.5,2.6c0,2.8,0.8,2.5,0,4.5c0.2,0.9,0.5,1.8,0.7,2.7c0.1,13.2,0.2,26,0.8,37.5c-0.2,0.8-0.4,1.3-0.7,1.7
				c1.2,8.6,1,17.3,1.3,25.9c-0.1,2.3,0.9,0.8,0.7,3.6c-0.8-0.5-1,1-1.2,2.6c0.7,0.7,0.5-2.4,1.2-1.7c0,2.2,0,4.3-0.5,4.4
				c0.2,1.2,0.5,1.7,1,1.8c0.2,6.2,0,8.3-0.1,15.1c-1.1-2.5-1.3-2.4-2.6-2.8c-0.1,1.9,0.3,1.7,0.7,1.8c-0.1,2.5-0.9,2.4-1.5,3.5
				c0.4,4.4-0.5,8.2,0.4,10.7c0.1,2-0.5,1.2-0.5,2.6c0.1,1,0.5,0.6,0.5,1.8c0.2,3.1-0.4,3.4-0.3,6.2c-0.5,0.5-0.9,1.3-0.7,4.4
				c0.8,2.1,0.3-7.3,0.7-1.7c0.1,1.5,0,3.3,0,3.6c0.1,2.2,0.4,2.7,0.5,3.6c0,1.6-0.3,1.9-0.3,3.5c0,6.9,0.4,15.6,0.1,19.6
				c0,1,0.4,0.8,0.7,0.9c-0.5,4.3-0.2,11.8,0.6,16.1c0.1,1.8-0.3,2.9-0.3,4.4c0,1.7,0.5,2.2,0.5,2.7c0,1.1-0.4,1.2-0.5,1.8
				c0,0.4,0.2,4.2,0.2,4.5c0,1.6,0.3,2.8,0.2,5.4c0.3-0.3,0.2-2.2,0.3-3.5c0.5-2.1,0.1,5.9,0.2,8c-0.6-2.1-0.8,2.6-1.2-1
				c-0.7,0.8,0.6,1.7,0.2,4.5c0.5,1.3,0.9-2.2,1,0.1c0,3.5-0.4-0.3-0.7,1.7c-0.1,1.7,0.6,1.1,0.7,1.8c0.1,0.7-0.3,4.7,0.5,3.6
				c0.1,4.9-0.2,8.4-0.3,12.5c-0.8-0.5-0.9,1.9-1.4-0.1c-0.4,3.4-0.4,12.3-0.1,16c0.1,0.8,0.2,0.8,0.5,0.9
				c0.3,7.4-0.7,15.6,0.1,19.6c-0.2,3.8-0.7,9.7,0.4,9.8c-0.3,2.4,0.2,4.6,0.2,7.1c0,1.7-0.3,3.9-0.3,5.3c0,1,0.4,2.1,0.5,2.7
				c0.3,3.6,0.1,7.9,0.2,11.6c0.1,3.1-0.1,8.6,0.2,13.4c0.2,3.1,0.6,5.2,0.7,8.1c0.1,3.3-0.2,6.5,0.2,9.8c-0.7-0.7-0.9,0.9-1.4,0.8
				c0.2-3.3-0.9-2-0.9-4.5c-0.7,0.8,0.3,2.8,0,5.3c-0.7-2.3-2.1-3.1-2.6,0.7c-0.1,0.5,0.4,2,0.5,2.7c0.1,1.9-0.2,6.2,0,9.8
				c0.1,3.2,0.7,4.9,0.2,8c0.8,2,0.5,11.2,0.9,17c0.1,1.8,0.5,2.7,0.7,4.5c0.4,5.1-0.2,10.4-0.3,15.1c-0.9-0.5-1,2.2-1.7,2.6
				c-0.4,4.9-1.9,5.2-2.4,9.6c-0.9-1.8-1,0-1.2,2.6c-1.2-3.3-1.7,2.2-2.7,2.5c0.1-1.4-0.2-1.5-0.2-2.7c-0.3,0.3-0.2,2.2-0.3,3.5
				c-0.6-2.2-0.8-0.4-1.2-2.8c-0.4-0.4-0.5,0.7-0.5,1.7c-0.1-1.2-0.7-0.7-1-1.8c-0.1-0.3,0.1-1.6,0-1.8c-0.4-0.9-1.1,0.4-1.2-1
				c0-0.6,0.3-1,0.2-1.8c-0.2-1.8-0.5-2.5-1.2-3.6c0.2-3.1-0.3-3.4-0.2-6.3c0-1-0.4-0.8-0.7-0.9c0.9-4.3,0.8-12.7,2-15.9
				c0-2.4,0-4.7,0-7.1c-1.4-0.4-2,2.7-3.1,3.4c-0.2-5.9-1.5,0.5-2.2-1.9l0-3.6c-0.6-0.1-0.7,1.5-1.4,0.8c0.2-4.9,0.2-5.6,0.3-9.8
				c0.5-0.5,0.8-1.7,1-3.5c-0.1-3.1-0.6,0-0.7-1.8l0-3.6l1,0.1c-0.3-3.5,0.8-6.1-0.2-7.1c-0.4,0.1,0.4,5.3-0.7,4.4l0.1-27.6
				c-0.1-1.2-0.4-1.4-0.5-2.7c-0.6-0.1-0.7,1.5-1.4,0.8c-0.2-4.3-0.8-3.9-0.4-8.9c-0.7-0.9-0.4,2-0.5,3.5c-0.2,2.8-0.3-1.6-0.2-2.7
				c0.3-6.1-0.6-16.7,0.8-18.7c-0.4-1.8-1-2.9-0.7-7.2c0.3,0.2,0.1,2.7,0.5,2.7c0.2-0.2,0.2-0.9,0.5-0.9c-0.1-2.1-0.3-4.2-0.9-4.5
				c-0.2-6.2,0.7-11,0.1-16c0.7,4.6,0.6-3.7,0-4.5c0-5.6,0.2-12.1,0.1-16.9c-0.3-13,0.8-29.7-0.3-39.2c0.2-1.6,0.4-0.1,0.7,0
				c0-1,0.1-1.6,0.3-1.8c0-2.5-0.4-2.2-0.5-4.5c0-1.6,0.5-3.7,0.5-5.3c0-1.9-0.6-2.4-0.5-4.5c0-1.9,0.2-2.8,0.7-2.6
				c-0.3-1.9-1-2.2-0.7-6.3c0.3,0.2,0.2,1.8,0.5,1.8c0.4-1,0-3.7,0.3-6.2c0-0.3,0.5-1.6,0.5-1.7c0.3-6.5-0.4-13.7-0.2-17.8
				c-0.2-0.8-0.4-1.4-0.7-1.8c0.9-3.4,0.3-9.7,0.1-14.3l0.7,0c-0.2-2-0.1-4.8-0.7-5.4c0.2-2.7,0.6,1.1,1,1c0-3.1-0.4-4.2-0.7-6.3
				c0.3-3.9,0.2-9.3-0.4-12.5c0.1-1.3,0.4-2.2,0.5-3.5c-1-12.7-1.3-27.4-0.8-41.9c-0.2-2.2-0.4-4.3-0.7-6.3
				c0.2-3.5,0.6-6.3,0.5-10.7l1,0.1c-0.4-3.2-1.4-8.7-0.4-11.6c0.6,1.1,0,4.6,0,6.2c0.2,2.2,1.1,2.1,0.9,5.4
				c0.3-0.6,0.5-1.9,0.5-3.5c0.4,2.9,1.5,1.4,1.9,2.8c1,3.3,0.3,7.9,0.9,12.5c-0.1,1.7-0.1,3.8-0.7,3.5c0.1,1.3,0.3,2.3,0.5,3.6
				c0.4-0.2,0.6-1.5,0.5-3.5c0.5,2.1,0.2,8.4-0.1,10.7c-0.7-1-0.6-0.5-1.2,0.8c0.1,2.2,0.9,3,0.2,5.4c0.3-0.1,0.4,0.2,0.5,0.9
				c0.7-0.2-0.3-7.4,0.8-6.2c0,3.9,0,8-0.3,10.7c0.2,3.4,0.8,0.1,1.2,1.9c0.1-2.7-0.5-5.1,0-7.1c0.4,0.2,0.8,0.6,1,1.8
				c0.3-0.5,0.6-1.4,0.7-2.6c-0.4-3.3-0.7,1.5-1.2,0.8c0.1-1.9-0.3-1.7-0.7-1.8c-0.2-2.7,0.3-3.2,0.3-5.3c0.3,0.3,0.2,2.2,0.2,3.6
				c1.1-1.3-0.1-4.8-0.4-6.3c0-3.3,0.6-4.3,1-6.2c-0.1-1.8-1.2-0.3-0.9-3.6c0.2-1.5,0.8-1.9,1.2-2.6c-0.2-1.2-0.8-1.2-0.9-2.7
				c-0.1-8.4,0.2-19.5,0.1-30.3c0.1-2.1-0.7-1-0.7-2.7c-0.3,0.6-0.5,1.9-0.5,3.5c-0.8-2.5-1.5,0.9-2.2,1.6l0-1.8l0-1.8
				c0.7,1.3,1.4,0.8,1.5-2.6c-0.7-0.7-0.3,3.1-1.2,1.7c0.7-3.4,0.3-5.9-0.2-8.9c-0.5,1.5,0,3.4,0,5.3c-0.1,3.5-0.7,5.3-1,8
				c-0.3-1.3-1.3-3.3-1.4-0.1c-0.3-2.9-0.7-5.8-1.2-8.1c-0.2-2.4,0.5-1.8,0.5-3.5c0.2-2.4-0.2-4.5-0.2-7.1c0-1.5,0.3-1.5,0.3-2.7
				c0-3-0.3-5.4-0.2-8c0.2-5.4,0.1-16.5,0.1-22.3c0-1.6,0.7-4.4-0.2-5.4c-0.2-2.4,0.5-1.8,0.5-3.5c0.1-1.5-0.2-1.7-0.5-1.8
				c-0.2-2.9,0.8-1.2,0.7-3.5c0.2-3.3-0.6-5,0-7.1c0-1-0.4-0.8-0.7-0.9c0.5-2.7,0.6-6.7,0.5-11.5c-0.2-0.8-0.4-1.4-0.7-1.8
				c0-3.5,0.1-8.8,0.1-14.9c0-4.1,0.1-8.8,0-13.3c-3.9,0-7.5,0.1-10.7,0.1c-1.8,0-2.6,0.4-5.6,0.4c-5.8,0.2-11.4-0.3-16,0.2
				c4.6,0.2,3.1,0.7-1.8,0.7c2.9,0-18.3-0.2-25.8-0.1c-1.5,0-1.5-0.3-2.7-0.3c-1.6,0-4,0.3-6.3,0.2c-1.9,0-3.4-0.3-4.4-0.3
				c-2.1,0-3.6,0.7-8.1,0.4c-0.9,0-2.8-0.5-2.6-0.5c-1.4,0-2.9,0.6-4.5,0.7c-0.5,0-1.6-0.3-2.7-0.3c-2.3,0-4.7,0.4-7.2,0.4
				c-2.3,0-11.9-0.2-15.1-0.1c-1,0-0.9,0.6-2.7,0.5c-0.2-0.4,0.9-0.4,0.9-0.7c-1.6,0-1.9,0.3-3.6,0.2c-0.2,0.3,0.2,0.4,0.9,0.5
				c-0.4,0.7-2.8,0-1.7-0.5c-2.1,0.3-3.2,0.3-5.4,0.2c-0.7,0-4.9,0.5-6.3,0.4c-1.7,0-3.4-0.3-5.3-0.3c-5.3,0-12.2,0.3-16.9,0.2
				c-2.3-0.1-4.9,0.4-7.2,0.4c-1.4,0-1.5-0.2-2.7-0.3c-2.7-0.1-5.2,0.3-7.1,0.2c-1.7,0-3.2-0.4-4.4-0.5c-1.6-0.1-4.2-0.3-5.3-0.3
				c-0.8,0-2.4,0.5-2.7,0.5c-1.5,0-1.5-0.2-2.7-0.3c-1.6,0-1.9,0.2-3.6,0.2c-1.9,0-3.6-0.3-5.3-0.3c-2.6,0-9.5,1-14.3,0.2
				c-0.8,0.5-7.3,0.7-12.5,0.7c-1.3,0-3.1-0.3-4.4-0.3c-9.6,0.1-19.4,0.7-27.7,0.3c-1.7-0.1-3.3-0.7-5.3-0.3
				c0.1,0.3,1.6,0.2,2.7,0.3c-2,0.4-10.3,0.5-9.8-0.5c-0.6,0.6-2.2,0.3-5.4,0.5c-1.5,0.1-3.8,0.8-8.1,0.4c-0.4-0.5,1.3-0.5,2.7-0.5
				c-0.5-0.2-2-0.9,0.9-0.7c-0.5-0.7-1.9,0.2-3.6,0c0.7-0.2,1-0.5,1-1c-2.5-0.2-2.3,0.3-4.5,0.2c1.1-1-2.7-1.2-4.4-0.7
				c1.1,0.8,4.9,0.9,5.2,1.9c-1.4,0.4-3.8,0.4-4.5,0.9c-1.3-0.3-1.3-0.9-2.6-1.2c-2.6,0-2.2,1.1,0.8,1c-3.2,0.8-5.7-0.5-6.2-1.2
				c-1.7,0.5-5.3,0.5-4.6,1.7c-1.3,0-2.5-0.1-2.7,0.2c-1.8-0.5-5.9-0.4-6.2-1.2c2.3-0.1,4.5-0.1,3.5,0.7l4.5,0
				c0.8-0.9-4.3-0.3-3.5-1.2c2.8-0.3,2.4-0.1,4.4,0.3c-0.2-0.8-3.9-0.7-4.4-1.5c-2.7,0-4.1,0.8-6.3,0.2c0.1-1.1,6.5-1.8,5.5-2.4
				c2.1-0.5,4.8,0.2,8-0.2c-1.5,0.5,0.1,0.3-0.1,1c4.2,0.1,1.8-1.6,6.3-1.4c2.3,0,1.1,0.2,0.9,0.5c2,0.1,1.3-0.5,2.7-0.5
				c4.1-0.3,3.5,0.7,7.1,0.5c3-0.3-1.8-0.6-0.8-1.2c0.5,0.4,4.2,0,4.4,0.5c2.1-0.1-0.9-0.7-1.7-0.7c2.2-0.4,6.3,0.3,8.9-0.4
				c-1.6-0.8-3.2,0.4-5.4,0.2c-0.4-0.6-3.9-0.7-1.7-1.2c-4-0.3-3.5,0.6-7.2,0.4c-3.1-0.1-0.7-0.6-4.4-0.3c-1.8,0.2-2.8,0.4-4.5,0.5
				c-1.7-0.4-3.8-0.6-6.2-0.8c-3,0.2,2.5,0.1,0.8,0.7c-3.4,0.8-11.1-0.5-12.5,0.4c-1.5-0.3-2.9-0.6-6.2-0.5c1.6-1.3,4.9,0.5,7.1-0.2
				c-3-0.9-7.2-1.6-10.5-2.5c-3.2,0.8,2.3,1.3,4.4,1.5c-0.4,0.9-6.9,0-5.4,1.4c-1.5,0-2.3-0.2-2.6-0.5c-1.6,0.6-5.9,0.5-9.8,0.4
				c0.3-0.5,3.9,0,3.6-0.7c-1.9-0.3-4.1-0.5-6.2-0.7c-2.3,0-1.8,0.8-1.9,1.4c-2.1-0.2-6.5,0.3-7.1-0.3c-0.2-1.1,3.9,0.3,5.4-0.5
				c-2.4-1.1-5.2,0.2-8-0.3c-0.1,0.4,1.1,0.5,0.8,1l-8,0c-2.7-0.5,6.4,0.2,5.4-0.7c-2.1-0.6-6.5,0.3-9.8,0.2
				c4.7,0.8-4.9,0.4-8.1,0.4c-2.5-0.4,4.6-0.2,6.3-0.2c-1.2-1-6.9-0.3-8.9,0c-2.3-0.7-8.9-1.1-11.6-0.3c1.2,0.6,6.2,0.1,8.9,0.3
				c0.1,0.5-3.2,0.1-4.5,0.2c-3.2,0-7-0.2-8,0.4c-5-0.7-8.7-0.3-15.1-0.6c-1,0.1-0.6,0.5-1.8,0.5c-2.3,0.1-2.9-0.3-2.6-1
				c-6,0.7-9.7-0.5-15.1-0.1c-1.8-0.5,0.4-0.5,1-1c-1.4,0.1-1.5-0.2-2.7-0.3c-1.1,0-1.2,0.7,0,0.7c-2.5,0.9-6.4,0.4-9.8,0.7
				c-0.1,0.3-0.2,0.7,0.8,0.7c-2.1,0.5-4.8-0.2-8,0.2c2-0.5,0.4-1.3-1.7-1.4c0.6-0.7,1.9,0.2,3.6,0c0.2-0.5-0.7-0.8-2.6-0.7
				c-3.9,0.2,0.4,1.3-1.9,1.7c-3.9-0.5-4.3-0.4-9.8-0.5l0.1-0.7c-4.4,0-5.8,0.8-10.7,0.7C34.9,3,32.2,3,31.9,2.8
				c-0.6-0.3,0.6-1-1.7-1c-3,0.6,3.2,0.7,1.7,1.7c-3.5,0.1-2.5-0.9-6.2-0.8c-1.3,0.1-0.1,0.4,0.9,0.5c-1,0.3-1.9,0.3-2.9,0.1
				c-1-0.1-2.1-0.4-3.2-0.4c-2,0-4.3,0.4-6.3,0.4c-1.9,0-4.1-0.4-5.5,0C8.1,3.1,9.1,3,9,2.7C6.4,2.6,6.4,3.5,4.3,2.9
				C3.5,2.4,6.4,2.7,6.2,2.2C3.4,2,3.9,2.5,2.7,2.7c0,0.3,0,0.7,0,1.1c0.2,0,0.4-0.2,0.5-0.6c1.2,0.2,2.5,0.4,2.9,1
				c-0.4-0.1-1.2,0-1.9,0c0,0.5,0,0.9,0,1.1C4,5.4,3.8,3.7,3.7,4c-0.6,1.2-1,2.7-1.2,7c0.1,1.2,0.2,0.6,0.4,0.2
				c0.2-0.5,0.4-0.9,0.6,0.4c-0.1,2.1-0.4,3.9-0.5,6.2l-0.7-0.2c-0.3,1.7,0.1,1.9,0,3.4c-0.2,3.1-0.9,3.2,0.2,5.3
				c0.2-1.8,0.9-5.8,1-0.8c0.3-0.7,0.3-2.5,0.3-4.3c0-1.6-0.1-3.5,0-4.8c0.8,0,0.4,3.5,0.5,5.5c0,2.8,0,6,0,8l-1.2-0.1
				c0,3.7,0.4,4.9,1.2,3.6c0,1.8,0,3.6,0,5.3c-0.3-0.3-0.4-1.6-0.7-1.8c0.1,4.1-0.5,5.5-0.3,9.8c-0.2-0.2-0.2-0.9-0.5-0.9
				c-0.3,6.9,0,10.7-0.3,16.9c0.8,0.8,1.1,3.5,0.9,8.1c0.9-0.2-0.2-5,0.5-7.1c0.5,1.6,0.1,6.8,0.2,9.8c-0.4,0.3-0.4-0.7-0.5-1.8
				c-0.3,3.1-0.9-0.2-1.2,1.7c-0.2,4.1,0.6-1.2,0.7,1.8c0.3,4-1.1,1.9-0.8,6.2c0,1.7,0.9-1.3,1.2,1c-0.6,2.1,0.4,7.6-0.5,5.3
				c0.4,4.3,0.4,8.6,0.2,12.5c1.1,1.4,0.6-3.7,0.7-6.2c0.9,0.8,0.1,3.9,0.2,6.3c0.1,2.1,0.6,3.1,0.5,5.4c-0.8,0.8-0.8-1.3-0.7-3.6
				c-0.5,0.1-0.5,2.2-0.5,4.4c-0.6-0.5-0.8-1.2-1.2,0.8c0.1,1.2,1-1,1.2,1.9c0.6,1,0.9-3.8,1.2-0.8c0,2.3-0.2,1.1-0.5,0.9
				c0.2,4.6,0.1,5.8-0.1,10.7c-1.2,0,0.4-4.5-0.7-4.5c-0.7,1.8-0.2,2.6-0.5,5.3c0,2,0.8,0.1,0.7,0.1c0.8,0.9-0.2,3.2,0.9,2.7
				c-0.2,3.3,0.6,5.7,0,8c0.8,2.1,0.3,10.2,0.4,17c0.1,3.8,0.3,4.2-0.3,7.1c0.1,1,0.5,0.6,0.5,1.8c-0.3,11.4,0.5,18.2-0.1,27.6
				c0.1,1,0.5,0.6,0.5,1.8c0.1,2.1-0.4,1.9-0.3,4.4c-0.9,0.9-0.8-1.9-1.2-2.7c0.4-1.5,1.2-5.1,0.5-8c-0.7,0.5-0.1,3.3-0.5,5.3
				c-0.1,0.5-0.7,0.5-0.7,0.8c-0.2,1.5-0.1,3.5-0.3,5.3c0.8,1.2,0.2-2.9,1-1.7c0.3,1.4,0.8,6.8,1.2,2.8c0.3,0.5,0.5,8.1-0.3,7.1
				c0.8,4.5,0.2,11.2,0.1,18.7c0,8.2,0.2,18.4,0.4,25c0.2,2.4-0.5,1.8-0.5,3.5c0.2,1.9,0,4.2,0,4.5c0.1,1.4,0.8,1.4,0.5,4.5
				c-0.8,1.6-0.5-1.5-0.7-2.7c-0.1-0.6-0.6-1.2-0.7-1.8c-0.1-1.2,0.7-5-0.2-4.5c-0.4,0.3,0.2,1.3,0,2.7c0,0.4-1.2,0.6-0.7,3.5
				c0.6,0.4-0.1-4.1,0.7-2.6c0.3,4.2-0.6,9.5-0.5,13.3c0.9,0,0.2-5.8,0.8-7.1c1-1.2,0.8,2,1.4,1.9c0.4,8.9-0.2,16.3-0.6,23.1
				c0.7,5.3,0.8,11.4,0.4,17c0.9,0.7,1.2-0.9,1.2-3.5c0.6,0.3,0.2,3.9,0.7,4.5c0.9,0,0-2.5,0-3.6c0-2.9,0.3-6.1,0.3-9.8
				c-0.1-1-0.5-0.6-0.5-1.8c-0.1-3.2,0.3-4.3,0.5-6.2c-0.1-2-0.4,1.1-0.7-0.9c0.5-6.1-0.3-12.9,0.3-18.7c0.8,2.5,0.6-4.9,1.5-5.2
				c0.1-2.4-1.3,0.7-0.9-2.7C7,251.2,7,252.7,7,253.8c-0.2,2.8-0.3-1.6-0.2-2.7c0.3-2,0.8-3.1,0.8-6.2c-0.7-0.9-0.4,2-0.5,3.5
				c-0.8-0.2-0.2-2.6-0.2-4.5c-0.1-3.7-0.4-9.3-0.2-14.3c0.5-0.4,0.5,1.3,0.5,2.7c1.1-1.6,0-5-0.4-6.3c0.1-7.2,1.2-7.8,1-14.2
				c-0.9-0.8-0.3,4.2-0.5,6.2C6,211.3,7.3,202.4,7,196.7c0-0.7-0.5-1.7-0.5-1.8c0-1.3,0.5,0.2,0.5,0c0-1.8-0.5-3.8-0.5-5.4
				c0-3.4,0.8-4.3,0.8-7.1c0-1-0.4-0.8-0.7-0.9c0.3-8.3-0.6-15.8,0.3-21.4c0-1.1-0.3-0.4-0.2,0c-0.4-3-0.3-11.3,0.3-13.3
				c-0.2-1.9-0.4-4-0.7-5.4c0.1-7.1,0.7-16.9,1.3-24.9c1.1-1.2,1.5-3.7,2.4-3.4c-0.2-7.7,0.1-11.2,0.1-18.7
				c-0.2-0.8-0.4-1.4-0.7-1.8c-0.1-2.1,0.1-3.4,0.3-4.4c-0.1-2.1-0.7,0.9-0.7,1.7c-0.3,4.1,1,5,0.2,8c-0.5-1.8-0.7-4.5-0.7-8.1
				c-0.2,0.4-0.4,0.8-0.5,1.7c-0.4-0.6-0.1-1.4,0-1.8c0.1-0.6,0.3-2.3,1-1.7c0-1.2,0-2.4,0-3.6c0-0.6,0.1-1.2,0.3-1.7
				C9.4,82.4,9.5,82,9.5,82c0-1.6-0.8-1.8-0.5-4.5c0.9-0.2,0.6-4.9,1.5-5.2c-0.3-2.7-0.9,1.2-1.2-1C9.2,68.5,9.6,67,10,68.6
				c-0.7-2.2,0.6-6.5-0.7-6.3c-0.8,0.6,0.7,4.2,0,4.5c-0.8,0.9-0.4-3.9-0.5-5.4c0-0.8-0.4-2.3-0.5-2.7C8.2,54,8.2,46.7,9,44.5
				c-0.3-2.4,0.2-6.3,0-9.8c-0.1-2.1-0.5-4.1-0.7-5.4C7.6,33.2,8.6,36.4,8.3,40c-0.8-1.7-0.7-5.3-0.7-8.1c0-1.4,0.1-3,0.2-4.8
				c0.1-0.9,0.1-1.8,0.1-2.8c0-0.5,0-1,0-1.5c0-0.3,0-0.5,0-0.8l0-0.4l0-0.3c0.2-0.1,0.3-0.1,0.4,0c0.1,0.1,0.1,0.5,0.2,0.8
				c0.1,0.7,0.1,1.6,0.4,1.8c-0.2-3.1-0.7-3.6-0.9-5.6c0.4-0.5,0.4-1.1,0.4-1.9c0-0.8-0.1-1.8,0.1-3.1c-0.6-0.6,0.2,3.3-0.7,1.9
				c-0.1-1.9,0.3-4.4-0.4-5.2c0.2-0.7,0.4-1.7,0.6-2.3C8.6,8,9.2,8.2,9.7,8.5c0.7-0.2,2.1-0.2,1-0.9c1.4-0.3,3,0.8,2.3-0.2
				c2.3,0,2.7,0.9,4.1,1.2c0.7-0.1,0.3-0.2-0.2-0.4c-0.5-0.2-1.2-0.4-0.8-0.8c1.1,0.2,2.2,0.3,3.1,0.3c0.5,0,1,0,1.4,0
				c0.6,0,1.1,0,1.7,0c2.8-0.1,5.4-0.2,8.2,0c0.9-0.2,1-0.5,2.7-0.5c-2.4,1,2,0.4,2.6,1.2c1.1-0.4,7.3-0.7,5.4-1.2
				c0.9-0.8,1.7,0.3,2.7,0.3c2.5-0.2-1.3-0.6,1-1c8.6,0.2,16.3,0,23.2-0.1c1.4,0,1.5,0.3,2.7,0.3c2.3,0,4.2-0.6,7.2-0.4
				c0.9,0,2.7,0.1,3.5,0.5c3.2-0.1,7.3-0.1,10.7-0.2c9.8-0.2,17.4-0.1,22.2,1.8c-0.4,1-0.1,1.8,2.5,1.9c-0.2,0.4-1.6,0.5-3.6,0.5
				c1.9,0.5-2.2,1.8,2.5,1.9c-3.1,0.2-2.9,1.2-4.6,1.7c-0.7,0.2-3.6-0.2-2.7,0.5c-9-0.7-19.3-0.5-28.5-0.9c-1.5-0.1-2.8-0.5-4.4-0.5
				c-2.3-0.1-4.6,0.3-7.1,0.2c-1.5-0.1-1.9-0.3-3.5-0.3c-3.1,0-4.9,0.8-7.1,0c-1,0.1-0.6,0.5-1.8,0.5c-2.4-0.1-4.8,0.1-7.1,0
				c-0.5,0-1.2-0.2-1.7-0.3c-0.5-0.1-0.9-0.2-0.9-0.2c-1,0-1.7,0.4-2.7,0.5c-2.1,0.2-4.4-0.3-6.2-0.3c-1.7,0-2.1,0.4-3.6,0.5
				c-2.9,0.2-5.7,0-8.9-0.3c-1.5-0.1-1.7,0.2-1.8,0.5c-0.3,0-0.7,0-1-0.1c-0.2,0-0.3,0-0.5,0c-0.1,0-0.1,0-0.2,0l-0.1,0
				c-0.3,0-0.5-0.1-0.8-0.1c-0.6,0-1.2,0-1.8,0c-1.3,0-2.6,0.1-4.1,0.1c-0.5-0.2-0.6-0.4-0.7-0.7c-0.1-0.2-0.3-0.4-1.1-0.5
				c0,0,0,0,0,0c0.1,0.7,0.4,0.8,0.6,0.9c0.2,0.1,0.5,0.1,0.6,0.7c-0.1,2.4-0.2,3.3-0.1,5.9c-0.3-0.2-0.5-0.5-0.5-1.1
				c-0.5,0.5-0.3,1,0,1.3c0.3,0.3,0.7,0.5,0.7,0.5c0.2,1.6-0.6-0.7-0.7,0.7c-0.1,1.9,0.3,1.7,0.7,1.8l0,6.2c-0.5,1.4-0.3-0.1-1-0.1
				c0,0.9,0,1.8,0,2.7c0.1,1.9,1-3.2,1,1.8c0.1,3.6-0.3-0.2-1,0.8c0,2.4-0.4,1.8,0,3.6c0,2,1,0.4,1.4,1l0,6.2c-0.2-0.7-0.5-1-1-0.9
				c0.3,1.1,0,4.7,0.9,3.6c0.2,5-0.3,7.5-1,8.8c-0.1,1.7,1.2,4.2,0,4.5c0.2,2.5,1-2,0.7,2.7c0.2-0.4,0.4-0.8,0.5-1.8
				c0.1,0.5,0.7,8.2-0.5,6.2c0,2.7,0.9,2.2,0.7,5.4l-0.7,0c0.4,0.6,0.4,2.7,0.7,3.6c0,2.6-0.6,3.3-1,4.4c1.1,0.2,0.6,6.7,0.7,8.1
				c0,0.2,0.4-1.8,0.3-2.7c0.7,4.9-0.3,11-0.1,16.9c-0.8,1.5-1.5,2.4-2.2,6.1c-0.2,2.7,0.7,1.8,0.5,4.5c0.9-2.6,1,2.9,1.4-0.8
				c0.5,1.1-0.1,6.3,1.2,4.5c0.6,10.4-0.2,24.3,0.1,33.9c-0.9-0.6-0.4-5.4-0.4-8.9c0-3.3,0.1-6.8-0.2-8.9c-0.3,1.7-0.4,4.5-1,5.3
				c-0.2,3.6,1,2.3,0.9,5.4l-0.5,0c0.1,4.2-0.3,6.6-0.8,8.9c0.1,1,0.5,0.6,0.5,1.8l0,6.2c-0.3,2.1-0.5,0.5-0.7,1.7
				c-0.1,3.5,0.4-0.3,0.7,1.8c0,2.3-0.3,5.6,0.7,4.5c-0.5,5.4-0.1,13.5-0.3,17.8c-0.5-3,0-9.8-0.2-14.3c-0.4-1.1-0.6-2.6-1.2-2.7
				c-0.1,2.3,0.1,3.8,0.7,3.6c-0.5,3.4,0.2,5.9-0.1,10.7c-0.3-1.1-0.4-0.4-0.7,0c0.2,7.7,0.3,15,0.4,25c-0.3,2.2-0.7-1.7-1,0.8
				c0,3.8,1.3-1.2,0.9,4.5c-0.6,1.8-1.3-1.3-1.4-3.7c-0.9,0.6-0.4,5.8,0.7,4.5c-0.1,1.7,0.1,3.2,0.2,1.8c0.1,17.4-0.5,42.8-0.1,59.7
				c0,1,0.2,0.5,0.2,0c0.2,2,0,5.7,0.2,9.8c-0.8,0.5-0.3-3.2-1-1c-0.6,2.4-0.2,3.7-0.3,4.4c-0.3,2.3,0-3.2-0.5-4.5
				c-0.3,3.4-0.8,6.1-1,9.7c1.1,1,1.6,4.3,2.1,7.3c-0.1,2.2-0.2,4.6-1,4.4c0.8,4.1,0,9.2,0.2,17.8c-0.2,0.7-0.5,0.9-1,0.8
				c-0.1,1.9,0.3,1.7,0.7,1.8c-0.3,4.1-0.1,8.8-0.1,14.3c0,7.9-0.6,15.6-0.8,22.2c-0.1,3.2,0.5,6.4-0.3,8c0.1,1.2,0.4,1.4,0.5,2.7
				c0,2.3-0.5,3.1-0.7,4.4c0.9,6.9-0.1,16.3,0.1,27.6c-0.6,2.1-0.4-1.4-1.2-1c0,4.3,1.5,3.5,1.2,9c-0.4-0.8-0.6-2.5-1.4-1.9
				c-0.2,3.2,1,3.5,0.2,6.3c-0.5-0.6-0.1-4.2-0.7-4.5c-0.6,2.1,0.8,4.7,0.4,8.9c-0.6,0.2-0.8-1.3-0.7-3.6c-0.8,1.6,0.4,3.2,0.2,5.4
				c-0.5,0.2-0.1,3.9-0.5,4.4c0.4,2.4,1.5,5.7,1.2,8.1c-0.3-0.9-0.9-0.9-1.2-1.9c0-1.6,0.3-1.9,0.3-3.5c-1.1-0.6-0.7,5-0.5,7.1
				c-0.7,0.2-0.7-2.1-1.4-1.9c0.3,1.4,0.7,2.2,0.9,3.6c0.1,3.1-0.6,3.1-1,4.4c-0.1-4.2-0.9-14.2,0.3-17.8c-0.1-2-0.4,1.1-0.7-0.9
				c0.1-3.8-0.2-9.2,0.3-11.6c0-0.9-0.3-0.7-0.5-0.9c0-5.2,0.8-8.7-0.2-12.5c0.7-2.4,0.3-11.6-0.2-15.2c0.6-1.2,0.6-5.1,0.8-8
				c-0.9-0.2-0.8,3.6-1.2,5.3c-1-1.2,0.1-1.8,0-4.5c0.1-1.9-0.8-0.5-1.2-1c-0.2,5.5,0.6,7.3,1.2,9.9c-0.3,11.2,0,17.7-0.4,25.8
				C4,413.6,3,414,2.9,411.2c-0.5,0.3,0,4.7-0.5,5.3c0.5,0.3,0.8-0.1,0.7-1.7c0.7,0.2,0.4,4.5,0.4,7.2c-0.4,0-0.9-0.5-1,0.8
				c-0.2,3.2,1.2,0.5,0.7,4.5c-0.8-1.6-0.6-1.6-1.2,0.8c0.1,1.5,0.6,0.6,0.5-0.9c0.3,0.2,0.1,2.7,0.5,2.7c-0.4,2.1-0.7,4.2-1.5,2.6
				c-0.1,3.6,0.8,3.7,0.4,8c0,3.5-1,2.7-1,6.2c0.3,2.5,0.6,5.3,1.4,3.7c-0.1,5,0.4,7.4,1.2,7.2c0.2,2.5-0.3,2.3-0.3,4.4
				c-0.5,0.4-0.5-1.3-0.5-2.7c-0.7,0-0.9,2-1.2,3.5c0.4,3.5,0.4,2.8,0,6.2c-0.8,1-0.2-2.9-1-1.8c-0.6,0,0.1,2.4,0.5,1.8
				c0,2.9,0.4,4.5,0.2,8c0.6,0.3,0.9-0.1,1.2-0.8c-0.3-1.2-0.2-3.9-0.2-6.3c1.2,0.6,0.8-4.7,1.9-4.3c-0.1,2.4-0.1,5.2-0.1,8.2
				c0,2.9,0,6,0,9c0,5.5,0,10.9-0.2,15.2c0.6,0,1.2,0.1,1.7,0.1c-0.8,0.7-1.5,0.6-2.2,0.4c0.1-0.5,0.2-1.1,0.2-1.5
				c0-3.3,0-7.4,0-11.6c0-2.1,0-4.3,0-6.3c0-2.3,0-4.4,0.1-6.4c-0.5,2.4-0.4,7-1.2,7.9c-0.2,2.8,1,1,0.7,4c0.1,1.7-0.5,1.2-0.5,2.5
				c-0.4,2.1,0.4,2,0.5,2.3c0,0.4-0.2,1.1-0.2,1.7c0,1.1,0.2,1.2,0.2,1.5c0,2.2-0.2,4.3-0.3,6.4c1.3,0,2.7,0,4.4-0.2
				c1.4-0.1,1.4,0.2,1.2,0.5c2.5-0.1-0.4-0.5,0.7-1c2,0,1.5,0.5,2.7,0.7c1.7,0,0.8-0.9,1.4-1.2c3-0.1,6-0.2,8.8-0.3
				c3.3-0.1,6.4-0.1,9.4-0.1c1,0,1.3,0.5,1.7,0.5c1,0,3.9-0.2,5.4-0.2c1.8,0,4.5,0.2,5.4-0.2c0.7,0.2,2.4,0.2,2.6,0.5
				c4.5-0.7,14.6,0.2,21.4-0.4c0.7,0.8-2.3,0.5-2.7,0.9c-3.5-0.3-5.3-0.3-8.9,0c-1.7,0.1-0.8,0.9-3.6,0.7c2.7,0.8,5.3-0.5,8.1-0.4
				c0.9,0.6,6,0,5.3,1c1.6-0.4-0.8-1,1.9-1.4c2.5-0.2,2.3,0.3,4.4,0.3c0.9-0.7-2-0.4-3.5-0.5c1.3-0.6,6.1-0.6,9-0.7
				c2.5,0,5.1-0.1,7.1,0c0.6,0,1.2,0.1,1.7,0.3c0.5,0.1,0.9,0.2,0.9,0.2c1.1,0,1.3-0.4,1.8-0.5c2-0.1,3.5,0.6,5.4-0.2
				c1.5-0.1,1.7,0.2,1.7,0.5c2.6,0.1,2.8-0.5,5.4-0.5c-0.3,0.4-1.6,0.5-3.6,0.5c0.6,0.5,2.7,0.6,3.5,1c2.1-0.1,4.2-0.1,3.6-0.9
				c0.6,0.2,5.3,0.6,4.5-0.2c-0.8-0.6-3.4,0.3-6.2,0c0.8-0.4,2.9-0.3,4.5-0.5c-0.5-0.7-4.8-0.5-5.3-1.2c-4,0.3-4.7,0-7.1-0.5
				c0.4-0.5,3.8,0.9,4.5-0.2c-0.2-0.3-1.8-0.3-1.8,0c-2.8-0.6,4.2-1.6-2.6-1.5c0.5-1.1,7.1,0.6,8.1-0.7c-3.3-0.2-5.3-0.8-9.7-0.8
				c-2.6,0.2,1.1,0.6-0.1,1.2c-2.2-0.2-2.2-1-3.5-1.5c-2.1,0.1-3.7,0.5-5.3,0c3.4-1.2,9.3-0.2,15.2-0.6c-0.4,0.4-2.8,0.2-1.8,1
				c3.4,0.2,1.5-1,5.4-0.7c0.2-0.3-0.2-0.4-0.9-0.5c3-0.5,6.6-0.8,7.3-1.9c2.9-0.2,2.7,0.4,4.4,0.5c4,0.2,5.4-0.3,8.9-0.2
				c0.1,0.5-0.8,0.8-2.7,0.7c2.6,1.2,9.5-0.1,9.7,1.5c3.8-0.3-0.1-1.4-1.7-1.7c-0.1-0.5,3.2-0.1,4.5-0.2c-2.7,0.7,1.3,1,1.7,1.7
				c4.4-0.4,6.3-1.5,12.6-1.4c2.4-0.2,1.7,0.5,2.6,0.7c0.7,0,0.9-0.2,1.8-0.2c1.8-0.3-2.5-0.6,1-1c1.9-0.1,1.7,0.4,1.7,0.7
				c2.7-0.3,4.9-0.8,9-0.7c2.3,0.1,2.4,0.8,6.2,0.5c-0.1-0.3-1.6-0.2-2.7-0.3c2.7-0.7,12.5,0.2,17.9-0.4c1.8,0.2,0.7,1.2,3.5,1.2
				c1.3-0.1-0.3-0.3,0-0.7c5.1,0,10.3,0.1,14.3-0.2c0.1,0.7,1,1.1,4.4,1c-0.6-0.2-2-0.3-1.7-0.7c1.8-0.3,1.4,0.5,1.7,0.5
				c1.9,0.2,4.1-0.7,6.2,0c-3,0.8-5.9,0.2-10.7,0.4c-2.1,0.1-1.7,0.8-4.5,0.7c2.8-0.9-6.5-0.2-8-0.8c-0.9,0.2-1.8,0.5-2.7,0.7
				c-2.2-0.2-2.2-1-3.5-1.5c-2.7,0.7-3.1-0.6-7.1-0.3c-1.3,1.4,5.4,1,2.5,2.2c-2.3-0.4-4.5-0.9-4.3-1.9c-3.8-0.2-4.1,0.6-1.8,1
				c-0.6,0.4-2.1,0.1-1.8-0.2c-3.2,0.1-4.3-0.3-6.2-0.5c-1.7-0.1-1.4,1.1,0.8,0.7c-1.2,0.7-3.9-0.5-5.4,0.2
				c-0.3,0.4,0.8,0.4,0.8,0.7c1.5-0.3,5.7,0.1,5.4-0.7c3.6-0.2,2.6,0.7,6.2,0.5c0.5,0.5-1.7,0.3-1.8,0.7c0.3,0.5,1.6-0.2,1.8-0.2
				c1.1,0,1.4,0.5,2.6,0.5c1.5,0,2.4-0.5,4.5-0.5c1.2-0.1,0.8-0.6,1-1c3.6-0.1,4.1,0.7,6.2,1c2.8,0.1,2.6-0.6,3.6-0.9
				c2,0.3,2.8,1,4.4,1.5c1.8-1,7.2-0.9,11.7-1.1c-0.9,0.9,3.5,0.4,5.3,0.5c2.8-0.1,1.9-1.3,6.3-0.9c-0.7,0.2-1.6,0.4-2.7,0.5
				c0.2,0.6,3.9,0.2,4.5,0c-0.7-0.2-1-0.5-1.7-0.7c-2.4-0.7-4.2-0.3-2.6-1l-8,0c1.6-0.8,5.6-0.1,9.8-0.2c3.2-0.1,8.7-0.1,14.3,0.1
				c-0.7,0.7,0.8,0.9,0.8,1.4c4.6,0.3,6.7-0.1,10.7,0.3c-0.4,0.5-1.6,0.8-3.6,0.9c2.5,0.8,4-0.8,6.3-0.9c3.2-0.1,2.1,0.9,5.3,0.7
				c1.7,0-0.1-1-2.6-0.7c1.9-1.2,3.1,0.4,5.3,0.5c3.6-0.3,1.2-0.8,2.8-1.4c3.5,0.1-1.1,1,2.6,1.2c0.5-0.6,4.6-0.2,3.6-1.2
				c2.7,0.4,7.7-0.2,5.3,0.5c2.4-0.1,7,0.3,8-0.2c1.6,0.2,0.1,0.4,0,0.7c2.9,0.2,1.3-0.8,2.7-0.9c1.4,0.9,2.4-0.4,7.1,0
				c-0.6,0.5-1.9,0.8-2.8,1.2c-16.8-0.4-23.6,0.7-38.4,0.8c-1.3,0.1-0.1,0.4,0.9,0.5c-3.1,0.2-6.5,0.5-8.9,0.4
				c-0.7,0-1.5-0.5-2.6-0.5c-0.6,0-2.1,0.2-1.8,0.2c-1.4-0.1,1.2-0.7-3.5-0.5c1.6-1.5,6.2-0.3,9-0.7c-3.8-0.9-9.4-1.3-15.9-1.5
				c0.5-0.2,1-0.4,0.9-0.7c-3.6,0.2-2.1,1.2-1,1.9c3.9,0.3,3-0.8,6.3-0.7c-0.5,1.1-4.1,2.2,1.6,2.4c-7.2,0-17.3,1-25.8,0.1
				c-2.8,0.7-9.1,0.4-14.3,0.4c-1.7,0.1-0.8,0.9-3.6,0.7c-2.1-0.6-2-1.1-2.6-1.7c-4.3,0.2-3.4,0-8.9,0.2c-0.4,0.5,0.6,0.6,0.8,1
				c1.4-0.5,5-0.4,6.3-0.9c5.3,1.6-3.7,2.1-8.1,1.6c0.1,0,1-0.5,0.9-0.5c-0.4,0-5.3,0-4.5,0.5c-5.1-0.1-16.2,0.1-24.1,0.4
				c-5.5,0.2-11.3-0.2-16-0.1c-2.3,0.1-5.2,0.6-8.1,0.7c-3.5,0.1-6.9,0-9,0.7c0.5,0.8,5.1,0.6,5.2,1.5c4-0.4,10.5-0.3,11.5,0.8
				c1-0.9,3.7-1.2,7.2-1.4c0.8-0.7-1.2-0.6-0.8-1.2c5.4-0.3,2.8,1.3,1.7,1.9c0.8,0.2,4.5,0,7.1,0.3c1.7,0-1.3-0.9,1-1.2
				c-0.3-0.4-4.3,0.8-6.2,0c0.9-0.3,2.4-0.5,2.7-0.9c6.5,0.3,14.1-0.1,24,0.1c2.8,0.5-5.5-0.1-4.5,0.7c0.1,0.6,3,0.5,5.3,0.5
				c2.3,0.1,0.8-0.9,3.6-0.7c-2.2,0.7,1.1,0.9,2.6,0.7c2-0.3,0.1-1.1,1.8-0.2c1.4,0.7,4,1,6.2,0.5c-0.9-0.5-3.9-0.4-3.5-1.2
				c2.8-0.1,2.3,0.7,4.4,0.7c0.7,0,0.9-0.2,1.8-0.2c0.7-0.6-1.8-0.5-2.6-0.7c-0.8-0.5,2.6-0.2,2.7-0.2c2-0.2,2.1-0.4,3.6-0.5
				c3.9-0.1,9.3,0.2,14.3,0.1c-2.3,0.6-3.4,0.2-7.1,0.2c0.1,0.6,3,0.5,5.3,0.5c0,0.7,2,0.9,3.5,1.2c2.9-0.4-2.3-0.6-0.8-1.4
				c5.2-0.2,3.5,1.5,6.1,2c3.3,0,5.6,0.3,8,0.5c1.6,0,0.6-0.8,1.8-1c4.6-0.2,3.6,1.1,8.9,0.8c-0.6,1.1,3.3,1,2.5,2.2
				c-3-0.7-6.3,0.2-8.1,0.7c0.3,0.3,2.2,0.2,3.5,0.3c-0.7,0.2-1,0.5-1,1c-1.9,0-2.8-0.2-2.6-0.7c-1.3-0.1-2.2,0.9-2.7,0.2
				c-1.3-0.4-0.8-0.6,1.8-0.5c-1.6-0.4-0.8-1.3,1-1.4c-1.2-0.7-3.1,0.4-5.4,0.2c-0.3-0.6-1.3-0.9-0.8-1.7c-2.7,0-0.9,1.2-3.6,1.2
				c-0.3,0.6,3.4,0.2,2.6,1c-1.3-0.1-4.6,0.3-4.4-0.3c-1.5,0.3-2.2,0.8-5.4,0.7c1.6-0.8,1.2-1.5-3.5-1.2c-2.3-0.6,2.4-0.6,0.1-1.2
				c-1.1,0.3-1.7,0.7-4.5,0.5c0.4-0.4-0.7-0.5-1.8-0.5c0.6-0.5,1.9-1.4,0.1-1.9c-1.6,0.2-1.2,1-4.5,0.7c-1.1-1,3-0.5,1.9-1.4
				c-3.5-0.3-2.4,0.6-3.6,0.9c-1.7-0.1,0-1.1-3.5-0.7c-0.5,0.3-0.3,0.9-2.8,1.2c0.7,0.6,2.2-0.7,5.4-0.2c-1.4,0.6,2,0.5,2.6,0.7
				c0.4,0.2-0.2,0.5,0,0.7c0.3,0.3,2.2,0.2,1.7,0.7c-1,0.2-2.4,0.3-4.5,0.2c0.3-0.3,1.6-0.4,1.8-0.7c-2.2,0-3.7,0.1-4.5,0.5
				c0.3,1.2,4.5,0.9,8,0.8c0.8,0.7-2,0.4-3.6,0.5c1.6,0.6,2.5,1.1-0.1,1.7c0.2,0.3,1.8,0.2,1.8,0.5c2.2-0.1,3-0.9,5.4-0.2
				c-0.7,1.1-8.1,0.6-13.4,0.7c-3,0.1-5.4,0.4-8,0.2c-0.1-0.2,2.7-0.4,3.6-0.2c-2.8-0.5-3.1,0.2-5.4,0.2c-1.4,0-2.5-0.5-2.6-0.5
				c-1.6,0-2.8,0.6-4.5,0.7c-1.4,0.1-2-0.3-3.6-0.3c-3,0-6.8,0.6-8.9,0c0.8-1.2,4.3-1.7,9-1.2c-0.2-0.8-4-0.7-7.1-0.8
				c-2.6,0.2-1,0.4-1,1c-1.8-0.1-2.8,0-2.7,0.5c-1.6,0-4.4-0.3-3.6,0.5c0.1,0.5,3.3-0.4,4.4,0.3c-4.2,0.6-9.2-0.1-14.3,0.2
				c-1.1,0.1-2.3,0.4-3.6,0.5c-3.9,0.1-9.3,0.1-13.4,0.2c-6.7,0.1-14.2,0.2-18.7-0.1c-0.1,0,0.2-0.4,0-0.5c-0.9-0.2-2.5,0.4-3.6,0.2
				c2-1.6-1.9,0.4-6.2,0c-1,0-0.8,0.4-0.9,0.7c-3.6-0.1-8.6,0.2-9.8-0.5c-2.8-0.1-2.1,0.7-5.4,0.5c-0.6-0.8,0.6-1.1,3.6-0.9
				c0.1-0.7-2.6-0.7-5.3-0.7c-0.7,0.7,0.9,0.9,0.8,1.4c-12.8,0.2-25.6,0.3-38.3,0.4c-6.5,0-13,0-19.4,0c-7.7,0-15.3-0.1-23-0.1
				c0.1-18.3,0.2-36.4,0.4-54.3c0-7-0.1-12.6,0.1-19.6c0-1.4-0.3-1.6-0.2-2.7c0.1-3,0.3-8.9,0.3-14.2c0-3-0.3-5.8-0.2-8.9
				c0.2-4.2,0.3-16.9,0.1-24c-0.1-4.1-0.9-9.4,0.1-15.1c-0.3-4.6-0.5-8.1,0.1-11.6c-0.2,0.6-0.3,2-0.7,1.7
				c0.4-6.6-0.1-11.6,0.1-19.6c0.3,0.3,0.4,1.6,0.7,1.8c0.3-3.6-0.8-2.3-0.9-4.5c0.1-2.1,1.1-0.4,1.2,0.1c-0.1-2.5-0.6-3.8-0.7-6.3
				c0.4-2.8,0-4.6,0-8c0-1.6,0.3-3,0.3-4.4c0-2.2-0.7-5.9-0.4-10.7c0.1-1.3,0.5-2.3,0.5-2.6c0.1-1.5-0.8-2.4,0-4.5
				c-0.1-3-0.8-10.2-0.9-14.3c0-1.7,0.3-3.2,0.3-3.5c0-1.6-0.3-1.9-0.2-3.6c0-1.8,0.4-1.8,0.5-2.6c0-0.4-0.2-1.6-0.2-2.7
				c0.1-3.8,0.5-9.8,0.3-13.4c-0.1-1.6-0.4-2.6-0.5-4.5c0.2-0.6,0.4-1.6,0.5-2.6c-0.5-1.8-0.2-5.4-0.2-8c0-1.9-0.4-4.2-0.4-6.3
				c0-1.6,0.3-1.9,0.3-3.5c-0.1-6-0.3-14-0.4-20.5c0-1.4,0.3-1.5,0.3-2.7c-0.1-6.1-0.5-11.4-0.4-15.2c0.1-1.9,0.3-1.3,0.5-2.6
				c-0.1-4.8-0.5-8.9-0.4-14.3c0.2-0.6,0.3-2,0.7-1.7c0-1-0.4-0.8-0.7-0.9c0.2-5.8-1.1-10,0.1-14.3c-0.2-3.2,0-3.2-0.2-7.1
				c0.3-1,0.4-2.5,1.2-1.7c0-4-0.5-1.2-0.9-2.7c-0.2-4.1,0.6-4.3,0.5-8c0-1.6-0.8-0.6-1-1.8c0.4-4.4-0.1-10.6,0.1-16.9
				c0.1-1.9,0.5-4.1,0.5-6.2c0.1-5.5-0.8-15.4,0.3-18.7c-0.2-0.8-0.4-1.4-0.7-1.8c0.6-5.9-0.6-9.4,0.1-16c-1-1.5-0.5-3.5-0.7-7.2
				c-0.3-0.3-0.7,1.4-0.7,1.7c-0.1,0.9,0.4,1.6,0.5,2.7c0,1.4-0.3,1.7-0.3,2.7c0.1,1.3,0.4,2.4,0.5,3.6c0,2-0.2,3.2-0.3,5.3
				c0,2.1,0.2,5,0,8.9c-0.1,1.1-0.5,2.4-0.5,2.6c0,1,0.3,3.9,0.2,6.3c-0.1,3,0,3.4,0,7.1c-0.1,3.1-0.1,7.5-0.1,12.5
				c-0.4,0.2-0.4-0.9-0.7-0.9c0,2.7,0.1,5.9-0.7,5.3c0,1,0.4,0.8,0.7,0.9c0.5,0.2,0.1-3.1,0.3-4.4c0.9,2.7,0.6,8.9,0.2,13.4
				c-0.3,2.2,0.9,2.8,0.2,3.6c-0.5,1.8-0.5-0.4-0.7-1.8c-0.2-0.9-0.5,0.2-0.5-1.8c0-0.7,0.3-0.9,0.2-1.8c0.3,0.2,0.2,1.6,0.2,2.7
				c0.7-2.8-0.1-5.9,0.3-8.9c-1.3-1.4-0.1,6.9-1.5,5.2c0.3,5,1.5,6.5,0.9,12.5c1,1.2,0.3-4.2,1.2-3.5c0.1,4.1,0,7.7-0.5,9.8
				c-0.3-1.5-0.3-6.6-1.2-3.6c0.1,1.7,0.9,0.8,0.7,3.6c-1.4-0.8-0.9,5.8-0.3,7.1c0.4-0.8,0.5-2.8,0.5-5.3c0.9,0.9,0.2,4.5,0.2,7.1
				c-0.9-2.1-1,1.6-1.5,3.5c0.9,1.1,0.9-3.1,1.4-0.8c-0.2,2.4-1,2.1-1,5.3c0.1,2.6,0.4-1.4,0.5-1.7c0.5,8.7,0.3,21.4,0.3,33
				c0,1.1-0.6,4.9,0.2,6.3c-0.4,5-0.4,14.7-0.3,18.7c-0.8-1.4-0.4-6.1-0.4-9.8c0-5.4,0.1-10.4-0.2-14.3c-0.9,0.2-0.6,2.4-1.4,0.8
				c0.2,3.3-0.4,4.7,0,6.2c0.1-1.1,0.3-1.8,0.5-4.4c1.2,2.1-0.2,5.4,0,8.9c0.6,0.4-0.1-4.1,0.7-2.6c-0.2,20.5-0.4,49.4-0.3,71.3
				c0,1.5-0.3,3-0.3,4.4c0,2,0.3,3.5,0.2,5.4c-0.1,3-1.2,6.6-0.3,8.9c-0.6,0.3-0.3,3.5-0.7,4.4c0.1,1.1,0.5,0.9,0.5,0
				c1.2,15.7-0.5,33,0.5,45.5c-0.1,1.3-0.2-0.1-0.5,0c0.3,3.1,0.5,6.4,0.4,10.7c-0.6-0.1-0.3-3.5-0.9-3.6c0,2.8,0.9,6.8,0.2,8.9
				c-1-0.1,0.3-3.7-0.7-4.5c-0.1-2.8,0.4-3.1,0.3-6.2c0-0.7-0.2-0.9-0.2-1.8c-0.5-0.3-0.9,0.2-1,1.7c-0.3-2.9-1.3-3.4-1.7-3.7
				c-0.9,1.4,0,5.2-0.5,7.1c-0.8,0.4-0.2-2.9-0.2-3.6c0-0.9-0.5-0.5-0.5-0.9c-0.1-2.6,0-5.9-0.2-9.8c0.4-1.5,1.8-1.3,1.9,1
				c0.5,0.7,1-3.2,0.5-3.5c0.4-2.8,0.8,1.9,1.2,1.9c0.1-1.9-0.2-2.8-0.7-2.7c-0.1-2.8,0.7-2,0.5-5.3c1,1.6-0.3,5.7,0.7,7.2
				c0,3-1.1,6.7-0.3,9.8c1,1.3,0-7.1,1-3.5c-0.6-3.7,0-6.2-0.7-9c0.1-1.7,0.1-3.8,0.7-3.5c-0.7-3.8-0.2-11.2,0.1-17.8
				c-0.5-3.4-0.8-8.1-0.4-10.7c-0.3-2.5-0.7-4.6-0.7-8.1c0.4-0.1,0.5,1.1,1,1c0.1-2.2-0.5-2.2-0.7-3.6c-0.1-3,0.2-7.2-0.2-8.9
				c-0.3,0.6-0.5,1.9-0.5,3.5c-0.4-1.7-0.2-5.7-0.7-7.2c0.1-4,0.9-5.1,1-8.8c-0.1-1.3-0.3,0.3-0.7-0.1c0-3.8,0.7-4.8,0.5-8.9
				c-0.2-0.9-0.5-1-0.5-2.7c-0.4-0.4-0.5,0.7-0.5,1.7c-0.5-2.9-0.1-5.1,0.3-7.1c-0.1-2-0.4,1.1-0.7-0.9c0.2-2.9,1.6-1.1,1.2-6.2
				c-0.2,0.6-0.3,2-0.7,1.7c0.5-3-0.6-3.3-0.2-5.4c0,0.2,0.6,1,0.7,0c0.1-0.8-0.5-2.4-0.5-0.9c-0.7,0.4,0.2-4.8-0.5-4.5
				c-0.7,1.1,0.3,8.3-1,7.1c0.1,1.2,0.6,0.8,1,1L-10.6,258.8z M-12.5,352.3c0.8-0.1,1.4-0.5,1.5-3.5l-1.4-0.1L-12.5,352.3z
				 M-9.3,351.6c0-0.9,0-1.8,0-2.7c-0.7,0.8-1.7,0.8-1.5,5.2C-9.7,355.8-10.5,350-9.3,351.6z M-8.5,283.9c-0.1,2.6-1.4,0.7-1,5.3
				c0.8,1.1,0.6-1.4,1-1.7C-8.2,288.1-8.1,283.3-8.5,283.9z M207.9,500.6c2-0.3,5.8-0.2,5.4-1.2c-2.8-0.2-1.9,0.6-3.6,0.7
				c0.2-0.6,0.2-1.2-1.7-1.2C207.9,499.5,207.9,500,207.9,500.6z M166,499.9c-0.9,0-1.8,0-2.7,0c0.6,0.7-1,0.9-1,1.4
				C165.6,501.4,165.1,500.5,166,499.9z M167.7,502.1c-2,0.7-1,1.1-4.6,1.7C166.2,503.7,171.7,502.6,167.7,502.1z M183.8,500.9
				c-0.1,0.7-3.9,1.4,0.8,1.4c-0.9-0.9,1.9-0.8,2.8-1.2C185.6,501.3,185.4,500.9,183.8,500.9z M183,499.5c0.2-0.3,1.5-0.4,1.8-0.7
				c-1.2-0.1-1.7-0.3-3.5-0.3C181,499.1,181.4,499.4,183,499.5z M178.3,502.1c-0.3,0.3-1.3,0.5-1,1c1.6,0,2.8,0.1,3.5,0.3
				C181.2,502.6,181.1,502,178.3,502.1z M161.6,498.9c2.7,0.6,5.7-0.2,9.8,0c0.2,0.3,1.4,0.4,1.7,0.7c0,0.3-1.6,0.2-1.8,0.5
				c2.2,0.2,1.9,1.1,5.3,1c1.8-0.1,2.4-0.5,3.6-0.7c-0.2-1.2-1.9-2-6.1-2.2c-0.6,0.5,1.2,0.3,1.8,0.5c0.9,0.3,2.6,1,0.8,1.2
				c-2.2-0.2-3.8-0.6-3.5-1.5C168.7,498.5,164.7,498.5,161.6,498.9z M160.2,494.4c2.6,0.1,4.5,0,5.4-0.5c-3.2,0.4-2.6-0.1-5.3-0.3
				L160.2,494.4z M141.6,491.4c0.7,0.2,6.9,0.7,6.3-0.2C147.3,490.7,141.3,490.8,141.6,491.4z M132.6,494c4.5-0.1,7.7,1,11.6,0.3
				c1-1.3-3.9-1-5.3-0.5C135.3,493.9,134.2,493.2,132.6,494z M120.1,493.9c2.9,0.8,6.9-0.7,9.8,0
				C128.4,492.7,122.8,493.6,120.1,493.9z M116.7,491.3c4.1,0,8.6,1.2,11.6,0.1C123.7,491.6,119.5,490.6,116.7,491.3z M149.8,502
				c-0.1,0.1-0.2,0.3-0.9,0.2c-0.3,0.6,1.2,0.8,3.5,0.7C152.7,502.3,152.2,501.9,149.8,502z M149.2,497.7c-0.6,0.9,4.9,0.3,7.1,0.5
				c-1.5,0.8,0.1,0.9,3.5,1C160.8,497.6,152,497.5,149.2,497.7z M149.1,499.3c2.9-0.2,2.8,0.4,3.5,0.7c1.7,0,3-0.1,3.6-0.5
				c-3.5-0.1-3.9-0.4-1.7-1C152.2,498.6,147.9,499.2,149.1,499.3z M148,502.9c-2.5-0.3-1.5-1.5-6.2-1.2c-1,0.5,1.6,0.5,1.7,1
				c0,0.1-2.1,0.3-1.8,0.7c0.1,0.2,0.3,0.6,3.5,0.5C144.4,502.5,146.7,503.4,148,502.9z M127.6,501.4c-0.9-1.5,7.4,0.4,4.5-1.2
				c3.1,0.2,3.8-0.2,5.4-0.5c2.9,0.5,5.8,1,9.7,1.2l0.1-1c-4,0.1-6.3-0.1-4.4-1c-4.7,0.1-8,0.5-12.5,0.7
				C131.4,500.8,122,500.5,127.6,501.4z M117.6,504.7c3.6-0.1,6.1-0.6,9-0.9c3.2,0.4,7.6,0.5,12.4,0.5c0.3-0.6-0.1-0.9-0.8-1.2
				c-1.6,0.3-5.2,0-6.3,0.5c2.2,0.4,3.1-0.3,4.4,0.3c-2.5,0.6-5.8-0.1-7.1-0.5c4.7-0.4,1.4-1,4.5-1.4c1.7,0,1.9,0.3,3.5,0.3
				c0.2-0.7-2.6-0.6-2.6-1.2c0.4-0.1,4.4-0.3,1.8-0.5c-3,0.2-2.9,1.3-7.2,1.2c2.3,1.1-1.4,1.1-2.8,1.2c1.7,0-0.6,0.9-1.8,1
				c0.4-1.2-6.2-0.6-7-1.5l-0.1,1.2c2.4,0,5.3-0.1,5.3,0.5C120.6,504.1,116.4,503.6,117.6,504.7z M113.4,500.4
				c-2.5,0.2-2.3-0.3-4.4-0.3C107.3,501.2,113.6,501,113.4,500.4z M107.9,502.7c3.8,0.1,1.2-0.6,2.7-0.7c2.4,0,5.2,0.2,5.4-0.5
				c-3.4-0.2-5.7,0.4-7.1,0C109.6,502.2,107.6,502.2,107.9,502.7z M102.5,503.9c1.6-0.1,4.4,0.7,5.3,0c-0.7-0.1-1-0.2-0.9-0.5
				C104.8,503.4,102.7,503.4,102.5,503.9z M96.3,503.4c-2.9,0.3-0.6-0.8-3.5-0.5c-1.4,0.1-0.8,0.8-3.6,0.5c-1.2,0.8,2.9,0.2,1.7,1
				c-2.6,0-4.3-1-5.3,0c2.6-0.1,2.7,0.6,5.3,0.5c3.3-0.4,5.4-1.1,9.9-1.2c0.2-0.3-0.1-0.7,0.9-0.7c4.4-0.3-2.4-0.3-2.7,0.2
				c-1.2,0-2.6-1-3.5-0.3C96.4,503,97.5,503.3,96.3,503.4z M85.7,501.7c1,0.3,3.1,0.3,5.3,0.3c1.2-0.8-2.9-0.2-1.7-1
				c2.7-0.2,3.2,0.3,5.3,0.3c1.5-0.5-0.1-0.3,0.1-1c-2.7,0.2-7.1,0-8.1,0.7C90.8,501,86,501.4,85.7,501.7z M82,503.1
				c-0.8-0.5-1.6-2.2-4.4-1.5c1.6,0.1,2,0.4,1.7,1c-1.6,0-4.4-0.3-3.6,0.5c3.1-0.1,5,0.1,7.1,0.3c1.2,0,6.4,0.1,3.6-0.2L82,503.1z
				 M84.9,500c-1.1-0.2-8.5-0.7-6.2-0.3C78.9,500.2,83.8,500.6,84.9,500z M77.9,499c2.9,0.3,0.7-0.8,3.6-0.5c1.4,0,0.7,0.6,2.6,0.5
				c0-0.3,0-0.6,0.1-1c-3.4,0.2-4.2-0.3-7.1-0.3C76.6,498.5,80.1,498.4,77.9,499z M70.6,501.4c-1.1,0.8,7.6,0.9,5.3,0.5
				C72.3,502.2,74.1,501.1,70.6,501.4z M67.2,499.2c2.5,0.2,3.6,0.8,7.1,0.8C74.7,499.1,69.1,498.6,67.2,499.2z M57.3,499.9
				c2.2,0.2,7,1,8,0C63.1,499.7,57.6,499.1,57.3,499.9z M53.6,502.2c2.2-0.1,4.1,1.1,5.3,0.5C57.8,502.3,54.7,501.3,53.6,502.2z
				 M53.4,504.4c2.1,0.5,7.1,0.2,10.7,0.3c0.9-0.9-5-0.1-4.4-1c1.2,0,1-0.6-0.9-0.5c-0.5,0.3,1,1.2-1,1.2
				C57,503.9,54.6,503.8,53.4,504.4z M20.4,504c-2.4,0-2.9-0.4-6-0.3C12.6,504.5,20.3,504.4,20.4,504z M51.1,499.3
				c-0.7,0.1-1.8,0-1.8,0.2c3.5,0.2,2.8-0.7,3.6-1.2l-3.6,0C48.7,499,51.1,498.9,51.1,499.3z M48.1,503.9c-0.2,0.6,1.3,0.8,2.6,1
				c0.3-0.3,1.3-0.5,1-1L48.1,503.9z M36,499.3c4.6,0.3,5.7-0.4,8.9-0.4c0,0.6-2.5,0.6-3.6,0.9c2.7,0.6,4.8-0.5,6.3-0.9
				c-4.7-0.3-7.7,0.2-10.6-0.8C37.6,498.8,35.6,498.7,36,499.3z M38.4,502.9c-9,0.2,3.5,0.7,3.6-0.2C40.3,502.7,40,502.8,38.4,502.9
				z M26.8,502.6l-0.1,1.2c-0.1,0.3-6.4,0.1-3.6,0.5c3.4,0,6.6,0,8.9,0.3c1.5-1.2-4.6-0.4-3.5-1.5c1.7,0.1,2-0.3,3.6-0.2
				c-0.6,1.3,8.3,2.2,9.8,0.8c-3.6-0.1-6.9-0.2-8-0.3c-1.6-1.2,3-0.6,2.8-1.4C32.5,501.9,31.7,502.8,26.8,502.6z M14.4,499.2
				c2.3-0.2,1.5,0.5,3.1,0.5c1.9-0.3-0.9-0.6,1-0.7c0.2,0.4,1.1,0,2.4,0c0.4,0.8-1.6,0.7-0.1,1.2c1.3,0,3.3,0.1,3.5-0.2
				c-0.5,0-1-0.2,0-0.2c4.6-0.3,3.8,0.8,6.2,1c-0.2-1,1.7-1.3,1.1-2.4c-3.7,0.3-4.4,0-8-0.3c-0.1,0.3-0.3,0.6-1.8,0.5
				c-2.5,0-2.1-0.8-5.3-0.5C16,498.4,14.1,498.4,14.4,499.2z M14.6,500.6c3.1,0.6,1.4,0.9,4.3,0.3c-1.2,0.9,2.1,0.7,1.6,1.4
				c1.9,0.2,3.5-0.8,1.9-0.7c0,0.2-1.6,0.3-1.8,0l0-0.5c1.9-0.1,5.8,0.3,6.3-0.2c-1.7-0.5-4.2-0.1-6.2,0c-1.1-0.5-2.4-0.6-3.8-0.6
				c-1.4,0-3,0-4.7-0.1C11.3,500.7,13.6,500.4,14.6,500.6z M3.3,502.5c1.6,0.1,3.9,0.1,4.4,0.5l-6.8,0c-1.1,0.3-2,0.6-2.2,1.2
				c2.9,0.2,4.7,0,6.3-0.2c1.6-0.2,3-0.5,5.4-0.4c0.9-0.5-1.5-0.5-1.5-0.7c0,0,0.1,0,0.3,0c0.2,0,0.5-0.1,0.7-0.1
				c0.5-0.1,1.1-0.2,1.1-0.3c-0.1,0.1-1.7-0.2-1.7-0.2c-0.2-0.2,2.2-0.5-0.6-0.5C9.8,502.8,4.3,501.9,3.3,502.5z M1.5,496.3
				c-0.2,1.1-0.3,2.7-0.3,4.5c1.5,0,3.2,0,4.5,0c0.3-0.8-1.5-1-3.7-0.8C1.9,498.5,1.7,497.2,1.5,496.3z M0.4,494.1
				c0-0.4,0.1-0.8,0.2-1.7c0.1-1.1,0.5-0.9,0.5-2.9c0-0.7,0.1-3.4-0.5-3.5c-0.1,1.7,0.3,5.2-0.3,5.6c0.2-4.4-0.6-2.4-0.7-3.5
				c0.3-1.2,0.3-3.4,0.3-5.7c-0.5,0.3-0.7,2.2-0.7,4.5c-0.1,2.2-0.1,4.7-0.3,6.4c-0.2,0.1-0.3-0.7-0.5-0.8c-0.2,3.2-0.2,2,0,5
				c0.9,0.9,0.1-4.5,1-3.5l0,4.8c1,0.2,0.1-4.4,0.7-5.2C0.3,493.2,0.4,493.7,0.4,494.1C0.3,495.1,0.4,494.6,0.4,494.1z M1.3,479.7
				c-0.3,4.7,0.4,2.1,0.5,3.5c0.1,1.8-0.1,3.6-0.2,5.5c-0.1,1.8-0.2,3.6-0.1,5c0-1.3,0.6-1.1,1-1.4c-0.3-1.7-0.4-3.5-0.3-5.4
				c0-2,0.2-4.1,0.1-7.1L1.3,479.7z M1.9,455.7c-0.3-0.1-0.5,0.4-0.7,0.8c-0.1,2.2,0.4,2.8,0.7,3.6C2.2,459,2.2,456.9,1.9,455.7z
				 M-0.2,445.8c0.1,1.6-0.3,5.2,0.2,5.4C0.4,450,0.5,445.8-0.2,445.8z M-1.8,426.1c-0.4,1.7,0,1.1,0,3.6
				C-0.9,430.4-0.8,425.4-1.8,426.1z M0.6,425.3c-0.2,2-1,6.4-0.3,8.9C0.5,432,1.1,426.8,0.6,425.3z M3.8,408.6
				c-0.1,1.4-0.8,0.7-0.5,3.5l0.7,0C4,410.9,4.2,408.9,3.8,408.6z M2.9,401.4c-0.4,3-0.3,6.7,0.9,6.3c0.1-0.5,0.6-3.4,0-3.6
				c0,0.5,0,1.1-0.2,0.9C3.8,402.2,3.3,402.2,2.9,401.4z M3.9,389c-1.1-0.4-0.1,3.6,0,5.3c0,2.2-0.7,6.1,0.2,7.1
				C4,397.4,4.4,391.7,3.9,389z M1.3,381.7c-0.3,1.1-0.4,5.3,0.2,5.4C1.4,385.5,1.9,381.9,1.3,381.7z M6.6,431.1
				c0,2.9-0.7,3.4-0.5,7.1C7.3,438.3,7,433.8,6.6,431.1z M6.9,421.3c0.3,3-1,4.6-0.3,6.2c0.3-3.6,0.6-2.1,1,0.1
				C7.5,424.9,7.5,422.1,6.9,421.3z M9.1,410.7c-0.6,0.8-1.5,0.2-1.5,3.5C8.5,414.7,8.7,412.4,9.1,410.7z M7.9,408
				c-0.3,4.8-1.4-3.4-1.5,2.6C7.2,412,8.4,410.2,7.9,408z M7.1,383.9c0-1,0.4-0.9,0.7-0.8c0-1.5,0-2.8-0.2-3.6
				C7,378.8,6.5,383.2,7.1,383.9z M10.2,377c-0.4,0.1-0.9-0.4-1,0.8c0.5-0.2-0.1,2.6-0.3,2.7c-0.4-0.1-0.2-2.3-0.7-1.8
				c-0.1,4,0.4,9.3,0.2,13.4c-0.1,2.2-0.9,3.1-1,5.3c0-2.8-0.7-7.9-1.2-6.3c0.8,1.9,0.7,7.9,1.4,9c-0.1-0.1,0.2-2.8,0.5-1.7
				c-0.2,1.6,0.7,3.7,0,4.4c0-1,0.1-2.5-0.2-2.7c-0.3,1.3-0.3,3.6-0.7,4.4c-0.3-1-0.6-1-0.7,0.8c0.7-0.6,0.3,3.1,1.2,1.9
				c0-2.2-0.4-2.8,0.3-3.5c0.7,0.9,1.4,1.9,2.1,2.8c0-1.2,0-2.4,0-3.6c-0.6-1.2-0.8,3.5-1,0.8c0-0.9,0-3.9,0.3-3.5
				c0-0.1,0.1,2.5,0.2,1.8c0.3-2.5,0-5.2,0-8c0-1.8,0.7-5-0.2-5.4c0,4.2-0.8,5.3-1,8.8c-0.7-2.6,0.5-5.1,0.8-7.1
				c-0.1-1.8-0.6-6.6,0-8c0.7-0.1-0.3,5.8,0.7,4.5C9.5,382.5,10.1,381.3,10.2,377z M4.8,359.7c-0.7,0.4-2,3.1-1.2,6.2
				c0.1-1,0.3-1.4,0.5-1.7c0.3,1.2,0.2,3.9,0.2,6.3c-0.7-1.1-0.6,1.4-1,1.7c-0.2,3.1,0.3,3.4,0.2,6.3c0.7-0.6,0.5-0.6,1.2,0.1
				L4.8,359.7z M4,334.7c-0.1,3.2,0,5.8,0.2,8c-0.6,0.2-0.3-2.6-0.7-2.7c-0.1,0.7,0,1.8-0.2,1.8c0,0.6,0,1.2,0,1.8
				c0.4,0.2,0.9-0.3,1,1c-1.1,1.2,0,4.6,0,7.1l-0.7,0c0.7,3.7-0.9,9.3,0.2,9.8c-0.2-3.8,0.6-6.5,1.2-4.4c0-3.5-0.1-6.5-0.7-8.1
				C3.9,344.3,5.6,336.4,4,334.7z M11,316.4c0.3,2.6-0.3,3.3,0.5,4.5c0.3-2.1,0-1.7,0.3-4.4L11,316.4z M6.5,310.8
				c-0.3,1-0.3,3.1-0.3,5.3C7,317.4,6.8,310.8,6.5,310.8z M4.3,309.7c0.1,5.9-0.8-0.9-1.2,1.7c-0.1,4,0.1,6.7,0.2,9.8
				c0.3,2.2,0.7-1.6,1,1c-0.5,2.1-1,3.8-1.2,7c0.3,1.5,0.8,2.5,1.4,2.8c0-3.2,0.1-7.1-0.5-3.6c0.1-3.1,0.7-4.7,0.8-8
				C3.7,318.3,5,312.5,4.3,309.7z M3.1,308.8c0.1-1.1,0.3-0.5,0.5,0c0-2.4,0.8-1.9,0.7-4.4C4,302.6,2.4,306.8,3.1,308.8z M90.9,13.5
				c1.1,0,2.5,0.1,2.7-0.2c-3.2-0.2,2.5-1.2-1.7-1C90.8,12.5,91.5,12.7,90.9,13.5z M46.7,7.2c3.9,0.1,6.1,0.4,8.9-0.2
				C54.7,6.9,48.6,6.9,46.7,7.2z M14.6,13.3c1-0.2,1.5,0.3,2.3,0.3C16.6,12.8,14.1,12.5,14.6,13.3z M13.4,17.3
				c-0.3-0.6-0.2-1.1-0.1-1.5c0.1-0.4,0.2-0.8-0.1-1.5C13,14.5,12.5,17.1,13.4,17.3z M13,96.5c-0.3-0.9-0.9-0.9-1.2-1.9
				c0,1.2,0,2.4,0,3.6C12.4,98.3,13,98.4,13,96.5z M7.8,137.1c-0.1-3.4,1.1-1.7,0.7-6.2c-0.8-0.5-0.6,3-1.2,0.8
				C7.3,134.3,7.4,136.2,7.8,137.1z M13.7,151.8c-0.3-2.8,0.4-2.1,0.5-3.5c-0.7-0.3-0.8,1.6-1.2,2.6c-0.5,0-0.3-2.4-1-1.8
				C11.9,154.3,12.7,151.1,13.7,151.8z M12.8,202.5c0.1-2.6,0-4.5-0.5-5.4C12.4,200.4,11.6,202.3,12.8,202.5z M7.8,225.3l0-4.5
				C6.9,219.9,6.9,226.1,7.8,225.3z M11.4,232.7c0-2.4,0.2-5.2-0.5-5.4C11.1,229.2,10.5,233.5,11.4,232.7z M10.6,246.9
				c0.2-3-0.5-7.5-0.9-5.4C10,241.9,9.2,248.4,10.6,246.9z M6.9,267.1c0.7-0.6,1-2.7,1-6.2C6.6,259.4,7,264,6.9,267.1z M11.6,284.4
				c0.7-2.7,0-5.9,0.8-8.9c-0.6-0.6-0.3,1.5-0.5,2.6C11.6,280.2,10.7,283.4,11.6,284.4z M4.6,298.2c-0.1-3.9-0.7-6.2-1.4-8.1
				c0.1,2.5-0.7,6.2,0,8C3.3,296.1,4.4,297.5,4.6,298.2z M3.8,275.8c-0.9-0.6-0.3,4.9-0.5,7.1c0.1,1.2,0.3,1.7,0.2,3.6
				c-0.6-0.6-0.9,0.3-0.7,2.6c0.7,0.7,0.5-2.4,1.2-1.7c-0.2,3.4,0.4,3.9,0.7,5.4C4.4,287.4,3.4,280.6,3.8,275.8z M4.2,228.6
				c-0.1,0.7-0.2,1-0.5,0.9c0.2,2.7,0.2,1.7,0,4.5C4.4,234.8,4.4,228.1,4.2,228.6z M3.8,211.7c-0.1,2,0,3.3,0.5,3.6
				c0.1-1.2,0.3-1.7,0.3-3.5L3.8,211.7z M4.1,205.5c-0.7,1-1.5,1.3-1.5,5.3c0.9,1,0.5-1,1-1.7c-0.1,0.1,0.3,1.3,0.5,0L4.1,205.5z
				 M2.9,145.7c-0.1,2.6,0,4.5,0.5,5.4c0-2.6,0.6-2.7,0.5-5.3L2.9,145.7z M192.9,7.2c0.3,0.5-2,0.6-4.5,0.9c1.8,0,1.1,0.7,3.5,0.5
				C192.4,8.3,196.5,7.2,192.9,7.2z M212.5,6.8c-0.7-0.1-1-0.2-0.9-0.5c-3-0.2-3,0.5-4.5,0.7C208.7,6.9,212.3,7.4,212.5,6.8z
				 M498.1,153.8c-0.2-2.2,1.1-3.6,0.3-5.3C498.1,149.4,497.4,152.5,498.1,153.8z M496.3,167c0-1.6,0.2-2.1,0.7-1.7
				c0.1-2.8-0.4-3.2-0.2-6.3c-0.4-0.3-1.1,4.3-1,5.3c0,0.4,0.6-0.1,0.5,0.9C496,165.2,495.5,167.6,496.3,167z M497.7,182.3
				c0.6,0.4,1-4.6,0.5-5.3C498,178.6,497.8,180.2,497.7,182.3z M498.6,445.2c-0.2,3.4,1.1,3.5,1,0.1L498.6,445.2z M498.2,421.1
				c-0.7-0.1-0.7,2.6-0.7,5.3C498.3,427,498.2,423.8,498.2,421.1z M516.5,411.7c-0.4,1.2-1.5-0.4-1.5,2.6c0.3,0.8,0.6,1.2,1.2,1
				C516.2,413.5,516.5,413.3,516.5,411.7z M517.1,388.5c-0.5-0.3-0.5,1.2-0.7,1.7c-0.6-0.6-1.2-1.9-1.2,1.7c0.3,0.1,0.5-0.4,0.7-0.8
				c-0.1,1.9,0.2,2.8,0.7,2.7C516.4,390.7,516.9,390.1,517.1,388.5z M494.8,384.4c0.2,2.5-0.5,8.3,0.4,8c0.7-0.7-0.5-1.4-0.2-3.6
				c0.3-0.1,0.6-0.2,0.5-1.7C494.6,388.4,495.3,384,494.8,384.4z M515.2,380.4c0.1,2.2,0.5,5.7,1.2,4.5c-0.1-3.4-1.5-5.2-0.7-9
				C515,375.1,515.2,378.8,515.2,380.4z M514,369.6c0.5,1.4,0.5,4.5,1.4,4.6C515.8,370.1,514.5,365.8,514,369.6z M495.1,314.9
				c0.1-2.1,0.8-1.6,0.7-4.4C495.2,309.9,494.6,314.1,495.1,314.9z M501.9,248.5l1,0.1l0-2.7C502.3,245.6,501.9,246.1,501.9,248.5z
				 M501.3,136.2c-0.1,2.6,0.2,8.6,0.4,7.2C501.5,141.6,501.6,134.5,501.3,136.2z M503,124.7c-0.1,2.2-0.9,1.8-0.7,5.3
				C502.8,130,503.6,126.2,503,124.7z M499.7,116.5c1,0.3,0.2-5.2,0-6.2C499.6,112.3,499.2,114.8,499.7,116.5z M502.2,83.7
				c0.2,2.4-0.5,1.7-0.7,2.6c-0.1,3.5,0,6.6,0.4,8c-0.3,0.2-0.3,1.9-0.5,2.6c0.8,4.8,0.4,11.8,0.2,16.9c0.4-0.8,0.1,5.1,0.5,1.8
				c0.1-1.7-0.3-2-0.2-3.6c0.6-0.3,0.9-3.4,1-5.3c0.1-1.6-0.2-2.3-0.2-4.5c0-2.1,0.5-5,0.5-7.1c0-1.2-0.3-1.2-0.2-2.7
				C503,90.3,503.3,83.8,502.2,83.7z M475.8,0.2c2.1,0.1,4.1,0.7,6.2,0.8c2.4,0.1,2.9-0.4,4.6-0.5c0.9,0,0.6,0.2,0.8,0.2
				c0.8,0,0.9-0.2,1-0.2c4.7-0.1,7.3-0.2,9-0.9c-1.7-0.1-4,0-6.5,0.1c-2.5,0.1-5.2,0.3-7.8,0.3C480.3,0,476.8-0.8,475.8,0.2z
				 M351.3,9.4c2.1,0.1,3.7,0.5,5.3,0C357.6,8.6,350.8,8.9,351.3,9.4z M367.5,7.8c-3.3-0.5-3.6,1.1-1.9,1.2
				C365,8.3,368.7,8.7,367.5,7.8z M363.1,6.6c2.1,0.1,1.6,0.8,4.4,0.7C372.2,6.7,364.8,5.4,363.1,6.6z M474,1.2
				c0.3-0.7-2-0.7-1.7-1.4c0.7-0.1,1.8,0,1.8-0.2C469.3-0.5,468.5,1.1,474,1.2z M424-10.4c1.7,0.5,5.5,0.1,7.1-0.2
				C427.6-10.5,425.7-11.2,424-10.4z M399.9-10c3.4-0.5,3.2,0.3,6.2,0.5c0.1-0.6,1.7-0.7,0.1-1.2C404.6-10.3,399.7-10.9,399.9-10z
				 M349-9.5c1.1,0.3,4.3,0.4,4.5-0.2C352.4-10.1,349.2-10.1,349-9.5z M352.6,3.2c3.1,0.5,4-0.1,7.1-0.2c-0.9,1,3.3,0.2,3.5,0.3
				c1.9,0.1,2.3,0.7,4.4,0.7c-0.6-1.1,4.9-0.4,5.4-1.2c1.6,0.1,4.5-0.2,3.5,0.5c-2.8,0.1-3.6-0.6-4.5,0.2c1.4,0.2,2.8,0.4,4.4,0.3
				c1.6-0.1,7.5-1.7,8-0.4c-0.5,0-1,0.2,0,0.2c1.2-0.7,5.1,1.1,6.3-0.2c-0.5-0.3-3.4-0.1-3.5-0.5c4.3-0.1,7.4,0.7,9.8-0.2
				c0.7,0,1.4,0.7,1.7,0.7c0.8,0.1,5.7-0.1,6.2,0c0.1,0-0.2,0.5,0,0.5c1.7,0.1,3.6-0.5,5.4-0.2c0.1,0.3-0.2,0.7,0.8,0.7
				c2-0.5-0.1-0.8-0.8-1.2c3.7-0.2,1-1,5.4-1.2c1.8,0,1.1,0.7,3.5,0.5c0.6-0.4,2.4-0.4,3.6-0.5c5.3-0.2,11.8-0.3,17.8,0.1
				c0.8-0.3,1.4-0.8,3.6-0.7c9.6-0.2,14-0.3,24.1-0.4c0.8-1.7-6.6-0.5-9.8-0.5c-5.5,0-10.4-0.5-15.1-0.6c0,0.4-0.7,0.6-1.8,0.7
				c-7.7-0.5-11.7,0.1-18.7,0.4c-0.5-0.5,2.6-0.8-0.8-0.7c-1.1,0.4-3.4,0.5-4.5,0.9c-6.5-0.2-12.8,0.3-16-0.3
				c-3.5,0.4-7.3,0.4-9.8,0c1,1.2-4.6,0.5-6.3,0.9c0.3-0.5,2.4-0.5,2.7-0.9c-3.1,0.4-4.3-0.1-8,0c-1.5,0.9,3.8,0.1,3.5,0.7
				c-0.6,0.9-4.3-0.1-8,0.2c-0.1,0.3-0.3,0.6-1.8,0.5c1.8-0.8-0.3-0.2-2.7-0.3c-3.8-0.1-6.6-0.2-8,0.4c0-0.4,0.3-0.7,1-1
				c-3.3-0.3-2.9,0.5-4.5,0.7c-5.7-0.2-11-0.2-12.4-0.8c0.1-0.3,1.6-0.5,0-0.7c-1.3,0.3-1.4,0.9-2.8,1.2c-2.4,0-4.1-1-5.3,0
				c3.8,0.3,6.9-0.2,8,0.5c-1.5,0.2-4.1,0.3-6.3,0.4c-3.8,0.3-1.3-0.1-4.4-0.3C332.1,4.2,353,3.8,352.6,3.2z M310.7,4.2
				c0.7-0.8-3.1-0.9-4.4-0.5C305.6,4.5,309.3,4.6,310.7,4.2z M283.6,9.1c2.6,0,5.8-0.1,7.1,0.3c-0.6-0.4-3.2-1.5-4.4-1
				c0.5,0,1.1,0,0.9,0.2C285.6,8.7,284.2,8.8,283.6,9.1z M277.6,6.7c1.4,0.4,4.6,0.2,5.4-0.2C281.5,6,278.3,6.2,277.6,6.7z M275,5.5
				c-0.2,1,2.2,0.6,4.4,0.5C280.4,5.2,276.6,5.6,275,5.5z M273.2-8.2c2.5,0.6,4.3-0.4,6.3-0.7C276.3-9,274.1-8.8,273.2-8.2z
				 M271.5-9.7c0.5-0.7-1.9-0.8-4.4-0.7C266.7-9.7,269-9.6,271.5-9.7z M259-8.3c2.2,0,4.3,0.1,4.5-0.5C262.1-9.1,258.4-9.1,259-8.3z
				 M248.4,3.4c3.3,0.4,1.8-0.7,4.5-0.5c1.7,0.2,8.9,1.1,9.8,0c-3.2-0.2-6.8,0.3-8-0.3c0.2,0.1,2.8-0.2,0.9-0.2
				C254,3,247.6,2.2,248.4,3.4z M247.4-8.4c2.5-0.2,2.3,0.3,4.4,0.3c0.1-0.4-0.1-0.7-0.8-1C248.8-9.1,248.2-8.7,247.4-8.4z M220.7,4
				c4.5-0.6,7.1,0.7,8.9-0.2c-2.7-0.2-2.7-1.2-6.2-1.2c-1.1,0.4-1.1,0.6-0.1,1C221.9,3.5,221.1,3.7,220.7,4z M211.9,2.3
				c2.3,0.1,2.9-0.3,2.7-0.9C212.3,1.3,210.3,1.9,211.9,2.3z M162.9,1.8c0.7,0.1,1,0.2,0.9,0.5c2.5,0.3,6.1-0.4,6.2,0
				c-0.3,0.5-3.9,0-3.6,0.7c3.2,0.5,3.3-0.1,6.3-0.2c-1.3-0.7,0.4-0.9-0.8-1.4C168.5,1.7,165.2,1.7,162.9,1.8z M109.4,3.5
				c1.7,0,1.9,0.3,3.5,0.3c-0.7-0.7,1.3-0.6,1-1.2C111.3,2.5,110.5,3.1,109.4,3.5z M96.9,3.4c2,0.2,3.4,0.8,5.3,0.5
				c0.1-0.3-0.4-0.5-0.8-0.7c3.1-0.7,5.4,0.6,7.1,0c-0.9-0.7-5.7-0.4-8-0.8c-0.2,0.4,0.3,0.9-1,1c-0.1-0.4-3-0.2-3.5-0.5
				C90.3,3.6,93.9,3.1,96.9,3.4z M-12.3,21.7c0-0.7,0-1.4,0-2c0-0.6,0-1.2,0-1.8c0-1.1,0.1-2,0.1-2.9c0-1.7,0-3.1-0.3-5.1
				c-0.1,1.8-0.3,0.8-0.5-0.2c0.2,2.6,0,5-0.1,7.2c0,1,0,2,0.1,2.9c0.1,0.4,0.1,0.8,0.2,1.2c0.1,0.2,0.1,0.3,0.2,0.5
				C-12.5,21.5-12.4,21.6-12.3,21.7z M-11.8,23.5c0.2,0,0.3-1.5,0-1.8c-0.2,1.8-1,1.8-1,4.4C-12,26.9-12.3,23.8-11.8,23.5z
				 M-12.4,35.9c0.3-1.2,0.3-5.4-0.5-5.4C-12.4,33-13.2,34.7-12.4,35.9z M-4,53.4c-0.2-2.3-0.2-5.1-0.7-6.3
				C-5.1,50.9-4.8,51.7-4,53.4z M-12.2,57.3c0.1-3.3,0.3-4-0.5-5.4C-13.2,53.8-12.8,56.8-12.2,57.3z M-5.6,118.4
				c0-2.2,0.1-4.3-0.2-5.4c-0.4,0.1-0.8,0.5-1,1.7C-5.7,113.6-6,117.3-5.6,118.4z M-6.1,123.7c0.1-0.5,1-2.6,0.3-3.5
				c-1.1,2.2-0.1-2.3-0.5-3.6C-7.7,116.8-6.6,122.7-6.1,123.7z M-10.1,160.8c0.3-1.2,0.5-6.2-0.2-6.3
				C-9.8,157-10.7,159.1-10.1,160.8z M-10,194.7c-0.3-0.4-0.5-1.2-0.5-2.7c-0.8-0.5-1,1-1.2,2.6c0.4-0.1,0.6,0.9,0.5,2.7
				C-10.5,197.8-10.2,196.3-10,194.7z M-11.3,202.7c0.6-0.4,1-1.6,1.5-2.6C-10.4,200.3-11.6,198.7-11.3,202.7z M-6.5,203
				c-0.4-3.4,0.1-9.8-0.9-10.8c-0.4,1.5,0.1,1.1,0.2,2.7C-7,197.6-7.5,203.2-6.5,203z M-8.5,233.1c0.3,1.7,0.3,4.1,0.9,4.5
				c-0.2-2.5,0.3-2.3,0.3-4.4L-8.5,233.1z M-9.9,228.6c0.1-2.1,0-3.4-0.2-4.5c-0.5-0.7-1.6,0.9-1,1.7
				C-10.8,223.8-10.2,227.6-9.9,228.6z M-10.7,242.8c-0.2-2.3,0.5-7.6-0.4-7.2C-11,237.9-11.7,243.3-10.7,242.8z M-10.5,242.8
				c1-0.3,0.3-7.5,0.5-10.7c-0.5-0.1-0.2-3-0.7-2.7C-10.6,235.5-10.1,236.7-10.5,242.8z M405.2,3.2c0.6-0.7,2.5-0.9,5.4-0.9
				c-0.4,0.3-1.2,0.5-2.7,0.5C407.7,3,408.3,3,408.8,3C408.5,3.3,406.6,3.2,405.2,3.2z M175.2,496.6c-0.6,0.8-3.4,0.3-5.4,0.2
				C170.7,496.1,173.4,496.5,175.2,496.6z M81.7,4.3C79.5,4.7,72.1,5,69.2,4.5c-0.1-1,1.4,0,2.7,0C74.3,3.9,79.1,4.2,81.7,4.3z
				 M3.7,45.9c0.3,2.7,0.1,6.3,0.2,11.6C3.5,54.3,3.4,48.9,3.7,45.9z M95.9,509.6c-1.4,1.3-8,0.6-11.6,0.4c-2.4-0.1-6.6,0.4-7.1-0.5
				C83.4,510.1,91.2,509.8,95.9,509.6z M202.4,502.2c-1.6,0-1.9,0.3-3.6,0.2c-0.8-0.6-1.5-1.2-1.7-1.9
				C199.9,500.8,202.1,501.3,202.4,502.2z M113.6,510.4c-2.1,0.5-8,0-11.6,0.2C104.7,510,110.3,510.5,113.6,510.4z M34.4,509.1
				c5.1,0,11.1,0.1,15.1,0.1c-8.4,1.1-15.8-0.2-27.6,0.1C20.2,508.9,30.7,509.1,34.4,509.1z M207.7,503.5c-3,0-5.9,0-8.9,0
				C200.5,503.3,207.3,502.4,207.7,503.5z M232.7,502.9c-1.3,0.6-3.1,0.4-5.4,0.2C228.6,502.5,230.4,502.7,232.7,502.9z
				 M218.4,503.3c-3.5,0.5-5.5,0-8.9-0.3c1.5-0.4,4-0.5,7.2-0.4C216.6,503,217.3,503.2,218.4,503.3z M134.1,497.6
				c-3.7-0.3-3.5,0.5-6.3,0.4c-2.1-1.5-5.8,0.1-8-0.3c0.5-0.2,1-0.4,0.9-0.7c1.8,0.2,5.9-0.3,6.2,0.3
				C129,497.1,134.3,496.3,134.1,497.6z M492.5,59c-0.3-5.8-0.1-11.7,0.1-18.7c0.4,4.8,0.4,10.7,0.4,17
				C493.1,58.7,492.8,58.9,492.5,59z M187.1-13.4l6.2,0C193.1-13,186.7-12.5,187.1-13.4z M516,220c0.4,0.2,0.7,3.7,0.7,5.4
				c0,1.4-0.2,5-0.7,4.4C516.3,226,515.9,224.9,516,220z M230.8-13.5c1.9,0.4,6.2,0.2,9.8,0.3c3.6,0.1,8.5-0.4,8.9,0.5
				C243.6-13,232.3-12,230.8-13.5z M453.5-12.2c-3-0.8,6.7-0.2,8.1-0.7c0.1,0.3,1.6,0.2,2.7,0.3C462.9-11.6,454.8-12.6,453.5-12.2z
				 M285.9-10.8c2.3,0,4.6,0.1,4.4,0.7C287.7-10,285.4-10.1,285.9-10.8z M224.4-11.3c-0.4-0.7,4.8,0.2,4.5-0.5
				c0.7,0.6,7-0.2,6.2,0.8C231.3-11.1,228.9-11.5,224.4-11.3z M195.9-11.5c4.1-0.1,4.9,0.6,8,0.8C203.7-10.7,194.8-10.4,195.9-11.5z
				 M227-10.4c2.9,0,6.3-0.1,6.2,0.7C231.7-10,226.7-9.5,227-10.4z M238.5-9.6c0.7-0.8-3.6-0.3-2.6-1.2c3,0,3,0.8,6.2,0.8
				C241.9-9.6,240.6-9.5,238.5-9.6z M493,102.7c-0.8-1.7-0.4-6.8-0.4-9.8c0-8.3,0-14.9,0.1-22.3c0-3.7-0.9-8.6,0.3-9.8
				c-0.6,7.1,0.2,14.7,0.1,22.3C493.1,88.8,492.9,95.4,493,102.7z M492.7,25.1c0-0.4,0-1-0.1-1.8c0-0.7,0-1.4-0.1-2.2
				c0-1,0-2.1,0.2-2.8c0.3,0.6,0.4,1.5,0.4,2.5c-0.1,0.7-0.1,1.3-0.2,2C492.8,23.6,492.8,24.4,492.7,25.1z M473.5,8.8
				c-1.4,0.3-3.9,0.4-6.3,0.4C466.5,8.4,471.4,9,473.5,8.8z M493,17.2c-0.5,0.2-0.6-1.2-0.5-2.7c0-1.6,0.2-3.5,0.3-4.1
				c0.3,0.4,0.3,1.6,0.2,3C493,14.7,492.9,16.1,493,17.2z M493.4,169.5c-0.6-2.8-0.3-5-0.2-8.9C493.8,161.9,493.3,166.8,493.4,169.5
				z M494.3,240.9c-0.8-1-0.2-3.2-0.2-5.4c-0.1-7.7-0.3-18.4-0.4-25.9c1.3,1.4,0.4,5.8,0.4,8C494.2,224.1,494.3,230.7,494.3,240.9z
				 M493,114.2c-0.8-1.1-0.6-10.8,0-9.8C492.7,107,493.1,109.8,493,114.2z M493.5,158.8c-0.7-0.1-0.6-4.2-0.2-5.4
				C493.8,153.6,493.3,157.3,493.5,158.8z M106-13.1c1.9-0.5,7.4,0,10.7-0.2C114.9-12.8,109.3-13.3,106-13.1z M-10.4,381.8
				c-0.4-1.2-0.4-4-0.7-5.4c-0.2,0.4-0.4,0.8-0.5,1.8c-0.9-1.5,0.6-1.3,0.3-3.5C-10.9,376.3-10.1,379.9-10.4,381.8z M-11,403.2
				c-1.2-0.8-0.4-4.3-0.2-7.1C-10.7,396.7-11.2,401-11,403.2z M-13.8,373.6c0-2.7,0-5.4,0.7-5.3C-13.6,368.9-12.8,374.5-13.8,373.6z
				 M-13.1,394.1c-0.7-1.4,0-5.3,0.3-6.2c0-2.2-0.4-2.8,0-4.5C-12.2,386.4-12.9,391.6-13.1,394.1z M-11.8,374.6
				c-0.5-0.8,0-2.9-0.2-4.5c-0.1-0.6-0.5-0.7-0.5-0.9c-0.1-1.4,0.3-1.6,0.3-2.7c0-0.8-1-2.5-0.7-5.4c0.7-0.8,0.4,2,0.5,3.6
				c0.8-0.4,1,2.2,1.2-0.8c0.8,1.1-0.2,1.8-0.3,2.7c0,1.2,0.4,0.3,0.5,0.9c0.2,1.4-0.6,3.6-0.3,6.2
				C-11.6,373.6-11.8,373.9-11.8,374.6z M-11.8,324.7c0.1-4.4-0.8-5.4-0.4-10.7c0.5,0.4,0.5-1.2,0.5-2.6c1,2.3,1,7.5,0.2,10.7
				c0.6-0.1,0.8-1.6,1.2,0.1c-0.2-3.9-0.1-14.2,1.3-15.1c-0.1,3.7-0.7,5.2-0.8,8.9c-0.1,1.1,0.7,3.1,0.7,0.9
				c0.8,5.7-0.4,15.6,0.1,20.5c-0.9-1.6-0.7-6.3-0.9-8.1c-0.5-0.7-1,3.2-0.5,3.5c-0.6,3.3-0.5-3.4-0.5-5.4c0.4-1.6,0.7,0.4,1.2,1
				c-0.1-3.6,0.3-5.1,0.3-8c-0.9-0.8-0.6,2.8-0.7,3.5c-0.1,0.2-0.4-1.4-0.5-0.9c-0.1,0.6,0,3.3-0.7,2.6
				C-11.4,324.7-11.7,324.9-11.8,324.7z M-15.4,374.4c-0.1-3.6-0.9-6.7-1.2-9.9c-0.2-2.3,0.4-1.2,0-3.6c-0.8-4.6-0.9-12.6-1.1-22.3
				c0.3-0.8,0.3-3,0.7-3.5c1.1-0.2,0.6,5.1,1.7,2.8c0.4,3.2-0.1,4,0.2,7.1c1,0,0.7-5.3,0.8-8.9c0.4-0.1,0.5,1.1,1,1
				c-0.9,4.4-0.2,10.4-0.3,16.9c-0.5,0.4-0.5-1.3-0.5-2.7c-0.2-2-0.7-2.7-1.2-3.6c-0.7,3.2,0.2,2.8,0.5,4.5
				c-0.1,7.1-0.9,13.2-0.1,18.7C-15.3,371.4-15.4,372.7-15.4,374.4z M-15.8,357.4c0.3-0.2,0.3-1.9,0.5-2.6c-1-0.7-0.7,3.3-0.8,6.2
				C-16.1,367-15.7,359.9-15.8,357.4z M-12.4,332.7c0.3,0.2,0.2,1.8,0.5,1.8c0.5-0.1,0.1-3.8,0.3-5.3c-0.2,0-0.2,1.1-0.2,1.8
				c-0.8,0.4-1.1-2.5-1,1.7c-0.6-2-0.4-2.6-0.2-5.4c0-0.7,0.3,1.9,0.2,1.8c0.2,0.3-0.1-5.1,0-6.2c0.5-0.4,0.5,1.3,0.5,2.7
				c0.9,2.5,1.5,6.5,1.4,12.6c-0.2-0.5-0.4-1-0.7-0.9c0.3,1.8,1.2,1.7,0.9,5.4c-0.6-0.3-1,0.3-1,2.6c-1.4-1-0.8-5.6-1.2-9
				c0.7,0,0.5,1.5,1,0.1C-12,334.9-12.7,335.5-12.4,332.7z M-9.4,405.9c-0.3-0.2-0.1-2.7-0.5-2.7c0-2.3,0-5.2,0-7.1
				c0.1-3.1,0-6.9,0.8-7.1c0.1,2.2-0.4,1.9-0.3,4.4l0.7,0.1c0.8-2.5,0.1-5.2,0.3-9.8c0.9-0.9,0.4,2.8,0.5,4.5
				c0.1,1.4,0.4,3.1,0.5,4.5c0.2,4.5-0.1,9.3,0.2,12.5c-0.6,2.1-0.4-1.4-1.2-1c1-0.8,0.9-7.5,0.5-10.7c-0.7,0.7-1.1,2.4-1.2,5.3
				c0.6,0.6,0.9-0.3,0.7-2.6C-7.7,399.6-9.2,402.5-9.4,405.9z M-12.3,311.3c-1-3.6,0.5-4.5,0.3-9.8c-0.3,3.9-0.8,1.7-1-1.8
				c1.1,0.6,0.4-3.4,1.2-5.3c0.2,0.6,0.7,3.8,0.7,0c0.9,0.9,0.2,4.5,0.2,7.1c-0.6-0.6-0.2-4.7-1.2-3.6c0,0.9,0.3,0.7,0.5,0.9
				c0,2.1,0,4.2,0,6.2c0,1.4,1.1-1.4,0.9,2.7C-11.3,309.6-12.3,304.2-12.3,311.3z M-11.6,432.5c-0.1,3.2-0.7,2.1-0.3,5.3
				C-12.8,438.3-12.2,432-11.6,432.5z M466.3,500.9c2.1-0.5,8,0,11.6-0.2C475.7,501.2,469.9,500.7,466.3,500.9z M-11.2,433.5
				c-0.3-1.8-0.5-4.2-1.2-4.5c0.1-3.1-0.1-6.9,0.8-7.1c-0.5,1.8-0.2,5.9,0,8c0.2,0,0.2-1.1,0.2-1.8C-10.9,428.9-10.8,432-11.2,433.5
				z M479.7,512.9c-0.2,0.4-1.6,0.5-3.6,0.5c-0.1,0.7,1.5,0.5-0.1,1c-3.3,0.4-7,0.3-10.7,0.4c-5.7,0.2-11.7,0.6-17.9,0.6
				c-1.4,0-2.4-0.3-2.7-0.3c-9,0-17.9,0.7-26.8,0.8c-1.6,0-3.7-0.3-5.3-0.3c-1,0-2.5,0.5-3.6,0.5c-1.4,0-3-0.3-4.4-0.3
				c-6.1,0.1-13.9,0.4-20.5,0.1c0.8-0.7-1.2-0.6-0.8-1.2c-3.6,0.3,0.2,0.5-0.1,1.2c-6.6,0.2-9.7-0.1-12.5,0.7
				c-2,0.6-2.5-0.2-3.5-0.3c-1.9,0-3.8,0.8-6.2,0c1,1.5-2.6,0.4-4.5,0.9c1.8,0.2,2.4,0.8,3.5,1.2c1.5-0.4-0.3-0.9,1.9-1.4
				c2.8-0.1,3.1,0.4,6.2,0.3l-0.1,1c3,0.1,0.6-1.3,4.6-1.4c0.1,0.4-1.1,0.5-1,1c3.5,0.2,4.7-0.9,7.1-0.2c2.5-0.5,4.9-1.1,9.9-0.9
				c-1.3,0.4-3.1,0.6-5.4,0.7c0.9,0.3,2.3,0.5,3.5,0.7c2,0-0.8-0.5-0.9-0.5c0.5-0.4,1.6,0,2.7-0.2c1.4-0.2,1.5-1.2,4.5-0.5
				c0.9,0.6-2,0.3-2.7,0.5c-0.8,0.2,0.2,0.9-1.8,1c3.3,1,5.3,0.3,8.9,0.5c0.1-1.1-3.6-0.2-4.4-0.7c-1-1,3-0.6,3.6-1.2
				c3,0.2,0.4,0.4,0.8,1.2c1.6,0.4,2.4,1.1,6.2,1c-0.1,0.9-3.4,1.5-4.5,0.7c-2.4,0.2,2.3,0.5,0.8,1.2c-1.9,0.6-4.1,0-6.2,0
				c-0.8,0-2,0.3-3.6,0.2c-4.1-0.1-8.8-0.5-13.3-0.5c-1.8,0-2.4,0.2-3.6,0.2c-6.4-0.1-14.3-0.4-20.5-0.3c-2.7,0-4.6-0.2-7.1-0.3
				c-15-0.5-30.8-0.6-45.4-1.4c-1.5-0.1-2.3-0.4-3.5-0.5c-3.1-0.3-6.1,0-9.8,0c-2.8,0-4-0.4-7.1,0c-2.8,0.1-2.3-0.7-4.4-0.7
				c-4.4,0.4-9.4-0.3-14.3,0.2c-1.6,0.1,0-0.9,1.8-0.7c-3.2-0.9-8,0.3-7.2,0.7c-3.2-0.3-7.4-0.3-7.9-1.2c-4.3,1.1-11.4-0.8-15.2,0.4
				c-1.7,0.2-2.1-0.5-2.6-0.5c-0.6,0-1.5,0.3-2.7,0.2c-3.9-0.2-10.6-0.8-16-0.8c-1.3,0-4.4,0.1-4.5,0.5c-1,0-0.7-0.4-0.8-0.7
				c-4.9,0.2-8.8,0.2-12.5-0.1c-0.9,0-0.7,0.3-0.9,0.5c-3.3-0.4-5.1,0.2-7.1-0.5c-2-0.1-1.3,0.5-2.7,0.5c-2-0.3-6-0.5-9.8-0.5
				c-2.3,0-6.7,0.1-8,0.2c-1.9,0.1-3.7,0.4-5.4,0.5c-6.5,0.2-13.2,0-18.7-0.1c-5.2-0.1-10.7,0.8-14.3-0.1c-1.5,0.1-2,0.4-3.6,0.5
				c-1.4,0-1.6-0.3-2.7-0.3c-2,0.1-4.9,0.4-7.2,0.4c-5,0-9.8-0.4-15.1-0.3c-1.4,0-1.6,0.2-2.7,0.2c-1.5,0-3-0.3-4.4-0.3
				c-1.1,0-2.6,0.4-3.6,0.5c-0.5,0-1.6-0.2-2.7-0.3c-1.6,0-1.9,0.2-3.6,0.2c-6.9,0-14.4-0.3-20.5-0.1c-1.5,0.1-1.5-0.3-2.7-0.3
				c-3.2,0.1-7.4,0.9-12.5,0.2c-3.5,0.7-8.7,0-15.2,0.2c0.1-0.5,3-0.2,2.7-0.7c-2.2-0.1-2.8,0.4-3.6,0.7c-0.8-0.2-2.3-0.3-3.9-0.3
				c-0.8,0-1.7,0-2.5,0c-1.1,0-2.1,0-3.1,0c-3.6-0.1-1.9,0.7-4.9,0.7c-10.7,0.1-20.7-0.1-30-0.2c0-5,0-9.8,0-14.4
				c-0.1-3.6-0.4-6-0.5-9.5c0-2.5,0-5.1,0-7.6l0-3.8l0-1.6l0-1.1c0.1-2.8,0.2-5.7,0.2-8.5c0-1.7-0.3-3.7-0.2-5.4
				c0-1.6,0.4-2.6,0.5-4.4c0.1-1.6-0.2-2.8-0.2-4.5c0.1-6.6,0.3-14.3,0.6-21.3c0.7-0.5,0.1,3.5,0.2,6.3c0.1,1.7,1.1,5.8,0,6.2
				c-0.1,3.1,0.8,2.2,0.7,5.4c-0.4-0.1-0.6,0.6-0.7,1.7c0.5-0.4,1,3.1,0.2,5.4c0.9,1,0.4-3.3,1.2-2.6c0.1,6,0,8.5,0.2,13.4
				c0.9,0.8,0.4-3.9,1.5-2.6c-0.3,3.1-0.1,5.7,0.1,8.1c0.1,1.2,0.1,2.4,0.1,3.5l0,1l-0.1,1.4c-0.1,0.9-0.2,1.9-0.3,2.8
				c0.1,3,0.4,3,0.7,1.4c0.3,3.1-0.6,5.4,0,5.7c-0.1,3.4-0.6-1.5-1-1.2c0.4,8.5,0.7,14.1,0.5,22.5c1.3,0,2.8,0.1,4.4,0.1
				c0.2-0.2-1.6-0.2-2.6-0.2c2.5,0,7.2-0.1,12.1-0.2c4.9-0.1,9.9,0,13.6,0.3c2.5,0.1,3.4-0.1,4.3-0.3c0.2,0,0.5-0.1,0.7-0.2
				c0.1,0,0.2,0,0.4-0.1c0.1,0,0.2,0,0.3-0.1c0.4-0.1,0.9-0.1,1.7-0.1c1.1,0.4,3,0.5,5.3,0.5c1.5,0.1,1.7-0.2,1.8-0.5
				c2,0.1,4.8,0.6,5.4-0.2c-0.6-0.5-5-0.1-7.1-0.3c0.3-0.6-0.3-1-2.6-1c-0.7,0-0.9,0.2-1.8,0.2c0.6,0.2,2,0.3,1.7,0.7
				c-1.3,0-2.5-0.1-3.8-0.1c-1.7,0-3.3-0.1-4.9-0.1c-3.5,0-6.8-0.1-9.9-0.1c-6.3,0-12,0-17.5,0c0-6.4,0-12.6,0-19.4
				c0-3.4,0-6.9,0.1-10.6c0-1.4,0-2.8,0.1-4.2c0-1.3,0.1-2.6,0.1-4c0.3-1.1,0.4-0.3,0.7,0c0-5.7-0.2-10.5,0.1-15.1
				c-0.1-1-0.5-0.6-0.5-1.8c0.2-2.4,0.3-5,1.2-4.4c-0.3-2.4-0.2-2.8-1-1.8c0.2-0.9,0.6-0.9,0.5-2.6c0.9,0.4,0.9,3.8,1.4,5.4
				c-0.5,3.3-0.3,3.2-0.3,8c-0.9,1.3-0.1-3-0.7-2.7c-0.6,1.7-0.1,7,0.7,4.5c-0.3,3.5,0.5,5.2,0,7.1c-0.5,0.4-0.4-1.3-0.5-2.7
				c-0.6,1.2-0.2,5.7,0.5,5.4c-0.1,2.2-0.2,4.7-0.2,7.2c0,0.8,0,1.7,0,2.6c0,0.9,0,1.9,0,2.8c0,1.9,0.1,3.8,0.1,5.7
				c-0.1,3.6-0.6,5.6-0.8,9.3c0.1,1.4,0.5,0.6,0.5,2.3c0,2.3,0,4.7-0.1,7.2c5.2,0,10.7,0,15.9,0c2.6,0,5.1,0,7.5,0.1
				c1.2,0,2.3,0.1,3.4,0.1c0.5,0,1.1,0,1.6,0.1c0.3,0,0.5,0,0.8,0c0.2,0,0.4,0,0.6,0c0.2,0.2,0.1,0.3-0.1,0.4
				c-0.2,0.1-0.9,0.1-1.6,0.1c-1.5,0-3.5-0.1-4.7,0c1.1,0.2,2.3,0.3,3.4,0.3c0.6,0,1.2,0,1.7,0c0.3,0,0.6,0,0.8-0.1
				c0.2,0,0.4-0.1,0.5-0.1c1.4-0.2,2.7-0.6,3.4-0.8c11.2,0.6,19.5,0.5,30.3,0.4c0.6,0.5,2.6,0.2,0.8,0.7c2.8,0.3,2.2-0.4,3.6-0.5
				c7,0.4,15,0.5,21.4,0.3c3.3-0.1,7.5-0.2,10.7-0.2c2.8,0,4.6,0.3,7.1,0.3c1.4,0,3.1-0.2,4.5-0.2c1.4,0,2,0.5,3.5,0.5
				c1.2,0,8.5-0.2,10.7-0.4c0.9-0.1,0.7-0.5,1.8-0.5c2.1,0.4,3,0.3,6.2,0.3c3,0,3.8,0.6,5.4-0.2c2.8,0,2.9,0.7,6.2,0.5
				c-0.1-0.3-1.6-0.2-2.7-0.3c1-0.9,3.3-0.2,5.4-0.2c11.1,0,21.1-0.2,34.7,0.2c4.2,0.1,11.9,0.1,17.8,0.1c1.6,0,1.9,0.3,3.5,0.3
				c3.6,0,8-0.7,9.8,0.3c0.8-0.6,9-0.8,10.7-0.4c0.4,0.1-2.1,0.3-2.7,0.2c-0.3,0.4,5,0.5,3.6-0.2c1.4,0.4,3.7,0.6,7.1,0.5
				c0-0.2-1.1-0.2-1.8-0.2c3.6-0.5,11,0,16.1-0.2c3.3,0.6,7,1.2,13.3,1c-0.5-0.5-4.5-0.1-3.5-1c5.1,0.3,5.9-0.6,11.6-0.4
				c3.3,0.1,6.8,0.5,10.7,0.5c-0.2,0.3-1.6,0.2-2.7,0.2c1.9,0.7,5.9,0,3.6-0.7c2-0.1,3.3,0.1,3.5,0.5c5.3-0.7,13.9-0.1,20.5-0.4
				c-3.1,0.7,3.8,1,5.3,0.5c-0.5-0.9-4.5,0.6-3.5-0.5c8.6,0,19,0.2,24.9,0.1c-0.3,0.4,0.8,0.4,0.8,0.7c0.9-0.2,1.8-0.5,2.7-0.7
				c3.8,0,7.9,0.1,11.6,0.1c6.5-0.1,13.4,0.3,20.5,0.3c1.7,0,3.7-0.2,5.4-0.2c7.5,0,20.8,0.3,30.3,0.1c2.9,0,5.3-0.4,8.1-0.4
				c5.8-0.1,11.3,0.1,16.9,0.1c7.1-0.1,14-0.4,20.5-0.4c1.6,0,1.9,0.3,3.5,0.3c1.8,0,2.5-0.2,3.6-0.2c2.3,0,4.9,0.6,7.1-0.2
				c10.9,0.1,12.3,0,23.2,0.1c0.1,0.4-1.1,0.5-1,1l-7.1,0c-1.9-0.1-0.5,0.8-1,1.2c2,0.1,1.3-0.4,2.7-0.5c2.2,0,0.8,0.4,1.7,0.5
				c1.5,0.2,2.4-0.2,2.7-0.2C477.5,512.5,477.8,513.4,479.7,512.9z M12.7,510.9c-1.3,0-2.6-0.2-3.8-0.4c-1.2-0.2-2.4-0.3-4,0.2
				c1.3,0,2.5,0.2,3.7,0.4C9.9,511.3,11.3,511.3,12.7,510.9z M-12.3,477.9c0.3-1.7,0.3-4.2,0.5-6.2c-0.9-0.6-1.5,4.6-1.2,5.3
				C-12.9,474.4-12.7,478.4-12.3,477.9z M-15,491.4c0.3-0.1,0.6-2.7,0.7-5.6c0.1-1.4,0.1-2.9,0-4.2c0-0.3,0-0.6,0-0.9l0-0.2l0-0.1
				c0-0.1,0-0.1,0-0.2c0-0.3-0.1-0.5-0.1-0.7c0,0.2-0.1,0.5-0.1,0.7l0,0.2l0,0.1l0,0.2l-0.1,0.6c-0.1,0.9-0.1,1.7-0.2,2.7
				C-15,486-15.1,488.3-15,491.4z M13.6,516.5c-3.5-0.2-12.6-0.7-14.2,0.2c2.8-0.2,5.1-0.1,7.4,0C9,516.7,11.2,516.8,13.6,516.5z
				 M39.6,511.3c-1.2-0.5-8,0.2-6.3,0.4C34.1,511.2,39,511.9,39.6,511.3z M99.9,515.7c-2.4-0.3-4.5-0.3-6.2,0.2
				C95.6,516,99.4,516.5,99.9,515.7z M126.7,515.3c-0.2-0.6-2.4,0.3-2.7,0.5c2.7,0,5.3,0,8,0C132.9,515,128.5,515.5,126.7,515.3z
				 M234.6,513.7c-2.8-0.1-3.7,0.3-4.5,0.7C232.4,514.4,234.7,514.4,234.6,513.7z M239.2,511.5c-3.3,0.2-10.5-1-11.6,0.2
				c3.4,0.3,1.4,0.1,2.7-0.2C233.2,510.8,238.8,513.1,239.2,511.5z M258.8,511.2c-1.7-0.4-5.5-0.1-5.4,0.7
				C256.9,512.1,257.3,511.5,258.8,511.2z M260.6,511.6c2.6,0,2.7,0.6,5.3,0.5C267.1,511.3,261.4,511.1,260.6,511.6z M298.5,517.3
				c-1.2,0-2.4,0-3.6,0C293.5,518.4,299.5,518.2,298.5,517.3z M311.9,517.2c-4.7,0.3-2.7-1.2-7.1-1c0,0.8,3,0.8,4.4,1.2
				c1,0.8-2.9,0.2-1.8,1C310.4,518.4,310.7,517.7,311.9,517.2z M340.2,519.7l3.6,0C344.6,518.8,339.6,518.8,340.2,519.7z
				 M345.7,517.3c-2.6-0.1-4.5,0-5.4,0.5c1,0.1,1.4,0.3,1.8,0.5C344.4,518.3,345.6,517.9,345.7,517.3z M391.9,519.5
				c1.8,0.5,2.5,1.2,5.2,1.5c1.5-0.8-2.5-0.8-3.5-1c-0.3-0.1,0.3-0.4,0-0.5c0.1,0-2-0.3-1.8-0.2c-1.1-0.2-2.4-0.1-3.6-0.3
				C387.5,519.7,390.4,519.4,391.9,519.5z M385.7,520.2c-1.5,0-3,0-4.5,0C379.8,520.9,387,520.9,385.7,520.2z M377.8,518.5
				c0.7,1.2,4.6,0.2,6.2,1c-0.2-0.6,2.6-0.3,2.7-0.7C383.3,518.4,381.7,518.8,377.8,518.5z M370.5,520.6c2.2,0.3,2.6-0.4,4.5-0.5
				c0.9,0,4.7,0.8,4.5-0.2C377.8,519.5,370.3,519.6,370.5,520.6z M356.3,520c2.2-0.1,4.6-0.2,4.5-0.9
				C358.6,519.2,356.2,519.3,356.3,520z M447.6,513c-0.3-0.5-0.3-1-2.6-1c-1.6,0.5-2.1,0.7-1,1.4C446.4,513.7,445.9,513,447.6,513z
				 M460.2,511.7c-1-0.1-1.4-0.3-1.8-0.5c0.9,0,2.3-0.1,0.9-0.2c-2,0.5-3-0.2-6.2,0c-0.4,1,3.2,0.7,5.3,0.5
				C458.1,511.8,459.6,512.1,460.2,511.7z M-9.2,420.2c0-4.3-0.5-5-0.9-9c0.4-2.4,0.9-4.3,1.5-6.1c0.9,1.9,1.1,6.1,1.4,9.9
				c-0.5-1.5-0.9-3-0.9-6.3c-0.6-0.3-0.8,1.2-0.7,3.5c1.2,0.7,2.6,11.3,0.7,12.5c0-2.2,0.5-2.7,0-4.5c-1.1,3.6,0.4,10.7-0.5,13.3
				l1,0.1c0.2-3.3-0.3-4.3-0.2-7.1c1.4-1.7,1.2,8.5,0.4,8.9c0.3,2.5,0.3,4.7,0,7.1c-0.4-0.8-0.4-3.3-0.9-3.6c0-1.7,0.8-0.6,0.7-2.6
				c0-1.3-0.7-0.4-0.7-1.8c-0.3,0.3-0.2,2.2-0.3,3.6c-1-1.1-1.1-5-1.2-8.1C-10,427-9.2,423.5-9.2,420.2z M-12.3,420.9l0-2.7
				c0.6,2.2,0.5-1.3,1.2-0.8C-11.1,420.2-11.7,420.4-12.3,420.9z M-10.9,436.1c-0.2,3.4,0,3.2-0.3,5.3
				C-11.6,441.4-11.7,434.8-10.9,436.1z"/>
		</g>
	</g>
</g>
<circle class="st2" cx="249.5" cy="249.5" r="250.5"/>
<g>
	<g>
		<g>
			<path class="st3" d="M395,217.7c-10.8-0.8-21.7-4.7-32.1-1.7c-2.6,3.8,4.9,12.7,7.4,17c0.9,1.6,1.8,3.3,2,5.1
				c1.5-0.1,2.9-0.9,3.6-2.3c2.3-1,4.7-2,7-3.1c9.1-4,18.3-8,27-12.9c-0.3-0.7-1.2-0.9-2-1C403.6,218.5,399.3,218,395,217.7z"/>
		</g>
		<g>
			<path class="st3" d="M371.8,260.2c-1.9-4.4-3.9-8.8-5.8-13.2c-0.4,10.7,0.8,21.4,3.6,31.7c-5.1-4.1-7.7-10.7-9.3-17.1
				c-3.3-12.8-3.6-26.3-0.9-39.2c0.2-0.9,0.4-1.9,1-2.5c0.8-0.9,2-1,3.2-0.7c6.9,10.6,14.2,21.3,18,33.4c4.4,14.1,3.6,29.4,7.4,43.7
				c-1.7-1.1-2.6-3.1-3.4-5C380.9,280.9,376.4,270.5,371.8,260.2z"/>
		</g>
		<g>
			<path class="st3" d="M145.8,354.5c-2,1-2.7,3.7-2.2,6c0.5,2.2,2,4.1,3.5,5.8c18.4,22.3,36.8,44.7,56.7,65.8
				c10.1-20.9,20.4-42.2,36.8-58.6c2.6-2.6,5.5-5.1,9.1-5.7c5.4-0.9,10.3,2.8,14.6,6.2c12.9,10.1,26.4,19.2,40.6,27.3
				c4.4,2.5,9,5,14,5.4c7.2,0.7,14.1-2.9,19.8-7.3c17.8-13.6,27.4-35.1,36.3-55.7l-22.9,4.9c10.1-3.8,20.5-6.8,31-9.3
				c-4.4-5.1-8.9-10.2-11.7-16.3c-2.8-6.1-3.8-13.4-1-19.5c1.2-2.7,3.2-5.1,3.5-8.2c0.1-1.4-0.2-2.8-1.1-3.9c-1.9-2.3-4.8-1.6-7.3-2
				c-7-1.1-9.4-10-9-17c0.3-4.5,1-9,2.3-13.3c1.5-5,1.5-10.3,0.7-15.5c-0.9-6.1-0.8-17.2-0.4-26.2c-9.8,2.6-33.8,10.7-43,14.9
				c-34.7,16-69.4,32.1-104.1,48.1c-6,2.8-12,5.5-18,8.3c-11.7,5.4-23.4,10.8-35.2,16.2c-1.3,0.6-2.6,1.2-3.5,2.4
				c-0.8,1-1.1,2.4-1.4,3.7c-3.3,15.6-6.6,31.1-9.8,46.7"/>
		</g>
		<g>
			<path class="st3" d="M312.4,259c3,0,6.1-0.1,9.1-0.1c1.3,0,2.7,0,4,0.1c2.9,0.3,5.6,1.5,8.3,2.6c2.6,1.1,5.3,2.2,7.9,3.3
				c0.5,0.2,1.1,0.4,1.6,0.3c0.4-0.1,0.7-0.5,1-0.8c2.8-3,5.6-6,8.4-9c-3.4,6.4-6.9,12.8-10.3,19.2c-1.8-1.9-3.6-3.8-5.9-5.3
				c-7.3-4.7-16.9-2.9-25.2-5.4c-0.6-0.2-1.2-0.4-1.4-1c-0.2-0.6,0.3-1.3,0.7-1.8c1.2-1.3,2.9-2.8,4.6-2.1"/>
		</g>
		<g id="hr_1_">
			<path class="st3" d="M158.7,336.7c0.8-1.4,1.7-2.8,2.6-4.1c-6.3,11.7-3.2,27.6,7,36c0.5-12.4,2.7-24.7,6.4-36.5
				c1.7-5.3,3.7-11.1,1.5-16.3c-3.1,11,3.9,22.4,12.5,29.9s19.1,12.8,26.9,21c-7.5-15.6-13.1-32-16.9-48.9c1.3,5.9,6.1,11,11.9,12.6
				c5.9,1.6,12.6-0.4,16.6-4.9c-9.7,0.2-18.2-10-16.3-19.6c-5.2-1.6-12.6-6.9-9.7-11.5c2.6-4.1,4.9-5.1,9.3-7
				c8.4-3.7,17.6-9.7,26-13.4c-9,16.9-4.6,37.4,0,55.9c5.4,21.8,10.7,43.5,16.1,65.3c2.7,11,5.7,22.5,13.4,30.7
				c-1.7-20.5-3.3-41.2-1.2-61.7c1-9.8,2.8-19.5,3.2-29.3c0.2-5.3,0-10.7-0.1-16c-0.2-21.3,5.2-40,8.1-61.5
				c-5.9,24.6-8.8,48.1-9.6,73.4c20.1-32.1,40.3-64.3,60.4-96.4c-7.5,20.6-13.5,41.7-18.2,63.1c12.7-17.2,24-35.4,33.8-54.4
				c7-9.4,15.3-20.7,25.7-26c-9.2-32.8,2.1-6.1-15.4-35.4c-6.6-11-13.3-22.2-22.7-30.9c-23-21.3-57-24.1-88.2-25.7
				c7-7.5,17.6-9.9,27.6-12.1c7.1-1.5,14.2-3,21.3-4.6c-33.8-0.7-67.7,4.9-99.5,16.3c3.2-9.9,3.9-20.5,2.2-30.8
				c-10,13.7-21.1,26.5-33.2,38.4c0.4-16.4-1-32.8-4-48.9c-7,7.4-9.9,17.8-10.1,28c-0.2,10.1,2.2,20.1,4.6,30
				c-8.6-11-25.6-11.3-38.4-5.7s-23,15.6-34.9,23c20.3,8.8,43,11.9,64.9,9.1c-14.8,10.5-24.9,26.8-30,44.2s-5.5,35.9-3.8,53.9
				c8.8-18.1,19.2-35.5,31.2-51.8c-0.4,7.7-0.4,15.5-0.4,23.2c0,2.7,0,5.4,0,8.1c-0.1,11.3-0.1,22.7-0.2,34
				c-0.1,10.4,0.7,22.4,9.1,28.5c1.5,1.1,3.3,2.1,4,3.8c0.8,2.2-0.7,4.5-2.1,6.4c-2.6,3.6-5.3,7.2-7.9,10.8
				c-1.2,1.6-2.4,3.3-2.6,5.3c-0.1,1.4,0.3,2.8,0.7,4.1c2.6,8.3,5.8,16.4,9.7,24.2C151.2,353.7,154.1,344.7,158.7,336.7z"/>
		</g>
		<g>
			<path class="st3" d="M391.9,217.8c-0.7,0-1.4,0-2.2-0.1c-18-0.4-36.4,0.7-53.2,7.1c-15.5,5.9-29.1,16.1-44.3,22.8
				c-8.3,3.7-17,6.3-25.4,9.5c-28.8,11.1-54.3,29.4-83.1,40.3c-21,8-43.5,11.9-66,11.5c11.6-25.6,17.4-53.8,16.8-81.9
				c20.5-9.8,41-19.7,61.5-29.5c32.1-15.4,64.2-30.8,97.9-42.3c10.2-3.5,20.7-6.7,31.6-7c9.1-0.3,18.8,1.2,26.8-3.2c1-0.5,2-1.2,3-1
				c2.2,0.4,2.5,3.2,2.6,5.4c0.6,7.4,5.4,13.8,10,19.6c1.6,2,3.2,4,4.8,6.1c3.3,4.1,6.5,8.3,10.2,12.1c11.4,11.8,23.5,23,38,30.8
				C410.9,221.6,402.6,218.1,391.9,217.8z"/>
		</g>
		<g>
			<path class="st3" d="M228.8,277.8c-8.9,3.7-17.4,8.4-25.4,13.9c-1.5,1.1-2.8,2.5-3.6,4.2c-1.4,3.1-0.2,5.3,1.2,7.3
				c1.2,1.7,2.9,2.8,4.8,3.5c0.6,0.2,1.2,0.5,1.7,0.8c4.1,2.1,9.1,0.3,13.7,0.7"/>
		</g>
		<g>
			<path class="st3" d="M332.7,273.7c-1.6-0.4-3.3-1-4.2-2.3c-2.3-3.5,2.4-4,4.5-3.8c0.6,0.1,1.2,0.1,1.8,0.3
				c0.9,0.2,1.7,0.7,2.5,1.1c1.4,0.8,2.8,1.6,3.8,2.8c1.8,2,2,4.1-0.7,4.2C338.1,276,334.9,274.4,332.7,273.7z"/>
		</g>
		<g>
			<path class="st3" d="M347.8,301.5c-1.2,1.8,0,4.4,1.9,5.3c1.9,0.9,4.2,0.4,6.1-0.6c1.8-1,3.4-2.5,5-3.9s3.5-2.5,5.6-2.8
				c0.2,1.3-0.8,2.5-1.8,3.3c-2.6,2.2-6,3.6-9.4,3.9"/>
		</g>
		<g>
			<path class="st3" d="M295.6,436c0,1.4,0,2.8,0,4.2c-5-4.7-10.1-9.6-13.1-15.8c-1.2-2.5-2-5.2-2.8-7.9c-2.6-8.8-4.6-17.8-6.2-26.9
				c-0.4-2.4-0.7-5.1,0.4-7.1c8.5,4.9,17.1,9.8,25.6,14.7C297,409.9,295.7,422.9,295.6,436z"/>
		</g>
		<g>
			<path class="st3" d="M377.3,342.4c10.2,15.1,21.7,29.3,34.2,42.6c1.8,1.9,3.8,4.3,3.2,6.8c-0.6,2.9-4.4,4.2-7.2,3.1
				c-2.4-1-4-3.2-5.5-5.3c-3.1-4.5-6.2-8.9-9.3-13.4c-5.5-7.9-11-15.8-16.4-23.7c-1-1.5-2-3-2.3-4.8c-0.2-1.8,0.5-3.8,2.2-4.4"/>
		</g>
		<g>
			<path class="st3" d="M188.9,181.5c-7.7,13.3-13.3,28.3-12.4,43.7c0.2,3.1,0.6,6.2,1.1,9.3c0.8,5.6,1.6,11.1,2.4,16.7
				c-2.4,0.4-4.5-1.5-6.1-3.3c-12.7-14.3-19.6-33.6-18.8-52.7"/>
		</g>
	</g>
	<g>
		<path class="st3" d="M408.3,394.6c0.7,0.2,1.3,0.3,2,0.2c1.6-0.2,3.1-1.2,3.9-2.6c0.2-0.3,0.3-0.6,0.3-1c0-0.3-0.1-0.6-0.1-0.8
			c-0.4-1.3-0.8-2.7-2.1-3.3c-2.2,1.7-4.3,3.6-6.3,5.6c-0.1,0.1-0.2,0.2-0.1,0.3c0,0.1,0.1,0.1,0.1,0.2
			C406.5,393.8,407.4,394.3,408.3,394.6z"/>
	</g>
	<g>
		<path class="st3" d="M264,270.7c0-0.1,0-0.2,0-0.3c-1.4,14.6-1.5,29.3-0.4,43.9c0.4,5.1,1,10.4,4.2,14.5c-2.7-2.6-3.4-6.2-4-9.7
			C261.3,303.1,261.3,286.7,264,270.7z"/>
	</g>
</g>
<g>
	<g class="st4">
		<g>
			<g class="st5">
				<path class="st6" d="M395.5,211.3c-10.8-0.8-21.7-4.7-32.1-1.7c-2.6,3.8,4.9,12.7,7.4,17c0.9,1.6,1.8,3.3,2,5.1
					c1.5-0.1,2.9-0.9,3.6-2.3c2.3-1,4.7-2,7-3.1c9.1-4,18.3-8,27-12.9c-0.3-0.7-1.2-0.9-2-1C404.1,212,399.8,211.6,395.5,211.3z"/>
			</g>
			<g>
				<path class="st6" d="M372.3,253.7c-1.9-4.4-3.9-8.8-5.8-13.2c-0.4,10.7,0.8,21.4,3.6,31.7c-5.1-4.1-7.7-10.7-9.3-17.1
					c-3.3-12.8-3.6-26.3-0.9-39.2c0.2-0.9,0.4-1.9,1-2.5c0.8-0.9,2-1,3.2-0.7c6.9,10.6,14.2,21.3,18,33.4
					c4.4,14.1,3.6,29.4,7.4,43.7c-1.7-1.1-2.6-3.1-3.4-5C381.4,274.4,376.8,264.1,372.3,253.7z"/>
			</g>
			<g>
				<path class="st6" d="M146.3,348c-2,1-2.7,3.7-2.2,6c0.5,2.2,2,4.1,3.5,5.8c18.4,22.3,36.8,44.7,56.7,65.8
					c10.1-20.9,20.4-42.2,36.8-58.6c2.6-2.6,5.5-5.1,9.1-5.7c5.4-0.9,10.3,2.8,14.6,6.2c12.9,10.1,26.4,19.2,40.6,27.3
					c4.4,2.5,9,5,14,5.4c7.2,0.7,14.1-2.9,19.8-7.3c17.8-13.6,27.4-35.1,36.3-55.7l-22.9,4.9c10.1-3.8,20.5-6.8,31-9.3
					c-4.4-5.1-8.9-10.2-11.7-16.3c-2.8-6.1-3.8-13.4-1-19.5c1.2-2.7,3.2-5.1,3.5-8.2c0.1-1.4-0.2-2.8-1.1-3.9
					c-1.9-2.3-4.8-1.6-7.3-2c-7-1.1-9.4-10-9-17c0.3-4.5,1-9,2.3-13.3c1.5-5,1.5-10.3,0.7-15.5c-0.9-6.1-0.8-17.2-0.4-26.2
					c-9.8,2.6-33.8,10.7-43,14.9c-34.7,16-69.4,32.1-104.1,48.1c-6,2.8-12,5.5-18,8.3c-11.7,5.4-23.4,10.8-35.2,16.2
					c-1.3,0.6-2.6,1.2-3.5,2.4c-0.8,1-1.1,2.4-1.4,3.7c-3.3,15.6-6.6,31.1-9.8,46.7"/>
			</g>
			<g>
				<path class="st6" d="M312.9,252.6c3,0,6.1-0.1,9.1-0.1c1.3,0,2.7,0,4,0.1c2.9,0.3,5.6,1.5,8.3,2.6c2.6,1.1,5.3,2.2,7.9,3.3
					c0.5,0.2,1.1,0.4,1.6,0.3c0.4-0.1,0.7-0.5,1-0.8c2.8-3,5.6-6,8.4-9c-3.4,6.4-6.9,12.8-10.3,19.2c-1.8-1.9-3.6-3.8-5.9-5.3
					c-7.3-4.7-16.9-2.9-25.2-5.4c-0.6-0.2-1.2-0.4-1.4-1c-0.2-0.6,0.3-1.3,0.7-1.8c1.2-1.3,2.9-2.8,4.6-2.1"/>
			</g>
			<g id="hr_2_">
				<path class="st6" d="M159.2,330.3c0.8-1.4,1.7-2.8,2.6-4.1c-6.3,11.7-3.2,27.6,7,36c0.5-12.4,2.7-24.7,6.4-36.5
					c1.7-5.3,3.7-11.1,1.5-16.3c-3.1,11,3.9,22.4,12.5,29.9s19.1,12.8,26.9,21c-7.5-15.6-13.1-32-16.9-48.9
					c1.3,5.9,6.1,11,11.9,12.6c5.9,1.6,12.6-0.4,16.6-4.9c-9.7,0.2-18.2-10-16.3-19.6c-5.2-1.6-12.6-6.9-9.7-11.5
					c2.6-4.1,4.9-5.1,9.3-7c8.4-3.7,17.6-9.7,26-13.4c-9,16.9-4.6,37.4,0,55.9c5.4,21.8,10.7,43.5,16.1,65.3
					c2.7,11,5.7,22.5,13.4,30.7c-1.7-20.5-3.3-41.2-1.2-61.7c1-9.8,2.8-19.5,3.2-29.3c0.2-5.3,0-10.7-0.1-16
					c-0.2-21.3,5.2-40,8.1-61.5c-5.9,24.6-8.8,48.1-9.6,73.4c20.1-32.1,40.3-64.3,60.4-96.4c-7.5,20.6-13.5,41.7-18.2,63.1
					c12.7-17.2,24-35.4,33.8-54.4c7-9.4,15.3-20.7,25.7-26c-9.2-32.8,2.1-6.1-15.4-35.4c-6.6-11-13.3-22.2-22.7-30.9
					c-23-21.3-57-24.1-88.2-25.7c7-7.5,17.6-9.9,27.6-12.1c7.1-1.5,14.2-3,21.3-4.6c-33.8-0.7-67.7,4.9-99.5,16.3
					c3.2-9.9,3.9-20.5,2.2-30.8c-10,13.7-21.1,26.5-33.2,38.4c0.4-16.4-1-32.8-4-48.9c-7,7.4-9.9,17.8-10.1,28
					c-0.2,10.1,2.2,20.1,4.6,30c-8.6-11-25.6-11.3-38.4-5.7c-12.8,5.6-23,15.6-34.9,23c20.3,8.8,43,11.9,64.9,9.1
					c-14.8,10.5-24.9,26.8-30,44.2s-5.5,35.9-3.8,53.9c8.8-18.1,19.2-35.5,31.2-51.8c-0.4,7.7-0.4,15.5-0.4,23.2c0,2.7,0,5.4,0,8.1
					c-0.1,11.3-0.1,22.7-0.2,34c-0.1,10.4,0.7,22.4,9.1,28.5c1.5,1.1,3.3,2.1,4,3.8c0.8,2.2-0.7,4.5-2.1,6.4
					c-2.6,3.6-5.3,7.2-7.9,10.8c-1.2,1.6-2.4,3.3-2.6,5.3c-0.1,1.4,0.3,2.8,0.7,4.1c2.6,8.3,5.8,16.4,9.7,24.2
					C151.6,347.3,154.6,338.3,159.2,330.3z"/>
			</g>
			<g>
				<path class="st6" d="M392.4,211.3c-0.7,0-1.4,0-2.2-0.1c-18-0.4-36.4,0.7-53.2,7.1c-15.5,5.9-29.1,16.1-44.3,22.8
					c-8.3,3.7-17,6.3-25.4,9.5c-28.8,11.1-54.3,29.4-83.1,40.3c-21,8-43.5,11.9-66,11.5c11.6-25.6,17.4-53.8,16.8-81.9
					c20.5-9.8,41-19.7,61.5-29.5c32.1-15.4,64.2-30.8,97.9-42.3c10.2-3.5,20.7-6.7,31.6-7c9.1-0.3,18.8,1.2,26.8-3.2
					c1-0.5,2-1.2,3-1c2.2,0.4,2.5,3.2,2.6,5.4c0.6,7.4,5.4,13.8,10,19.6c1.6,2,3.2,4,4.8,6.1c3.3,4.1,6.5,8.3,10.2,12.1
					c11.4,11.8,23.5,23,38,30.8C411.4,215.2,403,211.6,392.4,211.3z"/>
			</g>
			<g>
				<path class="st6" d="M229.3,271.4c-8.9,3.7-17.4,8.4-25.4,13.9c-1.5,1.1-2.8,2.5-3.6,4.2c-1.4,3.1-0.2,5.3,1.2,7.3
					c1.2,1.7,2.9,2.8,4.8,3.5c0.6,0.2,1.2,0.5,1.7,0.8c4.1,2.1,9.1,0.3,13.7,0.7"/>
			</g>
			<g>
				<path class="st6" d="M333.2,267.3c-1.6-0.4-3.3-1-4.2-2.3c-2.3-3.5,2.4-4,4.5-3.8c0.6,0.1,1.2,0.1,1.8,0.3
					c0.9,0.2,1.7,0.7,2.5,1.1c1.4,0.8,2.8,1.6,3.8,2.8c1.8,2,2,4.1-0.7,4.2C338.6,269.5,335.4,267.9,333.2,267.3z"/>
			</g>
			<g>
				<path class="st6" d="M361.9,295.4c1.5-1.1,3.1-2,4.9-2.2c0.2,1.3-0.8,2.5-1.8,3.3c-4.3,3.6-10.5,5-15.9,3.1
					c0.3,0.3,0.7,0.6,1.1,0.7c1.9,0.9,4.2,0.4,6.1-0.6c1.8-1,3.4-2.5,5-3.9C361.4,295.7,361.6,295.5,361.9,295.4z"/>
			</g>
			<g>
				<path class="st6" d="M296.1,429.5c0,1.4,0,2.8,0,4.2c-5-4.7-10.1-9.6-13.1-15.8c-1.2-2.5-2-5.2-2.8-7.9
					c-2.6-8.8-4.6-17.8-6.2-26.9c-0.4-2.4-0.7-5.1,0.4-7.1c8.5,4.9,17.1,9.8,25.6,14.7C297.5,403.4,296.2,416.5,296.1,429.5z"/>
			</g>
			<g>
				<path class="st6" d="M377.8,336c10.2,15.1,21.7,29.3,34.2,42.6c1.8,1.9,3.8,4.3,3.2,6.8c-0.6,2.9-4.4,4.2-7.2,3.1
					c-2.4-1-4-3.2-5.5-5.3c-3.1-4.5-6.2-8.9-9.3-13.4c-5.5-7.9-11-15.8-16.4-23.7c-1-1.5-2-3-2.3-4.8c-0.2-1.8,0.5-3.8,2.2-4.4"/>
			</g>
			<g>
				<path class="st6" d="M189.4,175.1c-7.7,13.3-13.3,28.3-12.4,43.7c0.2,3.1,0.6,6.2,1.1,9.3c0.8,5.6,1.6,11.1,2.4,16.7
					c-2.4,0.4-4.5-1.5-6.1-3.3c-12.7-14.3-19.6-33.6-18.8-52.7"/>
			</g>
		</g>
		<g>
			<path class="st6" d="M408.8,388.2c0.7,0.2,1.3,0.3,2,0.2c1.6-0.2,3.1-1.2,3.9-2.6c0.2-0.3,0.3-0.6,0.3-1c0-0.3-0.1-0.6-0.1-0.8
				c-0.4-1.3-0.8-2.7-2.1-3.3c-2.2,1.7-4.3,3.6-6.3,5.6c-0.1,0.1-0.2,0.2-0.1,0.3c0,0.1,0.1,0.1,0.1,0.2
				C407,387.4,407.9,387.9,408.8,388.2z"/>
		</g>
		<g>
			<path class="st6" d="M264.5,264.2c0-0.1,0-0.2,0-0.3c-1.4,14.6-1.5,29.3-0.4,43.9c0.4,5.1,1,10.4,4.2,14.5
				c-2.7-2.6-3.4-6.2-4-9.7C261.7,296.6,261.8,280.2,264.5,264.2z"/>
		</g>
	</g>
</g>
<g>
	<g class="st7">
		<g>
			<g class="st5">
				<path class="st8" d="M395,201.9c-10.8-0.8-21.7-4.7-32.1-1.7c-2.6,3.8,4.9,12.7,7.4,17c0.9,1.6,1.8,3.3,2,5.1
					c1.5-0.1,2.9-0.9,3.6-2.3c2.3-1,4.7-2,7-3.1c9.1-4,18.3-8,27-12.9c-0.3-0.7-1.2-0.9-2-1C403.6,202.6,399.3,202.2,395,201.9z"/>
			</g>
			<g>
				<path class="st9" d="M371.8,244.3c-1.9-4.4-3.9-8.8-5.8-13.2c-0.4,10.7,0.8,21.4,3.6,31.7c-5.1-4.1-7.7-10.7-9.3-17.1
					c-3.3-12.8-3.6-26.3-0.9-39.2c0.2-0.9,0.4-1.9,1-2.5c0.8-0.9,2-1,3.2-0.7c6.9,10.6,14.2,21.3,18,33.4
					c4.4,14.1,3.6,29.4,7.4,43.7c-1.7-1.1-2.6-3.1-3.4-5C380.9,265.1,376.4,254.7,371.8,244.3z"/>
			</g>
			<g>
				<path class="st10" d="M145.8,338.7c-2,1-2.7,3.7-2.2,6c0.5,2.2,2,4.1,3.5,5.8c18.4,22.3,36.8,44.7,56.7,65.8
					c10.1-20.9,20.4-42.2,36.8-58.6c2.6-2.6,5.5-5.1,9.1-5.7c5.4-0.9,10.3,2.8,14.6,6.2c12.9,10.1,26.4,19.2,40.6,27.3
					c4.4,2.5,9,5,14,5.4c7.2,0.7,14.1-2.9,19.8-7.3c17.8-13.6,27.4-35.1,36.3-55.7l-22.9,4.9c10.1-3.8,20.5-6.8,31-9.3
					c-4.4-5.1-8.9-10.2-11.7-16.3c-2.8-6.1-3.8-13.4-1-19.5c1.2-2.7,3.2-5.1,3.5-8.2c0.1-1.4-0.2-2.8-1.1-3.9
					c-1.9-2.3-4.8-1.6-7.3-1.9c-7-1.1-9.4-10-9-17c0.3-4.5,1-9,2.3-13.3c1.5-5,1.5-10.3,0.7-15.5c-0.9-6.1-0.8-17.2-0.4-26.2
					c-9.8,2.6-33.8,10.7-43,14.9c-34.7,16-69.4,32.1-104.1,48.1c-6,2.8-12,5.5-18,8.3c-11.7,5.4-23.4,10.8-35.2,16.2
					c-1.3,0.6-2.6,1.2-3.5,2.4c-0.8,1-1.1,2.4-1.4,3.7c-3.3,15.6-6.6,31.1-9.8,46.7"/>
			</g>
			<g>
				<path d="M312.4,243.2c3,0,6.1-0.1,9.1-0.1c1.3,0,2.7,0,4,0.1c2.9,0.3,5.6,1.5,8.3,2.6c2.6,1.1,5.3,2.2,7.9,3.3
					c0.5,0.2,1.1,0.4,1.6,0.3c0.4-0.1,0.7-0.5,1-0.8c2.8-3,5.6-6,8.4-9c-3.4,6.4-6.9,12.8-10.3,19.2c-1.8-1.9-3.6-3.8-5.9-5.3
					c-7.3-4.7-16.9-2.9-25.2-5.4c-0.6-0.2-1.2-0.4-1.4-1c-0.2-0.6,0.3-1.3,0.7-1.8c1.2-1.3,2.9-2.8,4.6-2.1"/>
			</g>
			<g id="hr_3_">
				<path class="st9" d="M158.7,320.9c0.8-1.4,1.7-2.8,2.6-4.1c-6.3,11.7-3.2,27.6,7,36c0.5-12.4,2.7-24.7,6.4-36.5
					c1.7-5.3,3.7-11.1,1.5-16.3c-3.1,11,3.9,22.4,12.5,29.9s19.1,12.8,26.9,21c-7.5-15.6-13.1-32-16.9-48.9
					c1.3,5.9,6.1,11,11.9,12.6c5.9,1.6,12.6-0.4,16.6-4.9c-9.7,0.2-18.2-10-16.3-19.6c-5.2-1.6-12.6-6.9-9.7-11.5
					c2.6-4.1,4.9-5.1,9.3-7c8.4-3.7,17.6-9.7,26-13.4c-9,16.9-4.6,37.4,0,55.9c5.4,21.8,10.7,43.5,16.1,65.3
					c2.7,11,5.7,22.5,13.4,30.7c-1.7-20.5-3.3-41.2-1.2-61.7c1-9.8,2.8-19.5,3.2-29.3c0.2-5.3,0-10.7-0.1-16
					c-0.2-21.3,5.2-40,8.1-61.5c-5.9,24.6-8.8,48.1-9.6,73.4c20.1-32.1,40.3-64.3,60.4-96.4c-7.5,20.6-13.5,41.7-18.2,63.1
					c12.7-17.2,24-35.4,33.8-54.4c7-9.4,15.3-20.7,25.7-26c-9.2-32.8,2.1-6.1-15.4-35.4c-6.6-11-13.3-22.2-22.7-30.9
					c-23-21.3-57-24.1-88.2-25.7c7-7.5,17.6-9.9,27.6-12.1c7.1-1.5,14.2-3,21.3-4.6c-33.8-0.7-67.7,4.9-99.5,16.3
					c3.2-9.9,3.9-20.5,2.2-30.8c-10,13.7-21.1,26.5-33.2,38.4c0.4-16.4-1-32.8-4-48.9c-7,7.4-9.9,17.8-10.1,28
					c-0.2,10.1,2.2,20.1,4.6,30c-8.6-11-25.6-11.3-38.4-5.7c-12.8,5.6-23,15.6-34.9,23c20.3,8.8,43,11.9,64.9,9.1
					c-14.8,10.5-24.9,26.8-30,44.2s-5.5,35.9-3.8,53.9c8.8-18.1,19.2-35.5,31.2-51.8c-0.4,7.7-0.4,15.5-0.4,23.2c0,2.7,0,5.4,0,8.1
					c-0.1,11.3-0.1,22.7-0.2,34c-0.1,10.4,0.7,22.4,9.1,28.5c1.5,1.1,3.3,2.1,4,3.8c0.8,2.2-0.7,4.5-2.1,6.4
					c-2.6,3.6-5.3,7.2-7.9,10.8c-1.2,1.6-2.4,3.3-2.6,5.3c-0.1,1.4,0.3,2.8,0.7,4.1c2.6,8.3,5.8,16.4,9.7,24.2
					C151.2,337.9,154.1,328.9,158.7,320.9z"/>
			</g>
			<g>
				<path class="st11" d="M391.9,202c-0.7,0-1.4,0-2.2-0.1c-18-0.4-36.4,0.7-53.2,7.1c-15.5,5.9-29.1,16.1-44.3,22.8
					c-8.3,3.7-17,6.3-25.4,9.5c-28.8,11.1-54.3,29.4-83.1,40.3c-21,8-43.5,11.9-66,11.5c11.6-25.6,17.4-53.8,16.8-81.9
					c20.5-9.8,41-19.7,61.5-29.5c32.1-15.4,64.2-30.8,97.9-42.3c10.2-3.5,20.7-6.7,31.6-7c9.1-0.3,18.8,1.2,26.8-3.2
					c1-0.5,2-1.2,3-1c2.2,0.4,2.5,3.2,2.6,5.4c0.6,7.4,5.4,13.8,10,19.6c1.6,2,3.2,4,4.8,6.1c3.3,4.1,6.5,8.3,10.2,12.1
					c11.4,11.8,23.5,23,38,30.8C410.9,205.8,402.6,202.3,391.9,202z"/>
			</g>
			<g>
				<path class="st12" d="M228.8,262c-8.9,3.7-17.4,8.4-25.4,13.9c-1.5,1.1-2.8,2.5-3.6,4.2c-1.4,3.1-0.2,5.3,1.2,7.3
					c1.2,1.7,2.9,2.8,4.8,3.5c0.6,0.2,1.2,0.5,1.7,0.8c4.1,2.1,9.1,0.3,13.7,0.7"/>
			</g>
			<g>
				<path class="st0" d="M332.7,257.9c-1.6-0.4-3.3-1-4.2-2.3c-2.3-3.5,2.4-4,4.5-3.8c0.6,0.1,1.2,0.1,1.8,0.3
					c0.9,0.2,1.7,0.7,2.5,1.1c1.4,0.8,2.8,1.6,3.8,2.8c1.8,2,2,4.1-0.7,4.2C338.1,260.1,334.9,258.5,332.7,257.9z"/>
			</g>
			<g>
				<path d="M361.4,286c1.5-1.1,3.1-2,4.9-2.2c0.2,1.3-0.8,2.5-1.8,3.3c-4.3,3.6-10.5,5-15.9,3.1c0.3,0.3,0.7,0.6,1.1,0.7
					c1.9,0.9,4.2,0.4,6.1-0.6c1.8-1,3.4-2.5,5-3.9C360.9,286.4,361.1,286.2,361.4,286z"/>
			</g>
			<g>
				<path class="st9" d="M295.6,420.1c0,1.4,0,2.8,0,4.2c-5-4.7-10.1-9.6-13.1-15.8c-1.2-2.5-2-5.2-2.8-7.9
					c-2.6-8.8-4.6-17.8-6.2-26.9c-0.4-2.4-0.7-5.1,0.4-7.1c8.5,4.9,17.1,9.8,25.6,14.7C297,394.1,295.7,407.1,295.6,420.1z"/>
			</g>
			<g>
				<path class="st11" d="M377.3,326.6c10.2,15.1,21.7,29.3,34.2,42.6c1.8,1.9,3.8,4.3,3.2,6.8c-0.6,2.9-4.4,4.2-7.2,3.1
					c-2.4-1-4-3.2-5.5-5.3c-3.1-4.5-6.2-8.9-9.3-13.4c-5.5-7.9-11-15.8-16.4-23.7c-1-1.5-2-3-2.3-4.8c-0.2-1.8,0.5-3.8,2.2-4.4"/>
			</g>
			<g>
				<path class="st9" d="M188.9,165.7c-7.7,13.3-13.3,28.3-12.4,43.7c0.2,3.1,0.6,6.2,1.1,9.3c0.8,5.6,1.6,11.1,2.4,16.7
					c-2.4,0.4-4.5-1.5-6.1-3.3c-12.7-14.3-19.6-33.6-18.8-52.7"/>
			</g>
		</g>
		<g>
			<path class="st3" d="M408.3,378.8c0.7,0.2,1.3,0.3,2,0.2c1.6-0.2,3.1-1.2,3.9-2.6c0.2-0.3,0.3-0.6,0.3-1c0-0.3-0.1-0.6-0.1-0.8
				c-0.4-1.3-0.8-2.7-2.1-3.3c-2.2,1.7-4.3,3.6-6.3,5.6c-0.1,0.1-0.2,0.2-0.1,0.3c0,0.1,0.1,0.1,0.1,0.2
				C406.5,378,407.4,378.5,408.3,378.8z"/>
		</g>
		<g>
			<path class="st13" d="M264,254.9c0-0.1,0-0.2,0-0.3c-1.4,14.6-1.5,29.3-0.4,43.9c0.4,5.1,1,10.4,4.2,14.5c-2.7-2.6-3.4-6.2-4-9.7
				C261.3,287.3,261.3,270.8,264,254.9z"/>
		</g>
	</g>
	
		<image style="overflow:visible;opacity:0.47;" width="800" height="600" xlink:href="../p.png"  transform="matrix(8.887270e-02 -2.762701e-02 2.762701e-02 8.887270e-02 185 195.1016)">
	</image>
</g>
</svg>
