<?xml version="1.0" encoding="utf-8"?>
<!-- Generator: Adobe Illustrator 24.0.2, SVG Export Plug-In . SVG Version: 6.00 Build 0)  -->
<svg version="1.1" id="Lager_1" xmlns="http://www.w3.org/2000/svg" xmlns:xlink="http://www.w3.org/1999/xlink" x="0px" y="0px"
	 width="500px" height="500px" viewBox="0 0 500 500" style="enable-background:new 0 0 500 500;" xml:space="preserve">
<style type="text/css">
	.st0{opacity:0.3;fill:#57AD80;}
	.st1{fill:#E06A53;}
	.st2{opacity:0.74;}
	.st3{opacity:0.45;}
	.st4{fill:#57AD80;}
	.st5{opacity:0.62;}
	.st6{fill:#010508;}
	.st7{fill:#295C77;}
	.st8{fill:#CCC6A6;}
	.st9{fill:#DFE5E5;}
	.st10{fill:#BCB59B;}
	.st11{fill:#FFFFFF;}
	.st12{fill:#2A576B;}
</style>
<circle class="st0" cx="249.5" cy="249.5" r="250.5"/>
<g>
	<g>
		<g>
			<path class="st1" d="M395,217.7c-10.8-0.8-21.7-4.7-32.1-1.7c-2.6,3.8,4.9,12.7,7.4,17c0.9,1.6,1.8,3.3,2,5.1
				c1.5-0.1,2.9-0.9,3.6-2.3c2.3-1,4.7-2,7-3.1c9.1-4,18.3-8,27-12.9c-0.3-0.7-1.2-0.9-2-1C403.6,218.5,399.3,218,395,217.7z"/>
		</g>
		<g>
			<path class="st1" d="M371.8,260.2c-1.9-4.4-3.9-8.8-5.8-13.2c-0.4,10.7,0.8,21.4,3.6,31.7c-5.1-4.1-7.7-10.7-9.3-17.1
				c-3.3-12.8-3.6-26.3-0.9-39.2c0.2-0.9,0.4-1.9,1-2.5c0.8-0.9,2-1,3.2-0.7c6.9,10.6,14.2,21.3,18,33.4c4.4,14.1,3.6,29.4,7.4,43.7
				c-1.7-1.1-2.6-3.1-3.4-5C380.9,280.9,376.4,270.5,371.8,260.2z"/>
		</g>
		<g>
			<path class="st1" d="M145.8,354.5c-2,1-2.7,3.7-2.2,6c0.5,2.2,2,4.1,3.5,5.8c18.4,22.3,36.8,44.7,56.7,65.8
				c10.1-20.9,20.4-42.2,36.8-58.6c2.6-2.6,5.5-5.1,9.1-5.7c5.4-0.9,10.3,2.8,14.6,6.2c12.9,10.1,26.4,19.2,40.6,27.3
				c4.4,2.5,9,5,14,5.4c7.2,0.7,14.1-2.9,19.8-7.3c17.8-13.6,27.4-35.1,36.3-55.7l-22.9,4.9c10.1-3.8,20.5-6.8,31-9.3
				c-4.4-5.1-8.9-10.2-11.7-16.3c-2.8-6.1-3.8-13.4-1-19.5c1.2-2.7,3.2-5.1,3.5-8.2c0.1-1.4-0.2-2.8-1.1-3.9c-1.9-2.3-4.8-1.6-7.3-2
				c-7-1.1-9.4-10-9-17c0.3-4.5,1-9,2.3-13.3c1.5-5,1.5-10.3,0.7-15.5c-0.9-6.1-0.8-17.2-0.4-26.2c-9.8,2.6-33.8,10.7-43,14.9
				c-34.7,16-69.4,32.1-104.1,48.1c-6,2.8-12,5.5-18,8.3c-11.7,5.4-23.4,10.8-35.2,16.2c-1.3,0.6-2.6,1.2-3.5,2.4
				c-0.8,1-1.1,2.4-1.4,3.7c-3.3,15.6-6.6,31.1-9.8,46.7"/>
		</g>
		<g>
			<path class="st1" d="M312.4,259c3,0,6.1-0.1,9.1-0.1c1.3,0,2.7,0,4,0.1c2.9,0.3,5.6,1.5,8.3,2.6c2.6,1.1,5.3,2.2,7.9,3.3
				c0.5,0.2,1.1,0.4,1.6,0.3c0.4-0.1,0.7-0.5,1-0.8c2.8-3,5.6-6,8.4-9c-3.4,6.4-6.9,12.8-10.3,19.2c-1.8-1.9-3.6-3.8-5.9-5.3
				c-7.3-4.7-16.9-2.9-25.2-5.4c-0.6-0.2-1.2-0.4-1.4-1c-0.2-0.6,0.3-1.3,0.7-1.8c1.2-1.3,2.9-2.8,4.6-2.1"/>
		</g>
		<g id="hår_1_">
			<path class="st1" d="M158.7,336.7c0.8-1.4,1.7-2.8,2.6-4.1c-6.3,11.7-3.2,27.6,7,36c0.5-12.4,2.7-24.7,6.4-36.5
				c1.7-5.3,3.7-11.1,1.5-16.3c-3.1,11,3.9,22.4,12.5,29.9s19.1,12.8,26.9,21c-7.5-15.6-13.1-32-16.9-48.9c1.3,5.9,6.1,11,11.9,12.6
				c5.9,1.6,12.6-0.4,16.6-4.9c-9.7,0.2-18.2-10-16.3-19.6c-5.2-1.6-12.6-6.9-9.7-11.5c2.6-4.1,4.9-5.1,9.3-7
				c8.4-3.7,17.6-9.7,26-13.4c-9,16.9-4.6,37.4,0,55.9c5.4,21.8,10.7,43.5,16.1,65.3c2.7,11,5.7,22.5,13.4,30.7
				c-1.7-20.5-3.3-41.2-1.2-61.7c1-9.8,2.8-19.5,3.2-29.3c0.2-5.3,0-10.7-0.1-16c-0.2-21.3,5.2-40,8.1-61.5
				c-5.9,24.6-8.8,48.1-9.6,73.4c20.1-32.1,40.3-64.3,60.4-96.4c-7.5,20.6-13.5,41.7-18.2,63.1c12.7-17.2,24-35.4,33.8-54.4
				c7-9.4,15.3-20.7,25.7-26c-9.2-32.8,2.1-6.1-15.4-35.4c-6.6-11-13.3-22.2-22.7-30.9c-23-21.3-57-24.1-88.2-25.7
				c7-7.5,17.6-9.9,27.6-12.1c7.1-1.5,14.2-3,21.3-4.6c-33.8-0.7-67.7,4.9-99.5,16.3c3.2-9.9,3.9-20.5,2.2-30.8
				c-10,13.7-21.1,26.5-33.2,38.4c0.4-16.4-1-32.8-4-48.9c-7,7.4-9.9,17.8-10.1,28c-0.2,10.1,2.2,20.1,4.6,30
				c-8.6-11-25.6-11.3-38.4-5.7s-23,15.6-34.9,23c20.3,8.8,43,11.9,64.9,9.1c-14.8,10.5-24.9,26.8-30,44.2s-5.5,35.9-3.8,53.9
				c8.8-18.1,19.2-35.5,31.2-51.8c-0.4,7.7-0.4,15.5-0.4,23.2c0,2.7,0,5.4,0,8.1c-0.1,11.3-0.1,22.7-0.2,34
				c-0.1,10.4,0.7,22.4,9.1,28.5c1.5,1.1,3.3,2.1,4,3.8c0.8,2.2-0.7,4.5-2.1,6.4c-2.6,3.6-5.3,7.2-7.9,10.8
				c-1.2,1.6-2.4,3.3-2.6,5.3c-0.1,1.4,0.3,2.8,0.7,4.1c2.6,8.3,5.8,16.4,9.7,24.2C151.2,353.7,154.1,344.7,158.7,336.7z"/>
		</g>
		<g>
			<path class="st1" d="M391.9,217.8c-0.7,0-1.4,0-2.2-0.1c-18-0.4-36.4,0.7-53.2,7.1c-15.5,5.9-29.1,16.1-44.3,22.8
				c-8.3,3.7-17,6.3-25.4,9.5c-28.8,11.1-54.3,29.4-83.1,40.3c-21,8-43.5,11.9-66,11.5c11.6-25.6,17.4-53.8,16.8-81.9
				c20.5-9.8,41-19.7,61.5-29.5c32.1-15.4,64.2-30.8,97.9-42.3c10.2-3.5,20.7-6.7,31.6-7c9.1-0.3,18.8,1.2,26.8-3.2c1-0.5,2-1.2,3-1
				c2.2,0.4,2.5,3.2,2.6,5.4c0.6,7.4,5.4,13.8,10,19.6c1.6,2,3.2,4,4.8,6.1c3.3,4.1,6.5,8.3,10.2,12.1c11.4,11.8,23.5,23,38,30.8
				C410.9,221.6,402.6,218.1,391.9,217.8z"/>
		</g>
		<g>
			<path class="st1" d="M228.8,277.8c-8.9,3.7-17.4,8.4-25.4,13.9c-1.5,1.1-2.8,2.5-3.6,4.2c-1.4,3.1-0.2,5.3,1.2,7.3
				c1.2,1.7,2.9,2.8,4.8,3.5c0.6,0.2,1.2,0.5,1.7,0.8c4.1,2.1,9.1,0.3,13.7,0.7"/>
		</g>
		<g>
			<path class="st1" d="M332.7,273.7c-1.6-0.4-3.3-1-4.2-2.3c-2.3-3.5,2.4-4,4.5-3.8c0.6,0.1,1.2,0.1,1.8,0.3
				c0.9,0.2,1.7,0.7,2.5,1.1c1.4,0.8,2.8,1.6,3.8,2.8c1.8,2,2,4.1-0.7,4.2C338.1,276,334.9,274.4,332.7,273.7z"/>
		</g>
		<g>
			<path class="st1" d="M347.8,301.5c-1.2,1.8,0,4.4,1.9,5.3c1.9,0.9,4.2,0.4,6.1-0.6c1.8-1,3.4-2.5,5-3.9s3.5-2.5,5.6-2.8
				c0.2,1.3-0.8,2.5-1.8,3.3c-2.6,2.2-6,3.6-9.4,3.9"/>
		</g>
		<g>
			<path class="st1" d="M295.6,436c0,1.4,0,2.8,0,4.2c-5-4.7-10.1-9.6-13.1-15.8c-1.2-2.5-2-5.2-2.8-7.9c-2.6-8.8-4.6-17.8-6.2-26.9
				c-0.4-2.4-0.7-5.1,0.4-7.1c8.5,4.9,17.1,9.8,25.6,14.7C297,409.9,295.7,422.9,295.6,436z"/>
		</g>
		<g>
			<path class="st1" d="M377.3,342.4c10.2,15.1,21.7,29.3,34.2,42.6c1.8,1.9,3.8,4.3,3.2,6.8c-0.6,2.9-4.4,4.2-7.2,3.1
				c-2.4-1-4-3.2-5.5-5.3c-3.1-4.5-6.2-8.9-9.3-13.4c-5.5-7.9-11-15.8-16.4-23.7c-1-1.5-2-3-2.3-4.8c-0.2-1.8,0.5-3.8,2.2-4.4"/>
		</g>
		<g>
			<path class="st1" d="M188.9,181.5c-7.7,13.3-13.3,28.3-12.4,43.7c0.2,3.1,0.6,6.2,1.1,9.3c0.8,5.6,1.6,11.1,2.4,16.7
				c-2.4,0.4-4.5-1.5-6.1-3.3c-12.7-14.3-19.6-33.6-18.8-52.7"/>
		</g>
	</g>
	<g>
		<path class="st1" d="M408.3,394.6c0.7,0.2,1.3,0.3,2,0.2c1.6-0.2,3.1-1.2,3.9-2.6c0.2-0.3,0.3-0.6,0.3-1c0-0.3-0.1-0.6-0.1-0.8
			c-0.4-1.3-0.8-2.7-2.1-3.3c-2.2,1.7-4.3,3.6-6.3,5.6c-0.1,0.1-0.2,0.2-0.1,0.3c0,0.1,0.1,0.1,0.1,0.2
			C406.5,393.8,407.4,394.3,408.3,394.6z"/>
	</g>
	<g>
		<path class="st1" d="M264,270.7c0-0.1,0-0.2,0-0.3c-1.4,14.6-1.5,29.3-0.4,43.9c0.4,5.1,1,10.4,4.2,14.5c-2.7-2.6-3.4-6.2-4-9.7
			C261.3,303.1,261.3,286.7,264,270.7z"/>
	</g>
</g>
<g>
	<g class="st2">
		<g>
			<g class="st3">
				<path class="st4" d="M395.5,211.3c-10.8-0.8-21.7-4.7-32.1-1.7c-2.6,3.8,4.9,12.7,7.4,17c0.9,1.6,1.8,3.3,2,5.1
					c1.5-0.1,2.9-0.9,3.6-2.3c2.3-1,4.7-2,7-3.1c9.1-4,18.3-8,27-12.9c-0.3-0.7-1.2-0.9-2-1C404.1,212,399.8,211.6,395.5,211.3z"/>
			</g>
			<g>
				<path class="st4" d="M372.3,253.7c-1.9-4.4-3.9-8.8-5.8-13.2c-0.4,10.7,0.8,21.4,3.6,31.7c-5.1-4.1-7.7-10.7-9.3-17.1
					c-3.3-12.8-3.6-26.3-0.9-39.2c0.2-0.9,0.4-1.9,1-2.5c0.8-0.9,2-1,3.2-0.7c6.9,10.6,14.2,21.3,18,33.4
					c4.4,14.1,3.6,29.4,7.4,43.7c-1.7-1.1-2.6-3.1-3.4-5C381.4,274.4,376.8,264.1,372.3,253.7z"/>
			</g>
			<g>
				<path class="st4" d="M146.3,348c-2,1-2.7,3.7-2.2,6c0.5,2.2,2,4.1,3.5,5.8c18.4,22.3,36.8,44.7,56.7,65.8
					c10.1-20.9,20.4-42.2,36.8-58.6c2.6-2.6,5.5-5.1,9.1-5.7c5.4-0.9,10.3,2.8,14.6,6.2c12.9,10.1,26.4,19.2,40.6,27.3
					c4.4,2.5,9,5,14,5.4c7.2,0.7,14.1-2.9,19.8-7.3c17.8-13.6,27.4-35.1,36.3-55.7l-22.9,4.9c10.1-3.8,20.5-6.8,31-9.3
					c-4.4-5.1-8.9-10.2-11.7-16.3c-2.8-6.1-3.8-13.4-1-19.5c1.2-2.7,3.2-5.1,3.5-8.2c0.1-1.4-0.2-2.8-1.1-3.9
					c-1.9-2.3-4.8-1.6-7.3-2c-7-1.1-9.4-10-9-17c0.3-4.5,1-9,2.3-13.3c1.5-5,1.5-10.3,0.7-15.5c-0.9-6.1-0.8-17.2-0.4-26.2
					c-9.8,2.6-33.8,10.7-43,14.9c-34.7,16-69.4,32.1-104.1,48.1c-6,2.8-12,5.5-18,8.3c-11.7,5.4-23.4,10.8-35.2,16.2
					c-1.3,0.6-2.6,1.2-3.5,2.4c-0.8,1-1.1,2.4-1.4,3.7c-3.3,15.6-6.6,31.1-9.8,46.7"/>
			</g>
			<g>
				<path class="st4" d="M312.9,252.6c3,0,6.1-0.1,9.1-0.1c1.3,0,2.7,0,4,0.1c2.9,0.3,5.6,1.5,8.3,2.6c2.6,1.1,5.3,2.2,7.9,3.3
					c0.5,0.2,1.1,0.4,1.6,0.3c0.4-0.1,0.7-0.5,1-0.8c2.8-3,5.6-6,8.4-9c-3.4,6.4-6.9,12.8-10.3,19.2c-1.8-1.9-3.6-3.8-5.9-5.3
					c-7.3-4.7-16.9-2.9-25.2-5.4c-0.6-0.2-1.2-0.4-1.4-1c-0.2-0.6,0.3-1.3,0.7-1.8c1.2-1.3,2.9-2.8,4.6-2.1"/>
			</g>
			<g id="hår_2_">
				<path class="st4" d="M159.2,330.3c0.8-1.4,1.7-2.8,2.6-4.1c-6.3,11.7-3.2,27.6,7,36c0.5-12.4,2.7-24.7,6.4-36.5
					c1.7-5.3,3.7-11.1,1.5-16.3c-3.1,11,3.9,22.4,12.5,29.9s19.1,12.8,26.9,21c-7.5-15.6-13.1-32-16.9-48.9
					c1.3,5.9,6.1,11,11.9,12.6c5.9,1.6,12.6-0.4,16.6-4.9c-9.7,0.2-18.2-10-16.3-19.6c-5.2-1.6-12.6-6.9-9.7-11.5
					c2.6-4.1,4.9-5.1,9.3-7c8.4-3.7,17.6-9.7,26-13.4c-9,16.9-4.6,37.4,0,55.9c5.4,21.8,10.7,43.5,16.1,65.3
					c2.7,11,5.7,22.5,13.4,30.7c-1.7-20.5-3.3-41.2-1.2-61.7c1-9.8,2.8-19.5,3.2-29.3c0.2-5.3,0-10.7-0.1-16
					c-0.2-21.3,5.2-40,8.1-61.5c-5.9,24.6-8.8,48.1-9.6,73.4c20.1-32.1,40.3-64.3,60.4-96.4c-7.5,20.6-13.5,41.7-18.2,63.1
					c12.7-17.2,24-35.4,33.8-54.4c7-9.4,15.3-20.7,25.7-26c-9.2-32.8,2.1-6.1-15.4-35.4c-6.6-11-13.3-22.2-22.7-30.9
					c-23-21.3-57-24.1-88.2-25.7c7-7.5,17.6-9.9,27.6-12.1c7.1-1.5,14.2-3,21.3-4.6c-33.8-0.7-67.7,4.9-99.5,16.3
					c3.2-9.9,3.9-20.5,2.2-30.8c-10,13.7-21.1,26.5-33.2,38.4c0.4-16.4-1-32.8-4-48.9c-7,7.4-9.9,17.8-10.1,28
					c-0.2,10.1,2.2,20.1,4.6,30c-8.6-11-25.6-11.3-38.4-5.7c-12.8,5.6-23,15.6-34.9,23c20.3,8.8,43,11.9,64.9,9.1
					c-14.8,10.5-24.9,26.8-30,44.2s-5.5,35.9-3.8,53.9c8.8-18.1,19.2-35.5,31.2-51.8c-0.4,7.7-0.4,15.5-0.4,23.2c0,2.7,0,5.4,0,8.1
					c-0.1,11.3-0.1,22.7-0.2,34c-0.1,10.4,0.7,22.4,9.1,28.5c1.5,1.1,3.3,2.1,4,3.8c0.8,2.2-0.7,4.5-2.1,6.4
					c-2.6,3.6-5.3,7.2-7.9,10.8c-1.2,1.6-2.4,3.3-2.6,5.3c-0.1,1.4,0.3,2.8,0.7,4.1c2.6,8.3,5.8,16.4,9.7,24.2
					C151.6,347.3,154.6,338.3,159.2,330.3z"/>
			</g>
			<g>
				<path class="st4" d="M392.4,211.3c-0.7,0-1.4,0-2.2-0.1c-18-0.4-36.4,0.7-53.2,7.1c-15.5,5.9-29.1,16.1-44.3,22.8
					c-8.3,3.7-17,6.3-25.4,9.5c-28.8,11.1-54.3,29.4-83.1,40.3c-21,8-43.5,11.9-66,11.5c11.6-25.6,17.4-53.8,16.8-81.9
					c20.5-9.8,41-19.7,61.5-29.5c32.1-15.4,64.2-30.8,97.9-42.3c10.2-3.5,20.7-6.7,31.6-7c9.1-0.3,18.8,1.2,26.8-3.2
					c1-0.5,2-1.2,3-1c2.2,0.4,2.5,3.2,2.6,5.4c0.6,7.4,5.4,13.8,10,19.6c1.6,2,3.2,4,4.8,6.1c3.3,4.1,6.5,8.3,10.2,12.1
					c11.4,11.8,23.5,23,38,30.8C411.4,215.2,403,211.6,392.4,211.3z"/>
			</g>
			<g>
				<path class="st4" d="M229.3,271.4c-8.9,3.7-17.4,8.4-25.4,13.9c-1.5,1.1-2.8,2.5-3.6,4.2c-1.4,3.1-0.2,5.3,1.2,7.3
					c1.2,1.7,2.9,2.8,4.8,3.5c0.6,0.2,1.2,0.5,1.7,0.8c4.1,2.1,9.1,0.3,13.7,0.7"/>
			</g>
			<g>
				<path class="st4" d="M333.2,267.3c-1.6-0.4-3.3-1-4.2-2.3c-2.3-3.5,2.4-4,4.5-3.8c0.6,0.1,1.2,0.1,1.8,0.3
					c0.9,0.2,1.7,0.7,2.5,1.1c1.4,0.8,2.8,1.6,3.8,2.8c1.8,2,2,4.1-0.7,4.2C338.6,269.5,335.4,267.9,333.2,267.3z"/>
			</g>
			<g>
				<path class="st4" d="M361.9,295.4c1.5-1.1,3.1-2,4.9-2.2c0.2,1.3-0.8,2.5-1.8,3.3c-4.3,3.6-10.5,5-15.9,3.1
					c0.3,0.3,0.7,0.6,1.1,0.7c1.9,0.9,4.2,0.4,6.1-0.6c1.8-1,3.4-2.5,5-3.9C361.4,295.7,361.6,295.5,361.9,295.4z"/>
			</g>
			<g>
				<path class="st4" d="M296.1,429.5c0,1.4,0,2.8,0,4.2c-5-4.7-10.1-9.6-13.1-15.8c-1.2-2.5-2-5.2-2.8-7.9
					c-2.6-8.8-4.6-17.8-6.2-26.9c-0.4-2.4-0.7-5.1,0.4-7.1c8.5,4.9,17.1,9.8,25.6,14.7C297.5,403.4,296.2,416.5,296.1,429.5z"/>
			</g>
			<g>
				<path class="st4" d="M377.8,336c10.2,15.1,21.7,29.3,34.2,42.6c1.8,1.9,3.8,4.3,3.2,6.8c-0.6,2.9-4.4,4.2-7.2,3.1
					c-2.4-1-4-3.2-5.5-5.3c-3.1-4.5-6.2-8.9-9.3-13.4c-5.5-7.9-11-15.8-16.4-23.7c-1-1.5-2-3-2.3-4.8c-0.2-1.8,0.5-3.8,2.2-4.4"/>
			</g>
			<g>
				<path class="st4" d="M189.4,175.1c-7.7,13.3-13.3,28.3-12.4,43.7c0.2,3.1,0.6,6.2,1.1,9.3c0.8,5.6,1.6,11.1,2.4,16.7
					c-2.4,0.4-4.5-1.5-6.1-3.3c-12.7-14.3-19.6-33.6-18.8-52.7"/>
			</g>
		</g>
		<g>
			<path class="st4" d="M408.8,388.2c0.7,0.2,1.3,0.3,2,0.2c1.6-0.2,3.1-1.2,3.9-2.6c0.2-0.3,0.3-0.6,0.3-1c0-0.3-0.1-0.6-0.1-0.8
				c-0.4-1.3-0.8-2.7-2.1-3.3c-2.2,1.7-4.3,3.6-6.3,5.6c-0.1,0.1-0.2,0.2-0.1,0.3c0,0.1,0.1,0.1,0.1,0.2
				C407,387.4,407.9,387.9,408.8,388.2z"/>
		</g>
		<g>
			<path class="st4" d="M264.5,264.2c0-0.1,0-0.2,0-0.3c-1.4,14.6-1.5,29.3-0.4,43.9c0.4,5.1,1,10.4,4.2,14.5
				c-2.7-2.6-3.4-6.2-4-9.7C261.7,296.6,261.8,280.2,264.5,264.2z"/>
		</g>
	</g>
</g>
<g>
	<g class="st5">
		<g>
			<g class="st3">
				<path class="st6" d="M395,201.9c-10.8-0.8-21.7-4.7-32.1-1.7c-2.6,3.8,4.9,12.7,7.4,17c0.9,1.6,1.8,3.3,2,5.1
					c1.5-0.1,2.9-0.9,3.6-2.3c2.3-1,4.7-2,7-3.1c9.1-4,18.3-8,27-12.9c-0.3-0.7-1.2-0.9-2-1C403.6,202.6,399.3,202.2,395,201.9z"/>
			</g>
			<g>
				<path class="st7" d="M371.8,244.3c-1.9-4.4-3.9-8.8-5.8-13.2c-0.4,10.7,0.8,21.4,3.6,31.7c-5.1-4.1-7.7-10.7-9.3-17.1
					c-3.3-12.8-3.6-26.3-0.9-39.2c0.2-0.9,0.4-1.9,1-2.5c0.8-0.9,2-1,3.2-0.7c6.9,10.6,14.2,21.3,18,33.4
					c4.4,14.1,3.6,29.4,7.4,43.7c-1.7-1.1-2.6-3.1-3.4-5C380.9,265.1,376.4,254.7,371.8,244.3z"/>
			</g>
			<g>
				<path class="st8" d="M145.8,338.7c-2,1-2.7,3.7-2.2,6c0.5,2.2,2,4.1,3.5,5.8c18.4,22.3,36.8,44.7,56.7,65.8
					c10.1-20.9,20.4-42.2,36.8-58.6c2.6-2.6,5.5-5.1,9.1-5.7c5.4-0.9,10.3,2.8,14.6,6.2c12.9,10.1,26.4,19.2,40.6,27.3
					c4.4,2.5,9,5,14,5.4c7.2,0.7,14.1-2.9,19.8-7.3c17.8-13.6,27.4-35.1,36.3-55.7l-22.9,4.9c10.1-3.8,20.5-6.8,31-9.3
					c-4.4-5.1-8.9-10.2-11.7-16.3c-2.8-6.1-3.8-13.4-1-19.5c1.2-2.7,3.2-5.1,3.5-8.2c0.1-1.4-0.2-2.8-1.1-3.9
					c-1.9-2.3-4.8-1.6-7.3-1.9c-7-1.1-9.4-10-9-17c0.3-4.5,1-9,2.3-13.3c1.5-5,1.5-10.3,0.7-15.5c-0.9-6.1-0.8-17.2-0.4-26.2
					c-9.8,2.6-33.8,10.7-43,14.9c-34.7,16-69.4,32.1-104.1,48.1c-6,2.8-12,5.5-18,8.3c-11.7,5.4-23.4,10.8-35.2,16.2
					c-1.3,0.6-2.6,1.2-3.5,2.4c-0.8,1-1.1,2.4-1.4,3.7c-3.3,15.6-6.6,31.1-9.8,46.7"/>
			</g>
			<g>
				<path d="M312.4,243.2c3,0,6.1-0.1,9.1-0.1c1.3,0,2.7,0,4,0.1c2.9,0.3,5.6,1.5,8.3,2.6c2.6,1.1,5.3,2.2,7.9,3.3
					c0.5,0.2,1.1,0.4,1.6,0.3c0.4-0.1,0.7-0.5,1-0.8c2.8-3,5.6-6,8.4-9c-3.4,6.4-6.9,12.8-10.3,19.2c-1.8-1.9-3.6-3.8-5.9-5.3
					c-7.3-4.7-16.9-2.9-25.2-5.4c-0.6-0.2-1.2-0.4-1.4-1c-0.2-0.6,0.3-1.3,0.7-1.8c1.2-1.3,2.9-2.8,4.6-2.1"/>
			</g>
			<g id="hår_3_">
				<path class="st7" d="M158.7,320.9c0.8-1.4,1.7-2.8,2.6-4.1c-6.3,11.7-3.2,27.6,7,36c0.5-12.4,2.7-24.7,6.4-36.5
					c1.7-5.3,3.7-11.1,1.5-16.3c-3.1,11,3.9,22.4,12.5,29.9s19.1,12.8,26.9,21c-7.5-15.6-13.1-32-16.9-48.9
					c1.3,5.9,6.1,11,11.9,12.6c5.9,1.6,12.6-0.4,16.6-4.9c-9.7,0.2-18.2-10-16.3-19.6c-5.2-1.6-12.6-6.9-9.7-11.5
					c2.6-4.1,4.9-5.1,9.3-7c8.4-3.7,17.6-9.7,26-13.4c-9,16.9-4.6,37.4,0,55.9c5.4,21.8,10.7,43.5,16.1,65.3
					c2.7,11,5.7,22.5,13.4,30.7c-1.7-20.5-3.3-41.2-1.2-61.7c1-9.8,2.8-19.5,3.2-29.3c0.2-5.3,0-10.7-0.1-16
					c-0.2-21.3,5.2-40,8.1-61.5c-5.9,24.6-8.8,48.1-9.6,73.4c20.1-32.1,40.3-64.3,60.4-96.4c-7.5,20.6-13.5,41.7-18.2,63.1
					c12.7-17.2,24-35.4,33.8-54.4c7-9.4,15.3-20.7,25.7-26c-9.2-32.8,2.1-6.1-15.4-35.4c-6.6-11-13.3-22.2-22.7-30.9
					c-23-21.3-57-24.1-88.2-25.7c7-7.5,17.6-9.9,27.6-12.1c7.1-1.5,14.2-3,21.3-4.6c-33.8-0.7-67.7,4.9-99.5,16.3
					c3.2-9.9,3.9-20.5,2.2-30.8c-10,13.7-21.1,26.5-33.2,38.4c0.4-16.4-1-32.8-4-48.9c-7,7.4-9.9,17.8-10.1,28
					c-0.2,10.1,2.2,20.1,4.6,30c-8.6-11-25.6-11.3-38.4-5.7c-12.8,5.6-23,15.6-34.9,23c20.3,8.8,43,11.9,64.9,9.1
					c-14.8,10.5-24.9,26.8-30,44.2s-5.5,35.9-3.8,53.9c8.8-18.1,19.2-35.5,31.2-51.8c-0.4,7.7-0.4,15.5-0.4,23.2c0,2.7,0,5.4,0,8.1
					c-0.1,11.3-0.1,22.7-0.2,34c-0.1,10.4,0.7,22.4,9.1,28.5c1.5,1.1,3.3,2.1,4,3.8c0.8,2.2-0.7,4.5-2.1,6.4
					c-2.6,3.6-5.3,7.2-7.9,10.8c-1.2,1.6-2.4,3.3-2.6,5.3c-0.1,1.4,0.3,2.8,0.7,4.1c2.6,8.3,5.8,16.4,9.7,24.2
					C151.2,337.9,154.1,328.9,158.7,320.9z"/>
			</g>
			<g>
				<path class="st9" d="M391.9,202c-0.7,0-1.4,0-2.2-0.1c-18-0.4-36.4,0.7-53.2,7.1c-15.5,5.9-29.1,16.1-44.3,22.8
					c-8.3,3.7-17,6.3-25.4,9.5c-28.8,11.1-54.3,29.4-83.1,40.3c-21,8-43.5,11.9-66,11.5c11.6-25.6,17.4-53.8,16.8-81.9
					c20.5-9.8,41-19.7,61.5-29.5c32.1-15.4,64.2-30.8,97.9-42.3c10.2-3.5,20.7-6.7,31.6-7c9.1-0.3,18.8,1.2,26.8-3.2
					c1-0.5,2-1.2,3-1c2.2,0.4,2.5,3.2,2.6,5.4c0.6,7.4,5.4,13.8,10,19.6c1.6,2,3.2,4,4.8,6.1c3.3,4.1,6.5,8.3,10.2,12.1
					c11.4,11.8,23.5,23,38,30.8C410.9,205.8,402.6,202.3,391.9,202z"/>
			</g>
			<g>
				<path class="st10" d="M228.8,262c-8.9,3.7-17.4,8.4-25.4,13.9c-1.5,1.1-2.8,2.5-3.6,4.2c-1.4,3.1-0.2,5.3,1.2,7.3
					c1.2,1.7,2.9,2.8,4.8,3.5c0.6,0.2,1.2,0.5,1.7,0.8c4.1,2.1,9.1,0.3,13.7,0.7"/>
			</g>
			<g>
				<path class="st11" d="M332.7,257.9c-1.6-0.4-3.3-1-4.2-2.3c-2.3-3.5,2.4-4,4.5-3.8c0.6,0.1,1.2,0.1,1.8,0.3
					c0.9,0.2,1.7,0.7,2.5,1.1c1.4,0.8,2.8,1.6,3.8,2.8c1.8,2,2,4.1-0.7,4.2C338.1,260.1,334.9,258.5,332.7,257.9z"/>
			</g>
			<g>
				<path d="M361.4,286c1.5-1.1,3.1-2,4.9-2.2c0.2,1.3-0.8,2.5-1.8,3.3c-4.3,3.6-10.5,5-15.9,3.1c0.3,0.3,0.7,0.6,1.1,0.7
					c1.9,0.9,4.2,0.4,6.1-0.6c1.8-1,3.4-2.5,5-3.9C360.9,286.4,361.1,286.2,361.4,286z"/>
			</g>
			<g>
				<path class="st7" d="M295.6,420.1c0,1.4,0,2.8,0,4.2c-5-4.7-10.1-9.6-13.1-15.8c-1.2-2.5-2-5.2-2.8-7.9
					c-2.6-8.8-4.6-17.8-6.2-26.9c-0.4-2.4-0.7-5.1,0.4-7.1c8.5,4.9,17.1,9.8,25.6,14.7C297,394.1,295.7,407.1,295.6,420.1z"/>
			</g>
			<g>
				<path class="st9" d="M377.3,326.6c10.2,15.1,21.7,29.3,34.2,42.6c1.8,1.9,3.8,4.3,3.2,6.8c-0.6,2.9-4.4,4.2-7.2,3.1
					c-2.4-1-4-3.2-5.5-5.3c-3.1-4.5-6.2-8.9-9.3-13.4c-5.5-7.9-11-15.8-16.4-23.7c-1-1.5-2-3-2.3-4.8c-0.2-1.8,0.5-3.8,2.2-4.4"/>
			</g>
			<g>
				<path class="st7" d="M188.9,165.7c-7.7,13.3-13.3,28.3-12.4,43.7c0.2,3.1,0.6,6.2,1.1,9.3c0.8,5.6,1.6,11.1,2.4,16.7
					c-2.4,0.4-4.5-1.5-6.1-3.3c-12.7-14.3-19.6-33.6-18.8-52.7"/>
			</g>
		</g>
		<g>
			<path class="st1" d="M408.3,378.8c0.7,0.2,1.3,0.3,2,0.2c1.6-0.2,3.1-1.2,3.9-2.6c0.2-0.3,0.3-0.6,0.3-1c0-0.3-0.1-0.6-0.1-0.8
				c-0.4-1.3-0.8-2.7-2.1-3.3c-2.2,1.7-4.3,3.6-6.3,5.6c-0.1,0.1-0.2,0.2-0.1,0.3c0,0.1,0.1,0.1,0.1,0.2
				C406.5,378,407.4,378.5,408.3,378.8z"/>
		</g>
		<g>
			<path class="st12" d="M264,254.9c0-0.1,0-0.2,0-0.3c-1.4,14.6-1.5,29.3-0.4,43.9c0.4,5.1,1,10.4,4.2,14.5c-2.7-2.6-3.4-6.2-4-9.7
				C261.3,287.3,261.3,270.8,264,254.9z"/>
		</g>
	</g>
	
		<image style="overflow:visible;opacity:0.47;" width="800" height="600" xlink:href="p.png"  transform="matrix(8.887270e-02 -2.762701e-02 2.762701e-02 8.887270e-02 185 195.1016)">
	</image>
</g>
</svg>
