<?xml version="1.0" encoding="utf-8"?>
<!-- Generator: Adobe Illustrator 25.0.1, SVG Export Plug-In . SVG Version: 6.00 Build 0)  -->
<svg version="1.1" id="Lager_1" xmlns="http://www.w3.org/2000/svg" xmlns:xlink="http://www.w3.org/1999/xlink" x="0px" y="0px"
	 viewBox="0 0 1920 1080" style="enable-background:new 0 0 1920 1080;" xml:space="preserve">
<style type="text/css">
	.st0{fill:#FFFFFF;}
	.st1{fill:#DDDDDD;}
	.st2{fill:#F2F3F4;}
</style>
<g>
	<rect y="-2" class="st0" width="1920" height="1080"/>
</g>
<g>
	<g>
		<image style="overflow:visible;" width="244" height="103" xlink:href="4E1BBB70.png"  transform="matrix(1 0 0 1 78 951)">
		</image>
	</g>
	<g>
		<rect x="100" y="904" class="st1" width="100" height="100"/>
	</g>
	<g>
		<rect x="200" y="904" class="st2" width="100" height="100"/>
	</g>
</g>
<g>
	<g>
		<image style="overflow:visible;" width="244" height="103" xlink:href="4E1BBB71.png"  transform="matrix(1 0 0 1 -22 851)">
		</image>
	</g>
	<g>
		<rect x="0" y="804" class="st1" width="100" height="100"/>
	</g>
	<g>
		<rect x="100" y="804" class="st2" width="100" height="100"/>
	</g>
</g>
<g>
	<g>
		<image style="overflow:visible;" width="244" height="103" xlink:href="4E1BBB72.png"  transform="matrix(1 0 0 1 278 851)">
		</image>
	</g>
	<g>
		<rect x="300" y="804" class="st1" width="100" height="100"/>
	</g>
	<g>
		<rect x="400" y="804" class="st2" width="100" height="100"/>
	</g>
</g>
<g>
	<g>
		<image style="overflow:visible;" width="244" height="103" xlink:href="4E1BBB73.png"  transform="matrix(1 0 0 1 78 750)">
		</image>
	</g>
	<g>
		<rect x="100" y="703.9" class="st1" width="100" height="100"/>
	</g>
	<g>
		<rect x="200" y="703.9" class="st2" width="100" height="100"/>
	</g>
</g>
<g>
	<g>
		<image style="overflow:visible;" width="244" height="103" xlink:href="4E1BBB74.png"  transform="matrix(1 0 0 1 378 750)">
		</image>
	</g>
	<g>
		<rect x="400" y="703.9" class="st1" width="100" height="100"/>
	</g>
	<g>
		<rect x="500" y="703.9" class="st2" width="100" height="100"/>
	</g>
</g>
<g>
	<g>
		<image style="overflow:visible;" width="244" height="103" xlink:href="4E1BBB75.png"  transform="matrix(1 0 0 1 -22 649)">
		</image>
	</g>
	<g>
		<rect y="602.8" class="st1" width="100" height="100"/>
	</g>
	<g>
		<rect x="100" y="602.8" class="st2" width="100" height="100"/>
	</g>
</g>
<g>
	<g>
		<image style="overflow:visible;" width="244" height="103" xlink:href="4E1BBB76.png"  transform="matrix(1 0 0 1 278 649)">
		</image>
	</g>
	<g>
		<rect x="300" y="602.8" class="st1" width="100" height="100"/>
	</g>
	<g>
		<rect x="400" y="602.8" class="st2" width="100" height="100"/>
	</g>
</g>
<g>
	<g>
		<image style="overflow:visible;" width="244" height="103" xlink:href="4E1BBB77.png"  transform="matrix(1 0 0 1 578 649)">
		</image>
	</g>
	<g>
		<rect x="600" y="602.8" class="st1" width="100" height="100"/>
	</g>
	<g>
		<rect x="700" y="602.8" class="st2" width="100" height="100"/>
	</g>
</g>
<g>
	<g>
		<image style="overflow:visible;" width="244" height="103" xlink:href="4E1BBB78.png"  transform="matrix(1 0 0 1 78 550)">
		</image>
	</g>
	<g>
		<rect x="99.9" y="503.7" class="st1" width="100" height="100"/>
	</g>
	<g>
		<rect x="199.9" y="503.7" class="st2" width="100" height="100"/>
	</g>
</g>
<g>
	<g>
		<image style="overflow:visible;" width="244" height="103" xlink:href="4A020EB0.png"  transform="matrix(1 0 0 1 378 550)">
		</image>
	</g>
	<g>
		<rect x="400" y="503.7" class="st1" width="100" height="100"/>
	</g>
	<g>
		<rect x="500" y="503.7" class="st2" width="100" height="100"/>
	</g>
</g>
<g>
	<g>
		<image style="overflow:visible;" width="244" height="103" xlink:href="4A020EB1.png"  transform="matrix(1 0 0 1 678 549)">
		</image>
	</g>
	<g>
		<rect x="700" y="502.2" class="st1" width="100" height="100"/>
	</g>
	<g>
		<rect x="800" y="502.2" class="st2" width="100" height="100"/>
	</g>
</g>
<g>
	<g>
		<image style="overflow:visible;" width="244" height="103" xlink:href="4A020EB2.png"  transform="matrix(1 0 0 1 -22 448)">
		</image>
	</g>
	<g>
		<rect x="-0.1" y="401.6" class="st1" width="100" height="100"/>
	</g>
	<g>
		<rect x="99.9" y="401.6" class="st2" width="100" height="100"/>
	</g>
</g>
<g>
	<g>
		<image style="overflow:visible;" width="244" height="103" xlink:href="4A020EB3.png"  transform="matrix(1 0 0 1 278 450)">
		</image>
	</g>
	<g>
		<rect x="299.9" y="403.6" class="st1" width="100" height="100"/>
	</g>
	<g>
		<rect x="399.9" y="403.6" class="st2" width="100" height="100"/>
	</g>
</g>
<g>
	<g>
		<image style="overflow:visible;" width="244" height="103" xlink:href="4A020EB4.png"  transform="matrix(1 0 0 1 578 449)">
		</image>
	</g>
	<g>
		<rect x="600" y="402.6" class="st1" width="100" height="100"/>
	</g>
	<g>
		<rect x="700" y="402.6" class="st2" width="100" height="100"/>
	</g>
</g>
<g>
	<g>
		<image style="overflow:visible;" width="244" height="103" xlink:href="4A020EB5.png"  transform="matrix(1 0 0 1 878 448)">
		</image>
	</g>
	<g>
		<rect x="900" y="401.6" class="st1" width="100" height="100"/>
	</g>
	<g>
		<rect x="1000" y="401.6" class="st2" width="100" height="100"/>
	</g>
</g>
<g>
	<g>
		<image style="overflow:visible;" width="244" height="103" xlink:href="4A020EBE.png"  transform="matrix(1 0 0 1 78 348)">
		</image>
	</g>
	<g>
		<rect x="100" y="301.5" class="st1" width="100" height="100"/>
	</g>
	<g>
		<rect x="200" y="301.5" class="st2" width="100" height="100"/>
	</g>
</g>
<g>
	<g>
		<image style="overflow:visible;" width="244" height="103" xlink:href="4A020EBF.png"  transform="matrix(1 0 0 1 378 350)">
		</image>
	</g>
	<g>
		<rect x="399.9" y="303" class="st1" width="100" height="100"/>
	</g>
	<g>
		<rect x="499.9" y="303" class="st2" width="100" height="100"/>
	</g>
</g>
<g>
	<g>
		<image style="overflow:visible;" width="244" height="103" xlink:href="4A020EBA.png"  transform="matrix(1 0 0 1 678 349)">
		</image>
	</g>
	<g>
		<rect x="700" y="302" class="st1" width="100" height="100"/>
	</g>
	<g>
		<rect x="800" y="302" class="st2" width="100" height="100"/>
	</g>
</g>
<g>
	<g>
		<image style="overflow:visible;" width="244" height="103" xlink:href="4A020EBB.png"  transform="matrix(1 0 0 1 978 349)">
		</image>
	</g>
	<g>
		<rect x="1000" y="302" class="st1" width="100" height="100"/>
	</g>
	<g>
		<rect x="1100" y="302" class="st2" width="100" height="100"/>
	</g>
</g>
<g>
	<g>
		<image style="overflow:visible;" width="244" height="103" xlink:href="4A020ED5.png"  transform="matrix(1 0 0 1 -22 247)">
		</image>
	</g>
	<g>
		<rect x="0" y="200.4" class="st1" width="100" height="100"/>
	</g>
	<g>
		<rect x="100" y="200.4" class="st2" width="100" height="100"/>
	</g>
</g>
<g>
	<g>
		<image style="overflow:visible;" width="244" height="103" xlink:href="4A020ED6.png"  transform="matrix(1 0 0 1 278 249)">
		</image>
	</g>
	<g>
		<rect x="299.9" y="202.4" class="st1" width="100" height="100"/>
	</g>
	<g>
		<rect x="399.9" y="202.4" class="st2" width="100" height="100"/>
	</g>
</g>
<g>
	<g>
		<image style="overflow:visible;" width="244" height="103" xlink:href="4A020ED7.png"  transform="matrix(1 0 0 1 578 248)">
		</image>
	</g>
	<g>
		<rect x="600" y="201.4" class="st1" width="100" height="100"/>
	</g>
	<g>
		<rect x="700" y="201.4" class="st2" width="100" height="100"/>
	</g>
</g>
<g>
	<g>
		<image style="overflow:visible;" width="244" height="103" xlink:href="4A020ED8.png"  transform="matrix(1 0 0 1 878 248)">
		</image>
	</g>
	<g>
		<rect x="900" y="201.4" class="st1" width="100" height="100"/>
	</g>
	<g>
		<rect x="1000" y="201.4" class="st2" width="100" height="100"/>
	</g>
</g>
<g>
	<g>
		<image style="overflow:visible;" width="244" height="103" xlink:href="4A020ED9.png"  transform="matrix(1 0 0 1 1178 248)">
		</image>
	</g>
	<g>
		<rect x="1200" y="201.4" class="st1" width="100" height="100"/>
	</g>
	<g>
		<rect x="1300" y="201.4" class="st2" width="100" height="100"/>
	</g>
</g>
<g>
	<g>
		<image style="overflow:visible;" width="244" height="103" xlink:href="4A020EDA.png"  transform="matrix(1 0 0 1 78 147)">
		</image>
	</g>
	<g>
		<rect x="100" y="100.3" class="st1" width="100" height="100"/>
	</g>
	<g>
		<rect x="200" y="100.3" class="st2" width="100" height="100"/>
	</g>
</g>
<g>
	<g>
		<image style="overflow:visible;" width="244" height="103" xlink:href="4A020EDF.png"  transform="matrix(1 0 0 1 378 149)">
		</image>
	</g>
	<g>
		<rect x="399.9" y="102.3" class="st1" width="100" height="100"/>
	</g>
	<g>
		<rect x="499.9" y="102.3" class="st2" width="100" height="100"/>
	</g>
</g>
<g>
	<g>
		<image style="overflow:visible;" width="244" height="103" xlink:href="4A020ED4.png"  transform="matrix(1 0 0 1 678 147)">
		</image>
	</g>
	<g>
		<rect x="700" y="100.4" class="st1" width="100" height="100"/>
	</g>
	<g>
		<rect x="800" y="100.4" class="st2" width="100" height="100"/>
	</g>
</g>
<g>
	<g>
		<image style="overflow:visible;" width="244" height="103" xlink:href="4A020ED1.png"  transform="matrix(1 0 0 1 978 147)">
		</image>
	</g>
	<g>
		<rect x="1000" y="100.4" class="st1" width="100" height="100"/>
	</g>
	<g>
		<rect x="1100" y="100.4" class="st2" width="100" height="100"/>
	</g>
</g>
<g>
	<g>
		<image style="overflow:visible;" width="244" height="103" xlink:href="4A020ED2.png"  transform="matrix(1 0 0 1 1278 148)">
		</image>
	</g>
	<g>
		<rect x="1300" y="101.4" class="st1" width="100" height="100"/>
	</g>
	<g>
		<rect x="1400" y="101.4" class="st2" width="100" height="100"/>
	</g>
</g>
<g>
	<g>
		<image style="overflow:visible;" width="244" height="103" xlink:href="4A020EE0.png"  transform="matrix(1 0 0 1 -22 46)">
		</image>
	</g>
	<g>
		<rect x="-0.1" y="-0.8" class="st1" width="100" height="100"/>
	</g>
	<g>
		<rect x="99.9" y="-0.8" class="st2" width="100" height="100"/>
	</g>
</g>
<g>
	<g>
		<image style="overflow:visible;" width="244" height="103" xlink:href="4A020EE1.png"  transform="matrix(1 0 0 1 278 47)">
		</image>
	</g>
	<g>
		<rect x="299.9" y="0.2" class="st1" width="100" height="100"/>
	</g>
	<g>
		<rect x="399.9" y="0.2" class="st2" width="100" height="100"/>
	</g>
</g>
<g>
	<g>
		<image style="overflow:visible;" width="244" height="103" xlink:href="4A020EFC.png"  transform="matrix(1 0 0 1 578 47)">
		</image>
	</g>
	<g>
		<rect x="600" y="0.2" class="st1" width="100" height="100"/>
	</g>
	<g>
		<rect x="700" y="0.2" class="st2" width="100" height="100"/>
	</g>
</g>
<g>
	<g>
		<image style="overflow:visible;" width="244" height="103" xlink:href="4A020EFD.png"  transform="matrix(1 0 0 1 878 47)">
		</image>
	</g>
	<g>
		<rect x="900" y="0.2" class="st1" width="100" height="100"/>
	</g>
	<g>
		<rect x="1000" y="0.2" class="st2" width="100" height="100"/>
	</g>
</g>
<g>
	<g>
		<image style="overflow:visible;" width="244" height="103" xlink:href="4A020EFE.png"  transform="matrix(1 0 0 1 1178 47)">
		</image>
	</g>
	<g>
		<rect x="1200" y="0.2" class="st1" width="100" height="100"/>
	</g>
	<g>
		<rect x="1300" y="0.2" class="st2" width="100" height="100"/>
	</g>
</g>
<g>
	<g>
		<image style="overflow:visible;" width="244" height="103" xlink:href="4A020EFF.png"  transform="matrix(1 0 0 1 1478 47)">
		</image>
	</g>
	<g>
		<rect x="1500" y="0.2" class="st1" width="100" height="100"/>
	</g>
	<g>
		<rect x="1600" y="0.2" class="st2" width="100" height="100"/>
	</g>
</g>
<g>
	<g>
		
			<image style="overflow:visible;" width="244" height="103" xlink:href="4A020EF3.png"  transform="matrix(1 0 0 1 -121.9438 1050.6194)">
		</image>
	</g>
	<g>
		<rect x="-100" y="1004" class="st1" width="100" height="100"/>
	</g>
	<g>
		<rect x="0" y="1004" class="st2" width="100" height="100"/>
	</g>
</g>
</svg>
