<?xml version="1.0" encoding="utf-8"?>
<!-- Generator: Adobe Illustrator 25.0.0, SVG Export Plug-In . SVG Version: 6.00 Build 0)  -->
<svg version="1.1" id="Lager_1" xmlns="http://www.w3.org/2000/svg" xmlns:xlink="http://www.w3.org/1999/xlink" x="0px" y="0px"
	 viewBox="0 0 1920 1080" style="enable-background:new 0 0 1920 1080;" xml:space="preserve">
<style type="text/css">
	.st0{fill:#D63D32;}
	.st1{fill:#1A1A1A;}
</style>
<g>
	<path class="st0" d="M24.8,100.5c-8.5,0.2,1.6,16.6,2.9,21c-10.3-3.8-9.2-20.4-24.7-27.1c-5.1-3.9-12.3-6.2-17.8-1.9
		c-7.3,5.3-8.5,20.1-18.4,21.3c-0.9,0.1-1.7-0.8-1.3-1.7c4.5-10.8,8.4-22.9,3.6-33.4c-1.8-2.6-2.2-5.3-2.2-8.2
		c0-1.6-0.6-3.2-1.7-4.4c-4.6-5-10.5-9.2-15.7-13.8c-1.3-1.2-1.9-3-1.6-4.7c3.6-22.7-11.7-22,10.7-37c1.1-0.7,0.9-2.4-0.4-2.9
		c-25.4-8.7-15.8-23.3-6.2-14.8c4.6,3.4,10.4,5.2,16.2,5c1.4,0,2.7-0.9,3.2-2.3c2.8-7.5,13.9-10.9,17.4-18.5c1.8-2,0.4-3.9-1.8-4.6
		c-4.7-2.5-3.6-9.5-5.8-14.3c-6.4-9.6-15.6-10.7-13-22.8c0.3-1.5,0.1-3.1-0.7-4.5c-6.4-11.5-13.9-22.8-16.2-36.2
		c-0.1-0.3,0.3-0.5,0.5-0.4c5.7,3.6,8,10.9,10.7,17.2c8.4,24.4,31.9,25.5,23.4,45c-0.8,5.9,3.1,11,7.5,15.3c1.3,1.3,3.2,1.7,4.9,0.9
		c3.3-1.5,6.8-2.2,10.4-2.2c1.6,0,3-1.2,3.2-2.8c0.9-7.8-8.5-16.6-1.3-22c11.7-0.8-0.7,31.9,21,27.3c14.9-6.7,15.8-25.6,15.6-40
		c0.3-15.9,1.7-31.9,4.3-47.6c1-9.5,11.1-10,9.1,0.4c-1.6,21.7-8.5,44.8-5.4,66.2c0.1,0.9,0.5,1.8,1.2,2.4c3.2,3.4,7,6.4,5.7,11.7
		C59.4,7.5,77.5-8.3,88.9,5c6,10.2,16,7.5,25.1,10.9c9.6,3.2,26.4-10.9,32.9,0c0.7,1.2,0.1,2.8-1.2,3.3c-3.1,1-7.1-0.1-10.6,0
		c-8.6,0.3-14.9,8.2-23,11.2c-4.4,1.6-9.4,1.9-13.1,4.7c-5.4,4-5.1,12.9-0.6,17.6c2,2.1,2.2,5.4,0.2,7.5c-3.3,3.6-7.8,6.1-12.6,6.9
		c-1,0.2-1.6,1.1-1.4,2.1c1.8,6.2,9.6,2.1,18.6,17.1c4.1,3.2,10.4,2.3,13.6,7.4c1.4,2.2,0.6,5.2-1.8,6.1c-2.5,1-4.9-1.2-6.7-3.1
		c-6.7-7-14.5-13-23-17.6c-11.2-8.8-28.6,1.3-24.6,15.3c3.8,10.3-6.1,5.3-11.5,4.1c-4-0.6-2.1-4.2-2.1-7.2
		C38.7,78.8,34.4,104.5,24.8,100.5z"/>
</g>
<g>
	<path class="st0" d="M-65-35.7c-0.8-0.4-1.3-1.1-1.6-2c-0.5-2.2-4.2-1.3-5.3-3.2c-0.1-1.1-0.9-1.2-1.9-1.2c-2,0-3.3-2.1-2.4-3.9
		c0.5-1,1.4-1.9,2.5-2.3c1-0.6,3.6-0.2,2.4-0.2c1.7,0,1.5,2.4,3.2,2.9c2.1,0.6,3.8,2.3,4.4,4.5C-62.7-37.9-61.8-34.2-65-35.7z"/>
</g>
<g>
	<path class="st0" d="M-90-95.5c5.4,6.3-5.7,2.7-6.9-0.5c-1.5-2-10.4-3.8-5.3-6.8c2.4-2.9,8-8.4,8.6-1.3
		C-91.4-101.6-91.9-98.3-90-95.5z"/>
</g>
<g>
	<path class="st0" d="M10.5,61.5"/>
</g>
<g>
	<path class="st0" d="M-66.4,46.4c-1.3,0.3-3.9,0.7-4.4-0.8c1.3-1.9,4.5-0.4,6.6-2.2C-58.1,38.4-62.7,45.5-66.4,46.4z"/>
</g>
<g>
	<path class="st0" d="M-89.3,50.8c-1.2,1.1-11.6-0.5-6.9-1.2c6.1-0.9,8.2-4.1,13.3-4.5c0.5,0,1.1-0.2,1.5-0.5c7.3-4,5-1.3,0.1,2.6
		c-0.6,0.5-1.4,0.8-2.1,0.7C-85.9,47.5-87.2,49.5-89.3,50.8z"/>
</g>
<g>
	<path class="st0" d="M-159.6,51.5c-11.1-6,1.3-7,6.8-2.4c10.1,1.9,6.4-8.4,24.6,2.1c-0.7,6-9-0.1-12.7,1.6
		C-146.9,57.6-153.9,56.1-159.6,51.5z"/>
</g>
<g>
	<path class="st0" d="M1.7-35.1"/>
</g>
<g>
	<path class="st0" d="M-17.6-109.8c-0.1-0.6,0.8-0.8,1-0.2C-9.6-90-4.8-69.1,1.4-48.7c1.3,4.7,2.7,9.6,1.4,14.4
		c-0.1,0.5-0.8,0.5-1,0C-7.4-58.4-14.2-84.7-17.6-109.8z"/>
</g>
<g>
	<path class="st0" d="M155.6-40.8c2,3.4,3,0.1,5.9-0.1c1,0.1,3-0.4,2.4-1.8c-1.2-0.4-1.8-1.9-3-2.4
		C158.5-45.9,153.1-43.8,155.6-40.8z"/>
</g>
<g>
	<path class="st1" d="M114.2,298.4c4.2,0.1-0.8,8.3-1.5,10.5c5.1-1.9,4.6-10.2,12.4-13.5c2.5-1.9,6.1-3.1,8.9-1
		c3.6,2.6,4.2,10,9.2,10.6c0.5,0.1,0.8-0.4,0.7-0.8c-2.2-5.4-4.2-11.5-1.8-16.7c0.9-1.3,1.1-2.7,1.1-4.1c0-0.8,0.3-1.6,0.9-2.2
		c2.3-2.5,5.2-4.6,7.8-6.9c0.7-0.6,1-1.5,0.8-2.4c-1.8-11.4,5.8-11-5.3-18.5c-0.6-0.4-0.4-1.2,0.2-1.4c12.7-4.4,7.9-11.6,3.1-7.4
		c-2.3,1.7-5.2,2.6-8.1,2.5c-0.7,0-1.4-0.5-1.6-1.1c-1.4-3.7-6.9-5.4-8.7-9.3c-0.9-1-0.2-2,0.9-2.3c2.3-1.2,1.8-4.7,2.9-7.2
		c3.2-4.8,7.8-5.4,6.5-11.4c-0.2-0.8,0-1.6,0.3-2.2c3.2-5.7,7-11.4,8.1-18.1c0-0.1-0.1-0.3-0.3-0.2c-2.9,1.8-4,5.4-5.4,8.6
		c-4.2,12.2-16,12.7-11.7,22.5c0.4,2.9-1.6,5.5-3.7,7.7c-0.6,0.6-1.6,0.8-2.4,0.5c-1.6-0.7-3.4-1.1-5.2-1.1c-0.8,0-1.5-0.6-1.6-1.4
		c-0.4-3.9,4.2-8.3,0.7-11c-5.8-0.4,0.3,15.9-10.5,13.7c-7.4-3.4-7.9-12.8-7.8-20c-0.1-8-0.9-15.9-2.2-23.8c-0.5-4.8-5.6-5-4.6,0.2
		c0.8,10.8,4.2,22.4,2.7,33.1c-0.1,0.5-0.3,0.9-0.6,1.2c-1.6,1.7-3.5,3.2-2.9,5.8c1.4,20.6-7.7,12.7-13.3,19.3
		c-3,5.1-8,3.8-12.5,5.5c-4.8,1.6-13.2-5.5-16.4,0c-0.4,0.6-0.1,1.4,0.6,1.6c1.6,0.5,3.5-0.1,5.3,0c4.3,0.1,7.5,4.1,11.5,5.6
		c2.2,0.8,4.7,1,6.6,2.4c2.7,2,2.6,6.5,0.3,8.8c-1,1-1.1,2.7-0.1,3.7c1.7,1.8,3.9,3,6.3,3.4c0.5,0.1,0.8,0.6,0.7,1
		c-0.9,3.1-4.8,1.1-9.3,8.5c-2.1,1.6-5.2,1.1-6.8,3.7c-0.7,1.1-0.3,2.6,0.9,3.1c1.3,0.5,2.4-0.6,3.3-1.5c3.3-3.5,7.2-6.5,11.5-8.8
		c5.6-4.4,14.3,0.6,12.3,7.7c-1.9,5.2,3,2.7,5.7,2c2-0.3,1-2.1,1-3.6C107.3,287.5,109.4,300.3,114.2,298.4z"/>
</g>
<g>
	<path class="st1" d="M159.2,230.3c0.4-0.2,0.7-0.6,0.8-1c0.3-1.1,2.1-0.6,2.7-1.6c0.1-0.5,0.5-0.6,0.9-0.6c1,0,1.6-1.1,1.2-1.9
		c-0.3-0.5-0.7-0.9-1.2-1.1c-0.5-0.3-1.8-0.1-1.2-0.1c-0.8,0-0.8,1.2-1.6,1.4c-1.1,0.3-1.9,1.2-2.2,2.2
		C158,229.1,157.5,231,159.2,230.3z"/>
</g>
<g>
	<path class="st1" d="M171.6,200.3c-2.7,3.1,2.9,1.3,3.5-0.2c0.7-1,5.2-1.9,2.7-3.4c-1.2-1.4-4-4.2-4.3-0.6
		C172.3,197.3,172.6,199,171.6,200.3z"/>
</g>
<g>
	<path class="st1" d="M121.4,278.9"/>
</g>
<g>
	<path class="st1" d="M159.8,271.3c0.6,0.1,2,0.4,2.2-0.4c-0.6-1-2.3-0.2-3.3-1.1C155.7,267.3,158,270.8,159.8,271.3z"/>
</g>
<g>
	<path class="st1" d="M171.3,273.5c0.6,0.6,5.8-0.3,3.4-0.6c-3.1-0.5-4.1-2-6.7-2.3c-0.3,0-0.5-0.1-0.8-0.3c-3.6-2-2.5-0.7,0,1.3
		c0.3,0.2,0.7,0.4,1.1,0.3C169.6,271.9,170.2,272.9,171.3,273.5z"/>
</g>
<g>
	<path class="st1" d="M206.4,273.9c5.6-3-0.7-3.5-3.4-1.2c-5.1,1-3.2-4.2-12.3,1.1c0.4,3,4.5,0,6.3,0.8
		C200.1,276.9,203.6,276.1,206.4,273.9z"/>
</g>
<g>
	<path class="st1" d="M125.8,230.5"/>
</g>
<g>
	<path class="st1" d="M135.5,193.2c0-0.3-0.4-0.4-0.5-0.1c-3.5,10-5.9,20.5-9,30.7c-0.7,2.3-1.3,4.8-0.7,7.2c0.1,0.2,0.4,0.3,0.5,0
		C130.3,218.9,133.7,205.7,135.5,193.2z"/>
</g>
<g>
	<path class="st1" d="M48.8,227.7c-1,1.7-1.5,0-3-0.1c-0.5,0-1.5-0.2-1.2-0.9c0.6-0.2,0.9-1,1.5-1.2
		C47.4,225.1,50.1,226.2,48.8,227.7z"/>
</g>
<g>
	<path class="st1" d="M292.7,533.7c-2.5,0.1,0.5,5,0.9,6.3c-3.1-1.1-2.8-6.1-7.4-8.1c-1.5-1.2-3.7-1.8-5.3-0.6
		c-2.2,1.6-2.5,6-5.5,6.4c-0.3,0-0.5-0.2-0.4-0.5c1.3-3.2,2.5-6.9,1.1-10c-0.5-0.8-0.6-1.6-0.6-2.5c0-0.5-0.2-1-0.5-1.3
		c-1.4-1.5-3.1-2.7-4.7-4.1c-0.4-0.4-0.6-0.9-0.5-1.4c1.1-6.8-3.5-6.6,3.2-11.1c0.3-0.2,0.3-0.7-0.1-0.9c-7.6-2.6-4.7-7-1.9-4.4
		c1.4,1,3.1,1.5,4.8,1.5c0.4,0,0.8-0.3,1-0.7c0.9-2.2,4.2-3.3,5.2-5.6c0.6-0.6,0.1-1.2-0.6-1.4c-1.4-0.7-1.1-2.8-1.7-4.3
		c-1.9-2.9-4.7-3.2-3.9-6.8c0.1-0.5,0-0.9-0.2-1.3c-1.9-3.4-4.2-6.8-4.9-10.8c0-0.1,0.1-0.2,0.2-0.1c1.7,1.1,2.4,3.3,3.2,5.1
		c2.5,7.3,9.6,7.6,7,13.5c-0.2,1.8,0.9,3.3,2.2,4.6c0.4,0.4,1,0.5,1.5,0.3c1-0.4,2-0.7,3.1-0.7c0.5,0,0.9-0.4,1-0.8
		c0.3-2.3-2.5-5-0.4-6.6c3.5-0.2-0.2,9.6,6.3,8.2c4.5-2,4.7-7.7,4.7-12c0.1-4.8,0.5-9.5,1.3-14.3c0.3-2.9,3.3-3,2.7,0.1
		c-0.5,6.5-2.5,13.4-1.6,19.8c0,0.3,0.2,0.5,0.4,0.7c1,1,2.1,1.9,1.7,3.5c-0.8,12.3,4.6,7.6,8,11.6c1.8,3.1,4.8,2.3,7.5,3.3
		c2.9,1,7.9-3.3,9.9,0c0.2,0.4,0,0.8-0.4,1c-0.9,0.3-2.1,0-3.2,0c-2.6,0.1-4.5,2.4-6.9,3.4c-1.3,0.5-2.8,0.6-3.9,1.4
		c-1.6,1.2-1.5,3.9-0.2,5.3c0.6,0.6,0.7,1.6,0.1,2.2c-1,1.1-2.3,1.8-3.8,2.1c-0.3,0.1-0.5,0.3-0.4,0.6c0.5,1.9,2.9,0.6,5.6,5.1
		c1.2,1,3.1,0.7,4.1,2.2c0.4,0.6,0.2,1.6-0.5,1.8c-0.8,0.3-1.5-0.4-2-0.9c-2-2.1-4.3-3.9-6.9-5.3c-3.3-2.6-8.6,0.4-7.4,4.6
		c1.1,3.1-1.8,1.6-3.4,1.2c-1.2-0.2-0.6-1.3-0.6-2.1C296.9,527.2,295.6,534.9,292.7,533.7z"/>
</g>
<g>
	<path class="st1" d="M265.8,492.9c-0.2-0.1-0.4-0.3-0.5-0.6c-0.2-0.7-1.2-0.4-1.6-1c0-0.3-0.3-0.4-0.6-0.4c-0.6,0-1-0.6-0.7-1.2
		c0.2-0.3,0.4-0.6,0.7-0.7c0.3-0.2,1.1-0.1,0.7-0.1c0.5,0,0.5,0.7,1,0.9c0.6,0.2,1.1,0.7,1.3,1.3
		C266.5,492.2,266.8,493.3,265.8,492.9z"/>
</g>
<g>
	<path class="st1" d="M258.3,475c1.6,1.9-1.7,0.8-2.1-0.1c-0.4-0.6-3.1-1.1-1.6-2c0.7-0.9,2.4-2.5,2.6-0.4
		C257.9,473.2,257.8,474.1,258.3,475z"/>
</g>
<g>
	<path class="st1" d="M288.5,522"/>
</g>
<g>
	<path class="st1" d="M265.4,517.5c-0.4,0.1-1.2,0.2-1.3-0.3c0.4-0.6,1.4-0.1,2-0.7C267.9,515.1,266.5,517.2,265.4,517.5z"/>
</g>
<g>
	<path class="st1" d="M258.6,518.8c-0.4,0.3-3.5-0.2-2.1-0.4c1.8-0.3,2.5-1.2,4-1.4c0.2,0,0.3-0.1,0.5-0.2c2.2-1.2,1.5-0.4,0,0.8
		c-0.2,0.1-0.4,0.2-0.6,0.2C259.6,517.8,259.2,518.4,258.6,518.8z"/>
</g>
<g>
	<path class="st1" d="M237.5,519c-3.3-1.8,0.4-2.1,2-0.7c3,0.6,1.9-2.5,7.4,0.6c-0.2,1.8-2.7,0-3.8,0.5
		C241.3,520.8,239.2,520.4,237.5,519z"/>
</g>
<g>
	<path class="st1" d="M285.8,493.1"/>
</g>
<g>
	<path class="st1" d="M280,470.7c0-0.2,0.2-0.2,0.3-0.1c2.1,6,3.5,12.3,5.4,18.4c0.4,1.4,0.8,2.9,0.4,4.3c0,0.1-0.2,0.2-0.3,0
		C283.1,486.1,281,478.2,280,470.7z"/>
</g>
<g>
	<path class="st1" d="M331.9,491.4c0.6,1,0.9,0,1.8,0c0.3,0,0.9-0.1,0.7-0.5c-0.4-0.1-0.5-0.6-0.9-0.7
		C332.8,489.8,331.2,490.5,331.9,491.4z"/>
</g>
<g>
	<path class="st1" d="M178.7,354.3c6.1,1.9,3-12.3,3.1-15.8c6.4,5.3,1.5,17,11,25.6c2.7,4.1,7.3,7.5,12.3,5.8
		c6.5-2,11.1-12.3,18.5-10.7c0.7,0.1,1,1,0.5,1.5c-5.9,6.6-11.8,14.3-10.9,23c0.6,2.3,0.2,4.4-0.5,6.4c-0.4,1.2-0.3,2.4,0.1,3.6
		c2.1,4.8,5.2,9.2,7.8,13.8c0.7,1.2,0.6,2.6,0,3.8c-8.3,15.4,2.9,18.7-16.9,23.8c-1,0.3-1.2,1.5-0.5,2.1
		c16.1,12.6,5.5,20.6,0.7,12.2c-2.5-3.6-6.2-6.3-10.3-7.6c-1-0.3-2.2,0-2.9,0.8c-3.9,4.6-12.7,4.3-17.1,9c-1.8,1-1.3,2.7,0.2,3.8
		c2.7,2.9,0.2,7.7,0.6,11.7c2.2,8.5,8.5,11.6,3.6,19.6c-0.6,1-0.8,2.2-0.6,3.4c1.8,9.8,4.3,19.8,2.6,30c0,0.2-0.3,0.3-0.5,0.1
		c-3.2-4-3-9.8-3.4-15c0.1-19.6-16.6-26.2-5.6-38.1c2-4,0.5-8.7-1.5-12.8c-0.6-1.2-1.9-2-3.3-1.9c-2.7,0.2-5.5-0.1-8-1
		c-1.2-0.4-2.5,0.1-3,1.2c-2.6,5.4,2,14-4.5,16.1c-8.6-2.3,8.4-22.7-8.3-24.8c-12.4,1.1-17.7,14.5-21.1,24.8
		c-4.2,11.4-9.2,22.4-14.9,33.1c-3.1,6.6-10.5,4.4-6.4-2.5c6.6-15.1,17.2-30,20.4-46.1c0.1-0.7,0-1.4-0.2-2
		c-1.4-3.2-3.5-6.3-1.2-9.8c12.3-28.8-4.7-22-9.5-34.4c-1.7-8.8-9.6-9.4-15.3-14.1c-6.1-4.7-21.6,1.3-23.6-8.2c-0.2-1,0.6-2.1,1.7-2
		c2.5,0.1,5,1.8,7.6,2.6c6.2,2,12.7-2.1,19.3-2.3c3.5-0.1,7.2,1,10.6-0.1c4.9-1.6,6.9-8,4.8-12.5c-0.9-2-0.2-4.4,1.7-5.4
		c3.3-1.7,7.1-2.4,10.8-1.8c0.7,0.1,1.5-0.4,1.5-1.2c0.3-4.9-6.4-3.9-9.1-16.9c-2.2-3.3-6.9-4.2-7.9-8.7c-0.4-1.9,0.9-3.9,2.8-3.9
		c2-0.1,3.2,2.1,4,3.9c3,6.7,7.1,12.9,12.1,18.4c5.8,9.1,20.8,6.2,21.5-4.9c-0.1-8.3,5.7-2.3,9.2,0c2.7,1.4,0.4,3.6-0.3,5.7
		C163.3,366.4,172.8,349.1,178.7,354.3z"/>
</g>
<g>
	<path class="st1" d="M1940.5,377.5c8.8,0.2-1.7,17.1-3,21.7c10.6-3.9,9.5-21.1,25.5-28c5.2-4,12.7-6.4,18.4-2
		c7.5,5.4,8.7,20.7,19,22c1,0.1,1.7-0.8,1.3-1.7c-4.6-11.2-8.7-23.7-3.7-34.5c1.8-2.7,2.2-5.5,2.2-8.5c0-1.7,0.6-3.3,1.8-4.5
		c4.8-5.2,10.8-9.5,16.2-14.2c1.4-1.2,2-3.1,1.7-4.9c-3.7-23.5,12.1-22.7-11.1-38.2c-1.1-0.8-0.9-2.5,0.4-3
		c26.3-9,16.4-24.1,6.4-15.3c-4.8,3.5-10.8,5.3-16.7,5.2c-1.5,0-2.8-1-3.3-2.3c-2.9-7.7-14.3-11.2-18-19.2c-1.9-2.1-0.4-4.1,1.9-4.8
		c4.9-2.6,3.7-9.8,6-14.8c6.6-10,16.1-11.1,13.4-23.6c-0.3-1.6-0.1-3.2,0.7-4.6c6.6-11.9,14.4-23.6,16.8-37.4
		c0.1-0.3-0.3-0.5-0.6-0.4c-5.9,3.8-8.3,11.3-11.1,17.8c-8.7,25.2-33,26.3-24.2,46.6c0.8,6.1-3.2,11.4-7.7,15.8
		c-1.3,1.3-3.3,1.7-5,1c-3.4-1.5-7.1-2.3-10.8-2.3c-1.7,0-3.1-1.2-3.3-2.9c-0.9-8,8.8-17.2,1.4-22.8c-12-0.8,0.7,33-21.7,28.2
		c-15.4-7-16.3-26.5-16.1-41.3c-0.3-16.5-1.8-32.9-4.5-49.2c-1.1-9.8-11.5-10.4-9.4,0.4c1.7,22.4,8.7,46.3,5.6,68.4
		c-0.1,0.9-0.6,1.8-1.2,2.5c-3.3,3.5-7.3,6.6-5.9,12.1c2.9,42.5-15.8,26.2-27.6,39.9c-6.2,10.6-16.5,7.8-25.9,11.3
		c-9.9,3.3-27.2-11.3-34,0c-0.7,1.2-0.1,2.9,1.2,3.4c3.3,1,7.3-0.1,10.9,0c8.9,0.3,15.4,8.4,23.8,11.6c4.5,1.7,9.7,2,13.6,4.9
		c5.6,4.2,5.3,13.4,0.6,18.2c-2.1,2.1-2.3,5.6-0.2,7.7c3.4,3.7,8.1,6.3,13.1,7.1c1,0.2,1.7,1.2,1.4,2.2c-1.8,6.5-10,2.2-19.2,17.7
		c-4.2,3.3-10.8,2.4-14.1,7.6c-1.4,2.2-0.6,5.4,1.9,6.3c2.6,1,5-1.2,6.9-3.2c6.9-7.3,15-13.4,23.8-18.2c11.5-9.1,29.5,1.3,25.5,15.9
		c-3.9,10.7,6.3,5.5,11.9,4.2c4.2-0.6,2.2-4.4,2.2-7.4C1926.1,355.1,1930.5,381.6,1940.5,377.5z"/>
</g>
<g>
	<path class="st1" d="M1563.1,16.3c4.2,0.1-0.8,8.3-1.5,10.5c5.1-1.9,4.6-10.2,12.4-13.5c2.5-1.9,6.1-3.1,8.9-1
		c3.6,2.6,4.2,10,9.2,10.6c0.5,0.1,0.8-0.4,0.7-0.8c-2.2-5.4-4.2-11.5-1.8-16.7c0.9-1.3,1.1-2.7,1.1-4.1c0-0.8,0.3-1.6,0.9-2.2
		c2.3-2.5,5.2-4.6,7.8-6.9c0.7-0.6,1-1.5,0.8-2.4c-1.8-11.4,5.8-11-5.3-18.5c-0.6-0.4-0.4-1.2,0.2-1.4c12.7-4.4,7.9-11.6,3.1-7.4
		c-2.3,1.7-5.2,2.6-8.1,2.5c-0.7,0-1.4-0.5-1.6-1.1c-1.4-3.7-6.9-5.4-8.7-9.3c-0.9-1-0.2-2,0.9-2.3c2.3-1.2,1.8-4.7,2.9-7.2
		c3.2-4.8,7.8-5.4,6.5-11.4c-0.2-0.8,0-1.6,0.3-2.2c3.2-5.7,7-11.4,8.1-18.1c0-0.1-0.1-0.3-0.3-0.2c-2.9,1.8-4,5.4-5.4,8.6
		c-4.2,12.2-16,12.7-11.7,22.5c0.4,2.9-1.6,5.5-3.7,7.7c-0.6,0.6-1.6,0.8-2.4,0.5c-1.6-0.7-3.4-1.1-5.2-1.1c-0.8,0-1.5-0.6-1.6-1.4
		c-0.4-3.9,4.2-8.3,0.7-11c-5.8-0.4,0.3,15.9-10.5,13.7c-7.4-3.4-7.9-12.8-7.8-20c-0.1-8-0.9-15.9-2.2-23.8c-0.5-4.8-5.6-5-4.6,0.2
		c0.8,10.8,4.2,22.4,2.7,33.1c-0.1,0.5-0.3,0.9-0.6,1.2c-1.6,1.7-3.5,3.2-2.9,5.8c1.4,20.6-7.7,12.7-13.3,19.3
		c-3,5.1-8,3.8-12.5,5.5c-4.8,1.6-13.2-5.5-16.4,0c-0.4,0.6-0.1,1.4,0.6,1.6c1.6,0.5,3.5-0.1,5.3,0c4.3,0.1,7.5,4.1,11.5,5.6
		c2.2,0.8,4.7,1,6.6,2.4c2.7,2,2.6,6.5,0.3,8.8c-1,1-1.1,2.7-0.1,3.7c1.7,1.8,3.9,3,6.3,3.4c0.5,0.1,0.8,0.6,0.7,1
		c-0.9,3.1-4.8,1.1-9.3,8.5c-2.1,1.6-5.2,1.1-6.8,3.7c-0.7,1.1-0.3,2.6,0.9,3.1c1.3,0.5,2.4-0.6,3.3-1.5c3.3-3.5,7.2-6.5,11.5-8.8
		c5.6-4.4,14.3,0.6,12.3,7.7c-1.9,5.2,3,2.7,5.7,2c2-0.3,1-2.1,1-3.6C1556.2,5.4,1558.3,18.3,1563.1,16.3z"/>
</g>
<g>
	<path class="st1" d="M-7.8,701.6c4.2,0.1-0.8,8.3-1.5,10.5c5.1-1.9,4.6-10.2,12.4-13.5c2.5-1.9,6.1-3.1,8.9-1
		c3.6,2.6,4.2,10,9.2,10.6c0.5,0.1,0.8-0.4,0.7-0.8c-2.2-5.4-4.2-11.5-1.8-16.7c0.9-1.3,1.1-2.7,1.1-4.1c0-0.8,0.3-1.6,0.9-2.2
		c2.3-2.5,5.2-4.6,7.8-6.9c0.7-0.6,1-1.5,0.8-2.4c-1.8-11.4,5.8-11-5.3-18.5c-0.6-0.4-0.4-1.2,0.2-1.4c12.7-4.4,7.9-11.6,3.1-7.4
		c-2.3,1.7-5.2,2.6-8.1,2.5c-0.7,0-1.4-0.5-1.6-1.1c-1.4-3.7-6.9-5.4-8.7-9.3c-0.9-1-0.2-2,0.9-2.3c2.3-1.2,1.8-4.7,2.9-7.2
		c3.2-4.8,7.8-5.4,6.5-11.4c-0.2-0.8,0-1.6,0.3-2.2c3.2-5.7,7-11.4,8.1-18.1c0-0.1-0.1-0.3-0.3-0.2c-2.9,1.8-4,5.4-5.4,8.6
		c-4.2,12.2-16,12.7-11.7,22.5c0.4,2.9-1.6,5.5-3.7,7.7c-0.6,0.6-1.6,0.8-2.4,0.5c-1.6-0.7-3.4-1.1-5.2-1.1c-0.8,0-1.5-0.6-1.6-1.4
		c-0.4-3.9,4.2-8.3,0.7-11c-5.8-0.4,0.3,15.9-10.5,13.7c-7.4-3.4-7.9-12.8-7.8-20c-0.1-8-0.9-15.9-2.2-23.8c-0.5-4.8-5.6-5-4.6,0.2
		c0.8,10.8,4.2,22.4,2.7,33.1c-0.1,0.5-0.3,0.9-0.6,1.2c-1.6,1.7-3.5,3.2-2.9,5.8c1.4,20.6-7.7,12.7-13.3,19.3
		c-3,5.1-8,3.8-12.5,5.5c-4.8,1.6-13.2-5.5-16.4,0c-0.4,0.6-0.1,1.4,0.6,1.6c1.6,0.5,3.5-0.1,5.3,0c4.3,0.1,7.5,4.1,11.5,5.6
		c2.2,0.8,4.7,1,6.6,2.4c2.7,2,2.6,6.5,0.3,8.8c-1,1-1.1,2.7-0.1,3.7c1.7,1.8,3.9,3,6.3,3.4c0.5,0.1,0.8,0.6,0.7,1
		c-0.9,3.1-4.8,1.1-9.3,8.5c-2.1,1.6-5.2,1.1-6.8,3.7c-0.7,1.1-0.3,2.6,0.9,3.1c1.3,0.5,2.4-0.6,3.3-1.5c3.3-3.5,7.2-6.5,11.5-8.8
		c5.6-4.4,14.3,0.6,12.3,7.7c-1.9,5.2,3,2.7,5.7,2c2-0.3,1-2.1,1-3.6C-14.7,690.7-12.6,703.6-7.8,701.6z"/>
</g>
<g>
	<path d="M1897.3,833.9c0.6,20.7-0.8,41.4-4,61.8c-1.2,7.8-2.7,16.3,1.3,23.1c0.4,0.8,1,1.6,0.9,2.5c-0.1,0.9-0.7,1.6-1.2,2.3
		c-4.4,5.8-5.7,13.3-6.7,20.5c-6.2,42.8-10.2,85.8-12.2,129c-5.9,0.5-11.9,0.7-17.8,0.8c-3.5,0-7,0-10.5,0c-1.2,0-2.5,0-3.5-0.7
		c4.2-4.1,9.6-6.9,15.4-7.9c1.6-0.3,3.4-0.6,4.1-2c0.3-0.6,0.3-1.4,0.3-2.1c0.4-39-9.2-77.5-10-116.5c0-1.9-0.1-3.9-0.9-5.7
		c-0.8-1.7-2.7-3.1-4.6-2.8c-2.6,0.5-3.5,3.7-3.9,6.3c-3.4,21.3-6.8,42.6-10.2,63.9c-0.7,4.4-1.4,8.9-2.1,13.3
		c-0.8,4.7-1.5,9.4-2.3,14.1c-1.7,10.6-3.4,21.2-5.1,31.8c-0.4,2.6-0.2,6.1,2.3,6.6c-7.2-0.2-14.4,0.1-21.6,0.7
		c3.2-1.4,6.3-2.8,9.5-4.2c3.2-37.6,1.9-75.6-3.8-112.9c-1.4,3.8-1.9,7.9-2.3,12c-2.3,20.6-4.6,41.2-6.9,61.8
		c-1.6,14.3-3.2,28.9-0.9,43.1c-11.5,0.8-23,0.6-34.4-0.6c6.5-2.2,13.1-4.1,19.8-5.5c-1.9-17.3-3.7-34.5-5.6-51.8
		c-0.3-2.6-1-5.7-3.5-6.3c-0.8-0.2-1.7-0.1-2.5,0.1c-10.1,1.6-20.3,3.1-30.4,4.7c-1,0.2-2.1,0.3-3,0.9c-1.2,0.8-1.8,2.3-2.4,3.6
		c-6.6,17.5-8,36.4-9.3,55.1c-10.8-0.3-21.7-0.6-32.5-0.9c5.3-1.9,10.7-3.9,16-5.8c1.3-0.5,2.7-1,3.7-2c1-1.1,1.4-2.6,1.7-4.1
		c2-9.1,1.5-18.6,1.3-27.9c-0.2-9.3-0.1-18.5-0.1-27.8c0-5.9,0.1-11.8,0.1-17.7c0.2-24.6,0.4-49.1,0.6-73.7c0.1-13.7,0.4-28,6.9-40
		c3.3-6,7.9-11.2,12.6-16.2c-3.2-4.2-6-8.6-9.4-12.6c-7.3-8.5-17.3-14.8-22.5-24.7c6.9-13.7,15.7-26.5,26.2-37.7
		c7.8,1.5,15.4,4.2,22.4,8c2.9,1.5,5.7,3.2,9,3.5c4.8,0.4,9.2-2.3,13.2-4.9c4.7-3.1,9.5-6.3,12.2-11.3c-7.3,3-14,7.1-20,12.3
		c-0.9,0.8-1.9,1.7-3.1,1.7c-0.8,0-1.5-0.3-2.2-0.7c-8.6-4.3-16.9-9.1-24.9-14.5c0.2-2.9,3.5-4.6,6.4-4.6c2.9,0,5.7,1,8.6,1.1
		c-1.5-3.9,2-8.7-0.1-12.3c-0.8-1.4-2.3-2.3-3.6-3.4c-3.8-3.2-5.6-8.7-4.5-13.6c-1.9,1-4.2,1.5-6.3,1.3c3.7-10.3,7.9-20.3,12.7-30.1
		c0.3-0.6,0.6-1.2,1.1-1.6c0.7-0.5,1.7-0.5,2.6-0.4c6.2,0.5,12.4,0.9,18.6,1.4c1.1,0.1,2.3,0.2,3.3,0.7c1.9,1,2.7,3.4,3.3,5.5
		c3.1,10.9,6.2,21.9,9.2,32.8c-3.9,1.9-8.5,2.6-12.8,1.9c1.4,3.9,2,8.1,1.8,12.3c0,0.6-0.1,1.2,0.2,1.7c0.2,0.4,0.5,0.7,0.9,1
		c6.5,5.4,15.5,7.1,21.4,13c0.8,0.8,3,2.4,4,1.9c5.1-1.4,10-3.8,14.2-6.9c8.5,6.5,17.8,12.1,27.6,16.5c1.3,0.6,2.6,1.2,4.1,1
		c1.5-0.1,2.9-1.1,4.1-2c5.6-4.3,10.6-9.4,14.7-15.2c-5.8,4.5-11.5,8.9-17.3,13.4c-1.2,1-2.6,2-4.2,1.8c-0.9-0.1-1.8-0.6-2.5-1.1
		c-8.2-5.3-16.2-10.9-23.9-16.8c2.5-2.1,5.6-3.4,8.8-3.9c1.2,1.7,3.3,2.6,5.3,2.3c1.1-3.2,2-6.4,2.8-9.7c0.3-1.3,0.6-3-0.5-3.9
		c-0.7-0.6-1.6-0.6-2.5-0.6c-1.6,0-3.2,0-4.9,0c-1.1,0-2.3-0.1-3-0.9c-0.7-0.7-0.7-1.8-0.7-2.9c0.3-13.2,1.9-26.4,4.8-39.3
		c0.2-1,0.5-2,1.3-2.6c0.7-0.5,1.6-0.5,2.5-0.5c8.8,0,17.6,0,26.5-0.1c4.3,13.1,6.8,26.7,9.4,40.3c-3.4,1.3-7.2,1.5-10.7,0.4
		c0.4,2.8,0.8,5.6,1.2,8.4c0.3,1.8,0.6,3.7,1.9,4.9c1.1,1.1,2.7,1.5,4.1,2c8.8,3.1,14.8,11.5,23.5,14.9c1,0.4,2,0.7,2.7,1.6
		c0.7,0.9,0.8,2.2,0.8,3.4c0,15-0.1,30.1-0.1,45.1"/>
</g>
</svg>
