<?xml version="1.0" encoding="utf-8"?>
<!-- Generator: Adobe Illustrator 25.0.1, SVG Export Plug-In . SVG Version: 6.00 Build 0)  -->
<svg version="1.1" id="Lager_1" xmlns="http://www.w3.org/2000/svg" xmlns:xlink="http://www.w3.org/1999/xlink" x="0px" y="0px"
	 viewBox="0 0 1920 1080" style="enable-background:new 0 0 1920 1080;" xml:space="preserve">
<style type="text/css">
	.st0{fill:#B8CAD1;}
	.st1{opacity:0.78;}
	.st2{fill:#78909C;}
	.st3{fill:#90A4AE;}
	.st4{fill:#607D8B;}
	.st5{fill:#37474F;}
	.st6{fill:#263238;}
	.st7{fill:#455A64;}
	.st8{fill:#54637A;}
</style>
<rect class="st0" width="1920" height="1080"/>
<g class="st1">
	<path class="st2" d="M180.4,491.3l100,100c20.8,20.8,54.4,20.8,75.2,0l100-100c20.8-20.8,20.8-54.4,0-75.2l-100-100
		c-20.8-20.8-54.4-20.8-75.2,0l-100,100C159.6,436.9,159.6,470.5,180.4,491.3z"/>
</g>
<g class="st1">
	<path class="st2" d="M420.1,535.5l100,100c20.8,20.8,54.4,20.8,75.2,0l100-100c20.8-20.8,20.8-54.4,0-75.2l-100-100
		c-20.8-20.8-54.4-20.8-75.2,0l-100,100C399.4,481.1,399.4,514.8,420.1,535.5z"/>
</g>
<g class="st1">
	<path class="st3" d="M583.4,220.5l62.7,62.7c14.2,14.2,14.2,37.2,0,51.4l-62.7,62.7c-14.2,14.2-37.2,14.2-51.4,0l-62.7-62.7
		c-14.2-14.2-14.2-37.2,0-51.4l62.7-62.7C546.2,206.3,569.2,206.3,583.4,220.5z"/>
</g>
<g class="st1">
	<path class="st4" d="M201.3-310.1l425.9,425.9c15.1,15.1,15.1,39.6,0,54.6l0,0c-15.1,15.1-39.6,15.1-54.6,0L146.7-255.5
		c-15.1-15.1-15.1-39.6,0-54.6l0,0C161.8-325.2,186.2-325.2,201.3-310.1z"/>
</g>
<g class="st1">
	<path class="st4" d="M32-310.1l433.6,433.6c13,13,13,34,0,46.9l0,0c-13,13-34,13-46.9,0L-14.9-263.2c-13-13-13-34,0-46.9l0,0
		C-2-323.1,19-323.1,32-310.1z"/>
</g>
<g class="st1">
	<path class="st5" d="M492.9,669l16.5,16.5c5.5,5.5,5.5,14.5,0,20l-16.5,16.5c-5.5,5.5-14.5,5.5-20,0l-16.5-16.5
		c-5.5-5.5-5.5-14.5,0-20l16.5-16.5C478.4,663.5,487.4,663.5,492.9,669z"/>
</g>
<g class="st1">
	<path class="st6" d="M613.5,753.8l292.3,292.3c18.7,18.7,18.7,49,0,67.7l-292.3,292.3c-18.7,18.7-49,18.7-67.7,0l-292.3-292.3
		c-18.7-18.7-18.7-49,0-67.7l292.3-292.3C564.5,735.1,594.8,735.1,613.5,753.8z"/>
</g>
<g class="st1">
	<path class="st5" d="M281.5,282.4l16.5,16.5c5.5,5.5,5.5,14.5,0,20l-16.5,16.5c-5.5,5.5-14.5,5.5-20,0l-16.5-16.5
		c-5.5-5.5-5.5-14.5,0-20l16.5-16.5C267,276.9,276,276.9,281.5,282.4z"/>
</g>
<g class="st1">
	<path class="st5" d="M384.9,777l16.5,16.5c5.5,5.5,5.5,14.5,0,20L384.9,830c-5.5,5.5-14.5,5.5-20,0l-16.5-16.5
		c-5.5-5.5-5.5-14.5,0-20l16.5-16.5C370.4,771.5,379.4,771.5,384.9,777z"/>
</g>
<g class="st1">
	<path class="st5" d="M497.1,165.9l16.5,16.5c5.5,5.5,5.5,14.5,0,20l-16.5,16.5c-5.5,5.5-14.5,5.5-20,0l-16.5-16.5
		c-5.5-5.5-5.5-14.5,0-20l16.5-16.5C482.6,160.4,491.5,160.4,497.1,165.9z"/>
</g>
<g class="st1">
	<path class="st5" d="M82.3,746.4l16.5,16.5c5.5,5.5,5.5,14.5,0,20l-16.5,16.5c-5.5,5.5-14.5,5.5-20,0l-16.5-16.5
		c-5.5-5.5-5.5-14.5,0-20l16.5-16.5C67.8,740.9,76.7,740.9,82.3,746.4z"/>
</g>
<g class="st1">
	<path class="st7" d="M12.9,159.8l455.8,455.8c13,13,13,34,0,46.9L450,681.2c-13,13-34,13-46.9,0L-52.7,225.5c-13-13-13-34,0-46.9
		l18.7-18.7C-21,146.9,0,146.9,12.9,159.8z"/>
</g>
<g class="st1">
	<path class="st3" d="M303.3,617.8l62.7,62.7c14.2,14.2,14.2,37.2,0,51.4l-62.7,62.7c-14.2,14.2-37.2,14.2-51.4,0l-62.7-62.7
		c-14.2-14.2-14.2-37.2,0-51.4l62.7-62.7C266.1,603.6,289.1,603.6,303.3,617.8z"/>
</g>
<g class="st1">
	<path class="st3" d="M303.3,783.5l62.7,62.7c14.2,14.2,14.2,37.2,0,51.4l-62.7,62.7c-14.2,14.2-37.2,14.2-51.4,0l-62.7-62.7
		c-14.2-14.2-14.2-37.2,0-51.4l62.7-62.7C266.1,769.3,289.1,769.3,303.3,783.5z"/>
</g>
<g class="st1">
	<path class="st8" d="M91.5,442.5L225.9,577c8,8,8,21,0,29l0,0c-8,8-21,8-29,0L62.5,471.5c-8-8-8-21,0-29l0,0
		C70.5,434.5,83.5,434.5,91.5,442.5z"/>
</g>
<g class="st1">
	<path class="st8" d="M155.3,888.3l134.4,134.4c8,8,8,21,0,29l0,0c-8,8-21,8-29,0L126.3,917.3c-8-8-8-21,0-29l0,0
		C134.3,880.3,147.3,880.3,155.3,888.3z"/>
</g>
<g class="st1">
	<path class="st2" d="M-12.2,757.3l100,100c20.8,20.8,54.4,20.8,75.2,0l100-100c20.8-20.8,20.8-54.4,0-75.2l-100-100
		c-20.8-20.8-54.4-20.8-75.2,0l-100,100C-32.9,702.9-32.9,736.6-12.2,757.3z"/>
</g>
<g class="st1">
	<path class="st2" d="M87.8,210.4l100,100c20.8,20.8,54.4,20.8,75.2,0l100-100c20.8-20.8,20.8-54.4,0-75.2l-100-100
		c-20.8-20.8-54.4-20.8-75.2,0l-100,100C67.1,156,67.1,189.6,87.8,210.4z"/>
</g>
<g class="st1">
	<path class="st5" d="M439.9,227.1l16.5,16.5c5.5,5.5,5.5,14.5,0,20l-16.5,16.5c-5.5,5.5-14.5,5.5-20,0l-16.5-16.5
		c-5.5-5.5-5.5-14.5,0-20l16.5-16.5C425.5,221.6,434.4,221.6,439.9,227.1z"/>
</g>
<g class="st1">
	<path class="st8" d="M346.6,227.1l134.4,134.4c8,8,8,21,0,29l0,0c-8,8-21,8-29,0L317.6,256.1c-8-8-8-21,0-29v0
		C325.6,219.1,338.6,219.1,346.6,227.1z"/>
</g>
<g class="st1">
	<path class="st3" d="M134.7,881.7l62.7,62.7c14.2,14.2,14.2,37.2,0,51.4l-62.7,62.7c-14.2,14.2-37.2,14.2-51.4,0l-62.7-62.7
		c-14.2-14.2-14.2-37.2,0-51.4l62.7-62.7C97.4,867.5,120.5,867.5,134.7,881.7z"/>
</g>
<g class="st1">
	<path class="st8" d="M-11.5,23l134.4,134.4c8,8,8,21,0,29l0,0c-8,8-21,8-29,0L-40.5,52c-8-8-8-21,0-29l0,0
		C-32.5,15-19.5,15-11.5,23z"/>
</g>
<g class="st1">
	<path class="st7" d="M483.2,465.9l425.9,425.9c15.1,15.1,15.1,39.6,0,54.6l0,0c-15.1,15.1-39.6,15.1-54.6,0L428.6,520.6
		c-15.1-15.1-15.1-39.6,0-54.6l0,0C443.7,450.9,468.2,450.9,483.2,465.9z"/>
</g>
<g class="st1">
	<path class="st5" d="M41,377.1l16.5,16.5c5.5,5.5,5.5,14.5,0,20L41,430.1c-5.5,5.5-14.5,5.5-20,0L4.6,413.6c-5.5-5.5-5.5-14.5,0-20
		l16.5-16.5C26.6,371.6,35.5,371.6,41,377.1z"/>
</g>
<g class="st1">
	<path class="st8" d="M430.2-17.1l134.4,134.4c8,8,8,21,0,29v0c-8,8-21,8-29,0L401.2,11.9c-8-8-8-21,0-29l0,0
		C409.2-25.1,422.2-25.1,430.2-17.1z"/>
</g>
<g class="st1">
	<path class="st8" d="M444.7,733.3l134.4,134.4c8,8,8,21,0,29l0,0c-8,8-21,8-29,0L415.8,762.3c-8-8-8-21,0-29l0,0
		C423.8,725.3,436.7,725.3,444.7,733.3z"/>
</g>
<g class="st1">
	<path class="st8" d="M172.6-32.7l134.4,134.4c8,8,8,21,0,29l0,0c-8,8-21,8-29,0L143.6-3.7c-8-8-8-21,0-29l0,0
		C151.6-40.7,164.6-40.7,172.6-32.7z"/>
</g>
<g class="st1">
	<path class="st4" d="M-256.1,189.6l425.9,425.9c15.1,15.1,15.1,39.6,0,54.6l0,0c-15.1,15.1-39.6,15.1-54.6,0l-425.9-425.9
		c-15.1-15.1-15.1-39.6,0-54.6l0,0C-295.6,174.6-271.2,174.6-256.1,189.6z"/>
</g>
<g class="st1">
	<path class="st4" d="M-338.3-378.1L87.6,47.8c15.1,15.1,15.1,39.6,0,54.6l0,0c-15.1,15.1-39.6,15.1-54.6,0L-393-323.4
		c-15.1-15.1-15.1-39.6,0-54.6l0,0C-377.9-393.2-353.4-393.2-338.3-378.1z"/>
</g>
</svg>
