<?xml version="1.0" encoding="utf-8"?>
<!-- Generator: Adobe Illustrator 25.1.0, SVG Export Plug-In . SVG Version: 6.00 Build 0)  -->
<svg version="1.1" id="Lager_1" xmlns="http://www.w3.org/2000/svg" xmlns:xlink="http://www.w3.org/1999/xlink" x="0px" y="0px"
	 viewBox="0 0 1920 1080" style="enable-background:new 0 0 1920 1080;" xml:space="preserve">
<style type="text/css">
	.st0{fill:#F3F4F4;}
	.st1{fill:#197ACF;}
	.st2{fill:#EAF4FD;}
	.st3{fill:#082742;}
	.st4{fill:#C3CDD7;}
	.st5{fill:none;stroke:#082742;stroke-miterlimit:10;}
	.st6{fill:none;stroke:#082742;stroke-width:0.75;stroke-miterlimit:10;}
	.st7{fill:none;stroke:#082742;stroke-width:0.75;stroke-linecap:round;stroke-linejoin:round;}
</style>
<g>
	<rect class="st0" width="1920" height="1080"/>
</g>
<g id="Group_41" transform="translate(-163.045 -188.789)">
	<g id="Group_40">
		<g id="Group_39">
			<g id="Group_37">
				<path id="Path_48" class="st1" d="M476.4,716.9l1.2,1.7l-42.4,40L396.4,732l3.9-7.1l39.3-36.8L476.4,716.9z"/>
				<path id="Path_49" class="st2" d="M462.1,681.3l14.3,35.6l-36.7-28.8l-4.6-20.6L462.1,681.3z"/>
				<path id="Path_50" class="st3" d="M435.1,667.5l4.6,20.6l-39.3,36.8l-1.8-1.6l26.6-51.7l7.6-14.9L435.1,667.5z"/>
				<path id="Path_51" class="st2" d="M425.1,671.7l-24.7,53.2l-31.5-26.8l-3.1-2.3l8.1-26l0-0.9l14.8-28.6L425.1,671.7z"/>
				<path id="Path_52" class="st3" d="M407.2,598.7l-18.5,41.6L373.9,669l3.2-12.9l7.6-42.8l0.1-0.5l3.9-13.9H407.2z"/>
				<path id="Path_53" class="st4" d="M355.8,544.3l-10.9,40l-37.8,17.6l7.8-33.4L355.8,544.3z"/>
				<path id="Path_54" class="st3" d="M350.2,705.3l-15.7,36.4l-27.9,1.4l-17.8,1.3l31.4-21l2.7-1.6l3.3-2l3.4-2.1l3.8-2.3l3.3-2
					l3.8-2.3l3-1.8l3.4-2.1L350.2,705.3z"/>
				<path id="Path_55" class="st3" d="M350.2,773.9l-38.3,30.2l-5.3-24.2l34-5.7L350.2,773.9z"/>
				<path id="Path_56" class="st2" d="M344.9,584.4l-4.4,38.6l-1.4,1.4l-39.6,20.7l6.9-40.9l0.5-2.3L344.9,584.4z"/>
				<path id="Path_57" class="st1" d="M340.5,774.2l-34,5.7L273.7,755l5.9-4.5l1.9-1.3l7.3-4.9h0l17.8-1.3L340.5,774.2z"/>
				<path id="Path_58" class="st1" d="M306.6,604.2l-7.9,41.5l0,0l-45.2,28.6l9.2-40.6L306.6,604.2z"/>
				<path id="Path_59" class="st4" d="M274.3,600.6l-11.7,33.1l-35.6,20.3l3.1-4.2l12-31.9l30.8-16.2L274.3,600.6z"/>
				<path id="Path_60" class="st1" d="M253.4,674.4l-12.5,44.4v0l-36.4,20.4l16.5-43.8L253.4,674.4z"/>
			</g>
			<g id="Group_38">
				<path id="Path_61" class="st5" d="M240.9,718.8l-36.4,20.4l45.3,34l9-6.9l14.8-11.3l5.9-4.5l1.9-1.3l7.3-4.9"/>
				<path id="Path_62" class="st5" d="M345.5,680.6l-3.4-2.5l-3.6-2.8l-3.2-2.4l-3.4-2.5l-3.6-2.7l-3.1-2.3l-2.9-2.2l-2.2,1.6
					l-3.1,2.2l-3.3,2.3l-3.5,2.4l-3.8,2.7l-4.1,2.9l-4.7,3.3l-5.5,3.8l-4.9,3.4l-0.1,0.1l-3.5,2.4l-0.5,0.3l-1.9,1.2L242,718.2
					l-1.2,0.6"/>
				<path id="Path_63" class="st5" d="M288.7,744.4l31.4-21l2.7-1.6l3.3-2l3.4-2.1l3.8-2.3l3.3-2l3.8-2.3l3-1.8l3.4-2.1l3.2-1.9
					l15.6-9.4l-16.5-12.5"/>
				<line id="Line_1" class="st5" x1="240.9" y1="718.8" x2="281.4" y2="749.2"/>
				<path id="Path_64" class="st5" d="M290.6,699.3l-3.4-2.7l-4.7-3.8l-1.1-0.9"/>
				<path id="Path_65" class="st5" d="M320.1,723.3l-2-1.6l-3-2.4l-7.7-6.3l-3.5-2.8l-4.4-3.6"/>
				<path id="Path_66" class="st5" d="M204.5,739.2l16.5-43.8l6-41.3l3.1-4.2l12-31.9l30.8-16.2l1.4-1.1l39.8-31.7l0.8-0.5
					l40.9-24.2l38.9,32.8"/>
				<path id="Path_67" class="st5" d="M240.9,718.8L240.9,718.8l12.5-44.5l-32.3,21"/>
				<path id="Path_68" class="st5" d="M253.4,674.4l0.3-1.4l8.9-39.1l-35.6,20.3"/>
				<path id="Path_69" class="st5" d="M252.7,674.8l45.9-29.1l0,0l7.9-41.5l-43.9,29.5l11.7-33.1"/>
				<path id="Path_70" class="st5" d="M306.6,604.2l0.5-2.3l7.8-33.4"/>
				<path id="Path_71" class="st5" d="M307.1,601.9l37.8-17.6l10.9-40"/>
				<path id="Path_72" class="st5" d="M373.9,669l-8.1,26.9l0,0l32.7,27.4l1.8,1.6l-3.9,7.1l-22.5,41.1l-10.5,0.3l-13.2,0.4
					l-9.6,0.3l-34,5.7l-4.3,0.7h-25.8l-17.6-14.3"/>
				<path id="Path_73" class="st5" d="M394.7,577.1l-6,21.7l-3.9,13.9l-0.1,0.5l-7.6,42.8l-3.2,12.9"/>
				<path id="Path_74" class="st5" d="M306.6,779.9L273.7,755h0"/>
				<path id="Path_75" class="st6" d="M350.2,705.3l-15.7,36.4l-27.9,1.4l34,31.1"/>
				<line id="Line_2" class="st7" x1="349.2" y1="683.4" x2="350.2" y2="705.3"/>
				<line id="Line_3" class="st6" x1="345.5" y1="680.6" x2="349.2" y2="683.4"/>
				<path id="Path_76" class="st7" d="M295.1,702.9l2.6-22.4l2,26.1l2.7-29.4l1.6,33l2.5-35.9l1,38.7l2.8-41.4l1.6,44.9l1.9-47.3
					l1.5,50.1l1.8-52.4l1.2,54.8l2-57l2.7,57l2.4-56.4l0.9,54.4l2.2-52l1.3,50l2.3-47.3l1.5,45l1.9-42.4l1.4,40.4l1.8-38l2,35.7
					l1.6-33l1.4,31.2l2-28.7l1.4,26.6l2.3-23.8"/>
				<line id="Line_4" class="st6" x1="299.6" y1="706.7" x2="295.1" y2="702.9"/>
				<path id="Path_77" class="st7" d="M290.6,699.3l1.6-14.9l2.9,18.6"/>
				<line id="Line_5" class="st6" x1="295.1" y1="702.9" x2="290.6" y2="699.3"/>
				<path id="Path_78" class="st7" d="M287.2,696.6l0.1-8.8l0,0l3.3,11.5"/>
				<line id="Line_6" class="st5" x1="334.4" y1="741.7" x2="373.9" y2="773.2"/>
				<path id="Path_79" class="st5" d="M306.6,743.1l-17.8,1.3h0"/>
				<path id="Path_80_1_" class="st5" d="M298.6,645.7l-17.2,46.1"/>
				<path id="Path_81" class="st5" d="M322.4,663.2l17.6-39.6l-41.4,22.2"/>
				<path id="Path_82" class="st5" d="M384.8,612.7l-39.9-28.3l-4.4,38.6l36.6,33"/>
				<path id="Path_83" class="st5" d="M388.7,598.7h18.5l40,29.6l-3.7,7.3l-7.9,15.5l-2.9,5.7l-7.6,14.9l-24.8,53.2"/>
				<path id="Path_84" class="st5" d="M373.9,669L373.9,669l14.8-28.6l36.4,31.4"/>
				<line id="Line_7" class="st5" x1="388.7" y1="640.3" x2="407.2" y2="598.7"/>
				<path id="Path_85" class="st5" d="M400.3,724.9l39.3-36.8l-4.6-20.6l-2.4-10.7"/>
				<path id="Path_86" class="st5" d="M439.7,688.1l36.7,28.8l-14.3-35.6l-27-13.9"/>
				<path id="Path_87" class="st5" d="M462.1,681.3l-12.3-21.6l-14.1-8.7"/>
				<line id="Line_8" class="st5" x1="449.8" y1="659.8" x2="443.5" y2="635.6"/>
				<path id="Path_88" class="st5" d="M396.4,732l38.7,26.6l42.4-40"/>
				<path id="Path_89" class="st5" d="M306.6,779.9l5.3,24.2l40.3,31.4l39.2-37.8l43.7-39.1"/>
				<line id="Line_9" class="st5" x1="363.4" y1="773.5" x2="391.4" y2="797.7"/>
				<line id="Line_10" class="st5" x1="350.2" y1="773.9" x2="311.9" y2="804.1"/>
			</g>
		</g>
	</g>
	<path id="Path_90" class="st7" d="M350.2,705.3l2.7-19.1l1.3,16.7l3.1-13.4l1.9,10.4l2.4-7.1l1.8,4.6"/>
</g>
<g id="Group_41_1_" transform="translate(-163.045 -188.789)">
	<g id="Group_40_1_">
		<g id="Group_39_1_">
			<g id="Group_37_1_">
				<path id="Path_48_1_" class="st1" d="M868.5,716.9l1.2,1.7l-42.4,40c0,0-9.7-6.6-19.3-13.3c-9.7-6.6-21-21.9-21-21.9l5.2-0.5
					c0,0,10.3-7.2,20.1-16.4c9.8-9.2,19.7-18.4,19.7-18.4L868.5,716.9z"/>
				<path id="Path_49_1_" class="st2" d="M854.2,681.3l14.3,35.6l-36.7-28.8l-4.6-20.6L854.2,681.3z"/>
				<path id="Path_50_1_" class="st3" d="M827.3,667.5l4.6,20.6c0,0-9.8,9.2-19.7,18.4c-9.8,9.2-20.1,16.4-20.1,16.4l-2.4-3.5
					c0,0,7.6-9,14.3-21.9c6.7-12.9,13.3-25.8,13.3-25.8l7.6-14.9L827.3,667.5z"/>
				<path id="Path_51_1_" class="st2" d="M817.3,671.7c0,0-6.2,13.3-12.4,26.6c-6.2,13.3-12.8,24.6-12.8,24.6
					c-14-19.1-31-35.1-51-47.1c8-2,17-5,24.7-7.1c0,0,4-6.9,7.7-14s7.4-14.3,7.4-14.3L817.3,671.7z"/>
				<path id="Path_52_1_" class="st3" d="M799.3,598.7l-18.5,41.6c0,0-3.7,7.2-7.4,14.3s-7.7,14-7.7,14l3.5-12.6l7.6-42.8l0.1-0.5
					l3.9-13.9H799.3z"/>
				<path id="Path_53_1_" class="st4" d="M748,544.3l-10.9,40l-37.8,17.6l7.8-33.4L748,544.3z"/>
				<path id="Path_54_1_" class="st3" d="M714.9,678.7c-5.9,7.1-6.9,20.1-11.9,26.1c-10,12-28,18-35,35c-2-27,16-52,41.9-59.6
					L714.9,678.7z"/>
				<path id="Path_55_1_" class="st3" d="M743.8,732.4c-7.8,11.4-10.8,25.4-12.8,38.4c-7-8-17-17-18-25c-1-7,12-12,21.2-14.3
					L743.8,732.4z"/>
				<path id="Path_56_1_" class="st2" d="M737,584.4l-4.4,38.6l-1.4,1.4c0,0-9.9,5.2-26.1,8.9c-12.1,2.5-23.1,6.5-34.1,9.5
					c8-6,16-11,24.2-18.1c1.7-10.2,3.5-20.4,3.5-20.4l0.5-2.3L737,584.4z"/>
				<path id="Path_57_1_" class="st1" d="M734.3,731.4c-3.2,1.3-6.2,2.3-9.2,3.3c-6,2-9,9-14,10c-13,3-26,5-37,13c-7-13-7-26,5-34
					c7-4,18-4,26.6-1C720.1,724.7,734.3,731.4,734.3,731.4z"/>
				<path id="Path_58_1_" class="st1" d="M698.7,604.2c0,0-2,10.4-4,20.7C666,646.8,632,663.8,612,695.8c8-35,31-65,64.7-76.8
					C687.7,611.6,698.7,604.2,698.7,604.2z"/>
				<path id="Path_59_1_" class="st4" d="M666.5,600.6c0,0-2.9,8.3-5.9,16.6c-2.9,8.3-15,18.3-15,18.3
					c-14.6,8.3-28.6,18.3-41.6,29.3c6-10,14-19,20.2-28.9c7.1-9.9,10.1-17.9,10.1-17.9l30.8-16.2L666.5,600.6z"/>
				<path id="Path_60_1_" class="st1" d="M612.4,696c-2.3,21.7,5.7,41.7,7.7,62.7c1,8-8,17-18,21c-3-21-15-46,0.4-65.4
					C606.9,705.8,612.4,696,612.4,696z"/>
			</g>
			<g id="Group_38_1_">
				<path id="Path_61_1_" class="st5" d="M622.3,758c-4.2,8.8-11.2,17.8-20.2,21.8c22,12,51,20,70,5c11-8,2-30-3.5-44.8"/>
				<path id="Path_62_1_" class="st5" d="M712.1,663.3c-8-3.5-19-8.5-25-7.5c-46,11-61,59-64.8,102.2"/>
				<path id="Path_63_1_" class="st5" d="M668.5,739.9c-4.5-40.1,35.5-66.1,72.5-64.1c-8-4-16-7-24-10.7"/>
				<path id="Line_1_1_" class="st5" d="M622.3,758c16.8,3.8,34.8-0.2,48.6-9.6"/>
				<path id="Path_64_1_" class="st5" d="M642.2,707.3c-3.1,0.5-6.1-1.5-8.7-1.3"/>
				<path id="Path_65_1_" class="st5" d="M678,702.1c-9,0.7-17,2.7-26.4,4.6"/>
				<path id="Path_66_1_" class="st5" d="M601.8,780C590,730.8,587,674.8,624.2,635.8c7.1-9.9,10.1-17.9,10.1-17.9l30.8-16.2
					l1.4-1.1l39.8-31.7l0.8-0.5l40.9-24.2l38.9,32.8"/>
				<path id="Path_67_1_" class="st5" d="M622.3,758c-8.2-20.2-11.2-41.2-10.2-62.2c-5,12-12,22-18.1,34.2"/>
				<path id="Path_68_1_" class="st5" d="M612.4,696c6.7-22.3,16.7-43.3,33.7-60.3c-15,8-29,18-42.4,28.5"/>
				<path id="Path_69_1_" class="st5" d="M611.9,696.9c19.2-33.1,54.2-50.1,82.9-71.9c2-10.4,4-20.7,4-20.7s-11,7.4-22,14.8
					c-9.7,5.8-20.7,10.8-31.1,16.5c0,0,12-10,15-18.3c2.9-8.3,5.9-16.6,5.9-16.6"/>
				<path id="Path_70_1_" class="st5" d="M698.7,604.2l0.5-2.3l7.8-33.4"/>
				<path id="Path_71_1_" class="st5" d="M699.2,601.9l37.8-17.6l10.9-40"/>
				<path id="Path_72_1_" class="st5" d="M765.7,668.6c-8.7,2.1-15.7,5.1-24.7,7.1c19,13,37,28,51,47c-11,1-20,10-23,20
					c-28-23-58-4-74,24c-3,5-12,7-18.5,9.3"/>
				<path id="Path_73_1_" class="st5" d="M786.9,577.1l-6,21.7l-3.9,13.9l-0.1,0.5l-7.6,42.8l-3.5,12.6"/>
				<path id="Path_74_1_" class="st5" d="M711.3,745.6c-13.2,0.2-26.2,4.2-36.7,11.7"/>
				<path id="Path_75_1_" class="st6" d="M714.9,678.7c-5.9,7.1-6.9,19.1-11.9,26.1c-4,8-16,13-25,18c19-2,39,0,56.2,8.7"/>
				<line id="Line_2_1_" class="st7" x1="717.1" y1="665.1" x2="714.9" y2="678.7"/>
				<line id="Line_3_1_" class="st6" x1="712.1" y1="663.3" x2="717.1" y2="665.1"/>
				<path id="Path_76_1_" class="st7" d="M646.7,707.2c-0.7-8.4,1.3-17.4,1.3-25.4c1,8,2,17,4,25c0-10,1-21,2-31c-3,10,0,19,2,29
					c-2-12,0-23,3-34c-1,11-4,23,2,34c-3-13-1-27,4-39c-4,12-4,26,1,38c-5-14,0-28,4-41c-3,13-6,28,1,40c-5-15-2-31,5-44
					c-7,14-7,30-1,44c-6-16-2-33,7-47c-6,14-8,29-2,43c-4-15,0-30,8-43c-6,12-9,26-5,40c-3-14,1-27,8-39c-5,11-8,24-4,36
					c-1-12,1-25,9-35c-7,9-6,21-5,31c-1-11,4-20,8-30c-3,9-6,19-3,28c0-9,1-19,7-26c-2,7-5,15-2,23c-1-8,2-16,7-22c-2,7-2,13-3,20
					c3-6,3-13,7-18c-1,5-2,11-2,16c3-5,4-10,7-14.7"/>
				<line id="Line_4_1_" class="st6" x1="651.7" y1="706.6" x2="646.7" y2="707.2"/>
				<path id="Path_77_1_" class="st7" d="M642.2,707.3l-0.1-17.2l4.7,17.1"/>
				<line id="Line_5_1_" class="st6" x1="646.7" y1="707.2" x2="642.2" y2="707.3"/>
				<path id="Path_78_1_" class="st7" d="M638.9,707c-0.8-3.2-0.8-7.2-0.8-10.2c1,3,3,7,4.1,10.5"/>
				<path id="Line_6_1_" class="st5" d="M704.7,705.8c24.4,5,47.4,18,63.7,37.3"/>
				<path id="Path_79_1_" class="st5" d="M677.8,723.2c-3.7,4.6-5.7,11.6-9.3,16.8"/>
				<path id="Path_80_2_" class="st5" d="M668.8,644C651,659.8,638,681.8,633.5,706"/>
				<path id="Path_81_1_" class="st5" d="M685.9,654.3c0,0,14-8.1,27.9-14.5c13.9-6.3,18.4-16.2,18.4-16.2s-10.3,5.5-27.3,9.6
					c-11.8,3.6-23.8,6.6-36,10.9"/>
				<path id="Path_82_1_" class="st5" d="M776.9,612.7L737,584.4l-4.4,38.6l36.6,33"/>
				<path id="Path_83_1_" class="st5" d="M780.8,598.7h18.5l40,29.6l-3.7,7.3l-7.9,15.5l-2.9,5.7l-7.6,14.9c0,0-6.2,13.3-12.4,26.6
					c-6.2,13.3-12.8,24.6-12.8,24.6"/>
				<path id="Path_84_1_" class="st5" d="M765.8,668.6c0,0,4-6.9,7.7-14s7.4-14.3,7.4-14.3l36.4,31.4"/>
				<line id="Line_7_1_" class="st5" x1="780.8" y1="640.3" x2="799.3" y2="598.7"/>
				<path id="Path_85_1_" class="st5" d="M792,722.9c0,0,10.3-7.2,20.1-16.4c9.8-9.2,19.7-18.4,19.7-18.4l-4.6-20.6l-2.4-10.7"/>
				<path id="Path_86_1_" class="st5" d="M831.8,688.1l36.7,28.8l-14.3-35.6l-27-13.9"/>
				<path id="Path_87_1_" class="st5" d="M854.2,681.3l-12.3-21.6l-14.1-8.7"/>
				<line id="Line_8_1_" class="st5" x1="841.9" y1="659.8" x2="835.7" y2="635.6"/>
				<path id="Path_88_1_" class="st5" d="M786.9,723.4c0,0,11.4,15.3,21,21.9c9.7,6.6,19.3,13.3,19.3,13.3l42.4-40"/>
				<path id="Path_89_1_" class="st5" d="M711.3,745.6c18.8,23.2,41.8,46.2,44.8,78.2c9-11,18-22,29.3-30.7c0,0,9.1-5.2,20-15
					c10.9-9.8,21.9-19.5,21.9-19.5"/>
				<path id="Line_9_1_" class="st5" d="M757.5,736.9c12.5,16.9,23.5,34.9,27.8,56.3"/>
				<path id="Line_10_1_" class="st5" d="M743.8,732.4c-7.8,11.4-10.8,25.4-12.9,38.4"/>
			</g>
		</g>
	</g>
	<path id="Path_90_1_" class="st7" d="M714.9,678.7c1.2-4.9,6.2-6.9,7.2-11.9c0,3,0,7-1,10c3-2,5-4,7-7c1,2,1,4,2,6c5,6-4-15,7,0"/>
</g>
<g id="Group_41_2_" transform="translate(-163.045 -188.789)">
	<g id="Group_40_2_">
		<g id="Group_39_2_">
			<g id="Group_37_2_">
				<path id="Path_48_2_" class="st1" d="M1268.4,662.6c6.7,23.2,5.7,47.2-5.3,69.2c-7,14-33,31-37,16c-7-24,12-50,11-78
					c0-4,8-5,12.3-7.1C1258,661,1268.4,662.6,1268.4,662.6z"/>
				<path id="Path_49_2_" class="st2" d="M1231.9,643.9c13.2,3.9,25.2,9.9,36.2,17.9c-18-2-36,15-52,0.9L1231.9,643.9z"/>
				<path id="Path_50_2_" class="st3" d="M1216.1,662.7c14,2.1,21,16.1,22,29.1c1,18-8,34-16,50c8-28,5-61-16.3-82L1216.1,662.7z"/>
				<path id="Path_51_2_" class="st2" d="M1218.1,675.8c6,10,10.5,23,11.5,34.8s-1.5,22.3-9.5,27.3c-31-7-54-40-60-70
					c13,3,25,8,36.9,12.8C1208.8,679.9,1218.1,675.8,1218.1,675.8z"/>
				<path id="Path_52_2_" class="st3" d="M1155.1,620.1c0,6.9,0.4,13.3-0.7,18c-4.3,14.6,4.7,28.6,12.7,41.6c1,3,1,6,1,9
					c-12-17-42-36-24.9-59.4L1155.1,620.1z"/>
				<path id="Path_53_2_" class="st4" d="M1140.1,544.3c0,0-2.5,3.7-6.1,9.5c-10.9,16-12.9,36-22.9,52c-4,5-17,7-21,0
					c-2-5,3-14,5.2-20.6c2-8.4,3.9-16.7,3.9-16.7L1140.1,544.3z"/>
				<path id="Path_54_2_" class="st3" d="M1147.5,709.3c-16.4,13.5-35.4,20.5-54.4,31.5c-6,4-8,11-12,17c-6-36,34-45,61-47.9
					L1147.5,709.3z"/>
				<path id="Path_55_2_" class="st3" d="M1155.8,757c-13.8,7.8-22.8,21.8-29.8,35.8c-4-8-10-15-9-23c2-12,16-15,27.9-14.6
					L1155.8,757z"/>
				<path id="Path_56_2_" class="st2" d="M1112.4,606.8c-0.2,9.5-3.8,18.2-9.3,26.4c-6.1,8.6-10.1,18.6-17.1,26.6c-6,6-23,11-26,2
					s4-19,11.4-27.5c7.8-9.8,16.1-19,17.6-27.5c3,4,8,1,11.6,2.8C1106.5,609.4,1112.4,606.8,1112.4,606.8z"/>
				<path id="Path_57_2_" class="st1" d="M1145,755.2c-11.9-0.4-19.9,6.6-29.9,12.6c-11,7-26,6-40,6c5-21,19-39,41.8-29.5
					C1131.7,747.9,1145,755.2,1145,755.2z"/>
				<path id="Path_58_2_" class="st1" d="M1088.3,610.2c-1.1,7.3-9,15.4-16,24.4c-6.2,9.2-9.2,22.2-17.2,26.2c-15,8-25,22-36,34
					c5-32,18-64,49.8-75.8C1079.8,611.6,1088.3,610.2,1088.3,610.2z"/>
				<path id="Path_59_2_" class="st4" d="M1058.6,600.6c0,0-2.9,8.3-5.9,16.6c-7.7,20.6-27.7,29.6-45.7,40.6c2-1,3-3,3.9-5
					c0,0,6.4-10.9,9.5-18.9s6-16,6-16l30.8-16.2L1058.6,600.6z"/>
				<path id="Path_60_2_" class="st1" d="M1018.8,694.5c-2.7,19.3,5.3,39.3,0.3,55.3c-3,8-18,9-29,9c6-17-1-42,17.7-52.3
					C1013.2,701.2,1018.8,694.5,1018.8,694.5z"/>
			</g>
			<g id="Group_38_2_">
				<path id="Path_61_2_" class="st5" d="M1021.2,750.5c-10.2,5.2-20.2,8.2-31.2,8.2c18,19,40,36,65,35c14,0,21-21,25.7-36"/>
				<path id="Path_62_2_" class="st5" d="M1130.6,694.5c-12.6-2.8-24.6-5.8-37.6-4.8c-16,1-32,5-43,13c-14,10-17,33-28.8,47.7"/>
				<path id="Path_63_2_" class="st5" d="M1080.7,757.8c-4.7-49,54.3-43,87.3-52c-9-6-20-7-29.6-9.6"/>
				<path id="Line_1_2_" class="st5" d="M1021.2,750.5c17.8,10.2,36.8,16.2,57.2,15.2"/>
				<path id="Path_64_2_" class="st5" d="M1051.4,718.2c-4.4-0.4-5.4-4.4-9.4-4.7"/>
				<path id="Path_65_2_" class="st5" d="M1094,722.6c-11-0.8-22,0.2-32.8-1.9"/>
				<path id="Path_66_2_" class="st5" d="M989.9,758.7c10.1-34.9,2.1-73.9,21.1-105.9c0,0,6.4-10.9,9.5-18.9c3-8,6-16,6-16
					l30.8-16.2l1.4-1.1l39.8-31.7l0.8-0.5l40.9-24.2c0,0-2.7,15.3-1.5,28.6c1.1,13.4,5.9,23.6,5.9,23.6"/>
				<path id="Path_67_2_" class="st5" d="M1021.2,750.5c-2.2-18.8-5.2-36.8-2.2-55.8c-7,7-14,15-22.3,21"/>
				<path id="Path_68_2_" class="st5" d="M1018.8,694.5c3.3-20.7,11.3-39.7,21.3-57.7c-11,8-22,14-32.8,21.1"/>
				<path id="Path_69_2_" class="st5" d="M1018.3,695.1c11.8-11.3,20.8-26.3,36.8-34.3c8-4,11-17,17.2-26.2c7-9,14.9-17.1,16-24.4
					c0,0-8.4,1.4-19.4,8.8c-14.6,8.5-28.5,17.6-28.5,17.6s9-11,12.4-19.4c2.9-8.3,5.9-16.6,5.9-16.6"/>
				<path id="Path_70_2_" class="st5" d="M1088.3,610.2c1.8-8.4,4.8-17.4,7-25c2-8.4,3.9-16.7,3.9-16.7"/>
				<path id="Path_71_2_" class="st5" d="M1088.9,607.3c7.1,3.5,18.1,4.5,22.1-1.5c10-16,12-36,22.9-52c3.6-5.8,6.1-9.5,6.1-9.5"/>
				<path id="Path_72_2_" class="st5" d="M1168.9,689.6c-0.8,2.2-1.8,3.2-0.8,5.2c15,21,42,29,48,54c1,2-4,4-7,5c-10,1-20,2-29,8
					c-3,2-7,1-11,1c-14-4-29-13-41-4c-19,15-37,39-63.3,30.4"/>
				<path id="Path_73_2_" class="st5" d="M1144.4,596.5c-1.4,7.2-1.8,14.2-1.5,21c-0.2,6.5,0,12.6-2.2,17.1
					c-9.6,22.2,16.4,39.2,28.2,55"/>
				<path id="Path_74_2_" class="st5" d="M1115.6,770.3c-13.6,1.5-26.6,3.5-40.6,4"/>
				<path id="Path_75_2_" class="st6" d="M1147.5,709.3c-16.4,15.5-38.4,20.5-56.4,33.5c19-3,37,4,53.9,12.4"/>
				<line id="Line_2_2_" class="st7" x1="1138.5" y1="696.2" x2="1147.5" y2="709.3"/>
				<line id="Line_3_2_" class="st6" x1="1130.6" y1="694.5" x2="1138.5" y2="696.2"/>
				<path id="Path_76_2_" class="st7" d="M1056.2,719.7c0.8-6.9-3.2-13.9-2.2-20.9c1,8,5,14,7,22c1-7-2-15-1-22c1,8,5,15,6,23
					c2-8,0-16-2-24c4,8,6,16,8,25c1-9,0-18-3-26c4,9,9,17,11,26c0-10-4-19-6-28c3,10,12,17,11,28c3-11-3-20-7-30c5,10,14,18,12,30
					c4-12-3-22-8-32c7,9,16,18,17,30c0-12-5-22-9-32c6,9,13,18,15,29c0-10-4-19-9-28c7,7,13,16,15,26c-1-9-1-19-9-26
					c9,6,11,16,17,24c-1-8-2-18-11-22c7,6,15,12,17,21c-1-7-5-14-8-21c4,7,14,11,13,20c2-7-3-13-7-18c7,4,10,11,14,17c2-7-3-11-7-16
					c6,3,10,9,12,15c0-5-4-9-3.6-13.6"/>
				<line id="Line_4_2_" class="st6" x1="1061.2" y1="720.8" x2="1056.2" y2="719.7"/>
				<path id="Path_77_2_" class="st7" d="M1051.4,718.2l-3.2-18l8,19.5"/>
				<line id="Line_5_2_" class="st6" x1="1056.2" y1="719.7" x2="1051.4" y2="718.2"/>
				<path id="Path_78_2_" class="st7" d="M1047.9,716.7c0.1-3.9-0.9-6.9-2.9-9.9c3,3,4,7,6.4,11.4"/>
				<path id="Line_6_2_" class="st5" d="M1118.9,729c24.2,4.8,45.2,17.8,61.9,36.1"/>
				<path id="Path_79_2_" class="st5" d="M1090.8,743.1c-2.8,4.7-6.8,9.7-10.1,14.8"/>
				<path id="Path_80_3_" class="st5" d="M1056.1,662.5c-10.1,15.3-14.1,33.3-14.1,50.9"/>
				<path id="Path_81_2_" class="st5" d="M1084,689.3c1-10.5,5-20.5,6-31.5c-10,5-22,10-33.9,4.7"/>
				<path id="Path_82_2_" class="st5" d="M1136.6,642.1c-16.5-3.3-17.5-23.3-24.5-35.3c-2,12-12,20-15,31c-11,36,43,31,65,42.1"/>
				<path id="Path_83_2_" class="st5" d="M1143.2,629.4c4.9-2.6,6.9-8.6,11.9-8.6c10,0,20,7,31,5c0,6,1,12,5,16
					c25,28,49,62,31.1,99.7"/>
				<path id="Path_84_2_" class="st5" d="M1168.9,689.6c-0.2-7.2-5.6-15.4-8.8-22.1c10.8,3.8,22.3,7.8,32.9,11
					c10.6,3.2,18.1,0.7,25.1-2.8"/>
				<path id="Line_7_2_" class="st5" d="M1159.4,667.3c-4.6-7.4-6.7-14.4-5.3-21c1.4-6.6,2-15.3,1.1-26.2"/>
				<path id="Path_85_2_" class="st5" d="M1222.2,741.5c11.9-17.7,19.9-42.7,11.9-63.7c-5-11-16-20-28.3-18"/>
				<path id="Path_86_2_" class="st5" d="M1234.1,671.4c8-9.6,22-10.6,34-9.6c-7-7-17-12-27-14c-11-2-23,3-25,14.9"/>
				<path id="Path_87_2_" class="st5" d="M1231.9,643.9c-11.8-1.1-26.8-2.1-32,10.8"/>
				<line id="Line_8_2_" class="st5" x1="1208.9" y1="644.3" x2="1187.7" y2="636.6"/>
				<path id="Path_88_2_" class="st5" d="M1216.6,750.2c13.4-0.4,28.4,5.6,38.4-6.4c19-23,19-53,15.4-79.8"/>
				<path id="Path_89_2_" class="st5" d="M1115.6,770.3c2.4,5.5,4.4,12.5,9.4,18.5c9,13,23,21,28,37c11-20,36-17,51.9-29.9
					c4-3.7,7.8-7.7,11.3-11.9c12.7-11.2,26.7-22.2,37.3-35.8"/>
				<path id="Line_9_2_" class="st5" d="M1170.1,760.9c11,11.9,19,26.9,25.1,41.7"/>
				<path id="Line_10_2_" class="st5" d="M1155.8,757c-13.8,7.8-22.8,21.8-29.3,35.9"/>
			</g>
		</g>
	</g>
	<path id="Path_90_2_" class="st7" d="M1147.4,709.3l-1.5-11.1l7.9,10.5l1-7.7l6.8,7.2l1.8-4l4.4,3.6"/>
</g>
<g id="Group_41_4_" transform="translate(-163.045 -188.789)">
	<g id="Group_40_4_">
		<g id="Group_39_4_">
			<g id="Group_37_4_">
				<path id="Path_48_4_" class="st1" d="M1652.8,716.9l1.2,1.7c0,0-10.5-8.2-19.8-15.3c-5.1-3.5-12.1-2.5-15.1-5.5
					c-18-19-41-37-68-35c-20,2-40,12-49,31c1-38,45-54,78-50c32,5,52,32,65.7,57.8C1650.3,711.9,1652.8,716.9,1652.8,716.9z"/>
				<path id="Path_49_4_" class="st2" d="M1633.1,666.8c0,0,5.4,10.5,10.7,24.1c5.2,13.6,9,26,9,26s-2.5-5-7-15.3
					c-13.7-26.8-37.7-47.8-65.7-61.8c-2-2-3-6-5-8c18,6,35,14,49.4,27.3C1629.7,663.5,1633.1,666.8,1633.1,666.8z"/>
				<path id="Path_50_4_" class="st3" d="M1575.8,632.2c1.3,3.6,4.3,6.6,6.3,9.6c-34-1-71,16-84,49c6-37,45-56,78.3-63L1575.8,632.2
					z"/>
				<path id="Path_51_4_" class="st2" d="M1551.4,634.1c-14.3,11.7-34.3,16.7-43.3,33.7c-11,22-15,48-36,63c-11-22-5-46,7-67
					c10-16,24-31,43.7-28.8C1535.2,634.1,1551.4,634.1,1551.4,634.1z"/>
				<path id="Path_52_4_" class="st3" d="M1582.2,598c-51.1,11.8-100.1,42.8-116.1,94.8c11-46,49-79,90.8-96.6L1582.2,598z"/>
				<path id="Path_53_4_" class="st4" d="M1532.2,544.3c0,0-2.7,10-5.5,20s-6.3,20.1-6.3,20.1c-16.4,5.4-30.4,13.4-45.4,21.4
					c4-7,10-13,12.4-20.6c2-8.4,3.9-16.7,3.9-16.7L1532.2,544.3z"/>
				<path id="Path_54_4_" class="st3" d="M1478.6,753.7c17.4,12.1,38.4,8.1,58.4,11.1c6,1,10,7,14,12c-23,8-57,6-70.4-19.1
					L1478.6,753.7z"/>
				<path id="Path_55_4_" class="st3" d="M1534.4,717.2c15.7-18.5,41.7-5.5,52.7,11.5c-16,0-30-8-46.4-8.2L1534.4,717.2z"/>
				<path id="Path_56_4_" class="st2" d="M1520.5,584.4c-10.4,10.4-21.4,19.4-30.4,30.4c-21,27-43,48-65,72c13-36,37-74,71-91.9
					C1507.5,589.4,1520.5,584.4,1520.5,584.4z"/>
				<path id="Path_57_4_" class="st1" d="M1540.7,720.6c8.4-2.8,18.4-0.8,23.4,6.2c14,21,2,46-12,62c-1-15-13-28-5-42.9
					C1544.4,734.1,1540.7,720.6,1540.7,720.6z"/>
				<path id="Path_58_4_" class="st1" d="M1472.8,609.1c-24.7,26.7-35.7,60.7-58.7,90.7c-3,5-6,9-12,11c3-33,16-70,49-83.5
					C1461.2,618.5,1472.8,609.1,1472.8,609.1z"/>
				<path id="Path_59_4_" class="st4" d="M1450.7,600.6c0,0-2.9,8.3-7.6,18.2c-5.1,9-11.1,19-20.8,24.9c-3.3,2-7.7,4.8-12,7.7
					c-4.5,3.1-9,6.1-13.3,9.4c1-2,3-4,3.8-6c0,0,8.7-12.9,11.7-20.9s6-16,6-16l30.8-16.2L1450.7,600.6z"/>
				<path id="Path_60_4_" class="st1" d="M1402.2,711.5c-0.2,23.3,14.8,43.3,15.8,66.2c-0.5,1.6-7.7-2.8-13.8-3s-13.6-1.4-19.1-2.9
					c4-17-6-38,9.4-49C1398.4,717.9,1402.2,711.5,1402.2,711.5z"/>
			</g>
			<g id="Group_38_4_">
				<path id="Path_61_4_" class="st5" d="M1423.9,781.7c-8.8-4.1-16.1-6.8-21.8-7c-5.7-0.2-11.5-1.4-17-2.9
					c5.2,5.8,11.2,11.1,17.6,15.8s13.3,8.7,20.4,11.7c9,5.5,19.4,10.8,30.4,14.6c5.5,1.9,11.2,3.4,18.2,4.9c13.5,3,27.5,3,40.5,0
					c18-5,44-18,38.7-41"/>
				<path id="Path_62_4_" class="st5" d="M1455.4,735.4c-7.3-2.6-17.3-13.6-21.3-4.6c-7,18,12,35,5,53c-2,4-10-1-15.2-2.1"/>
				<path id="Path_63_4_" class="st5" d="M1550.8,777.8c-11.7,6-25.7,5-38.7,2c-23-5-39-26-40-49c-3,4-8,6-13.4,5"/>
				<path id="Line_1_4_" class="st5" d="M1423.9,781.7c35.2,32.1,96.2,36.1,129.7-0.4"/>
				<path id="Path_64_4_" class="st5" d="M1461.6,785.2c-7.5-3-13.4-5.6-20.6-11.2"/>
				<path id="Path_65_4_" class="st5" d="M1508.6,780.4c-5.3,4.6-15.6,8.2-27.7,8.8"/>
				<path id="Path_66_4_" class="st5" d="M1384.9,771.4c4.2-38.6-5.8-82.6,16-116.6c0,0,8.7-12.9,11.7-20.9s6-16,6-16l30.8-16.2
					l1.4-1.1l39.8-31.7l0.8-0.5l40.9-24.2l38.9,32.8"/>
				<path id="Path_67_4_" class="st5" d="M1423.9,781.7c-6.9-10.5-12.1-22-15.7-34c-1.8-6-3.2-12.1-4.2-18.2
					c-1-6.1-1.6-12.4-1.9-18.6c-3,7.9-9,14.9-16.2,19.3"/>
				<path id="Path_68_4_" class="st5" d="M1402.2,711.5c2.8-24.7,9.8-48.7,23.5-69.2c-3.7,1.7-7.9,3.8-13.2,7.5s-10.6,7.4-15.8,10.8
					"/>
				<path id="Path_69_4_" class="st5" d="M1401.9,711.5c5.1-4.7,11.1-7.7,15.1-13.7c19-31,32-63,56-89c-14,14-31,23-47,34
					c5-8,13-15,17.1-24c4.7-9.9,7.6-18.2,7.6-18.2"/>
				<path id="Path_70_4_" class="st5" d="M1472.8,609.1c4.3-8.3,11.3-15.3,14.6-23.9c2-8.4,3.9-16.7,3.9-16.7"/>
				<path id="Path_71_4_" class="st5" d="M1474.7,605.9c15.3-8.1,29.3-16.1,45.7-21.5c0,0,3.6-10.1,6.3-20.1s5.5-20,5.5-20"/>
				<path id="Path_72_4_" class="st5" d="M1466.2,692c-0.2,12.8,2.8,25.8,5.8,38.8c16-10,19-29,29-44c-1,7,5,15,12,15c4-1,8-2,12-4
					c0,7,1,15,7,17c15,7,34,7,41,24c11,31-14,62-42.1,72.5"/>
				<path id="Path_73_4_" class="st5" d="M1571.2,577.1l-14.3,19.1c-41.8,16.6-77.8,50.6-90.6,95.8"/>
				<path id="Path_74_4_" class="st5" d="M1567.3,726.7c4.8,22,0.8,46-14.9,62.3"/>
				<path id="Path_75_4_" class="st6" d="M1478.6,753.7c17.4,12.1,38.4,8.1,57.4,10.1c3,1,5,4,7,6c5-16,3-33-2.4-49.2"/>
				<line id="Line_2_4_" class="st7" x1="1458.7" y1="735.8" x2="1478.6" y2="753.7"/>
				<line id="Line_3_4_" class="st6" x1="1455.4" y1="735.4" x2="1458.7" y2="735.8"/>
				<path id="Path_76_4_" class="st7" d="M1471.5,788c-13.4-9.2-25.4-19.2-35.4-31.2c13,13,27,26,45,33c-18-8-35-22-45-39
					c11,20,31,32,52,38c-23-7-42-23-53-44c12,23,35,38,59,44c-27-6-48-26-61-50c15,24,38,47,68,47c-29-2-56-24-66-51
					c10,28,39,48,69,49c-32-1-59-25-70-54c12,29,38,53,71,52c-33,0-61-26-70-57c10,30,37,53,69,55c-31-3-58-26-66-56
					c8,27,33,51,62,53c-27-2-51-25-59-50c7,25,31,43,56,48c-24-4-44-22-53-44c8,21,27,36,49,41c-21-4-36-22-47-39c10,16,24,30,42,36
					c-16-7-31-18-38-35c7,15,21,23,34,31c-14-6-23-18-32-30c9,10,19,19,30,27c-9-9-20-16-27-26c9,7,16,17,26,22c-8-7-17-13-22.4-22"
					/>
				<line id="Line_4_4_" class="st6" x1="1480.8" y1="789.2" x2="1471.5" y2="788"/>
				<path id="Path_77_4_" class="st7" d="M1461.6,785.2c-8.6-6.4-15.6-14.4-23.6-22.4c9,10,21,17,33.4,25.2"/>
				<line id="Line_5_4_" class="st6" x1="1471.5" y1="788" x2="1461.6" y2="785.2"/>
				<path id="Path_78_4_" class="st7" d="M1454,782c-5-4.1-8.3-7.9-14.8-13.4c5.4,6,17.1,12.1,22.4,16.7"/>
				<path id="Line_6_4_" class="st5" d="M1524.2,762.3c9.8-20.5-1.2-43.5,0.2-64.8"/>
				<path id="Path_79_4_" class="st5" d="M1543.6,770.1c3.1,1.7,5.6,4.2,7.2,7.7"/>
				<path id="Path_80_5_" class="st5" d="M1424.7,685.9c-6.7,29.9-3.7,63.9,16.3,88.1"/>
				<path id="Path_81_4_" class="st5" d="M1435.6,721.2c-0.6-29.5,14.4-57.5,33.4-78.5c-15,14-31,27-44.3,43.1"/>
				<path id="Path_82_4_" class="st5" d="M1534.3,607.3c-4.3-7.5-10.3-14.5-13.3-22.5c-22,22-65,50-47.6,84.8"/>
				<path id="Path_83_4_" class="st5" d="M1556.9,596.2c18.2-0.4,32.2,3.6,44.9,15.9c10.6,7.5,21.9,16.2,21.9,16.2l-8,2.1
					c-44.6-11.6-99.6,10.4-114.8,56.6"/>
				<path id="Path_84_4_" class="st5" d="M1466.2,692c8.8-39.2,43.8-67.2,85.2-57.9"/>
				<path id="Line_7_4_" class="st5" d="M1503.7,635.5c20.4-22.7,52.4-25.7,78.5-37.5"/>
				<path id="Path_85_4_" class="st5" d="M1500.8,687c12.2-32.2,49.2-44.2,81.2-45.2c-3-4-7-8-5.7-14"/>
				<path id="Path_86_4_" class="st5" d="M1582.4,642.1c27.7,11.7,49.7,32.7,63.4,59.6c4.5,10.3,7,15.3,7,15.3s-3.7-12.3-8.7-26.6
					c-9-30.5-39-48.5-68.3-58.1"/>
				<path id="Path_87_4_" class="st5" d="M1633.1,666.8c-10.1-18.1-26.1-32.1-45.3-39"/>
				<line id="Line_8_4_" class="st5" x1="1615" y1="643" x2="1615.7" y2="630.4"/>
				<path id="Path_88_4_" class="st5" d="M1501.4,694c11.6-19.2,31.6-31.2,53.6-31.2c26,1,47,17,65,36c3,3,10,2,14.1,4.5
					c9.4,7.1,19.8,15.3,19.8,15.3"/>
				<path id="Path_89_4_" class="st5" d="M1567.3,726.7c12.8-6,24.8,5,29.8,16c7,17,5,37-4,53c23-31,6-70,7-104c0-3,11,4,18.3,7.7"
					/>
				<path id="Line_9_4_" class="st5" d="M1526.9,708.4c-0.8-15.6,15.2-25.6,29.2-27.6c15-2,27,6,38.7,13.2"/>
				<path id="Line_10_4_" class="st5" d="M1534.4,717.2c14.7-16.5,43.7-8.5,51.9,11.3"/>
			</g>
		</g>
	</g>
	<path id="Path_90_4_" class="st7" d="M1478.6,753.7l-16.8-18.1l14.6,12.9l-10.9-13.7l8.7,6.6l-5.1-8.1l3.8,1.8"/>
</g>
<g id="Group_41_3_" transform="translate(-163.045 -188.789)">
	<g id="Group_40_3_">
		<g id="Group_39_3_">
			<g id="Group_37_3_">
				<path id="Path_48_3_" class="st1" d="M2044.9,730l1.2,1.7c0,0-6.4-3.7-10-11.5c-1.1-3.4-4.1-5.4-7.1-3.4c-4-55-59-85-112-84
					c-6,1,13-16,22-18c13-2,26,2,39,7c34,15,57,47,62.7,83.1C2043.3,724.5,2044.9,730,2044.9,730z"/>
				<path id="Path_49_3_" class="st2" d="M2010.8,636.3c19.2,22.5,31.2,50.5,32.6,79.5c0.8,10.3,1.4,14.1,1.4,14.1
					s-1.6-5.5-4.2-25.1c-7.7-61.1-70.7-102.1-129.7-89.1c27-10,59-5,83.7,9.4C2004.6,631.3,2010.8,636.3,2010.8,636.3z"/>
				<path id="Path_50_3_" class="st3" d="M1910.6,615.5c9.4-0.8,19.4,0.2,28.4-1.8c-8,6-25,8-24,22c0,1,1,2,3,2c-9,6-21,12-29,6
					c-11-8,7-19,13-27.5L1910.6,615.5z"/>
				<path id="Path_51_3_" class="st2" d="M1886.8,634.2c0.3,2.6-0.7,6.6,1.3,7.6c10,5,20-2,30-4c-9,7-17,15-21,25c-4,13-2,30,7,40
					c5,5,7,17,4,19c-13,10-36,2-42-13c-7-19-2-43,10-60.6C1881.6,639.6,1886.8,634.2,1886.8,634.2z"/>
				<path id="Path_52_3_" class="st3" d="M1896.4,599.4c-19.4,13.4-35.4,30.4-41.4,53.4c-4,19-4,39,9,56c10,14,28,19,45,15
					c-19,12-42-3-53-20c-18-30-9-72,19.5-90.2C1884.8,606.2,1896.4,599.4,1896.4,599.4z"/>
				<path id="Path_53_3_" class="st4" d="M1924.4,557.4c0,0-0.7,2.5-1.7,6.3c-5.2,4.4-10.8,10-26.1,17.7
					c-44.5,20.5-69.5,69.5-70.5,116.5c-9-44,15-90,51.7-114.3c0,0,16-8,26.2-14.1C1914.2,563.4,1924.4,557.4,1924.4,557.4z"/>
				<path id="Path_54_3_" class="st3" d="M1911.2,682.8c12.8-20,42.8-27,58.8-11c29,27,23,71-3,101c22-26,25-67,1-93
					c-14-15-40-16-53.7-1.3L1911.2,682.8z"/>
				<path id="Path_55_3_" class="st3" d="M2006.4,720.9c-2.4,62.9-66.4,103.9-125.4,96.9c53-1,107-31,122.3-84.2L2006.4,720.9z"/>
				<path id="Path_56_3_" class="st2" d="M1840.9,636.4c-26.8,58.4,20.2,110.4,72.2,129.4c-40,2-78-25-86-64c-3-18,2-36,8.6-53
					C1838.4,641.6,1840.9,636.4,1840.9,636.4z"/>
				<path id="Path_57_3_" class="st1" d="M2003.3,733.6c-12.3,42.2-50.3,76.2-95.3,69.2c43-4,71-39,84-79c0-1,3-3,5-2.1
					C2000.7,723.4,2003.3,733.6,2003.3,733.6z"/>
				<path id="Path_58_3_" class="st1" d="M1827.5,705.3c13.6,36.5,47.6,62.5,85.6,61.5c-39,26-82-4-93-44c2,1,6,4,7.8,0.3
					C1829.4,718.7,1827.5,705.3,1827.5,705.3z"/>
				<path id="Path_59_3_" class="st4" d="M1819.8,643c-7.8,25.8-7.8,53.8,0.2,79.8c-5-10-11-20-13.1-31.4
					c-5.2-19.3-11.4-24.3-11.4-24.3l3.1-4.2l12-31.9c0,0,7.7-4.1,7.6,2.5c-0.1,6.6,0.8,10.5,0.8,10.5L1819.8,643z"/>
				<path id="Path_60_3_" class="st1" d="M1850.4,769.9c-14.4,7.9-30.4-10.1-40.1-19.8c-7.6-7.4-14.5-10.6-19.1-8
					c-9.1,5.1-18.2,10.2-18.2,10.2l16.5-43.8c0,0,2.1-0.1,6,2.8c14.5,16.6,24.5,37.6,42.6,50.5
					C1845.4,767.1,1850.4,769.9,1850.4,769.9z"/>
			</g>
			<g id="Group_38_3_">
				<path id="Path_61_3_" class="st5" d="M1824.3,763.9c0,0-6.4-6.4-14-13.8s-14.5-10.6-19.1-8c-9.1,5.1-18.2,10.2-18.2,10.2
					l45.3,34l13.6-1.9c43.1,24.4,100.1,26.4,135.4-11.8"/>
				<path id="Path_62_3_" class="st5" d="M1929.8,695.5c14.2-0.7,23.2,13.3,22.2,26.3c4-1,7,0,9,4s3,9,2,14c-4,27-28,42-53,48
					c-32,6-62-4-85.7-23.9"/>
				<path id="Path_63_3_" class="st5" d="M1967.4,772.6c21.6-25.8,24.6-66.8,0.6-92.8c-11-12-30-16-45-8c-12,6-14,19-18,30
					c7-1,13-4,20.1-5.1"/>
				<path id="Line_1_3_" class="st5" d="M1824.3,763.9c30.7,29.9,77.7,42.9,118.9,28.1"/>
				<path id="Path_64_3_" class="st5" d="M1969.8,740.5c-4.8,9.3-9.8,17.3-17.6,23.4"/>
				<path id="Path_65_3_" class="st5" d="M1966.1,677.8c6,12,11,25,9.7,38.6"/>
				<path id="Path_66_3_" class="st5" d="M1773.1,752.2l16.5-43.8l6-41.3l3.1-4.2l12-31.9c0,0,7.7-4.1,7.6,2.5
					c-1.3,3.3,1.7,7.3,0.7,10.3c16-23,33-47,58.7-60.3c0,0,16-8,26.2-14.1c10.2-6,20.4-12.1,20.4-12.1s9.7,8.2,19.5,16.4
					c-5,5.1-14.2,8.9-14.2,8.9"/>
				<path id="Path_67_3_" class="st5" d="M1824.3,763.9c7.7,2.9,18.7,12.9,25.7,5.9c-25-13-37-38-54.5-58.6c-3.9-2.8-6-2.8-6-2.8"/>
				<path id="Path_68_3_" class="st5" d="M1850.4,769.9c-19.4-23.1-34.4-49.1-43.4-78.5c-5.2-19.3-11.4-24.3-11.4-24.3"/>
				<path id="Path_69_3_" class="st5" d="M1848.7,769c20.4,8.7,45.4,9.7,64.4-2.3c-38,0-74-25-85-61c-1,6,3,13-2,19
					c-19-17-12-57-6.2-81.8"/>
				<path id="Path_70_3_" class="st5" d="M1827.5,705.3c-11.4-45.5,10.6-96.5,50.3-121.8"/>
				<path id="Path_71_3_" class="st5" d="M1825.5,697.7c2.5-47.9,26.5-95.9,71-116.4c15.3-7.6,20.9-13.3,26.1-17.7
					c1-3.8,1.7-6.3,1.7-6.3"/>
				<path id="Path_72_3_" class="st5" d="M1909,723.4c0.1-14.6-7.9-25.6-12.9-39.6c-5-18,6-40,22-45c42-11,89,23,90,64
					c1,45-28,92-76,104c-36,9-73,2-100.1-22.4"/>
				<path id="Path_73_3_" class="st5" d="M1929.6,582.7c-44.6,9.1-84.6,45.1-82.6,93.1c1,16,8,33,23,43c12,8,26,14,38.9,4.6"/>
				<path id="Path_74_3_" class="st5" d="M1950.8,799.5c-13.7,0.3-28.7,4.3-42.5,3.8"/>
				<path id="Path_75_3_" class="st6" d="M1911.2,682.8c12.8-20,42.8-27,59.8-12c15,14,17,36,19,56c0-4,4-6,7-5c4,2,6,7,6.3,11.8"/>
				<line id="Line_2_3_" class="st7" x1="1925.2" y1="696.7" x2="1911.2" y2="682.8"/>
				<line id="Line_3_3_" class="st6" x1="1929.8" y1="695.5" x2="1925.2" y2="696.7"/>
				<path id="Path_76_3_" class="st7" d="M1974.1,728.4c-5,1.4-6,6.4-11,7.4c4-6,8-13,13-19c-6,3-8,10-14,13c4-8,8-16,13-24
					c-9,3-10,13-14,20c4-9,5-21,13-27c-11,2-10,17-15,25c4-11,2-27,13-34c-13,4-11,21-14,32c3-12-2-30,11-37c-15,4-10,24-13,36
					c3-13-5-34,11-40c-18,3-10,28-13,41c4-15-10-37,6-48c-18,6-7,28-9,41c2-15-13-34,2-44c-16,7-4,27-3,39c-2-13-14-28-5-41
					c-12,8-2,25,2,35c-4-11-17-22-10-35c-10,9,2,22,6,31c-6-9-17-18-13-31c-5,10,2,21,9,28c-7-7-17-14-16-25c-3,10,4,18,11,24
					c-4-8-11-14-15-21c3,7,8,14,11,21c-4-6-11-11-16-17c4,6,8,12,11.1,17.9"/>
				<line id="Line_4_3_" class="st6" x1="1975.8" y1="716.4" x2="1974.1" y2="728.4"/>
				<path id="Path_77_3_" class="st7" d="M1969.8,740.5l-7.7,3.7l12-15.9"/>
				<line id="Line_5_3_" class="st6" x1="1974.1" y1="728.4" x2="1969.8" y2="740.5"/>
				<path id="Path_78_3_" class="st7" d="M1964.8,749.5c-1.8,0.3-3.8,2.3-5.8,3.3c4-4,7-9,10.8-12.3"/>
				<path id="Line_6_3_" class="st5" d="M1972.1,670c19,0.8,31,18.8,38.7,33.3"/>
				<path id="Path_79_3_" class="st5" d="M1989.6,726.4c-5.5,16.4-11.5,32.4-22.2,46.2"/>
				<path id="Path_80_4_" class="st5" d="M1912.7,766.3c13.4-1.5,26.4-7.5,39.6-2.4"/>
				<path id="Path_81_3_" class="st5" d="M1952.1,721.9c-15.1,23.9-46.1,33.9-72.1,25.9c11,6,26,8,32.6,18.5"/>
				<path id="Path_82_3_" class="st5" d="M1846.2,671.6c-11.1-7.8-6.1-23.8-5.1-34.8c-17,39-4,93,37,109c5,2,12,1,18-3
					c5-4,4-10,0.8-13.6"/>
				<path id="Path_83_3_" class="st5" d="M1859.2,628.1c27.9-34.3,75.9-39.3,115.9-26.3c-32-5-70,2-87,32c-2,2-2,7,0,8
					c10,5,20-2,29.8-3.8"/>
				<path id="Path_84_3_" class="st5" d="M1909,723.4c-15.9,4.4-37.9,0.4-42.9-14.6c-9-25,0-55,20.7-74.6"/>
				<path id="Line_7_3_" class="st5" d="M1864.3,710.3c-24.2-38.5-5.2-88.5,32.2-110.9"/>
				<path id="Path_85_3_" class="st5" d="M1917.9,638c-1.8-0.2-2.8-1.2-2.8-2.2c-1-14,16-16,24-22c-12,2-25,0-37,2.5"/>
				<path id="Path_86_3_" class="st5" d="M1939.3,614.2c50.7,0.6,94.7,40.6,101.4,90.6c2.6,19.6,4.2,25.1,4.2,25.1
					s-0.6-3.8-1.4-14.1c-1.4-29.1-12.4-56.1-32.4-77.1c-25-27-66-35-100.4-23.2"/>
				<path id="Path_87_3_" class="st5" d="M2010.8,636.3c-25.8-25.5-62.8-36.5-98.8-26.5"/>
				<line id="Line_8_3_" class="st5" x1="1961.7" y1="607.2" x2="1951.5" y2="599.8"/>
				<path id="Path_88_3_" class="st5" d="M1930.3,636.6c49.7-11.8,94.7,32.2,98.7,80.2c2-1,5-2,7.1,3.4c3.6,7.8,10,11.5,10,11.5"/>
				<path id="Path_89_3_" class="st5" d="M1950.8,799.5c-21.7,11.3-45.7,16.3-69.7,17.8c0,0,9.5,7.6,19.6,15.5s20.2,15.7,20.2,15.7
					s9.8-9.4,19.6-18.9c43.7-23.8,80.7-61.8,89.2-112.5"/>
				<path id="Line_9_3_" class="st5" d="M2008.9,708.5c7.2,32.3-3.8,64.3-22.1,88.9"/>
				<path id="Line_10_3_" class="st5" d="M2006.4,720.9c-2.4,62.9-66.4,103.9-125.4,96.5"/>
			</g>
		</g>
	</g>
	<path id="Path_90_3_" class="st7" d="M1911.2,682.8l10.2,16.4l-12.8-10.9l8,13.8l-9.7-7.2l4.1,8.1l-5-3.4"/>
</g>
</svg>
