<?xml version="1.0" encoding="utf-8"?>
<!-- Generator: Adobe Illustrator 24.3.0, SVG Export Plug-In . SVG Version: 6.00 Build 0)  -->
<svg version="1.1" id="Lager_1" xmlns="http://www.w3.org/2000/svg" xmlns:xlink="http://www.w3.org/1999/xlink" x="0px" y="0px"
	 width="500px" height="500px" viewBox="0 0 500 500" style="enable-background:new 0 0 500 500;" xml:space="preserve">
<style type="text/css">
	.st0{fill:#FFFFFF;}
	.st1{fill:none;}
	.st2{fill-rule:evenodd;clip-rule:evenodd;}
</style>
<g>
	<rect x="-1" class="st0" width="500" height="500"/>
	<g>
		<g>
			<polygon class="st1" points="519.3,500 519.3,-20.3 -21.3,-20.3 -21.3,520.3 499,520.3 499,479.7 19.3,479.7 19.3,20.3 
				478.7,20.3 478.7,500 			"/>
			<path class="st2" d="M503.4,499.9c-0.3,0.5-0.4-0.8-0.6-1.2c0.1-1.7,0.2-3.7,0.6-3.5C503.4,496.8,503.4,498.3,503.4,499.9z"/>
			<path class="st2" d="M516.4,352.9c-0.1-5.5,0.6-5.7,0.6-10.5c0.2-4.4-0.3-3.8-0.5-5.8c0.6-25.8,0.3-50.9-0.6-72.3
				c0.3,0.6,0.3-1.7,0.3-3.5c0.7,0.2,1.2,2,1.6,4.7c0.6,25.8,0.6,49.6,1.5,74.7C517.5,338,518.1,353.7,516.4,352.9z"/>
			<path class="st2" d="M518.5,83.3c0.3-1.7,0.2-6,0.8-5.8C519.3,80.9,519,82.8,518.5,83.3z"/>
			<path class="st2" d="M479.7,60c-0.2-4.7-0.3-14.6,0.3-16.3c-0.5-6.5-1.1-12.8-1.1-23.3c0.3,0,0.6-0.1,1-0.1
				c0.1,0.1,0.2,0,0.2,0.2c0.1,0.9,0.2,1.8,0.2,2.7c0.1,1.9,0.3,4,0.5,6.1c0.3,4.3,0.6,9,0.7,13.4C481.7,51.3,481.3,58.9,479.7,60z"
				/>
			<path class="st2" d="M336.1-13.9c4.9,0.2-4.1,0.4,0,0.5c-0.8,0.4-6.6,0.1-5.8-0.3C332-13.8,336.3-13.5,336.1-13.9z"/>
			<path class="st2" d="M200.8-15.8c0.3,0.4-0.4,0.7-3.5,0.6C197-15.6,197.7-15.9,200.8-15.8z"/>
			<path class="st2" d="M2.7-10.3c-4.8-0.3-7.2-0.2-8.8-0.1c-1.7,0.1-2.7,0.2-5.3,0c0,0.5-0.1,1-0.2,1.7c0.2,4.9,0.2,10.1,0.3,15.5
				c0,2.7,0,5.4,0,8.1c0,2.4,0,4.9,0,7.3c-0.1,7.3-0.2,14.7-0.1,21.1c0.1,6.3,0.6,12.2,0.8,18.7c0.7,25.8,0.4,54.5,0.5,80.5
				c0,15,0.2,30.5-0.3,43.2c-2.4-10.6-1.3-36.6-1.1-53.7c-0.1-3.4-0.3-6-0.6-8.2c0.3-22.2-0.3-41.3-0.6-59.5
				c-0.2-9.1-0.3-17.9-0.2-26.8c0-4.4,0.1-8.9,0.2-13.4c0.1-2.8,0.2-5.6,0.3-8.4c0.1-3.5,0.2-7,0.4-10.6c-0.3-5.8-0.2-11.1-0.3-16.7
				c4,0,8.1-0.1,12.6-0.2c1.7,0.1,3.4,0.1,3.8,0.3C6.6-11.2,3.8-10.7,2.7-10.3z"/>
			<path class="st2" d="M-6.7,148.2c0.2,3.9,0.3,12.1-0.5,11.7c0.5,4.4-0.1,9.3,0,15.2c-1.6,32.6-1,76.6-2.1,117.9
				c-0.8,1.5-0.7-2.6-1-4.7c0.5-16.4-0.9-28.5-0.2-44.3c-1-20.3,0.9-43.8,1.3-63c0.7-7.4,1.1-21.2,1-33.8
				C-7.9,145.9-7,147-6.7,148.2z"/>
			<path class="st2" d="M-6,262.6h0.5c0.4,10-0.2,19.7,0.2,29.2c-0.7-1.7-0.8-7.5-1.3-10.5C-6.4,273.9-6.7,268.3-6,262.6z"/>
			<path class="st2" d="M-9.7,296.4c0.8-0.9,0.5,10.3,0.3,12.8C-9.9,305.3-9.4,301.1-9.7,296.4z"/>
			<path class="st2" d="M32.3,509.5c1.5-0.6,9-1.9,14-1c11.3-1.1,24.8-0.7,39.7-1.1c-1.1,0.7,6.3,0.6,8.2,0.3
				c-0.5-0.5-4.5,0.4-3.5-0.3c9.7-0.3,19.2,0,25.7-0.5c0.3,0.3-1.1,0.3-1.2,0.5c0.2,0.2,2.1,0.1,3.5,0.2c-0.4,0.3-10.2,0.2-5.8-0.2
				c-2.1,0-2.5,0.2-4.7,0.2c4.4,0.2-1.4,0.9,5.8,0.8c-0.3,0.2-3.5,0.1-3.5,0.3c-2-0.1-2.1-0.6-3.5-0.8c-3.5,0.3-17.5,0-14,0.8
				c-4.8,0.5-15.3-1.2-19.8-0.2C58.6,508.3,50.7,509.4,32.3,509.5z"/>
			<path class="st2" d="M121,506.9c2.4,0.1,4.8,0.5,2.3,0.8C120.7,507.7,120.8,507.3,121,506.9z"/>
			<path class="st2" d="M129.1,506.5c3.7-0.1,3.1,0.4,5.8,0.5C133.3,507.4,128.6,506.9,129.1,506.5z"/>
			<path class="st2" d="M145.5,507.6c0.5-0.6,6.6,0.1,10.5-0.3C155.6,507.8,149.2,507.5,145.5,507.6z"/>
			<path class="st2" d="M163,507.3c2-0.3,2.9-0.7,7-0.6C168.7,507,166.4,507.2,163,507.3z"/>
			<path class="st2" d="M287.8,513.7c3.8,0.1,6.1,0.4,7,1C292.8,514.3,288.2,514.3,287.8,513.7z"/>
			<path class="st2" d="M69.6,484.1c-10.1-0.4-20.9-0.9-30.3-0.2c-6.2-0.2-12.8-0.3-19.6-0.5l-0.3,0l-0.1,0l-0.1,0l-0.2,0l-0.4-0.1
				l-0.9-0.1c-0.6-0.1-1.1-0.1-1.6-0.2c0.1-0.9,0.1-1.7,0-2.5l0-0.6l0-0.1l0-0.1l0-0.4c0-0.6,0-1.2,0-1.8c-0.1-2.4-0.1-4.8-0.2-7.1
				c0.6-7.7,0-16.5,0.3-24.5c1.4-37.9-0.3-77.2-2.3-114.3c0-2.7,0-5.4,0-8.2c-0.5-11.3-1.4-22.4-1.8-35c-0.8-26-0.1-56.9,0.3-84
				c0.3-0.1,0.6,0.2,0.5-2.3c0.8-26.4,2.6-51.4,2.6-79.3c0-6.8-0.5-13.2,0-19.8c-0.5-7.1-0.8-16-1.1-24.5c0.4-16,0-41.6-1.3-54.8
				c0-1.3,0.1-2.6,0.1-3.9c0-0.6,0-1.2-0.1-1.8c-0.1-1.2-0.3-2.5-0.3-3.9c0.3,0,0.7,0,1.1,0c1.1,0,2.1,0,3.2-0.1c0.6,0,1.1,0,1.7,0
				c1.3,0,2.6,0,4,0c7,0,14.1,0,21.4-0.1c14.6,0,29.7-0.1,44.8-0.1c30.3-0.1,60.7-0.1,87.4-0.2c4.8-0.5,8.5-0.3,14-0.6
				c15,0.8,43.2,0.1,58.3-0.6c8.6,0.8,23.2,0.2,36.2,0.6c10.1,0.3,19.3,1.3,26.8,0.5c22.8,0.4,46.9-0.5,72.3,0.6
				c10.3,0.5,20.8,1.2,31.5,1.6c14.6-0.2,28.3,0,43.2-0.3c0.2-0.2-0.2-0.5,1.2-0.5c4.3,0.1,10-0.1,15.9-0.3c0.7,0,1.5-0.1,2.2-0.1
				l0.6,0c0.1,0,0.1,0,0.2,0l0.1,0l0.4,0c0.5,0,1-0.1,1.4-0.1c1,0,1.9,0,2.7,0.1c0.7-0.1,1.3-0.2,2-0.3c0.3,1,0.6,2.2,0.9,3.7
				c0.1,0.7,0.3,1.5,0.4,2.3l0.1,0.6c0,0.5,0.1,1.1,0.1,1.6c0.1,1.1,0.1,2.3,0.2,3.4c0.5,9.3,0.8,20,0.6,33.5
				c1.7,11.8,1.1,37.4,1.8,53.7c-0.3,12.5-0.5,32.9-1.8,42c-0.2,8-0.4,15.5-0.3,25.7c-0.2,3-0.6,4.3-0.6,8.2c0.3,1.6,0.4,4,0.5,7
				c-1.1,17.2-1,44.8-0.3,65.3c-0.6,2.3,0.1,7.8-0.5,10.5c0.8,34.5,2.7,72.1,0.8,107.4c-2,5.8-3,15.5-5.2,17.5c-0.3,2.9-0.4,8-1,9.3
				c-0.5-0.6-0.6,1.7-1,2.3c-0.9,10.4-2,30.6-0.8,42c1.6,5.7,3.2,12.6,4.8,3.5c3.3,1.3,7.3-13.1,8.1,15.2c1.5,4.4,2.4,9.3,4.5,7
				c0.9-7,2.4-10.5,3.2-21c0.3,2.2,0.4,0.1,0.8,0c0.1-4.9-0.1-12.3,0.6-12.8c-0.2,12.4,1.1,14,1.3,23.3c1.5,10.4,4,6.4,5.3,14
				c-0.2,3-0.4,3.5-0.2,7c1.1,2,1.4-2.4,2.1,3.5c0.7-2.1,0.6-5.1,0.6-9.3c1.7-3.5,2.3-15.5,3.1-25.7c0-30.2,2.2-50.1,1.8-75.8
				c1-0.7,0.9-10.2,0.5-15.2c0.4-2.1,1.3-0.8,1.5-4.7c-0.4-3.2-0.7,1-1.1,1.2c-0.4-4.3-0.6-14.3-0.2-17.5
				c-0.8-7.8-0.5-22.8-1.3-32.7c0.7-3.8,1.1-9.3,1.1-17.5c-0.6-0.1-0.9-1.9-1.3-3.5c-0.9-22.3,1-34.3,0-56c0.5-5.9,0.5-15,0.5-24.5
				c1.9-23.8,2-59.2,0.6-88.7c1.7-8.2,0.6-21.3,1-31.5c0.6-16.2,2.1-32.4,1.1-49c0-1.9-0.4-0.6-0.5-2.3c0-2.7,0-5.5,0-8.5
				c0-3.4-0.1-6.8-0.1-10.4c-0.1-11.8-0.2-24-0.2-35.7c-3.5,0-6.8,0-10.1,0c-9.2,0-18.3-0.2-27.4-0.3c-2.5,0-5.1-0.1-7.6-0.1
				c-2.4,0-4.9,0-7.3,0.1c-11.4,0.3-20,1-26.8,2.4c-8.9-0.1-19,1.8-28,1c-1.7,0.2-1.4,0.7-4.7,0.6c-2.3,0-2.3-0.2-3.5-0.3
				c0.1,0.6,1.3,0.5,0,1c6.5-0.3,9.6-0.2,15.2-0.8c1.6,0.1,2.2,0.2,4.7,0.2c12.7-1,27.5-2.2,44.3-2.7c2.9-0.1,5.8-0.2,8.7-0.2
				c1.4,0,2.9,0,4.3,0c2.6,0,5.3,0,7.9,0c10.4,0,20.4,0,29.7-0.1c0.1,7.4,0.2,14.2,0.5,20.1c-0.1,5-0.6,3.2-0.8,6.8
				c0.1,2.7,0.2,5.5,0.2,8.2c0,1.1,0,2.2,0,3.4c0,0.7,0,1.5-0.1,2.2c-0.1,3-0.2,6.2-0.1,9.8c0.1,5.1,0.9,9.4,1,15.2
				c0.1,11.7-0.6,19.1-0.6,32.7c-1.1,5.6-0.4,19-1.5,19.8c-0.6-2.6,0.7-8.3,0-11.7c-0.2,2.3-0.3,5-0.6,5.8
				c-1.1-12-3.2-16.4-3.9-31.5c0.1-12.6-0.2-21.7-0.8-29.2c0.1-2.6,0.1-5.3,0.2-8.1c0-3.2,0.1-6.5,0.1-9.8c0.1-8.8,0.1-18,0.2-27.4
				c-6.7,0-13.4,0-20.2,0c-5.7,0-11.5,0-17.3,0c-9,0-18,0.1-26.9,0.2c-17.8,0.2-35,0.6-49.9,1c-9.9-0.5-18.3-0.5-30.3-0.2
				c-14-2.1-47.5,0.6-60.7-0.6c-6,1.6-25.3,0.8-31.5,0c-2.3,1.1-11.7,0.7-17.5,0.3c0-0.2,4.9-0.5,0-0.5c-2.3,0-2.3,0.2-3.5,0.3
				c-2.1-0.4-4.9-0.6-5.8-1.1c-4.3-0.1-5,0.3-9.3,0.2c1.2-0.3,2-0.7,4.7-0.8c6.3-0.2,7.1,0.3,10.5,0.5c-0.1-0.4-2.2-0.5,1.2-0.6
				c1.6,1,7.5-0.2,10.5,0.6c-2.2,0-3.9,0.1-4.7,0.3c4.6-0.2,10-0.3,14-0.5c-1.2,0-3-0.1-1.2-0.2c-41.1-1.9-77.2-1-117.8-0.6
				c-2.2-0.4-6.5-0.5-10.5-0.6c-11.7,0.4-20.1,0.4-23.3,2.1c14.1,0,25.2-0.4,47.8-0.3c4.7,0.4,8.3,1,9.3,1.9
				c-18.1,0.6-37.6-0.5-54.8,0c-2.5,0.1-3.5,0.3-5.8,0.3c-14.4,0.1-21.7-0.3-31.5-0.5c-19-0.4-39.4,0-58.3-0.3
				c-2.1,0-4.2-0.2-6.3-0.3l-0.8,0l-0.9,0c-0.8,0-1.6,0-2.5,0c-1.6,0-3.3,0.1-5,0.3c8.9,0.2,12.9,0.4,18.2,0.4
				c5.1,0.1,9.8,0,13.5-0.1C54-9.3,72.4-9.1,85.3-9c25.6,1.3,44.7,0.3,75.8,1c1.6,0.9,5.3,0.7,10.5,0.8c-0.4,1,3.5,1.3,9.3,1.5
				c3.2-0.2-2-0.7,1.2-0.8c3.3,0.3,6.5,0.6,7,1.3c-3.1,0-6.7,0.1-8.2-0.2c1.1,0.8,8.2,0.7,8.2,1.6c-23.2,0.4-43.7,1.9-66.5,1.5
				c-3-0.4-4.5-1.1-8.2-1.5c-2.4,0.7,6,1.1,7,1.8c-6.8,0.5-17.4,0.5-23.3,1.1c-1.4-0.2-1-0.7-4.7-0.6C71.6-2,56.9-1.1,39.8-0.8
				c-6.9,0.1-13.7,0.2-20.5,0.2c-7,0-14-0.1-21.1-0.1c0,6.1,0,12.3,0,18.8c0,3.1,0.1,6.3,0.1,9.5c0.1,3.2,0.1,6.5,0.2,9.8
				c-0.1,1.9-0.8-0.3-0.6,3.5c-0.2,17.3,0.4,41.9-1.9,51.3c0.2,7.3-0.4,9.2-0.6,14c0.1,2.2,0.3,4.3,0.3,7
				c-0.6,2.5-0.2,10.4-0.3,16.3c-0.1,6.6-0.9,11.9-1.1,18.7c-0.4,11.8,0.1,16.7,0.5,22.2c0.4,6.7,0.6,16.7,1.6,21
				c0.3-2,0.5-4.1,0.8-5.8c-0.6-7.6-1.8-16.4-1.8-26.8c0-6.6,1-10.7,0.6-17.5h0.5C-4.2,105.4,0,88.5-0.5,53.7
				C0.2,44.7,1,36.3,2,29.2c-0.2,12.2,0.8,16.2,0.6,28C5,87,3.2,127.4,4,161.1c-0.8,25,0.3,46.6,0.5,71.2c-0.9,3.5-0.7,15.2-1,23.3
				c0.1,2.4,0.8,0.3,0.6,4.7c-0.1,17.6-2.7,18.9-3.2,31.5c-0.1,2.3,0.2,6.3,0.2,9.3c0,4.4-0.4,12.8-0.3,16.3
				C1,330.2,2.1,342,2,355.9c0,19.9-0.2,42.4-0.3,64.2c-0.5,8.9-0.5,20.1-0.4,32c0,5.9,0,12,0,18c0,3-0.1,6-0.1,9
				c0,1.3-0.1,2.7-0.1,4C1,484.4,1,485.7,0.9,487c0.2,3.2,0.3,6.8,0.4,10.7c3.8-0.1,7.7-0.1,11.7,0c4.2,0,8.6,0,12.8,0
				c8.9-0.1,17.4-0.3,24-1c3.1,0,0.9,0.6,4.7,0.5c10.1-0.8,21.5-0.4,28-1.8c2.7-0.1,4.5,0,5.8,0.2c31.1-1.6,63.5-4,103.8-3.4
				c12.9,1.6,24.7,3.4,38.5,4.8c11.4,2,21.4,4.1,40.8,5c20.9-1,35.6-3.7,46.7-5.5c7.8-0.3,10.8-1.3,12.8-1.9
				c18.1-0.8,32.8-1.4,51.3-1.8c37.1-0.7,59.6,3.8,95.7,3.2c1.6,0.2,2.3,0.4,4.7,0.5c2.2-1,14.3,0.8,16.3-0.8
				c-6.1-1.1-19.4-1.7-30.3-1.6c-3.7-0.9-10.2-0.4-16.3-0.6c-7.7-0.3-14.5-1.4-21-1.8c-1.9-0.1-4,0.2-4.7,0.2
				c-5.2-0.2-9.5-0.9-16.3-1c-15.4-0.1-20.1,0.1-33.8,0.5c-27.8,0.7-56,1.2-65.3,4.5c-10.4,0-13.6,2.3-22.2,3.1
				c-11.8,0.2-9.4,0.7-21,0.5c-23.2-3.6-39-8.3-70-10.8c-7.3,0.1-14.4,0.2-18.7-0.5c33.1-2.4,97.9,0.6,134.2-2.1
				c-4-0.8-9.1-0.3-14-0.3c-26.9,0-56.5-0.2-88.7,0c-19.1,0.1-37.1,1.7-58.3,1.5c-12.4-0.1-22-0.7-36.2-0.6
				c-0.5-0.3-3.7-0.1-2.3-0.6c-16.5,0.3-30.4-2.6-45.5-1.1C69.1,484.4,72,484.4,69.6,484.1z M495.5,452c0-1.5,0.3-1.2,0.3,0
				c0.2-0.2,0.1-2.1,0.2-3.5c0.3,0.3,0.2,4.3,0.5,4.7c0.3-1.9,0.5-4.4,0.6-7C497.7,452.8,496,457,495.5,452z M500.5,377.4
				c1.5-1.1,1.8,15.1,1.6,18.7c-0.2,3.6-0.9,9.8-1.5,5.8C500,397.5,501.1,384.2,500.5,377.4z M498.4,344.7c-0.4,0.4-0.6-0.2-0.8-1.2
				c0.7-6.4,0.3-21,1.6-25.7C499,329.1,498.5,332.1,498.4,344.7z M501,307.4c-0.4,0.8-0.3-2.3-0.6-2.3c0.3-1.5,0.4-5.1,0.8-5.8
				C501.2,303.2,500.9,303.7,501,307.4z M497.1,303.9c0.5-13.2,1.1-28,1-43.2c-0.1-13.1-1.4-25.6-1-36.2c1,11.6,1,30,2.3,39.7
				c-0.3,11.5-1.1,25.2-0.5,33.8C498.1,299,498,304.4,497.1,303.9z M501.1,295.7h-0.5c-0.1-4.9-0.4-13.6,0.5-14
				C501.5,287.5,501.3,289.7,501.1,295.7z M501.6,280.5c-0.1-0.9-0.4-1.3-0.6-1.2C500.9,274.2,501.8,275.3,501.6,280.5z
				 M504.8,279.4c0.5-1.5,0.1-5.7,0.2-8.2c0.2-4.8,0.9-7.6,1-11.7c0.2-7.4-0.8-10.3-0.6-19.8c0-3-0.6-1.9-0.8-3.5
				c-1.2-44.1-1.8-84.5-0.2-135.4c1.6,2.1,1,17,3.4,15.2c0.6,27.6-0.7,48.3,1,71.2c0,15.9-0.7,29.1-0.8,47.8
				C507.8,254.4,507.7,273.5,504.8,279.4z M509.5,197.7c0-3.8,0.5-3.4,0.6-5.8c-0.1-7.7,0.4-11.2,0.6-16.3
				c0.3-12.2-0.8-37.1,0.5-45.5c-0.3,7.4,1.2,12,0.8,19.8c2.1,10.7,2.9,21.9,2.1,45.5c-0.2,5-0.9,10.2-1.1,15.2
				c-0.4,9.2,0.3,18.6-0.6,23.3C510.2,230.8,511,206,509.5,197.7z M496.9,221c-0.5-2.7-0.1-4.5-0.3-9.3
				C497.4,212.1,497,218.2,496.9,221z M495.8,47.2c0-7.7-0.2-15.3-0.3-23.1c0-3.4-0.1-6.9-0.1-10.4c0-3.3,0-6.6,0.1-10.2
				c-0.2,0-0.4,0-0.5,0c-3.2-0.1-6-0.2-8.8-0.3c-2.9-0.1-5.6-0.3-8.4-0.4C471.2,2.5,464,2.3,454,2.4c-5.9,0-9.7,0.6-18.7,0.8
				c-10.1,0.2-19.7-0.5-26.8,0.6C397.3,3.6,386.4,3.1,377,4c2.9-1.3,16.7-2.4,25.7-3.4c16.5,0.1,32.8,0.1,48.9,0.1
				c8,0,16,0,23.9,0.1c3.8,0,7.7,0.1,11.5,0.1c3.7,0.1,7.4,0.1,11.1,0.2c-0.1,3.9-0.2,7.7-0.3,11.5c-0.1,3.8-0.2,7.6-0.4,11.4
				c-0.3,7.9-0.6,15.6-1.1,23.3H495.8z M312.8,4.3c-0.3,0.2-3.5,0.1-3.5,0.3C297.4,4.1,287.9,4.9,279,5c-4.2,0-8.5-0.4-14-0.5
				c-7.3-0.1-16.9,0.8-19.8-0.3c-6.8,0.7-19.3-0.1-26.8,0.6c0.4-0.8,11.9-1.4,4.7-2.3c-3.1,0.3-3,1.1-5.8,1.5
				c-7.3,0-12.1-0.3-12.8-1.1c9.8-1.2,38.7-1.4,51.3-0.6c8.6-0.5,15.7-0.1,24.5,0.2c0.6-0.3-1.7-0.3-3.5-0.3
				c10.8-0.8,22.2,1.8,33.8,1.5C312.5,3.6,310.4,4.3,312.8,4.3z M200.8,3.7c-2.4-0.1-3.8-0.3-5.8-0.5c0.5-0.5,2.5-0.7,5.8-0.8
				C204.1,2.7,202.5,3.2,200.8,3.7z M140.1,10.9c-16.8,0.1-34,0.4-50.2,0.6c-11.6,0.2-25,0.1-38.4,0.1c-6.7,0-13.4,0-19.9,0.1
				c-3.3,0.1-6.4,0.1-9.6,0.2c-0.8,0-1.6,0-2.3,0.1c-0.5,0-0.5,0-0.7,0l-0.5,0c-0.6,0.1-1.2,0.1-1.8,0.2c-1.4-0.1-3.6-0.3-5.9-0.4
				c-0.1,1.7-0.1,3.5,0,5.1c0.1,0.8,0.1,1.5,0.2,2.2c0.1,0.3,0.1,0.6,0.2,0.9c0,0.1,0.1,0.2,0.1,0.4c0,0.3,0.1,0.5,0.1,0.8
				c-0.3,17.8,0.7,35.2,1.1,51.3c-0.5,21.8,0.7,45.7-0.2,70c-0.2,5.5-0.9,9.6-1.1,15.2c-0.2,4.9,0,10.8-0.2,16.3
				c-0.3,8-1.1,15.6-1.3,23.3c-0.1,3.5,0.1,8.2,0,11.7c-0.1,2.3-0.5,3.7-0.6,5.8c-0.4,6.5-0.1,14.4-0.6,19.8
				c0.4,19.2,0.3,36.5,0.6,59.5c-0.9-10.3-1.7-21.5-3.5-24.5c0-11.6-0.3-22.4,0-33.8c0.2-8.2,0.5-11,0.3-24.5
				c-0.1-6.1-0.4-11.8-0.5-17.5c-0.1-15.1,0.5-30.7,0.5-45.5c0-12.7-0.7-25.3,0.2-35c-0.4-20.3,0.7-45.5-0.8-63
				C5.8,43,5.7,35.6,5.5,28.4c0-1.8-0.1-3.6-0.1-5.3c0-1.5-0.1-3-0.1-4.4c-0.1-2.4-0.1-4.7-0.2-6.8c0.3-1.5,0.7-3,1-4.7
				c4,0.6,7.8,1.1,11.6,1.5c0.5,0,1,0.1,1.4,0.1c0.8,0,1.6,0.1,2.5,0.1c1.7,0.1,3.5,0.1,5.4,0.1c3.7,0,7.5,0,11.6-0.1
				C55.4,8.4,65.3,5.8,78.3,5c7.1,0.6,12.3-0.2,19.8-0.2C109.5,5,122.4,6.1,139,5.5c-2.3,1.7-2.3,2.9-5.8,4.2
				C134.8,10.2,140.1,10.2,140.1,10.9z M9.3,302.3c0.4,0.4,0.6,1.9,1.1,1.2c-0.6,6.1,0.3,13.4,0.8,18.7c0.2,17.4,0.9,30.6,1.1,47.8
				c-0.2,3.6-0.6,6-0.8,9.3c-0.1,11.9-0.2,23.8-0.3,35c-0.1,12.1,0.3,24.8,0.3,36.2c0,6.3-0.3,12.7-0.5,18.8c-0.1,3.1-0.1,6.1-0.1,9
				c0,1.8,0.1,1.9,0.1,2.6c0.1,0.6,0.2,1.1,0.3,1.6c-0.1,1.6-0.2,3.5-0.4,5.6c1.8,0.2,3.9,0.3,5.9,0.4c0.5,0,1,0,1.5,0
				c0.7,0,1.4,0,2.1,0c2.1,0,4.2-0.1,6-0.2c10.5,0.9,28.2,0.6,42,1.3c26.8-0.6,43.7-2.9,73.5-1.5c-10.4,1-26.2,0.2-33.8,1.5
				c-11.2-0.3-21.4,0.9-29.2,1.3c-6.7,0.3-15.1,0.3-22.2,0.6c-8.6,0.4-13.4,1.1-26.8,1.1c-4.7,0-9.1,0-14.3,0c-3,0-6.1-0.1-9-0.3
				c0.1-2.5,0.3-4.9,0.4-7.3c0-1.1,0.1-2.2,0.1-3.2c0-0.5,0-1,0-1.5c0-0.7,0-1.3,0-1.9c0-2.7-0.4-5.5-0.3-8.2c0.1-6.3,0.8-14,0.8-21
				c0-1.1-0.3-4.7-0.3-5.8c0.1-3.5,0.5-7.2,0.6-10.5c0.8-22.5,0.4-52.8,0.6-80.5c0-5.6,0.4-10.8,0.3-16.3c0-3.7-0.4-7.8-0.3-11.7
				C8.7,316.7,9.8,310.2,9.3,302.3z M74.3,485c3.2,0,2.4-0.3,4.7,0C79.9,485.6,73.4,485.6,74.3,485z"/>
			<path class="st2" d="M372.3-13.4c2.4-0.1,3.8-0.3,5.8-0.5c5.4,0.5,16.8-0.6,21,0.3c-16.4,0.2-29,0.2-44.3,0.2
				C357.3-14,372.1-13.7,372.3-13.4z"/>
			<path class="st2" d="M343.2-13.9c4.2,0,4.3-0.5,8.2-0.5c-1.5,0.5-6.8,0.6-8.2,1.1C340.1-13.3,344.8-13.5,343.2-13.9z"/>
			<path class="st2" d="M115.1,508.6c5.7-0.8,20.5-0.4,28-1C135.6,508.5,124,508.1,115.1,508.6z"/>
		</g>
	</g>
</g>
<g>
	<path d="M467.1,252c0.6,20.7-0.8,41.4-4,61.8c-1.2,7.8-2.7,16.3,1.3,23.1c0.4,0.8,1,1.6,0.9,2.5c-0.1,0.9-0.7,1.6-1.2,2.3
		c-4.4,5.8-5.7,13.3-6.7,20.5c-6.2,42.8-10.2,85.8-12.2,129c-5.9,0.5-11.9,0.7-17.8,0.8c-3.5,0-7,0-10.5,0c-1.2,0-2.5,0-3.5-0.7
		c4.2-4.1,9.6-6.9,15.4-7.9c1.6-0.3,3.4-0.6,4.1-2c0.3-0.6,0.3-1.4,0.3-2.1c0.4-39-9.2-77.5-10-116.5c0-1.9-0.1-3.9-0.9-5.7
		s-2.7-3.1-4.6-2.8c-2.6,0.5-3.5,3.7-3.9,6.3c-3.4,21.3-6.8,42.6-10.2,63.9c-0.7,4.4-1.4,8.9-2.1,13.3c-0.8,4.7-1.5,9.4-2.3,14.1
		c-1.7,10.6-3.4,21.2-5.1,31.8c-0.4,2.6-0.2,6.1,2.3,6.6c-7.2-0.2-14.4,0.1-21.6,0.7c3.2-1.4,6.3-2.8,9.5-4.2
		c3.2-37.6,1.9-75.6-3.8-112.9c-1.4,3.8-1.9,7.9-2.3,12c-2.3,20.6-4.6,41.2-6.9,61.8c-1.6,14.3-3.2,28.9-0.9,43.1
		c-11.5,0.8-23,0.6-34.4-0.6c6.5-2.2,13.1-4.1,19.8-5.5c-1.9-17.3-3.7-34.5-5.6-51.8c-0.3-2.6-1-5.7-3.5-6.3
		c-0.8-0.2-1.7-0.1-2.5,0.1c-10.1,1.6-20.3,3.1-30.4,4.7c-1,0.2-2.1,0.3-3,0.9c-1.2,0.8-1.8,2.3-2.4,3.6c-6.6,17.5-8,36.4-9.3,55.1
		c-10.8-0.3-21.7-0.6-32.5-0.9c5.3-1.9,10.7-3.9,16-5.8c1.3-0.5,2.7-1,3.7-2c1-1.1,1.4-2.6,1.7-4.1c2-9.1,1.5-18.6,1.3-27.9
		c-0.2-9.3-0.1-18.5-0.1-27.8c0-5.9,0.1-11.8,0.1-17.7c0.2-24.6,0.4-49.1,0.6-73.7c0.1-13.7,0.4-28,6.9-40c3.3-6,7.9-11.2,12.6-16.2
		c-3.2-4.2-6-8.6-9.4-12.6c-7.3-8.5-17.3-14.8-22.5-24.7c6.9-13.7,15.7-26.5,26.2-37.7c7.8,1.5,15.4,4.2,22.4,8
		c2.9,1.5,5.7,3.2,9,3.5c4.8,0.4,9.2-2.3,13.2-4.9c4.7-3.1,9.5-6.3,12.2-11.3c-7.3,3-14,7.1-20,12.3c-0.9,0.8-1.9,1.7-3.1,1.7
		c-0.8,0-1.5-0.3-2.2-0.7c-8.6-4.3-16.9-9.1-24.9-14.5c0.2-2.9,3.5-4.6,6.4-4.6s5.7,1,8.6,1.1c-1.5-3.9,2-8.7-0.1-12.3
		c-0.8-1.4-2.3-2.3-3.6-3.4c-3.8-3.2-5.6-8.7-4.5-13.6c-1.9,1-4.2,1.5-6.3,1.3c3.7-10.3,7.9-20.3,12.7-30.1c0.3-0.6,0.6-1.2,1.1-1.6
		c0.7-0.5,1.7-0.5,2.6-0.4c6.2,0.5,12.4,0.9,18.6,1.4c1.1,0.1,2.3,0.2,3.3,0.7c1.9,1,2.7,3.4,3.3,5.5c3.1,10.9,6.2,21.9,9.2,32.8
		c-3.9,1.9-8.5,2.6-12.8,1.9c1.4,3.9,2,8.1,1.8,12.3c0,0.6-0.1,1.2,0.2,1.7c0.2,0.4,0.5,0.7,0.9,1c6.5,5.4,15.5,7.1,21.4,13
		c0.8,0.8,3,2.4,4,1.9c5.1-1.4,10-3.8,14.3-6.9c8.5,6.5,17.8,12.1,27.6,16.5c1.3,0.6,2.6,1.2,4.1,1c1.5-0.1,2.9-1.1,4.1-2
		c5.6-4.3,10.6-9.4,14.7-15.2c-5.8,4.5-11.5,8.9-17.3,13.4c-1.2,1-2.6,2-4.2,1.8c-0.9-0.1-1.8-0.6-2.5-1.1
		c-8.2-5.3-16.2-10.9-23.9-16.8c2.5-2.1,5.6-3.4,8.8-3.9c1.2,1.7,3.3,2.6,5.3,2.3c1.1-3.2,2-6.4,2.8-9.7c0.3-1.3,0.6-3-0.5-3.9
		c-0.7-0.6-1.6-0.6-2.5-0.6c-1.6,0-3.2,0-4.9,0c-1.1,0-2.3-0.1-3-0.9c-0.7-0.7-0.7-1.8-0.7-2.9c0.3-13.2,1.9-26.4,4.8-39.3
		c0.2-1,0.5-2,1.3-2.6c0.7-0.5,1.6-0.5,2.5-0.5c8.8,0,17.6,0,26.5-0.1c4.3,13.1,6.8,26.7,9.4,40.3c-3.4,1.3-7.2,1.5-10.7,0.4
		c0.4,2.8,0.8,5.6,1.2,8.4c0.3,1.8,0.6,3.7,1.9,4.9c1.1,1.1,2.7,1.5,4.1,2c8.8,3.1,14.8,11.5,23.5,14.9c1,0.4,2,0.7,2.7,1.6
		c0.7,0.9,0.8,2.2,0.8,3.4c0,15-0.1,30.1-0.1,45.1"/>
</g>
<g>
	<path class="st0" d="M417.2,197.3c0.4-0.2,0.7-0.4,1-0.6c1.1-0.9,1.6-2.3,2.1-3.6c1.3-3.3,2.6-6.6,3.5-10c0.5-2,0.8-4.3-0.3-6
		c-0.8-1.2-2.5-1.7-3.7-1.3c-0.6-0.1-1.3,0-1.8,0.3c-0.9,0.6-1.4,1.6-1.8,2.5c-2.1,4.8-3.1,10-2.9,15.1c0,1.2,0.2,2.5,1.1,3.3
		C415.2,197.7,416.3,197.7,417.2,197.3z"/>
</g>
<g>
	<path class="st0" d="M411.8,144.8c-1.2-0.1-2.3-0.5-3.4-1.1c-1.2-0.7-2.4-2-2-3.3c0.4-1,1.7-1.4,2.7-1.2c0.5,0.1,1.1,0.4,1.5,0.7
		c1.8,0.6,3.5,1.3,5.1,2.2c0.4,0.2,0.9,0.5,1,1c0.1,0.8-0.8,1.3-1.5,1.5C414.2,144.9,413,145,411.8,144.8z"/>
</g>
<g>
	<path class="st0" d="M408,173.2c1.2,0,2.4-0.1,3.6-0.5c0.8-0.2,1.7-0.8,1.6-1.6c-0.2-1.9-4.5-0.7-4.5-2.6c1.2,0.4,2.5,0.3,3.6-0.2
		c0.3-0.1,0.6-0.3,0.8-0.6c0.6-1-0.8-2-1.9-2c-1.1-0.1-2.6,0-3.1-1c-0.3-0.6-0.2-1.3,0-1.9c1.2-5,2.5-10,3.7-15
		c-1.7-0.2-3.4-0.3-5.1-0.4c-0.3,0-0.6,0-0.8,0.1c-0.6,0.3-0.7,1.2-0.6,1.9c0.8,8.2-0.1,16.5-2.6,24.3c0.3-1.2,2-1,3.2-0.7
		C406.6,173,407.3,173.1,408,173.2z"/>
</g>
<g>
	<path class="st0" d="M333.4,190.6c0.5-0.8,0.9-1.6,1.3-2.4c1.7-3.7,3.4-7.3,5.1-11c-1.8-0.9-4-1.1-6-0.5c-0.3,0.1-0.7,0.2-1.1,0.1
		c0,0-0.5-0.2-1-0.4c0,0.5,0,1,0,1c-0.2,5.5-1,11-2.5,16.4C331.1,193.6,332.4,192.2,333.4,190.6z"/>
</g>
<g>
	<path class="st0" d="M328.9,168.9c1,0.3,1.9,0.6,2.9,1c1.5,0.5,3.3,1.7,2.7,3.1c-0.4,1.1-2,1.2-3.2,0.9s-2.4-0.9-3.5-0.4
		c-0.9,0.4-1.6,1.4-2.5,1.1c-0.7-0.2-1.1-1.1-1-1.9c0.1-0.8,0.5-1.4,0.6-2.2c0.3-1.4-0.2-2.8-0.7-4.1c-1.6-5-2-10.4-1.1-15.6
		c0.3-1.9,1.1-4.1,2.9-4.7c1,0.5,2.2,0.8,3.4,0.6c0.8-0.1,1.6-0.4,2.5-0.4c0.8,0,1.8,0.6,1.8,1.4c0.1,1.2-1.4,1.7-2.6,1.9
		c-1.7,0.3-3.5,0.6-5.2,0.9c1.4,0,3.2,0.1,3.8,1.4c0.4,0.9,0,2-0.4,2.9c-0.7,1.6-1.3,3.2-1.2,5c0.1,1.7,1.1,3.5,2.8,3.9
		c0.9,0.2,2,0.1,2.5,0.9c0.8,1.2-0.9,2.4-2.2,2.8c-1.2,0.4-2.3,0.8-3.5,1.1C328.1,168.7,328.5,168.8,328.9,168.9z"/>
</g>
<g>
	<g>
		<path d="M53.9,447.8c0.3-0.8,0.6-1.6,1.6-1.9c0.3-0.1,0.6,0,1,0.1c0.3,0.3,0.3,1,0.3,1.2c0,1-0.1,1.9-0.3,2.9
			c-0.1,1-0.5,1.8-0.5,2.7c0,1.4,1.1,2.7,2.4,3.2c1.6,0.8,3.5,0.6,5.1,0.3c0.5-0.1,0.5-1-0.1-1c-1.9,0.1-3.8,0.5-5.4-0.8
			c-0.6-0.5-1-1.2-1-2.1c0-1.1,0.5-2.1,0.6-3c0.1-1,0.1-1.9,0.1-3c0-0.6-0.3-1.2-1-1.4c-1.6-0.5-2.5,1.1-3,2.4
			C53.2,447.8,53.7,447.9,53.9,447.8L53.9,447.8z"/>
	</g>
</g>
<g>
	<g>
		<path d="M66.4,444.5c-1.6,0.6-2.9,2.2-3.2,4s0.5,3.5,1.9,4.6c1.4,1.1,3.3,1.1,4.8,0.1c1.4-1,2.4-2.7,1.8-4.4
			c-0.6-1.8-2.9-3.2-4.6-2.2c-0.5,0.3-0.3,1.1,0.3,1.1s1.1-0.1,1.8,0.1c0.5,0.3,1,0.6,1.2,1.1c0.6,1.1,0.1,2.4-0.8,3.2
			c-2.4,1.9-5.4-0.5-5.2-3.2c0-1.6,1.1-3.2,2.4-4.1C66.8,444.6,66.5,444.3,66.4,444.5L66.4,444.5z"/>
	</g>
</g>
<g>
	<g>
		<path d="M73.7,445.6c0.6-1,1.6-1.8,2.7-2.1c-0.1-0.1-0.5-0.1-0.6-0.3c1,2.5-1.4,5.4,0.1,7.9c0.6,0.8,1.6,1.2,2.5,1.1
			c1-0.1,1.8-0.8,1.6-1.9c0-0.5-0.8-0.5-1,0c-0.1,0.6-0.6,1-1.2,0.8c-0.8,0-1.2-0.8-1.4-1.6c-0.1-1.1,0.1-2.1,0.3-3
			c0.3-1.2,0.5-2.4,0-3.6c-0.1-0.3-0.3-0.5-0.6-0.3c-1.4,0.3-2.5,1.4-3,2.7C72.9,445.6,73.5,445.9,73.7,445.6L73.7,445.6z"/>
	</g>
</g>
<g>
	<g>
		<path d="M88.3,441c-1.9,0-3.8,0.8-4.9,2.5c-1.1,1.6-1.1,3.8-0.1,5.5c0.8,1.6,3.2,3.6,4.8,1.9c0.8-0.8,1.4-1.8,1.9-2.7
			c0.6-1,1-2.1,1.1-3.2c0.1-1.9-1.2-4.3-3.5-4.3c-0.8,0-0.8,1.1,0,1.1c1.2,0.1,2.2,1.4,2.2,2.7c0,1.8-1.1,3.3-2.1,4.6
			c-0.1,0.3-0.5,0.6-0.8,0.8c-0.3,0.3-0.8,0.1-1.1-0.1c-0.6-0.3-1.1-1-1.4-1.4c-0.8-1.2-1-2.9-0.3-4.1c0.8-1.6,2.4-2.7,4.1-2.7
			C88.7,441.8,88.7,441,88.3,441L88.3,441z"/>
	</g>
</g>
<g>
	<g>
		<path d="M41.5,438.7c2.7-9.2,4.4-18.6,4.9-28.2c-0.3,0.1-0.8,0.1-1.1,0.3c2.5,4,3.2,9,4.1,13.5c1.1,4.9,2.2,10,3.3,14.9
			c0.3-0.1,0.8-0.3,1.1-0.5c-2.2-5.1-7.4-7.3-12.4-9.2c0,0.3-0.1,0.8-0.1,1.1c4.6-0.6,9.3-1.4,13.8-2.7c0.8-0.1,0.5-1.2-0.3-1.1
			c-4.4,1.1-9,2.2-13.6,2.9c-0.6,0.1-0.5,1,0,1.1c4.4,1.9,9.3,4.1,11.6,8.7c0.3,0.6,1.2,0.1,1.1-0.5c-1.1-5.1-2.2-10.3-3.5-15.4
			c-1-4.4-1.6-9.3-4.3-13.3c-0.3-0.5-1.1-0.3-1.1,0.3c-0.5,9.5-1.8,18.8-4.4,28C40.7,438.9,41.4,439.2,41.5,438.7L41.5,438.7z"/>
	</g>
</g>
<g>
	<g>
		<path d="M52,410.4c0.3,4.4,1.1,8.7,1.9,13c0.8,4.4,1.8,8.9,2.7,13.3c0.1,0.3,0.6,0.6,1,0.5c1.1-0.8,1.6-2.1,1.2-3.3
			c-0.3-0.8-1.4-0.5-1.2,0.3c0.1,0.8,0,1.4-0.6,1.9c0.3,0.1,0.6,0.3,1,0.5c-1-4.3-1.9-8.7-2.9-13c-0.8-4.3-1.4-8.7-2.4-13.2
			C52.8,409.9,52,410.1,52,410.4L52,410.4z"/>
	</g>
</g>
</svg>
