<?xml version="1.0" encoding="utf-8"?>
<!-- Generator: Adobe Illustrator 25.1.0, SVG Export Plug-In . SVG Version: 6.00 Build 0)  -->
<svg version="1.1" id="Lager_1" xmlns="http://www.w3.org/2000/svg" xmlns:xlink="http://www.w3.org/1999/xlink" x="0px" y="0px"
	 viewBox="0 0 500 500" style="enable-background:new 0 0 500 500;" xml:space="preserve">
<style type="text/css">
	.st0{fill-rule:evenodd;clip-rule:evenodd;fill:#197ACF;}
</style>
<g>
	<g>
		<g>
			<path class="st0" d="M142.1,172.3c-0.1-0.1,0.6-1.6,0.3-1.2c0.2-0.6,0.5-1.1,0.7-1.7c0.2-0.2-0.8,2.2-0.1,0.7
				C143,170.2,142.4,171.4,142.1,172.3z M139.8,179.8c0-0.2,0.3-1.1,0.3-1.2c0.3-1.2,0.4-0.8,0.5-1.1c0.3-0.9,1.1-3.3,1.1-2.7
				C140.8,177.1,140.3,178.6,139.8,179.8z M142,172.2c-0.4,0.9-0.8,1.9-1.1,2.8c-0.1,0,0.2-0.9,0.5-1.7
				C141.7,172.6,142,171.9,142,172.2z M135.6,205c0-1.4,0-1.1,0.2-3c0.1-1.1-0.2-0.4-0.1-1.2c0.2-2,0.4-3.9,0.8-5.9
				c0.3-1.8-0.1,1.1-0.2,1.8c0.2-0.1,0.4-2,0.6-1.7c0.2-1.1-0.1-0.4,0-1.3c0.5-3.4,0.9-3.8,1.3-5.1c0.3-1.7,0.8-3.6,1.2-4.6
				c-0.3,1.3-0.7,3-1.1,4.6c-0.4,1.6-0.8,3.3-1,4.6c0.1-0.4,0.3-1.3,0.4-1.1c-0.4,2.1-0.7,4.6-1,4.6c-0.3,1.6-0.4,3-0.5,4.3
				c-0.1,1.3-0.1,2.6-0.2,4c0-0.2-0.2,0.4-0.2,1.2c0.2,0.1,0.3-2,0.4-1.1c-0.3,1.9-0.1,2.6-0.1,4.1c0,1.1-0.2,1.8-0.1,3.5
				c-0.1,0,0-0.7-0.1-1.2c-0.1-2-0.5-1.6-0.4-4.8c0,1.5,0.3,1.2,0.3,2.5c0.1-0.1,0.1-1.1,0.1-1.8c-0.1-0.5-0.2-0.7-0.4-1.3
				C135.4,204.8,135.5,205,135.6,205z M138.2,183.6c-0.3,0.3,0.4-2.1,0.7-2.9C139,180.8,138.6,182.2,138.2,183.6z M135.6,196.5
				l0.2-1.2c0.2-1.9,0.4-1.8,0.6-2.9c1.1-5.1-0.2,0.9-0.2,1.8C136,194.9,135.8,196.6,135.6,196.5z M137.1,187.6
				c0.3-1.2,0.4-1.5,0.6-2.3c-0.1,0.7-0.7,3.1-0.3,2.4C137.1,189,137,188.1,137.1,187.6z M139.5,180.9c0.5-1.6,0.2,0.1-0.2,1.2
				c0.2-0.4,1.2-4,1.5-4.5c-0.3,1.4-0.7,2-1.2,4c-0.2,0.1-0.7,1.9-0.8,1.6C139.1,182.1,139.5,181.4,139.5,180.9z M143.8,169.1
				c0.3-0.2-0.2,0.9-0.7,2c-0.5,1.1-1,2.2-1,1.8C142.8,171.4,143.1,170.7,143.8,169.1z M395.4,137.2c0-0.3-0.1,0.1-0.3,0.8
				c-0.1,0.7-0.3,1.5-0.5,2.1c0-0.5,0.4-2.8,0.6-2.9c0.2-1.1-0.1-0.4,0-1.2c0.3-1.3,0.5-3.3,0.6-4.6c0-0.2,0.1,0.2,0.2,0
				c0.1-0.4,0.2-4.1,0.3-2.3c-0.1,2.4-0.3,2.6-0.5,3.5c-0.2,1.5-0.3,2.8-0.4,3.5c0.4-0.7,0.3-1.9,0.5-3.5c0.2-0.9,0.5-3.6,0.5-6.5
				c0-2.9-0.2-6.1-0.2-8.1c0.4,4.2,0.5,9.1,0,13.9c-0.4,4.8-1.5,9.5-2.9,13.4c0.1-0.7,0.7-2.3,1.2-4
				C395,139.6,395.4,138,395.4,137.2z M394.9,153.1c0.7,0.5,2,2.5,3,3.8c0.6,0.7,0.4,0.5,1.3,2c0.1,0.6-0.8-0.8-1.9-2.3
				C396.2,155,395,153.3,394.9,153.1z M392.5,149.8c0.1-0.2,0.1-0.6-0.2,0c0,0.1-0.1,0.2-0.1,0.2c0.5,0.5,0.6,0.5,0.3,0.1
				c0.8,0.5,1.1,1.3,2.5,3l-0.1,0.1c-1.2-1.5-1.9-2.3-2.8-3.1c0.1-0.4,0.3-0.9,0.5-1.3c0.2-0.5,0.3-0.8,0.6-1.5
				c0.5-1.2,0.8-2.3,1.2-3.4c0.3-0.9,0.5-1.5,0.7-2.1c0.2-0.6,0.4-1.3,0.6-2.5c0.2-0.7,0.1-0.2,0.2,0.1c0.3-0.5,0.8-2.9,1-4.6
				c0.4-0.5-0.9,4.8-0.5,3.6c-0.1,1.2-0.6,1.7-0.7,2.2c-0.3,1.5-0.5,1.4-0.6,1.7c-0.1,0.3-0.2,0.7-0.3,1.2c-0.1,0.4-0.3,0.8-0.4,1.1
				c-0.1,0.3-0.2,0-0.5,1.1c-0.2,0.6,0,0.3,0.1,0.1c0.4-0.7,0.4-1.2,1-2.8c0-0.1-0.1,0.9-0.1,0.6c0.3-1,0.8-3.4,0.9-2.8
				c-0.3,1.2-0.6,2.2-0.9,3.1c-0.3,0.9-0.6,1.7-0.9,2.5c-0.3,0.7-0.6,1.4-0.8,2.1C392.9,148.8,392.7,149.2,392.5,149.8z M392.6,149
				c0.2-0.4,0.3-0.5,0.4-0.7c0-0.1,0.1-0.1,0.1-0.2c0-0.1,0.1-0.1,0.1-0.3c0.1-0.3,0.2-0.6,0.4-1c0.1-0.4-0.2,0.2-0.5,0.9
				C392.9,148.3,392.6,148.8,392.6,149z M141.2,176.5c0.8-2.3,1-2.1,2.1-4.9c-0.2,0.8-0.5,1.6-0.8,2.3c-0.3,0.7-0.6,1.4-0.9,2.1
				c-0.3,1.2-1,3.8-1.6,5.1c-0.2,0.6-0.1,0.3,0.1-0.4c0.2-0.7,0.6-1.7,0.8-2.4C141.2,177.2,141,177.1,141.2,176.5z M401.8,162.8
				c1.2,2,2.2,4.8,0.6,1.6c0.6,0.9,0.3,0.4,0-0.3C402,163.6,401.6,162.7,401.8,162.8z M398.9,158.9c0.5,0.8,1,1.7,1.6,2.5
				C400.8,162.3,398.3,158.2,398.9,158.9z M144.2,167.3c-0.3,0.5-0.5,1.1-0.8,1.6l-0.2-0.1c0.3-0.5,0.5-1.1,0.8-1.6
				C143.7,168.1,144.1,167.1,144.2,167.3z M397.2,132.9c0.1,0.5-0.2,2.7-0.1,3.1c-0.7,4.1-2,9.2-3.4,12.2c1.3-3.4,2.6-7.6,3.1-11
				C397,135.3,397,134.7,397.2,132.9z M249.1,112.5c1.9-0.3,5.1-0.2,9.3-0.2c-0.5,0.2-2.9,0-4.7,0.1
				C251.9,112.4,250.7,112.5,249.1,112.5z M135,211.4c0.1-2.6-0.3,0.9-0.2-1.8c-0.1,0.4-0.1,1.4-0.2,1.2c0-1.1,0.1-1.9,0.2-3
				c0-1,0.1-3.5,0.3-2.9c-0.1,1.4-0.1,2.3-0.2,3c-0.1,1.3,0.2,0.1,0.2,0c0.1,0.4-0.1,2.7,0.2,1.8c-0.1,1.4-0.1,2.2-0.1,2.9
				c0,0.7,0.1,1.4,0,2.4c0-0.3-0.1-0.6-0.2-0.6C135,213.5,134.9,211.3,135,211.4z M397.8,121.6c0.2,0.9,0.2,2.6,0.1,3.6
				c0,0.6,0.1,0.5,0.1,0.6c-0.1,1.4,0,2.8-0.1,4.2c0,0.7-0.2,2.7-0.3,2.4c0.2-1.3,0.2-2.3,0.2-3.1c0-0.9,0-1.6,0-2.3
				c0-0.9,0.1-1.6,0.1-2.4C397.8,123.8,397.8,122.9,397.8,121.6z M318.6,322c0.1,0.3-0.8-0.7-1.8-1.6c-0.5-0.5-1-0.9-1.3-1.3
				c-0.4-0.3-0.4-0.4-0.2-0.3c0.8,0.7,0.3,0.4,1.5,1.5c1,1-0.2-0.4-0.5-0.7c-0.8-0.7-1.2-1-1.6-1.3c-0.5-0.3-0.7-0.5-1.5-1
				c-0.1-0.1-0.3-0.2-0.5-0.3c0.2,0.1,0.4,0.2,0.7,0.4c1.1,0.6,2.4,1.5,3.5,2.6C317.8,320.9,317.6,320.9,318.6,322z M352.1,309.5
				c1.3-0.5,3.5-1.3,3.3-1c-1.1,0.3-1,0.2-2.8,0.8c-0.4,0.3,2.3-0.7,1.7-0.3c-1.5,0.5-5.4,1.6-4.4,1.5c-0.8,0.5-3.1,0.9-2.8,0.6
				c0.6-0.2,1.6-0.4,2.2-0.6c0.3-0.1,0.4-0.3,0.5-0.3C350.6,310,351.5,309.7,352.1,309.5z M343.7,311.2c1.7-0.6,5.8-1.6,8.3-2.6
				c-0.7,0.3-1.4,0.7-1,0.8c-1.8,0.7-0.9,0.1-1.1,0.1c-1.5,0.4-0.6,0.3-1.1,0.5c-0.3,0.1-1.3,0.4-1.1,0.3c-0.2,0.2-0.1,0.2,0.6,0.1
				c0.3-0.1,0.7-0.2,0.6-0.2c0.6-0.1,2.3-0.5,3.3-0.9c-0.6,0.3-2.8,1.1-3.3,1.1c-3,0.8-2.8,1-5.6,1.7c0-0.2,1.9-0.7,3.4-1.1l0-0.2
				c-2.2,0.6-2.2,0.9-4.5,1.3c-0.7,0.2-0.5,0.2-0.6,0.3c-1.5,0.4-1.2,0.1-2.3,0.4c-1.6,0.4-1.1,0.5-3.4,0.9c0-0.2,1.6-0.6,3.4-1
				c2-0.6,1.7-0.6,2.2-1c2.1-0.6,0.1,0.3,2.3-0.4C344.4,311.1,344.3,311,343.7,311.2z M314.7,317.8c0.2,0.1,0.3,0.2,0.4,0.2
				c0.4,0.2,0.5,0.4,1.1,0.8c0.7,0.6,1.2,1,1.6,1.3c0.8,0.9,1.2,1.5,2.1,2.6c-0.6-0.5-1.1-1.2-1.7-1.9c-0.6-0.7-1.2-1.4-2.2-2.1
				c-0.1-0.2-0.4-0.5-0.9-0.8C314.9,317.9,314.8,317.8,314.7,317.8z M320.7,316.7c0.2,0.1-1,0.3-1.8,0.3c-0.3,0-0.6,0-0.7,0
				c-1.1,0.2-1.5,0.4-3.6,0.6c1.1-0.2,1.2-0.2,0.8-0.3c-0.2,0-0.6,0-1,0c-0.1,0-0.2,0-0.3,0l-0.2,0c0,0-0.1,0-0.1,0l0.1,0
				c0.2,0.1,0.4,0.2,0.5,0.3l0.1,0l-0.1,0c-0.3-0.1-0.5-0.3-0.7-0.4l-0.1,0c0,0,0,0,0,0l0.2,0l0.3,0c0.4-0.1,0.9-0.1,1.4-0.1
				c1-0.1,2-0.1,3.1-0.2c0.5,0,0.9-0.1,1.4-0.2C320.1,316.8,320.3,316.8,320.7,316.7z M369.9,301.9l-1.6,0.8c0.3-0.3,0.4-0.5,2-1.4
				C370.8,301.3,369.6,301.9,369.9,301.9z M369.1,301.4c-1,0.5-1,0.3-2.6,1.2c-0.5,0.3-0.5,0.4-1.5,0.9c0-0.1,0-0.2-0.6,0.1
				c0.3-0.2,0.8-0.4,1.3-0.6c0.5-0.3,1-0.5,1.5-0.8C368.1,301.7,369,301.3,369.1,301.4z M363.9,303.9c-0.3,0.2-0.9,0.5-1.7,0.9
				c-0.8,0.4-1.9,0.8-3,1.3c0.6-0.1-0.4,0.3-1.6,0.7c-1.3,0.5-2.9,1.1-3.8,1.4c-0.2-0.1,0.5-0.3,1.4-0.7c0.9-0.4,2.1-0.8,2.9-1.1
				C360.2,305.5,362.6,304.3,363.9,303.9z M365,303.7c0,0.1-0.6,0.3-1,0.5c0,0.1,0.4,0,1.1-0.3c0.1,0-3.1,1.5-1,0.7
				c-0.2,0.3-1.9,0.8-2.1,0.9c-0.6,0.3-1.5,0.7-2.1,0.9c-0.3,0.1-0.4,0-0.6,0.1c-0.8,0.3-1.9,0.8-1.6,0.5c-1,0.4-2.7,1.1-2.2,0.7
				c1.4-0.5,3.3-1.2,4.9-1.8c1-0.3,2-0.5,3.2-1.3c-1,0.3-3.5,1.5-3.3,1.1C362.9,304.6,362.9,304.8,365,303.7z M319.2,322
				c-0.1-0.2-0.3-0.5,0.1,0c0.3,0.4,0.7,0.9,1.2,1.6c0.5,0.8,1.2,1.7,1.7,2.7c1.2,1.9,2.2,4.2,3.1,6.1c0.8,2,0.7,2-0.1,0
				c-0.4-1-0.9-1.9-1.3-2.8c-0.5-0.9-1-1.9-1.5-2.8c-0.3-0.4-0.5-0.9-0.8-1.3c-0.3-0.4-0.6-0.9-0.9-1.3l-0.4-0.6L320,323
				C319.7,322.6,319.5,322.3,319.2,322z M362,305.9c-1,0.5-0.5,0.6-2.6,1.4c1.6-0.7-1.5,0.3,1-0.7c-0.4,0-2.8,1.1-2.2,0.6
				c1-0.3,2.2-0.7,3.5-1.3c1.2-0.6,2.6-1.2,4.1-1.8c-1.3,0.8,0.9-0.3,0.6,0C363.9,305.3,364.2,304.9,362,305.9z M361.1,307
				c1.8-0.6-3.9,1.5-3.8,1.6c-1.6,0.5-2.3,1-3.9,1.3c2.1-0.7,4.8-2,6-2.4C357.6,308.3,359,307.8,361.1,307z M321.5,316.2
				c-1.2,0.1-1.2,0.3-1.6,0.3c-1.2,0.1-0.9,0-1.8,0c-0.1,0-0.3,0-0.6,0c0.3-0.1,0.4-0.1,0.4-0.2c0.2-0.1-0.4-0.2,1.6-0.4
				c0.5,0.1-0.9,0.3-0.3,0.4c1.4-0.1,3.2-0.6,1.6-0.5c0.1-0.1,0.6-0.1,0.6-0.1l1.2-0.2C323,315.8,321,316,321.5,316.2
				c2.4-0.5,3-0.7,5.1-0.9c0,0.2-1.3,0.4-2.3,0.6C322.4,316.2,322.8,316,321.5,316.2z M330.4,372.2c0-0.5,0.1,0.6,0.1,2.1
				c0,1.5,0,3.4,0,4.3C330.3,377.6,330.6,374.7,330.4,372.2z M328.1,349.4c0,0.9,0.1,2.4,0.3,4.6c-0.2-0.2-0.6-4-0.4-4
				c-0.2-0.2-0.3-2.3-0.5-2.9c0,1.8,0.6,5.6,0.7,6.3c0-0.1-0.1,0.1-0.1,0c0.1,1.2,0.3,1.8,0.4,2.3c0.1,1,0,1.5,0,1.7
				c0.1,1.5,0.3,3.2,0.3,4.1c0.2,2.2-0.3,0.1-0.1,2.3c0.1,0.8,0.1,0.1,0.1-0.6c0.1,0.5,0.2,3.3,0.2,4.7c-0.1-0.7-0.2-2.2-0.3-2.9
				c0,0.1,0,0.6-0.1,0.6c0.1,1.3,0.2,1.9,0.3,2.9c-0.2-0.6-0.1,4.4-0.1,5.8c-0.1-1.1-0.2-2.1-0.3-3.5c-0.1,0.2,0,1.4,0,2.3
				c-0.1-0.9-0.2-3.1-0.3-5.4c-0.1-2.4-0.2-5-0.3-6.8c0-1,0-1.1,0.1-1.1c-0.1-0.6-0.1-0.4-0.2-1.2c-0.1-1.2,0.1-0.9,0.1-1.1
				c0-0.7-0.2-1-0.2-1.7c-0.1-1.2-0.1-3-0.2-4.6c-0.1-1.3-0.3-2.5-0.4-3.7c-0.2-1.2-0.4-2.4-0.6-3.7c-0.1-1.1-0.4-2.2-0.6-3.2
				c-0.1-0.5-0.2-1.1-0.3-1.6c-0.2-0.6-0.3-1.1-0.5-1.7c-0.3-0.9-0.5-1.4-0.6-1.6c-1.3-3.6-2.8-7-4.8-9.6c-0.1-0.2-0.2-0.4-0.4-0.7
				c-0.2-0.3-0.3-0.5-0.5-0.8c0.1,0,0.1,0.1,0.2,0.3c0.1,0.1,0.2,0.2,0.3,0.4c0.2,0.3,0.4,0.6,0.6,0.9c0.4,0.6,0.7,1.1,0.7,0.8
				c-0.4-0.7-1-1.3-1.4-2c-0.6-0.7-1.2-1.4-1.8-2c-0.4-0.4-0.8-0.9-1.3-1.4c-0.3-0.5-0.5-1-0.9-1.5c-0.7-1-1.5-1.9-2.4-2.5
				c-0.1-0.1-0.2-0.2-0.4-0.3l-0.2-0.1c-0.1,0,0,0,0,0l0.1,0c0.3-0.1,0.6-0.2,0.9-0.3c0.6-0.2,1.2-0.4,1.7-0.5
				c1.1-0.3,1.2-0.3,1.9-0.4c0,0,0.1,0,0.2,0c1.8-0.1,4.1-0.4,4.8-0.4c-0.2,0.2-1,0.3-1.9,0.4c-0.9,0.1-2,0.2-2.8,0.2
				c-0.2,0-0.3,0.1-0.4,0.1c-0.8,0.2-1.7,0.4-2.5,0.6c-0.4,0.1-0.8,0.2-1.2,0.3c-0.2,0-0.4,0.1-0.5,0.1c-0.1,0-0.2,0-0.2,0.1
				c0,0-0.1,0-0.1,0l0.1,0.1c0.2,0.1,0.4,0.2,0.6,0.3c0.2,0.1,0.3,0.2,0.3,0.2c0.3,0.2,1,0.9,1.1,1c0.2,0.2,0.6,0.6,0.9,1
				c0.4,0.4,0.7,0.8,0.9,1.2c0.1,0.2,0.3,0.4,0.4,0.6c0.2,0.2,0.3,0.4,0.5,0.5c0.3,0.3,0.6,0.6,0.8,0.9c0.4,0.6,1,1.2,1.6,2
				c0,0.3-1.7-1.9-0.3,0.1c0.5,0.7-0.1-0.2,0.2-0.1c0.8,1,1.8,2.6,2.1,2.8c2.1,4,3.2,6.8,4.2,10.1c0.4,1,0.6,2,0.9,2.7
				c0.2,0.7,0.5,1.3,0.6,1.7c0.2,1.4,0.4,3.1,0.7,5.2l-0.2,0C327.8,348.6,327.9,349.6,328.1,349.4z M322.5,329.6
				c0,0.1,0.2,0.6,0.4,1.1c0.3-0.1-0.6-1.5-1.5-3.1c0.2,0.5-0.2,0.3,0.2,1.1C322.3,329.7,321.5,327.9,322.5,329.6z M324,333.2
				c-0.7-1.7-0.8-1.3-1.3-2.6c0.1,0-0.4-0.9-0.5-1c1,1.9,0.2,0.9,1,2.6C323.2,331.7,324,333.5,324,333.2z M325.3,337
				c0-0.1-0.1-0.7-0.3-1.3c-0.2-0.6-0.5-1.4-0.7-2c-0.3-0.4,0.1,0.8-0.1,0.6C324.8,335.6,324.9,335.5,325.3,337z M328.1,361.5
				c0,0.5,0,0.7-0.1,0.6c0.1,1.4,0.2,3,0.4,2.9C328.3,363.3,328.3,362,328.1,361.5z M326.8,344.2c-0.1-0.5-0.2-1-0.2-1.6
				c-0.1-0.6-0.2-1.2-0.3-1.7c-0.2-1-0.3-1.7-0.3-1.2c0,0.3,0.4,1.7,0.6,2.9C326.7,343.9,326.9,344.9,326.8,344.2z M327.5,346
				c0.2-0.2-0.1-1.7-0.3-3.1c-0.3-1.5-0.8-2.9-1-3.1c0.3,1.6,0.6,2.2,0.8,2.9C327.1,343.4,327.3,344.2,327.5,346z M403.6,166.5
				c0.9,1.8,0.6,0.6,1.5,2.6c-0.3-0.1-1.2-2.1-1.2-1.5C403.5,166.7,403.4,166.4,403.6,166.5z M329,428c-0.2-0.8,0.1-2.9,0.1-5.2
				C329.3,421.4,329,426.6,329,428z M319.2,322.9c1.4,1.7,0.5,1,1.6,2.4c-0.3-0.3-0.7-0.9-1.1-1.5c-0.4-0.6-0.8-1.1-1-1.3
				c-0.6-0.8-0.3-0.5,0-0.1C319,322.9,319.4,323.4,319.2,322.9z M321,326.5c0,0.3-0.6-0.9-0.8-0.9c-0.8-1.3-1.3-2.1-2.6-3.5
				C318.6,322.8,319.5,324.3,321,326.5z M327.4,337.9c0.2,0.8,0.4,1.5,0.6,2.3c-0.1-0.3-0.2-0.6-0.3-0.6l0.3,1.2
				c0.2,0.7,0.3,0.6,0.1,0c0.2,0.4,0.3,0.9,0.4,1.5c0,0.6,0.1,1.1,0.1,1.4c0.1,0.1,0-0.7,0.2-0.6c0,0.7,0.1,1.5,0.2,2.4
				c0.1,0.5,0.1,1,0.2,1.5c0.1,0.6,0.1,1.2,0.2,1.9c-0.1-0.2-0.3-2.8-0.5-2.3c-0.1-0.3-0.1-1.7-0.1-1.7c-0.1-0.4-0.2-0.6-0.2-0.6
				c-0.1-0.6-0.2-1.3-0.3-2.1c-0.2-0.8-0.4-1.8-0.8-3.1c0.1,0,0-0.4-0.1-0.7C327.3,338,327.2,337.7,327.4,337.9z M135.1,222
				c-0.2,0.1-0.3-2.1-0.2-3C135,219.2,135.1,220.6,135.1,222z M325.5,334.1c0.5,1.1,0.7,2.1,1,3c0.1,0.4,0.3,0.8,0.4,1.1
				c0.1,0.3,0.2,0.6,0.4,0.9c0.6,2.1,0.3,1.6,0.7,3.4c0.3,2.2,0.7,3,0.7,4.6c-0.2-0.5-0.5-2.4-0.9-4.6c-0.1-0.7-0.4-1.6-0.6-2.5
				c-0.2-0.9-0.4-1.8-0.7-2.6c-0.3-0.8-0.5-1.6-0.7-2.2C325.6,334.7,325.5,334.2,325.5,334.1z M325,333c-0.3-0.2-0.8-1.3-1.4-2.7
				c-0.6-1.4-1.4-3-2.2-4c0.6,0.5,0.3,0.3-0.4-1.1C322.3,326.8,323.6,330.3,325,333z M326,337.5c0.3,1,0.4,1.2,0.7,2.2
				c0,0.5-0.2-0.1-0.3-0.8c-0.2-0.7-0.4-1.5-0.5-1.4c-0.2-0.7-0.4-1.3-0.6-1.9c-0.2-0.6-0.5-1.3-0.7-1.9c-0.2-0.7-0.5-1.3-0.8-2
				c-0.3-0.7-0.6-1.4-1-2.2c-0.1-0.2,0.1,0.1,0.4,0.6c0.3,0.6,0.7,1.5,1.1,2.4c0.4,1,0.8,2,1.1,2.9
				C325.7,336.3,325.9,337.1,326,337.5z M333.5,425.5c-0.2-1.5-0.5-2.2-0.6-4.8c0-0.4,0.1-2,0-2.9c0-0.9-0.1-3.2,0-5.3
				c0-1.2-0.1-1.9-0.1-3c0.3-8.4,0.1-13.7,0.3-19.3c0.1,0.4,0.1,1.1,0.1,1.8c0.2-0.4,0.1-1.5,0.1-2.9c0.2-0.4,0.3-3.4,0.3-4.6
				c-0.2,1.7-0.4,3.4-0.4,5.2c-0.1-2.3,0.1-4.3,0-7c0.2,1,0.2-1.7,0.2,1.2c0.1-0.8,0.1-2.9,0-3.5c-0.2,0.1-0.1,2.3-0.4,1.7
				c0-1,0-1.9,0-2.9c0.1,3.8,0.4-0.6,0.2-2.3c-0.1-0.1,0,1.3,0,1.7c-0.1,1.4,0-3.3-0.2-4.7c0.1-0.4,0-1.3,0.2-1.1
				c-0.2-1.8,0-4.5,0-6.4c0.2,3,0.3,6.6,0.6,7.1c0,0.6-0.1,0.4-0.1,1.2c0.1,1.8,0.1-0.5,0.2,0c0,2.2,0.1,2.8,0.1,4.7
				c-0.2,0.6-0.1-1.3-0.1-2.4c-0.3-0.6-0.1,4.1,0,4.7c0,1.8-0.2,1.3-0.1,3.5c0.1,0.6,0.1,1.2,0.2,1.8c0.1,0,0-1.9,0-1.8
				c0-0.8,0.1-0.9,0.1-1.7c0-0.9-0.1-2.7,0-4.7c0.1,5.1,0.1,10.6,0.1,15.8c-0.2-0.8-0.4-0.7-0.6-0.1c-0.1,1.8,0.1,1.7,0,3.5
				c0,1.6,0.1-1.5,0.3-0.5c0,1,0,1.9-0.1,2.9c0.3-0.2,0.3-1.8,0.2-4.1c0.2,1.5,0,6,0.1,8.8c0-0.3-0.1-0.6-0.2-0.6
				c0,1.5,0.1,1.8,0.1,2.9c0.1-0.2,0.1-0.5,0.1-1.1c0.1,2.5,0,7,0,10.6c-0.1-0.7-0.1-0.7-0.2,0.5c-0.1,1.3,0.1,2.5,0.2,1.2
				c0.1,0.1-0.1,2.5-0.1,3.5C334.1,423.6,333.8,423.8,333.5,425.5z M333.7,383.9c0.2,0.1,0.3-4.4,0-4.7
				C333.7,380.8,333.8,381.6,333.7,383.9z M333.7,394.4c0.2-1.7,0.2-2.4,0.5-1.7c0.1-3-0.3-0.9-0.3-1.8c0.2-0.9,0.2-5.4-0.1-5.3
				c-0.1,1.8,0.1,1.4,0.1,2.4C333.8,390.3,333.5,392.4,333.7,394.4z M333.9,406.7c0.2-2.3,0-2.9,0-4.1c0-0.8,0.1-3.7-0.1-2.9
				c-0.1,0.1-0.1,2.6-0.2,2.9C333.9,403.4,333.7,405.3,333.9,406.7z M333.5,405.5c-0.2-0.2-0.2,1.2-0.2,2.3
				C333.5,408.4,333.5,407,333.5,405.5z M333.9,409.7c0-1.5,0-1.8-0.1-2.4c0,0.8-0.1,1.1-0.1,2.3L333.9,409.7z M334,411.5
				c0-0.5-0.4-1.7-0.4,0.5C333.6,412.9,334.1,413.3,334,411.5z M334,419.7c0,0.6,0.1,0.5,0.1-0.6c-0.2-0.2-0.3,0.6-0.4,2.3
				C333.9,421.9,333.9,419.5,334,419.7z M414.9,209c0-1.5-0.4-4.6-0.2-4.7c0.3,2.6,0.2,3.3,0.4,5.9C415,210.1,415,209.1,414.9,209z
				 M415,207.3c0-1,0.1-0.3,0.2,0.7c0.1,1,0.1,2.4,0.1,2.8C415.2,210.2,415.4,208,415,207.3z M415,226.8c-0.1-0.2-0.1-1.4,0-2.9
				c0-1.5,0.1-3.2,0.3-4.2c0-1.1,0-2.2-0.1-3.6c0.1-0.1,0.1,0.2,0.1,0.6c0.1,0.1,0.1-0.2,0.1-0.6c0.1,0.5,0.1,1.2,0.1,2
				c0,0.8-0.1,1.7-0.1,2.6c-0.1,1.7-0.2,3.2,0,3.2C415.2,225.5,415.1,225.4,415,226.8z M414.5,202.6c-0.3-2.8-0.5-3-1-5.8
				c0.1,0,0.3,0.9,0.5,2c0.2,1,0.3,2.2,0.5,2.7c0,0.5,0.1,1.3,0.1,1.9c0,0.5-0.1,0.7-0.2-0.1c-0.2,0,0.4,2.3,0.2,2.3
				c-0.2-0.1-0.4-2.6-0.6-4.1C414.2,200.9,414.3,202.3,414.5,202.6z M414.9,218.4c0.1-3.7,0-5.4-0.1-9.4c0.1,0.3,0.3,1,0.4,2
				c0.1,1,0.2,2.4,0.2,3.9c-0.2,0.9,0-2.6-0.2-2.4C414.9,214.4,415.2,217.5,414.9,218.4z M346.7,311.9c0.1,0.1-0.9,0.4,0,0.2
				c-0.8,0.4-2.5,0.7-2.3,0.5L346.7,311.9z M412.6,192.7c0.4,1.5,0.5,2.9,1.1,5.8c-0.2-0.2-0.5-2.8-0.6-2.3
				C412.9,194.8,412.4,192.5,412.6,192.7z M406.2,170.6c0.4,0.4,2.6,5.6,2.9,7.2c0,0.5-0.4-1-0.6-1.7
				C407.9,174.5,406.8,172,406.2,170.6z M414.6,224.9c-0.3,3.7,0.4,0.5,0,4.2c-0.1-0.4-0.1-1.9-0.3-1.9c0.1-1.2,0.2-2.5,0.2-3.6
				c0-1.1,0.1-1.9,0.3-2.3C414.8,223.2,414.8,226.4,414.6,224.9z M410.2,180.6c0.3,0.7,0.7,1.9,1.1,3.3c0.2,0.7,0.4,1.4,0.6,2.1
				c0.2,0.7,0.4,1.4,0.5,2c-0.2-0.7-0.4-1.3-0.6-1.9c-0.2-0.6-0.4-1.3-0.6-1.9C410.9,182.9,410.6,181.7,410.2,180.6z M411.5,186.9
				c0.3,1.5,0.5,1.7,0.8,3.4c-0.2-0.2-0.6-2.1-0.8-2.3C411.4,187.3,411.4,187,411.5,186.9z M406.4,172.4c0.2,0.1-0.1-0.8-0.8-2.2
				c0.8,1.2,1.9,4.3,2.9,6.5c0.1,0.6,0,0.6,0.4,1.7c0.6,1.7-0.1-0.6,0.2,0c0.1,0.5,0.4,1.3,0.7,2.2c0.1,0.6-0.8-1.6-0.2,0
				c-0.1-0.1-0.4-0.8-0.6-1.5c-0.3-0.7-0.6-1.5-0.6-1.8c-0.4-1.1-0.4-0.7-1-2.2c0-0.3,0.4,0.8,0.8,1.6c0.2,0.1-0.1-0.5,0-0.6
				c-0.4-1-0.8-1.6-1.2-2.4c-0.4-0.7-0.8-1.6-1.5-3c0.9,1.3-0.2-0.8-0.9-2.2c0.1-0.1,0.4,0.6,0.5,0.5
				C405.7,170.8,405.6,170.8,406.4,172.4z M413.9,193.8c0.1,1.4,0.7,3.6,1,5.9c0.1,1.1,0.1,1.2,0.2,2.4c0.1,1.1,0.2,1.2,0.3,2.4
				c0.5,4.6,0.7,10.7,0.5,16.6c-0.2-0.1-0.2-1.1-0.1-2.2c0.1-1.1,0.1-2.4,0.1-3.1c0-1.7-0.2-2.8-0.1-4.2c0-0.7-0.1-0.6-0.1,0
				c-0.2-0.6-0.1-2.6,0.1-2.3c-0.4-5.1-0.7-8.7-1.5-12.4C414,195.6,413.8,194,413.9,193.8z M341.6,313.4c1.5-0.2-3.4,1-4.6,1.2
				C337.2,314.4,341.3,313.7,341.6,313.4z M334.7,313.5c1.1-0.2,2.3-0.3,3.4-0.6c0.2,0.1-0.8,0.3-1.7,0.5
				C335.4,313.5,334.4,313.6,334.7,313.5c-0.5,0.2-2.8,0.6-4.6,1c-1.7,0.4-3.1,0.4-4.6,0.7c-0.1-0.1-1,0-2.3,0.2
				c0.9-0.2,1.9-0.4,3.1-0.5c1.2-0.1,2.4-0.3,3.8-0.5C331.8,314.1,333.1,313.7,334.7,313.5z M339.8,313.5c-0.4-0.1,2-0.5,1.1-0.6
				c1-0.2,1.5-0.3,1.7-0.3C341.7,312.9,342,313,339.8,313.5z M342.7,312.6c1.6-0.4-0.7-0.2,1.7-0.8c0.7-0.1-1.6,0.7,0,0.3
				C344.2,312.3,342.8,312.7,342.7,312.6z M340.3,312.2c-1.7,0.4-2.2,0.3-3.4,0.7C335.1,313.3,341.5,311.5,340.3,312.2z
				 M411.2,254.8c-0.5,2.5-0.6,2.3-1,4.2c-0.3-0.1,1-3.5,0.5-3.1C411,253.9,411,255.1,411.2,254.8z M370.1,304.4
				c-1.4,0.8-3,1.7-4.8,2.4c-1.7,0.7-3.4,1.5-5,2.1c-2.4,1-3.9,1.8-5.5,2.2c-0.1-0.1,0.4-0.3,1.2-0.5c0.7-0.3,1.6-0.6,2.2-0.9
				c1-0.4,1.9-0.8,2.7-1.2c0.8-0.3,0.8-0.3,1.1-0.4c0.6-0.3,2.1-1.1,2.7-1.2C367.5,305.7,367.3,305.7,370.1,304.4z M331.8,314.4
				c0.5-0.2,1.8-0.4,2.9-0.7C335.1,313.8,332.7,314.3,331.8,314.4z M326,316.2c-0.4,0-1,0.1-1.6,0.1c-0.6,0.1-1.2,0.1-1.8,0.2
				c0.3-0.2,1-0.3,1.8-0.5c0.8-0.2,1.8-0.3,2.8-0.5c2-0.3,4.3-0.7,6.3-1.1c0.7-0.1,0.5-0.2,0.6-0.3c1.6,0,3.1-0.7,5.1-1.2
				c1.8-0.4,1.5-0.2,2.9-0.5c-1.8,0.6-4,0.9-6.2,1.5c-1,0.3-1,0.5-2.9,0.9c-0.2-0.1,0.5-0.2,0.6-0.3c-1.7,0.4-3.5,0.7-5,0.9
				C327.1,315.8,326.1,316,326,316.2z M336.5,315.7c-0.6,0.4-2.8,0.8-5.2,1.2c-0.3,0.1-1.6,0.4-2.7,0.6c-1.1,0.2-2.1,0.3-2,0.1
				c0.8-0.1,1.7-0.3,2.7-0.4c0.9-0.2,1.9-0.4,2.7-0.6C333.8,316.2,335.4,315.9,336.5,315.7z M150,317.2c1.1,0.9,2.5,2.2,3.9,3.6
				l0.5,0.5l0.6,0.6c0.2,0.3,0.5,0.5,0.6,0.8c0.1,0.3,0.3,0.6,0.4,0.9c0.4,0.8,0.7,1.6,1.1,2.3c-0.3-0.6-0.7-1.3-1.1-2.1
				c-0.1-0.2-0.2-0.5-0.4-0.8c-0.1-0.3-0.3-0.6-0.5-0.8l-0.6-0.7L154,321C152.6,319.7,151.2,318.3,150,317.2z M392.8,135.1
				c0.1,0.4-0.3,2.1-0.6,3.3C392.2,138.1,392.6,136.4,392.8,135.1z M392.4,139.1c0.2-0.8,0.4-1.6,0.5-2.5c0.2-0.8,0.3-1.7,0.4-2.5
				c0.1-0.1,0,1.3-0.3,2.6C392.8,138,392.4,139.3,392.4,139.1z M391.9,138.3c-0.1-0.4,0.2-1.5,0.5-2.8
				C392.5,135.7,392.2,137.7,391.9,138.3z M391.4,104.2c-0.2-0.2-0.7-2.7-1.1-3.9C390.7,100.8,391,102.5,391.4,104.2z M391.2,139.2
				c-0.4,1.9-0.8,3.3-1.3,4.5c-0.2,0.6-0.5,1.2-0.7,1.8c-0.2,0.4-0.3,0.8-0.5,1.2c-0.2,0.5-0.5,1.1-0.8,1.7c0.3-1-0.9,1.7-1.3,2.5
				c0.2,0.2,0.2,0.3-0.1,0c0.7-1.4,1.3-2.8,1.9-4.1c0.4-0.9,0.7-1.7,1-2.4c0-0.1,0.1,0.1,0.1,0.1c0.2-0.4,0.7-2.1,0.8-2.6
				c0.2-0.8-0.1,0.1-0.1-0.6c0.5-1.2,0.7-2.8,1.2-4.7c0.1-0.6,0-0.3-0.1,0c-0.1-0.6,0.3-1.4,0.4-2.2c0.2-0.2-0.4,3.3,0,1.7
				c0,1.1-0.6,2.7-0.5,1.5C391.3,138,390.9,139.5,391.2,139.2z M389.2,151.5c-0.2-0.1-0.5-0.4-0.9-0.8c0.3-0.8,0.9-2.1,1.5-3.4
				c0.3-0.8,0.4-1.1,0.6-1.6c0.2-0.4,0.4-0.9,0.5-1.2c-0.1,0.5-0.4,1.3-0.7,2.2c-0.5,1.3-1.3,2.6-1.8,4
				C388.6,150.9,388.9,151.2,389.2,151.5z M388.3,96.2c0.1,0,0-0.5-0.1-1c-0.1-0.1-0.1-0.2-0.2-0.2c-0.1,0-0.2,0.1-0.3,0.1
				c-0.3,0-0.6,0-0.9,0c-0.1,0-0.3,0-0.5,0c-0.3,0-0.6,0-1,0c0.7-0.1,0.8-0.1,0.8-0.2c0,0,0.1-0.1,0.5-0.2c1.2,0-0.1,0.1-0.1,0.2
				c0.5,0,0.8-0.1,1.2-0.2c0.1,0,0.2,0,0.3,0c0,0,0.1,0,0.1,0l0,0.1c0,0.1,0,0.1,0.1,0.2c0.1,0.2,0.2,0.6,0.3,1
				c-0.2,0-0.2,0.2-0.1,0.5c0,0.1,0.4,1.1,0.7,2.2c-0.1,0-0.4-0.5-0.6-1.3c-0.2-0.4-0.4-1-0.6-1.7C388.1,95.6,388.2,95.9,388.3,96.2
				z M387.9,149.3c-0.1,0.3-0.4,0.8-0.6,1.5c0.6,0.6,1.3,1.4,2,2.2c0.6,0.7,1.2,1.4,1.8,2.1c-0.1,0-0.2-0.1-0.3-0.3
				c-0.2-0.3-0.5-0.6-0.9-1c-0.3-0.4-0.8-1-1.3-1.5c-0.5-0.5-1-1-1.4-1.5C387.5,150.2,387.8,149.7,387.9,149.3z M389.7,142.7
				c-0.1,0,0.5-1.8,0.7-2.6C390.5,140.3,390.1,141.9,389.7,142.7z M381.4,95.8c-0.5,0.1-0.9,0.2-1.3,0.3c-0.5,0.1-1.1,0.2-2,0.4
				c0-0.1,0.5-0.2,1.1-0.4C379.9,96,380.7,95.9,381.4,95.8z M366.1,99.4c0.4-0.1,0.9-0.2,1.6-0.5c-0.9,0.4-1.4,0.7-3.2,1.3
				C364.7,100,366,99.6,366.1,99.4z M391.2,153.8c2.5,3.1,3.8,5.1,5.2,7.2c1.3,2.1,2.6,4.2,4.3,7.7c0.3,0.8,0.1,0.4-0.3-0.5
				c-0.4-0.8-1-2-1.4-2.6c-1-1.8-2.4-4.1-3.9-6.4c-0.8-1.1-1.6-2.3-2.4-3.3c-0.4-0.5-0.8-1-1.2-1.5l-0.3-0.4l-0.4-0.5
				c-0.3-0.3-0.5-0.6-0.8-0.9c-0.1-0.1,0.1,0,0.3,0.2C390.7,153.1,390.9,153.4,391.2,153.8z M345.1,109.5c-2.1,1.3-1.9,1-1.6,0.6
				C345,109.2,344.6,109.7,345.1,109.5z M320.1,119.3c-1.5,0-2.5,0-2.3-0.2C319.3,119.1,320.3,119.1,320.1,119.3z M342.5,111.9
				c-1.4,0.9-3,2-4.6,3.1c-0.8,0.6-1.6,1.1-2.4,1.7c-0.4,0.3-0.8,0.6-1.2,0.8c-0.6,0.5-1.3,1-1.9,1.4c-0.1,0.1-0.3,0.2-0.4,0.3
				c-1.2,0-1.7,0-2.3,0.1c-0.3,0-0.5,0-0.9,0c-0.3,0-0.6,0-1.2,0c0.1,0,0.6-0.1,0.6-0.1c-3.1-0.1-4.3,0.1-6.4,0.1
				c0.8-0.3-1.4-0.3-2.8-0.4c1.5-0.3,5.3,0,6.4,0.1c0.2-0.1,1-0.2,1.9-0.3c0.5,0,1-0.1,1.4-0.1c0.3,0,0.6,0,0.9,0c0.4,0,0.7,0,1,0
				c0.2,0.1-0.7,0.1-1.6,0.1c-0.6,0-1.2,0-1.3,0.1c0.3,0.1,0.8,0.1,1.2,0.1c0.7,0,1.4-0.1,1.7-0.1c0.3,0,0.7,0,1.3,0
				c0.5-0.4,1.2-1,1.8-1.5c0.1-0.1,0.2-0.2,0.4-0.3c0.1-0.1,0.2-0.1,0.3-0.2c0.2-0.1,0.3-0.2,0.4-0.3c0.1,0,0,0.1,0.1,0.1
				c0.6-0.4,1-0.9,1.8-1.4c0.7-0.5,0.7-0.4,1-0.6c0.6-0.4,1.2-0.9,2.4-1.6c0.2-0.1,0.8-0.5,1-0.6C341.5,112.2,340,113.5,342.5,111.9
				z M340.5,113c-2.1,1.5-3.9,2.2-3.7,2.7C338.2,114.6,340.4,113.2,340.5,113z M383.7,94.6c0.1-0.1,0.3-0.1,0.6-0.2
				c0.3,0,0.7,0,1.1-0.1c0.3,0,0.7,0,1.1,0c0.3,0,0.5,0,0.7,0c-0.1,0.1-0.5,0.1-1.1,0.1C385.2,94.5,384.3,94.4,383.7,94.6z
				 M382.5,95c0.6-0.1,1.7-0.3,3-0.3c0.5,0,0.9,0,1.4,0c0.4,0,0.8,0,1.1,0c-0.4,0.1-1.1,0.1-1.8,0.1c-0.6,0-1.3,0-1.9,0.1
				C383.7,94.9,383.1,94.9,382.5,95z M308.7,117.5c-1.1,0.2-2.4,0-4.7,0.1C302.5,117.5,307.5,117.6,308.7,117.5z M328.5,117.6
				c-2.1,0.1-5,0-8.2,0c-2.6,0-12,0-7-0.1C317.2,117.6,324.3,117.6,328.5,117.6z M155.3,109.7c-0.5,1.5,0.7-4.5,1.2-6.4
				c-0.2,1.2-0.5,3.4-0.9,4.6C155.3,108.7,155.2,109.6,155.3,109.7z M154.2,118.4c0-1.1,0.2-2.1,0.3-3.3c0.1-1.1,0.2-2.4,0.4-3.7
				c-0.1,0.8-0.2,2.5-0.3,4c-0.1,0.8-0.2,1.5-0.2,2C154.3,118,154.2,118.3,154.2,118.4z M153.5,122.4c0,1.5-0.2,0.1-0.2,0
				c0-1.5,0.2-1.8,0.2-2.9C153.7,119.9,153.3,122.2,153.5,122.4z M402.6,172.8c0.4,0.7,1.1,2.3,1.7,3.9c0.6,1.6,1.2,3.2,1.4,4
				C404.7,178.2,403.4,174.4,402.6,172.8z M318.4,118.8c-0.3,0.5-5.2,0.5-8.8,0.3c-0.8,0-0.1,0.1,0.6,0.1c-1.7,0.2-3.8-0.1-5.2-0.1
				c-0.7,0-0.3,0.1,0,0.1c-1.4,0.1-5.2,0.1-6.4-0.1c-0.9,0.1-3.3,0-3,0.2c-2.3-0.2-4.9-0.1-8.1-0.1c-1.4-0.1-1.3-0.3-3.4-0.3
				c-1.4,0.1,3.2,0.1,1.1,0.4c-1.2,0-1.8,0-1.7-0.1c-4,0-9.2-0.1-12.2,0c-1.3,0-1.8-0.1-1.7-0.2c-0.9,0.2-4.2,0.2-7,0.1
				c-0.6,0.2-3.2,0.1-4.7,0.2c-0.2-0.1,0.9-0.1,1.8-0.1c-1.5-0.2-3.7,0.1-5.2-0.1c-0.7,0-0.3,0.1,0,0.1c-0.6,0.2-0.9,0-1.7-0.1
				c0,0-2.6,0-2.9,0c-1,0-2,0-2.9,0c-0.7,0-1.7-0.1-1.7-0.1c-0.7,0-1.5,0.2-2.4,0.2c-0.9,0-1-0.1-1.7-0.1c-0.5,0-0.6,0.1-1.2,0.1
				c-2.3,0-3.7-0.2-5.2-0.1c-0.2,0,0.9,0.1,1.5,0.1c-2.6,0.1-5.4-0.1-7.9-0.1c-0.9,0-1.9,0-2.9,0.1c-0.3,0-1.3-0.1-2.3-0.1
				c-0.8,0-0.1,0.1-0.6,0.1c-0.3,0-0.5,0-1.3,0c-0.6,0-1.3,0-2,0c-0.5-0.3-0.9-0.6-1.3-0.9c-0.2-0.1-0.4-0.3-0.6-0.4
				c-0.1-0.1-0.3-0.2-0.4-0.2c0.1,0,0.2,0,0.7,0.3c0.4,0.3,1,0.6,1.7,1.1c0.3,0,0.6,0,0.9,0c-0.4,0-0.7,0-0.9,0
				c-0.8-0.6-0.4-0.4,0-0.1c0.5-0.1,1-0.1,0.1-0.2c0,0,0,0,0,0c-0.6-0.4-0.8-0.5-1.5-1c-0.6-0.4-0.7-0.4-0.7-0.4c0,0,0,0.1,0.1,0.2
				l0.1,0.1l0.1,0.1c0.1,0.1,0.2,0.1,0.2,0.2c0.1,0.1,0.2,0.2,0,0.1c-0.1-0.1-0.2-0.1-0.3-0.1c-0.1,0-0.2-0.1-0.2-0.2
				c-0.1-0.1-0.3-0.2-0.4-0.3c-0.3-0.2-0.7-0.5-1.1-0.8c-0.2-0.1-1.4-0.8-1.5-0.8c-0.2-0.1-2.1-1.5-2-1.2c-1.1-0.6-0.6-0.5-1.4-1
				c-0.8-0.5-1-0.5-1.1-0.5c-2-1.4-3.6-2.3-6-3.5c-1.2-0.8-2.2-1.4-3.9-2.3c-0.2,0,0.3,0.3,0.9,0.6c-0.9-0.4-1.8-1-3.6-1.8
				c-1-0.5-0.4,0-1.2-0.3c-1.5-0.9-2.3-1-3.2-1.4c-0.5-0.2-1.7-0.8-2.6-1.2c-1.9-0.8-4.6-2-7.6-3.1c-3-1.1-6.3-2.2-9.3-2.9
				c-0.6-0.1-1.3-0.3-2-0.4c-0.7-0.1-1.3-0.2-1.7-0.4c-1.2-0.2-0.8,0-1.6-0.1c-0.8-0.1-1.5-0.2-2.2-0.2c-0.4,0-0.7-0.1-1,0
				c-0.2,0-0.3,0-0.5,0c-0.2,0-0.4,0-0.6,0l-0.2,0l-0.1,0.1l-0.1,0.3c-0.1,0.2-0.2,0.4-0.2,0.5c-0.2,0.5-0.4,1.1-0.6,1.6
				c-0.2,0.5-0.4,1.1-0.6,1.6c-0.2,0.5-0.3,1.1-0.5,1.6c0.2-1,0.5-2,0.9-3.1c0.2-0.5,0.4-1.1,0.6-1.6l0.1-0.3l0-0.1
				c0-0.1,0.1-0.2,0.1-0.3c0-0.2-0.1-0.1-0.2,0.2c-0.1,0.2-0.2,0.5-0.3,0.8c-0.2,0.4-0.3,0.8-0.4,1.1c-0.2,0.6-0.6,1.6-0.6,1.5
				c-0.4,1.3-0.4,1.9-0.7,2.7c-0.4,1.4-0.9,3-1.1,4.5c-0.1,0.7-0.3,1.4-0.4,2.1c-0.1,0.6-0.1,1.2-0.1,1.6c-0.4,2.4-0.6,4.7-0.8,6.7
				c0,1-0.1,2-0.1,2.9c-0.1,0.9-0.1,1.8-0.2,2.6c0.2,3.3,0.4,9.4,1,13.4c0.1,0.3,0.2,0.8,0.3,1.4c0.1,0.6,0.3,1.4,0.5,2.3
				c0.2,0.9,0.3,1.8,0.5,2.8c0.2,1,0.5,1.9,0.7,2.9c0.5,1.9,1,3.8,1.5,5.6c-1,1-2,1.9-2.9,2.9l-0.5,0.5l-0.4,0.4
				c-0.2,0.3-0.5,0.6-0.7,0.8c-2.2,2.7-4.2,5.6-5.7,8.1c-1.5,2.6-3.1,5.3-3.8,7.5c-0.8,1.2-1.1,2.5-1.7,4.1
				c-0.3,0.9-0.4,0.9-0.6,1.5c-1.1,2.9-2.1,6.6-2.9,10.3c-0.5,1.9-0.9,3.7-1.2,5.5c-0.2,1.2-0.2,2.2-0.4,3.4
				c-0.2,1.3-0.4,2.6-0.6,3.9c-0.2,1.9-0.2,3.8-0.4,5.6c0,0.5,0.1,0.5,0.1,0.6c-0.1,1.3-0.2,2.6-0.2,4.5c-0.1,1.7-0.4,2.7-0.2,6.2
				c-0.1,1.1-0.4-2.4-0.7-1.8c-0.2,0.6,0.1,3,0.1,4c0.1,0.9,0.1-0.1,0.3,0.6c0.1,2.1-0.2,1.2-0.1,2.8c0.1,2.1,0.3,1.6,0.4,3.4
				c-0.1-0.1-0.1,0.7-0.2,0.6c0.2,2,0.4,2.2,0.5,4c-0.1,0.2-0.2-0.5-0.3-0.6c0.3,2.1,0.6,3.9,0.7,5.1c0.1,0.7,0.1,0.3,0.1,0
				c0.2,0.8,0.4,2.2,0.6,3.5c0.2,1.3,0.5,2.6,0.5,3.3c0.3,1.1,0.3,0.4,0.4,1.7c0.3,1.5,0.7,2.6,1,3.4c0.1,0.8,0,0.7,0.1,1.7
				c0.1,0.4,0.3,0.9,0.5,1.7c0.1,0,0-1,0.2-0.6c0.3,1.4,0.1,0.7,0,0.6c0.3,1.6,0.5,1.4,0.8,2.7c0.3,1.4,0.3,2.8,1,3.8
				c0-0.1-0.4-1.6-0.5-1.6c-0.2-0.9,0.1-0.6,0.1-1.1c0.2,0.6,0.4,1.3,0.6,2c0.2,0.7,0.4,1.5,0.8,2.4c-0.3-0.2-0.9-3-1-2.7
				c0.1,0.5,0.3,1.2,0.5,1.8c0.2,0.7,0.5,1.4,0.8,2.1c0.5,1.4,1.1,2.6,1.3,3c0.6,1.7,2.2,4.9,1.8,4.7c0.8,2,0.8,1.4,1.6,3
				c0.4,0.9-0.2-0.3-0.6-1c-0.1,0.3,1.5,3.3,0.3,1.6c0.3,0.7,1.4,2.9,1.9,3.5c-0.3-0.5-0.8-1.6-1.2-2.5c0.5,0.8-0.1-0.9,1.1,1.4
				c1.3,2.3-0.4-0.5-0.2,0.1c1,1.7,1.5,2,1.8,2.9c0.9,1.4-0.2-0.5,0.2-0.1c0.2,0.5,0.7,1.3,1.3,2.1c0.6,0.8,1.3,1.8,1.8,2.5
				c0.6,0.9-0.8-0.7,0.4,1c0.6,0.8,0.9,1.2,1.1,1.3c0-0.1-1-1.3-0.9-1.4c-0.1-0.3,0.2,0.1,0.6,0.6c0.4,0.5,0.9,1.2,1.3,1.6
				c-0.1-0.3-0.4-0.7-0.9-1.2c-0.5-0.5-1-1.2-1.5-1.9c0.4,0.3,1,1.1,1.7,2c0.8,0.9,1.7,2,2.6,3.1c-0.2-0.1-0.7-0.7-0.9-0.8
				c1.2,1.4,1.8,2,2.2,2.5c0.4,0.5,0.5,0.8,1,1.4c0.3,0.3,0.4,0.4,0.8,0.8c-0.4-0.7-1.4-1.9-1.5-2.3c0.8,0.9,1.5,1.7,1.3,1.8
				c0.6,0.7,1,1,1.4,1.3c0.3,0.3,0.6,0.4,0.8,0.5c0.5,0.5,0.7,0.8,0.6,0.9c0.7,0.6,0.8,0.7,1.1,0.9c0.2,0.2,0.5,0.4,1.6,1.3
				c0.7,0.6,1.8,1.4,1.7,1.5c1.7,1.2-0.1-0.3,1.1,0.5l-1.3-1c0.3,0.1,1.1,0.8,1.7,1.3c0.7,0.5,1.2,1,0.8,0.8c1,0.7,1.7,1.2,2.4,1.7
				c0.7,0.4,1.3,0.9,2.3,1.4c-0.5-0.4-1.8-1.2-2.7-1.8c-0.9-0.7-1.5-1.2-0.8-0.8c1.3,0.9,0.9,0.9,2.2,1.7c0.4,0.2,0.5,0.2,1,0.5
				c0.1,0-0.5-0.5-0.3-0.5c-1-0.6-1.3-0.7-1.9-1.1c-0.4-0.4,0.3,0.2,1.3,0.7c1,0.6,2.1,1.3,2.5,1.6c0,0.1-0.7-0.3-0.6-0.1
				c0.9,0.5,2.3,1.2,3.4,1.8c0.6,0.3,1.1,0.6,1.5,0.9c0.4,0.2,0.8,0.4,0.9,0.6c1.1,0.4-0.3-0.4-0.8-0.7c1.5,0.6,2.7,1.3,4.1,2
				c1.4,0.6,2.8,1.4,4.7,1.9c1.7,0.5,0.5,0.4,2.6,1c1.7,0.6,1.2,0.2,2.2,0.5c2.5,0.9,4.3,1.2,5.9,1.8c0.6,0.1,0.6,0,1.7,0.3
				c0.8,0.1,0.8,0,1.7,0.1c-0.6-0.2-0.4-0.2,0.6,0c0.1,0.2-1.7,0,0.4,0.5c1.4,0.3-0.7-0.2,0.1-0.2c2.1,0.4,3.5,0.5,5.1,0.7
				c1,0.2,1.9,0.3,2.9,0.5c0.9,0.2,2,0.3,3.3,0.4c1.4,0.1-0.2-0.3,1.7,0c1.8,0.1,0.3,0.1,0.5,0.2c0.3,0.1,1.8,0.1,1.7,0.3
				c0.5,0,1.1,0,1.4,0c0.3,0,0.4,0,0.4-0.1c0.1-0.1-0.1-0.1,0.7-0.2c2.5,0.3,7.4,0.1,10.8-0.3c2.1,0-0.6,0.2-1.6,0.4
				c0.7,0,2.3-0.1,4.2-0.3c1-0.1,2-0.2,3.1-0.3l1.6-0.2l0.4,0l0.2,0c0.1,0,0,0,0.1,0c0,0,0.2,0,0.2,0.1c-0.5,0.1-0.6,0.2-0.8,0.2
				c-0.1,0-0.1,0-0.1,0c0,0,0,0-0.1,0c-0.1,0-0.2,0-0.3,0c-0.4,0.1-1.1,0.1-2,0.2c0,0,0.6,0,1.3,0c0.2,0,0.4,0,0.6,0
				c0.1,0,0.1,0,0.1,0c0,0,0,0,0.1,0c0.1,0.1,0.2,0.1,0.3,0.2c0.1,0,0.2,0.1,0.3,0.1c-0.9,0.7,1-0.4,0.9-0.2c-1.6,1.2-2,1.6-2.6,2.1
				c-0.6,0.5-1.3,1.1-3.2,2.6c-1.2,0.9-0.7,0.7-0.7,0.8l-0.7,0.5l-0.6,0.5c-0.4,0.3-0.8,0.6-1.2,0.9c-0.7,0.6-1.6,1.2-2.1,1.8
				c-1,1.1-2.2,2.2-2.9,3.4c-0.3,0.4-0.5,0.8-0.8,1.1c-0.2,0.3-0.4,0.7-0.6,1c-0.4,0.7-0.8,1.3-1.2,1.9c-0.2,0.5-0.1,0.4-0.2,0.5
				c-0.3,0.5-0.5,1-0.7,1.4c-0.2,0.5-0.4,0.9-0.6,1.3c-0.2,0.4-0.3,0.8-0.5,1.2c-0.1,0.4-0.3,0.7-0.4,1.1c0,0.1-0.1-0.1-0.1-0.1
				c-0.2,0.4-0.7,2-0.8,2.6c-0.1,0.6,0,0.4-0.2,1.1c0,0.7,0.5-1.7,0.5-0.9c-0.4,2.4-0.8,1.1-1.1,4.2c-0.1,0.1,0-0.5-0.1-0.6
				c-0.2,0.8-0.3,1.6-0.4,2.2c0,0.3,0,0.6-0.1,0.9c0,0.4-0.1,0.8-0.2,1.1c-0.1,1.1,0,0.8,0.1,1c-0.1,0.7-0.2,1.3-0.3,2l-0.1,0.5
				c0,0,0,0.1,0,0.1l-0.1,0.1l-0.2,0.1c-0.3,0.1-0.5,0.3-0.8,0.4c-1.1,0.5-2.1,1-3.1,1.4c-0.7,0.3-1.4,0.6-2.1,0.9
				c-0.7,0.3-1.4,0.5-2.2,0.8c0.1-0.1,1.7-0.6,1.7-0.7c-0.7,0.1-6.3,2.3-2.3,1c-0.2,0.2-2.9,0.9-4.1,1.3c0.2-0.2-0.4-0.1-0.6-0.1
				c-0.7,0.2-0.3,0.1,0,0.1c-1.4,0.6-5.8,1.1-6.6,1.5c-1.9,0.3-1.4,0-3.6,0.4c-0.3,0.2,0.9,0,1.8-0.1c-0.3,0.1-1.2,0.2-2.1,0.3
				c-0.9,0-1.8,0.1-2.2,0.1c-1.1,0.1,0.8,0.2-1.9,0.2c-1.3,0.1-1.2-0.1-1.2-0.1c-1,0-2,0-3,0c-1,0-2.1,0-3.2-0.1
				c-0.4,0-0.7-0.2-1.2-0.2c-0.8-0.1-1.1-0.1-1.3-0.1c-0.8-0.1-1.8-0.4-3-0.6c-1.2-0.3-2.5-0.7-3.7-1c-1.1-0.4-3.1-1.1-4.1-1.6
				c-0.7-0.3-1.5-0.6-2.1-0.9c-0.7-0.3-1.3-0.7-1.8-1.1c-0.1-0.1-0.4-0.3-0.9-0.5c-0.4-0.3-0.8-0.6-1.3-0.8c-0.1,0-0.6-0.3-0.6-0.3
				c-0.1-0.1-1-0.7-1.9-1.5c-0.9-0.7-1.8-1.5-2.2-1.6c-0.9-0.8-1.6-1.5-2.4-2.3c-0.8-0.8-1.6-1.7-2.9-3.1c-0.5-0.5-1.7-2.1-1.6-1.9
				c-0.5-0.7-0.5-0.8-1-1.5c-1.1-1.6-1.1-1.3-1.7-2.6c-0.4-0.5-0.8-1-1.2-1.5c-1.1-2-2.2-4-3.1-6l-0.7-1.5c-0.1-0.1-0.1-0.3-0.2-0.4
				l-0.9-1l-1-1c-2.8-2.7-5.8-5-8.7-6.9c-0.4-0.3-0.6-0.5-0.8-0.7c-4.5-2.6-9.4-4.7-14.2-5.2c-1.3-0.1-0.4,0.1-2,0
				c0.3-0.2-0.6-0.3-1.4-0.3c-0.2,0.1,0.1,0.1,0.5,0.1c0.3,0,0.7,0.1,0.5,0.2c-0.6,0-1.2,0.1-1.6,0c-0.1,0-0.2,0-0.3,0
				c-0.1,0-0.1,0-0.1,0c0,0-0.1,0-0.1-0.1c-0.2,0.1-0.2,0.2-0.2,0.3c-0.2,0-0.3,0.1-0.4,0.1c-0.1,0-0.3,0-0.3,0.2
				c-0.1,0.2-0.1,0.5,0.1,0.8c-0.4-0.2-0.5-0.2-0.9-0.3c0.1,0.3,0.2,0.3,0.3,0.3c0.2,0.4,0,0.4,0.1,0.7c0.1,0.1,0.2,0.2,0.3,0.2
				c0.2,0.2,0.4,0.3,0.6,0.5c0.4,0.3,0.9,0.7,1.3,1c0.9,0.6,1.6,1.1,2.4,1.4c1.1,0.6,0.5,0.4,1.4,0.9c0.6,0.3,0.4,0.1,1.2,0.5
				c1,0.5,1.5,0.9,1.9,1.2c0.5,0.3,0.9,0.6,1.7,1.2c0.2,0.3,0.6,0.7,2.4,2c0.6,0.4-0.3-0.5-1.1-1c-0.8-0.6-1.3-1,0.3,0.1
				c0.8,0.6,1.8,1.5,1.9,1.6c1.2,1,1.5,1.2,2,1.6c0.8,0.7,0.9,1,1.7,1.8c1.7,1.7,3.5,3.8,4.9,5.7c1.5,2,2.7,3.8,3.4,5
				c0.4,0.6,0.4,0.4,0.5,0.5c1.5,2.6,3.8,7.1,5.2,9.7c0.5,1.1,0.7,1.8,1.1,2.8c0.4,1,0.6,1.3,0.8,1.7c0.3,0.7,0.2,0.8,0.3,1.1
				c0.1,0.2,1,2.2,1.1,2.3c0.5,0.8,0.8,1.4,1.6,2.6c-0.1-0.1-0.6-1.1-1-1.8c-0.2-0.6,0.2,0.2,0.7,1.2c0.6,0.9,1.4,2.1,1.8,2.6
				c-0.9-0.8,0.8,1.2-0.6-0.3c0.1,0.5,0.8,0.6,1.7,1.9c0.6,0.4-0.7-1.1,0.2-0.1c1.4,1.4-0.2,0,0.5,0.8c0.7,0.6,0.6,0.3,0.9,0.6
				c0.2,0.1,0.7,0.6,1.1,0.9c0.4,0.4,0.8,0.5,0.6,0.3c2.3,1.7,4,2.7,6.2,3.8c-0.4,0,0.9,0.7-0.2,0.3c1.8,1,6.9,3,9.2,3.4
				c0.5,0.1,0.5,0.1,0.6,0c4.4,1.2,9.5,2.2,12.1,2.3c0.6,0.1,1.3,0.2,2,0.3c0.7,0.1,1.4,0.2,2,0.2c1.2,0.1,2.2,0.2,2.3,0
				c1.5,0.2,2.9,0.3,4.5,0.3c1.1,0.1,2.5,0.2,3.4,0.2c0.6,0,1.3,0,1.7,0c2.3,0,5.1,0.1,7.5,0.1c1,0,2.4,0,3.9,0
				c2.2,0,4.6-0.1,6.8-0.1c0.9,0,1.8-0.1,2.6-0.1c0.4,0,0.8,0,1.2,0l0.6,0c0.1,0,0.2,0,0.3,0l0,0.3c0.1,1.5,0.1,3,0.2,4.7
				c0,1.7,0.1,3.4,0.1,5.2c0,1.1,0,2.1,0.1,3.2c-0.2-0.4-0.2,0.6-0.4,0.5c0-2.2-0.2-1.3-0.3-3c-0.2,0.5,0.1,1.8,0.1,3.5
				c-0.2-1.5-0.6-2-0.7,0.5c0,0.3,0.1,1.3,0.1,1.8c0,1.2,0.1,4,0.1,6.4c0.1,2.1,0.2,3.2,0.1,5.2c0.2,1.3,0.3,7.3,0.4,11.1
				c0,1.2,0.2,1.7,0.2,2.9c0.2,3.3,0.1,6.8,0.1,9.9c-0.2-0.3-0.2,1.4-0.4,1.7c0,3.2-0.4,3.4-0.5,6.3c-0.2-1.2-0.2,0-0.3,1.7
				c-0.3-2.2-0.4,1.5-0.6,1.6c0-0.9-0.1-1-0.1-1.8c-0.1,0.2,0,1.4,0,2.3c-0.2-1.4-0.2-0.3-0.3-1.8c-0.1-0.2-0.1,0.4-0.1,1.1
				c-0.1-0.8-0.2-0.4-0.3-1.2c0-0.2,0-1,0-1.2c-0.1-0.6-0.3,0.3-0.3-0.6c0-0.4,0.1-0.7,0-1.2c-0.1-1.1-0.1-1.6-0.3-2.4
				c0-2-0.1-2.3-0.1-4.1c0-0.7-0.1-0.5-0.2-0.6c0.2-2.8,0.1-8.3,0.3-10.4l-0.1-4.7c-0.4-0.3-0.5,1.7-0.7,2.2
				c-0.1-3.9-0.4,0.3-0.6-1.2l0-2.3c-0.1,0-0.2,1-0.4,0.5c0-3.2,0-3.7,0-6.4c0.1-0.3,0.2-1.1,0.2-2.3c0-2-0.2,0-0.2-1.2l0-2.3l0.2,0
				c-0.1-2.3,0.1-4-0.1-4.7c-0.1,0,0.2,3.5-0.1,2.9l-0.3-17.1c0-0.1-0.1,0-0.2-0.1c-0.1,0-0.1,0-0.2,0c-0.1,0-0.2,0-0.3,0
				c-0.2,0-0.4,0.1-0.8,0.1c-0.1,0.1,0.6,0.2,0.1,0.4c-1,0-1.5,0.1-2,0.1c-0.2,0-0.5,0-0.8,0c-0.5,0-1.1,0-1.9,0
				c-0.3,0.1,0,0.1,0.5,0.1c0.5,0,1.2,0,1.6,0c0.6,0,0.4,0,0,0.1c-0.2,0-0.6,0-0.8,0c-0.3,0-0.7,0-0.8,0c-1,0-2.2,0-3.4,0
				c-1.2,0-2.5,0-3.7,0c-2.4-0.1-4.5-0.1-5.1-0.3c-1.2,0-1.9,0.1-4.7-0.1c0.2-0.1,1.8,0.1,1.8,0c-0.1-0.1-0.6-0.1-0.6-0.2
				c-1.4,0-2.7-0.1-3,0.1c-2-0.1-3.9-0.4-5.6-0.5c-0.9-0.1-1.7-0.2-2.5-0.3c-0.8-0.1-1.6-0.2-2.5-0.3c3,0.3-2.4-0.5-2.9-0.4
				c-1.8-0.3-3.8-0.7-5.7-1.1c-1-0.2-1.9-0.4-2.8-0.7c-0.9-0.2-1.7-0.5-2.5-0.7c-4.2-1.2-8.9-2.9-12.9-5.5c-2-1.3-3.9-2.6-5.5-4.1
				c-0.4-0.4-0.8-0.7-1.2-1c-0.3-0.4-0.7-0.7-1-1.1c-0.6-0.7-1.3-1.3-1.8-2c-0.6-0.9,0-0.1,0.2-0.1c-0.4-0.6-0.6-0.9-0.6-1
				c-1-1.4-0.9-1.2-1.7-2.6c-0.3-0.5-0.6-1-0.8-1.6c-0.2-0.6-0.4-1.2-0.7-1.7c-0.5-1.2-0.7-1.4-1.2-2.7c-0.5-1.2-0.6-1.7-0.5-1.6
				c-0.6-1.1-0.7-1.2-1.8-3.6c0.1,0.1,0.5,1,0.6,1c-0.2-0.6-1-2.2-1.7-3.6c-0.1-0.2-0.4-1-0.4-1.1c-1.9-3.7-4.6-7.5-6.2-9.6
				c-0.4-0.4-0.6-0.6-0.9-0.8c-1.2-1.9-4-4.7-6.3-6.5l0.1-0.1c-0.5-0.4-1.1-0.9-1.6-1.3c-0.5-0.4-1-0.7-1.2-0.7
				c-1.3-1.1,0.6,0.3,0.6,0.2c-1.6-1.2-2.3-1.5-3.4-2.1c-2-1.3-5.3-3-7.1-4.3c-0.3-0.3-0.6-0.5-0.9-0.8c-0.3-0.3-0.6-0.6-0.9-0.9
				c-1-0.9-1.8-1.9-2.5-3.1c-0.6-1.2-1-2.5-0.9-3.9c0.1-0.7,0.2-1.3,0.5-2c0.1-0.1,0.1-0.4,0.3-0.4l0.4-0.2l0.9-0.4
				c0.5-0.3,1.3-0.5,2-0.7c0.4-0.1,0.7-0.2,1.1-0.3l1.1-0.2l1.1-0.2l0.9-0.1c0.6,0,1.2-0.1,1.9,0c0.6,0,1.3,0,1.9,0.1
				c0.6,0.1,1.3,0.1,1.9,0.2c2.5,0.4,4.9,1.1,7.2,2c1.4,0.5,2.8,1.1,4,1.6c2.1,1.1,3.7,2.2,6.1,3.8l-0.2,0.2
				c1.8,1.1,4.9,3.2,6.2,4.7c-0.6-0.4-2.3-2-3.2-2.7c-1.2-0.9-1.2-0.6-3-2c0.3,0.3,1,0.8,1.8,1.5c-1.6-1.1-1-0.3-1.8-0.7
				c-1.9-1-4.4-2.8-7.2-4c-1-0.5-2.3-1.1-2-1.1c-0.8-0.3-1.4-0.5-2.3-0.7c0.1,0.1,0.9,0.5,2.1,0.9c-0.7-0.2-2-0.7-3.3-1.1
				c-0.7-0.2-1.3-0.4-1.9-0.6c-0.6-0.2-1.1-0.3-1.5-0.4c0.7,0,0.3-0.1-0.5-0.4c-1.5-0.2-2-0.1-3.6-0.3c0.1,0.1-0.2,0.1-0.6,0.1
				c0.1,0.1,1.3,0.1,2.4,0.2c1.1,0.1,2.1,0.3,1.7,0.4c-2.5-0.5-5.3-0.4-7.1-0.3c-2.3,0.4,0,0.2-1.2,0.5c0.9-0.1,1.7-0.3,2.5-0.3
				c0.8-0.1,1.5-0.1,2.2,0c-0.1,0.1-0.4,0.2-1.2,0.2c0.3,0.1,0.9,0.2,1.7,0.2c1,0,0.8,0,0.4-0.1c-0.4-0.1-1.1-0.1-0.9-0.2
				c1.2,0.1,1.1,0,1.2-0.1c0.9,0.1,1.4,0.1,1.9,0.2c0.5,0.1,0.9,0.2,1.6,0.3c-0.2,0-1.5-0.2-2.3-0.3c0.4,0.2,1.2,0.3,2,0.4
				c0.8,0.1,1.6,0.2,2.1,0.3c1.1,0.3,1.7,0.5,2.2,0.8c0.5,0.2,0.9,0.5,1.5,0.7c1.1,0.4,0.3-0.2,2.3,0.7c0.9,0.5,1,0.7,1.4,1
				c0.7,0.3,0.8,0.2,1.7,0.6c4.8,2.7,10.6,7.2,15.2,12.5c0.5,1.2,0.4,0.5,0.9,1.5c0-0.2-0.1-0.5-0.3-0.8c-0.1-0.2-0.2-0.4-0.3-0.6
				c-0.1-0.1-0.1-0.2-0.2-0.4c-0.1-0.1-0.2-0.2-0.3-0.3c0.3,0.3,0.4,0.5,0.5,0.4c0,0,0-0.2-0.1-0.4c-0.1-0.2-0.3-0.5-0.4-0.7
				c-0.1-0.2-0.3-0.4-0.3-0.5l0.9,0.9c0.2,0.2,0.3,0.4,0.4,0.6l0.3,0.6c-0.6-0.8-0.5-0.3,0.4,1.7c0.4,0.3-0.8-1.8-0.2-1.1
				c0.4,1,0.8,1.9,1.2,2.8c0.4,0.8,0.9,1.6,1.4,2.4c-0.2-0.5-0.5-0.9-0.7-1.4c-0.3-0.5-0.6-1-0.9-1.6c-0.5-1-0.8-1.8-1.1-2.5
				c-0.1-0.2-0.2-0.4-0.2-0.6c-0.1-0.2-0.1-0.5-0.3-0.6c-0.2-0.2-0.3-0.4-0.5-0.6c-0.1-0.2-0.3-0.3-0.4-0.5c0.2,0.1,0.4,0.3,0.5,0.5
				c0.2,0.2,0.4,0.3,0.5,0.4c0.1,0.1,0.1,0,0-0.1c-0.1-0.2-0.4-0.5-0.7-0.9c0.3,0.3,0.8,0.8,1.2,1.3c0.2,0.5,0.5,1,0.7,1.4
				c0.4,0.8,0.8,1.5,1.2,2.1c0.7,1.4,0.4,1,0.9,2c0.7,1.4,1.4,2.5,2.3,3.9c0.5,0.8,0.5,0.8,0.9,1.4c0.5,0.8,1.1,1.4,1.6,2.1
				c0.5,0.6,1,1.3,1.5,1.9c0.6,0.6,1.3,1.4,2.1,2.3c0.9,0.8,1.8,1.7,2.8,2.6c2,1.7,4.2,3.2,5.8,4c0.4,0.2,1,0.6,1.6,0.9
				c0.6,0.3,1.1,0.5,1.4,0.5c1.4,0.6,0.9,0.6,2,1c0.9,0.3,1,0.3,1.1,0.3c1.7,0.6,0.6,0.4,2,0.8c2,0.6,3.1,0.6,4.4,1
				c0.7,0.1,0.5,0,0.6-0.1c1.6,0.4,4.2,0.7,7.3,0.7c0.5,0,0.9-0.1,1.2-0.2c3.1,0,8.6-0.5,14.3-2.1c1.4-0.4,2.9-0.8,4.4-1.3
				c0.7-0.2,1.5-0.5,2.2-0.8c0.7-0.3,1.5-0.6,1.9-0.8c0.5-0.2,1-0.4,1.4-0.6c0-0.5,0.1-1,0.1-1.5c0.1-0.4,0.1-1.3,0.2-2
				c0.1-0.7,0.3-1.4,0.4-2.1c0.1-0.4,0.1-0.8,0.2-1.2c0.1-0.4,0.2-0.8,0.3-1.1c0.2-0.8,0.4-1.5,0.6-2.4c1.1-3.8,2.9-7.2,4.5-10
				c-0.9,1.3-1.1,1.8-1,1.5c0.1-0.3,0.6-1.2,1.5-2.7c-0.2,0.3-0.1,0.1,0.2-0.4c0.2-0.2,0.4-0.6,0.7-0.9c0.2-0.2,0.3-0.5,0.6-0.8
				c0.9-1.1,2.2-2.6,3.6-3.7l0.4-0.3l0.2-0.1l0.1-0.1c0,0,0,0,0,0l-0.1,0c-0.3,0-0.6,0-0.8,0.1c-0.5,0-1,0-1.4,0.1c-0.6,0-0.5,0-1,0
				c-0.7,0-1.7,0.1-2.5,0c-0.9-0.1-1.5-0.1-2-0.1c-1.4-0.1-2.4,0-5.3-0.3c-0.6-0.1-1.9-0.3-1.7-0.3c-0.9-0.1-2-0.1-3-0.2
				c-0.3,0-1-0.2-1.7-0.3c-1.5-0.2-3.1-0.4-4.7-0.7c-0.8-0.1-2.7-0.6-4.7-1.1c-2-0.5-4.1-1.1-5.1-1.4c-0.6-0.2-0.6,0-1.8-0.4
				c-0.1-0.1,0.6,0.1,0.7,0c-1-0.3-1.2-0.3-2.3-0.7c-0.1,0,0.1,0.1,0.5,0.3c-0.3,0.1-1.8-0.6-1.1-0.5c-1.4-0.4-2.1-0.6-3.4-1.2
				c-0.4-0.2-3.1-1.1-3.9-1.5c-1-0.5-2-1-3.2-1.6c-1.6-0.8-3.4-1.7-5.2-2.7c-1.7-1-3.4-2-4.7-2.9c-1.2-0.9-2.8-1.7-4-2.7
				c-0.8-0.6-0.8-0.7-1.4-1.1c-0.7-0.6-1.4-1.1-2-1.6c-0.6-0.5-1.2-1-1.7-1.5c-0.9-0.8-1.6-1.5-2.1-2.1c-0.8-0.8-1.9-2.1-2.5-2.6
				c-0.4-0.4-1.2-1-1.3-1.2c-0.6-0.8-0.6-0.8-1.1-1.4c-0.7-0.8-0.9-0.9-1.6-1.8c-0.4-0.5-0.8-1-1.1-1.5c-0.3-0.5-0.7-1-1-1.4
				c-1.1-1.3-3.9-5.1-5.3-8c-0.2-0.2-0.8-1.3-1.6-2.7c-0.4-0.7-0.9-1.5-1.2-2.3c-0.4-0.8-0.8-1.7-1.1-2.5c-0.3-0.8-0.8-1.9-1.1-2.7
				c-1.1-3-2.4-6-3.2-9.1c-0.4-1.5-0.9-3-1.3-4.4c-0.3-1.4-0.6-2.8-0.9-4.2c-0.2-1.1-0.3-2.1-0.7-3.5c0,0.1,0.1,1.1,0.3,1.7
				c-0.4-1.2-1.4-6.6-1.1-6.4c-0.2-0.4-0.3-1.4-0.7-3.5c-0.2-1-0.6-2.4-0.9-5.3c0.1-0.3,0.2,0.8,0.3,1.8c0-0.4,0.1-1.4,0.3,0.6
				c0.1-0.4-0.2-1.3-0.3-2.3c0.1,0.5,0.2,0.6,0.3,0.6c-0.1-1.7-0.3-1.5-0.4-2.9c0.3,0.7,0.1-1.8-0.1-2.9c-0.2,0.7,0.1,3.2-0.1,3.5
				c-0.2-0.9-0.4-2.5-0.6-3c0-0.8,0.2-0.9,0.2-1.7c-0.2-1.7-0.4-1.4-0.2,0.6c-0.4-2.1-0.2-3.8,0-4.1c-0.2-1.1-0.3-3.5-0.5-3
				c0-0.8-0.1-1.7-0.1-1.8c0.1-1.2,0.1-3.9,0.3-4.1c0,1.6,0,3-0.2,2.3c0,1,0,2,0.1,3c0.1,0.3,0.1-0.5,0.1-1.2c0-0.7,0-1.4,0.1-1.2
				c0.1,1.9,0.1,1.6,0,2.9c0.2-0.1,0.1-2.6,0.3-2.9c0-1.8-0.2-2.7-0.1-4.1c0.3,0.1,0.5,4.3,0.6,3.6c0.1,1.4,0,3.2,0.2,5.3
				c-0.2-1-0.1,0-0.2,0c0.1,2.8,0.5,1.2,0.6,4.1c0.1,1.5,0,0.7-0.1,0.6c0.1,1.3,0.2,0.8,0.3,1.8c0.3,2.7,0.1,2.3,0.4,4.7
				c0.3,1.9,0-1.2,0.2-0.6c-0.1,0.3,0.3,2.8,0.2,2.9c0.2,1.4,0.1-0.6,0-1.2c0.3,1.4,0.6,4.1,1,5.8c0-1.1-0.4-2-0.6-3.5
				c0.1-0.2-0.2-2.5,0.1-1.1c-0.3-2.6-0.4-2.3-0.7-4.6c-0.2-2,0.1-0.5-0.2-2.9c-0.1-1.1-0.3-1.8-0.4-2.9c0-1.1,0-2.5-0.1-4.1
				c-0.1-2,0.1,1.6-0.2,0.6c-0.1-1.1-0.2-3-0.2-4.6c0-1.7,0-3.1-0.1-3.6c0.1-1,0.2-1.9,0.3-4.1c0.3,1.1-0.3,3.2-0.1,4.7
				c0.1-1,0.3-2.2,0.4-3.4c0.1-1.2,0.2-2.4,0.5-3.5c0-2.1-0.5,1.5-0.5,2.8c-0.1-0.1-0.1-1.3,0-2.3c0.1-1,0.1-1.8-0.1-1.3
				c0.1-1,0.2-1.5,0.3-1.7c-0.1-1.1,0.3-3.9,0.6-6.4c0.1,0.2-0.3,2.6-0.1,2.4c0.1-0.6,0.2-1.3,0.3-2c0.1-0.7,0.3-1.4,0.4-2.1
				c0.2-1.5,0-1.2-0.2-1.3c0.2-1.4,0.7-4.2,0.9-4.6c0.3-0.1-0.6,2.5-0.6,3.5c0.6-1.5,0.5-3.4,1.1-5.1c-0.1-0.1-0.3,0.6-0.4,0.5
				c0.4-1.7,0.8-3.4,1.3-5.1c0.3-0.8,0,0.2-0.3,1.3c-0.3,1.1-0.6,2.5-0.4,2.2c0.2-0.7,0.5-1.7,0.7-2.8c0.3-1.1,0.6-2.4,0.9-3.4
				c-1.1,2.9,0.9-3.1,1.6-5c0.7-1.5-1,2.8-1.3,3.9c0.2-0.3,0.6-1.4,1-2.5c0.4-1.1,0.8-2.3,1-3c0.7-1.4,2.6-5.2,3.2-6.9
				c-0.2,0.3-0.7,1.2-1.2,2.3c-0.5,1-1,2.2-1.4,3c-0.2,0,0.8-1.9,1.2-2.7c0.4-1,1-2,1.4-2.9c0.4-0.9,0.8-1.6,0.9-1.9
				c1.8-2.8,3-5,5.5-8.3c0.4-0.5,0.2-0.4,0.6-1c1-1.2,1.3-1.4,1.3-1.2c0.3-0.4,0.6-0.7,0.8-1c0.3-0.3,0.6-0.6,0.8-0.9
				c0.5-0.5,0.9-0.9,1.4-1.3c-0.1-0.7-0.3-1.4-0.5-2.1c-0.1-0.4-0.2-0.8-0.3-1.2c-0.1-0.4-0.3-0.9-0.4-1.3c-0.2-1.1,0.2,0.2,0.4,0.5
				c-0.3-0.9-0.2-1-0.4-1.7c-0.2-0.7-0.3-0.7-0.2,0c-0.6-1.5-0.9-4.1-1.4-6.3c-0.1-0.1-0.2-0.1-0.1,0.6c-0.3-1.4-0.4-3.1-0.8-5.2
				c0.3,1.3,0.3,0.2,0.2-1.1c0.2,0.4,0.1,1.2,0.3,2.3c0.1,0.1,0.1-0.5-0.1-1.7c-0.3-2.5-0.3,0.3-0.5-1.2c0-1.3-0.1-2-0.1-2.8
				c0-0.8-0.1-1.8-0.1-3.6l0.2,0c0-1.5-0.1-2.4-0.2-3.4c0-1,0-2,0.1-3.7c0.1,0.9,0.2-0.9,0.2-1.1c0.1-0.4,0.2,0.4,0.3-1.1
				c0-2-0.4,2.1-0.5,1.1c0.2-2.3,0.4-1.6,0.6-4c0.1-0.8-0.1-0.1-0.2,0.5c-0.1-1.3,0.4-2.5,0.6-4c0.2-1.4,0.5-3.2,0.7-4.7
				c0.3-1.4,0.7-2.8,1-4c0.1-0.1-0.1,0.6,0,0.6c0.5-1.7,0.4-2.3,0.9-3.4c0.2-0.1-0.4,1.6-0.3,1.8c0.7-2.1,0.4-1.7,0.9-3.4
				c-0.3,0.3-0.9,2.3-1.1,2.1c0.2-0.4,0.6-1.9,0.7-2.2c0.1-0.2-0.2,0.9-0.1,0.6c0.3-0.6,0.6-1.2,0.9-2.1c0.2-0.4,0.4-0.9,0.7-1.5
				c0.1-0.3,0.3-0.6,0.4-0.9c0.1-0.2,0.2-0.3,0.2-0.5l0-0.1l0.1,0l0.1,0c0.1,0,0.2,0,0.3,0c1.7-0.2-2,0-0.1-0.2
				c1.8-0.1,3.4-0.1,5,0.1l0,0.2c1.2,0.2,1.3,0.1,2.3,0.2c2,0.3,2.1,0.5,3.5,0.5c-1.2-0.3-3.7-0.9-0.5-0.3c-0.9-0.4-4.4-0.7-6.4-0.8
				c-0.2-0.2,2.7,0,4.2,0.3c1.9,0.2,3.9,0.7,5.2,1l-0.1,0.3c2.4,0.6,3.1,0.7,2.4,0.3c1.1,0.3,2.3,0.7,3.4,1c-0.2,0-1-0.2-1.2-0.2
				c2.6,0.8,3.4,1.2,6.1,2.2c-0.1,0-0.6-0.2-0.6-0.1c4.2,1.7,6.5,2.6,10.2,4.4c0.5,0,2.2,0.7,4.8,2.1c0-0.3-3-1.4-4.1-2.2
				c1,0.3,4,1.9,5.8,2.8c0.1,0.2-0.5-0.1-1.1-0.4c1.8,1-0.2,0.1,0.9,0.8c2.4,1.3-0.6-0.5,1.1,0.4c2.4,1.2,1,0.8,3.5,2.1
				c1,0.5-0.6-0.6,0.7,0.1c1.1,0.8,4.4,2.4,3,1.8c2.5,1.3,4.9,2.8,7,4.2c0.9,0.2-2-1.4-3.3-2.3c0.6,0.1,2.2,1.3,3.5,2.1
				c1.2,0.7,1.8,1,3,1.8c0.3,0.5-0.8-0.3-2.1-1.1c0,0.1,1.2,0.9,2.3,1.7c-0.3,0-0.7-0.2,0.3,0.5c0.5,0.3-0.1-0.3,0.6,0.1
				c0.1,0,0.3,0,0.5,0c0.3-0.1-0.1-0.1-0.5-0.2c-0.4-0.3-0.7-0.6,0-0.1c0,0,0,0,0.1,0c1.2,0,0.6,0,0.4,0.1c0.7,0,1.3,0,1.8,0
				c0.5,0,1,0,1.5,0c1,0,2,0,3.6,0c0,0.3-2.9-0.1-2.9,0.2c1.2,0.2,1.7,0,3.5,0.1c1.3,0,0.1-0.2,0-0.2c0.6-0.2,2.1,0,1.8-0.2
				c2.2,0,3.7-0.1,5.2,0c1.3-0.2,6.6-0.1,11.1-0.1c2.5,0,2.7-0.1,4.6,0.1c0.6,0,0.4-0.1,1.2-0.1c7.5,0.1,11.9-0.1,18,0
				c0.6,0,0.4-0.1,1.2-0.1c1.4,0,1.2,0.1,2.9,0.1c0.6,0.2-1.3,0.2-1.8,0.3c-1-0.1-3.3-0.3-5.2-0.1c0.3,0.2,2.1,0,3.5,0.1
				c0.3,0,0.3,0.2,0.5,0.2c1,0.1,2.3,0,3.5,0.1c0.8-0.2-1.9,0-1.1-0.2c0.9-0.1,4.5-0.2,1.8-0.3c0.3-0.1,5.3-0.1,4.6,0.1
				c2.9-0.2,7.3,0,12.2,0c5.3,0,12-0.1,16.3-0.1c1.6,0,1.2,0.1,2.3,0.1c1.3-0.1,2.7,0,2.9,0c0.9,0,0.9-0.2,2.9-0.1
				c1.1,0.2-1,0.1-1.8,0.2c-0.4,0-0.8,0.2-1.2,0.2c-0.8,0-3.2-0.2-2.9,0.1c0.2,0.1,0.8,0,1.7,0c0.2,0,0.4,0.3,2.3,0.2
				c0.3-0.1-2.7,0-1.7-0.2c2.8-0.1,6.2,0.2,8.7,0.1c0-0.2-3.8-0.1-4.6-0.2c-0.8-0.2,1.3-0.2,1.2-0.4c2.3,0,4.5,0,6.5,0
				c1.9,0,3.7,0.1,5.5,0.1c0.3-0.2,0.6-0.5,0.9-0.7c0.4-0.3,0.7-0.5,1.1-0.8c2.7-2.2,6-4.5,9.2-6.3c0.3-0.4-0.7,0-2.1,1
				c0.1-0.2,2.1-1.4,2.4-1.7c-0.1-0.2-1.4,0.8-2,1.2c-1.6,1-3.4,2.1-5.4,3.5c-0.5,0.4-0.3,0.3-0.9,0.8c-0.9,0.6-1.4,1-1.9,1.4
				c-0.4,0.3-0.7,0.5-1.2,0.8c-0.7,0.6,0.4-0.2-0.2,0.4c0,0,0,0,0,0c-0.4,0-0.7,0-1.1,0c-0.5,0-1,0-1.5,0c-1,0-2.1,0-3.1,0
				c-2.1,0-4.1,0-6-0.1c1.6-0.2-3.2-0.2-3.4-0.4c-1.5,0,0.5,0.3-1.8,0.2c0.1,0.1,1.1,0.1,1.7,0.1c1.8,0.1-1,0.1-1.8,0.1
				c-1.3-0.1-2-0.2-4-0.2c-0.6,0.2,1.3,0.1,2.3,0.1c-0.1,0.2-1.7,0-2.9,0.1c-2.4,0-6.1,0.1-9.3,0c-0.2-0.1,0.9-0.1,1.8-0.1
				c-1-0.3-3.3,0-4.1,0.1c-4.7,0-5.1-0.3-9.3-0.3c-0.5,0.2,2.7,0.1,4.1,0.1c-4.5,0.3-10.3,0-14,0c-0.4,0-1.1,0.1-1.2,0.1
				c-0.9,0,0.1-0.1,0-0.1c-1.1,0-2.5,0.1-3.5,0.1c-2.3,0-2.8-0.2-4.6-0.2c-0.7,0-0.5,0.1-0.6,0.2c-5.4-0.1-10.3,0.2-14-0.1
				c-0.7,0-0.3,0.1,0,0.1c-2,0.1-7.4,0.1-8.7-0.1c-1.2,0.1-2.6,0.1-3.5,0.2c-4.7,0-11.1-0.2-16.3-0.3c-0.8-0.3-2.4-0.4-2.2-0.6
				c-1,0-1.8,0-2.5,0c-1.1-0.7-2-1.3-3-2c-1.2-0.8-2.5-1.6-4-2.6c-0.5-0.3-0.8-0.4-1.1-0.5c-1.2-0.7-1.9-1.2-2.5-1.6
				c-1.2-0.7,0.5,0.5,0.9,0.7c2.3,1.4,3,1.5,4.6,2.7c-1.1-0.5-2.6-1.4-4.6-2.6c0.2,0.2,0.4,0.3,0.9,0.7c-0.4-0.1-0.8-0.4-1-0.6
				c-0.4-0.2-1.3-0.8-0.9-0.8c-0.7-0.4-1.4-0.8-2-1.2c-0.3-0.2-0.7-0.4-1-0.6c-0.3-0.2-0.5-0.3-0.5-0.3c-0.9-0.5-1.1-0.4-2.7-1.3
				c0-0.3-2.8-1.7-2.9-1.9c-1.6-0.8,0.6,0.6-0.7,0c-1.6-0.8-2.5-1.3-1.5-0.9c-1.4-0.5-3.8-2-3.8-1.7c0.3,0.4,2.6,1.1,2.7,1.3
				c0.4,0.4-2.3-1-3.3-1.4c-0.5-0.2-1.4-0.5-1.7-0.6c-2.8-1.3-7.3-3.1-8.7-3.7c-1.5-0.5-4-1.4-6.2-2.1c-1.4-0.4-2.7-0.6-3.5-0.7
				c2.5,0.8,4.6,1.1,6.9,2c-1.1-0.2-3.4-0.9-5.2-1.4c-1.8-0.5-4.1-1.1-7-1.5c-0.5-0.3,1.6,0.1,1.9,0c-1.9-0.2-3-0.3-4.9-0.3
				c-0.7-0.2-1.2-0.1-2.4-0.2c-0.5,0-1.2,0-1.9,0.1c-0.3,0-0.7,0.1-1.1,0.1c-0.2,0-0.4,0-0.6,0c-0.1,0-0.2,0.1-0.2,0.2
				c0,0.1-0.1,0.2-0.1,0.3c0,0.1,0.1-0.1,0.3-0.4c0.4,0,0.9-0.1,1.4-0.1c1-0.1,1.8-0.1,1.2,0c-0.6,0-1.2,0.1-1.9,0.1l-0.5,0
				c-0.1,0-0.1,0.1-0.2,0.2l-0.1,0.2c-0.1,0.3-0.3,0.6-0.4,0.9c-0.5,1.1-0.8,2-0.8,2.2c-0.4,0.9-0.7,1.6-1,2.4
				c-0.3,0.7-0.5,1.3-0.7,1.6c-0.2,0.9-0.6,2.2-0.3,1.8c-0.4,1.5-0.8,2.4-0.6,2.3c-0.5,2.1-0.8,2.1-1.1,3.4
				c-0.3,1.6,0.4-1.5,0.4-0.5c-0.2,1-0.5,2-0.6,2.9c-0.2,0.9-0.3,1.9-0.4,2.8c-0.3,1.8-0.4,3.6-0.6,5.5c0,0.6,0.1,0.6,0,1.8
				c-0.2-1.6-0.2,1.3-0.4,1.7c0.1,0.4,0,1.6,0.1,2.5c0.1,1,0.1,1.7,0.2,1.1c0.2,0.6-0.1,1.2,0,1.8c0.1,1.7,0.1-0.8,0.2,0.6
				c0.2,5.7,0.8,10.8,1.8,15.2c0.2,0.9,0.1,1,0.3,1.7c0.3,1.5,0.7,2.7,1.2,4.6c0.1,0.3,0.2,0.6,0.2,1c0.1,0.3,0.1,0.6,0.1,0.8
				c0.1,0.3,0.2,0.6,0.2,0.9c-0.5,0.5-0.9,0.9-1.5,1.5c-0.7,0.8-1.3,1.5-1.9,2.3c-4,5.2-6.4,9.6-8.3,12.2c-0.1-0.3-0.4-0.3-1.2,1.3
				c0-0.2,0.3-1,1-2.2c-0.7,1.1,0.3-1.5-1.2,1.3c0.9-1.9,0.6-1.9,1-2.9c0.2-0.5,1.2-2.1,0.8-1.7c1.4-2.3,3-4.8,4.7-7.1
				c0.9-1.2,1.8-2.3,2.8-3.5l0.7-0.8l0.4-0.5c0.2-0.2,0.4-0.4,0.5-0.5c0-0.2-0.1-0.5-0.2-0.8c0-0.1,0-0.2,0-0.3c0,0,0-0.2-0.1-0.3
				l-0.1-0.4c-0.1-0.5-0.2-1-0.3-1.5c-0.4-1.5-0.8-3-1.1-4.7c-0.2-1-0.2-1.3-0.4-2.4c-0.4-2.1-0.7-3.3-0.7-4.8
				c-0.1-0.6-0.2-0.4-0.3-1.2c-0.2-1.6-0.3-3.3-0.4-4.8c0-0.4,0-0.8,0-1.1c0-0.4,0-0.6,0-0.6c0-0.7-0.1-1.1-0.1-1.8
				c0-1.4,0-3,0.1-4.2c0-1.1,0-1.4,0-2.4c0-1,0.1-1.9,0.2-2.9c0.1-1,0.2-2,0.4-3.1c0.2-1,0.1-1.1,0.1-1.2c0.1-0.9,0.3-1.9,0.5-2.9
				c0.2-1,0.4-2.1,0.6-3.3c0.2-1.2,0.5-2.4,0.8-3.6c0.3-1.2,0.7-2.5,1.1-3.8c0.5-1.1-0.1,1.1,0.6-1c0.5-1.8-0.5,0.7-0.1-0.7
				c0.2-0.6,0.4-1.2,0.6-1.7c0.3-0.7,0.6-1.4,0.8-2c0.3-0.6,0.5-1.2,0.8-1.8c0.1-0.3,0.3-0.6,0.4-0.8c0-0.2,0.2-0.1,0.4-0.2l0.5,0
				c1.2-0.1,2.4-0.2,3.7-0.3c0.6,0,1.2,0,1.9,0c0.5,0,1.1,0.1,1.7,0.1c-0.3,0.1-0.8,0-1.9,0c1.1,0.1,1.8,0.2,2.4,0.2
				c0.5,0,0.8-0.1,0.8-0.1c2.9,0.3-0.9,0,1.2,0.3c1.3,0.2,1.2,0.1,1.3,0l2.1,0.4l2.1,0.5c0.9,0.3-0.1,0.1-0.1,0.2
				c0.6,0.1,1.2,0.3,1.8,0.4c1.2,0.3-2.1-0.8,1.3,0.1c2.4,0.7-0.1,0,0.5,0.4c1.6,0.5,1.1,0.4,2.3,0.7c1.3,0.4,0.4-0.1,0.7-0.1
				c1.3,0.4,2.7,0.9,4,1.4c-0.5-0.1-0.7-0.1-0.7,0c0.8,0.2,2.9,1.1,2.4,0.6c3.1,1.2,4.6,2,5.4,2.5c1,0.5,2.7,0.9,2.7,1.2
				c1.5,0.7-1.1-0.8,1.7,0.6c-0.2-0.2-0.4-0.3-1-0.6c0.3,0.1,5,2.2,3.7,1.9c1.6,0.8,1.4,0.5,3.3,1.5l-0.1,0.1c0.4,0.1,1.6,0.8,2.2,1
				c1.5,0.8,1.8,1.2,2.4,1.6c0.3-0.2,3.9,2.1,4.7,2.5c0.1,0.1-1-0.7-1.5-0.9c2.9,1.5,6.2,3.8,9.6,5.9c0.1,0.1,0.3,0.3,0.4,0.4
				l0.2,0.2l0.1,0.1l0,0c0.1,0.1,0.2,0.3,0.4,0.5c0.2,0.1,0.4,0.1,0.7,0.1c1.8,0,1.1-0.2,2.9-0.1c-1.7-0.2,1.9-0.3-0.5-0.4
				c0.7-0.1,4.1,0,3-0.3c6.8-0.1,15.9,0.1,22.1,0c-0.4,0.2-3.5,0.1-5.8,0.1c-2.1,0-4.4,0-5.8,0c1.1,0.1,2.9,0.1,3.5,0.2
				c2.3,0,1.5-0.3,3.5-0.2l0,0.1c2.8,0,4.3,0.1,5.8,0.2c0.6,0,0.4-0.1,1.2-0.1l4.1,0c1.4,0.1,0.3,0.1,1.1,0.2c2.3,0-0.2-0.1,1.2-0.2
				c1.5,0,3.6,0.1,2.9-0.2c3.5,0.1,8.8,0,11.6,0.1c-2,0.1-6.4,0-9.3,0c-0.7,0.1-1.7,0.1-1.8,0.3c1.5,0,2.5,0,2.4-0.2
				c2.2,0.1,3.9,0,7,0c-0.7,0.1-0.2,0.1,0,0.2c5-0.1,9.8-0.1,16.3-0.1c1.4,0.1-1.1,0.2,0.5,0.2c2.5,0-0.8-0.3,3-0.2
				c1.2,0.1-0.9,0.3-2.4,0.4c0.4,0.2,3.8,0.1,2.9-0.2c1.1,0,2.1,0,1.2-0.1c5.7,0,12.6,0,19.5,0c3.5,0,6.9,0,10.2,0
				c1.6,0,3.2,0,4.8,0c0.8,0,1.5,0,2.2,0c0.2,0,0.4,0,0.7,0c0.1,0,0.3,0,0.4,0c0,0,0,0,0.1-0.1c0.2-0.2,0.1-0.1,0-0.1
				c0.1-0.1,0.2-0.2,0.4-0.3c0.3-0.3,0.7-0.5,1.1-0.8c0.9-0.7,2-1.4,3.1-2.2c0.4,0-1.7,1.3-0.4,0.6c1.4-0.8,2.1-1.4,2.5-1.6
				c1.3-0.8-1.8,1.2-2.4,1.8c1.9-1.2,3.5-2.1,5.5-3.4c0.4-0.6,2.2-1.8,3.9-3c1.3-0.7,2.7-1.4,2.7-1.2c1.1-0.8,2.5-1.5,4.2-2.3
				c1.7-0.9,3.8-1.8,6.4-3c0.4-0.1,0.6-0.1,0.6,0c1.2-0.4,1-0.5,1.1-0.6c1.3-0.5,2.6-1.1,4.1-1.6c1.5-0.5,3.1-1.1,4.8-1.7
				c2.6-0.7,5.1-1.5,7.6-1.9c1.2-0.2,2.4-0.5,3.6-0.6c1.2-0.1,2.4-0.3,3.5-0.4c0.5-0.1,1.1-0.1,1.6-0.2c0.5,0,1-0.1,1.5-0.1
				c0.4,0,1.1,0,1.7-0.1c0.6,0,1,0,1.4,0c1.1-0.1,1.4-0.1,2.6-0.2c0.1,0,0.3,0,0.4,0c0,0.1,0.1,0.2,0.1,0.3c0.1,0.2,0.2,0.4,0.2,0.6
				c0.1,0.4,0.2,0.7,0.3,1c0.2,0.6,0.3,1.1,0.5,1.7c0.1,0.4,0.3,0.8,0.4,1.2c0.1,0.3,0.2,0.7,0.4,1c0.2,0.6,0.4,1.2,0.6,1.9
				c0.4,1.3,0.8,2.7,1.1,4.2c0.7,3,1.4,6.4,2,10.2c0.1,1.4-0.2-0.9-0.4-0.6c0.4,2.8,0.7,2.2,1,5.9c-0.2-0.5-0.3-1.7-0.5-1.2
				c0.2,2.1,0.5,2.3,0.4,4.2c-0.1-0.4-0.2-2.8-0.4-3c0,1.4,0.5,3.1,0.5,6c-0.1,0.2-0.2-0.9-0.3-2.4c-0.2,1.1,0.2,2.1,0.2,3.6
				c-0.1,0.1,0,2.6-0.2,3c0.1,1.6,0.2,3.8-0.1,5.4c0-0.6-0.2-0.6-0.2-1.3c0.1-1.1,0.2-1.2,0.2-2.4c-0.1-0.2-0.2,0.6-0.3,1.7
				c-0.1,1.1-0.2,2.3-0.3,3c-0.2,0.1,0-1.4-0.2-1.3c0,0.9,0,1.5-0.1,2.4c-0.3,2.1-0.5,2-0.7,2.8c0.3-1.4,0.6-3.7,0.8-6
				c0.2-2.3,0.3-4.5,0.5-5.7c0-1.3-0.1,0.7-0.2-0.6c0.1-2.5-0.2-6.1-0.2-7.7c-0.1-0.6-0.1-0.5-0.2-0.6c-0.3-3.4-0.5-5.7-1.2-8.2
				c-0.1-0.8-0.4-2.7-0.9-4.6c-0.5-2-1-4-1.4-5.1c0-0.4-0.2-1.2-0.5-2.2c-0.1-0.5-0.3-1-0.4-1.5c-0.2-0.6-0.4-1.2-0.6-1.8
				c-0.1,0,0.1,0.7,0.3,1.5c0.2,0.8,0.4,1.6,0.6,2.2c-0.2-0.3-0.3-0.6-0.4-1c0-0.2-0.1-0.4-0.2-0.7c-0.1-0.3-0.2-0.7-0.4-1.2
				c-0.5-1.4-0.3-0.2-0.5-0.5c0.6,2,1,3,1.3,3.9c0.3,0.9,0.6,1.6,0.9,2.4c1.8,7.2,2.5,11.4,2.9,16.7c-0.2-1.4-0.4-1.2-0.7-2.9
				c-0.1,0.2,0.3,3.1,0.2,3.5c0.1,0.2,0.2-0.1,0.1-1.1c0.1,0.1,0.2,0.8,0.3,1.7c0.1,0.9,0.1,2.1,0.2,3c-0.1,0-0.2-0.3-0.2,0.6
				c0,2.1,0.3,0.3,0.2,3c-0.2-1.1-0.2-1.1-0.3,0.5c0,1,0.1,0.4,0.1-0.6c0.1,0.1,0,1.8,0.1,1.8c-0.1,1.4-0.3,2.7-0.4,1.7
				c-0.2,2.4,0.1,2.4-0.3,5.3c-0.3,2.3-0.5,1.7-0.9,4c-0.2,1.6-0.6,3.4-0.2,2.4c-0.8,3.2-1.3,4.7-1,4.7c-0.5,1.6-0.6,1.4-1.1,2.7
				c-0.2,0.2,0.2-0.8,0.5-1.7c-0.2-0.1-0.7,1.1-1.1,2c-0.3,0.8-0.5,1.2-0.6,1.5c-0.1,0.2-0.1,0.3-0.2,0.5c0,0.1-0.1,0.2-0.1,0.2
				c0,0,0,0.1-0.1,0.1c0,0-0.1,0.1,0,0.1c0.2,0.2,0.4,0.5,0.7,0.9c0.2,0.4-0.6-0.5-1-0.8c-0.1,0,0-0.1-0.1-0.1c0,0-0.1,0-0.1,0.1
				c0,0,0,0,0,0c-0.1,0.1,1.1,1.2,1,0.8c1.3,1.4,2,2.1,3.4,4c0.2,0.1,0.2-0.2-0.1-0.6c-0.5-0.6-1.6-2-2.6-3.1
				c0.3,0.1-0.3-0.7-0.8-1.3c-0.1,0,0-0.1,0-0.2c0-0.1,0.1-0.1,0.1-0.2c0.1-0.1,0.1-0.2,0.2-0.3c0.1-0.2,0.2-0.2,0.2-0.2
				c-0.1,0.1-0.1,0.2-0.2,0.4c0,0.1-0.1,0.1-0.1,0.2l0,0.1c0,0,0,0.1,0,0.1c0.5,0.5,1,1.1,1.5,1.7c0.1,0.2,0.3,0.3,0.4,0.5
				c0.2,0.2,0.3,0.4,0.5,0.6c0.3,0.4,0.6,0.8,0.9,1.2c1.3,1.7,2.5,3.5,3.7,5.3c2.4,3.6,4.3,7.4,5.5,10c-0.3,0-0.7-1.2-1.1-2.1
				c-1.1-2.2-2.6-4.9-4.3-7.6c-1.7-2.7-3.6-5.2-5.2-7.2c0.9,1.3,2.7,3.7,2.9,4.4c1.1,1.7,0.7,0.5,1.8,2.4c0.7,1.1,0.4,0.7,0.8,1.5
				c0.6,1.2,0.9,1.3,1,1.5c0.1,0.2,0.3,0.7,0.5,1c0.4,0.7,0.5,0.8,0.6,1c1.2,2.3,2.1,4.2,3.4,6.8c0.4,0.9,0.4,1,0.4,1.1
				c0.8,1.6-0.1-0.5,0.2-0.1c0.6,1.3,0.4,1.3,0.7,2.2c0.5,1.2,0.3,0.2,0.5,0.5c1.8,4.3,3.2,8.4,4.2,12.2c0.2,0.6,0.1,0.9,0.2,1.1
				c0.1,0.6,0.7,2.5,0.9,3.4c0.2,1.2,0.6,2.9,0.8,3.4c0,0.5,0.2,1.6,0.2,1.7c0.2,0.7,0.4,1.7,0.5,2.8c0.1,1.1,0.3,2.3,0.5,3.6
				c0.2,2.6,0.5,5.4,0.6,7.6c-0.2,0.5-0.2-1.5-0.3-1.8c-0.1-2.3-0.2-3.5-0.5-5.8c-0.2-1.1-0.3-0.5-0.5-2.3c0,0.9,0.2,1.8,0.3,2.6
				c0.1,0.9,0.3,1.7,0.4,2.6c0,0.3,0,1.3,0.1,2.1c0,0.8,0,1.6-0.1,1.4c0.1,1,0.2-0.6,0.4,1.2c0.1,1.7,0,1.5,0.1,2.9
				c0.1,0.3,0.1,0,0.1-0.5c0-0.5-0.1-1.3-0.1-1.8c0.2,0.9,0.3,4,0.3,5.9c0,1.7-0.1,3.4-0.1,4.7c0,0.4-0.1,0.8-0.1,1.1
				c0,0.3-0.1,0.6-0.1,0.6c-0.1,0.7,0,0.8,0,1.2c-0.1,1.3-0.3,2.3-0.2,3.5c0,1-0.2,1.1-0.2,1.1c-0.2,1.7-0.1,1.8-0.3,3.5
				c-0.1-0.2,0-1,0.2-2.4c-0.2,0.4-0.3,1.7-0.5,2.3c-0.1,1.4-0.3,2.7-0.1,2.4c-0.1,0.4-0.7,3.4-0.4,2.9c0.2-0.5,0.3-2.2,0.6-4
				c0,0.5-0.2,1.9-0.3,2.9c0.2-0.3,0.6-3.1,0.8-3.4c0.2-2.6,0.4-3.1,0.7-4.6c0.1,0.3-0.5,2.4-0.3,2.9c0.1-0.1,0.2-1.1,0.1-1.2
				c0.4-1.9,0.1,2.8,0.6-1.7c0.2,0.4-0.7,4.7-0.5,5.3c0.3-2.2,0.7-3.4,0.9-6.4c0.1-1.7-0.2,0.7-0.3-0.1c0.2-1.5,0.4-1.4,0.5-2.3
				c0.1-1.4,0.1-2.5,0.2-3.5c0.1,1.1,0,2.7-0.1,4.4c-0.1,0.9-0.2,1.8-0.2,2.8c-0.1,0.9-0.2,1.9-0.3,2.9c-0.1-0.3,0.2-1.9-0.1-1.2
				c-0.3,2.3,0.1,1-0.2,3.6c0.1,0.1,0.1-0.1,0.2-0.6c-0.1,2-0.5,4.4-0.3,4.8c-0.3,1.9-0.4,1.8-0.6,2.9c-0.6,2.6-0.6,3.5-1.1,5.8
				c-0.2,0.1,0-0.5,0.2-1.8c-0.6,1.6-1.4,6.1-1.8,6.2c-0.1,0.3-0.1,0.5-0.1,0.7c0,0,0,0.1,0,0.1c0,0,0,0,0,0c0,0,0,0,0,0.1
				c0,0.1,0.1,0,0.1-0.1c0.2-0.4,0.5-1.3,0.7-1.8c0.1,0,0,0.5-0.2,1.1c-0.1,0.3-0.1,0.6-0.2,0.8c0,0,0,0.1,0,0.1c0,0,0,0.1,0,0.1
				c0,0.2,0,0.3-0.1,0.4c0-0.2,0-0.4,0-0.5c0,0,0-0.1-0.1-0.1c0,0,0,0-0.1,0c0,0-0.1,0.2-0.1,0.3c-0.1,0.5-0.3,1.3-0.4,1.4
				c-0.2,1.5-0.4,2.6-0.7,3.8c-0.3,1.2-0.6,2.6-1.4,4.6c-0.5,1.6-0.5,1-0.8,1.6c-0.2,0.5-0.2,0.6-0.4,1.2c-0.4,1.2,0.8-1.5,0,0.7
				c-0.5,1.2-0.6,1-0.7,1c-0.7,1.7-1.3,3.1-2.7,5.5c-0.8,1.4-1,1.3-2.3,3.5c0.1,0,0.6-0.9,1-1.5c-0.4,0.8-1.6,2.6-3,4.5
				c-0.7,1-1.5,1.9-2.2,2.8c-0.7,0.9-1.4,1.7-2,2.4c-0.9,0.9-0.5,0.1-1.8,1.6c-0.6,0.7,0.2-0.1,0.1,0.1c-2.4,2.5-5,4.9-7,6.6
				c-0.1-0.1-0.7,0.2-2.4,1.7c0.3-0.2,1.1-0.8,1-0.6c-0.9,0.8-0.8,0.5-1,0.7c-1,0.7-2.1,1.8-3.4,2.5c1.5-1.4,3.2-2.4,5.6-4.5
				c1.1-0.9,0.8-0.9,2.2-2.1c-0.6,0.7,0.2,0,1.3-1c1.1-1,2.3-2.3,2.7-2.6c0.4-0.5,0.8-0.9,1.1-1.4c1-1.1,1.2-0.9,1.8-1.5
				c1.1-1.5,1.4-1.5,3.1-3.7c0.3-0.9-2.5,2.7-1.5,1c1.1-1.1,2-2.2,2.2-2c1.6-2.1,1.5-2.4,0.5-1.2c0.2-0.4,0.8-1.2,0.7-0.9
				c1.1-1.8,1.7-2.4,2.4-3.5c0.6-1,0.2-0.9-0.4,0.4c0.3-0.8,1.5-2.2,1.8-3.2c0-0.2-0.3,0.4-0.4,0.4c-0.4,0.9-1.9,3.3-1.7,3.2
				c-1.3,2-1.1,1.4-2.4,3.4c-0.3,0.2,0.6-1,0.6-1.1c-0.2,0.1-0.6,0.9-0.7,1c-0.4,0.6-0.7,0.7-1.1,1.4c-0.6,0.8-0.9,1.3-1.8,2.4
				c-0.5,0.6-0.2,0.5-0.2,0.7c-1.5,1.9-1.9,2-2.9,3c-1.3,1.3-1.1,1.3-1.5,1.9c-1,0.9-1.5,1.2-2.3,1.8c-0.4,0.5-1.2,1.4-2.2,2.3
				c-1.1,1-2.3,2-3.5,3c0.4-0.5-1.9,1.3-2.9,2c-1.5,1.1-0.8,1-3.4,2.6c0.3-0.3,0.9-0.7,1.4-1.1c-0.2,0-2.2,1.4-2.5,1.6
				c0.4-0.2,0.6-0.3,1.1-0.5c1.5-0.7,2.4-1.5,1.6-0.8c1.5-1,2.9-2.1,4.4-3.1c-0.4,0.4-1.1,1-2.1,1.6c-0.5,0.3-1,0.7-1.5,1.1
				c-0.6,0.4-1.1,0.7-1.7,1.1c-1.7,1.2-4.9,3.2-8.2,4.9c0.3-0.4-0.6,0.1-0.6-0.1c-1.4,0.7-2.4,1.2-3.4,1.7c-1,0.4-1.9,0.9-3.1,1.4
				c0.2-0.2,0.9-0.6,2.1-1.2c-1.6,0.5-2.3,1.3-3.7,1.9c-1.9,0.8-1.4,0.3-3.3,1.1c-1,0.4,0.2,0.2,1.7-0.5c-1.1,0.7-2,0.7-3.3,1.2
				c-2.2,0.9-0.7,0.5-1.6,1c-2.2,0.7,0.6-0.5-1.7,0.3c-0.3,0.3-2.9,1-2.2,1.1c-0.4,0.1-1,0.3-1.5,0.5c-0.5,0.1-1,0.3-1.4,0.4
				c-0.8,0.2-1.2,0.4-0.5,0.1c-1.5,0.5-4.5,1.2-5.1,1.5c-1,0.2-0.1-0.1,0-0.2c-1.9,0.4-0.8,0.4-1.7,0.6c-1,0-1.6,0.5-4.6,1.1
				c0.3-0.2,1.2-0.5,1.7-0.7c5.4-1.2,9.2-2.3,12.7-3.5c1.8-0.6,3.5-1.2,5.3-1.9c1.8-0.8,3.8-1.5,6.1-2.5c0.8-0.4,0-0.1-0.6,0.1
				c1.9-0.9,3.9-1.9,5.4-2.6c0.4-0.2,1-0.4,1.6-0.7c0.4-0.2,1.2-0.7,1-0.6c0.8-0.4-0.6,0.5,2.1-1c-0.8,0.8-3.6,2-5.2,2.9
				c1.2-0.5,2.6-1.1,4.2-1.9c1.6-0.8,3.4-1.8,5.3-2.9c-0.3,0.2-0.5,0.4-0.5,0.5c2-1.3,1-1,0.3-0.8c-2.3,1.3-1.6,1.2-3.5,2.3
				c0.2-0.4,2.1-1.8-1.2,0c4.2-2.3,9.7-6.2,14.3-9.6c0.7-0.7,1.8-1.6,3.1-2.8c0.6-0.6,1.3-1.2,2-1.8c0.6-0.6,1.3-1.3,1.9-1.9
				c0.8-0.8,0.2-0.5,1.5-1.9c1-0.9,1.1-0.8,1.5-1c0.9-1.1,1.3-1.6,1.7-2.1c0.4-0.5,0.9-1.1,2-2.6c0.1-0.3-0.4,0.2-0.5,0.3
				c-0.4,0.9-2,2.7-2.4,3.5c-1.3,1.2-1,0.7-0.1-0.5c0.8-1.2,2.2-2.9,3.1-4.1c0,0-0.3,0.6-0.3,0.6c0.1-0.1,0.6-0.8,1-1.5
				c0.4-0.6,0.8-1.2,0.6-1c1-1.4,2.4-3.7,3.7-6.3c1.3-2.6,2.6-5.5,3.4-8c0.6-1.7,1.1-3.5,1.6-5.3c0.2-0.9,0.4-1.8,0.6-2.7
				c0.1-0.4,0.1-0.8,0.2-1.2c0.1-0.4,0.2-0.7,0.3-1.1c0.3-1.5,0.7-3.4,1.1-5.2c0.4-2.3,0.9-4.5,1-5.8c-0.3,0.3-0.8,3.3-1,3.3
				c-0.3,2.6-1.5,6.7-1.9,7.3c0,0.2,0,0.4,0,0.7c0,0.2,0,0.3-0.1,0.5c0,0.1,0,0.3,0,0.5c-0.1,0.8-0.2,1.9-0.4,3
				c0.1,0.5,0.3-0.8,0.4-0.5c-0.8,3.6-0.8,1.7-0.7,1c-0.2,0.5-0.7,2.9-1.4,4.5c-0.4,1.1,0.5-0.8,0.1,0.7c0.2-0.2,0.7-2.8,1.2-4
				c-0.1,0.6-0.3,1.6-0.3,1.8c-0.7,2.1-1.5,4.3-2.5,6.7c-1.1,2.4-2.4,5-4.1,7.8c-1.1,1.5,1.9-3.1,1.4-2.7c-0.2,0-1.1,1.6-1.9,3
				c-0.9,1.3-0.1,0.5-1.2,2.1c0.6-1.3-0.6,0.5-1.2,1.3c-0.7,1.1,0.2,0.2-0.6,1c-0.6,0.7-1.8,1.9-2.6,3.1c0.4-0.4,1.7-2,1.7-1.6
				c-1.1,1.5-1.1,1.1-2,2.2c-0.3,0.4-0.4,0.5-0.7,0.9c-0.2,0.4,0.9-0.8,1.3-1.2c0.5-0.3-1.1,1.3-1.1,1.4c-0.9,1-0.9,1.1-1.5,1.9
				c-0.9,0.9-2,2.1-3.2,3.2c-1.2,1.1-2.4,2.3-3.7,3.3c1.1-1.1,1.7-1.5,3.5-3.2c-0.1-0.1-1.5,1.2-2.7,2.3c-0.1-0.1-1.2,0.7-2,1.2
				c-1.4,1.3,1.3-0.8,0.6-0.1c-2.6,2.2-2,1.2-3.5,2.1c-1.8,1.3-3,2.2-4.4,2.9c-0.9,0.6-0.2,0.4-0.9,0.9c-1.2,0.9-1.8,1.1-2.4,1.4
				c-0.6,0.3-1.2,0.6-2.7,1.5c0.2-0.4-2,0.8-1.7,0.3c1.8-0.8,3.5-2.1,4.5-2.8c-0.2,0-1.3,0.7-2,1.1c0.4-0.3,0.5-0.4,0.4-0.5
				c1.1-0.6,1.6-0.9,1.6-0.7c0.7-0.4,1.1-1,1.4-1c0.7-0.4,0.5-0.2-0.9,0.7c0.9-0.5,0.6,0-0.4,0.6c0.8-0.2,1.6-1.2,2.9-2
				c0.2,0,0.9-0.3,0.7,0.1c1.5-1,0.4-0.6,1.8-1.6c0-0.1-0.4,0.2-0.9,0.5c-0.4,0.3-0.9,0.5-0.7,0.3c0.7-0.4,2.4-1.8,2.4-1.6
				c0.4-0.3,0.6-0.6,1-0.9c0.4-0.3,0.9-0.7,1.7-1.4c-0.7,0.8-0.4,0.8,2-1.2c1.3-0.9-1.1,1.1,0.2,0.3c0.5-0.5,0.7-0.8,2.1-2
				c-0.1,0.2,0.4-0.2,0.9-0.7c-0.2,0.4-0.7,1.1,0.3,0.4c0.7-0.7,0.4-0.7,2-2.2c0.7-0.3-1.3,1.5-0.6,1.1c1.7-1.6,1-1.2,1.5-1.9
				c0.8-0.8,0.2,0.2,1.7-1.6c0.2-0.3,0-0.3,1-1.6c-0.4,0.3-0.8,1.2-2.3,2.7c0.5-0.8-1,0.8-1.3,1.1c-0.2,0.1,0-0.2-0.1-0.1
				c-0.2,0.1-1.1,1-0.9,0.7c0.4-0.5,1.1-1.2,2-2.1c-0.1,0.2-0.7,0.8-0.7,1c1-1,1.7-1.8,1.9-2.2c-0.2,0-0.7,0.5-1.4,1.2
				c-0.7,0.7-1.6,1.6-2.3,2.4c-0.5,0.3,0.9-1,1.6-1.8c-0.9,0.6-1.3,1-0.3-0.3c-0.1,0-0.8,0.8-0.9,0.7c-1,1.1-1.2,1.5-2.5,2.4
				c0.2-0.5,3.8-3.6,6-6.3c0.7-0.7,1.2-1.4,1.7-2.1c0.5-0.7,1-1.3,1.5-2c0.1,0-1,1.5-1.4,1.9c1.2-1.3,1.2-1.6,2.1-2.8
				c0.5-0.7,1.1-1.3,1.1-1.3c0.5-0.9,0.9-1.6,1.4-2.5c0.5-0.8,0.7-1.1,1.2-1.9c1-1.6,1.9-3.9,2.7-5.1c0,0.3-0.2,1-0.6,1.9
				c-0.4,0.9-1,2.1-1.9,3.4c0.3,0,1.4-2.2,2.3-4c0.7-1.6,0.2-0.6,0.1-0.7c0.5-1,0.8-1.6,0.6-1.6c0.4-0.9,1.2-2.6,0.8-2.2
				c-0.1,0-0.7,2-1.2,2.6c1-2.5,2.3-5.5,3-8.7c0.2-0.7,0.2-1.4,0.4-2.3c0.1-0.6,0.2-1.3,0.3-2c0.1-0.9,0.3-1.6,0.5-2.3
				c0.4-1.5,0.7-3,1-4.3c0.4-2.1,0.9-4.4,1.3-6.5c0.3-2.1,0.7-4,0.9-5.5c0-0.1,0.1,0.1,0.1,0c0.1-0.6,0.1-1.6,0.2-2.3
				c0.2,1.3,0.1-1.2,0.4-4c0-0.7-0.1-0.5-0.1-0.6c0.1-1.2,0.2-2.6,0.3-3.8c0.1-1.2,0.1-2.2,0.2-2.6c0.1-1.8-0.1-1.3,0-3.5
				c0.2-0.4,0.3,0.4,0.2,2.4c0.2,0.1,0.3-1.7,0.2-3.4c-0.2-0.4-0.2,0.6-0.4,0.5c0-12-1.8-24-5.6-35.3c-1.9-5.7-4.2-11.1-7.1-16.3
				c-1.4-2.6-3-5.1-4.6-7.5c-0.8-1.2-1.7-2.4-2.6-3.5c-0.8-1.1-2.1-2.5-3.3-3.8c0,0,0-0.1,0-0.2l0.1-0.2l0.2-0.4l0.3-0.7l0.7-1.5
				c0.3-0.8,0.7-1.7,1-2.5c0.3-0.8,0.5-1.6,0.8-2.5c0.2-0.8,0.5-1.7,0.7-2.5c1-4.4,1.5-8,1.7-12.5c0-0.9,0-1,0-1.7
				c0-2,0-5.7-0.4-9.2c-0.2-1.9-0.5-3.7-0.8-5.7c-0.2-1.4-0.7-4.1-1.3-7c-0.3-1.4-0.7-2.9-1.1-4.4c-0.2-0.7-0.4-1.4-0.6-2
				c-0.2-0.6-0.4-1.2-0.5-1.7c-0.2-0.5-0.4-1.1-0.6-1.6c-0.1-0.1-0.1-0.3-0.2-0.4l-0.1-0.2c0-0.1,0-0.2-0.1-0.1c-0.3,0-0.7,0-1,0.1
				c-0.7,0-1.3,0.1-2.1,0.1c-0.9,0-1.8,0-2.7,0.1c-1.5,0.2-2.7,0.4-3.9,0.6c-1.2,0.2-2.3,0.4-3.4,0.6c0.4,0,1.3-0.2,1.1,0
				c-1,0.2-2,0.4-3,0.6c-1,0.2-1.9,0.5-2.8,0.8c-1,0.3-1.9,0.6-3,0.9c-1,0.4-2.1,0.7-3.4,1.2c0.2-0.1,0.9-0.4,1.1-0.6
				c-2.2,0.7-1.4,0.7-2.7,1.2c-1.3,0.5-0.4-0.1-0.1-0.3c-1.5,0.6-2.2,1.1-3.7,1.7c-1.7,0.6-2.7,1.2-4.7,2.1c-1,0.4-1.8,0.8-2.6,1.2
				c-0.6,0.3-1.5,0.8-2.5,1.4c-1,0.6-2.2,1.3-3.6,2c-0.7,0.4-1.3,0.7-1.5,0.8c-0.9,0.5-1.2,1-2.5,1.5c-1.7,1.1-5.5,3.8-7.6,5.4
				c-0.9,0.7-1.6,1.1-1.9,1.4c-0.6,0.4-0.8,0.7-1.2,1c-0.3,0-0.7,0-1.3,0c-0.4,0-0.6,0-0.8,0c-0.2,0-0.3,0-0.4,0
				c-0.2,0-0.3-0.1-0.6-0.1c-0.3,0-1.1,0.1-1.8,0.1c-2.5,0-6.4-0.1-8.7-0.1c-1,0-1.7,0.1-2.9,0.1c-0.4-0.1-1-0.1-1.7-0.1
				c-1.2,0.1-3.5,0.1-5.3,0.1c-1.2,0-2.8,0.1-4.1,0.1c-1,0-1.2-0.1-2.3-0.1c-3.9,0-9.1,0.1-13.4,0.1c-0.9,0-1-0.1-1.7-0.1
				c-4,0-7.5,0.1-9.9,0.1c-1.2,0-0.8-0.1-1.7-0.1c-3.1,0-5.8,0.1-9.3,0.1c-0.4-0.1-1.3-0.1-1.1-0.2c-0.7,0-0.5,0.1-0.6,0.2
				c-3.8,0-6.5,0.3-9.3,0c-2.1,0-2.1,0-4.7,0.1c-0.6-0.1-1.6-0.1-1.1-0.3c-2.6,0-0.8,0.1-1.8,0.2c-2.7,0.1-2.8-0.2-5.2-0.1
				c-1.1,0-0.4,0.2-1.2,0.2c-2.9-0.1-7,0-11.1,0c-1.2,0-2.7-0.1-4.1-0.1c-1.5,0-3.4,0-5.3,0c-1.3-0.9-2.7-1.7-3.8-2.5
				c-1.1-0.7-2-1.3-2.5-1.7c-0.5-0.3-0.8-0.4-1.1-0.5c-3.2-2.1-5.3-3-9-5.2c-1-0.2-2-1-4.2-2c-0.2,0,0.7,0.6,0.9,0.7
				c0.5,0.3,1,0.4,1.6,0.7c0.8,0.4,0.9,0.6,1.5,0.9c0.7,0.4,1.4,0.7,2.1,1c1.1,0.6,1.8,1.1,3,1.8c1.2,0.7,2.9,1.6,5,3
				c0.6,0.4,1.3,0.9,1.4,1c0.5,0.3,2.2,1.3,3.4,2.2c0.7,0.5,1.2,0.8,1.6,1.1c1,0,1.8,0,3.6,0c2.1,0,4.9,0,8.1,0
				c0.1,0.1-0.6,0.1-0.6,0.2c1.8,0,3.8,0,3.5,0.2c0.7,0,0.5-0.1,0.6-0.2c0.1-0.1-2.1,0-2.9-0.1c1.8-0.2,5.8-0.1,8.7,0
				c1.4,0.1,1.9-0.2,2.3-0.1c1.2,0.1-0.3,0.1-1.2,0.2c-0.6,0,0.2,0.1-1.2,0.1c-0.5,0-0.6-0.1-1.2-0.1c0.1-0.1,1.1,0,1.8-0.1
				c-1.8-0.2-3.8,0-5.8-0.1c-0.9,0.3,4.5,0,3.4,0.4c3.2-0.1,4.3-0.4,8.2-0.2c0.8-0.3-2.8-0.1-2.3-0.3c2.7,0,5,0,6.4,0.1
				c-1,0.1-4.3,0.1-2.4,0.3c1.1,0,0.5-0.2,2.4-0.2c-0.6,0.3,3.8,0.2,4.7,0.1c-0.5-0.1-1.8-0.1-3.5-0.1c0.6-0.2,2.9,0,4.7-0.1
				c-1.4,0.2,1,0.2,2.3,0.4c0.7-0.2-2-0.2-0.5-0.4c1.6,0,1.4,0.3,3.4,0.2c1.7,0-0.9-0.1-1.1-0.1c5.7-0.1,14-0.1,21.6-0.1
				c0.7,0,3.2,0.2,4.1-0.1c3.2,0.1,9.6,0.1,12.2,0.1c-0.9,0.2-4,0.1-6.4,0.1c-3.5,0-6.8,0-9.3,0c0.2,0.2,1.6,0.2,0.5,0.4
				c2.1,0,3.1,0.1,4.1,0c-0.7,0-1.2-0.1-2.9-0.1c1.4-0.3,3.5,0,5.8,0c0.3-0.1-2.7,0-1.7-0.2c12.3,0,29.1,0.1,42.7,0.1
				c2.1-1.7,2.9-2.3,4.1-3.1c0.8-0.6,1.6-1,2.4-1.6c1.1-0.7,1.8-1.3,2.8-1.9c1.6-1,3.7-2,4.9-2.9c0.2,0,2-1,2.6-1.2
				c0.6-0.4,0.5-0.4,0-0.1c8.7-5.2,19.2-9,26.9-10.8c0.8-0.1-0.1,0.1,0,0.1c1-0.2,2-0.5,3-0.7c1.1-0.3,2.3-0.3,3.6-0.5
				c-0.1,0.2-2.2,0.4-2.2,0.5c0.9-0.1,1.9-0.3,2.9-0.5c0.5-0.1,1-0.2,1.4-0.2c0.5-0.1,0.9,0,1.2,0c0,0.1-0.6,0.1-1.2,0.2
				c-0.6,0.1-1.3,0.1-1.6,0.3c-1.8,0.3-2,0.1-3.9,0.5c-0.4,0.1-0.5,0.2-1.1,0.3c-0.2,0.2,0.1,0.2,1.1,0c-1.8,0.4-2.1,0.8-2.2,0.9
				c0.5,0,1.3-0.1,2.1-0.3c0.8-0.2,1.7-0.3,2.3-0.3c0.3,0.2-1.8,0.2-2.2,0.4c-0.6,0.1-0.3,0.2-0.5,0.2c-0.8,0.2-1.7,0.4-2.7,0.6
				c-0.5,0.1-1,0.2-1.6,0.3c-0.5,0.2-1.1,0.3-1.7,0.5c-0.9,0.1-0.9-0.2,0.5-0.6c0.4-0.2-2,0.3-2.2,0.5c-1.7,0.4,1.1-0.5,1.1-0.6
				c-1.2,0.3-1.7,0.5-1.6,0.6c-1.7,0.5-1.3,0.2-3.2,0.9c0.4-0.3,1.3-0.6,2.2-0.8c0.9-0.2,1.7-0.4,2.1-0.7c0.9-0.3,2-0.5,3-0.7
				c1-0.2,2.1-0.4,3-0.7c0.7-0.4-4.4,0.9-2.2,0.2c-1.1,0.3-2.1,0.6-3,0.8c-0.9,0.2-1.7,0.5-2.5,0.8c-1,0.3-2.3,0.8-2.2,0.5
				c-2.2,0.9-6.8,2.4-10.6,4.2c-1.9,1-4.6,2.5-6.1,3.1c-1.4,0.8-2.5,1.6-4.4,2.7c-0.1-0.1,0.6-0.5,0.4-0.5c-1.2,0.7-1.1,0.8-1.9,1.3
				c-1.7,1-4,2.4-4.8,3.1c0.3-0.1,1.1-0.6,2-1.1c-0.9,0.7-3,2-3.7,2.7c-1.1,0.7-1.8,1.2-2.4,1.6c-0.3,0.2-0.7,0.4-1,0.7
				c-0.2,0.1-0.4,0.3-0.6,0.4l-0.2,0.1l-0.2,0.2c-0.2,0.1-0.3,0.3-0.5,0.4c-1,0.8,0.3-0.1,0.1,0.2c-0.4,0.3-0.8,0.6-1.2,0.9
				c-0.7,0-1.2,0-1.8,0c-0.5,0-0.9,0-1.4,0c-0.7,0-1.5-0.1-2.6,0c-0.6,0-0.6,0.1-1.8,0.1c-0.2,0.1,0.4,0.1,1.1,0.1
				c-1.9,0.1-3.3,0-4.6-0.1c-1.3,0,0.7,0.1-0.6,0.2c-1.9,0-0.7-0.4-4-0.3c0.4,0.1,1.3,0.1,1.1,0.2c-2-0.1-2.2,0.1-3.5,0.1
				c0.2,0,0.7-0.2,0-0.2c-0.5,0-1.6,0.1-0.6,0.1c0.2,0.2-3.2-0.1-2.9,0.1c0.7,0.2,5.4-0.1,4.6,0.2c0.8,0,0.5-0.1,0.6-0.2
				L318.4,118.8z M374.8,97.6c-0.1-0.2-0.4-0.3-2.2,0.2l0,0.4C373.4,97.9,374.1,97.7,374.8,97.6z M374.2,96.9
				c-0.6,0.1-1.1,0.3-1.6,0.4c0.6,0.1,0.6,0.2,3.3-0.4C376.8,96.5,373.3,97.4,374.2,96.9z M335.4,115.4c1.4-0.9,0.5,0,2.9-1.7
				c0.5-0.5-0.8,0.4-1,0.4C337.6,113.8,335,115.6,335.4,115.4z M383,293c-1,0.9-3,2.3-2.7,2.3c1.5-1.1,0.9-0.9,1.8-1.5
				c0,0.2,0,0.3,1.1-0.4L383,293z M401.3,272.9l0.9-1.5c-0.4,0.2,0.1-0.7,0-0.7C401.1,272.5,401.5,272.3,401.3,272.9z M400.3,273.5
				c0.5-1.2,0.1-0.7,1.2-2.8C400.5,272.5,398.8,275.7,400.3,273.5z M394.3,282.1c-0.1-0.2,1.4-2.1-0.6,0.2c0.6-0.3-0.7,1.1-1,1.5
				C393.4,283,393.6,282.9,394.3,282.1z M394.9,282c0,0.2-0.6,0.8-0.7,1c0.5-0.6,0.8-0.8,1.6-1.7C395.8,281,395.6,281.2,394.9,282z
				 M396.3,279.2c0.1-0.2,0.4-0.7,0.2-0.6c-0.6,0.8-1.1,1.4-1.5,1.8C395.1,280.6,395.2,280.6,396.3,279.2z M403,270.5
				c-1,1.5-1.8,3.3-3.4,5.5c-0.1,0.1-0.6,0.7-0.8,0.8c-0.1-0.1,0.6-0.9,0.6-1c-0.8,1.2-0.9,0.9-2.2,2.7c-0.7,1-0.9,1.3-1.3,2
				c0.3,0.1,1.2-0.6,2.9-2.9c0.1-0.4-0.5,0.6-0.8,0.9c-0.4,0.5-1.2,1.2-0.6,0.3c0.9-1.1,1.6-2,1.6-1.6c0.9-1.2,1.6-2.4,2.3-3.5
				C401.9,272.4,402.5,271.4,403,270.5z M404.4,270.2c-0.8,1.5-1.5,2.7-1.7,3.2c1-1.9,0.9-1.5,1.8-3.1L404.4,270.2z M409.8,258.9
				c-0.1,0.5-1.6,4.4-1.3,4.1C408.8,262.6,410,258.7,409.8,258.9z M410.5,252.7c0,0.2,0,0.3-0.1,0.4c0,0.2-0.1,0.4-0.1,0.6
				c-0.1,0.4-0.1,0.7-0.2,1c-0.1,0.7-0.3,1.3-0.5,1.9c-0.3,1.2-0.7,2.3-1,3.6c0.1,0.8,1-2.4,1.1-3.4c0.3-1.2,0.5-1.9,0.6-2.5
				c0.1-0.3,0.1-0.6,0.1-0.9c0-0.1,0-0.3,0-0.4c0-0.1,0-0.1,0-0.2C410.5,252.8,410.5,252.8,410.5,252.7z M412.3,244.8
				c-0.5,1.9-0.8,4.5-1.5,6.3C411.4,250.3,412.1,246.7,412.3,244.8z M413.4,242.8c-0.3,1.3-0.6,2.7-0.9,4c-0.4,1.3-0.6,2.5-0.7,3.5
				c0.3-1.5,0.7-2.9,1-4.2C413.1,244.8,413.3,243.7,413.4,242.8z M405.5,263.2c0-0.1,0-0.1,0.2-0.6c-0.1-0.2-0.4,0.7-1,2
				C404.7,264.9,405,264.6,405.5,263.2z M406.7,263.2c-0.1-0.5-1.3,3-2,4.3c0.2-1-0.2,0-1.2,2c0,0.4,0.8-0.7,1.5-2.2
				c0.4-0.7,0.7-1.5,1-2.2C406.3,264.3,406.5,263.6,406.7,263.2z M406.3,263c-0.6,1.8-0.8,1.6-1,2.1c-0.4,1-0.8,1.8-0.9,2.2
				c1-2.1,1.1-2.3,0.7-0.9c0.3-0.7,0.7-1.7,1-2.5C406.3,263.1,406.5,262.6,406.3,263z M405.7,262c0.3-0.7,0.5-0.9,0.7-1.3
				c0.2-0.4,0.5-0.9,0.9-2.4c0.1-0.6-0.4,1-0.5,1c0,0,0.3-1.3,0.2-1.2c-0.1,0.1-0.2,0.2-0.8,2.1C406.6,259.8,406,261.2,405.7,262z
				 M409.4,249.2c0.5-0.4-1.2,4.7-0.4,3c-0.4,1.9-0.3,2.4-0.5,3.5c-0.6,1.9-1.2,3.6-2.1,6l0.2,0.1c0.9-2.5,1.3-3.9,1.1-2.7
				c0.4-1.5,0.7-2.8,1-4.1c0.1-0.6,0.2-1.3,0.3-1.9c0-0.3,0.1-0.6,0.1-1c0.1-0.3,0.2-0.7,0.2-1C409,251.7,410.5,245.7,409.4,249.2z
				 M410,242.7c-0.2,1.1-0.4,2.1-0.5,3.1c-0.2,0.9-0.3,1.8-0.5,2.7c-0.3,1-0.6,2.2-1,3.5c-0.1,0.2-0.1,0.4-0.1,0.6
				c0,0.2-0.1,0.3-0.1,0.5c-0.1,0.3-0.1,0.7-0.2,1.1c-0.1,0.7-0.3,1.5-0.5,2.2c0.1,0.2,0.2,0,0.4-0.4c0.1-0.5,0.3-1.3,0.4-2.1
				c0.1-0.4,0.1-0.8,0.2-1.1c0-0.3,0.1-0.7,0.1-0.9c-0.1,0.4-0.2,0.8-0.2,1c0,0.3-0.1,0.5-0.1,0.7c-0.1,0.4-0.1,0.8-0.3,1.2
				c0-0.4,0.1-0.8,0.2-1.3c0.1-0.4,0.1-0.8,0.2-1.3c0.2-0.9,0.5-1.5,0.6-1.9c-0.3,1.5-0.3,1.7-0.3,1.9c0,0.1,0.1,0.2,0,1.1
				c-0.2,1.1-0.3,1.2-0.5,2.2c0.2,0.2,0.5-1.6,0.6-1.6c0,0.2-0.5,2.8-0.1,1.2c0.4-1.9-0.1-1.9,0.6-4.7c-0.6,1.4-0.1-0.9,0.1-1.8
				c-0.3,1.1-0.1-0.4,0.1-1.2c0.1,0.2,0.4-0.8,0.6-1.9c0.2-1.1,0.5-2.3,0.7-2.5l-0.3-0.1c-0.3,1.5-0.6,3.4-0.8,3.4
				C409.8,244.6,410.4,242,410,242.7z M411.6,240.2c0.2-1.6,0.3-1.5,0.5-2.9C412,236.3,411.4,240.3,411.6,240.2z M411.6,236.6
				c-0.4,2.5,0,0.8-0.1,1.8c-0.2,1.5-0.6,3.4-0.5,3.5c0.5-2.2,0.5-3.7,0.8-4.6C411.5,237.7,411.8,236.4,411.6,236.6z M411.8,233
				c-0.1,1-0.6,2.8-0.5,3.4c0.1-0.4,0.2-0.6,0.2-0.5C411.8,234.5,411.9,233.2,411.8,233z M412.4,229.1c0.1-1.9,0.2-0.4,0.3-2.3
				c0-0.9-0.1-0.5,0.1-2.3c-0.1-0.8-0.2,1.9-0.3,1.1c0.1-0.9,0.2-1.6,0.2-2.1c0.1-0.6,0.1-1,0-1.3c0,1.7-0.2,1.7-0.3,3.4
				c0,1.1,0,2,0,2.9c0,1-0.1,2-0.3,3.5c0.1,0.1,0.2-0.1,0.1,0.6c-0.3,2.9,0.2-1.6,0.1-1.7c0.1-0.8,0.5-1.7,0.3-2.3
				C412.5,229.1,412.3,229.9,412.4,229.1z M413.3,222.2c-0.1,0.7-0.2,2-0.3,3.5c0.1,0.8,0.2-1.9,0.3-1.1c-0.1,1.8-0.2,2.1-0.3,3.5
				c0,1,0.1,0,0.2,0.1c0.1-1.7,0.4-4.6,0.2-5.3C413.3,225.5,413.4,222.4,413.3,222.2z M413,219.8c0.1-0.5,0.6-1.1,0.4-2.8
				c0,1-0.1,1.3-0.2,1.1c0-1,0-2.9-0.1-2.3c0,1,0,1.8,0,2.5c0,0.7-0.1,1.4-0.1,2.1c0,0.8-0.2,4.2,0,2.3L413,219.8z M413.7,221.7
				c0-0.4,0.1-1.8,0.2-2.9c0.1-1.1,0-1.9,0-1.2C413.8,217.8,413.6,221,413.7,221.7z M414.1,217.1c-0.1,1.9,0.2,0.5,0.1,2.4
				c0,0.9-0.2,0.4-0.2,1.7l0.2,0c0-2.2,0.2-2.8,0.2-4.7C414.2,216.3,414.3,218.6,414.1,217.1z M413.4,212.3c-0.2-0.7-0.2,5-0.1,3.5
				C413.3,213.5,413.6,214.7,413.4,212.3z M413.9,210.1c0,1.6,0,2.4,0,4.6c0.1,0.2,0.2-0.7,0.2-1.7C414,212,414,210.7,413.9,210.1z
				 M413.2,203.7c0.1,1.4,0.2,4.6,0.4,5.2C413.6,207.5,413.4,203.8,413.2,203.7z M412.3,201.3c0.2,1.4,0.1,2.7,0.3,3.4
				C412.7,204,412.7,202,412.3,201.3z M411.8,201.3c0,0.7,0.2,1.8,0.3,3.1c0.1,1.3,0.2,2.6,0.3,3.8c0.3,0.6-0.3-3.2,0-2.9
				c0.1,0.8,0.2,0.6,0.1-0.6c-0.1-0.3-0.3,0.6-0.4-0.6C412.2,203.6,412,202,411.8,201.3z M407,180.5c-0.4-1.3-0.5-1.6-1.1-3.3
				c-0.2-0.4,0,0.5,0.4,1.4C406.6,179.5,407,180.5,407,180.5z M412.8,199.6c-0.1-0.4-0.2-1.1-0.2-1.2c0.3,2.3,0.4,1.8,0.6,2.3
				c-0.1-0.8-0.2-1.6-0.3-2.3C412.7,198,413,199.6,412.8,199.6z M411.4,197.9c-0.2-0.1,0,0.9,0,1.7c0.1,0.2,0.2,0.8,0.3,0.6
				C411.7,199.4,411.5,198.6,411.4,197.9z M411,189.9c0.3,1.5,0.5,2.4,0.7,3.2c0.2,0.8,0.4,1.5,0.6,2.5c-0.1,0-0.2-0.4-0.3-0.9
				c-0.1-0.5-0.3-1.1-0.4-1.4c0.2,1.8,0.7,3.1,1,4c-0.4-3.1-1-4.9-1.2-6.9C411.4,190.9,411.1,189.6,411,189.9z M410.5,191.6
				c-0.7-2.9-0.6-2.3-0.3-1c0.3,1.3,0.7,3.3,0.8,3.3C410.8,192.8,410.7,192.6,410.5,191.6z M408.6,184.3l-0.3,0
				c-0.1-0.1-1.3-4-0.8-2.2c0.4,1.1,0.7,2.1,0.9,3c0.3,0.9,0.5,1.8,0.6,2.5c0.3,0.4,0.1-0.3-0.1-1c-0.2-0.7-0.4-1.5-0.2-1.2
				c0.3,1.1,0.4,1.2,0.7,2.2c-0.2-0.1,0,1.2,0.3,2.7c0.3,1.5,0.6,3.1,0.9,3.6c-0.2-1.1-0.5-2.2-0.6-3.1c-0.2-0.9-0.4-1.6-0.5-2
				c0-1.1,0.6,1.9,0.8,1.7C409.8,187.8,409.5,187.4,408.6,184.3z M406.6,175.9c0.6,1.5,0.3,1.1,0.7,2.2c0.5,1.2-0.1-0.7,0.4,0.5
				c0,0.2,0.3,0.7,0.6,1.7c-0.1,0.4-0.5-1-0.3,0c0.3,0.8,0.7,2,0.8,2.2c-0.1-0.3-0.2-0.6,0.1,0c0.9,2.8,0.5,2.4,0.9,3.9
				c0.2-0.2,0.6,1,0.8,0.5c-0.7-2.3-0.8-2.8-1.4-5.1c-0.1-0.1-0.2-0.1-0.5-1.1c-0.6-1.7-0.3-1.6-1.3-3.9
				C407.1,176.7,406.6,175.4,406.6,175.9z M406.5,176.5c0.6,2.1,0.2,1,1,2.7c-0.4-0.6,0.3,1.4,0,1.2c0.3,1.1,0.9,2.1,0.5,1.1
				c-0.1,0-0.4-1-0.4-1.1l0.1,0c0.4,1.1,1.1,3.6,1.3,3.9c-0.2-1.1-0.8-2.6-1.2-3.9c-0.1-0.8-0.4-1.6-0.7-2.5c-0.3-0.9-0.7-1.9-1.1-3
				C405.6,174.6,406.3,175.8,406.5,176.5z M403.5,170.8c0.4,1,1,2.2,1.1,2.7c-0.6-1.2-1.1-2.5-1.7-3.7c-0.3-0.4-0.5-0.6-0.5-0.4
				c0.7,1.5,1.1,2.4,1.5,3.1c0.4,0.7,0.7,1.4,1.3,2.7c0.3,0.3-0.3-1-0.3-1.1c0,0,0.1,0.3,0.3,0.5c0.1,0.3,0.3,0.5,0.3,0.5
				c0,0-0.4-1.1-0.4-1.1c0-0.2,0.6,1.1-0.1-0.6C405.1,174.5,403.8,171,403.5,170.8z M401.6,165.9c0.4,1,1.7,3.4,2.5,5.2
				C404.3,170.7,402.6,167.3,401.6,165.9z M400.5,164.4c-0.1-0.2-0.2-0.5-0.5-0.9c-0.3-0.6-0.1-0.4-0.8-1.5
				c-0.2-0.4-1.1-1.9-1.3-1.9c0.5,0.9,1.9,2.9,1.8,3c-1.4-2.4-1-1.3-1.4-1.9c-0.3-0.6-1-1.8-1.8-2.9c0,0.4,2.4,3.9,3.1,5.5
				c-0.1,0-0.3-0.4-0.4-0.5c0.8,1.6,0.5,1,1.4,2.5c0.6,0.7-1.2-2.3-0.6-1.6c0.5,0.8,0.9,1.7,1.4,2.5c0.5,0.4-1.2-2.3-1.2-2.6
				C400.2,163.9,400.3,164.1,400.5,164.4C400.7,164.9,400.6,164.7,400.5,164.4z M395.8,156.5c1.7,2.6,0.9,1.1,1.4,1.9
				c1.4,2,2.6,4.4,3.6,6c-0.4-0.8-0.1-0.5-0.1-0.6c-1.5-2.3-2.4-4.1-4.7-7.4L395.8,156.5z M393.5,143.3c-0.1-0.1-0.2,0.2-0.3,0.5
				c-0.5,1.4-0.5,1.8-0.6,2.3C392.9,145.4,393.3,144.1,393.5,143.3z M394.5,136.9c-0.1,1-0.8,3.3-0.7,3.4c0.1-0.3,0.3-1.2,0.5-1.9
				C394.5,137.6,394.5,136.9,394.5,136.9z M395.1,124.2c-0.1,1.1,0,0.7,0,2.3C395.3,127,395.3,123.7,395.1,124.2z M395.7,123.7
				c0,1.3-0.2,4.2-0.2,5.8C395.7,128.1,395.8,124.6,395.7,123.7z M395.6,112.7c0.1,0.9-0.1,0.5,0.2,2.3l0.2,0
				C395.8,114.1,395.7,112.9,395.6,112.7z M394.6,108.1c0.3,1.9,0.7,4.4,0.9,4c0-0.4-0.2-2.2-0.4-2.3c0.1,0.4,0.1,0.7,0,0.6
				C394.9,108.5,394.7,108.6,394.6,108.1z M393,100.1c-0.3-0.2,0.6,2.3,0.9,3.4c0.4,1.4,0.7,4,1,4.6
				C394.4,105.4,393.6,101.7,393,100.1z M391,95.7c0.2,0.7,0.9,3.3,1.1,3.3C391.7,98,391.1,95.7,391,95.7z M397.1,127.5
				c0,1-0.1,1.5-0.2,2.2c-0.1,0.6-0.1,1.3-0.2,2.6c0.1,0.1,0.3-0.7,0.4-1.6C397.1,129.6,397.2,128.4,397.1,127.5z M397.2,120.9
				c0.2,2-0.1,3.1,0,4.1c0-2.4,0.1-1.4,0.2,0C397.4,123.4,397.3,121.5,397.2,120.9z M397.1,113.9c-0.1,0.6-0.4,0.2-0.1,2.3
				C397.2,116.5,397.1,115,397.1,113.9z M396.5,112.1c0.4,3.2-0.7-2.2-0.1,1.7C396.7,114.8,396.8,113.6,396.5,112.1z M392.8,96.6
				c-0.2-0.7-0.1-0.6,0-0.6c-0.1-0.3-0.2-0.5-0.3-0.8c-0.1-0.3-0.2-0.5-0.3-0.8c-0.2-0.5-0.3-0.9-0.5-1.2
				C391.5,92.8,392.6,96.4,392.8,96.6z M391.5,90.6c0,0.2-0.3-0.1,0.1,0.9c0-0.3,0.8,2.2,0.8,2.3c-0.1,0-0.7-1.9-0.7-1.4
				c0.3,0.8,0.6,1.7,0.9,2.7c0.2,0.8,0.5,1.5,0.8,2.3c0.5,1.5,0.9,3,1.2,4.3c0.3,1.4,0.3,2.1,0.6,3.5c-0.4-1.8-1.4-5-1.3-4
				c0.5,1.1,1.4,5.1,1.7,5.7c0-0.1-0.3-1.9-0.1-1.2c0.2,1,0.7,2.4,0.6,2.9c-0.1-0.7-0.3-1.7-0.4-1.7c0.1,0.9,0.4,2.4,0.4,2.9
				c-0.2-0.7-0.2-0.6-0.1,0.6c0.1-0.4,0.4,2,0.5,1.2c-0.2-1.5-0.4-1.8-0.3-2.3c0.3,0.6,0.6,1.2,0.8,1.8c-0.1-0.8-0.2-1.6-0.4-2.3
				c-0.3-0.8,0.2,2.3-0.1,0.6c-0.1-0.6-0.5-2.6-0.4-2.3c0-0.1,0.4,1.6,0.3,1.2c-0.2-1.7-0.7-3.4-1.1-5.2c-0.3-1.2-0.7-3.3-0.9-3.4
				c0.7,2.7,0.7,3.5,1.2,5.8c-0.6-1.7-0.6-3.4-0.9-4.6c-0.3-1.2-1.3-4.2-1.5-5.2c0.2,0,1.1,3.8,1.1,2.9c-0.2-0.7-0.4-1.2-0.5-1.7
				c-0.2-0.5-0.3-1-0.5-1.5C392.6,93.7,392.2,92.5,391.5,90.6z M378.6,92.4c0.3,0.1,2.1,0.2,4.1-0.2c-0.7,0.1-0.9,0-1.2,0
				c0.8-0.2,2.5-0.4,4.1-0.4c-0.4,0.1-0.1,0.1,0.2,0.1c0.4,0,0.9,0,1,0c1.1,0,1.7-0.1,2.4-0.1c0.2,0,0.3,0,0.5,0c0.1,0,0.2,0,0.2,0
				l0.1,0l0.1,0c0,0,0,0,0,0.1c0.1,0.3,0.3,0.7,0.4,1.2c0-0.5-0.1-0.5,0.3-0.2l-0.3-0.8l-0.2-0.4c0,0,0-0.1,0-0.1l-0.1,0l-0.2,0
				l-1.8,0l-3.4,0.1c-0.5,0-1,0.1-1.5,0.1l-1.5,0.2L378.6,92.4z M362.8,97c2-0.7,3.6-1.3,5-1.8c0.2,0.1-1.6,0.6-1.6,0.8
				c0.4-0.1,1.1-0.4,1.1-0.3c0.4-0.1,0.7-0.2,1.1-0.3c0.1-0.1-0.2-0.2,0.5-0.4c0.8,0.1,2.9-0.8,4.5-1.2l0,0.2
				c2.3-0.7,6.1-1.1,6.3-1.3c-1.2,0.1-2.3,0.4-2.9,0.4c-0.6,0.1-0.7,0,0-0.2c-2.3,0.5-4.2,0.9-5.2,1.3c-0.7,0.2-1.6,0.4-2.5,0.7
				c-0.5,0.1-0.9,0.2-1.4,0.3c-0.5,0.1-0.9,0.3-1.3,0.4C364.8,96.1,363.3,96.6,362.8,97z M351,100.3c1.5-0.9,2-0.9,2.6-1.4
				c-1.3,0.5-1,0.4-2.7,1.2L351,100.3z M348.2,103c0.6-0.3,1.9-0.9,3.2-1.6C352.1,100.9,348.2,102.9,348.2,103z M347.9,103.8
				c3.4-1.9-0.4,0.4,1.1-0.3c2.4-1.1,3.9-2.1,5.7-2.9c1.3-0.7-1,0.3,0.5-0.5c1.3-0.5,2.4-0.9,4.4-1.6c0.9-0.5,1.4-0.8,1.6-1
				c-2,0.8-4.4,1.7-2.2,1c-1,0.4-1.7,0.6-2.4,0.9c-0.7,0.3-1.5,0.6-2.5,1c-0.6,0.4-1.8,1-3,1.6C349.9,102.7,348.6,103.3,347.9,103.8
				z M347.5,104.4c-0.6,0.3-0.3,0.1,0-0.1c-1.4,0.8-1.2,0.4-2.6,1.2C343.9,106.1,346.4,105.1,347.5,104.4z M153.3,152.2
				c-0.5,0.6-1.1,1.3-1.1,1.5c1.4-1.7-0.8,1.5,0.9-0.8C153.5,152.3,153.2,152.7,153.3,152.2z M153.4,127.1c0.2,2.6,0.2,4.1,0.5,5.9
				C153.9,132.4,153.6,128.4,153.4,127.1z M155.3,98.9c-0.5,1.8-0.7,2.1-1,3.5c0.1,0.1,0.3-0.8,0.6-1.6
				C155.1,99.9,155.3,99,155.3,98.9z M160.4,89.4c-0.3,0-0.6,0.1-0.9,0.1l-0.5,0c0,0-0.1,0-0.1,0l-0.1,0.1l-0.1,0.2
				c-0.3,0.6-0.6,1.1-0.8,1.7c-0.3,0.6-0.5,1.1-0.8,1.7c-0.1,0.3-0.2,0.6-0.3,0.8c-0.1,0.3-0.2,0.5-0.2,0.7c0-0.1,0.3-0.7,0.6-1.4
				c0.3-0.7,0.7-1.6,1.1-2.4c0.2-0.4,0.4-0.8,0.5-1.1c0-0.1,0.1-0.2,0.1-0.3c0.1,0,0.2,0,0.3,0c0.2,0,0.3,0,0.5-0.1
				C160.2,89.5,160.6,89.4,160.4,89.4z M215.1,109.1c-0.6-0.3-0.6-0.1-1.2-0.4l2,1.2C216.1,109.9,216.2,109.8,215.1,109.1z
				 M238.9,114.2c-2.2,0-1.1-0.3-4-0.2c-0.3,0.2,2,0.2,0.5,0.3C237,114.3,238.3,114.3,238.9,114.2z M248.5,112.7
				c-1.8,0.1-1.4-0.1-2.3-0.1c-0.2,0.2,1.1,0.2,1.7,0.3c0,0.1-1.6,0.1-1.2,0.2C250.1,113.1,248,113,248.5,112.7z M281.6,112.9
				c-1.7,0-3,0-3.5,0.1C280.3,113,281.5,113.2,281.6,112.9z M296.5,114.2l-2.9,0C293,114.4,297.1,114.4,296.5,114.2z M301.3,113.3
				c-1.5,0-3.4,0-3.5,0.1C299,113.3,301.9,113.5,301.3,113.3z M310.6,113.5c-2,0-4.9,0.1-3.5,0.2
				C307.3,113.6,311.6,113.8,310.6,113.5z M323.9,114.4c-0.4-0.2-1.8-0.3-4-0.2C318.8,114.5,321.8,114.4,323.9,114.4z M332.7,111.2
				c-0.6,0.3-1.2,0.7-1.7,1.2c-0.3,0.3-0.7,0.5-1,0.8c-0.2,0-0.5,0-0.7-0.1c-0.2,0.1,0.4,0.1,0.7,0.1c0,0,0,0,0.1,0
				C330.2,113,332.4,111.7,332.7,111.2z M341.3,107.5c-2.1,1.4-3.3,2.3-4.3,3.2c1.3-0.9,3.5-2.1,4.4-2.9
				C340.3,108.6,340.9,107.8,341.3,107.5z M329.5,115.2c-0.2,0.1,0.4,0.1,1.2,0.1c0.4-0.3,0.8-0.6,1.2-1c0.5-0.4,0.9-0.7,1.2-0.9
				c0.6-0.5,0.9-0.7,1.9-1.4c-0.2,0.4,0.3,0,1.5-0.8c0.3-0.4-1.4,0.8-1.1,0.4c1.9-1.2,2.1-1.5,2.8-2.1c-1.3,0.9-2.7,1.9-4,2.9
				c-1.4,1-2.7,2.1-3.7,2.9C330.3,115.2,329.9,115.2,329.5,115.2z M298.7,115.1c0.5,0,0.7,0.1,0.6,0.1c1.8,0,1.1,0,2.9,0
				C302.7,115,298.4,115,298.7,115.1z M287.6,115.2c1.3,0,2.2,0,2.3-0.1c-0.8,0-1.1-0.1-2.3-0.1L287.6,115.2z M283.6,115.1
				c0.7,0.2,0.9,0.4,3.4,0.4c0.6-0.2-0.7-0.1-1.1-0.2c0,0,0.9-0.1,0-0.1L283.6,115.1z M244.5,115.4c1.7,0,3,0,3.5-0.1
				c-1.7,0-1.8-0.1-3.5-0.1L244.5,115.4z M135.8,216.9c-0.1,0.2-0.2-1.3-0.3-3c0,1.2-0.2,0.7-0.1,2.3
				C135.5,216.6,135.9,219.3,135.8,216.9z M136.8,229.8c0-0.5,0-0.7,0.1-0.6c-0.2-2-0.3-1.9-0.5-2.9
				C136.5,227.3,136.7,229.7,136.8,229.8z M137.4,309.9c1.3,0.7,1.9,1.4,3,1.8c-0.3-0.2-0.8-0.6-1.4-1
				C138.5,310.3,137.8,310,137.4,309.9z M129.3,306.2c1,0.3,1.3,0.4,1.1,0.5c1.8,0.6,2.1,0.5,4,1.4c0.1,0-0.5-0.3-1.3-0.7
				c-0.8-0.3-1.6-0.7-2-0.8c-0.3-0.1,0,0.2-0.6-0.1C130.5,306.5,129,305.9,129.3,306.2z M119,305.9c-0.1,0,0.1,0.1,0.4,0
				c0.2,0,0.4,0,0.6,0c0.2,0,0.4,0,0.6,0c0.4,0,0.9,0,1.3-0.1c0.4,0,0.7,0,0.8,0c-0.6,0-1.1-0.1-1.7,0c-0.3,0-0.6,0-0.9,0
				C119.7,305.8,119.3,305.8,119,305.9z M223.8,401.7c0,2.2,0.3,2.3,0.2,0L223.8,401.7z M223.4,385.9c-0.2-0.1-0.2,1.7-0.1,3.5
				C223.5,389.8,223.5,387.7,223.4,385.9z M227.9,377c-0.1,1.4-0.4-0.2-0.3,3.1c0.1,0.8,0.2,1.3,0.3,1
				C227.8,379.1,227.9,378.8,227.9,377z M210.5,374.3c-0.2,0.1,0.8,0.1,1.1,0.2c-0.4,0.1-1.2,0.3,1.1,0.3c0-0.1-0.2-0.1-0.5-0.2
				c1.2,0,1.8,0,1.8-0.1C211.9,374.5,211.5,374.3,210.5,374.3z M207.6,379.8c1.6,0,5.5,0.2,5.3,0c-0.5-0.2-0.9,0.1-2.4,0
				c-0.1-0.1-0.1-0.1-1.1-0.1C210.3,379.9,207.4,379.6,207.6,379.8z M205.2,374.6c1.4,0.1,3.6,0,2.9-0.2c-2.2,0-3.4,0.3-5.8-0.1
				C201.8,374.5,204.2,374.6,205.2,374.6z M198.3,374.5c0.9-0.1,2.9,0,2.9-0.2C198.6,374.2,195.9,374.2,198.3,374.5z M162.9,370.6
				c-0.6-0.4-0.8-0.5-1.1-0.7c-0.3-0.2-0.6-0.4-1.4-1c-0.2-0.1,0.2,0.4,0.8,0.8C161.9,370.1,162.6,370.6,162.9,370.6z M139.7,334.2
				l0.2-0.1l-1-1.4C138.6,332.6,138.8,333,139.7,334.2z M146.6,316.9c-1.3-1.1-4.5-3.3-3.8-2.7c0.5,0.3,1.6,1.1,2.6,1.9
				C146.3,316.8,147,317.3,146.6,316.9z M151.8,322.3c-1-1-0.7-1-2.3-2.5C149.4,319.9,151,321.7,151.8,322.3z M155.3,326.3
				c-0.2-0.1,0.2,0.7,0.6,1.6c0.5,0.8,1.1,1.7,1.2,2c-0.3-0.6-0.6-1.2-1-1.9C155.8,327.4,155.6,326.8,155.3,326.3z M167.4,343.9
				c-1.2-1.1-0.7-0.9-1.1-1.3c-0.4-0.4-0.8-0.8-1.2-1.1c-0.4-0.4-0.7-0.8-1-1.1c-0.6-0.7-1.1-1.2-1.5-1.5c-0.1-0.1-0.7-1-1-1.4
				c-2.2-2.3-4.4-6.3-6-9.3c0.1,0.5-1.4-3-0.6-1c0.4,1,0.6,1.1,1.1,2.1c0,0.2,0.9,2.1,1.5,3.2c0.6,0.9,0.9,1.2,1.7,2.4
				c0.2,0.3,0.4,0.6,0.6,1c0.2,0.3,0.5,0.7,0.7,1c0.5,0.7,0.9,1.3,1.4,1.9c0.5,0.6,0.6,0.6,1.2,1.3C164,341.1,167.1,344,167.4,343.9
				z M224.8,335c-0.5,1.3-0.9,2.5-1.3,3.8c-0.2,0.7-0.3,1.2-0.3,1.6c0,0.4-0.1,0.7-0.2,1.3c-0.1,0.6-0.1,0.4-0.2,0.5
				c-0.1,0.5,0,0.5,0,0.6c-0.2,1.4-0.3,2.6-0.3,3.5c0,0.2,0,0.4,0,0.6c0,0.1,0,0.2,0,0.3l0,0.1l-0.1,0.1c-0.3,0.2-0.4,0.3-0.6,0.4
				c0.2-0.1,0.6-0.2,0.8-0.4c0-0.3,0.1-0.7,0.1-1c0.1-0.7,0.1-1.5,0.2-2.3c0-0.8,0.2-1.5,0.3-2.3c0.1-0.8,0.2-1.6,0.4-2.4
				c0.2-0.8,0.5-1.8,0.8-2.6C224.5,336,224.8,335.3,224.8,335z M180.9,306.6c1.2,0.7,2.1,1.3,3.2,1.7
				C184.7,308.4,180.7,306.3,180.9,306.6z M190.8,310.8c-2-0.9-2.3-0.6-1.3-0.2C189.3,310.3,191.5,311.3,190.8,310.8z M188.3,309.4
				c1.3,0.5,0.9,0.6,2.6,1.3C193.8,311.7,189.4,309.5,188.3,309.4z M225,333.7c0.1,0.2,0.6-1.1,0.7-0.9c-0.2,0.4-0.4,1.1-0.4,1.1
				c0.5-1.5,0.9-2.3,0.8-2.4C226.1,331.4,225.6,332.1,225,333.7z M228.5,313.6c0.4,0,0.9,0.1,1.6,0.1c0.7,0,1.4,0,2.1,0
				c1.4,0,3-0.2,4-0.3c-1,0.1-1.9,0.1-2.7,0.1c-0.7,0-1.4,0-2,0c-0.6,0-1.1,0-1.6,0C229.4,313.6,228.9,313.6,228.5,313.6z
				 M212.3,312.1c2.1,0.2,2,0.4,3.9,0.7c0.1-0.1,1.1,0,0.1-0.3C215.3,312.5,212.2,311.9,212.3,312.1z M181.9,301.7
				c0.6,0.4,2.4,1.4,2.5,1.3C183.8,302.6,182,301.7,181.9,301.7z M182.4,305.6c0.9,0.5,1.5,0.8,2.1,1.1c0.6,0.3,1.2,0.5,2.2,0.9
				c-0.6,0,2,1,2.1,1c1.1,0.5,1.3,0.7,2.6,1.3c-0.1-0.2,0.6,0.1,1.5,0.4c0.9,0.3,1.8,0.6,2,0.6c1,0.4,2.8,0.9,2.2,0.9
				c-1.8-0.6-2.2-0.9-2.8-0.9c0.9,0.4,1.7,0.7,2.7,1c1,0.3,4.8,1,5.1,1.4c-0.3-0.1-0.7-0.1,0,0.1c0.8,0,3.2,1.1,4,0.9
				c-0.3-0.1-2.2-0.5-2.2-0.7c1.4,0.4,2.5,0.6,3.6,0.9c1,0.3,1.9,0.4,2.7,0.4c0.4,0.1,0.9,0.3,1.1,0.4c0.5,0.1,3.7,0.6,4,0.7
				c0.1,0-0.1,0.1,0,0.1c1.1,0.2,2.4,0.2,3.5,0.4c0.1,0.1-0.1,0.2,0.5,0.2c1.3,0,0-0.2-0.5-0.4c2.4,0.2,0.7-0.2,3.6,0
				c1.2,0.1,0.7,0.2,2.3,0.3c0.2,0,0.6,0,1.1,0c0.4,0,0.9,0,1.2,0c1.7,0,3.5,0.1,5.4,0c0.9,0,1.9,0,2.8-0.1l1.4-0.1l0.7,0l0.2,0
				c0,0-0.1,0.1-0.1,0.1l-0.3,0.2c-0.1,0.1-0.2,0.2-0.4,0.4c-0.2,0.2-0.5,0.4-1,0.9c-2.2,2-3.7,3.7-5.1,5.6
				c-1.4,1.9-2.6,3.9-4.1,6.9c0.1,0.3,0.6-0.6,1.2-1.9c0.3-0.6,0.7-1.3,1.1-1.9c0.4-0.6,0.7-1.2,1-1.6c1-1.5,2.1-2.8,3.4-4.1
				c1.2-1.3,2.6-2.5,3.9-3.6c-0.3,0.1-0.2-0.1,0.2-0.4c0,0,0.1-0.1,0.1-0.1c0.3-0.2,0.5-0.4,0.8-0.6l0.2-0.1l0,0c0,0,0,0,0,0l-0.1,0
				c-0.1,0-0.3,0-0.4,0c-0.6,0-1.1,0.1-1.6,0.1c-1.1,0-2,0.1-3,0.1c-2,0.1-3.8,0.1-6.1,0c-0.3-0.1,1.8-0.1-0.5-0.2
				c-0.7,0.1-2.3,0-3,0.1c-4.3-0.3-8.4-0.8-10.4-1.3c-2.3-0.3-4.7-0.7-6.3-1.2c0.3,0.2-0.4,0.1-1.4-0.1c-0.9-0.2-2.1-0.5-2.7-0.6
				c0.2-0.1,1.6,0.3,1.8,0.2c-2-0.4-2.7-0.7-5.1-1.4c-1-0.1,2.4,0.8,2.2,0.8c-0.5,0.1-2.7-0.8-5-1.5c-0.1,0-0.2,0.1-1.2-0.3
				c1.2,0.2-0.2-0.1-1.6-0.6c-2.3-0.9-4-1.6-5-1.8c0-0.1,0.2-0.1,0.7,0c-2-0.9-1.8-0.7-2.8-1c-0.8-0.4-1.7-0.8-2.5-1.2
				c-0.8-0.4-1.5-0.8-2.1-1.1c-0.6-0.4-1.2-0.7-1.6-0.9c-0.4-0.3-0.7-0.5-0.9-0.7c0.1,0,1,0.4,0.1-0.1c-0.8-0.4-0.9-0.3-1.7-0.7
				c-1.4-0.8-2.1-1.6-2.9-1.9c0.5,0.4,1,0.7,1.4,1c0.5,0.3,0.9,0.5,1.3,0.8c0.8,0.5,1.4,0.8,1.6,1.1c-0.9-0.5-2.4-1.3-3.6-2.1
				c-2.1-1.4-0.7-0.5-2.4-1.7c-1.3-0.7,0.8,0.9,3.4,2.6c1.3,0.8,2.7,1.6,3.7,2.2C181.7,305.3,182.4,305.7,182.4,305.6z M160.5,289
				c0.4,0.2-1.1-1.7-1.8-2.3C158.2,286.5,159.8,288.4,160.5,289z M149.2,275c0.7,1.5,2,3.4,2.4,4.1c-0.1-0.4-0.8-2-1.3-2.6
				c0.2,0.3,0.4,0.6,0.2,0.5C149.8,276.1,149.4,275.3,149.2,275z M147.8,271.2c0.3,0.9,1.4,2.7,1.7,3.1
				C149.2,273.4,148.1,271.6,147.8,271.2z M147.4,269.5c-0.2,0,0.4,1.5,1.2,2.7c0.2,0.2,0-0.2-0.3-0.8
				C147.9,270.8,147.6,270,147.4,269.5z M150,267c0.5,1.5,1.2,2.5,1.9,3.5c-0.5-0.9-0.8-1.7-1.1-2.3
				C150.4,267.7,150.2,267.2,150,267z M149.9,265.9c0.3,0.2-0.3-1.1-0.9-2.6c-0.1-0.1-0.1,0.2,0.1,0.7
				C149.3,264.4,149.6,265.1,149.9,265.9z M146.7,258.5c0.5,1.3,0.9,2.6,1.1,2.6C147.6,260.4,146.8,258.1,146.7,258.5z M142,252.8
				c0.5,2.1,0.5,1.1,0.9,2.8c0.1,0.6,0.5,2,0.8,3.3c0.4,1.3,0.9,2.6,1.1,2.8c-0.3-1-0.8-2-1-2.9c-0.3-0.9-0.5-1.7-0.5-2.1
				c0,0.1,0.6,1.8,0.2,0.6C143.1,256.3,142.1,252.2,142,252.8z M144.7,251.4c0.4,1.6,0.3,1.4,0.7,2.7c0.1,0,0.2-0.1,0.1-0.6
				C145.1,252.2,144.9,251.9,144.7,251.4z M138.3,235c0.6,2.9,0.6,4.7,1,5.8c-0.3-1.8,0-1.8-0.4-4c-0.2-0.7-0.3-0.7-0.2,0
				C138.5,235.8,138.4,235.3,138.3,235z M137.9,229.3c0.2,1.5,0.3,1.9,0.5,1.7C138.2,229.4,137.9,228.2,137.9,229.3z M138.1,197.3
				c-0.1,0.4-0.1,0.7-0.2,0.5c-0.2,1.6-0.4,4-0.5,4.1c-0.1-0.2,0.3-2.6,0.1-2.4c-0.4,2-0.2,2.1-0.3,4.1c0.2-0.8,0.2,0.2,0.4-0.5
				C137.7,200.9,138,198.8,138.1,197.3z M148.4,163.9c-0.5,1-0.7,1.1-1.2,2c0.4-0.3-0.3,0.8,0,0.7
				C148,165.1,148.1,164.6,148.4,163.9z M152.8,156.9c-0.8,1-1.5,1.7-2.1,2.8c0.1,0.1,0.2-0.1,0.5-0.4c-1,1.8-2,3-2.5,4
				c0.2-0.2,0.7-1,1.3-1.9c0.6-0.9,1.2-1.9,1.7-2.5c0-0.1-0.3,0,0.2-0.7c0.1,0,1.2-1.6,1.4-1.8C155.4,153.4,154,155.4,152.8,156.9z
				 M168.4,96c-0.6-0.1-1-0.1-1.4-0.2c-0.4,0-0.7-0.1-1-0.1c-0.3,0-0.6,0-0.9-0.1c-0.1,0-0.3,0-0.4,0c-0.1,0-0.4,0-0.4,0
				c0.1,0,0.2,0,0.2,0c0.1,0,0.1,0,0,0c0,0-0.2,0-0.2,0.1l0.1,0l0.2,0l0.3,0c0.2,0,0.4,0,0.6,0c0.4,0,0.8,0.1,1.2,0.1
				C167.4,96,168,96.1,168.4,96z M169.5,96c0-0.1-0.9-0.2-1.1-0.2c1.1,0.2,1,0.4,2.6,0.7C171.6,96.4,169.7,96.2,169.5,96z M177,97.9
				c-0.7-0.3-3.2-0.9-3.3-0.8C175.2,97.4,176.2,97.9,177,97.9z M188.2,99.8c-1.4-0.5-3.1-1.2-3.8-1.4
				C186.6,99.4,187.1,99.5,188.2,99.8z M189.7,102.7c-1.9-0.9-2.3-1.1-3.2-1.2C187.5,102,189.3,102.7,189.7,102.7z M226.7,117.5
				c-1.4,0-2.8,0-3.5,0.1c0.1,0.1,0.3,0.2,1.1,0.2C223.5,117.5,226,117.6,226.7,117.5z M230.1,117.6c-0.4,0-1.7-0.2-2.3-0.1
				c1.4,0.3-1.5,0-2.4,0.1C225.6,118,229.5,117.8,230.1,117.6z M254.4,118.6c-0.8-0.1-4-0.1-4.1,0.1
				C251.9,118.6,253.3,118.8,254.4,118.6z M276.5,118.6c-0.3,0.1-0.8,0.1-1.8,0.1c-0.3,0.2,0.7,0.2,1.7,0.3
				c-0.1-0.1,0.6-0.1,1.8-0.1C278.5,118.7,277.5,118.7,276.5,118.6z M281.7,118.9c-0.3-0.2-1.1-0.2-1.7-0.4
				C280.2,118.7,279.1,119,281.7,118.9z M281.9,117.7c-2.2,0.1-6.4,0-7,0.2c1,0.1,0.7,0,1.8-0.1C278.4,117.9,282.1,118,281.9,117.7z
				 M301.6,118.2c1.1-0.1,2.7-0.1,3-0.2c-1.7,0-1.5-0.1-2.9-0.1L301.6,118.2z M298.7,118.6c-1.3,0-2.2,0-2.9,0.1
				c-0.5,0.1,0.6,0.4,1.1,0.2C295.5,118.8,298,118.7,298.7,118.6z M307.9,118.8c-1.5,0-5-0.1-4.7,0.1
				C304.7,118.9,308.3,119,307.9,118.8z M308,118.7c-0.2-0.3-4.9-0.1-7-0.1c-0.1,0.1-1.9,0-1.8,0.2C303.2,118.8,304,118.6,308,118.7
				z M215.2,315.9c0.4-0.1,1.7,0,3.5,0.2c-0.3,0-0.8,0-1.8-0.1c-0.1,0,0.2,0.1,0.6,0.1C217.3,316.2,216.1,316,215.2,315.9z
				 M398.7,278.4c0.1-0.4,1.3-1.9,2-3c-0.1,0.3-0.4,0.8-0.8,1.4C399.5,277.3,399,277.9,398.7,278.4z M157.9,149.5
				c-0.1-0.3-0.3-0.8-0.4-1.3c-0.2-0.7-0.4-1.4-0.6-2.2c-0.5-1.6-0.7-3.2-0.9-4.2c0.2-0.1,0.2,0.9,0.3,1.7c0.2,0.8,0.5,1.9,0.8,3.1
				C157.4,147.6,157.7,148.7,157.9,149.5z M184.4,96.2c1.7,0.6,3.9,1.5,7.1,2.9C189.5,98.2,186.2,96.9,184.4,96.2z M410.9,228.6
				c-0.1-0.5-0.1-1.7,0.1-3.2c0.1-0.7,0.1-1.5,0.2-2.2c0-0.7,0.1-1.4,0.1-2c0-0.8,0.1-1.8,0.1-2.8c0-0.9,0-1.6,0.1-1.8
				c0,1,0,2.1-0.1,3.1c0,1.1-0.1,2.2-0.1,3.2C411.1,225.1,411,227.1,410.9,228.6z M385.5,290.5c0.8-0.6,0.9-0.9,1.7-1.6
				c0.5-0.3,0.9-0.4,1.1-0.4C386.9,289.7,385.8,290.6,385.5,290.5z M409.1,239.9c0-0.7,0.2-2,0.5-3.3c0.2-1.4,0.5-2.9,0.6-4
				c0,0.4-0.1,1-0.1,1.6c-0.1,0.6-0.2,1.3-0.3,2C409.5,237.4,409.3,238.9,409.1,239.9z M408.3,189.5c0.8,3.2,1.5,6.9,1.9,9.5
				c-1.1-5.3-1.7-10-4.2-17.2c-0.1-0.5,0.3,0.8,0.9,2.5c0.3,0.9,0.5,1.9,0.8,2.8C408,188,408.2,188.9,408.3,189.5z M382.6,292.4
				l2.2-1.8l1.1-0.9l1.1-1C386.3,289.5,383,292.4,382.6,292.4z M369.1,301.3c0.3-0.3,0.8-0.5,1.3-0.8c0.5-0.3,1.1-0.6,1.7-1
				C371.4,300.1,370.4,300.7,369.1,301.3z M377,296.5c1.8-1.3,2.9-2,4.8-3.3c-0.7,0.6-2,1.7-3.7,2.8
				C378,295.9,377.6,296.1,377,296.5z M409.4,253.5c0.1-0.3,0.1-0.6,0.1-0.8c0-0.1,0-0.2,0-0.3c0-0.1,0-0.2,0.1-0.2
				c0.1-0.3,0.1-0.6,0.2-0.9c0.1-0.5,0.1-0.9,0.4-1.8c0.7-1.2,0.9-3.7,1.2-5.1c0,0.3,0,0.6,0.1,0.6c-0.2,1.2-0.8,3.8-1,4
				c-0.1,0.6-0.4,1.8-0.6,2.8c-0.1,0.6-0.2,0.8-0.3,1.2C409.6,253.4,409.5,253.6,409.4,253.5z M182.2,349.4c3.5,1,7.1,1.7,11.5,1.9
				c-3,0-6.7-0.4-10.4-1.5C182.3,349.6,182.2,349.5,182.2,349.4z M140.9,213.1c0,1.3,0,2.6,0,4C140.8,216.9,140.7,212.8,140.9,213.1
				z M128.3,318.3c0.1,0,0.7,0.3,1.3,0.7c0.7,0.4,1.4,1,1.9,1.3c0.8,0.6,2.7,2.3,2.3,2.1C131.8,320.7,131.1,320.2,128.3,318.3z
				 M143.7,240.7c0.1,0.6,0.2,1.6,0.5,2.7c0.1,0.6,0.2,1.1,0.3,1.7c0.1,0.6,0.3,1.2,0.4,1.7c0.5,2.2,1.3,5.3,1.2,5.6
				c-0.5-1.8-1.1-4.5-1.6-6.8C143.9,243.3,143.6,241.2,143.7,240.7z M235.7,322.7c1.3-1.2,0,0.2-1.8,2.1c-0.4,0.5-0.8,1-1.2,1.5
				c-0.2,0.3-0.4,0.6-0.6,0.9c-0.4,0.5-0.6,1-0.7,1.2c-0.1,0-0.6,0.8-0.9,1.3c0.1-0.4,0.8-1.6,1.6-2.8c0.3-0.4,0.5-0.8,0.8-1.1
				c0.4-0.5,0.7-0.9,1.1-1.3C234.9,323.6,235.5,323,235.7,322.7z M154.2,273.9c0.7,1.2,1.5,2.5,1.3,2.5c-0.4-0.7-0.8-1.3-1.1-1.8
				C154.1,274.1,154,273.8,154.2,273.9z M142.4,236.8c0.1-0.3,0.4,3.1,0.6,2.8c-0.1,0.5,0.9,4.4,0.6,3.9
				C143.2,241.2,142.9,239.6,142.4,236.8z M140.6,218.7c0.1,2.6,0,3.1,0.1,5.1c0,0,0-0.4-0.1-0.9c0-0.5-0.1-1.2-0.1-1.9
				C140.4,219.6,140.4,218.3,140.6,218.7z M142.5,238.5c0.3,1.9,0.8,4,0.6,3.9C142.9,241.5,142.2,238.3,142.5,238.5z M143.7,245.8
				c0.3,0.4-0.4-2.3,0-1.7c0.4,1.9,0.2,1.9,0.7,3.9C144.2,247.9,144,247.1,143.7,245.8z M161.1,333.2c0.2,0.2,0.4,0.5,0.7,0.9
				c0.3,0.4,0.7,0.8,1,1.3c0.7,0.9,1.5,2,2.1,2.6c3.5,3.9,6.7,6.4,10.7,8.7c2,1.2,4.9,2,5.5,2.5c-4.1-1.6-8.4-3.7-12-6.8
				C166.4,340,163.7,336.9,161.1,333.2z M203.2,350.8c0.5-0.1,1.6-0.3,2.6-0.5c1.1-0.2,2.2-0.4,2.9-0.6
				C207.4,350.2,205,350.6,203.2,350.8z M223.3,332.7c0.1-0.5,0.4-1.1,0.7-1.8c0.3-0.7,0.6-1.5,1-2.2
				C225.3,328.5,223.7,331.4,223.3,332.7z M209.8,349.5c-0.1-0.1,1.4-0.5,3-1c1.6-0.5,3.4-1.1,4-1.2
				C215.6,347.9,212,348.9,209.8,349.5z M127.8,305.2c1.9,0.2,3.4,0.7,5.9,1.7c-0.4-0.1-1.4-0.5-2.6-0.8c-0.6-0.2-1.2-0.3-1.8-0.5
				C128.8,305.4,128.3,305.3,127.8,305.2z M135.1,331.5c-0.6-0.3-1.4-1.5-2.3-2.5c-1.7-1.7-3.9-3.6-6.3-5.2
				c-1.2-0.8-2.4-1.6-3.6-2.2c-0.6-0.4-1.2-0.7-1.8-1c-0.6-0.4-1.2-0.7-1.7-1c0.5,0.1,1.3,0.6,2.3,1.1c0.9,0.5,1.7,1.1,2.4,1.4
				c1.7,1.1,3.4,2.2,5.2,3.7C131.1,327.2,133.1,329.1,135.1,331.5z M157.4,326.9c0.2,0.3,1.1,1.7,1.8,3.1c0.3,0.7,0.7,1.3,1,1.7
				c0.2,0.4,0.4,0.7,0.2,0.6C159.6,330.9,158.7,329.4,157.4,326.9z M134.8,307.4c0.1-0.1,0.7,0.2,1.5,0.5c0.7,0.4,1.5,0.8,1.9,1
				C138,308.9,135.9,307.7,134.8,307.4z M153.1,164.1c-0.5,1-2.3,4-3.1,5.9C150.3,168.9,152,165.8,153.1,164.1z M388.2,96.8
				c-0.2-0.3-0.4-1-0.6-1.3c0,0.1,0,0.3,0.1,0.5c-0.1-0.1-0.1-0.2-0.1-0.3c0-0.2-0.1-0.1-0.4-0.1c0.1,0,0.3-0.1,0.5-0.1
				c0.1-0.1,0.1,0.1,0.2,0.1l0.1,0.2C388,96.2,388.2,96.6,388.2,96.8z M391.3,109.8c-0.4-0.5-0.6-2.7-1-4.4
				C390.6,105.8,391.1,108.5,391.3,109.8z M386.6,96.3c-0.1,0-0.2,0-0.3,0c-0.2,0-0.5,0-0.7,0c-0.6,0-1,0-1-0.1c0.1,0,0.4,0,0.7,0
				c0.3,0,0.6,0,0.9,0C386.5,96.1,386.7,96.1,386.6,96.3z M389.6,104.3c-0.4-0.8-0.8-3.3-0.9-3.8c-0.4-1.3-0.6-1.7-0.8-2.7
				C388.7,99.5,389.3,102.7,389.6,104.3z M387,95.8c-0.1,0.1-0.3,0.1-0.5,0.1c-0.1,0-0.2,0-0.3,0c-0.2,0-0.3,0-0.5,0
				c-0.3,0-0.4,0.1-0.6,0.1c-0.9,0-1,0-1.6,0.1c-0.5,0.1-1.5,0.4-3.3,0.6c-0.5-0.1,1.2-0.3,2.2-0.4c-0.3-0.2,1.3-0.4-0.5-0.2
				c0.7-0.3,1.1-0.1,1.7-0.1c0.8-0.1,0.2-0.1,0.6-0.2c0.4-0.1,1,0,1.6,0c0.2,0,0.4,0,0.6,0c0.1,0,0.3,0,0.5,0
				C386.8,95.7,386.9,95.8,387,95.8z M358.4,103.1c-2.6,1.2-3,1.6-6.1,3.1c0.2-0.2-0.8,0.3-1.6,0.7c1.2-0.9,4.1-2.5,6.1-3.1
				c-0.1-0.1-1,0.3-0.1-0.3c-2.3,1-8.1,4.1-8.7,4.1c1-0.6,1.8-1,2.5-1.3c0.8-0.3,1.5-0.7,2.5-1.2c0.6-0.3,1.7-1.1,0.5-0.4
				c0.8-0.5,1.8-0.9,2.8-1.4c1.1-0.5,2.2-1,3.3-1.5c2.3-0.9,4.4-1.8,5.9-2.3c-0.4,0.3-1.4,0.6-2.3,1c-0.9,0.4-1.9,0.8-2.4,1
				c-0.4,0.3,2-0.5,2.1-0.7c2-0.6-2,0.9-3.1,1.4c-1,0.3,0.2-0.3,0.5-0.5c-1.1,0.4-1.8,0.8-2.5,1.1c-0.7,0.3-1.3,0.6-2.2,1
				c-0.4,0.4,1.7-0.6,2.1-0.8c0.1-0.1-0.8,0.5-0.5,0.4c0.4-0.1,1.9-0.9,1.6-0.5C358.3,103,358.5,103,358.4,103.1z M386.6,96.7
				c-0.1,0-0.2,0-0.3,0.1l-0.1,0c0,0,0,0-0.2,0c-0.2,0-0.5,0-0.7,0.1c-1,0-1.9,0.3-2.9,0.5c-1.4,0.2-0.7,0-2.2,0.3
				c-0.7,0.1-1.5,0.3-2.4,0.6c-0.9,0.2-2,0.5-3.1,0.7c-1.1,0.3-2.3,0.7-3.6,1c-0.6,0.2-1.3,0.4-2,0.6c-0.7,0.2-1.4,0.5-2.1,0.7
				c-0.5,0.1-1.8,0.5-2.1,0.5c-0.2-0.2,3-1.2,1.5-1c1.9-0.7,2.3-0.8,4.2-1.4c0-0.1-0.8,0-1.9,0.4c-1.1,0.4-2.4,0.8-3.4,1.2
				c-0.1-0.1,0.6-0.3,0.5-0.4c2.7-0.7,6.2-2.1,10.2-2.9c0.3,0.1-0.8,0.3-1.6,0.5c-1.2,0.4-1.6,0.6-2.1,0.9c1.9-0.3,1.7-0.6,2.7-0.8
				c1.1-0.2,2.1-0.4,3.1-0.6c0.5-0.1,1-0.2,1.5-0.3c0.5-0.1,1-0.1,1.4-0.2c1.9-0.2,3.7-0.5,5.3-0.6
				C386.3,96.7,386.4,96.7,386.6,96.7z M378.1,97.8c-0.1-0.1-1.2,0.2-1.6,0.2c-0.2,0.2,0.3,0.1,1.1,0c0.8-0.1,1.8-0.4,2.7-0.5
				c1.8-0.2,1.7-0.2,0.9-0.2c-0.4,0-1,0.1-1.5,0.2C379.1,97.6,378.5,97.7,378.1,97.8z M363.1,101.3c0.1-0.1,1-0.5,1-0.5
				c-0.1-0.1-2.2,0.9-3.2,1.2c0,0.1,0.7-0.2,1.1-0.4c0.3,0.1-1.4,0.8,1.1-0.2c-1.1,0.6-1.5,0.7-3.1,1.3c-0.4,0.2,1.1-0.5,1-0.5
				c0.1-0.1-0.7,0.2-1.5,0.6c-0.8,0.4-1.8,0.8-2.1,1c-0.3,0,0.7-0.4,1.5-0.8c0.7-0.5,1.6-0.9,2.8-1.4c0.6-0.3,1.3-0.6,2-0.9
				c0.7-0.3,1.6-0.6,2.5-0.9c-0.3,0.1-0.5,0.3-0.5,0.4c1.1-0.5,0.9-0.6,3.2-1.3c-0.1,0.2,0.2,0.2,1.7-0.2c-0.2,0.3-1.1,0.5-2.1,0.9
				c-1,0.4-2.2,0.8-3.2,1.2c-0.1-0.1,0.9-0.4,0-0.2C364.3,100.7,364.7,100.7,363.1,101.3z M392,111.5c-0.1-0.1-0.3-1.7-0.4-1.7
				c-0.3-1.5-0.6-3.2-0.9-4.4c-0.4-1.9-1.1-4.3-0.9-4.4c0.4,1.3,0.2,1.2,0.6,2.8l0.2,0c-0.2-1.6-0.8-3.2-1.6-6
				c0-0.6,0.6,1.7,0.9,2.7c0.3,0.8,0.6,1.9,0.8,2.7c0.7,2.8,1.3,5.8,1.7,7.8c0.1,1.4-0.2-0.8-0.4-0.6c0.2-0.5-0.7-4.8-1.3-6.7
				c-0.1,0.5,0.1,1.6,0.4,3.3c0.2,0.3,0.2-0.2-0.2-1.7C391.7,107.4,391.7,109.3,392,111.5z M350.8,106.9c-1.9,1.4-2.6,1.2-5.5,3
				c2.2-1.2,1.1-0.4-0.9,0.8c0.1-0.2-0.4,0-1,0.4c-0.6,0.4-1.4,0.9-2,1.1c0.3-0.3,1.9-1.5-0.1-0.2c0.4-0.5,2.4-1.6,3.9-2.5
				c-0.3,0.3-2.5,1.6-1.8,1.5c0.5-0.3,0.4-0.3,0.4-0.4c1.1-0.7,2.3-1.4,3.4-2c0.8-0.5-0.9,0.2,1.4-1.1
				C349.7,107.3,346.8,109.1,350.8,106.9z M392.6,128.2c-0.2,2-0.2,1.3-0.3,3.3c-0.1,0.1,0-0.8,0-1.7
				C392.4,128.9,392.5,128,392.6,128.2z M329.7,405.3c0.1,1.4-0.1,5.2-0.1,7.6C329.5,411.5,329.7,407.7,329.7,405.3z M392.6,128.8
				c0-1.1,0-2.6-0.2-2.8c0-1.9-0.1-4.3,0.1-4.4c-0.1,1.2,0.1,3.7,0.1,5c0.1,0,0.1-0.7,0.1-1.1C392.8,125.9,392.8,127.9,392.6,128.8z
				 M326.5,414c-0.1-0.2-0.1-1-0.1-2.3c-0.2-0.1-0.1,0.9-0.2,0c0-2.2,0-4.6,0.1-7c0-3.7,0-7.6,0-11.6c0-0.9,0.1-1.6,0.1-1.7
				c0.1-5.8-0.2-11.7-0.3-17.4c0-1,0-2.4,0-3.5c0-0.6-0.2-1.6-0.2-2.3c0-0.9,0-2,0-2.9c-0.2-4-0.5-9-0.8-13.2
				c0.2,0.5,0.1-0.8,0.2-0.5c-0.3-2.3-0.1,0.1-0.3,0c-0.4-4.2-0.7-6.1-1.1-7.8c-0.1-0.6-0.2-1-0.3-1.3c0-0.3,0-0.5-0.1-0.8
				c-0.3-1.1-0.6-2-1-3.6c-0.2,0.7-0.6-1.5-1.2-2.5c0.4,1,0.4,1.4,0.5,2.1c0.4,0.8,0.1-0.3,0.7,1c0.1,0.4,0.2,0.7,0.3,1
				c0,0.3,0.1,0.5,0.1,0.7c0.1,0.5,0.2,0.9,0.4,1.8l-0.2,0c0.4,1.7,0.4,0.2,0.8,2.6c-0.1,0.1-0.2-0.7-0.3-0.6
				c0.2,2.1,0.7,2.8,0.7,4.4c0.3,1.6,0.6,3.1,0.8,6.2c-0.1-0.8-0.3-2-0.5-3.4c0,0.5,0,1.5,0,2.2c0.1,1.3,0.1-0.5,0.1-0.6
				c0.1,0.3,0.1,1,0.2,1.7c0.1,0.9,0.4,0.9,0.3,2.9c-0.1,0.6-0.1-1.2-0.2-1.7c-0.1-0.5-0.2,0.1-0.3-1.2c-0.1,2.2,0.1,3.4,0.2,5.7
				c0.3,0-0.1-2.3,0-2.8c0.2-0.7,0.3,1.9,0.4,2.3c0,1.9-0.1,0.3-0.3,0.5c-0.1,1-0.2,1.5-0.1,4c-0.2,0-0.5-2.1-0.3-2.9
				c-0.1-1.6-0.1,1.5-0.3,0.5c-0.2-1.2-0.1-2.7-0.2-4c0-0.5-0.1-1.2-0.2-2.3c-0.1-1.3-0.1-2.7-0.2-4.1c-0.1-1.4-0.2-2.9-0.4-4.3
				c-0.2-1.1-0.3-1.5-0.4-2.2c-0.2-0.9-0.2-2.1-0.5-2.9c-0.2-0.9-0.4-1.9-0.7-2.9c-0.6-2-1.4-4-2.1-5.7c-0.6-1.5-1.1-2.5-1.8-3.8
				c-0.5-0.9-1-1.7-1.5-2.5l-0.4-0.6c0,0-0.1-0.2-0.2-0.3l-0.2-0.3l-0.5-0.6c-0.7-0.8-1.2-1.6-2.3-2.5l-1.5-1.3l-0.4-0.3l-0.1-0.1
				c0,0,0,0,0-0.1l0-0.1l0.1-0.6l0.2-1.2l0.1-0.8c0.1-1.1,0.2-1.7,0.1-2c0-0.1,0-0.2,0-0.2c0-0.1,0.1-0.4,0.2-0.6l0.3-1.3
				c0.2-0.8,0.5-1.7,0.7-2.5c3.1-0.3,6.2-0.6,9.3-1c1.6-0.2,3.3-0.4,4.9-0.6c0.9-0.1,1.5-0.1,2.2-0.3c1.9-0.3,3.8-0.7,6.1-1.2
				c1.8-0.4,2.5-0.5,4.4-1c1.7-0.4,1.5-0.2,2.8-0.5c2.7-0.9,5.8-1.5,8.6-2.7c1-0.3,0.1,0.2-1,0.5c2-0.4,4.8-1.7,4.2-1.6
				c1.9-0.7,4.4-1.7,4.8-1.5c1.2-0.6,2.8-1.4,4.5-2c1.6-0.7,3.1-1.5,4.1-2.1c0.9-0.5,1.2-0.5,1.5-0.7c0.3-0.2,0.8-0.5,1.4-0.9
				c1.1-0.6,2.6-1.3,4-2.3c0.8-0.5,1.5-1,2.3-1.4c0.8-0.5,1.5-1,2.1-1.5c0.7-0.5,2.2-1.6,2.2-1.8c0.5-0.4,0.4-0.2,0.5-0.2
				c2.4-2,4.1-3.6,5.8-5.1c0.4-0.4,0.3-0.4,0.3-0.5c0.8-0.7,1.3-1.3,1.8-1.8c0.5-0.5,0.8-1,1.3-1.4c0.8-0.9,0.5-0.7,1-1.3
				c0.8-0.9,2.4-2.8,3.8-4.7c0.8-1.2,2.2-3.5,2.6-4.2c0.6-1,1-2,1.5-3c1.8-3.6,3.3-7.4,4.2-10.6c0.4-1.5,0.7-3.1,0.9-4.4l0.1-0.5
				l0.1-0.6c0-0.2,0.1-0.4,0.1-0.6c0.1-0.4,0.2-0.7,0.3-1.1c0.2-0.7,0.4-1.3,0.5-1.8c0.2-0.9,0.2-1.3,0.4-2.3c0.2-0.9,0.3-1,0.4-1.6
				c0.2-1.3,0.5-3.1,0.8-4.5c0.3-1.6,0.5-3.1,0.8-4.7c0.3-1.6,0.4-3.2,0.6-4.8c0.1-0.9,0.1-1,0.1-1.7c0.1-1,0.2-1.9,0.3-2.8
				c0.1-0.7,0-1.6,0.1-2.3c0-0.3,0.1-1,0.1-1.7c0-1,0-1.2,0-2.3c0.1-4.4,0-9.1-0.4-12.9c-0.1-0.9,0-1-0.1-1.7
				c-0.3-2-0.8-4.6-1.2-7.8c-0.5-2.1-1-5.4-2.1-9.3c0.2,0,0.5,1.8,0.6,1.6c-0.3-1.4-0.5-1.7-0.8-2.1c-0.1-0.5-0.3-1.4-0.6-2.4
				c-0.3-1-0.7-2.1-1-3c-0.4-1.2-0.4-0.6-0.7-1.5c-2-5.3-4.1-10-6.5-14.2c-0.6-1.1-1.2-1.8-1.8-2.8c-0.9-1.5-1.9-2.9-2.9-4.4
				c-0.5-0.7-1-1.4-1.5-2.1l-0.8-1c-0.1-0.1-0.4-0.5-0.6-0.7l-0.7-0.8c-0.8-0.9-1.9-1.9-2.8-2.9c0.3-0.7,0.6-1.5,0.9-2.1
				c0.4-0.9,0.8-1.6,1.1-2.3c0.2-0.3,0.4-0.9,0.5-1c0.1-0.2,0.2-0.4,0.3-0.7c0.4-0.9,0.5-1.6,0.8-2.5c1.2-3.7,2.1-8.4,2.5-12.7
				c0.2-0.3-0.1,2.1-0.3,3.8c-0.1,1-0.3,3.6-0.6,3.8c-0.5,1.8-0.1,1.4-0.6,3.2c-0.1-0.1-0.3,0.3-0.5,1c0.2-0.2-0.3,1.9-1,3.1
				c0,0.3,0.2-0.1,0.4-0.6c0.2-0.5,0.4-1,0.4-0.8c-0.2,0.6-0.4,1.2-0.6,1.7c-0.2,0.6-0.4,1.1-0.6,1.6c-0.7,1.5-1.4,2.9-2,4.4
				c0.8,0.8,1.7,1.8,2.7,2.8c0.9,0.6-2.8-3.1-1.5-2.2c0.6,0.6,1.1,1.2,1.6,1.7c0.4,0.5,0.9,1,1.3,1.5c0.5,0.6,1,1.2,1.5,1.8
				c0.9,1.2,1.8,2.3,2.5,3.6c0.7,1,0.7,1,0.5,0.4c0.8,1,1,1.8,1.2,1.9c0.7,1.1-0.5-0.5-0.5-0.4c2.2,3.3,3.5,5.5,5.2,9.3
				c0.1,0-0.3-0.6-0.4-1c0.9,1.8,3.1,6.5,3.9,9.4c0.6,1.9,0.7,1.3,1.3,3.2c0.1,0.7,0.5,1.9,0.9,3.3c0.2,0.9,0.3,1,0.4,1.1
				c0.3,1.2,0.6,3,0.9,3.3c0-0.4-0.7-3.1-1.1-4.4c0.2,0.1,0.2-0.2-0.2-1.7c-0.2-0.4-0.2-0.6-0.4-1.1c0.1,0.4,0.3,1.3,0.1,1.1
				c-2-6.7-4.1-11.4-6.3-15.8c-2.3-4.4-4.7-8.6-8.7-13.8c-0.4-0.6-0.1-0.2,0.2-0.1l-0.3-0.4l-0.2-0.2l-0.2-0.3
				c-0.3-0.4-0.6-0.7-1-1.1c-0.7-0.8-1.4-1.5-2.1-2.2c0.5-1.3,1.2-2.7,1.8-3.9c0.2-0.5,0.4-0.9,0.6-1.4c0.2-0.4,0.3-0.8,0.5-1.2
				c0.2-0.6,0-0.4,0.2-1.1c0.5-1.4,0.9-3,1.1-2.5c0.3-1.5,0.4-1.7,0.1-1.2c0.2-0.5,0.3-0.5,0.5-1.6c0.1,0.3-0.3,2.4-0.5,3.4
				c-0.3,1-0.5,1.4-0.7,2c-0.2,0.6-0.4,1.3-1,2.7c-0.5,0.7,0.7-1.8,0.4-1.6c-0.2,0.5-0.7,1.5-0.9,2.2c-0.4,1.2-0.6,1.7,0,0.7
				c-0.7,1.4-1.2,2.6-1.5,3.5c0.8,0.7,1.4,1.4,1.9,2c0.1,0.3-0.9-0.9-1.9-1.8c0.3,0.4,1.3,1.5,2.1,2.3c0.4,0.4,0.7,0.8,0.9,1
				c0.2,0.2,0.3,0.3,0.3,0.2c1.7,2.2,3.6,4.9,5.5,7.9c0.8,1.4,1.1,2.1,1.8,3.5c0.3,0.5,0.3,0.3,0.7,1c1.3,2.3,2.6,5.1,3.7,7.7
				c0.6,1.3,1.1,2.7,1.6,3.9c0.5,1.3,0.9,2.4,1.2,3.5c0,0.6-0.6-1.7-1.1-2.7c0.5,1.9,1.4,3.9,1.8,4.8c1.9,6.9,3,12.1,3.9,18.9
				c-0.1,0.4,0.2,1.7-0.1,0.6c0.1,1.8,0.2,1.4,0.3,2.3c0.2,2.2,0.3,4.6,0.4,7c0,1.2,0,2.3,0,3.5c0,1.1,0,2.2,0,3.2
				c0,1.1-0.1,2.3-0.1,3.5c0,1.2-0.2,2.4-0.2,3.4c-0.1,0.9-0.1,1.6-0.2,2.3c-0.1,0.7-0.2,1.4-0.3,2.2c-0.1,0.9-0.2,2-0.3,2.9
				c-0.1,0.9-0.3,1.3-0.5,2.2c-0.1,0.4-0.3,1.7-0.5,3.2c-0.2,1.4-0.5,2.9-0.6,3.6c-0.1,0.6,0,0.4-0.1,1.2c-0.4,1.3-0.4,1.9-0.9,3.9
				c-0.4,1.9-0.7,2.3-0.8,3.4c-0.4,1.8-0.4,1.9-0.9,4c0.1-0.1,0.3-1,0.4-1.6c0.1,0.6-0.3,2-0.7,3.2c-0.9,3.3-2.1,6.5-3.6,9.6
				c-1.5,3.2-3.4,6.4-6,9.8c-1.6,2.1-4.6,5.9-7.3,8.5c-0.7,0.7-0.9,0.8-1.7,1.5c-0.8,0.8-1.7,1.7-2.6,2.4c-0.9,0.7-1.6,1.3-2.1,1.6
				c-0.1,0.1-0.4,0.4-0.8,0.8c-0.5,0.4-1,0.8-1.6,1.3c-0.6,0.4-1.2,0.9-1.7,1.3c-0.5,0.4-1,0.6-1.2,0.8c-0.2,0.1,1.1-0.8,1.4-1
				c0.1-0.2-2.7,1.6-1.9,1.3c-0.8,0.4-2,1.2-3.9,2.3c0,0,0.6-0.3,1-0.5c-1,0.6-2.5,1.5-4.1,2.4c-1.7,0.8-3.4,1.7-4.9,2.5
				c-2,0.7-4.1,1.7-7.9,3.1c0.4,0,2.7-1,2.2-0.6c-3.1,1.1-3.5,1.6-6.9,2.7c-1,0.3-2.1,0.6-3.1,1c-1.1,0.3-2.2,0.6-3.4,0.9
				c0.1-0.1,1-0.3,1.6-0.5c-1.2,0.2-3.7,1-2.2,0.8c-1.3,0.4-2.1,0.6-2.2,0.5c-1.6,0.5-3.8,1-6.1,1.5c-2.3,0.5-4.7,0.9-6.8,1.4
				c1.9-0.5-2.4,0.2-3.4,0.4c0.4,0.2,2.9-0.6,2.3-0.2c-1.8,0.3-3.6,0.5-5.5,0.8c-0.7,0.1-1.3,0.2-2,0.3c-0.7,0.1-1.4,0.2-2,0.2
				c-1.3,0.1-2.6,0.3-3.8,0.4c-1.3,1-2.3,1.9-3.1,2.5c0,0-0.1,0-0.1,0.1c0.1,0,0.1,0.1,0.1,0.1c0.1,0.1,0.1,0.1,0.2,0.2
				c0.2,0.2,0.4,0.4,0.5,0.6c0.1,0.2,0.2,0.3,0.3,0.6c0.1,0.2,0.2,0.4,0.3,0.7l0.3,0.8c0.1,0.3,0.1,0.7,0.2,1l0.1,0.5
				c0,0.1,0,0.2,0.1,0.3l0.3,0.3c0.4,0.4,0.8,0.7,1.2,1.1l0.6,0.5l0.4,0.5c0.3,0.3,0.6,0.7,0.8,1c0.6,0.7,0.7,1,1,1.4
				c0.3,0.4,0.6,0.8,0.8,1.3c0.3,0.4,0.5,0.9,0.8,1.3c0.2,0.5,0.5,0.9,0.7,1.4c0.5,0.9,0.9,1.9,1.4,2.9c0.4,1,0.8,2,1.2,3.1
				c0.3,1,0.8,2.2,1.1,3.2c0.2,1.1,0.6,2.4,0.9,3.9c0.2,1.5,0.5,3.2,0.7,4.9c0.2,1.7,0.3,3.5,0.5,5.3c0.1,1.7,0.2,3.4,0.3,5
				c0.2,1.9,0.3,3.5,0.4,5.2c0.2,3.8,0.2,7.3,0.3,11c0.1,4.6,0.2,9.1,0.2,13.4c0,1-0.1,1.2-0.1,2.3c0,1.1,0,1.6,0,2.3
				c0,1.5-0.2,3.2,0,4.7c-0.1,7.1-0.1,8-0.3,15.1c-0.1,0.1-0.1-0.7-0.2-0.6l0.1-4.6c0-1.3-0.2-0.3-0.3-0.6c-0.1,1.3,0.1,0.9,0.1,1.8
				c0,1.5-0.1,0.5-0.1,1.1c-0.1,1,0,1.6,0,1.8C326.6,412.6,326.4,412.8,326.5,414z M404.3,178.1c-0.4-1.1-0.6-2.2-1.2-3.2
				C403.6,176,403.7,177.1,404.3,178.1z M392.3,157.6c-0.3-0.4-0.7-1-1.1-1.5c-0.2-0.3-0.4-0.5-0.6-0.8c-0.1-0.1-0.2-0.3-0.3-0.4
				c-0.2-0.2-0.3-0.4-0.4-0.5c-0.2,0.1,1.7,2.6,1.9,2.9C390.9,156,392.4,157.9,392.3,157.6z M394.9,162.5c0.1,0-0.4-0.8-0.9-1.7
				c-0.5-0.9-1.2-1.8-1.5-2C393.1,159.8,393.7,160.7,394.9,162.5z M403.3,179.4c-0.4-1.2-1.6-4.4-1.9-4.7
				C402.3,176.5,402.6,177.9,403.3,179.4z M408.6,192.8c0-0.8-1.2-4.9-1-3.9c0.1,0.2,0.3,1.1,0.5,2
				C408.3,191.8,408.4,192.7,408.6,192.8z M409.1,231.1c0.2-1.5,0.4-2.9,0.4-4C409.3,228.3,408.9,230.7,409.1,231.1z M406.2,247.8
				c0.2-0.1,0.3-1.5,0.3-1.7c-0.4,1.7-0.8,3.3-1.2,5C405.3,251.7,405.9,249,406.2,247.8z M366.7,299.5c1.6-0.8,2-1.1,2.5-1.5
				C367.9,298.7,366.6,299.3,366.7,299.5z M364.3,301.3c1.9-1,6.1-2.8,6.5-3.5c-1.9,1-0.8,0.4-1.4,0.9
				C367.8,299.7,364.4,300.8,364.3,301.3z M352.8,306.1c1.1-0.2,3.3-1.2,3.2-1.4C353.9,305.5,353.6,305.7,352.8,306.1z M351.7,306.3
				c-1.6,0.5-1.7,0.4-3.3,1C347.7,307.7,351.2,306.6,351.7,306.3z M327.8,310.9c0.7-0.1,1.5-0.3,2.2-0.4
				C330.9,310,327.2,310.8,327.8,310.9z M316.7,312.4c2.8-0.3,3.6-0.4,4.4-0.4c0.4,0,0.7,0,1.3-0.1c0.2,0,0.4,0,0.7-0.1
				c0.2,0,0.5-0.1,0.9-0.1c0-0.1-0.5-0.1-1.1,0l-0.2,0l-0.4,0c-0.3,0-0.6,0.1-0.9,0.1c-0.6,0.1-1.1,0.1-1.5,0.1
				c-0.7,0,0.2-0.1,1.1-0.3c0.9-0.1,1.7-0.3,1.1-0.3C318.2,312,317.9,312.1,316.7,312.4z M316.4,327.3c0.4,0.6,0.8,1.1,1.1,1.7
				c0.2,0.1,0-0.4-0.4-1C316.8,327.6,316.4,327.1,316.4,327.3z M318.6,329.7c-0.4-0.6-0.7-1.2-1-1.7c-0.3-0.4-0.6-0.8-0.7-0.9
				c0.3,0.5,0.4,0.7,0.5,0.9C318,329.1,318.5,329.7,318.6,329.7z M324.5,357.1c-0.1,1.1-0.2,1.6-0.2,3.4c0.3,0.9,0.1-1.6,0.1-2.3
				c0-0.2,0.1,0.2,0.1,0C324.6,358.1,324.6,357.2,324.5,357.1c0.1-0.7,0-1.5,0-2.3C324.3,354.2,324.5,356.1,324.5,357.1z
				 M324.1,353.1l-0.3-2.8C323.6,349.4,324,353.9,324.1,353.1z M324,348c-0.3,0.5,0.2,2.9,0.1,3.9c0.1-0.2,0.2,1.6,0.3,1.7
				C324.4,351.5,324.2,350.5,324,348z M322.9,343.7c0.1,1.4,0.3,1.5,0.5,2.7c0,0.3,0.1,1,0.2,1.6c0,0.7,0.1,1.2,0.2,1.1
				c0-0.3,0-0.8-0.1-1.3c-0.1-0.6-0.2-1.2-0.3-1.8C323.2,344.7,323,343.6,322.9,343.7z M320.7,335.7c0.5,1.2,1,2.6,1.2,2.5
				C321.4,336.9,320.8,335.6,320.7,335.7z M326.8,393.1c0.1-0.2,0.3-0.2,0.3-1.7c-0.1-1-0.2-1.3-0.4-0.6
				C326.7,392.4,326.8,392,326.8,393.1z M327.1,401.3c0-0.7,0.1-0.9,0.1-1.1c0,0.6,0,1.5,0,0.6c-0.1-1.3,0.1-2,0.1-4.1
				c-0.3-0.2-0.2,2.1-0.2,3.5C327.1,400,327,400.9,327.1,401.3z M393.1,120.5c-0.1-1.4-0.2-2.2-0.3-2.9c-0.1-0.8-0.2-1.5-0.4-2.7
				c-0.1-1.5-0.1-2.7-0.2-3.9c0.4,1.2,0.9,3.8,1.2,6.2c-0.2-0.9-0.4-1.9-0.7-4c-0.2-0.2-0.1,0.8,0.1,2.2c0.2,0.2,0.5,2,0.7,3.8
				c0.2,1.8,0.2,3.7,0,4.1c-0.1-1.4,0.1-1.7-0.1-2.8c-0.1,2.3,0.3,6.8-0.1,8.4l0.2,0.1c0.1-1.1,0.1-1.7,0.1-2.4c0-0.6,0-1.2,0-2.1
				c0.2-0.6,0.3,0.8,0.2,2.3c0,1.5-0.2,3.2-0.3,3.3c-0.1,1.6-0.2,2.9-0.5,4.5c0-0.5,0.2-2.1,0.1-2.3c0.1-1,0.2-0.3,0.3-1.6
				c0.1-0.8-0.2-0.2-0.1-1.2c-0.1,0.2-0.1,1.4-0.2,2.2c-0.2-0.7,0-3.1,0-5.1C393.1,124.8,393.2,122.6,393.1,120.5z M392.3,120.9
				l-0.1-1.7c0.2,1.4,0.1-0.8,0.3-0.5C392.6,120.5,392.5,120.6,392.3,120.9z M392.6,130.5c-0.3,2.1-0.2,2-0.4,3.3c0,0,0.1-1,0.2-2
				C392.4,130.9,392.5,130.1,392.6,130.5z"/>
		</g>
	</g>
</g>
</svg>
