<?xml version="1.0" standalone="no"?>
<!DOCTYPE svg PUBLIC "-//W3C//DTD SVG 20010904//EN"
 "http://www.w3.org/TR/2001/REC-SVG-20010904/DTD/svg10.dtd">
<svg version="1.0" xmlns="http://www.w3.org/2000/svg"
 width="2717.000000pt" height="1590.000000pt" viewBox="0 0 2717.000000 1590.000000"
 preserveAspectRatio="xMidYMid meet">

<g transform="translate(0.000000,1590.000000) scale(0.100000,-0.100000)"
fill="#000000" stroke="none">
<path d="M0 7950 l0 -7950 13585 0 13585 0 0 7950 0 7950 -13585 0 -13585 0 0
-7950z m22292 7635 c54 -33 98 -67 98 -75 0 -8 -37 -38 -83 -66 -107 -67 -125
-76 -137 -69 -11 7 -14 258 -3 269 11 10 20 6 125 -59z m3408 -76 l0 -140 -44
35 c-25 21 -54 36 -69 36 -31 0 -47 25 -47 74 0 40 21 66 54 66 12 0 40 16 62
35 21 19 40 34 42 35 1 0 2 -63 2 -141z m-2749 116 c117 -61 71 -245 -61 -245
-68 0 -130 61 -130 128 0 98 104 161 191 117z m4020 0 c39 -21 69 -71 69 -115
0 -67 -61 -130 -125 -130 -40 0 -92 26 -110 54 l-17 26 -338 0 c-294 0 -341 2
-354 16 -9 8 -16 24 -16 34 0 10 7 26 16 34 13 14 60 16 354 16 332 0 340 0
350 21 28 52 113 74 171 44z m-1154 -27 c35 -39 45 -67 38 -108 -8 -46 -55
-96 -82 -86 -16 7 -15 9 9 22 35 18 48 43 48 89 0 36 -35 85 -60 85 -6 0 -8 5
-5 10 10 16 30 11 52 -12z m-1811 -19 c14 -15 19 -36 19 -78 0 -72 -23 -111
-64 -111 -46 0 -66 32 -66 105 0 48 5 68 19 84 24 27 68 27 92 0z m217 4 c36
-41 28 -161 -13 -183 -58 -31 -95 6 -95 95 0 48 5 68 19 84 23 26 67 27 89 4z
m161 -5 c19 -27 21 -116 4 -153 -21 -46 -91 -45 -109 2 -17 44 -11 118 12 147
26 33 71 35 93 4z m170 -102 c-26 -64 -51 -116 -55 -116 -6 0 20 72 77 209 8
19 17 32 20 29 3 -3 -16 -58 -42 -122z m466 54 c0 -56 3 -70 15 -70 8 0 15 -4
15 -10 0 -5 -7 -10 -15 -10 -9 0 -15 -9 -15 -25 0 -14 -4 -25 -10 -25 -5 0
-10 11 -10 25 0 23 -4 25 -45 25 -48 0 -59 16 -30 40 9 7 30 37 48 67 17 29
35 53 39 53 5 0 8 -31 8 -70z m148 54 c36 -25 28 -62 -23 -110 -25 -23 -45
-46 -45 -53 0 -7 20 -11 50 -11 28 0 50 -4 50 -10 0 -6 -27 -10 -60 -10 -54 0
-60 2 -60 21 0 12 19 39 46 63 38 35 45 48 42 72 -3 26 -6 29 -41 29 -37 0
-49 9 -24 18 23 10 42 7 65 -9z m-390 -96 l-2 -103 -3 88 -4 87 -27 -6 -27 -6
25 21 c14 11 28 21 33 21 4 0 6 -46 5 -102z m1009 70 c29 -27 30 -71 1 -98
-12 -11 -25 -20 -30 -20 -14 0 -9 28 7 34 9 3 15 18 15 36 0 18 -6 33 -15 36
-15 6 -22 34 -8 34 4 0 17 -10 30 -22z m-1706 -33 c-1 -15 -24 -12 -29 3 -3 9
2 13 12 10 10 -1 17 -7 17 -13z m800 2 c-1 -12 -15 -9 -19 4 -3 6 1 10 8 8 6
-3 11 -8 11 -12z m879 -17 c0 -11 -4 -20 -10 -20 -5 0 -10 9 -10 20 0 11 5 20
10 20 6 0 10 -9 10 -20z m-1675 -99 c7 -12 -12 -24 -25 -16 -11 7 -4 25 10 25
5 0 11 -4 15 -9z m799 -12 c-3 -5 -10 -7 -15 -3 -5 3 -7 10 -3 15 3 5 10 7 15
3 5 -3 7 -10 3 -15z m-7115 -397 c-52 -34 -120 -106 -145 -153 -9 -19 -27 -48
-40 -65 -87 -114 -66 -274 63 -471 17 -25 17 -26 -3 -15 -33 18 -91 87 -119
143 -30 58 -44 158 -33 232 18 129 120 266 241 327 76 38 95 39 36 2z m362
-52 c115 -43 176 -113 186 -213 7 -69 -8 -115 -54 -162 -28 -29 -107 -75 -129
-75 -2 0 13 16 35 35 51 46 71 91 71 157 -1 140 -121 247 -290 257 -98 5 -65
19 47 20 59 1 97 -5 134 -19z m-4038 -69 c-65 -52 -93 -84 -142 -162 -55 -89
-73 -142 -73 -219 -1 -85 26 -135 93 -170 11 -6 17 -15 14 -21 -9 -14 -88 -11
-111 6 -34 23 -57 83 -56 147 1 176 109 360 252 430 75 37 80 35 23 -11z
m1019 -1 c-23 -17 -42 -31 -42 -33 0 -1 71 -2 158 -2 158 0 218 -9 337 -46 49
-16 67 -28 98 -67 20 -26 49 -70 64 -99 l28 -52 -21 -28 c-25 -33 -81 -73
-102 -73 -11 0 -8 8 12 28 31 33 50 92 40 125 -21 72 -101 121 -263 164 -83
23 -118 26 -259 27 l-163 1 28 23 c27 22 99 59 117 61 5 1 -10 -13 -32 -29z
m3582 -16 c-58 -39 -146 -127 -231 -234 -42 -52 -80 -99 -84 -104 -4 -5 4 21
19 58 38 92 165 231 254 275 75 38 94 40 42 5z m311 -73 c79 -39 167 -123 208
-200 76 -139 69 -418 -17 -645 -62 -164 -218 -336 -336 -371 -18 -6 -11 4 25
32 100 79 182 190 259 348 54 111 76 198 76 301 0 274 -193 527 -421 551 -90
9 -48 24 58 20 68 -3 92 -9 148 -36z m-9205 26 c0 -2 -33 -23 -72 -47 -40 -24
-88 -54 -106 -68 -44 -34 -128 -162 -147 -224 -17 -59 -20 -147 -5 -197 13
-46 -3 -27 -24 28 -11 28 -17 72 -17 120 0 147 78 246 273 345 87 45 98 50 98
43z m864 -26 c-60 -44 -186 -181 -320 -346 -146 -180 -181 -215 -134 -135 44
76 116 174 220 300 90 108 127 142 203 186 58 33 78 30 31 -5z m-567 -17 c86
-41 116 -168 60 -252 -27 -42 -82 -84 -125 -97 -20 -6 -17 0 16 33 122 122 55
297 -122 319 l-61 7 40 7 c58 10 151 2 192 -17z m888 -49 c73 -35 172 -131
208 -200 84 -167 57 -521 -56 -725 -73 -132 -190 -253 -267 -275 -19 -5 -11 6
32 45 109 98 247 335 283 488 76 315 -152 679 -428 683 -40 0 -47 3 -32 10 11
5 61 7 110 6 74 -3 100 -8 150 -32z m-3772 -89 c-34 -18 -94 -63 -135 -99 -40
-36 -74 -64 -76 -62 -2 2 -1 12 2 22 12 38 73 87 161 129 107 52 136 58 48 10z
m341 9 c130 -63 219 -178 251 -323 l7 -34 -43 32 c-28 20 -55 53 -76 93 -65
121 -195 221 -305 234 -44 6 -49 8 -28 14 43 13 152 4 194 -16z m1032 -118
c-48 -49 -96 -115 -149 -202 -42 -72 -108 -180 -147 -242 -99 -160 -184 -324
-229 -444 -37 -96 -42 -104 -71 -112 -18 -4 -34 -6 -37 -4 -8 8 77 210 132
313 29 56 95 169 145 250 51 82 116 189 144 238 60 104 174 232 231 257 22 10
43 19 46 19 3 0 -26 -33 -65 -73z m300 6 c28 -30 47 -64 59 -103 6 -21 -2 -16
-46 26 -59 56 -105 84 -141 84 -19 0 -20 2 -8 10 8 5 37 10 63 10 40 0 52 -5
73 -27z m3459 -70 c19 -15 18 -15 -14 -9 -18 3 -77 7 -130 7 -116 2 -79 16 44
17 59 1 85 -3 100 -15z m5956 -30 c-17 -21 -47 -56 -66 -78 l-36 -40 27 50
c21 39 79 99 102 104 2 1 -10 -16 -27 -36z m-6363 -16 c-126 -86 -186 -194
-195 -348 -12 -193 82 -358 251 -439 75 -36 109 -45 261 -66 l50 -7 -45 -8
c-54 -10 -194 4 -268 27 -79 25 -130 81 -191 205 -66 138 -84 210 -79 324 3
70 10 103 30 147 36 77 98 142 172 178 84 41 88 37 14 -13z m5072 33 c10 -7
-28 -9 -115 -9 -81 1 -119 4 -100 9 44 11 198 11 215 0z m290 -12 c0 -32 11
-44 39 -45 14 -1 34 -11 45 -23 20 -20 21 -29 18 -273 -3 -327 -11 -447 -27
-447 -8 0 -21 -3 -30 -7 -14 -5 -16 -2 -10 18 5 13 7 65 6 115 -2 70 3 106 19
153 27 81 26 157 -4 234 -13 34 -26 86 -29 115 -5 61 -28 92 -67 92 -36 0 -50
42 -24 71 25 27 64 25 64 -3z m689 -36 l64 -3 -6 -227 c-4 -125 -10 -273 -13
-329 l-7 -102 -28 45 -29 45 0 274 0 275 -60 0 c-47 0 -62 4 -67 16 -9 24 10
48 43 54 25 5 30 2 34 -20 5 -23 10 -25 69 -28z m-3133 23 c13 -14 34 -25 49
-25 l25 0 -2 -376 -3 -376 -39 -13 -39 -14 7 169 c4 93 4 264 0 380 -6 191 -9
210 -25 210 -35 0 -49 12 -49 41 0 25 4 29 26 29 16 0 36 -11 50 -25z m571 -2
c6 -8 16 -12 22 -9 6 4 25 0 44 -7 51 -22 59 -53 55 -211 -3 -146 -7 -156 -57
-156 l-24 0 7 115 c4 64 4 131 0 150 -9 50 -45 85 -89 85 -32 0 -35 2 -35 31
0 29 1 30 33 24 17 -4 37 -14 44 -22z m448 -17 c20 -14 40 -26 46 -28 8 -3 7
-44 -2 -138 -7 -74 -13 -246 -14 -383 l0 -247 -30 6 c-16 3 -34 10 -38 14 -23
21 -15 442 12 667 l7 61 -29 9 c-35 10 -53 33 -43 58 8 22 41 15 91 -19z m744
3 c-66 -47 -108 -89 -140 -138 l-29 -45 0 32 c0 43 69 118 142 155 71 35 80
34 27 -4z m-3785 -14 l-6 -35 51 0 51 0 0 -67 c0 -38 -7 -176 -15 -308 -8
-132 -15 -253 -15 -270 0 -28 -2 -30 -40 -30 -22 -1 -40 4 -40 10 0 5 7 111
15 235 8 124 15 267 15 318 l0 92 -51 0 c-48 0 -51 1 -45 23 3 12 6 32 6 45 0
19 5 22 40 22 l41 0 -7 -35z m1186 21 c0 -8 -7 -16 -15 -20 -8 -3 -15 -4 -15
-2 0 3 -3 11 -6 20 -4 12 0 16 15 16 12 0 21 -6 21 -14z m4380 -25 c0 -24 4
-28 27 -28 53 0 60 -25 67 -225 3 -101 7 -258 9 -350 l2 -166 -34 -6 c-19 -3
-37 -4 -39 -1 -2 2 -7 154 -11 338 -8 373 -11 387 -71 387 -36 0 -40 25 -10
58 31 33 60 29 60 -7z m962 -23 c-5 -95 -9 -104 -11 -25 0 42 2 77 7 77 4 0 6
-24 4 -52z m-5091 27 l56 -6 -3 -42 c-2 -23 -11 -171 -20 -329 -14 -260 -14
-313 2 -370 5 -15 -2 -18 -40 -18 l-46 0 -1 38 c-3 79 3 232 15 455 8 128 10
236 6 240 -4 5 -35 11 -69 14 -58 6 -76 15 -48 26 12 5 27 5 148 -8z m-5214
-25 c-6 -30 -6 -30 38 -30 24 0 47 -4 50 -10 3 -5 9 -58 12 -117 5 -100 4
-106 -11 -88 -14 18 -16 3 -18 -195 -2 -118 -3 -245 -2 -282 l0 -66 -35 -6
c-19 -3 -37 -3 -40 0 -10 10 -5 125 12 264 17 134 21 402 8 450 -6 21 -14 26
-49 28 -37 3 -42 6 -42 27 0 26 33 55 63 55 16 0 18 -5 14 -30z m6043 15 c0
-8 -6 -15 -14 -15 -17 0 -28 14 -19 24 12 12 33 6 33 -9z m-5198 -20 c-17 -14
-45 -51 -62 -83 -18 -31 -72 -118 -121 -192 -89 -138 -147 -245 -169 -312 -6
-21 -16 -38 -20 -38 -5 0 -14 19 -21 43 -13 50 -6 65 122 262 43 66 99 158
126 205 43 76 54 88 102 113 68 34 81 34 43 2z m4768 -4 c0 -20 -8 -35 -22
-45 -30 -22 -60 -21 -57 2 4 47 2 48 -58 41 -77 -10 -108 -10 -100 -3 4 4 55
12 114 19 59 7 111 13 116 14 4 0 7 -12 7 -28z m-2631 -9 c-60 -39 -136 -123
-161 -179 -42 -95 -17 -222 53 -276 66 -50 149 -87 198 -88 l46 -1 -40 -10
c-65 -16 -157 -4 -199 25 -80 54 -110 122 -110 247 0 146 49 220 189 286 68
32 78 30 24 -4z m409 -11 c105 -67 172 -180 173 -292 1 -83 -5 -107 -54 -208
-65 -135 -139 -221 -192 -221 -18 0 -17 2 7 25 68 63 171 248 190 339 38 191
-132 374 -351 377 -50 1 -60 3 -41 10 14 4 68 7 121 6 89 -2 99 -5 147 -36z
m805 32 l67 -6 0 -53 c0 -58 -9 -70 -39 -54 -13 7 -21 23 -23 48 l-3 37 -100
10 c-55 6 -93 13 -85 17 20 9 100 9 183 1z m3846 -37 c25 -13 67 -46 93 -74
142 -152 138 -318 -13 -545 -47 -71 -83 -103 -125 -112 -29 -6 -29 -6 -9 12
62 57 164 226 190 317 56 195 -77 373 -306 409 -68 10 -71 12 -39 18 59 12
158 0 209 -25z m2200 -59 c-1 -74 -2 -78 -10 -37 -11 66 -11 132 1 125 6 -3 9
-43 9 -88z m-12115 50 c-97 -67 -151 -188 -161 -358 -10 -175 34 -316 127
-403 94 -88 174 -111 364 -104 82 3 116 2 91 -3 -22 -5 -101 -11 -175 -15
-108 -5 -148 -3 -197 9 -197 51 -305 234 -289 489 13 205 84 332 220 394 71
32 76 29 20 -9z m3195 16 c-4 -41 1 -50 24 -46 15 3 30 -3 42 -17 18 -19 21
-42 27 -184 3 -88 7 -248 7 -353 l1 -193 -34 0 c-22 0 -36 6 -40 16 -3 9 -6
118 -7 242 -1 125 -4 274 -8 330 -5 94 -8 106 -30 124 -14 10 -33 17 -43 15
-13 -4 -18 1 -18 17 0 25 24 51 55 59 11 2 21 5 23 6 2 0 2 -7 1 -16z m6346 4
c-11 -7 -52 -43 -91 -82 -79 -79 -104 -132 -104 -222 0 -85 35 -141 120 -195
62 -39 109 -57 154 -59 24 -1 19 -4 -21 -12 -107 -20 -201 21 -251 111 -60
108 -40 305 40 379 23 21 153 94 166 92 4 0 -2 -6 -13 -12z m2865 -2 c47 -8
108 -15 135 -16 40 -1 45 -3 25 -9 -38 -12 -142 -11 -223 2 -81 13 -81 13 -72
27 8 15 34 14 135 -4z m304 3 c-91 -153 -195 -291 -358 -478 -142 -162 -176
-219 -176 -293 l0 -48 260 3 c172 2 256 0 249 -7 -6 -6 -127 -11 -301 -14
l-291 -3 6 57 c7 74 42 131 158 260 49 55 125 145 168 200 76 97 211 292 211
306 0 3 15 11 33 17 44 14 49 14 41 0z m-996 -10 c7 -7 12 -20 12 -30 0 -10 6
-18 13 -18 8 0 7 -4 -3 -10 -8 -5 -32 -10 -52 -10 -30 0 -38 4 -38 18 0 34
-21 42 -118 42 -59 0 -91 4 -87 10 9 15 258 13 273 -2z m5157 2 c4 -6 -17 -10
-55 -10 l-61 0 3 -32 c3 -36 3 -36 88 -22 25 4 32 3 24 -5 -6 -7 -34 -14 -62
-18 l-52 -6 0 -40 0 -40 60 6 c32 4 61 3 64 -2 14 -22 -115 -29 -133 -7 -7 8
-10 34 -7 62 2 27 4 66 5 87 l1 37 59 0 c33 0 63 -4 66 -10z m446 -17 c10 -10
2 -11 -39 -6 l-52 6 0 -29 c1 -33 14 -101 25 -126 5 -13 3 -18 -8 -18 -15 0
-27 40 -27 94 0 61 -9 73 -58 84 -42 10 -37 11 50 9 61 -1 102 -7 109 -14z
m-16906 -16 c87 -15 157 -55 192 -108 40 -61 32 -130 -13 -115 -11 3 -32 31
-48 62 -50 96 -143 144 -281 145 -77 1 -79 8 -3 19 74 11 75 11 153 -3z
m16135 2 c0 -32 46 -111 72 -125 55 -28 87 17 53 76 -8 14 -14 31 -15 39 0 26
26 -7 39 -49 13 -44 4 -72 -29 -90 -30 -16 -41 -12 -82 32 l-38 41 0 -41 c0
-23 -5 -42 -10 -42 -7 0 -10 31 -8 85 2 47 6 85 11 85 4 0 7 -5 7 -11z m430
-24 l22 -35 38 30 c55 43 63 36 11 -9 l-44 -38 28 -37 c34 -45 27 -59 -8 -16
-14 16 -30 30 -35 30 -4 0 -19 -18 -31 -41 -13 -22 -25 -38 -28 -35 -8 8 8 45
33 75 l25 30 -21 33 c-19 32 -25 48 -16 48 2 0 14 -16 26 -35z m-13323 -5 c38
0 43 -3 49 -27 4 -16 12 -31 18 -35 6 -4 -2 -8 -19 -8 -16 0 -39 -3 -51 -6
-17 -5 -22 0 -27 25 -6 31 -7 31 -69 31 -35 0 -81 3 -103 7 -67 11 -11 24 80
18 44 -3 99 -5 122 -5z m6711 -153 c38 -59 111 -146 199 -238 200 -208 273
-299 273 -344 0 -19 -4 -35 -8 -35 -17 0 -94 74 -139 133 -26 34 -104 121
-174 192 -69 72 -147 156 -173 188 -45 56 -46 60 -46 127 0 39 2 70 4 70 2 0
30 -42 64 -93z m-7673 -482 l7 -81 -40 4 -39 4 -7 71 c-3 40 -9 137 -12 215
l-7 144 39 80 39 80 6 -218 c4 -121 10 -255 14 -299z m9459 468 c-3 -27 -11
-52 -16 -58 -7 -7 -8 -1 -4 19 4 15 10 41 13 57 9 47 15 33 7 -18z m-9960
-288 c19 -49 46 -130 60 -179 14 -48 31 -95 37 -102 16 -19 -6 -44 -37 -44
-32 0 -49 29 -85 150 -17 57 -53 156 -80 219 -46 109 -49 121 -48 201 l1 85
59 -120 c32 -66 74 -160 93 -210z m4586 283 c-123 -59 -238 -204 -269 -338
-13 -57 -13 -162 0 -220 19 -85 77 -185 144 -249 65 -63 160 -116 225 -127 93
-15 61 -32 -65 -33 -150 -2 -246 39 -355 148 -80 81 -110 130 -135 226 -43
168 3 342 126 471 93 96 216 153 334 153 l60 0 -65 -31z m-686 -14 c9 -8 16
-26 16 -40 0 -20 -5 -24 -30 -24 -27 0 -30 3 -30 33 0 49 16 60 44 31z m3165
-227 c65 -187 229 -299 457 -314 76 -5 92 -8 73 -16 -35 -13 -234 -1 -299 18
-75 23 -142 92 -198 205 -59 121 -99 289 -74 314 4 4 10 -27 14 -71 4 -43 16
-104 27 -136z m2389 186 c-3 -17 -53 -42 -63 -31 -9 9 6 37 23 41 34 9 43 7
40 -10z m-6472 -97 c-5 -21 -52 -54 -106 -74 -18 -7 -6 10 40 57 63 64 79 68
66 17z m-1546 31 c0 -17 -42 -40 -62 -35 -12 2 -13 9 -7 26 6 16 16 22 39 22
18 0 30 -5 30 -13z m4325 -8 c45 -8 114 -9 195 -4 163 9 162 10 183 -16 14
-17 17 -41 17 -128 0 -58 -3 -130 -6 -158 l-7 -53 -39 0 c-37 0 -38 1 -31 28
4 15 7 82 7 148 1 170 4 168 -170 158 -72 -3 -161 -3 -198 1 -57 6 -66 9 -66
27 0 16 5 19 23 14 12 -3 54 -11 92 -17z m1891 -44 c-6 -16 -71 -60 -103 -69
-14 -5 -1 14 40 56 49 50 63 60 65 45 2 -10 1 -25 -2 -32z m-3749 32 c2 -2 1
-30 -3 -61 -7 -54 -8 -56 -37 -56 l-30 0 6 49 6 49 -97 8 c-75 6 -90 9 -67 15
28 8 214 4 222 -4z m2882 -37 c40 -28 154 -184 207 -284 38 -71 47 -81 80 -91
57 -16 55 -34 -3 -28 -112 10 -111 9 -144 76 -62 123 -188 289 -241 319 -27
15 -28 17 -11 27 25 15 77 7 112 -19z m2604 5 c61 0 67 -2 67 -21 0 -43 -56
-63 -62 -21 -3 21 -7 22 -72 18 -50 -2 -71 0 -77 10 -16 26 -9 31 34 22 23 -4
72 -8 110 -8z m-11365 -32 c-39 -40 -78 -126 -78 -170 0 -40 27 -63 74 -64 23
0 50 -4 61 -8 33 -13 -79 -23 -124 -11 -53 14 -74 41 -74 94 1 66 37 122 108
170 58 39 76 33 33 -11z m12408 11 c-3 -9 -6 -20 -6 -25 0 -5 -6 -9 -14 -9 -7
0 -25 -9 -40 -21 -25 -20 -26 -20 -26 -1 0 31 38 72 67 72 19 0 24 -4 19 -16z
m-12073 -29 c15 -6 17 -21 17 -110 0 -98 -1 -105 -27 -136 -25 -29 -77 -59
-104 -59 -6 0 0 9 14 20 32 26 47 75 47 160 0 93 -12 107 -103 116 -52 5 -66
9 -52 15 22 10 180 5 208 -6z m12168 -32 c17 -35 24 -71 27 -135 l4 -88 -35
-15 c-49 -20 -54 -19 -29 8 57 60 48 159 -20 234 -22 24 -17 43 12 43 12 0 26
-16 41 -47z m-9232 16 c25 -6 67 -7 93 -4 41 6 48 4 48 -10 0 -52 -54 -76 -66
-29 -6 24 -9 25 -59 19 -65 -9 -95 0 -95 27 0 15 4 18 17 14 9 -4 37 -11 62
-17z m-2179 1 c47 0 91 -4 98 -9 11 -7 112 -243 112 -262 0 -3 -20 -2 -45 4
l-44 10 -41 101 c-22 56 -45 108 -50 116 -7 11 -34 16 -112 18 -57 2 -110 5
-118 8 -32 11 15 25 65 20 28 -3 88 -6 135 -6z m-990 -161 c0 -5 -7 -9 -15 -9
-15 0 -20 12 -9 23 8 8 24 -1 24 -14z m5231 -106 c-28 -31 -69 -92 -92 -135
-64 -124 -56 -200 28 -279 45 -43 64 -54 118 -64 l40 -8 -35 -9 c-42 -10 -114
-1 -151 17 -84 44 -122 148 -94 257 32 129 150 274 223 277 8 1 -9 -25 -37
-56z m2094 2 c-81 -60 -154 -179 -163 -267 -4 -38 1 -59 23 -104 23 -47 38
-63 99 -102 94 -60 155 -83 246 -90 58 -5 68 -8 45 -13 -92 -21 -232 0 -310
46 -56 33 -111 90 -137 144 -64 130 11 309 156 377 58 27 69 30 41 9z m2394
-24 c-55 -36 -105 -87 -118 -124 -21 -54 -13 -119 18 -169 23 -36 43 -53 95
-77 36 -18 91 -35 123 -40 l58 -8 -48 -8 c-146 -24 -293 57 -327 181 -26 90
34 179 162 243 77 39 96 40 37 2z m-3011 -1 c11 -18 23 -20 110 -20 66 0 92
-3 82 -10 -8 -5 -69 -10 -135 -10 -125 0 -145 6 -145 42 0 27 71 25 88 -2z
m1585 10 c9 0 17 -6 17 -14 0 -10 29 -15 123 -20 133 -8 155 -16 187 -69 24
-38 26 -87 5 -127 -22 -43 -98 -96 -165 -115 -23 -6 -22 -5 5 13 108 69 140
177 70 242 -23 21 -40 25 -163 34 l-137 11 -3 29 c-3 26 -1 28 20 23 13 -4 31
-7 41 -7z m-7235 -42 c23 -27 26 -28 127 -28 59 0 107 -4 110 -10 10 -16 -287
-13 -307 3 -30 22 -27 64 5 69 28 5 36 1 65 -34z m6816 27 c4 -12 28 -15 126
-15 78 0 119 -4 115 -10 -4 -6 -68 -10 -160 -10 -130 0 -154 2 -159 16 -9 24
2 34 39 34 20 0 35 -6 39 -15z m3028 -12 c3 -25 8 -29 58 -36 30 -5 127 -7
215 -5 100 3 147 1 125 -4 -52 -13 -326 -22 -403 -14 l-67 8 0 32 c0 40 6 46
41 46 23 0 28 -5 31 -27z m-760 -145 c-29 -64 -83 -121 -150 -156 -33 -18 -62
-32 -65 -32 -3 0 21 26 55 57 62 60 111 137 150 238 l23 60 3 -62 c2 -46 -2
-75 -16 -105z m-9412 138 c0 -11 -15 -14 -69 -13 -70 2 -82 12 -26 20 66 9 95
7 95 -7z m9215 5 l40 -8 -27 -11 c-19 -8 -45 -8 -85 -2 -32 6 -62 11 -68 11
-13 2 54 16 80 17 11 1 38 -3 60 -7z m-8408 -33 c-2 -22 3 -24 83 -32 85 -9
85 -9 40 -18 -25 -5 -80 -6 -122 -2 -66 5 -78 9 -78 24 0 37 12 50 46 50 29 0
33 -3 31 -22z m3973 13 c83 -14 16 -24 -108 -16 -77 6 -109 11 -92 16 33 9
143 10 200 0z m2035 0 l30 -7 -39 -8 c-48 -9 -180 3 -151 15 24 9 118 9 160 0z
m-5260 -23 c9 -21 18 -23 93 -26 45 -2 82 -7 82 -13 0 -6 -46 -9 -121 -7 -101
3 -124 6 -132 20 -15 23 8 48 42 48 18 0 29 -7 36 -22z m595 -23 c0 -35 27
-40 239 -40 133 0 172 -2 140 -8 -56 -12 -395 -15 -431 -4 -18 5 -28 14 -28
26 0 38 11 51 46 51 30 0 34 -3 34 -25z m457 -31 c-3 -3 -12 -4 -19 -1 -8 3
-5 6 6 6 11 1 17 -2 13 -5z m4800 -260 c-3 -3 -12 -4 -19 -1 -8 3 -5 6 6 6 11
1 17 -2 13 -5z m-2722 -14 c-3 -5 -11 -10 -16 -10 -6 0 -7 5 -4 10 3 6 11 10
16 10 6 0 7 -4 4 -10z m2980 -1 c-38 -12 -180 -12 -220 0 -21 6 11 9 110 9
102 0 132 -2 110 -9z m-2412 -1639 c111 -16 290 -120 382 -222 69 -76 143
-193 160 -252 10 -35 15 -113 17 -247 l3 -195 -41 -80 c-22 -43 -62 -119 -88
-169 -40 -76 -48 -104 -57 -180 -12 -96 -19 -115 -54 -155 -12 -14 -30 -56
-40 -93 -22 -84 -76 -168 -126 -196 -29 -17 -60 -23 -134 -26 -53 -2 -113 -9
-134 -15 -45 -12 -76 -3 -166 47 -104 59 -175 147 -175 216 0 20 -5 27 -19 27
-11 0 -22 -6 -25 -12 -8 -20 -54 40 -77 102 -11 30 -29 99 -40 155 -12 59 -38
141 -65 202 -64 148 -77 214 -71 353 7 132 23 202 77 316 129 276 298 399 595
432 6 1 41 -3 78 -8z m3541 -415 c3 -9 18 -15 35 -15 21 0 32 -6 36 -20 7 -21
39 -27 50 -10 10 16 19 12 30 -12 7 -16 18 -23 37 -23 18 1 30 -5 34 -17 3 -9
14 -20 24 -23 11 -3 20 -17 22 -33 2 -14 12 -31 23 -37 11 -5 21 -21 23 -35 1
-14 9 -30 17 -36 9 -6 15 -27 15 -48 0 -23 5 -39 15 -42 10 -4 15 -20 15 -50
0 -24 4 -44 9 -44 18 0 18 -67 0 -171 -19 -113 -52 -211 -94 -282 l-25 -44 0
-324 0 -325 -31 -27 c-17 -15 -32 -27 -33 -27 -1 0 -27 -24 -57 -53 -29 -29
-70 -60 -90 -69 -19 -10 -53 -31 -75 -49 -80 -64 -184 -109 -184 -80 0 5 18
32 40 60 39 49 49 71 31 71 -9 0 -57 -59 -77 -93 -10 -18 -14 -15 -38 34 -30
60 -43 76 -52 67 -3 -4 9 -36 27 -72 17 -37 29 -70 25 -74 -4 -4 -59 -9 -121
-10 -122 -4 -244 18 -309 56 -28 17 -32 24 -43 97 -22 150 -17 222 22 323 19
49 46 138 60 198 14 60 30 125 35 145 13 49 85 135 123 149 l30 10 -21 23
c-65 69 -84 203 -44 310 20 54 20 61 7 94 -19 44 -19 43 5 43 24 0 24 3 6 39
-15 27 -14 28 9 23 24 -4 24 -3 13 29 -6 19 -15 39 -19 45 -6 7 1 9 23 6 28
-4 30 -3 26 19 -3 13 -9 33 -14 44 -7 18 -6 19 10 6 26 -22 41 -1 28 38 -10
29 -10 30 8 21 30 -16 33 -12 27 28 -3 20 -3 31 0 25 11 -30 57 3 46 33 -2 7
6 10 22 6 21 -4 28 1 37 25 9 25 15 28 41 25 21 -3 34 1 43 12 8 11 14 13 19
7 9 -16 35 -13 35 4 0 18 5 18 30 5 15 -8 22 -6 34 12 13 18 18 19 30 8 13
-10 17 -9 22 4 8 20 20 21 28 1z m-10263 -52 c46 -9 108 -76 156 -170 51 -99
64 -138 72 -226 l6 -70 29 42 c29 42 30 42 39 19 13 -34 3 -158 -17 -195 -17
-34 -43 -42 -64 -21 -6 6 -13 10 -15 7 -16 -20 -70 -244 -71 -296 -1 -35 -6
-67 -12 -71 -5 -4 -30 -21 -54 -38 -25 -17 -65 -41 -90 -54 l-45 -22 26 28
c15 16 49 63 76 104 79 119 79 121 12 60 -24 -22 -61 -45 -81 -50 -20 -6 -56
-19 -80 -30 -51 -23 -135 -26 -183 -6 -19 8 -56 29 -81 47 l-47 32 19 -33 c10
-17 46 -61 79 -96 64 -68 57 -72 -35 -18 -62 36 -69 46 -77 114 -3 25 -10 52
-16 61 -7 9 -27 35 -45 59 -17 24 -37 60 -42 80 -6 21 -21 45 -35 54 -13 9
-31 29 -39 44 -19 37 -49 190 -41 210 6 15 9 14 26 -7 10 -13 20 -31 21 -40 1
-9 4 38 8 104 10 190 30 231 169 343 l53 42 173 0 c95 0 187 -3 206 -7z m3661
-69 c15 -8 28 -22 28 -31 0 -14 -9 -15 -61 -9 -34 3 -77 6 -95 6 -43 0 -43 12
-1 39 35 23 77 22 129 -5z m-406 -31 c63 -32 56 -43 -30 -43 -32 0 -76 -5 -97
-12 -22 -6 -42 -8 -46 -5 -14 15 77 86 111 87 5 0 33 -12 62 -27z m10539 11
c22 -8 67 -24 100 -35 107 -37 185 -120 205 -216 5 -27 11 -126 13 -221 4
-148 2 -176 -12 -189 -14 -15 -16 -14 -21 8 -5 18 -9 9 -19 -38 -22 -115 -41
-164 -80 -206 -21 -23 -43 -52 -50 -65 -19 -36 -140 -130 -217 -168 -80 -40
-141 -46 -192 -20 -48 25 -144 128 -188 202 -46 78 -75 151 -109 274 -17 61
-24 76 -24 53 -1 -19 -6 -33 -13 -33 -10 0 -13 25 -14 90 0 50 3 86 7 79 6
-10 20 57 35 176 3 22 19 68 35 102 48 99 145 172 279 207 72 19 213 19 265 0z
m-683 -444 c-2 -16 -6 -30 -8 -30 -2 0 -4 14 -4 30 0 17 4 30 8 30 5 0 7 -13
4 -30z m-9519 -6 c96 -16 -25 -58 -143 -50 -111 7 -124 16 -59 37 57 18 138
23 202 13z m10566 -61 l-2 -48 -6 40 c-7 38 -5 55 5 55 2 0 3 -21 3 -47z
m-3351 -259 c12 -4 22 -13 22 -20 0 -22 38 -96 65 -128 14 -16 25 -33 25 -38
0 -9 -12 -35 -64 -134 -14 -29 -26 -58 -26 -66 0 -8 -7 -23 -15 -34 -13 -17
-14 -11 -15 66 -2 102 -16 294 -26 333 -7 28 -3 31 34 21z m79 -58 l15 -31
-31 29 c-33 32 -40 49 -16 39 9 -3 23 -20 32 -37z m293 -226 c84 -84 128 -154
117 -184 -4 -9 -10 -16 -15 -16 -13 0 -173 127 -208 165 -21 23 -34 49 -38 80
-6 35 -17 55 -52 90 -24 25 -44 54 -44 66 0 17 15 8 77 -48 43 -37 116 -106
163 -153z m-1596 93 c-20 -38 -38 -70 -41 -73 -2 -2 -3 22 -1 54 3 58 4 60 38
72 19 7 36 13 38 13 2 1 -13 -29 -34 -66z m1401 -83 c9 -25 17 -50 17 -57 1
-7 4 -10 8 -8 4 2 13 -6 19 -18 7 -12 50 -53 97 -90 114 -92 115 -94 56 -154
-59 -61 -165 -152 -203 -177 l-29 -18 10 27 c15 39 13 120 -4 134 -16 13 -20
0 -31 -94 -12 -95 -14 -101 -54 -123 l-38 -21 -17 100 c-10 54 -18 134 -19
177 -1 72 1 81 35 137 50 84 83 152 99 207 16 56 28 51 54 -22z m-1395 -30
c-10 -47 -27 -107 -39 -135 l-20 -50 0 70 c-1 54 4 80 22 115 60 116 63 116
37 0z m-305 -236 c4 -173 5 -318 2 -321 -12 -11 -172 103 -280 199 l-48 43 22
72 c13 42 26 70 32 66 6 -3 7 -1 3 6 -9 13 33 89 77 141 28 33 149 110 173
110 8 0 13 -95 19 -316z m-2895 -164 c0 -27 -4 -50 -9 -50 -5 0 -28 11 -52 25
-35 19 -40 25 -25 31 9 4 22 2 29 -5 18 -18 27 -13 27 19 0 20 5 30 15 30 11
0 15 -12 15 -50z m557 -19 c2 -3 18 10 37 28 38 36 63 26 29 -12 -11 -12 -30
-39 -43 -61 l-23 -38 -14 33 c-35 80 -42 108 -30 112 7 2 19 -10 27 -27 8 -17
16 -33 17 -35z m3578 -108 c-4 -22 -20 -52 -38 -70 -36 -38 -141 -81 -218 -89
l-54 -6 95 62 c52 34 120 79 150 101 30 21 59 38 64 39 4 0 5 -17 1 -37z
m-10825 -577 c25 -75 28 -236 4 -172 -5 14 -9 13 -31 -4 -34 -26 -68 -25 -87
2 -34 49 -6 124 43 115 14 -2 35 -8 45 -12 17 -7 18 -5 12 20 -16 64 -18 85
-8 85 6 0 16 -15 22 -34z m3430 0 c25 -75 28 -236 4 -172 -5 14 -9 13 -31 -4
-34 -26 -68 -25 -87 2 -34 49 -6 124 43 115 14 -2 35 -8 45 -12 17 -7 18 -5
12 20 -16 64 -18 85 -8 85 6 0 16 -15 22 -34z m3430 0 c25 -75 28 -236 4 -172
-5 14 -9 13 -31 -4 -34 -26 -68 -25 -87 2 -34 49 -6 124 43 115 14 -2 35 -8
45 -12 17 -7 18 -5 12 20 -16 64 -18 85 -8 85 6 0 16 -15 22 -34z m3430 0 c25
-75 28 -236 4 -172 -5 14 -9 13 -31 -4 -34 -26 -68 -25 -87 2 -34 49 -6 124
43 115 14 -2 35 -8 45 -12 17 -7 18 -5 12 20 -16 64 -18 85 -8 85 6 0 16 -15
22 -34z m3430 0 c25 -75 28 -236 4 -172 -5 14 -9 13 -31 -4 -34 -26 -68 -25
-87 2 -34 49 -6 124 43 115 14 -2 35 -8 45 -12 17 -7 18 -5 12 20 -16 64 -18
85 -8 85 6 0 16 -15 22 -34z m-14230 -9 c15 -7 26 -23 28 -38 3 -26 -4 -31
-70 -53 -10 -3 -18 -10 -18 -15 0 -9 37 -43 80 -73 20 -14 22 -17 8 -17 -10
-1 -37 16 -59 36 l-42 38 8 -35 c5 -23 4 -32 -3 -25 -10 10 -32 101 -32 130 0
8 5 15 10 15 6 0 10 -7 10 -15 0 -10 10 -15 28 -15 16 0 37 7 48 15 19 15 19
15 0 30 -26 20 -95 19 -118 -2 -16 -15 -18 -15 -18 0 0 9 8 21 18 26 24 14 92
13 122 -2z m709 -23 c16 -35 61 -30 79 9 8 16 16 27 18 24 3 -2 6 -33 8 -68 2
-35 7 -79 11 -96 6 -27 4 -33 -9 -33 -12 0 -16 10 -16 38 0 65 -9 84 -37 78
-13 -4 -32 -2 -43 4 -19 10 -20 7 -20 -50 0 -33 -4 -60 -10 -60 -6 0 -10 31
-10 73 0 39 -3 82 -6 95 -9 31 19 20 35 -14z m2721 23 c15 -7 26 -23 28 -38 3
-26 -4 -31 -70 -53 -10 -3 -18 -10 -18 -15 0 -9 37 -43 80 -73 20 -14 22 -17
8 -17 -10 -1 -37 16 -59 36 l-42 38 8 -35 c5 -25 4 -32 -4 -25 -6 6 -15 35
-21 64 -13 67 -13 81 0 81 6 0 10 -7 10 -15 0 -10 10 -15 28 -15 16 0 37 7 48
15 19 15 19 15 0 30 -26 20 -95 19 -118 -2 -15 -13 -18 -14 -18 -2 0 8 5 20
12 27 16 16 96 15 128 -1z m709 -23 c14 -33 60 -30 77 4 20 40 28 29 29 -38 1
-36 5 -80 9 -97 6 -27 4 -33 -8 -33 -12 0 -16 10 -16 38 0 65 -9 84 -37 78
-13 -4 -32 -2 -43 4 -19 10 -20 7 -20 -50 0 -33 -4 -60 -10 -60 -6 0 -10 31
-10 73 0 39 -3 82 -6 95 -9 31 19 20 35 -14z m2721 23 c15 -7 26 -23 28 -38 3
-26 -4 -31 -70 -53 -10 -3 -18 -10 -18 -15 0 -9 37 -43 80 -73 20 -14 22 -17
8 -17 -10 -1 -37 16 -59 36 l-42 38 8 -35 c5 -25 4 -32 -4 -25 -13 13 -34 120
-28 143 4 14 6 13 12 -5 9 -27 51 -31 81 -8 19 15 19 15 0 30 -26 20 -95 19
-118 -2 -15 -13 -18 -14 -18 -2 0 8 5 20 12 27 16 16 96 15 128 -1z m709 -23
c14 -33 60 -30 77 4 18 36 28 22 30 -38 0 -30 4 -72 9 -92 6 -31 4 -38 -9 -38
-12 0 -16 10 -16 38 0 65 -9 84 -37 78 -13 -4 -32 -2 -43 4 -19 10 -20 7 -20
-50 0 -33 -4 -60 -10 -60 -6 0 -10 31 -10 73 0 39 -3 82 -6 95 -9 31 19 20 35
-14z m2721 23 c15 -7 26 -23 28 -38 3 -26 -4 -31 -70 -53 -10 -3 -18 -10 -18
-15 0 -9 37 -43 80 -73 20 -14 22 -17 8 -17 -10 -1 -37 16 -59 36 l-42 38 8
-35 c5 -25 4 -32 -4 -25 -13 13 -34 120 -28 143 4 14 6 13 12 -5 9 -27 51 -31
81 -8 19 15 19 15 0 30 -26 20 -95 19 -118 -2 -15 -13 -18 -14 -18 -2 0 8 5
20 12 27 16 16 96 15 128 -1z m709 -23 c14 -33 60 -30 77 4 18 36 28 22 30
-38 0 -30 4 -72 9 -92 6 -31 4 -38 -9 -38 -12 0 -16 10 -16 38 0 65 -9 84 -37
78 -13 -4 -32 -2 -43 4 -19 10 -20 7 -20 -50 0 -33 -4 -60 -10 -60 -6 0 -10
31 -10 73 0 39 -3 82 -6 95 -9 31 19 20 35 -14z m2721 23 c15 -7 26 -23 28
-38 3 -26 -4 -31 -70 -53 -10 -3 -18 -10 -18 -15 0 -9 37 -43 80 -73 20 -14
22 -17 8 -17 -10 -1 -37 16 -59 36 l-42 38 8 -35 c5 -25 4 -32 -4 -25 -13 13
-34 120 -28 143 4 14 6 13 12 -5 9 -27 51 -31 81 -8 19 15 19 15 0 30 -26 20
-95 19 -118 -2 -15 -13 -18 -14 -18 -2 0 8 5 20 12 27 16 16 96 15 128 -1z
m709 -23 c16 -35 61 -30 79 9 18 38 24 30 27 -40 1 -32 6 -75 10 -95 6 -31 4
-38 -9 -38 -12 0 -16 10 -16 38 0 65 -9 84 -37 78 -13 -4 -32 -2 -43 4 -19 10
-20 7 -20 -50 0 -33 -4 -60 -10 -60 -6 0 -10 31 -10 73 0 39 -3 82 -6 95 -9
31 19 20 35 -14z m-14281 -10 c12 -8 22 -24 22 -34 0 -23 -36 -50 -67 -50 -32
0 -30 -28 3 -40 14 -6 42 -10 62 -10 28 0 33 -3 22 -10 -27 -18 -78 -11 -106
14 -21 18 -28 32 -28 61 0 29 7 43 28 61 32 28 35 29 64 8z m1053 6 c42 -23
10 -90 -43 -90 -15 0 -28 -4 -28 -9 0 -19 45 -41 85 -41 29 0 36 -3 25 -10
-28 -18 -80 -11 -105 15 -40 40 -30 116 18 135 29 11 26 11 48 0z m2381 -7
c10 -9 18 -24 18 -34 0 -22 -37 -49 -67 -49 -32 0 -30 -28 3 -40 14 -6 42 -10
62 -10 28 0 33 -3 22 -10 -27 -18 -78 -11 -106 14 -21 18 -28 32 -28 61 0 29
7 43 28 61 32 28 43 30 68 7z m1052 1 c33 -32 5 -84 -46 -84 -15 0 -28 -4 -28
-9 0 -19 45 -41 85 -41 29 0 36 -3 25 -10 -28 -18 -80 -11 -105 15 -40 40 -30
116 18 135 31 12 34 12 51 -6z m2374 0 c12 -8 22 -24 22 -34 0 -23 -36 -50
-67 -50 -32 0 -30 -28 3 -40 14 -6 42 -10 62 -10 28 0 33 -3 22 -10 -27 -18
-78 -11 -106 14 -21 18 -28 32 -28 61 0 29 7 43 28 61 32 28 35 29 64 8z
m1053 6 c42 -23 10 -90 -43 -90 -15 0 -28 -4 -28 -9 0 -19 45 -41 85 -41 29 0
36 -3 25 -10 -8 -5 -30 -10 -48 -10 -46 0 -82 38 -82 85 0 25 8 44 25 60 27
28 37 30 66 15z m2381 -7 c10 -9 18 -24 18 -34 0 -22 -37 -49 -67 -49 -32 0
-30 -28 3 -40 14 -6 42 -10 62 -10 28 0 33 -3 22 -10 -27 -18 -78 -11 -106 14
-21 18 -28 32 -28 61 0 29 7 43 28 61 32 28 43 30 68 7z m1049 7 c42 -23 10
-90 -43 -90 -15 0 -28 -4 -28 -9 0 -19 45 -41 85 -41 29 0 36 -3 25 -10 -8 -5
-30 -10 -48 -10 -46 0 -82 38 -82 85 0 25 8 44 25 60 27 28 37 30 66 15z
m2377 -6 c12 -8 22 -24 22 -34 0 -23 -36 -50 -67 -50 -32 0 -30 -28 3 -40 14
-6 42 -10 62 -10 28 0 33 -3 22 -10 -27 -18 -78 -11 -106 14 -21 18 -28 32
-28 61 0 29 7 43 28 61 32 28 35 29 64 8z m1056 0 c33 -32 5 -84 -46 -84 -15
0 -28 -4 -28 -9 0 -19 45 -41 85 -41 29 0 36 -3 25 -10 -8 -5 -30 -10 -48 -10
-46 0 -82 38 -82 85 0 25 8 44 25 60 28 29 47 31 69 9z m-14601 -14 c27 -22
48 -72 43 -104 -8 -54 -146 -42 -146 13 0 32 35 54 75 48 19 -3 35 -2 35 2 0
16 -40 43 -55 38 -15 -6 -21 4 -8 16 11 12 30 8 56 -13z m3441 -10 c28 -34 44
-96 28 -112 -19 -19 -90 -22 -117 -4 -51 33 -15 93 50 83 19 -3 35 -2 35 2 0
16 -40 43 -55 38 -15 -6 -21 4 -8 16 15 15 43 5 67 -23z m3430 0 c28 -34 44
-96 28 -112 -19 -19 -90 -22 -117 -4 -50 33 -15 92 50 84 19 -2 35 -1 35 2 0
15 -40 42 -55 37 -15 -6 -21 4 -8 16 15 15 43 5 67 -23z m3430 0 c28 -34 44
-96 28 -112 -19 -19 -90 -22 -117 -4 -50 33 -15 92 50 84 19 -2 35 -1 35 2 0
15 -40 42 -55 37 -15 -6 -21 4 -8 16 15 15 43 5 67 -23z m3430 0 c28 -34 44
-96 28 -112 -19 -19 -90 -22 -117 -4 -50 33 -15 92 50 84 19 -2 35 -1 35 2 0
15 -40 42 -55 37 -15 -6 -21 4 -8 16 15 15 43 5 67 -23z m-9528 -1 c3 -5 -14
-9 -37 -9 l-42 0 6 -37 c3 -21 9 -48 13 -60 8 -27 -11 -31 -21 -5 -3 9 -10 37
-15 60 -7 42 -7 44 23 57 30 13 63 10 73 -6z m3430 0 c3 -5 -14 -9 -37 -9
l-42 0 6 -37 c3 -21 9 -48 13 -60 4 -14 2 -23 -4 -23 -11 0 -26 41 -36 96 -4
28 -2 32 27 41 34 10 64 6 73 -8z m3430 0 c3 -5 -14 -9 -37 -9 l-42 0 6 -37
c3 -21 9 -48 13 -60 4 -14 2 -23 -4 -23 -11 0 -26 41 -36 96 -4 28 -2 32 27
41 34 10 64 6 73 -8z m3430 0 c3 -5 -14 -9 -37 -9 l-42 0 6 -37 c3 -21 9 -48
13 -60 4 -14 2 -23 -4 -23 -11 0 -26 41 -36 96 -4 28 -2 32 27 41 34 10 64 6
73 -8z m-13721 1 c4 -6 -10 -10 -34 -10 -37 0 -41 -3 -41 -24 0 -14 5 -37 10
-52 7 -16 7 -31 2 -36 -12 -12 -32 44 -32 88 0 18 6 35 13 37 22 9 76 7 82 -3z
m-133 -17 c26 -23 24 -78 -4 -97 -74 -52 -162 38 -92 93 32 25 71 27 96 4z
m3430 0 c26 -23 24 -78 -4 -97 -74 -52 -162 38 -92 93 32 25 71 27 96 4z
m3430 0 c26 -23 24 -78 -4 -97 -74 -52 -162 38 -92 93 32 25 71 27 96 4z
m3430 0 c26 -23 24 -78 -4 -97 -74 -52 -162 38 -92 93 32 25 71 27 96 4z
m3430 0 c26 -23 24 -78 -4 -97 -74 -52 -162 38 -92 93 32 25 71 27 96 4z
m-3993 -1601 c10 -18 18 -22 34 -17 12 3 65 14 117 24 93 17 95 18 116 55 l21
37 7 -39 6 -39 61 -7 c69 -8 175 -45 219 -76 37 -26 51 -20 138 63 l62 61 -14
-41 c-19 -55 -52 -118 -72 -137 -15 -15 -14 -19 15 -48 17 -17 33 -40 37 -50
3 -10 9 -18 14 -18 5 0 36 26 69 58 34 32 61 52 61 44 0 -35 -34 -153 -59
-204 -24 -51 -27 -64 -20 -110 12 -88 10 -220 -6 -278 -10 -36 -12 -78 -9
-125 6 -65 3 -81 -45 -225 -61 -187 -112 -296 -176 -373 -35 -44 -52 -57 -67
-54 -11 3 -21 0 -24 -9 -15 -50 -15 -49 -25 -34 -8 13 -10 13 -19 0 -5 -8 -10
-24 -10 -34 0 -18 -1 -18 -19 -2 -18 16 -19 16 -30 -16 -11 -29 -13 -31 -22
-15 -13 23 -29 12 -29 -20 0 -25 -1 -25 -18 -10 -25 23 -29 22 -37 -13 -6 -25
-9 -29 -21 -19 -8 6 -14 21 -14 33 -1 19 -4 17 -29 -12 l-29 -34 -13 36 c-16
43 -24 45 -43 9 l-14 -28 -7 28 c-9 34 -17 34 -48 -3 -24 -28 -26 -29 -32 -10
-7 23 -16 25 -34 8 -11 -10 -14 -10 -18 -1 -4 10 -10 9 -26 -2 -31 -21 -37
-19 -37 15 0 34 -6 36 -37 15 -20 -14 -21 -13 -28 12 l-6 26 -15 -22 c-20 -28
-34 -27 -34 2 0 35 -11 40 -37 15 l-23 -21 0 28 c0 28 -1 28 -15 9 -14 -18
-14 -18 -15 5 0 16 -4 21 -15 17 -13 -5 -15 14 -15 133 0 134 -1 144 -40 266
-31 101 -51 145 -94 209 -30 45 -61 103 -70 129 -33 97 -14 176 48 198 30 11
34 17 40 56 9 64 52 187 83 236 22 34 29 58 34 129 5 66 13 101 37 152 29 62
52 85 52 51 0 -13 45 -124 54 -133 2 -2 22 8 43 21 35 22 43 36 73 119 l34 93
11 -45 c6 -25 17 -56 24 -68z m-9856 43 c21 -9 21 -15 0 -30 -13 -9 -13 -14
-3 -20 9 -5 11 -4 6 3 -7 11 6 17 27 13 5 -1 6 3 3 7 -3 5 10 2 29 -6 19 -9
35 -20 35 -24 0 -4 7 -8 15 -8 18 0 18 -5 5 -31 -6 -11 -7 -18 -3 -17 4 1 21
-6 36 -16 15 -10 30 -16 34 -12 3 3 2 6 -4 6 -17 0 -55 38 -49 49 4 6 25 -1
54 -18 42 -25 47 -31 47 -64 0 -21 4 -37 8 -37 5 0 7 -21 6 -47 -1 -27 3 -58
10 -70 6 -13 10 -23 7 -23 -2 0 8 -13 23 -28 24 -24 28 -36 29 -84 0 -32 3
-66 7 -78 4 -13 2 -20 -7 -20 -9 0 -9 -3 -2 -8 17 -11 25 -42 11 -42 -9 0 -9
-2 0 -8 10 -6 10 -12 -2 -28 -16 -21 -20 -44 -7 -44 4 0 14 19 22 42 18 51 54
75 78 52 12 -12 12 -18 2 -27 -10 -9 -11 -9 -6 1 4 7 1 12 -8 12 -10 0 -16 -9
-16 -22 0 -18 -2 -20 -9 -9 -5 8 -7 21 -3 30 3 9 1 12 -3 8 -5 -4 -8 -23 -7
-42 2 -19 -2 -35 -8 -35 -5 0 -10 -5 -10 -11 0 -5 4 -8 9 -5 5 3 9 -10 9 -29
0 -19 -5 -35 -11 -35 -6 0 -7 -3 -4 -6 4 -4 0 -19 -8 -33 -7 -14 -20 -46 -27
-70 -7 -25 -19 -47 -27 -49 -10 -3 -12 0 -7 14 6 16 5 17 -6 6 -11 -11 -10
-16 4 -26 16 -12 17 -16 3 -44 -9 -16 -22 -33 -30 -36 -8 -3 -12 -12 -9 -21 4
-9 -4 -25 -20 -40 -14 -13 -26 -29 -26 -35 0 -6 -5 -8 -12 -4 -7 4 -8 3 -4 -4
7 -12 -39 -92 -54 -92 -5 0 -12 5 -15 10 -3 6 -2 10 4 10 6 0 7 8 4 17 -6 15
-7 14 -13 -3 -4 -10 -4 -27 1 -36 13 -24 11 -28 -6 -22 -9 4 -15 1 -15 -7 0
-7 -16 -28 -36 -46 -32 -28 -44 -32 -83 -30 -45 2 -46 3 -47 35 -1 22 5 36 18
43 11 6 18 6 18 0 0 -5 -7 -12 -15 -14 -11 -4 -10 -4 2 -3 29 2 22 39 -11 55
l-29 15 49 16 c32 11 53 13 62 7 9 -7 11 -6 6 7 -7 19 -8 19 32 7 20 -5 37 -5
45 1 11 8 10 9 -4 4 -12 -4 -24 5 -40 29 -12 19 -30 37 -39 41 -10 3 -18 11
-18 17 0 7 -18 13 -42 15 -23 1 -51 10 -62 20 -11 9 -16 12 -13 5 4 -6 4 -13
0 -16 -5 -2 -2 -2 5 0 7 1 10 -2 7 -7 -9 -15 -26 -12 -41 7 -9 13 -9 22 -2 30
15 18 36 16 69 -8 18 -12 29 -16 29 -8 0 8 4 8 13 1 6 -6 15 -11 19 -12 39 -9
48 -14 48 -26 0 -8 6 -14 14 -14 8 0 28 -13 45 -29 34 -32 68 -44 78 -29 3 6
1 8 -4 5 -6 -4 -13 5 -15 21 -8 47 -12 56 -35 74 -13 11 -20 27 -18 39 2 11 0
17 -6 14 -5 -4 -6 -11 -3 -17 12 -19 -40 3 -63 28 -25 25 -30 40 -11 28 7 -4
8 -3 4 5 -6 9 -11 9 -24 -1 -13 -11 -15 -10 -9 5 5 14 3 16 -11 9 -9 -5 -42
-12 -72 -15 -35 -3 -47 -2 -34 3 12 5 25 13 29 19 3 6 21 11 38 11 18 0 37 4
42 8 15 11 18 51 5 67 -6 8 -9 23 -5 34 3 10 1 22 -4 26 -7 4 -8 -1 -4 -12 6
-15 4 -16 -9 -5 -19 16 -42 95 -35 122 3 11 1 18 -3 15 -7 -5 -14 17 -25 75
-2 10 -54 105 -55 100 -1 -3 -2 -41 -3 -85 -2 -92 -30 -163 -91 -230 -20 -22
-36 -42 -37 -45 -6 -37 -3 -53 10 -58 24 -9 31 -25 18 -42 -11 -13 -10 -13 6
-1 10 8 17 9 17 3 0 -16 -41 -42 -67 -42 -13 0 -23 -4 -23 -9 0 -5 -14 -14
-30 -21 -17 -7 -42 -31 -56 -54 -14 -22 -23 -32 -19 -21 4 14 3 17 -4 9 -8 -7
-7 -18 1 -37 11 -23 17 -26 42 -21 16 3 38 15 50 25 11 11 24 19 28 19 5 0 7
4 4 9 -4 5 3 7 14 4 11 -3 20 -1 20 5 0 10 47 27 68 23 6 -1 12 2 12 7 0 5 12
7 28 4 27 -6 27 -6 -8 -14 -19 -5 -41 -9 -47 -10 -7 -1 -13 -5 -13 -10 0 -4
-4 -8 -9 -8 -13 0 -100 -53 -101 -61 0 -4 10 -10 23 -13 21 -7 21 -7 2 -16
-16 -7 -17 -9 -3 -9 9 -1 20 4 24 10 9 16 84 2 101 -19 8 -9 12 -11 8 -5 -4 9
-1 11 9 7 19 -7 19 -9 6 -34 -8 -15 -6 -21 11 -31 17 -9 19 -13 8 -20 -11 -7
-11 -9 3 -9 12 0 15 -5 11 -16 -3 -9 -13 -14 -24 -11 -11 3 -17 1 -14 -3 3 -5
-9 -7 -27 -4 -18 2 -50 6 -71 8 -21 2 -52 14 -69 26 -17 12 -27 16 -23 9 7
-11 5 -11 -9 0 -12 10 -16 24 -14 43 3 16 0 32 -5 35 -6 3 -7 2 -4 -3 3 -6 2
-16 -4 -24 -7 -13 -9 -12 -9 2 0 10 -4 17 -9 15 -11 -2 -101 81 -101 94 0 4
-7 14 -15 23 -8 8 -16 26 -17 40 -1 14 -6 26 -10 26 -14 0 -9 33 8 51 10 11
12 19 4 24 -6 3 -9 3 -8 -2 3 -9 -5 -13 -28 -13 -8 0 -12 5 -9 10 4 6 10 8 14
6 3 -3 7 3 7 12 0 11 -9 18 -24 19 -13 0 -29 8 -35 17 -14 19 -57 11 -57 -10
0 -8 -5 -14 -11 -14 -5 0 -7 -5 -3 -12 4 -6 3 -8 -3 -5 -16 10 -23 69 -7 63 7
-3 17 8 23 25 8 24 7 29 -5 29 -8 0 -14 6 -13 13 1 6 -4 28 -12 47 -7 19 -12
39 -11 44 2 5 -3 4 -11 -3 -12 -9 -15 -7 -19 12 -3 13 -2 31 2 41 4 13 11 6
28 -29 12 -25 29 -45 37 -45 8 0 15 -4 15 -10 0 -5 -6 -10 -12 -10 -10 0 -9
-3 1 -9 18 -12 31 -86 17 -102 -9 -10 -8 -11 5 -1 13 10 14 20 5 69 -11 67
-10 227 3 231 4 1 7 17 5 34 -2 17 2 44 10 60 8 15 10 26 5 23 -5 -4 -9 -2 -9
4 0 5 5 13 10 16 6 4 8 10 5 15 -9 15 16 108 36 131 10 12 19 26 19 31 0 5 6
6 13 2 6 -4 9 -4 5 1 -4 4 -2 17 3 28 9 16 13 17 21 6 8 -11 9 -11 5 2 -6 17
27 52 38 41 3 -4 3 1 -1 11 -4 11 -1 17 7 17 10 0 10 3 1 12 -9 9 -17 5 -34
-18 -13 -16 -33 -40 -46 -54 l-23 -25 20 41 c22 45 62 77 97 77 13 0 21 3 19
7 -7 12 88 32 170 36 108 6 133 11 161 33 14 11 32 17 41 14 12 -5 14 -3 8 6
-6 10 1 12 31 8 22 -2 47 -8 57 -12z m3494 -347 c89 -27 145 -63 169 -109 9
-19 18 -78 24 -160 4 -72 11 -133 14 -136 3 -3 28 14 56 37 58 49 70 46 77
-22 4 -32 -4 -68 -30 -145 -40 -115 -51 -139 -80 -170 -34 -38 -47 -29 -48 30
l0 52 -19 -71 c-30 -116 -71 -227 -99 -269 -27 -40 -83 -85 -107 -85 -7 0 -22
26 -33 58 -42 114 -66 137 -156 152 -196 32 -319 -9 -375 -125 -12 -25 -26
-45 -31 -45 -17 0 -59 109 -89 234 -17 66 -30 127 -30 134 0 8 -11 27 -24 43
-58 69 -102 263 -74 329 l15 35 17 -60 c19 -64 45 -120 52 -113 2 3 11 54 19
115 18 137 43 208 94 257 62 60 94 66 351 62 205 -3 232 -5 307 -28z m3419
-193 c51 -21 110 -81 134 -138 17 -38 25 -80 29 -157 6 -99 7 -103 19 -73 14
32 40 46 62 33 25 -15 -31 -225 -60 -225 -11 0 -18 -22 -27 -95 -9 -74 -20
-114 -52 -184 -23 -48 -48 -114 -57 -145 -30 -107 -76 -241 -83 -241 -4 0 -27
21 -51 46 -25 25 -109 97 -187 159 -145 117 -151 123 -158 152 -46 183 -59
220 -75 216 -48 -13 -141 127 -144 216 -1 44 0 46 29 49 20 2 44 -6 67 -21
l35 -25 7 66 c9 88 34 155 92 245 55 84 89 109 174 126 30 6 64 13 75 15 32 7
136 -4 171 -19z m-6505 -141 c-5 -16 -10 -21 -10 -12 -1 18 10 51 15 45 2 -1
-1 -16 -5 -33z m-24 -126 l2 -33 -14 30 c-7 17 -11 33 -8 38 9 15 19 -2 20
-35z m-1130 0 c-3 -8 -6 -5 -6 6 -1 11 2 17 5 13 3 -3 4 -12 1 -19z m17788
-78 c15 0 13 -4 -9 -25 -14 -13 -26 -31 -26 -40 0 -8 -7 -15 -16 -15 -12 0
-14 5 -9 18 18 42 17 64 -4 92 -33 45 -24 49 13 8 18 -21 41 -38 51 -38z
m-17237 -17 c6 -19 -35 -16 -42 3 -4 11 0 15 16 12 12 -2 23 -9 26 -15z
m16250 -251 l120 -82 23 55 c13 31 28 54 33 51 6 -2 9 -10 7 -17 -1 -8 -9 -52
-17 -98 -7 -46 -15 -85 -16 -87 -3 -3 -25 28 -60 86 -9 14 -51 46 -95 72 -106
63 -183 125 -183 148 0 10 -5 22 -10 25 -6 4 -8 11 -5 16 4 5 24 -13 45 -39
24 -31 83 -80 158 -130z m923 145 c-8 -8 -11 -7 -11 4 0 20 13 34 18 19 3 -7
-1 -17 -7 -23z m-681 -14 c-1 -40 -25 -70 -44 -54 -11 9 -15 9 -19 -1 -3 -8
-6 -9 -6 -2 -1 7 10 19 24 28 14 9 25 25 25 36 0 11 5 20 10 20 6 0 10 -12 10
-27z m698 -60 c-3 -51 -1 -58 21 -69 22 -11 20 -12 -23 -12 -43 1 -47 3 -41
22 3 12 8 37 11 56 8 50 12 60 24 60 6 0 9 -23 8 -57z m-259 21 c2 -2 -10 -4
-27 -4 -17 0 -34 4 -37 10 -5 9 53 3 64 -6z m96 -24 c26 -13 49 -34 61 -55 10
-19 21 -35 25 -35 12 0 7 -52 -7 -79 -17 -31 -18 -48 -3 -53 6 -2 -11 -60 -40
-142 -28 -76 -51 -141 -51 -146 0 -4 25 0 56 8 41 12 74 32 130 79 83 71 88
86 53 154 -23 46 -22 51 7 43 24 -6 64 -82 64 -120 0 -13 7 -27 15 -30 8 -4
15 -17 15 -30 0 -20 -9 -29 -45 -44 -34 -15 -50 -29 -60 -54 -18 -42 -20 -44
-87 -56 -69 -13 -94 -27 -118 -65 -38 -61 -44 -123 -21 -220 12 -48 21 -103
21 -123 0 -20 11 -72 25 -115 19 -60 25 -99 25 -173 0 -130 25 -174 97 -174
54 0 64 19 82 155 19 144 33 165 108 165 51 0 80 9 87 26 3 7 -4 39 -14 70
-11 32 -20 65 -20 75 0 35 21 30 36 -8 8 -21 24 -59 36 -85 27 -59 17 -88 -41
-117 -60 -31 -85 -73 -89 -153 l-4 -68 34 0 c19 0 55 11 79 25 24 14 80 43
125 64 96 47 137 90 160 169 21 74 29 82 74 82 42 0 58 15 88 80 11 25 43 71
72 103 l52 57 -12 51 c-14 59 -47 101 -92 119 -43 18 -43 17 -25 35 9 8 27 15
40 15 23 0 25 4 30 66 3 45 12 75 26 94 l20 28 -52 45 c-32 27 -67 47 -90 51
-21 4 -35 11 -32 15 10 16 86 -7 140 -43 30 -20 56 -36 59 -36 8 0 50 106 48
125 -2 16 0 16 8 -4 14 -32 3 -84 -26 -126 -21 -32 -22 -38 -10 -72 7 -21 17
-58 21 -82 l7 -43 19 41 c10 23 42 64 70 91 65 62 101 69 42 8 -46 -48 -102
-151 -115 -213 -23 -112 -24 -105 10 -105 16 0 43 7 58 15 16 8 45 15 65 15
66 0 101 11 93 29 -29 67 -2 123 92 195 43 32 63 54 59 63 -13 36 -16 63 -7
63 33 0 24 -103 -11 -121 -31 -16 -127 -111 -127 -126 0 -19 32 -83 42 -83 22
0 203 32 212 37 17 11 79 3 96 -12 8 -8 35 -30 60 -48 25 -18 54 -47 65 -64
15 -24 25 -30 40 -26 27 9 67 5 79 -7 15 -15 1 -21 -27 -11 -21 8 -28 6 -39
-11 -14 -21 -15 -20 -72 33 -83 79 -152 110 -171 79 -7 -12 -46 -14 -44 -2 4
23 -3 31 -23 28 -13 -3 -30 -5 -38 -6 -11 0 -9 -6 8 -20 l23 -19 -43 -5 c-24
-3 -92 -7 -153 -10 -60 -3 -127 -11 -149 -17 l-38 -11 23 -24 c12 -13 43 -36
68 -50 25 -15 62 -41 81 -58 20 -19 60 -40 95 -50 64 -20 106 -56 124 -106 14
-41 7 -38 -28 14 -30 44 -69 66 -141 81 l-35 7 34 -35 c27 -29 35 -46 39 -86
2 -28 0 -51 -5 -51 -10 0 -33 56 -33 81 0 22 -99 112 -161 147 -80 46 -112 43
-165 -13 -23 -25 -54 -70 -68 -100 -19 -40 -39 -64 -73 -88 -78 -52 -125 -103
-121 -129 2 -19 10 -23 46 -26 48 -4 56 -13 44 -56 l-8 -30 -24 34 c-20 29
-25 31 -35 17 -10 -13 -18 -15 -45 -7 -19 5 -35 8 -37 6 -7 -7 17 -56 27 -56
28 0 -5 -19 -43 -25 -69 -11 -75 -14 -70 -38 7 -37 -67 -87 -129 -87 -11 0
-52 -16 -91 -35 -39 -19 -81 -35 -93 -35 -42 0 -54 -25 -54 -114 0 -45 -7
-108 -15 -140 -24 -90 -5 -125 76 -140 21 -3 43 -13 50 -22 19 -24 60 -41 111
-49 26 -4 62 -18 79 -31 30 -22 42 -24 145 -24 l112 0 41 34 c45 38 86 51 129
41 21 -4 33 -1 46 14 20 22 34 105 20 113 -5 3 -29 3 -54 -1 -45 -6 -45 -6
-50 -51 -3 -25 -9 -45 -15 -44 -15 1 -45 65 -45 96 0 32 13 40 103 68 48 15
67 26 75 45 6 14 16 25 22 25 5 0 37 41 71 91 l61 91 -28 24 c-33 26 -32 28
13 15 l32 -9 -6 43 c-5 38 -2 47 20 69 14 14 33 26 41 26 8 0 31 9 50 21 23
13 47 19 73 17 l38 -3 -45 -13 c-70 -20 -133 -52 -152 -77 -16 -21 -16 -28 -4
-62 9 -28 19 -38 35 -39 32 -2 52 -24 22 -24 -37 0 -58 -17 -101 -80 -53 -78
-54 -111 -2 -74 12 8 22 26 22 40 0 29 15 31 30 5 13 -25 13 -34 0 -26 -5 3
-10 -3 -10 -13 0 -13 -9 -22 -26 -26 -15 -4 -23 -10 -20 -13 4 -4 -12 -16 -36
-27 l-42 -21 -3 -102 c-2 -116 5 -133 62 -133 36 0 45 12 45 60 0 19 6 31 19
35 10 3 24 19 31 34 6 17 22 32 35 35 13 3 33 22 45 41 24 39 28 41 54 22 16
-12 16 -15 -4 -60 -12 -28 -20 -62 -18 -83 l3 -36 25 20 c36 28 101 64 107 58
7 -6 -25 -38 -60 -60 -22 -13 -27 -24 -25 -44 3 -23 10 -28 46 -36 23 -6 42
-14 42 -19 0 -13 -98 -3 -138 14 -29 12 -34 12 -53 -7 -12 -12 -21 -36 -22
-55 -2 -28 3 -35 28 -47 40 -19 65 -42 65 -59 0 -8 -4 -11 -10 -8 -5 3 -10 -1
-10 -9 0 -25 -17 -19 -24 9 -4 14 -17 32 -31 41 -33 22 -121 44 -177 44 l-47
0 -32 -61 c-18 -33 -41 -65 -51 -70 -10 -6 -29 -34 -43 -64 -26 -59 -55 -80
-126 -91 -59 -9 -76 -19 -83 -49 -7 -28 -23 -29 -40 -2 -18 28 3 49 93 93 97
48 99 51 145 131 l34 62 -46 7 c-31 5 -67 1 -113 -11 -59 -15 -78 -15 -161 -5
-51 7 -120 20 -153 31 -33 10 -78 17 -100 17 -22 -1 -50 2 -61 6 -25 9 -64
-26 -64 -56 0 -11 18 -54 40 -97 22 -43 40 -87 40 -100 0 -12 -14 -67 -30
-123 -49 -164 -49 -208 -5 -433 34 -170 41 -188 109 -272 35 -43 77 -88 93
-99 36 -27 85 -119 108 -204 30 -113 94 -266 133 -319 39 -54 188 -179 250
-210 20 -10 71 -26 112 -36 101 -24 161 -56 228 -120 58 -57 64 -77 15 -52
-43 21 -107 35 -228 47 -310 31 -429 83 -790 346 -46 33 -44 30 20 -31 95 -91
229 -191 348 -259 189 -108 329 -164 605 -240 206 -57 297 -91 321 -120 20
-24 7 -30 -22 -11 -16 10 -27 12 -31 6 -4 -6 2 -16 14 -23 11 -7 20 -16 20
-20 0 -14 -45 -9 -68 8 -31 21 -27 5 9 -39 17 -20 28 -37 25 -37 -4 0 -60 27
-125 60 -93 46 -185 80 -427 154 -413 128 -439 138 -592 243 -35 24 -74 43
-86 43 -22 0 -16 -13 70 -172 125 -229 130 -243 115 -315 -17 -85 -13 -193 10
-306 20 -101 20 -165 -1 -197 -9 -13 -14 -11 -34 11 -16 19 -28 54 -41 118
-14 75 -24 100 -56 143 -44 58 -47 80 -19 123 28 43 25 72 -17 145 -66 113
-365 388 -426 391 -54 3 -84 -9 -278 -112 -356 -189 -466 -233 -603 -245 -39
-4 -91 -15 -115 -25 -24 -11 -60 -19 -80 -19 -58 0 -101 -17 -153 -60 -38 -32
-49 -38 -54 -26 -13 34 3 52 76 88 41 20 156 64 255 98 205 69 237 88 385 223
131 119 366 377 343 377 -4 0 -71 -50 -148 -110 -125 -98 -148 -113 -220 -135
-170 -51 -392 -78 -619 -73 l-149 3 104 53 c74 38 147 64 254 93 161 43 211
66 265 125 56 59 84 87 117 115 22 18 33 38 38 70 10 60 18 74 136 234 101
137 139 213 139 275 0 14 12 42 26 61 77 103 91 184 69 413 -16 168 -24 209
-54 280 -21 47 -85 116 -109 116 -8 0 -56 18 -106 39 -50 21 -111 44 -136 51
-25 6 -76 25 -113 42 -66 31 -69 31 -102 15 -19 -9 -41 -14 -49 -11 -8 3 -17
0 -21 -5 -9 -16 -25 -4 -25 19 0 10 -8 20 -17 22 -24 5 55 59 122 83 28 10 59
26 70 35 11 10 25 19 32 21 16 5 -30 96 -75 150 -28 33 -135 129 -226 202 -25
21 -129 46 -188 47 -33 0 -87 -23 -258 -109 -24 -12 -40 -52 -40 -100 0 -37
-2 -42 -15 -31 -8 7 -15 28 -15 47 0 28 -3 34 -16 29 -9 -3 -26 -6 -39 -6 -14
0 -38 -13 -54 -29 -22 -22 -42 -30 -88 -35 -32 -4 -78 -13 -103 -20 -30 -9
-53 -10 -70 -4 -22 8 -23 11 -8 19 9 5 51 16 93 24 84 16 262 90 278 116 13
20 1 68 -19 76 -9 3 -36 -15 -72 -49 -57 -55 -119 -85 -149 -74 -8 4 -22 1
-31 -6 -13 -11 -14 -10 -10 2 2 8 28 24 57 34 47 17 52 22 47 43 -5 16 -2 23
8 23 8 0 21 12 28 28 10 21 21 28 51 30 44 4 45 9 13 56 -13 20 -27 51 -30 71
-4 20 -18 57 -32 82 -13 25 -24 51 -24 58 0 6 -13 32 -29 57 -31 49 -100 90
-154 92 -17 1 -32 6 -34 13 -3 8 14 10 64 7 98 -8 140 -34 178 -110 17 -33 39
-74 49 -89 11 -16 26 -59 33 -94 14 -66 35 -111 53 -111 5 0 19 18 29 39 25
47 65 73 151 96 58 16 97 33 194 83 15 8 58 17 95 20 36 3 69 10 73 16 14 21
8 83 -10 107 -10 13 -21 32 -25 42 -6 17 -27 24 -27 9 0 -13 -47 -32 -76 -32
-43 0 -136 51 -121 66 3 4 20 -5 37 -20 43 -36 103 -36 141 0 23 22 30 24 49
14 11 -6 25 -21 29 -33 8 -20 9 -19 15 11 4 17 12 32 17 32 5 0 9 7 9 15 0 8
4 15 9 15 14 0 22 -29 15 -56 -3 -13 -1 -52 6 -87 8 -43 8 -70 1 -89 -9 -25
-6 -32 42 -80 68 -70 113 -156 141 -271 27 -108 33 -122 76 -161 49 -45 76
-86 100 -151 12 -33 29 -68 38 -78 20 -22 87 -41 230 -63 112 -17 114 -17 134
3 27 28 52 216 44 335 -3 47 -1 123 5 168 12 100 2 137 -48 178 -33 26 -36 33
-43 103 -15 150 -90 271 -267 431 -67 61 -107 90 -132 95 -20 5 -101 8 -181 7
-132 0 -151 -2 -216 -27 -52 -20 -89 -27 -135 -26 l-64 1 70 13 c39 7 111 25
160 40 66 19 117 27 193 29 128 4 142 13 142 95 0 31 -3 73 -6 93 -6 37 -7 37
-82 54 -76 17 -112 40 -112 72 0 36 -22 92 -47 122 -30 36 -80 63 -166 90 -62
19 -62 19 -123 -1 -54 -18 -68 -19 -115 -9 -66 14 -117 34 -104 42 6 3 39 -4
74 -15 58 -19 67 -19 110 -6 75 23 171 15 245 -21 81 -38 119 -77 146 -150 12
-32 29 -65 38 -73 16 -13 95 -37 122 -37 9 0 10 35 5 131 -7 125 -7 131 11
127 17 -3 19 -16 24 -133 5 -120 7 -133 31 -165 14 -19 40 -69 59 -110 41 -94
44 -97 36 -35 -4 28 -11 104 -16 170 -8 103 -14 131 -39 185 -31 65 -39 100
-23 100 11 0 28 -36 59 -125 16 -48 27 -109 34 -192 5 -67 14 -134 19 -148 11
-28 60 -63 103 -72 41 -8 74 -55 86 -120 20 -109 31 -144 58 -186 15 -23 47
-76 71 -117 l43 -75 -7 72 c-4 40 -1 130 6 202 14 142 8 178 -37 237 -29 38
-29 42 2 95 18 31 25 59 25 96 0 56 -36 256 -51 284 -15 28 -92 53 -147 46
-30 -4 -40 -3 -27 3 34 15 98 10 141 -9 l41 -19 -29 70 c-36 89 -36 113 0 32
15 -33 39 -74 53 -91 l26 -31 30 18 c41 25 67 64 92 138 26 76 26 79 0 136
-13 31 -33 55 -60 71 -62 40 -45 49 26 15z m360 -19 c-6 -5 -21 -12 -35 -15
l-25 -7 25 15 c28 17 50 21 35 7z m-99 -46 c-22 -17 -46 -20 -46 -6 0 10 22
18 50 20 11 0 10 -4 -4 -14z m-17229 -21 c-3 -3 -12 -4 -19 -1 -8 3 -5 6 6 6
11 1 17 -2 13 -5z m16556 -94 c3 -11 1 -20 -4 -20 -5 0 -9 9 -9 20 0 11 2 20
4 20 2 0 6 -9 9 -20z m-13370 -9 c-3 -10 1 -23 9 -27 7 -5 72 -9 145 -9 115 0
130 2 120 15 -10 13 -10 13 4 3 25 -20 52 -89 45 -116 -3 -13 -24 -36 -47 -51
-50 -34 -88 -26 -101 20 -16 59 -81 74 -117 27 -49 -66 -56 -67 -106 -18 -27
27 -35 44 -35 71 0 51 24 92 57 97 16 2 29 5 30 6 0 0 -1 -7 -4 -18z m110 12
c-7 -2 -21 -2 -30 0 -10 3 -4 5 12 5 17 0 24 -2 18 -5z m13286 -83 c11 -22 19
-40 17 -40 -6 0 -46 65 -46 74 0 14 9 4 29 -34z m1211 -4 c0 -3 -4 -8 -10 -11
-5 -3 -10 -1 -10 4 0 6 5 11 10 11 6 0 10 -2 10 -4z m600 -66 c0 -5 -23 -10
-50 -10 -28 0 -64 -7 -80 -15 -17 -9 -30 -11 -30 -5 0 17 62 38 113 39 26 1
47 -3 47 -9z m-4756 -60 c20 -20 -10 -28 -116 -32 -107 -3 -108 -3 -108 19 0
21 3 23 38 17 20 -3 55 -1 77 5 43 11 94 6 109 -9z m-10700 -40 c12 -77 51
-142 139 -232 59 -59 95 -106 114 -147 27 -59 59 -84 70 -55 3 7 71 73 152
145 157 140 236 224 272 289 27 49 30 48 159 -10 91 -41 542 -259 548 -265 2
-1 -17 -30 -42 -62 -24 -32 -67 -102 -96 -154 -41 -75 -71 -114 -149 -191 -66
-66 -113 -104 -147 -118 -291 -127 -585 -166 -886 -119 l-76 12 -119 100
c-196 165 -503 440 -503 452 0 1 55 33 123 70 207 115 340 215 398 299 13 19
26 33 30 30 3 -2 9 -22 13 -44z m10616 -30 l105 -1 -24 -20 c-21 -17 -36 -19
-125 -17 -98 3 -101 4 -104 27 -3 21 -1 23 20 18 12 -4 70 -7 128 -7z m-9075
-384 c-65 -73 -155 -161 -155 -152 0 3 36 58 80 122 73 108 78 118 62 131 -9
7 4 4 30 -8 l47 -22 -64 -71z m14459 3 c-8 -13 -24 -1 -24 18 0 13 3 13 15 3
8 -7 12 -16 9 -21z m-16663 -111 c19 -14 77 -46 129 -71 75 -36 109 -59 160
-112 l65 -67 -60 30 c-130 65 -377 265 -360 291 5 10 11 5 20 -16 7 -17 28
-42 46 -55z m16289 -184 c0 -8 -4 -14 -10 -14 -5 0 -10 4 -10 9 0 5 -3 18 -7
28 -6 16 -5 16 10 4 9 -7 17 -20 17 -27z m-150 -81 c0 -35 -3 -44 -11 -36 -7
7 -9 25 -5 47 9 50 16 45 16 -11z m-327 -291 l22 -23 -44 16 c-24 8 -61 15
-82 15 -21 0 -41 5 -45 11 -5 8 12 10 60 7 52 -3 71 -9 89 -26z m450 -32 c-18
-20 -73 -28 -73 -10 0 6 11 10 24 10 14 0 28 5 31 10 3 6 13 10 20 10 12 0 11
-4 -2 -20z m-123 -10 c0 -5 -4 -10 -10 -10 -5 0 -10 5 -10 10 0 6 5 10 10 10
6 0 10 -4 10 -10z m394 -6 c4 -9 5 -18 4 -19 -2 -2 -41 -11 -88 -20 -100 -20
-210 -67 -210 -90 0 -6 -6 -20 -14 -31 -15 -19 -15 -19 -37 3 -22 22 -22 23
-5 42 10 11 23 18 27 15 5 -3 6 2 3 10 -7 18 63 67 97 68 13 0 34 5 47 11 18
8 25 7 36 -8 13 -18 14 -17 31 8 14 22 25 27 60 27 31 0 45 -5 49 -16z m36 1
c-12 -15 -30 -12 -30 6 0 5 10 9 21 9 18 0 19 -2 9 -15z m70 -5 c12 -8 9 -10
-13 -10 -16 0 -26 4 -22 10 8 12 16 12 35 0z m-3747 -75 c38 -6 77 -35 77 -57
0 -6 -8 -3 -20 7 -17 16 -42 24 -132 42 -36 7 -26 24 10 18 15 -2 44 -7 65
-10z m-15343 -94 c5 -30 10 -74 10 -100 -1 -39 -3 -43 -13 -30 -12 15 -14 15
-36 -2 -46 -38 -101 -10 -101 51 0 60 51 87 99 53 24 -16 24 -16 18 15 -21 98
-21 98 -3 82 8 -9 20 -40 26 -69z m3419 47 c7 -18 14 -69 17 -113 5 -68 3 -78
-8 -64 -13 15 -15 15 -37 -2 -46 -38 -101 -10 -101 51 0 60 51 87 99 53 27
-18 26 -27 5 77 -9 41 11 39 25 -2z m3431 -2 c25 -75 28 -236 4 -172 -5 14 -9
13 -31 -4 -34 -26 -68 -25 -87 2 -34 49 -6 124 43 115 14 -2 35 -8 45 -12 17
-7 18 -5 12 20 -16 64 -18 85 -8 85 6 0 16 -15 22 -34z m3430 0 c25 -75 28
-236 4 -172 -5 14 -9 13 -31 -4 -34 -26 -68 -25 -87 2 -34 49 -6 124 43 115
14 -2 35 -8 45 -12 17 -7 18 -5 12 20 -16 64 -18 85 -8 85 6 0 16 -15 22 -34z
m3430 0 c25 -75 28 -236 4 -172 -5 14 -9 13 -31 -4 -34 -26 -68 -25 -87 2 -34
49 -6 124 43 115 14 -2 35 -8 45 -12 17 -7 18 -5 12 20 -16 64 -18 85 -8 85 6
0 16 -15 22 -34z m-14230 -9 c15 -7 26 -23 28 -38 3 -26 -4 -31 -70 -53 -10
-3 -18 -10 -18 -15 0 -9 37 -43 80 -73 20 -14 22 -17 8 -17 -10 -1 -37 16 -60
37 -41 37 -41 37 -34 10 3 -16 2 -28 -2 -28 -8 0 -32 95 -32 127 0 20 17 15
23 -7 4 -17 9 -18 38 -10 47 14 58 28 35 46 -24 17 -97 19 -114 2 -6 -6 -15
-8 -19 -4 -14 14 30 36 71 36 23 0 52 -6 66 -13z m700 -8 c0 -5 9 -18 20 -29
25 -25 55 -13 72 28 11 25 12 21 19 -44 3 -39 10 -85 14 -103 5 -26 4 -32 -6
-29 -8 3 -15 15 -17 29 -9 84 -12 91 -38 85 -13 -4 -33 -2 -44 4 -19 10 -20 7
-20 -50 0 -33 -4 -60 -10 -60 -6 0 -10 31 -10 73 0 39 -3 82 -6 95 -5 18 -3
21 10 16 9 -3 16 -10 16 -15z m2730 8 c15 -7 26 -23 28 -38 3 -26 -4 -31 -70
-53 -10 -3 -18 -10 -18 -15 0 -9 37 -43 80 -73 20 -14 22 -17 8 -17 -10 -1
-37 16 -59 36 l-42 38 8 -35 c5 -23 4 -32 -3 -25 -10 10 -32 101 -32 130 0 8
5 15 10 15 6 0 10 -7 10 -15 0 -10 10 -15 28 -15 16 0 37 7 48 15 19 15 19 15
0 30 -26 20 -95 19 -118 -2 -15 -13 -18 -14 -18 -2 0 8 5 20 12 27 16 16 96
15 128 -1z m700 -8 c0 -5 9 -18 20 -29 25 -25 56 -13 71 27 14 37 19 25 23
-53 2 -38 7 -82 11 -98 6 -22 5 -28 -6 -24 -8 3 -15 15 -17 29 -9 84 -12 91
-38 85 -13 -4 -33 -2 -44 4 -19 10 -20 7 -20 -50 0 -33 -4 -60 -10 -60 -6 0
-10 31 -10 73 0 39 -3 82 -6 95 -5 18 -3 21 10 16 9 -3 16 -10 16 -15z m2730
8 c15 -7 26 -23 28 -38 3 -26 -4 -31 -70 -53 -10 -3 -18 -10 -18 -15 0 -9 37
-43 80 -73 20 -14 22 -17 8 -17 -10 -1 -37 16 -59 36 l-42 38 8 -35 c5 -25 4
-32 -4 -25 -13 13 -34 120 -28 143 4 14 6 13 12 -5 9 -27 51 -31 81 -8 19 15
19 15 0 30 -26 20 -95 19 -118 -2 -16 -15 -18 -15 -18 0 0 9 8 21 18 26 24 14
92 13 122 -2z m709 -23 c16 -36 60 -30 81 11 l15 30 6 -71 c4 -39 10 -85 14
-103 5 -26 4 -32 -6 -29 -8 3 -15 15 -17 29 -9 84 -12 91 -38 85 -13 -4 -33
-2 -44 4 -19 10 -20 7 -20 -50 0 -33 -4 -60 -10 -60 -6 0 -10 31 -10 73 0 39
-3 82 -6 95 -9 31 19 20 35 -14z m2721 23 c15 -7 26 -23 28 -38 3 -26 -4 -31
-70 -53 -10 -3 -18 -10 -18 -15 0 -9 37 -43 80 -73 20 -14 22 -17 8 -17 -10
-1 -37 16 -59 36 l-42 38 8 -35 c5 -25 4 -32 -4 -25 -6 6 -15 35 -21 64 -13
67 -13 81 0 81 6 0 10 -7 10 -15 0 -10 10 -15 28 -15 16 0 37 7 48 15 19 15
19 15 0 30 -26 20 -95 19 -118 -2 -15 -13 -18 -14 -18 -2 0 8 5 20 12 27 16
16 96 15 128 -1z m709 -23 c14 -33 60 -30 77 4 18 37 27 22 29 -48 1 -36 6
-78 10 -94 6 -22 5 -28 -6 -24 -8 3 -15 15 -17 29 -9 84 -12 91 -38 85 -13 -4
-33 -2 -44 4 -19 10 -20 7 -20 -50 0 -33 -4 -60 -10 -60 -6 0 -10 31 -10 73 0
39 -3 82 -6 95 -9 31 19 20 35 -14z m2721 23 c15 -7 26 -23 28 -38 3 -26 -4
-31 -70 -53 -10 -3 -18 -10 -18 -15 0 -9 37 -43 80 -73 20 -14 22 -17 8 -17
-10 -1 -37 16 -59 36 l-42 38 8 -35 c5 -23 4 -32 -3 -25 -10 10 -32 101 -32
130 0 8 5 15 10 15 6 0 10 -7 10 -15 0 -10 10 -15 28 -15 16 0 37 7 48 15 19
15 19 15 0 30 -26 20 -95 19 -118 -2 -16 -15 -18 -15 -18 0 0 9 8 21 18 26 24
14 92 13 122 -2z m709 -23 c16 -35 61 -30 79 9 18 38 24 30 27 -40 1 -32 6
-75 10 -97 6 -31 5 -38 -6 -34 -8 3 -15 15 -17 29 -9 84 -12 91 -38 85 -13 -4
-33 -2 -44 4 -19 10 -20 7 -20 -50 0 -33 -4 -60 -10 -60 -6 0 -10 31 -10 73 0
39 -3 82 -6 95 -9 31 19 20 35 -14z m-14281 -10 c43 -30 21 -72 -44 -83 -32
-6 -34 -8 -21 -25 9 -13 31 -20 66 -24 57 -5 52 -22 -6 -22 -48 0 -87 38 -87
85 0 29 7 43 28 61 32 28 35 29 64 8z m1056 0 c33 -32 5 -84 -46 -84 -15 0
-28 -4 -28 -9 0 -19 45 -41 85 -41 29 0 36 -3 25 -10 -28 -18 -80 -11 -105 15
-40 40 -30 116 18 135 31 12 34 12 51 -6z m2374 0 c12 -8 22 -24 22 -34 0 -23
-36 -50 -67 -50 -32 0 -30 -28 3 -40 14 -6 42 -10 62 -10 28 0 33 -3 22 -10
-27 -18 -78 -11 -106 14 -21 18 -28 32 -28 61 0 29 7 43 28 61 32 28 35 29 64
8z m1056 0 c33 -32 5 -84 -46 -84 -15 0 -28 -4 -28 -9 0 -19 45 -41 85 -41 29
0 36 -3 25 -10 -28 -18 -80 -11 -105 15 -40 40 -30 116 18 135 31 12 34 12 51
-6z m2378 -1 c10 -9 18 -24 18 -34 0 -22 -37 -49 -67 -49 -32 0 -30 -28 3 -40
14 -6 42 -10 62 -10 28 0 33 -3 22 -10 -27 -18 -78 -11 -106 14 -21 18 -28 32
-28 61 0 29 7 43 28 61 32 28 43 30 68 7z m1052 1 c33 -32 5 -84 -46 -84 -15
0 -28 -4 -28 -9 0 -19 45 -41 85 -41 29 0 36 -3 25 -10 -8 -5 -30 -10 -48 -10
-46 0 -82 38 -82 85 0 25 8 44 25 60 28 29 47 31 69 9z m2374 0 c12 -8 22 -24
22 -34 0 -23 -36 -50 -67 -50 -32 0 -30 -28 3 -40 14 -6 42 -10 62 -10 28 0
33 -3 22 -10 -27 -18 -78 -11 -106 14 -21 18 -28 32 -28 61 0 29 7 43 28 61
32 28 35 29 64 8z m1056 0 c33 -32 5 -84 -46 -84 -15 0 -28 -4 -28 -9 0 -19
45 -41 85 -41 29 0 36 -3 25 -10 -8 -5 -30 -10 -48 -10 -46 0 -82 38 -82 85 0
25 8 44 25 60 28 29 47 31 69 9z m2374 0 c12 -8 22 -24 22 -34 0 -23 -36 -50
-67 -50 -32 0 -30 -28 3 -40 14 -6 42 -10 62 -10 28 0 33 -3 22 -10 -27 -18
-78 -11 -106 14 -21 18 -28 32 -28 61 0 29 7 43 28 61 32 28 35 29 64 8z
m1056 0 c33 -32 5 -84 -46 -84 -15 0 -28 -4 -28 -9 0 -19 45 -41 85 -41 29 0
36 -3 25 -10 -28 -18 -80 -11 -105 15 -40 40 -30 116 18 135 31 12 34 12 51
-6z m-14593 -23 c16 -16 30 -38 30 -48 1 -10 3 -28 4 -41 2 -17 -5 -26 -22
-33 -56 -21 -123 1 -123 41 0 28 44 54 80 46 17 -3 30 -2 30 3 0 16 -40 43
-55 38 -15 -6 -21 4 -8 16 13 14 35 6 64 -22z m3430 0 c16 -16 30 -38 30 -48
1 -10 3 -28 4 -41 2 -17 -5 -26 -22 -33 -56 -21 -123 1 -123 41 0 28 44 54 80
46 17 -3 30 -2 30 3 0 16 -40 43 -55 38 -15 -6 -21 4 -8 16 13 14 35 6 64 -22z
m3433 -2 c27 -31 28 -34 31 -82 2 -22 -4 -31 -22 -38 -36 -13 -76 -11 -101 7
-47 33 -10 91 53 81 19 -3 35 -2 35 2 0 16 -40 43 -55 38 -15 -6 -21 4 -8 16
15 15 43 5 67 -24z m3430 1 c28 -34 44 -96 28 -112 -19 -19 -90 -22 -117 -4
-51 33 -15 93 50 83 19 -3 35 -2 35 2 0 16 -40 43 -55 38 -15 -6 -21 4 -8 16
15 15 43 5 67 -23z m3427 1 c16 -16 30 -38 30 -48 1 -10 3 -28 4 -41 4 -40
-79 -57 -123 -26 -47 33 -10 91 53 81 19 -3 35 -2 35 2 0 16 -40 43 -55 38
-15 -6 -21 4 -8 16 13 14 35 6 64 -22z m-6095 -2 c3 -5 -13 -9 -35 -9 -36 0
-41 -3 -41 -23 0 -12 4 -37 9 -54 5 -18 6 -35 1 -38 -10 -6 -19 16 -30 73 -7
42 -7 44 23 57 30 13 63 10 73 -6z m3420 6 c18 -13 16 -14 -25 -15 l-44 0 6
-37 c3 -21 9 -48 13 -60 4 -14 2 -23 -4 -23 -11 0 -26 41 -36 96 -4 28 -2 32
27 42 44 14 41 14 63 -3z m3440 -6 c3 -5 -14 -9 -37 -9 l-42 0 6 -37 c3 -21 9
-48 13 -60 10 -36 -13 -27 -25 8 -6 18 -11 47 -11 65 0 26 5 34 28 42 29 9 59
5 68 -9z m-13721 1 c4 -7 -6 -10 -29 -8 -19 1 -39 -1 -43 -5 -4 -4 -2 -30 3
-58 12 -56 2 -75 -15 -27 -15 42 -14 95 2 101 22 10 76 7 82 -3z m3430 0 c4
-6 -10 -10 -34 -10 -36 0 -41 -3 -41 -23 0 -12 4 -37 9 -54 12 -43 -4 -52 -18
-11 -15 42 -14 95 2 101 22 9 76 7 82 -3z m-3563 -17 c26 -23 24 -78 -4 -97
-74 -52 -162 38 -92 93 32 25 71 27 96 4z m3430 0 c26 -23 24 -78 -4 -97 -74
-52 -162 38 -92 93 32 25 71 27 96 4z m3430 0 c26 -23 24 -78 -4 -97 -74 -52
-162 38 -92 93 32 25 71 27 96 4z m3430 0 c26 -23 24 -78 -4 -97 -74 -52 -162
38 -92 93 32 25 71 27 96 4z m3430 0 c26 -23 24 -78 -4 -97 -74 -52 -162 38
-92 93 32 25 71 27 96 4z m4824 -123 c19 -6 34 -16 34 -22 0 -6 -8 -7 -17 -3
-62 25 -75 27 -96 16 -45 -23 -88 -31 -108 -18 -27 17 -24 24 12 25 17 0 33 2
35 5 9 9 109 7 140 -3z m-2772 -412 c-3 -4 -12 -8 -20 -8 -12 0 -13 4 -3 21 9
17 13 19 19 8 5 -7 6 -17 4 -21z"/>
<path d="M23930 15561 c-5 -11 -10 -41 -10 -66 0 -52 14 -85 35 -85 23 0 45
42 45 85 0 68 -46 111 -70 66z"/>
<path d="M24150 15561 c-5 -11 -10 -41 -10 -66 0 -52 14 -85 35 -85 23 0 45
42 45 85 0 68 -46 111 -70 66z"/>
<path d="M24310 15565 c-16 -19 -16 -121 0 -140 32 -38 64 -3 64 70 -1 73 -32
108 -64 70z"/>
<path d="M24963 15509 l-31 -49 34 0 34 0 0 50 c0 28 -1 50 -2 49 -2 0 -17
-22 -35 -50z"/>
<path d="M13117 10863 c-16 -8 -27 -17 -24 -20 3 -2 14 0 26 6 11 6 22 7 25 3
3 -5 31 -10 63 -11 32 -1 60 -6 63 -10 8 -11 49 -11 55 0 3 5 -1 6 -9 3 -9 -4
-18 1 -22 10 -3 9 -10 14 -14 11 -5 -3 -11 -2 -14 3 -2 4 -19 9 -36 10 -19 2
-29 -1 -25 -8 3 -5 -1 -10 -10 -10 -10 0 -13 5 -9 12 5 7 0 9 -14 6 -12 -3
-22 -2 -24 2 -2 5 -16 2 -31 -7z"/>
<path d="M13698 10863 c-16 -2 -28 -9 -28 -15 0 -5 -6 -8 -12 -5 -19 7 -60
-11 -53 -23 6 -10 16 -10 100 10 27 6 61 8 74 5 25 -6 25 -6 7 14 -19 20 -32
22 -88 14z"/>
<path d="M13217 10704 c-17 -18 -6 -35 21 -32 16 2 27 9 27 18 0 16 -36 26
-48 14z"/>
<path d="M13656 10694 c-4 -10 -2 -22 3 -27 14 -14 43 0 39 20 -4 24 -34 28
-42 7z"/>
<path d="M13150 10683 c0 -31 92 -50 149 -32 50 16 62 30 15 17 -22 -5 -46
-10 -54 -10 -33 -2 -95 13 -102 25 -6 9 -8 9 -8 0z"/>
<path d="M13590 10656 c0 -13 37 -24 51 -15 12 9 12 10 -1 6 -8 -2 -23 0 -32
5 -10 5 -18 6 -18 4z"/>
<path d="M13418 10600 c-1 -30 -2 -63 -2 -72 0 -9 -3 -15 -6 -13 -12 8 -50
-72 -48 -101 3 -40 24 -53 86 -54 85 0 134 36 98 73 -8 7 -35 54 -60 103 -65
128 -65 128 -68 64z"/>
<path d="M13660 10641 c0 -4 11 -6 25 -3 14 2 25 6 25 8 0 2 -11 4 -25 4 -14
0 -25 -4 -25 -9z"/>
<path d="M13369 10286 c-25 -7 -60 -21 -77 -32 -30 -19 -31 -21 -16 -42 36
-51 163 -84 243 -62 36 10 89 52 128 102 31 41 -164 65 -278 34z"/>
<path d="M13099 10022 c14 -27 114 -118 149 -136 75 -39 324 4 440 76 53 32
27 37 -35 6 -142 -70 -301 -59 -486 33 -57 28 -75 34 -68 21z"/>
<path d="M17192 10803 c-51 -58 -90 -108 -87 -111 7 -7 98 64 121 95 27 36 67
114 61 119 -2 2 -45 -44 -95 -103z"/>
<path d="M16655 10810 c39 -46 80 -81 120 -101 l40 -20 -30 26 c-70 60 -148
117 -130 95z"/>
<path d="M17146 10683 c-12 -11 -16 -12 -10 -3 7 13 5 13 -8 2 -9 -8 -14 -21
-11 -30 4 -15 3 -15 -6 -2 -9 13 -13 13 -28 -3 -17 -18 -16 -20 31 -62 47 -42
51 -44 111 -36 6 1 3 6 -5 12 -12 9 -11 10 7 6 28 -6 66 29 60 54 -3 11 0 22
5 26 7 4 8 1 3 -7 -5 -8 -3 -11 6 -8 8 3 13 11 12 17 -2 6 2 11 7 11 6 0 10 5
10 11 0 6 -6 9 -14 6 -8 -3 -16 -2 -18 4 -2 5 -32 12 -68 15 -55 5 -68 3 -84
-13z m73 -27 c9 -10 8 -16 -3 -25 -27 -23 -74 8 -49 32 11 12 40 8 52 -7z"/>
<path d="M16686 10672 c-4 -4 -21 -7 -37 -8 -16 -1 -36 -7 -44 -14 -13 -11
-10 -18 24 -49 56 -52 63 -57 103 -71 34 -12 38 -11 96 24 34 20 64 41 67 46
9 15 -23 67 -45 73 -13 3 -18 1 -13 -6 5 -9 3 -9 -8 -1 -16 12 -132 17 -143 6z
m187 -27 c4 -8 2 -17 -4 -20 -5 -4 -8 -1 -7 7 2 7 -3 12 -10 10 -8 -1 -11 2
-7 8 9 14 22 12 28 -5z m-68 -30 c0 -13 -8 -21 -24 -23 -28 -4 -46 11 -37 33
9 25 61 16 61 -10z m65 -9 c0 -2 -8 -10 -17 -17 -16 -13 -17 -12 -4 4 13 16
21 21 21 13z m-200 -12 c0 -8 -19 -13 -24 -6 -3 5 1 9 9 9 8 0 15 -2 15 -3z
m24 -12 c3 -5 -1 -9 -9 -9 -8 0 -12 4 -9 9 3 4 7 8 9 8 2 0 6 -4 9 -8z"/>
<path d="M16967 10508 c-2 -7 0 -21 5 -30 6 -13 5 -16 -5 -12 -9 3 -33 -23
-66 -71 l-52 -76 26 -25 c20 -18 36 -24 59 -22 19 2 36 -3 43 -12 9 -13 17
-13 50 -2 79 27 114 45 109 58 -3 9 1 11 11 7 23 -9 -58 107 -109 156 -45 42
-63 50 -71 29z m28 -8 c-3 -5 -11 -10 -16 -10 -6 0 -7 5 -4 10 3 6 11 10 16
10 6 0 7 -4 4 -10z m45 -36 c0 -2 -8 0 -19 5 -10 6 -22 7 -26 3 -5 -4 -5 -1
-1 6 5 9 12 9 27 2 10 -6 19 -13 19 -16z m19 -54 c0 -10 -3 -8 -9 5 -12 27
-12 43 0 25 5 -8 9 -22 9 -30z m-118 -4 c-12 -15 -11 -37 2 -47 4 -3 -8 -5
-27 -5 -32 1 -42 16 -10 16 8 0 14 8 14 18 0 19 20 45 28 37 3 -2 0 -11 -7
-19z m146 -8 c-3 -8 -6 -5 -6 6 -1 11 2 17 5 13 3 -3 4 -12 1 -19z m20 -15
c-4 -3 0 -14 8 -23 14 -15 12 -16 -20 -16 -19 1 -35 4 -35 8 0 5 6 8 14 8 8 0
16 7 20 15 3 8 9 15 12 15 4 0 4 -3 1 -7z m-187 -43 c0 -5 -4 -10 -10 -10 -5
0 -10 5 -10 10 0 6 5 10 10 10 6 0 10 -4 10 -10z m-25 -29 c-6 -5 -25 10 -25
20 0 5 6 4 14 -3 8 -7 12 -15 11 -17z m62 23 c-3 -3 -12 -4 -19 -1 -8 3 -5 6
6 6 11 1 17 -2 13 -5z m93 -29 c-7 -8 -16 -15 -21 -15 -5 0 -1 8 9 18 20 22
31 19 12 -3z m50 22 c0 -2 -12 -14 -27 -28 -20 -17 -23 -18 -10 -3 9 11 14 24
10 27 -3 4 1 7 10 7 10 0 17 -1 17 -3z m-156 -23 c5 -14 4 -15 -9 -4 -17 14
-19 20 -6 20 5 0 12 -7 15 -16z"/>
<path d="M16862 10173 c-60 -24 -81 -39 -41 -30 22 6 26 2 35 -25 13 -43 49
-66 115 -74 52 -6 58 -4 90 24 19 17 44 47 54 66 14 26 26 36 45 36 24 1 24 1
6 15 -32 24 -236 16 -304 -12z"/>
<path d="M6714 10729 c-17 -5 -39 -18 -49 -29 -19 -21 -19 -21 11 -5 43 22 94
19 137 -10 43 -30 49 -20 10 17 -33 30 -67 39 -109 27z"/>
<path d="M6309 10700 c-20 -11 -39 -26 -42 -34 -4 -11 3 -10 29 6 34 20 95 22
137 4 33 -15 17 12 -17 28 -43 20 -62 20 -107 -4z"/>
<path d="M6805 10640 c-3 -5 -12 -7 -20 -3 -8 3 -15 3 -15 0 0 -13 28 -13 45
-1 10 8 14 14 8 14 -7 0 -14 -4 -18 -10z"/>
<path d="M6700 10631 c0 -4 13 -7 29 -6 16 0 27 3 25 6 -5 9 -54 8 -54 0z"/>
<path d="M6315 10620 c-4 -6 -11 -7 -17 -4 -7 4 -8 2 -4 -4 5 -9 13 -9 29 0
21 10 21 10 7 -7 -14 -17 -14 -18 8 -6 12 7 20 16 17 22 -8 12 -32 12 -40 -1z"/>
<path d="M6375 10619 c-11 -17 1 -21 15 -4 8 9 8 15 2 15 -6 0 -14 -5 -17 -11z"/>
<path d="M6492 10481 c2 -7 7 -12 11 -12 12 1 9 15 -3 20 -7 2 -11 -2 -8 -8z"/>
<path d="M6575 10480 c-3 -5 3 -10 14 -10 12 0 21 5 21 10 0 6 -6 10 -14 10
-8 0 -18 -4 -21 -10z"/>
<path d="M6530 10370 c-25 -4 -58 -15 -75 -24 l-30 -18 30 8 c17 4 73 8 125 8
52 0 85 2 73 4 -12 2 -27 10 -33 18 -13 15 -20 15 -90 4z"/>
<path d="M20058 10672 c-18 -2 -28 -9 -28 -19 0 -9 3 -13 6 -10 4 3 14 2 23
-3 10 -5 44 -11 77 -14 94 -9 117 -14 157 -31 39 -16 57 -13 57 8 0 7 -4 6
-10 -3 -9 -13 -10 -13 -10 0 0 22 -48 46 -96 49 -23 1 -56 6 -75 11 -22 6 -37
6 -43 0 -6 -6 -15 -10 -20 -10 -6 0 -5 4 2 9 18 11 -2 18 -40 13z"/>
<path d="M20615 10669 c-63 -12 -120 -33 -117 -44 1 -6 15 -9 30 -8 15 2 51 4
81 4 49 1 100 10 141 26 11 4 8 8 -10 15 -35 13 -78 16 -125 7z"/>
<path d="M20146 10572 c-3 -5 1 -9 9 -9 8 0 12 4 9 9 -3 4 -7 8 -9 8 -2 0 -6
-4 -9 -8z"/>
<path d="M20104 10548 l-19 -23 23 19 c21 18 27 26 19 26 -2 0 -12 -10 -23
-22z"/>
<path d="M20556 10547 c-28 -20 -14 -49 21 -45 22 2 28 8 28 28 0 29 -22 37
-49 17z"/>
<path d="M20133 10534 c-8 -22 20 -47 45 -40 22 7 36 32 26 47 -9 15 -64 10
-71 -7z"/>
<path d="M20507 10270 c7 -28 -12 -48 -41 -43 -13 3 -27 0 -30 -6 -12 -19 50
-12 67 7 19 20 22 48 8 56 -5 4 -7 -3 -4 -14z"/>
<path d="M20270 10251 c0 -11 4 -22 9 -25 4 -3 6 6 3 19 -5 30 -12 33 -12 6z"/>
<path d="M20300 10220 c0 -5 7 -10 15 -10 8 0 15 5 15 10 0 6 -7 10 -15 10 -8
0 -15 -4 -15 -10z"/>
<path d="M20355 10210 c3 -5 16 -10 28 -9 21 0 21 1 2 9 -28 12 -37 12 -30 0z"/>
<path d="M20335 10101 c-110 -11 -116 -25 -31 -78 33 -21 48 -25 101 -21 55 3
67 8 108 43 l46 40 -37 12 c-41 13 -81 13 -187 4z"/>
<path d="M6370 8720 c-23 -23 -24 -33 -10 -61 14 -26 36 -24 65 6 32 31 31 41
-5 60 -28 14 -31 14 -50 -5z"/>
<path d="M9789 8709 c-14 -26 2 -69 26 -69 18 0 65 43 65 59 0 14 -33 31 -59
31 -11 0 -25 -10 -32 -21z"/>
<path d="M13219 8709 c-14 -26 2 -69 26 -69 18 0 65 43 65 59 0 14 -33 31 -59
31 -11 0 -25 -10 -32 -21z"/>
<path d="M16649 8709 c-14 -26 2 -69 26 -69 18 0 65 43 65 59 0 14 -33 31 -59
31 -11 0 -25 -10 -32 -21z"/>
<path d="M20080 8711 c-13 -25 3 -71 25 -71 18 0 65 43 65 59 0 14 -33 31 -59
31 -11 0 -25 -9 -31 -19z"/>
<path d="M6042 8758 c-5 -7 -12 -22 -16 -34 -6 -18 -3 -20 24 -16 34 5 55 25
46 47 -7 18 -40 20 -54 3z"/>
<path d="M7096 8755 c-23 -23 -20 -45 7 -45 32 0 50 14 45 36 -4 25 -31 29
-52 9z"/>
<path d="M9478 8758 c-9 -7 -19 -22 -22 -34 -6 -18 -3 -20 24 -16 35 5 53 23
44 46 -7 19 -24 21 -46 4z"/>
<path d="M10526 8755 c-23 -23 -20 -45 7 -45 32 0 50 14 45 36 -4 25 -31 29
-52 9z"/>
<path d="M12908 8758 c-9 -7 -19 -22 -22 -34 -6 -18 -3 -20 24 -16 39 6 57 27
40 47 -15 18 -22 19 -42 3z"/>
<path d="M13956 8755 c-23 -23 -20 -45 7 -45 32 0 50 14 45 36 -4 25 -31 29
-52 9z"/>
<path d="M16338 8758 c-9 -7 -19 -22 -22 -34 -6 -18 -3 -20 24 -16 39 6 57 27
40 47 -15 18 -22 19 -42 3z"/>
<path d="M17386 8755 c-23 -23 -20 -45 7 -45 32 0 50 14 45 36 -4 25 -31 29
-52 9z"/>
<path d="M19768 8758 c-9 -7 -19 -22 -22 -34 -6 -18 -3 -20 24 -16 39 6 57 27
40 47 -15 18 -22 19 -42 3z"/>
<path d="M20816 8755 c-23 -23 -20 -45 7 -45 32 0 50 14 45 36 -4 25 -31 29
-52 9z"/>
<path d="M6203 8693 c-21 -8 -15 -41 8 -48 24 -8 89 2 89 14 0 28 -60 49 -97
34z"/>
<path d="M9633 8693 c-23 -9 -14 -41 13 -47 29 -8 84 1 84 13 0 28 -61 49 -97
34z"/>
<path d="M13063 8693 c-22 -8 -15 -40 11 -47 27 -7 86 3 86 14 0 27 -61 48
-97 33z"/>
<path d="M16493 8693 c-22 -8 -15 -40 11 -47 27 -7 86 3 86 14 0 27 -61 48
-97 33z"/>
<path d="M19923 8693 c-22 -8 -15 -40 11 -47 27 -7 86 3 86 14 0 27 -61 48
-97 33z"/>
<path d="M6828 8719 c-21 -12 -24 -49 -6 -67 28 -28 88 0 88 41 0 30 -49 46
-82 26z"/>
<path d="M10258 8719 c-21 -12 -24 -49 -6 -67 28 -28 88 0 88 41 0 30 -49 46
-82 26z"/>
<path d="M13688 8719 c-21 -12 -24 -49 -6 -67 28 -28 88 0 88 41 0 30 -49 46
-82 26z"/>
<path d="M17118 8719 c-21 -12 -24 -49 -6 -67 28 -28 88 0 88 41 0 30 -49 46
-82 26z"/>
<path d="M20548 8719 c-21 -12 -24 -49 -6 -67 28 -28 88 0 88 41 0 30 -49 46
-82 26z"/>
<path d="M16805 6679 c-39 -19 -95 -66 -95 -80 0 -10 73 -38 118 -45 53 -8
162 22 162 46 0 28 -70 82 -120 93 -15 3 -41 -2 -65 -14z m124 -56 l36 -15
-30 -10 c-35 -11 -128 -3 -159 14 -21 11 -20 12 9 24 35 14 95 9 144 -13z"/>
<path d="M16840 6620 c0 -5 7 -10 15 -10 8 0 15 5 15 10 0 6 -7 10 -15 10 -8
0 -15 -4 -15 -10z"/>
<path d="M17225 6567 c-22 -7 -41 -20 -43 -28 -4 -20 78 -88 127 -105 41 -15
107 -18 115 -5 9 13 -44 111 -69 127 -32 21 -83 25 -130 11z m105 -47 c34 -17
60 -45 60 -64 0 -23 -149 45 -158 72 -6 19 54 15 98 -8z"/>
<path d="M17295 6500 c3 -5 10 -10 16 -10 5 0 9 5 9 10 0 6 -7 10 -16 10 -8 0
-12 -4 -9 -10z"/>
<path d="M16936 6364 c-11 -28 -6 -51 15 -75 l20 -24 -17 28 c-11 18 -14 38
-10 57 6 32 2 40 -8 14z"/>
<path d="M17023 6344 c-7 -20 17 -63 46 -83 19 -12 21 -11 21 13 0 59 -51 112
-67 70z"/>
<path d="M17179 6282 c-33 -28 -20 -55 20 -41 30 10 46 33 35 50 -8 14 -30 11
-55 -9z"/>
<path d="M16963 6139 c-23 -4 -54 -14 -70 -22 -35 -19 -97 -83 -90 -94 3 -4
52 -5 109 -2 125 7 164 -3 247 -61 34 -24 63 -41 66 -39 2 3 7 23 10 44 9 56
-27 123 -80 151 -45 24 -130 35 -192 23z"/>
<path d="M16920 5973 c-23 -9 -72 -45 -67 -49 3 -3 21 5 41 17 30 17 48 21
100 17 84 -5 121 -33 166 -124 18 -38 35 -63 38 -56 6 18 -46 117 -77 149 -14
14 -40 32 -58 39 -32 14 -114 18 -143 7z"/>
<path d="M16925 5939 c-17 -4 -44 -23 -60 -40 l-30 -32 44 32 c34 24 54 31 90
31 25 0 53 -5 61 -10 11 -8 9 -9 -10 -5 -14 3 -37 2 -50 -4 -25 -10 -25 -10 5
-10 51 -1 117 -41 142 -86 13 -22 23 -33 23 -25 0 8 -9 30 -20 48 -12 19 -16
31 -10 27 21 -13 9 12 -18 38 -44 42 -103 55 -167 36z"/>
<path d="M16634 5875 c13 -54 62 -75 120 -51 44 19 52 53 9 40 -47 -13 -83 -8
-110 17 l-26 24 7 -30z"/>
<path d="M16540 5736 c0 -2 7 -7 16 -10 8 -3 12 -2 9 4 -6 10 -25 14 -25 6z"/>
<path d="M16610 5701 c38 -22 152 -61 179 -61 9 0 -27 15 -79 33 -52 19 -104
37 -115 41 -11 4 -4 -2 15 -13z"/>
<path d="M16489 5697 c35 -43 229 -132 248 -114 3 3 -15 11 -38 17 -50 14
-146 59 -192 92 -22 15 -28 17 -18 5z"/>
<path d="M6659 7153 c-13 -16 -12 -17 4 -4 10 8 17 9 17 3 0 -6 -8 -16 -17
-21 -11 -6 -13 -11 -5 -11 7 0 10 -5 6 -12 -5 -7 -3 -8 5 -4 7 5 10 11 7 14
-3 3 -1 11 6 19 7 9 8 17 1 24 -7 7 -15 4 -24 -8z"/>
<path d="M6726 7153 c-6 -14 -5 -15 5 -6 7 7 10 15 7 18 -3 3 -9 -2 -12 -12z"/>
<path d="M6806 7118 c3 -4 11 -5 19 -1 21 7 19 12 -4 10 -11 0 -18 -5 -15 -9z"/>
<path d="M6886 7032 c-3 -5 1 -9 9 -9 8 0 12 4 9 9 -3 4 -7 8 -9 8 -2 0 -6 -4
-9 -8z"/>
<path d="M6572 6987 c-7 -18 -12 -41 -12 -51 0 -27 18 -9 25 27 4 17 12 38 17
45 8 8 6 12 -4 12 -8 0 -19 -15 -26 -33z"/>
<path d="M6621 6984 c0 -11 3 -14 6 -6 3 7 2 16 -1 19 -3 4 -6 -2 -5 -13z"/>
<path d="M6656 6973 c-4 -9 -1 -11 5 -7 8 4 9 -1 4 -16 -5 -17 -4 -21 6 -15 9
6 11 2 7 -12 -3 -12 0 -20 8 -20 11 0 13 32 5 78 -2 12 -30 5 -35 -8z"/>
<path d="M6899 6818 c-2 -83 -2 -83 -31 -83 -16 -1 -28 3 -28 8 0 5 -9 7 -21
4 -12 -3 -22 0 -25 8 -3 8 -13 11 -21 8 -12 -5 -14 -3 -8 8 5 8 5 11 -1 6 -5
-5 -10 -13 -10 -18 -3 -22 -5 -23 -14 -9 -8 13 -11 12 -24 -5 -19 -25 -14 -60
8 -59 9 1 14 -2 11 -6 -3 -5 -1 -11 5 -15 5 -3 10 -2 10 4 0 6 7 8 15 5 8 -4
12 -11 8 -18 -4 -7 -1 -7 9 1 8 7 19 9 23 5 5 -4 5 -1 1 6 -4 7 -12 9 -18 6
-7 -4 -8 -2 -4 5 4 6 10 10 14 8 42 -19 61 -31 57 -37 -2 -4 3 -7 12 -7 13 0
12 4 -5 17 -12 10 -18 20 -15 24 3 3 13 0 21 -7 13 -9 14 -9 8 1 -5 8 -1 12
10 12 10 0 14 -3 11 -7 -4 -3 2 -12 13 -20 11 -8 20 -19 20 -25 0 -6 -9 -3
-20 7 -17 16 -20 16 -15 3 10 -26 31 -28 50 -6 14 17 14 20 2 15 -9 -3 -21 1
-29 10 -12 14 -10 16 17 11 16 -4 38 -2 48 4 18 9 18 11 1 29 -9 10 -25 19
-34 19 -23 0 -30 20 -30 80 0 68 -20 75 -21 8z"/>
<path d="M6520 6770 c0 -5 5 -10 11 -10 5 0 7 5 4 10 -3 6 -8 10 -11 10 -2 0
-4 -4 -4 -10z"/>
<path d="M6354 6754 c-18 -14 -18 -14 6 -3 31 14 36 19 24 19 -6 0 -19 -7 -30
-16z"/>
<path d="M6494 6763 c4 -7 2 -13 -3 -13 -6 0 -11 -8 -11 -17 0 -12 -3 -14 -8
-6 -8 13 -52 14 -52 1 0 -4 -12 -3 -26 2 -33 13 -37 13 -28 -2 5 -8 0 -9 -15
-5 -14 3 -31 -3 -50 -19 -15 -13 -31 -21 -34 -17 -3 3 -4 -7 -1 -22 3 -16 1
-24 -5 -21 -5 4 -13 1 -17 -5 -4 -8 -3 -9 4 -5 7 4 12 1 12 -6 0 -10 2 -10 9
1 5 8 14 10 22 5 10 -6 10 -3 -1 11 -14 17 -13 17 9 10 16 -5 21 -4 17 4 -5 7
3 11 21 12 15 0 35 2 43 4 48 12 62 13 76 8 13 -5 13 -8 -2 -24 -10 -11 -14
-22 -11 -26 4 -3 7 0 7 8 0 8 10 -1 21 -18 12 -18 25 -33 30 -33 6 0 1 10 -10
22 -33 35 -13 88 21 55 11 -12 14 -8 14 26 1 21 8 44 15 49 12 8 11 9 -1 5 -8
-2 -24 3 -34 12 -11 9 -16 10 -12 4z"/>
<path d="M6399 6663 c-13 -16 -12 -17 4 -4 9 7 17 15 17 17 0 8 -8 3 -21 -13z"/>
<path d="M6601 6664 c0 -11 3 -14 6 -6 3 7 2 16 -1 19 -3 4 -6 -2 -5 -13z"/>
<path d="M6360 6649 c0 -5 -4 -8 -9 -4 -5 3 -13 1 -16 -5 -4 -6 -1 -9 7 -8 8
2 12 -5 11 -19 -2 -13 2 -23 8 -23 5 0 7 -4 4 -10 -3 -5 -23 -10 -44 -10 -25
0 -43 -6 -52 -17 -12 -16 -12 -17 2 -5 13 10 24 9 55 -4 53 -23 83 -25 115 -9
14 8 28 13 30 11 2 -2 13 6 24 17 11 11 14 17 7 13 -7 -5 -28 -5 -46 -2 -26 5
-32 11 -32 29 1 18 -5 23 -32 25 -28 3 -31 6 -21 18 8 10 8 14 0 14 -6 0 -11
-5 -11 -11z"/>
<path d="M6970 6631 c0 -10 29 -36 34 -30 1 2 -6 12 -16 22 -10 9 -18 13 -18
8z"/>
<path d="M6814 6615 c-3 -8 -3 -18 0 -23 3 -5 -8 -12 -25 -16 -27 -5 -30 -8
-19 -21 7 -9 15 -13 18 -11 2 3 14 0 26 -6 11 -6 32 -12 46 -13 29 -1 38 -24
39 -112 1 -35 6 -65 13 -69 8 -5 10 19 5 95 -6 99 -6 103 13 98 11 -3 18 -1
15 3 -3 5 0 12 7 17 8 5 -1 10 -27 13 -26 4 -39 10 -37 19 7 34 -62 59 -74 26z"/>
<path d="M6240 6596 c0 -2 8 -10 18 -17 15 -13 16 -12 3 4 -13 16 -21 21 -21
13z"/>
<path d="M6970 6590 c0 -5 5 -10 11 -10 5 0 7 5 4 10 -3 6 -8 10 -11 10 -2 0
-4 -4 -4 -10z"/>
<path d="M6523 6570 c-1 -11 2 -22 6 -24 4 -3 7 4 8 14 1 11 -2 22 -6 24 -4 3
-7 -4 -8 -14z"/>
<path d="M7070 6580 c0 -5 7 -7 15 -4 8 4 15 8 15 10 0 2 -7 4 -15 4 -8 0 -15
-4 -15 -10z"/>
<path d="M7008 6573 c7 -3 16 -2 19 1 4 3 -2 6 -13 5 -11 0 -14 -3 -6 -6z"/>
<path d="M7068 6553 c7 -3 16 -2 19 1 4 3 -2 6 -13 5 -11 0 -14 -3 -6 -6z"/>
<path d="M6136 6372 c-3 -5 1 -9 9 -9 8 0 12 4 9 9 -3 4 -7 8 -9 8 -2 0 -6 -4
-9 -8z"/>
<path d="M6131 6344 c-1 -6 5 -17 12 -23 10 -8 14 -7 14 4 0 8 -4 12 -8 9 -4
-2 -10 2 -12 8 -4 8 -6 9 -6 2z"/>
<path d="M6485 6251 c-3 -5 -2 -12 3 -15 5 -3 9 1 9 9 0 17 -3 19 -12 6z"/>
<path d="M6938 6201 c-7 -11 -18 -17 -27 -14 -14 5 -14 4 -1 -8 8 -8 21 -21
28 -29 12 -13 12 -13 6 3 -5 13 -2 16 12 11 18 -5 18 -5 2 6 -27 17 -23 33 5
20 20 -10 20 -10 5 3 -10 8 -15 17 -11 20 3 4 3 7 0 7 -4 0 -12 -9 -19 -19z"/>
<path d="M6329 6208 c-9 -30 -6 -37 12 -28 23 13 25 22 2 13 -11 -4 -14 -3 -9
5 4 7 5 12 2 12 -3 0 -6 -1 -7 -2z"/>
<path d="M7025 6200 c-16 -7 -17 -9 -3 -9 9 -1 20 4 23 9 7 11 7 11 -20 0z"/>
<path d="M6350 6159 c0 -5 -4 -8 -9 -4 -5 3 -12 1 -15 -4 -4 -5 2 -8 11 -7 15
3 33 26 19 26 -3 0 -6 -5 -6 -11z"/>
<path d="M6990 6151 c0 -7 -5 -9 -12 -5 -7 5 -8 3 -3 -5 5 -9 10 -10 18 -2 6
6 8 14 4 18 -4 3 -7 1 -7 -6z"/>
<path d="M6277 6129 c7 -7 15 -10 18 -7 3 3 -2 9 -12 12 -14 6 -15 5 -6 -5z"/>
<path d="M6410 6045 c0 -8 4 -15 10 -15 5 0 7 7 4 15 -4 8 -8 15 -10 15 -2 0
-4 -7 -4 -15z"/>
<path d="M6365 6041 c-4 -7 0 -8 11 -4 11 4 15 3 10 -5 -3 -6 -2 -13 3 -16 5
-4 8 2 7 11 -3 20 -21 28 -31 14z"/>
<path d="M6780 6010 c8 -5 20 -10 25 -10 6 0 3 5 -5 10 -8 5 -19 10 -25 10 -5
0 -3 -5 5 -10z"/>
<path d="M6820 6005 c0 -8 29 -12 39 -5 9 5 4 8 -13 8 -14 0 -26 -2 -26 -3z"/>
<path d="M6785 5981 c-3 -5 0 -13 6 -17 8 -5 9 -3 4 6 -6 10 -4 12 9 7 10 -4
20 -7 22 -7 2 0 4 -5 4 -11 0 -5 -4 -8 -9 -4 -18 10 -21 -13 -3 -26 9 -7 14
-9 10 -5 -4 5 -2 16 4 24 10 11 8 17 -7 28 -22 16 -32 17 -40 5z"/>
<path d="M6390 5976 c0 -2 8 -10 18 -17 15 -13 16 -12 3 4 -13 16 -21 21 -21
13z"/>
<path d="M6756 5903 c-6 -14 -5 -15 5 -6 7 7 10 15 7 18 -3 3 -9 -2 -12 -12z"/>
<path d="M9621 6483 c-54 -63 -55 -98 -4 -154 20 -22 49 -47 64 -55 37 -18
118 -18 185 2 72 21 74 46 7 94 -26 19 -77 62 -114 97 -36 35 -73 63 -82 63
-8 0 -34 -21 -56 -47z m229 -128 l22 -20 -44 -11 c-56 -14 -100 -8 -128 18
-31 29 -10 40 67 35 44 -2 68 -9 83 -22z"/>
<path d="M9714 6359 c-6 -10 11 -29 26 -29 3 0 11 4 19 9 17 11 5 31 -19 31
-10 0 -22 -5 -26 -11z"/>
<path d="M10215 6418 c-38 -11 -87 -24 -108 -29 -68 -18 -72 -94 -6 -133 17
-10 56 -20 87 -23 54 -5 60 -3 119 37 64 43 90 83 78 119 -17 55 -54 62 -170
29z m26 -80 c22 -6 39 -14 39 -18 0 -15 -27 -29 -65 -35 -60 -9 -150 44 -98
58 34 9 86 7 124 -5z"/>
<path d="M10154 6329 c-6 -10 11 -29 26 -29 3 0 11 4 19 9 17 11 5 31 -19 31
-10 0 -22 -5 -26 -11z"/>
<path d="M13663 6258 c-12 -6 -24 -17 -27 -24 -4 -12 0 -11 24 1 34 18 82 19
113 4 21 -10 21 -9 -2 10 -25 23 -72 26 -108 9z"/>
<path d="M13321 6234 c-17 -14 -31 -30 -31 -36 0 -6 8 -1 18 11 26 33 83 38
132 12 48 -25 54 -9 8 19 -46 28 -90 26 -127 -6z"/>
<path d="M13687 6233 c-24 -23 12 -55 38 -33 12 10 13 16 4 26 -12 15 -31 18
-42 7z"/>
<path d="M13357 6223 c-12 -11 -7 -41 7 -46 21 -8 50 17 43 37 -6 16 -38 22
-50 9z"/>
<path d="M13630 6207 c0 -3 10 -15 22 -27 26 -24 76 -26 104 -5 18 14 17 14
-9 5 -33 -12 -74 -4 -99 18 -10 8 -18 12 -18 9z"/>
<path d="M13315 6178 c4 -9 19 -21 35 -28 23 -9 34 -9 59 4 17 9 31 19 31 22
0 2 -9 0 -19 -6 -29 -15 -72 -12 -93 7 -17 15 -18 15 -13 1z"/>
<path d="M13615 5999 c-10 -15 1 -23 20 -15 9 3 13 10 10 16 -8 13 -22 13 -30
-1z"/>
<path d="M13516 5981 c-3 -5 7 -11 22 -14 31 -6 37 -3 27 12 -8 13 -42 14 -49
2z"/>
<path d="M13585 5883 c-49 -5 -105 -23 -105 -33 0 -13 29 -26 73 -33 47 -7 67
0 61 21 -4 13 -2 12 7 -2 11 -18 12 -18 26 5 8 13 12 16 9 7 -5 -15 -3 -16 14
-5 11 6 20 15 20 20 0 9 -46 28 -63 26 -7 -1 -25 -4 -42 -6z m15 -53 c0 -5 -8
-10 -17 -10 -15 0 -16 2 -3 10 19 12 20 12 20 0z"/>
<path d="M23010 5433 c0 -62 65 -191 86 -171 9 9 -7 42 -38 81 -14 17 -22 42
-23 64 0 20 -6 38 -12 40 -8 3 -13 -4 -13 -14z"/>
<path d="M22475 4586 c-64 -29 -108 -43 -169 -51 -41 -6 -56 -14 -98 -57 -53
-54 -68 -82 -68 -128 l0 -28 65 41 c214 138 211 137 279 137 l64 0 11 43 c7
23 15 48 17 55 9 20 -46 14 -101 -12z"/>
<path d="M22645 4550 c-10 -46 4 -88 42 -131 34 -38 36 -38 63 -24 16 8 36 15
45 15 21 0 20 4 -25 70 -38 55 -86 100 -108 100 -6 0 -13 -13 -17 -30z"/>
<path d="M23727 2793 c-4 -3 -7 -11 -7 -17 0 -6 5 -5 12 2 6 6 9 14 7 17 -3 3
-9 2 -12 -2z"/>
<path d="M23920 2786 c0 -2 8 -10 18 -17 15 -13 16 -12 3 4 -13 16 -21 21 -21
13z"/>
<path d="M9808 5167 c-21 -17 -45 -50 -54 -71 -15 -39 -15 -40 7 -57 22 -17
25 -16 65 12 46 31 54 45 54 93 0 29 -15 56 -29 56 -4 0 -23 -15 -43 -33z"/>
<path d="M9671 4965 c-22 -24 -41 -51 -41 -59 0 -79 101 -123 176 -77 64 39
53 105 -25 142 -28 13 -51 27 -51 31 0 18 -20 5 -59 -37z"/>
<path d="M6369 4311 c-20 -16 -22 -23 -14 -47 14 -38 39 -41 70 -10 32 32 32
42 -4 61 -27 13 -31 13 -52 -4z"/>
<path d="M9799 4311 c-20 -16 -22 -23 -14 -47 14 -38 39 -41 70 -10 32 32 32
42 -4 61 -27 13 -31 13 -52 -4z"/>
<path d="M13230 4310 c-23 -23 -24 -33 -10 -61 14 -26 36 -24 65 6 32 31 31
41 -5 60 -28 14 -31 14 -50 -5z"/>
<path d="M16660 4310 c-23 -23 -24 -33 -10 -61 14 -26 36 -24 65 6 32 31 31
41 -5 60 -28 14 -31 14 -50 -5z"/>
<path d="M20079 4299 c-14 -26 2 -69 26 -69 18 0 65 43 65 59 0 14 -33 31 -59
31 -11 0 -25 -10 -32 -21z"/>
<path d="M6036 4338 c-24 -34 -20 -45 14 -40 34 5 55 25 46 47 -8 22 -43 18
-60 -7z"/>
<path d="M7096 4345 c-33 -33 -12 -61 32 -42 15 7 22 18 20 31 -4 26 -31 32
-52 11z"/>
<path d="M9470 4340 c-30 -30 -26 -47 10 -42 35 5 53 23 44 46 -8 22 -30 20
-54 -4z"/>
<path d="M10526 4345 c-33 -33 -12 -61 32 -42 15 7 22 18 20 31 -4 26 -31 32
-52 11z"/>
<path d="M12908 4348 c-9 -7 -19 -22 -22 -34 -6 -18 -3 -20 24 -16 34 5 55 25
46 47 -7 18 -27 19 -48 3z"/>
<path d="M13956 4345 c-23 -23 -20 -45 7 -45 32 0 50 14 45 36 -4 25 -31 29
-52 9z"/>
<path d="M16330 4340 c-30 -30 -26 -47 10 -42 35 5 53 23 44 46 -8 22 -30 20
-54 -4z"/>
<path d="M17386 4345 c-23 -23 -20 -45 7 -45 32 0 50 14 45 36 -4 25 -31 29
-52 9z"/>
<path d="M19756 4338 c-24 -34 -20 -45 14 -40 34 5 55 25 46 47 -8 22 -43 18
-60 -7z"/>
<path d="M20816 4345 c-23 -23 -20 -45 7 -45 32 0 50 14 45 36 -4 25 -31 29
-52 9z"/>
<path d="M6203 4283 c-21 -8 -15 -41 8 -48 24 -8 89 2 89 14 0 28 -60 49 -97
34z"/>
<path d="M9633 4283 c-21 -8 -15 -41 8 -48 24 -8 89 2 89 14 0 28 -60 49 -97
34z"/>
<path d="M13063 4283 c-20 -8 -15 -41 7 -48 22 -7 90 4 90 15 0 27 -61 48 -97
33z"/>
<path d="M16493 4283 c-21 -8 -15 -41 8 -48 24 -8 89 2 89 14 0 28 -60 49 -97
34z"/>
<path d="M19923 4283 c-23 -9 -14 -41 13 -47 29 -8 84 1 84 13 0 28 -61 49
-97 34z"/>
<path d="M6828 4309 c-21 -12 -24 -49 -6 -67 28 -28 88 0 88 41 0 30 -49 46
-82 26z"/>
<path d="M10258 4309 c-21 -12 -24 -49 -6 -67 28 -28 88 0 88 41 0 30 -49 46
-82 26z"/>
<path d="M13688 4309 c-21 -12 -24 -49 -6 -67 28 -28 88 0 88 41 0 30 -49 46
-82 26z"/>
<path d="M17118 4309 c-21 -12 -24 -49 -6 -67 28 -28 88 0 88 41 0 30 -49 46
-82 26z"/>
<path d="M20548 4309 c-21 -12 -24 -49 -6 -67 28 -28 88 0 88 41 0 30 -49 46
-82 26z"/>
</g>
</svg>
