<?xml version="1.0" encoding="utf-8"?>
<!-- Generator: Adobe Illustrator 24.1.3, SVG Export Plug-In . SVG Version: 6.00 Build 0)  -->
<svg version="1.1" id="Lager_1" xmlns="http://www.w3.org/2000/svg" xmlns:xlink="http://www.w3.org/1999/xlink" x="0px" y="0px"
	 width="500px" height="500px" viewBox="0 0 500 500" style="enable-background:new 0 0 500 500;" xml:space="preserve">
<image style="overflow:visible;" width="800" height="600" xlink:href="hands.png"  transform="matrix(0.7407 0 0 0.7407 -46 28)">
</image>
<g>
	<g>
		<path d="M408.8,415.6c0.4-1.1,0.9-2.2,2.2-2.7c0.4-0.2,0.9,0,1.3,0.2c0.4,0.4,0.4,1.3,0.4,1.8c0,1.3-0.2,2.7-0.4,4
			c-0.2,1.3-0.7,2.5-0.7,3.8c0,2,1.6,3.8,3.4,4.5c2.2,1.1,4.9,0.9,7.2,0.4c0.7-0.2,0.7-1.3-0.2-1.3c-2.7,0.2-5.4,0.7-7.6-1.1
			c-0.9-0.7-1.3-1.8-1.3-2.9c0-1.6,0.7-2.9,0.9-4.3c0.2-1.3,0.2-2.7,0.2-4.3c0-0.9-0.4-1.8-1.3-2c-2.2-0.7-3.6,1.6-4.3,3.4
			C407.9,415.6,408.5,415.8,408.8,415.6L408.8,415.6z"/>
	</g>
</g>
<g>
	<g>
		<path d="M426.5,410.9c-2.2,0.9-4,3.1-4.5,5.6s0.7,4.9,2.7,6.5s4.7,1.6,6.7,0.2c2-1.3,3.4-3.8,2.5-6.3s-4-4.5-6.5-3.1
			c-0.7,0.4-0.4,1.6,0.4,1.6c0.9,0,1.6-0.2,2.5,0.2c0.7,0.4,1.3,0.9,1.8,1.6c0.9,1.6,0.2,3.4-1.1,4.5c-3.4,2.7-7.6-0.7-7.4-4.5
			c0-2.2,1.6-4.5,3.4-5.8C427.2,411.1,426.7,410.7,426.5,410.9L426.5,410.9z"/>
	</g>
</g>
<g>
	<g>
		<path d="M391.3,402.8c3.8-13,6.3-26.2,7-39.9c-0.4,0.2-1.1,0.2-1.6,0.4c3.6,5.6,4.5,12.8,5.8,19.1c1.6,7,3.1,14.1,4.7,21.1
			c0.4-0.2,1.1-0.4,1.6-0.7c-3.1-7.2-10.5-10.3-17.5-13c0,0.4-0.2,1.1-0.2,1.6c6.5-0.9,13.2-2,19.5-3.8c1.1-0.2,0.7-1.8-0.4-1.6
			c-6.3,1.6-12.8,3.1-19.3,4c-0.9,0.2-0.7,1.3,0,1.6c6.3,2.7,13.2,5.8,16.4,12.3c0.4,0.9,1.8,0.2,1.6-0.7
			c-1.6-7.2-3.1-14.6-4.9-21.8c-1.3-6.3-2.2-13.2-6.1-18.8c-0.4-0.7-1.6-0.4-1.6,0.4c-0.7,13.5-2.5,26.7-6.3,39.7
			C390.1,403.1,391,403.5,391.3,402.8L391.3,402.8z"/>
	</g>
</g>
<g>
	<g>
		<path d="M406.1,362.7c0.4,6.3,1.6,12.3,2.7,18.4c1.1,6.3,2.5,12.6,3.8,18.8c0.2,0.4,0.9,0.9,1.3,0.7c1.6-1.1,2.2-2.9,1.8-4.7
			c-0.4-1.1-2-0.7-1.8,0.4c0.2,1.1,0,2-0.9,2.7c0.4,0.2,0.9,0.4,1.3,0.7c-1.3-6.1-2.7-12.3-4-18.4c-1.1-6.1-2-12.3-3.4-18.6
			C407.2,362,406.1,362.2,406.1,362.7L406.1,362.7z"/>
	</g>
</g>
<g>
	<g>
		<path d="M436.4,405c1.8,5.6,4.5,10.8,8,15.5c0.3,0.4,0.9,0,0.6-0.4c-3.5-4.6-6.1-9.8-8-15.3C436.9,404.4,436.2,404.6,436.4,405
			L436.4,405z"/>
	</g>
</g>
<g>
	<g>
		<path d="M448.3,399.8c-1.4,1.5-2.8,3.3-2.5,5.5c0.3,1.9,1.6,3.1,3.5,3.2c1.2,0,2.3-0.3,3.5,0.1c1.2,0.3,2.3,1.1,3.1,2.2
			c1.4,2.1,1,4.9-0.7,6.6c0.2,0,0.4,0,0.5,0c-2.6-2.6-2.1-6.6-1.9-10c0.2-3.2,0.3-6.7-1.9-9.3c-0.3-0.4-0.8,0.2-0.5,0.5
			c2.4,2.8,1.8,6.8,1.6,10.2c-0.2,3.2-0.2,6.6,2.2,9c0.1,0.1,0.4,0.1,0.5,0c2.8-2.9,2.1-7.8-1.6-9.6c-0.8-0.4-1.7-0.6-2.6-0.6
			c-1.4,0-3,0.5-4.1-0.5c-2.2-2-0.2-5.1,1.4-6.7C449.1,400,448.6,399.4,448.3,399.8L448.3,399.8z"/>
	</g>
</g>
</svg>
