<?xml version="1.0" standalone="no"?>
<!DOCTYPE svg PUBLIC "-//W3C//DTD SVG 20010904//EN"
 "http://www.w3.org/TR/2001/REC-SVG-20010904/DTD/svg10.dtd">
<svg version="1.0" xmlns="http://www.w3.org/2000/svg"
 width="2690.000000pt" height="1514.000000pt" viewBox="0 0 2690.000000 1514.000000"
 preserveAspectRatio="xMidYMid meet">

<g transform="translate(0.000000,1514.000000) scale(0.100000,-0.100000)"
fill="#000000" stroke="none">
<path d="M24597 14693 c-4 -3 -7 -17 -7 -30 0 -77 110 -156 150 -108 7 9 11
17 9 18 -2 1 -12 9 -21 16 -15 11 -21 11 -34 1 -13 -11 -19 -9 -41 13 -22 21
-24 29 -14 41 21 25 -19 72 -42 49z"/>
<path d="M24997 14645 c-15 -31 -27 -58 -27 -60 0 -3 14 -5 31 -5 26 0 29 -3
24 -20 -5 -17 -2 -20 20 -20 21 0 26 4 21 17 -4 9 -1 20 6 25 10 8 10 11 1 15
-7 2 -13 11 -13 19 0 8 -7 14 -15 14 -8 0 -15 -7 -15 -15 0 -8 -7 -15 -15 -15
-12 0 -10 10 10 50 18 35 21 50 12 50 -7 0 -25 -25 -40 -55z"/>
<path d="M25100 14685 c0 -13 7 -15 35 -9 42 8 43 3 10 -72 -14 -31 -25 -58
-25 -60 0 -2 11 -4 25 -4 17 0 23 4 19 15 -6 15 1 39 30 108 l16 37 -55 0
c-43 0 -55 -3 -55 -15z"/>
<path d="M25308 14646 c-15 -30 -24 -57 -21 -60 4 -3 19 -6 35 -6 15 0 28 -4
28 -10 0 -5 -4 -10 -10 -10 -5 0 -10 -4 -10 -10 0 -5 12 -10 26 -10 20 0 25 4
20 17 -4 9 -1 20 6 25 10 8 10 11 1 15 -7 2 -13 11 -13 19 0 8 -4 14 -10 14
-5 0 -10 -7 -10 -15 0 -8 -7 -15 -15 -15 -19 0 -19 3 5 50 24 46 24 50 7 50
-7 0 -25 -24 -39 -54z"/>
<path d="M25438 14689 c-22 -12 -24 -41 -3 -33 12 5 15 -4 15 -45 0 -28 -4
-51 -10 -51 -5 0 -10 -4 -10 -10 0 -5 14 -10 30 -10 17 0 30 5 30 10 0 6 -4
10 -10 10 -6 0 -10 30 -10 70 0 72 -3 77 -32 59z"/>
<path d="M25537 14682 c-22 -24 -23 -105 -1 -126 21 -21 57 -20 77 2 22 24 23
105 1 126 -21 21 -57 20 -77 -2z m67 -34 c18 -52 -29 -118 -55 -76 -10 15 -12
69 -3 93 10 25 47 14 58 -17z"/>
<path d="M25738 14689 c-22 -12 -24 -41 -3 -33 12 5 15 -4 15 -45 0 -28 -4
-51 -10 -51 -5 0 -10 -4 -10 -10 0 -5 12 -10 26 -10 20 0 25 4 20 16 -3 9 -6
45 -6 80 0 66 -3 71 -32 53z"/>
<path d="M25838 14646 c-15 -30 -24 -57 -21 -60 4 -3 19 -6 35 -6 15 0 28 -4
28 -10 0 -5 -4 -10 -10 -10 -5 0 -10 -4 -10 -10 0 -5 12 -10 26 -10 20 0 25 4
20 17 -4 9 -1 20 6 25 10 8 10 11 1 15 -7 2 -13 11 -13 19 0 8 -4 14 -10 14
-5 0 -10 -7 -10 -15 0 -8 -7 -15 -15 -15 -19 0 -19 3 5 50 24 46 24 50 7 50
-7 0 -25 -24 -39 -54z"/>
<path d="M26000 14685 c0 -13 7 -15 35 -9 19 3 35 3 35 0 0 -4 -11 -34 -25
-68 -30 -73 -29 -68 -6 -68 12 0 19 7 19 23 0 12 9 44 21 70 12 27 21 53 21
58 0 5 -22 9 -50 9 -38 0 -50 -4 -50 -15z"/>
<path d="M26130 14656 c0 -43 1 -44 33 -42 28 1 32 -2 32 -24 0 -18 -6 -26
-22 -28 -13 -2 -23 1 -23 7 0 6 -4 11 -10 11 -16 0 -11 -27 6 -34 31 -12 54
-6 70 19 15 23 15 27 0 50 -10 16 -26 25 -41 25 -18 0 -25 5 -25 20 0 16 7 20
35 20 19 0 35 5 35 10 0 6 -20 10 -45 10 l-45 0 0 -44z"/>
<path d="M26270 14685 c-7 -8 -10 -25 -7 -37 3 -11 1 -30 -4 -40 -23 -43 49
-92 79 -55 13 16 13 117 -1 135 -13 17 -52 15 -67 -3z m58 -22 c5 -17 -26 -29
-40 -15 -6 6 -7 15 -3 22 9 14 37 9 43 -7z m-3 -73 c0 -29 -32 -41 -41 -16 -9
24 4 48 23 44 12 -2 18 -12 18 -28z"/>
<path d="M24880 14645 c0 -18 -5 -25 -20 -25 -11 0 -20 -4 -20 -10 0 -5 9 -10
20 -10 13 0 20 -7 20 -20 0 -11 5 -20 10 -20 6 0 10 9 10 20 0 13 7 20 20 20
11 0 20 5 20 10 0 6 -9 10 -20 10 -15 0 -20 7 -20 25 0 14 -4 25 -10 25 -5 0
-10 -11 -10 -25z"/>
<path d="M9050 13280 l0 -190 -41 27 c-70 46 -179 42 -244 -9 -94 -74 -86
-267 14 -334 68 -44 163 -41 233 7 34 25 38 24 38 -6 0 -22 4 -25 40 -25 l40
0 0 360 0 360 -40 0 -40 0 0 -190z m-69 -215 c60 -31 86 -113 55 -173 -60
-115 -226 -95 -250 31 -21 110 94 194 195 142z"/>
<path d="M11550 13278 c0 -181 -1 -190 -17 -176 -79 69 -208 64 -276 -11 -96
-106 -66 -276 58 -332 70 -32 157 -19 212 33 l23 21 0 -31 c0 -31 1 -32 45
-32 l45 0 0 360 0 360 -45 0 -45 0 0 -192z m-56 -217 c40 -27 55 -57 56 -112
1 -126 -138 -180 -225 -89 -26 28 -30 38 -30 91 0 57 2 63 37 95 32 29 45 34
85 34 31 0 59 -7 77 -19z"/>
<path d="M14300 13110 l0 -360 45 0 45 0 0 360 0 360 -45 0 -45 0 0 -360z"/>
<path d="M16190 13278 c0 -181 -1 -190 -17 -176 -79 69 -208 64 -276 -11 -96
-106 -66 -276 58 -332 70 -32 157 -19 212 33 l23 21 0 -31 c0 -31 1 -32 45
-32 l45 0 0 360 0 360 -45 0 -45 0 0 -192z m-56 -217 c40 -27 55 -57 56 -112
1 -126 -138 -180 -225 -89 -26 28 -30 38 -30 91 0 57 2 63 37 95 32 29 45 34
85 34 31 0 59 -7 77 -19z"/>
<path d="M17480 13110 l0 -360 40 0 c38 0 40 1 40 32 l0 31 23 -21 c97 -92
265 -53 313 73 24 64 16 151 -20 205 -55 84 -186 106 -275 47 l-41 -27 0 190
0 190 -40 0 -40 0 0 -360z m280 -45 c80 -41 79 -193 -1 -236 -13 -6 -39 -12
-58 -13 -85 -2 -141 53 -141 139 0 42 5 52 39 86 34 34 44 39 85 39 26 0 60
-7 76 -15z"/>
<path d="M18540 13110 l0 -360 45 0 45 0 0 360 0 360 -45 0 -45 0 0 -360z"/>
<path d="M19624 13422 c-44 -21 -104 -86 -104 -113 0 -9 14 -22 32 -30 27 -11
32 -11 36 2 3 7 20 29 38 47 25 25 40 32 72 32 75 0 129 -74 103 -142 -5 -14
-37 -52 -71 -84 -64 -61 -80 -96 -80 -171 l0 -43 45 0 45 0 0 51 c0 48 2 53
69 122 76 82 97 126 87 194 -8 57 -29 93 -73 123 -48 33 -141 38 -199 12z"/>
<path d="M7263 13408 c70 -173 280 -665 286 -671 4 -4 73 148 153 338 l146
345 -53 0 -52 0 -88 -227 c-48 -126 -90 -233 -94 -240 -3 -6 -49 96 -101 228
l-95 239 -54 0 c-39 0 -52 -3 -48 -12z"/>
<path d="M12755 13338 c-31 -16 -45 -39 -45 -71 0 -40 14 -62 49 -77 57 -23
121 14 121 69 0 43 -9 60 -41 76 -33 18 -57 18 -84 3z m70 -72 c0 -36 -26 -56
-49 -37 -16 14 -22 52 -9 65 4 4 19 6 33 4 20 -2 25 -8 25 -32z"/>
<path d="M16435 13300 c-37 -40 19 -95 64 -63 23 16 28 52 9 71 -18 18 -53 14
-73 -8z"/>
<path d="M18785 13304 c-37 -37 16 -99 60 -70 24 16 31 51 15 72 -16 19 -55
18 -75 -2z"/>
<path d="M8575 13134 c-16 -8 -45 -29 -62 -47 l-33 -31 0 26 c0 46 -10 58 -46
58 l-34 0 0 -195 0 -195 40 0 40 0 0 101 c0 141 29 194 118 214 29 6 32 10 32
46 0 44 -9 47 -55 23z"/>
<path d="M9375 13132 c-134 -64 -166 -231 -64 -333 61 -61 173 -75 256 -31
l32 17 -20 32 c-20 31 -22 32 -42 18 -12 -9 -44 -15 -74 -15 -40 0 -58 5 -80
24 -15 13 -25 27 -22 31 4 3 71 29 150 57 79 28 146 52 148 54 12 10 -53 112
-85 134 -49 33 -142 39 -199 12z m157 -81 c21 -19 29 -33 23 -39 -5 -5 -56
-25 -112 -45 l-103 -36 0 40 c0 33 6 47 34 75 29 29 41 34 80 34 36 0 52 -6
78 -29z"/>
<path d="M9939 13130 c-20 -11 -48 -33 -62 -50 l-26 -30 -3 42 c-3 42 -4 43
-40 46 l-38 3 0 -195 0 -196 45 0 45 0 0 116 0 116 39 39 c21 22 48 39 59 39
29 0 52 27 52 61 0 35 -18 37 -71 9z"/>
<path d="M10195 13131 c-172 -80 -163 -320 14 -380 58 -19 142 -9 185 22 17
13 17 15 2 45 -15 30 -17 30 -43 16 -16 -7 -49 -14 -75 -14 -38 0 -54 6 -79
28 l-31 27 154 54 c84 30 154 55 156 56 8 7 -32 83 -56 109 -54 57 -150 73
-227 37z m158 -82 c25 -26 28 -33 15 -40 -27 -15 -211 -79 -215 -75 -13 13 14
85 43 114 27 27 39 32 79 32 39 0 52 -5 78 -31z"/>
<path d="M10759 13130 c-20 -11 -48 -33 -62 -50 l-26 -30 -3 42 c-3 42 -4 43
-40 46 l-38 3 0 -195 0 -196 40 0 40 0 0 98 c0 147 27 189 146 227 1 0 4 17 8
38 6 32 4 37 -11 37 -10 -1 -34 -10 -54 -20z"/>
<path d="M12675 13135 c-83 -45 -121 -118 -112 -216 9 -105 71 -167 177 -177
36 -3 56 2 103 27 l57 30 0 -25 c0 -22 4 -24 45 -24 l45 0 -2 193 -3 192 -37
3 c-35 3 -38 1 -38 -22 0 -32 -3 -32 -47 1 -45 34 -141 43 -188 18z m165 -70
c44 -23 60 -53 60 -113 0 -66 -19 -105 -64 -126 -94 -44 -186 19 -186 128 0
43 4 53 39 87 32 33 45 39 80 39 23 0 55 -7 71 -15z"/>
<path d="M13484 13136 c-43 -19 -64 -53 -64 -102 0 -57 28 -88 100 -115 74
-27 97 -50 82 -83 -16 -36 -66 -41 -124 -13 l-48 24 -15 -23 c-20 -31 -20 -31
24 -54 53 -26 109 -34 157 -21 57 15 86 50 92 110 4 46 2 53 -25 79 -17 15
-56 36 -87 45 -42 14 -60 25 -69 44 -10 22 -8 28 12 44 28 23 50 24 98 4 33
-14 37 -14 49 2 19 25 17 30 -11 49 -34 22 -132 28 -171 10z"/>
<path d="M13905 13132 c-134 -64 -166 -231 -64 -333 61 -61 173 -75 256 -31
l32 17 -20 32 c-20 31 -22 32 -42 18 -12 -9 -44 -15 -74 -15 -40 0 -58 5 -80
24 -15 13 -25 27 -22 31 4 3 71 29 150 57 79 28 146 52 148 54 12 10 -53 112
-85 134 -49 33 -142 39 -199 12z m157 -81 c21 -19 29 -33 23 -39 -5 -5 -56
-25 -112 -45 l-103 -36 0 40 c0 33 6 47 34 75 29 29 41 34 80 34 36 0 52 -6
78 -29z"/>
<path d="M14625 13137 c-127 -59 -162 -224 -69 -327 70 -78 176 -90 262 -30
l42 30 0 -36 c0 -47 -23 -99 -52 -117 -55 -34 -138 -28 -193 14 l-27 22 -26
-26 c-22 -23 -24 -28 -11 -43 8 -9 37 -28 64 -40 109 -51 248 -18 300 70 25
42 25 46 25 265 l0 222 -37 -3 c-30 -2 -39 -7 -41 -25 l-3 -22 -41 26 c-48 32
-144 42 -193 20z m176 -80 c41 -28 59 -60 59 -110 0 -56 -25 -96 -73 -118 -53
-24 -83 -24 -126 -1 -63 34 -89 119 -56 183 35 67 131 90 196 46z"/>
<path d="M15185 13132 c-134 -64 -166 -231 -64 -333 61 -61 173 -75 256 -31
l32 17 -20 32 c-20 31 -22 32 -42 18 -12 -9 -44 -15 -74 -15 -40 0 -58 5 -80
24 -15 13 -25 27 -22 31 4 3 71 29 150 57 79 28 146 52 148 54 12 10 -53 112
-85 134 -49 33 -142 39 -199 12z m157 -81 c21 -19 29 -33 23 -39 -5 -5 -56
-25 -112 -45 l-103 -36 0 40 c0 33 6 47 34 75 29 29 41 34 80 34 36 0 52 -6
78 -29z"/>
<path d="M16824 13131 c-23 -10 -49 -29 -58 -42 -16 -23 -16 -23 -16 -2 0 41
-11 53 -46 53 l-34 0 0 -195 0 -195 39 0 39 0 4 118 c4 133 18 170 76 198 39
18 88 11 102 -16 6 -10 10 -82 10 -159 l0 -141 45 0 45 0 0 155 c0 120 -4 163
-15 185 -30 59 -113 76 -191 41z"/>
<path d="M18110 13128 c-24 -13 -58 -40 -74 -61 -29 -36 -31 -44 -31 -122 0
-78 2 -85 31 -122 43 -52 84 -74 153 -80 132 -12 231 79 231 211 0 48 -28 112
-61 143 -62 56 -172 70 -249 31z m181 -87 c35 -34 39 -44 39 -87 0 -61 -16
-92 -59 -121 -62 -42 -136 -20 -171 51 -24 51 -25 77 -3 123 21 44 67 73 117
73 31 0 45 -7 77 -39z"/>
<path d="M19089 13127 c-97 -52 -137 -173 -89 -272 56 -115 204 -149 300 -69
l30 26 0 -55 c0 -65 -26 -100 -89 -117 -48 -13 -81 -6 -139 27 l-42 24 -24
-28 -24 -28 45 -32 c51 -36 109 -49 185 -40 61 8 101 30 142 80 l31 39 3 229
3 229 -40 0 c-37 0 -41 -2 -41 -25 0 -29 -12 -32 -31 -8 -40 47 -149 57 -220
20z m177 -63 c50 -24 64 -50 64 -117 0 -53 -3 -62 -33 -92 -89 -89 -227 -31
-227 96 0 101 100 159 196 113z"/>
<path d="M7890 12980 c0 -102 4 -168 12 -185 16 -35 57 -55 113 -55 51 0 77
10 116 47 l26 24 6 -30 c6 -28 10 -31 47 -31 l40 0 -2 193 -3 192 -42 3 -43 3
0 -108 c0 -119 -17 -176 -61 -207 -36 -25 -84 -21 -108 10 -19 24 -21 40 -21
165 l0 139 -40 0 -40 0 0 -160z"/>
<path d="M11790 12974 l0 -166 34 -34 c30 -30 40 -34 88 -34 54 0 109 24 135
59 10 14 13 12 19 -16 6 -30 10 -33 45 -33 l39 0 -2 193 -3 192 -42 3 -43 3 0
-111 c0 -71 -5 -122 -14 -144 -29 -69 -112 -99 -152 -55 -16 18 -19 40 -22
165 l-4 144 -39 0 -39 0 0 -166z"/>
<path d="M16430 12945 l0 -195 40 0 40 0 0 195 0 195 -40 0 -40 0 0 -195z"/>
<path d="M18780 12945 l0 -195 40 0 40 0 0 195 0 195 -40 0 -40 0 0 -195z"/>
<path d="M19648 12826 c-14 -31 -5 -53 26 -68 49 -22 101 43 64 80 -7 7 -27
12 -45 12 -26 0 -36 -6 -45 -24z"/>
<path d="M21150 9870 l0 -1980 -8940 0 c-8933 0 -8940 0 -8940 -20 0 -20 7
-20 8960 -20 l8960 0 0 2000 c0 1993 0 2000 -20 2000 -20 0 -20 -7 -20 -1980z"/>
<path d="M11590 10948 c0 -79 -3 -99 -12 -90 -7 7 -35 12 -64 12 -62 0 -97
-23 -114 -76 -35 -105 57 -201 154 -160 20 8 36 11 36 5 0 -5 18 -9 40 -9 l40
0 0 210 0 210 -40 0 -40 0 0 -102z m-12 -150 c15 -13 16 -80 0 -96 -17 -17
-68 -15 -90 5 -18 16 -24 59 -10 79 21 32 68 37 100 12z"/>
<path d="M13750 10948 c0 -79 -3 -99 -12 -90 -7 7 -36 12 -64 12 -40 0 -59 -5
-79 -22 -46 -41 -51 -142 -9 -189 29 -32 84 -43 127 -25 20 8 37 11 37 5 0 -5
18 -9 40 -9 l40 0 0 210 0 210 -40 0 -40 0 0 -102z m-22 -144 c16 -11 22 -25
22 -53 0 -46 -14 -61 -56 -61 -61 0 -85 72 -38 109 32 25 43 26 72 5z"/>
<path d="M14600 10840 l0 -210 40 0 c22 0 40 4 40 9 0 5 14 3 30 -6 50 -25
125 2 148 53 7 14 12 48 12 75 0 42 -5 55 -29 80 -24 24 -38 29 -76 29 -25 0
-55 -5 -66 -10 -18 -10 -19 -6 -19 90 l0 100 -40 0 -40 0 0 -210z m174 -41
c47 -37 23 -109 -38 -109 -42 0 -56 15 -56 61 0 28 6 42 22 53 29 21 40 20 72
-5z"/>
<path d="M15260 10840 l0 -210 40 0 40 0 0 210 0 210 -40 0 -40 0 0 -210z"/>
<path d="M8520 10825 l0 -195 40 0 40 0 0 75 0 74 73 3 72 3 3 38 3 37 -75 0
-76 0 0 45 0 45 85 0 85 0 0 35 0 35 -125 0 -125 0 0 -195z"/>
<path d="M8852 10968 c-28 -28 1 -64 44 -54 20 5 25 12 22 34 -2 20 -9 28 -28
30 -14 2 -31 -3 -38 -10z"/>
<path d="M11767 10974 c-4 -4 -7 -18 -7 -30 0 -31 44 -44 68 -20 13 13 14 20
6 34 -11 18 -55 28 -67 16z"/>
<path d="M13923 10964 c-9 -24 10 -49 37 -49 31 0 48 28 31 49 -17 21 -60 21
-68 0z"/>
<path d="M15433 10964 c-9 -24 10 -49 37 -49 31 0 48 28 31 49 -17 21 -60 21
-68 0z"/>
<path d="M10207 10964 c-4 -4 -7 -29 -7 -56 0 -36 -4 -48 -15 -48 -9 0 -15 -9
-15 -25 0 -16 6 -25 15 -25 12 0 15 -17 15 -90 l0 -90 40 0 40 0 0 90 c0 89 0
90 25 90 20 0 25 5 25 25 0 20 -5 25 -24 25 -23 0 -25 4 -28 53 -3 50 -4 52
-33 55 -17 2 -34 0 -38 -4z"/>
<path d="M9102 10848 c-19 -19 -22 -20 -22 -5 0 13 -9 17 -35 17 l-35 0 0
-115 0 -115 34 0 33 0 5 70 c6 77 27 113 62 108 19 -3 21 -11 24 -90 l3 -88
39 0 40 0 0 100 c0 87 -3 103 -20 120 -29 29 -98 27 -128 -2z"/>
<path d="M9432 10848 c-19 -19 -22 -20 -22 -5 0 13 -9 17 -35 17 l-35 0 0
-115 0 -115 34 0 33 0 5 70 c6 77 27 113 62 108 19 -3 21 -11 24 -90 l3 -88
39 0 40 0 0 100 c0 87 -3 103 -20 120 -29 29 -98 27 -128 -2z"/>
<path d="M10922 10850 c-90 -55 -72 -193 29 -220 42 -12 119 2 119 21 0 28
-25 47 -56 42 -17 -3 -39 -1 -48 4 -12 7 5 16 69 37 47 15 85 32 85 37 0 20
-30 68 -52 83 -32 23 -106 20 -146 -4z m99 -48 l22 -19 -48 -16 c-59 -21 -55
-21 -55 2 0 18 34 51 51 51 4 0 17 -8 30 -18z"/>
<path d="M11291 10844 c-30 -25 -31 -25 -31 -5 0 17 -6 21 -35 21 l-35 0 0
-115 0 -115 35 0 35 0 0 50 c0 66 22 109 60 117 26 5 30 10 30 39 0 42 -17 44
-59 8z"/>
<path d="M11959 10847 c-89 -60 -59 -202 46 -221 38 -8 105 9 105 25 0 33 -20
47 -59 42 -70 -10 -54 14 29 42 44 15 80 31 80 36 0 20 -30 68 -52 83 -34 24
-108 20 -149 -7z m107 -44 c16 -16 15 -18 -12 -29 -65 -26 -74 -27 -74 -5 0
20 34 51 57 51 6 0 19 -8 29 -17z"/>
<path d="M12326 10849 c-21 -17 -26 -18 -26 -5 0 12 -10 16 -35 16 l-35 0 0
-115 0 -115 40 0 40 0 0 73 c0 76 15 107 51 107 30 0 39 -24 39 -102 l0 -78
35 0 35 0 0 100 c0 87 -3 103 -20 120 -27 27 -89 27 -124 -1z"/>
<path d="M12782 10855 c-80 -58 -64 -198 26 -225 31 -10 45 -9 75 4 20 8 37
11 37 5 0 -5 18 -9 40 -9 l40 0 0 116 0 115 -47 0 c-27 -1 -70 2 -98 5 -37 4
-56 1 -73 -11z m126 -57 c7 -7 12 -29 12 -50 0 -29 -6 -41 -24 -54 -22 -13
-29 -14 -53 -2 -22 10 -29 21 -31 51 -2 21 2 45 9 53 14 17 70 19 87 2z"/>
<path d="M14180 10853 c-17 -12 -25 -13 -28 -5 -2 7 -19 12 -38 12 l-34 0 0
-115 0 -115 40 0 40 0 0 68 c0 81 18 115 58 110 27 -3 27 -4 30 -90 l3 -88 34
0 35 0 0 103 c0 88 -3 106 -18 120 -24 22 -91 22 -122 0z"/>
<path d="M14984 10851 c-39 -24 -58 -70 -51 -122 14 -108 159 -144 231 -58 20
24 26 41 26 81 0 44 -4 54 -34 84 -30 30 -40 34 -87 34 -35 0 -65 -7 -85 -19z
m122 -66 c20 -31 12 -69 -20 -91 -57 -37 -107 46 -63 104 17 22 65 14 83 -13z"/>
<path d="M15615 10837 c-30 -30 -35 -42 -35 -82 0 -53 22 -97 58 -116 36 -20
97 -17 121 5 21 19 21 19 21 -6 0 -50 -71 -77 -116 -44 -17 13 -22 12 -41 -6
-13 -12 -23 -25 -23 -29 0 -4 20 -17 45 -29 62 -30 123 -21 173 25 l36 33 4
136 4 137 -48 0 c-27 0 -75 2 -107 5 -55 6 -58 5 -92 -29z m149 -40 c13 -9 17
-23 14 -52 -2 -32 -8 -42 -30 -53 -59 -28 -120 38 -84 92 19 29 69 36 100 13z"/>
<path d="M8840 10745 l0 -115 40 0 40 0 0 115 0 115 -40 0 -40 0 0 -115z"/>
<path d="M9860 10756 c0 -97 2 -106 22 -120 31 -22 80 -20 112 5 21 17 26 18
26 5 0 -12 10 -16 35 -16 l35 0 0 115 0 115 -34 0 -33 0 -5 -71 c-4 -55 -10
-76 -27 -92 -17 -17 -25 -19 -39 -11 -13 9 -18 28 -20 93 l-3 81 -34 0 -35 0
0 -104z"/>
<path d="M10572 10838 c8 -13 39 -65 68 -115 30 -51 57 -93 60 -93 3 0 16 19
27 43 12 23 40 75 63 115 l41 72 -42 0 c-39 0 -41 -2 -62 -50 -11 -27 -24 -50
-27 -50 -3 0 -16 23 -27 50 -21 50 -21 50 -68 50 -47 0 -47 0 -33 -22z"/>
<path d="M11760 10745 l0 -115 35 0 35 0 0 115 0 115 -35 0 -35 0 0 -115z"/>
<path d="M13071 10838 c26 -49 120 -208 124 -208 4 0 111 189 121 214 5 13 -1
16 -34 16 -38 0 -40 -2 -62 -52 l-22 -53 -26 53 c-25 51 -27 52 -69 52 -42 0
-43 -1 -32 -22z"/>
<path d="M13920 10745 l0 -115 35 0 35 0 0 115 0 115 -35 0 -35 0 0 -115z"/>
<path d="M15430 10745 l0 -115 35 0 35 0 0 115 0 115 -35 0 -35 0 0 -115z"/>
<path d="M2363 10293 c4 -186 7 -562 7 -835 l0 -498 55 0 c42 0 55 3 55 15 0
8 -8 15 -18 15 -17 0 -19 13 -25 152 -4 83 -7 452 -7 820 l0 668 -37 0 -36 0
6 -337z"/>
<path d="M3172 10308 l3 -323 23 -3 22 -3 0 325 0 326 -25 0 -25 0 2 -322z"/>
<path d="M3370 9800 l0 -830 50 0 c38 0 50 4 50 15 0 8 -7 15 -15 15 -13 0
-15 97 -15 815 l0 815 -35 0 -35 0 0 -830z"/>
<path d="M3530 10535 c0 -13 37 -15 275 -15 238 0 275 2 275 15 0 13 -37 15
-275 15 -238 0 -275 -2 -275 -15z"/>
<path d="M2520 9895 c0 -13 43 -15 325 -15 l325 0 0 -455 0 -455 55 0 c42 0
55 3 55 15 0 10 -10 15 -30 15 l-30 0 0 455 0 455 -350 0 c-304 0 -350 -2
-350 -15z"/>
<path d="M3530 9880 c0 -20 4 -20 273 -18 234 3 272 5 272 18 0 13 -38 15
-272 18 -269 2 -273 2 -273 -18z"/>
<path d="M8680 9610 c0 -7 1175 -10 3505 -10 2330 0 3505 3 3505 10 0 7 -1175
10 -3505 10 -2330 0 -3505 -3 -3505 -10z"/>
<path d="M12300 8880 c0 -60 4 -100 10 -100 6 0 10 14 10 32 l0 32 33 -32 c45
-44 70 -42 28 2 l-33 34 27 36 c34 45 22 47 -22 4 l-33 -32 0 62 c0 35 -4 62
-10 62 -6 0 -10 -40 -10 -100z"/>
<path d="M11992 8954 c-35 -24 -28 -51 23 -82 32 -19 44 -33 42 -47 -2 -17 -9
-20 -44 -19 -48 1 -57 -12 -17 -22 45 -11 79 7 82 43 3 28 -1 34 -36 52 -22
11 -42 27 -45 35 -9 22 19 39 53 34 20 -3 30 0 30 9 0 18 -60 17 -88 -3z"/>
<path d="M12156 8961 c-4 -5 -2 -12 3 -15 5 -4 12 -2 15 3 4 5 2 12 -3 15 -5
4 -12 2 -15 -3z"/>
<path d="M12207 8964 c-8 -8 1 -24 14 -24 5 0 9 7 9 15 0 15 -12 20 -23 9z"/>
<path d="M12147 8907 c-10 -6 -20 -28 -23 -48 -11 -64 50 -101 104 -63 28 20
31 83 4 107 -22 20 -61 22 -85 4z m71 -19 c7 -7 12 -24 12 -38 0 -52 -61 -71
-82 -25 -23 51 32 101 70 63z"/>
<path d="M6490 3690 c0 -91 -8 -118 -25 -90 -9 15 -92 12 -124 -4 -34 -18 -51
-54 -51 -109 0 -92 75 -146 155 -113 26 11 41 13 43 6 2 -5 19 -10 38 -10 l34
0 0 210 0 210 -35 0 -35 0 0 -100z m-12 -157 c32 -43 1 -103 -54 -103 -62 0
-86 72 -37 110 30 24 69 20 91 -7z"/>
<path d="M7579 3775 c-32 -17 -49 -61 -49 -126 0 -42 -3 -49 -20 -49 -16 0
-20 -7 -20 -30 0 -23 4 -30 20 -30 18 0 20 -7 20 -85 l0 -85 35 0 34 0 3 83 3
82 38 3 c33 3 37 6 37 32 0 26 -4 29 -37 32 l-38 3 0 53 c1 56 15 76 47 68 10
-2 24 6 33 20 15 23 14 25 -10 34 -36 14 -65 12 -96 -5z"/>
<path d="M10020 3580 l0 -210 35 0 c19 0 35 4 35 9 0 5 17 3 38 -5 31 -13 43
-13 76 -2 56 19 81 57 81 125 0 49 -3 58 -33 84 -26 23 -42 29 -78 29 -25 0
-54 -5 -65 -10 -18 -10 -19 -6 -19 90 l0 100 -35 0 -35 0 0 -210z m168 -36
c26 -18 30 -74 6 -98 -19 -20 -78 -21 -93 -2 -7 8 -11 32 -9 53 2 28 9 41 28
50 33 16 41 16 68 -3z"/>
<path d="M10680 3580 l0 -210 35 0 35 0 0 210 0 210 -35 0 -35 0 0 -210z"/>
<path d="M11920 3580 l0 -210 35 0 35 0 0 210 0 210 -35 0 -35 0 0 -210z"/>
<path d="M15462 3753 c-18 -9 -40 -29 -48 -44 -13 -27 -13 -29 13 -42 25 -14
28 -13 46 9 20 26 46 31 65 12 21 -21 13 -45 -28 -93 -32 -37 -40 -54 -40 -86
0 -38 1 -39 35 -39 30 0 35 3 35 24 0 13 18 47 40 75 22 28 43 65 46 81 18 88
-76 147 -164 103z"/>
<path d="M5040 3565 l0 -195 40 0 40 0 0 80 0 80 90 0 90 0 0 -80 0 -80 35 0
35 0 0 195 0 195 -35 0 -34 0 -3 -77 -3 -78 -87 -3 -88 -3 0 81 0 80 -40 0
-40 0 0 -195z"/>
<path d="M10851 3701 c-8 -15 -7 -23 5 -35 29 -29 68 -13 62 25 -4 32 -52 39
-67 10z"/>
<path d="M13211 3701 c-8 -15 -7 -23 5 -35 29 -29 68 -13 62 25 -4 32 -52 39
-67 10z"/>
<path d="M13000 3655 c0 -48 -2 -55 -20 -55 -15 0 -20 -7 -20 -25 0 -18 5 -25
20 -25 19 0 20 -7 20 -90 l0 -90 35 0 34 0 3 88 c3 87 3 87 31 90 21 3 27 9
27 27 0 18 -6 24 -27 27 -26 3 -28 7 -31 56 l-3 52 -35 0 -34 0 0 -55z"/>
<path d="M14597 3703 c-4 -3 -7 -28 -7 -55 0 -41 -3 -48 -20 -48 -15 0 -20 -7
-20 -25 0 -18 5 -25 20 -25 19 0 20 -7 20 -90 l0 -90 35 0 34 0 3 88 c3 87 3
87 31 90 21 3 27 9 27 27 0 18 -6 24 -27 27 -26 3 -28 7 -31 56 -3 50 -4 52
-31 52 -15 0 -31 -3 -34 -7z"/>
<path d="M5804 3591 c-39 -24 -58 -70 -51 -122 10 -79 88 -123 170 -97 100 32
118 176 27 223 -40 21 -108 19 -146 -4z m122 -66 c21 -32 12 -69 -21 -91 -23
-15 -27 -15 -50 0 -53 35 -36 116 25 116 20 0 35 -8 46 -25z"/>
<path d="M6198 3594 c-16 -8 -28 -19 -28 -24 0 -6 -4 -10 -10 -10 -5 0 -10 9
-10 20 0 16 -7 20 -35 20 l-35 0 0 -115 0 -115 40 0 40 0 0 63 c0 53 4 67 23
85 13 12 31 22 40 22 13 0 17 9 17 35 0 39 -3 41 -42 19z"/>
<path d="M6672 3580 c-69 -68 -45 -181 45 -211 28 -9 40 -8 73 9 31 15 40 16
40 6 0 -9 12 -14 35 -14 l35 0 0 115 0 115 -35 0 c-19 0 -35 -5 -35 -11 0 -5
-10 -3 -22 5 -12 9 -41 16 -64 16 -34 0 -49 -6 -72 -30z m142 -46 c9 -8 16
-28 16 -43 0 -41 -22 -64 -60 -64 -38 0 -60 23 -60 64 0 36 24 59 60 59 16 0
36 -7 44 -16z"/>
<path d="M7086 3589 c-21 -17 -26 -18 -26 -5 0 12 -10 16 -35 16 l-35 0 0
-115 0 -115 34 0 33 0 5 70 c6 73 25 110 58 110 31 0 40 -22 40 -102 l0 -78
35 0 35 0 0 100 c0 87 -3 103 -20 120 -27 27 -89 27 -124 -1z"/>
<path d="M8176 3589 c-21 -17 -26 -18 -26 -5 0 12 -10 16 -35 16 l-35 0 0
-115 0 -115 35 0 35 0 0 54 c0 71 16 115 45 122 39 10 45 -2 45 -92 l0 -84 40
0 40 0 0 98 c0 90 -2 100 -23 120 -30 28 -85 29 -121 1z"/>
<path d="M8448 3593 c-38 -24 -62 -77 -54 -122 8 -50 36 -84 83 -100 37 -13
44 -13 82 6 37 18 41 19 41 4 0 -9 -7 -27 -16 -39 -18 -26 -78 -30 -111 -7
-19 13 -22 13 -37 -10 -9 -13 -16 -27 -16 -30 0 -11 84 -45 110 -45 42 0 107
36 124 69 12 23 16 61 16 156 l0 126 -47 0 c-27 -1 -70 1 -98 4 -37 4 -57 1
-77 -12z m134 -60 c22 -20 24 -66 3 -87 -53 -53 -142 -1 -115 68 5 13 15 26
22 29 27 11 72 6 90 -10z"/>
<path d="M8802 3590 c-91 -56 -74 -193 29 -220 28 -8 51 -8 79 0 45 12 44 10
29 43 -10 22 -16 24 -54 20 -77 -9 -61 15 30 42 47 14 85 29 85 32 0 3 -7 20
-16 39 -30 63 -117 84 -182 44z m102 -49 c16 -18 15 -19 -30 -35 -62 -21 -67
-20 -59 7 14 46 59 61 89 28z"/>
<path d="M9172 3585 c-29 -24 -30 -24 -35 -5 -4 15 -14 20 -36 20 l-31 0 0
-115 0 -115 35 0 35 0 0 60 c0 51 4 65 25 85 13 14 31 25 38 25 16 0 27 21 27
51 0 26 -23 24 -58 -6z"/>
<path d="M9332 3590 c-91 -56 -74 -193 29 -220 28 -8 51 -8 79 0 45 12 44 10
29 43 -10 22 -16 24 -54 20 -77 -9 -61 15 30 42 47 14 85 29 85 32 0 3 -7 20
-16 39 -30 63 -117 84 -182 44z m102 -49 c16 -18 15 -19 -30 -35 -62 -21 -67
-20 -59 7 14 46 59 61 89 28z"/>
<path d="M9702 3585 c-29 -24 -30 -24 -35 -5 -4 15 -14 20 -36 20 l-31 0 0
-115 0 -115 35 0 35 0 0 60 c0 51 4 65 25 85 13 14 31 25 38 25 16 0 27 21 27
51 0 26 -23 24 -58 -6z"/>
<path d="M10411 3597 c-85 -43 -84 -182 1 -218 44 -18 108 -16 140 5 75 49 70
179 -8 214 -33 16 -103 15 -133 -1z m107 -59 c21 -21 15 -85 -10 -102 -30 -21
-44 -20 -68 4 -24 24 -26 72 -4 94 18 19 65 21 82 4z"/>
<path d="M11045 3588 c-61 -48 -68 -134 -14 -187 38 -39 83 -46 131 -22 l38
18 0 -22 c0 -46 -72 -73 -120 -43 -15 10 -23 9 -39 -6 -30 -27 -27 -34 22 -56
53 -24 81 -25 134 -1 63 29 73 57 73 207 l0 127 -45 -5 c-25 -3 -48 -2 -51 3
-11 19 -100 10 -129 -13z m137 -55 c43 -38 13 -107 -47 -107 -25 0 -42 6 -51
19 -19 25 -18 70 2 89 20 21 73 20 96 -1z"/>
<path d="M11382 3593 c-50 -42 -28 -110 43 -133 41 -14 47 -40 9 -40 -14 0
-33 4 -43 10 -14 7 -23 5 -36 -10 -16 -18 -15 -19 14 -34 36 -19 109 -20 133
-2 27 20 39 62 26 90 -9 22 -26 32 -80 50 -10 3 -18 13 -18 22 0 14 7 16 40
11 33 -4 42 -2 50 14 8 14 6 20 -9 29 -31 16 -106 12 -129 -7z"/>
<path d="M11659 3595 c-29 -16 -53 -48 -61 -83 -8 -30 9 -89 32 -112 28 -28
88 -42 133 -29 40 11 44 18 25 48 -9 15 -19 18 -44 14 -17 -3 -39 -1 -49 4
-13 8 1 16 69 37 47 15 86 31 86 37 0 20 -30 68 -52 83 -28 20 -104 20 -139 1z
m92 -45 c30 -16 23 -27 -28 -44 -57 -20 -53 -20 -53 3 0 19 34 51 53 51 5 0
17 -5 28 -10z"/>
<path d="M12113 3582 c-37 -33 -48 -68 -40 -119 14 -84 118 -128 180 -75 16
14 17 13 17 -16 0 -49 -69 -71 -117 -37 -18 13 -22 12 -39 -6 -24 -27 -10 -50
42 -67 55 -18 109 -7 153 33 l36 33 3 137 4 136 -49 0 c-26 -1 -73 2 -104 5
-51 5 -57 3 -86 -24z m146 -46 c7 -8 11 -32 9 -53 -2 -31 -9 -41 -32 -52 -26
-12 -33 -12 -55 0 -64 36 -44 119 28 119 21 0 44 -6 50 -14z"/>
<path d="M12464 3577 c-101 -92 -9 -243 125 -207 45 12 48 17 27 45 -10 15
-24 19 -54 17 -72 -6 -56 16 32 43 84 27 84 27 75 53 -21 59 -56 82 -123 82
-38 0 -53 -6 -82 -33z m107 -27 c30 -16 23 -27 -28 -44 -56 -19 -53 -19 -53
-1 0 17 35 55 51 55 6 0 19 -5 30 -10z"/>
<path d="M12852 3585 c-36 -30 -42 -31 -42 -5 0 16 -7 20 -35 20 l-35 0 0
-115 0 -115 40 0 40 0 0 63 c0 53 4 67 23 85 13 12 31 22 40 22 13 0 17 9 17
35 0 42 -9 43 -48 10z"/>
<path d="M13412 3590 c-94 -57 -66 -205 42 -223 31 -5 106 8 106 18 0 2 -5 15
-11 28 -10 22 -16 24 -54 20 -77 -9 -60 14 30 42 47 14 85 28 85 31 0 19 -32
74 -51 88 -33 23 -106 21 -147 -4z m104 -47 c16 -16 15 -18 -13 -30 -17 -6
-42 -15 -56 -18 -22 -6 -25 -4 -20 14 6 23 39 51 60 51 6 0 19 -8 29 -17z"/>
<path d="M13776 3589 c-21 -17 -26 -18 -26 -5 0 12 -10 16 -35 16 l-35 0 0
-115 0 -115 35 0 35 0 0 54 c0 71 16 115 45 122 39 10 45 -2 45 -92 l0 -84 40
0 40 0 0 98 c0 90 -2 100 -23 120 -30 28 -85 29 -121 1z"/>
<path d="M14052 3590 c-91 -56 -74 -193 29 -220 28 -8 51 -8 79 0 45 12 44 10
29 43 -10 22 -16 24 -54 20 -77 -9 -61 15 30 42 47 14 85 29 85 32 0 3 -7 20
-16 39 -30 63 -117 84 -182 44z m102 -49 c16 -18 15 -19 -30 -35 -62 -21 -67
-20 -59 7 14 46 59 61 89 28z"/>
<path d="M14335 3585 c-45 -45 -29 -94 40 -120 54 -21 60 -45 12 -45 -18 0
-39 6 -46 13 -10 10 -15 8 -27 -8 -14 -18 -13 -22 7 -37 31 -26 109 -24 143 3
49 39 29 108 -36 124 -37 9 -56 33 -34 41 9 4 29 4 44 1 21 -4 31 -1 40 13 16
26 -10 40 -73 40 -35 0 -51 -6 -70 -25z"/>
<path d="M14839 3595 c-29 -16 -53 -48 -61 -83 -8 -30 9 -89 32 -112 28 -28
88 -42 133 -29 40 11 44 18 25 48 -9 15 -19 18 -44 14 -17 -3 -39 -1 -49 4
-13 8 1 16 69 37 47 15 86 31 86 37 0 20 -30 68 -52 83 -28 20 -104 20 -139 1z
m92 -45 c30 -16 23 -27 -28 -44 -57 -20 -53 -20 -53 3 0 19 34 51 53 51 5 0
17 -5 28 -10z"/>
<path d="M15196 3589 c-21 -17 -26 -18 -26 -5 0 12 -10 16 -35 16 l-35 0 0
-115 0 -115 34 0 33 0 5 70 c6 73 25 110 58 110 31 0 40 -22 40 -102 l0 -78
35 0 35 0 0 100 c0 87 -3 103 -20 120 -27 27 -89 27 -124 -1z"/>
<path d="M5450 3596 c0 -9 132 -227 135 -224 6 5 125 220 125 224 0 2 -18 4
-39 4 -37 0 -40 -2 -57 -45 -9 -25 -21 -48 -25 -51 -5 -2 -20 18 -34 46 -24
47 -27 50 -65 50 -22 0 -40 -2 -40 -4z"/>
<path d="M7752 3499 c3 -93 5 -102 28 -121 29 -24 90 -20 121 8 17 16 19 16
19 1 0 -13 9 -17 35 -17 l35 0 0 115 0 115 -40 0 -40 0 0 -68 c0 -77 -18 -115
-53 -110 -20 3 -22 10 -25 91 l-3 87 -40 0 -41 0 4 -101z"/>
<path d="M10850 3485 l0 -115 35 0 35 0 0 115 0 115 -35 0 -35 0 0 -115z"/>
<path d="M13210 3480 c0 -91 -4 -129 -16 -152 -15 -29 -15 -32 5 -52 l21 -20
28 27 c27 27 27 30 30 172 l3 145 -35 0 -36 0 0 -120z"/>
<path d="M15476 3424 c-9 -8 -16 -19 -16 -24 0 -13 30 -40 45 -40 15 0 45 27
45 40 0 13 -30 40 -45 40 -7 0 -21 -7 -29 -16z"/>
<path d="M3064 2945 c-4 -9 -2 -21 4 -27 15 -15 44 -1 40 19 -4 23 -36 29 -44
8z m33 -11 c-3 -3 -12 -4 -19 -1 -8 3 -5 6 6 6 11 1 17 -2 13 -5z"/>
<path d="M5004 2945 c-7 -18 3 -35 21 -35 15 0 24 19 18 38 -6 17 -32 15 -39
-3z"/>
<path d="M8464 2945 c-7 -18 3 -35 21 -35 15 0 24 19 18 38 -6 17 -32 15 -39
-3z"/>
<path d="M17263 2944 c-8 -21 13 -42 28 -27 13 13 5 43 -11 43 -6 0 -13 -7
-17 -16z"/>
<path d="M1885 2870 l0 -80 33 0 c43 0 82 38 82 80 0 42 -39 80 -82 80 l-33 0
0 -80z m85 45 c6 -8 10 -31 8 -52 -2 -28 -9 -41 -27 -50 -14 -6 -29 -10 -33
-7 -9 6 -11 118 -2 126 8 9 42 -2 54 -17z"/>
<path d="M2488 2938 c7 -7 12 -37 12 -68 0 -31 -5 -61 -12 -68 -9 -9 -7 -12
10 -12 19 0 21 4 16 25 -4 15 -2 25 4 25 6 0 19 -11 30 -25 11 -14 26 -25 33
-25 7 0 1 12 -14 28 l-27 28 20 22 c24 25 25 32 6 32 -7 0 -16 -9 -19 -20 -3
-11 -12 -20 -21 -20 -12 0 -16 10 -16 45 0 36 -4 45 -17 45 -13 0 -14 -3 -5
-12z"/>
<path d="M3288 2938 c20 -20 14 -38 -13 -38 -15 0 -31 -10 -42 -26 -15 -24
-15 -29 -2 -53 12 -21 23 -26 58 -28 33 -1 41 1 32 10 -6 6 -11 41 -11 79 0
57 -3 68 -17 68 -13 0 -14 -3 -5 -12z m12 -94 c0 -33 -2 -35 -27 -32 -47 5
-45 68 2 68 22 0 25 -4 25 -36z"/>
<path d="M3375 2941 c-3 -5 -1 -12 5 -16 5 -3 10 1 10 9 0 18 -6 21 -15 7z"/>
<path d="M3836 2925 c5 -22 3 -25 -19 -25 -30 0 -49 -22 -49 -55 0 -38 19 -54
64 -53 28 0 37 3 29 11 -6 6 -11 42 -11 79 0 40 -4 68 -10 68 -6 0 -8 -11 -4
-25z m4 -81 c0 -33 -2 -35 -27 -32 -47 5 -45 68 2 68 22 0 25 -4 25 -36z"/>
<path d="M5686 2921 c6 -27 4 -29 -15 -24 -30 8 -51 -14 -51 -52 0 -40 15 -53
60 -53 l35 0 -3 79 c-3 59 -7 79 -18 79 -10 0 -12 -8 -8 -29z m4 -76 c0 -30
-3 -35 -24 -35 -26 0 -40 23 -31 51 4 12 16 19 31 19 21 0 24 -5 24 -35z"/>
<path d="M5888 2938 c7 -7 12 -37 12 -68 0 -31 -5 -61 -12 -68 -9 -9 -6 -12
17 -12 23 0 26 3 17 12 -7 7 -12 40 -12 80 0 57 -3 68 -17 68 -13 0 -14 -3 -5
-12z"/>
<path d="M5968 2938 c7 -7 12 -37 12 -68 0 -31 -5 -61 -12 -68 -9 -9 -6 -12
17 -12 23 0 26 3 17 12 -7 7 -12 40 -12 80 0 57 -3 68 -17 68 -13 0 -14 -3 -5
-12z"/>
<path d="M6105 2870 c0 -64 3 -80 15 -80 12 0 14 14 12 80 -2 53 -8 80 -15 80
-8 0 -12 -25 -12 -80z"/>
<path d="M7250 2934 c0 -8 5 -12 10 -9 6 4 8 11 5 16 -9 14 -15 11 -15 -7z"/>
<path d="M7760 2941 c0 -6 5 -13 10 -16 6 -3 10 1 10 9 0 9 -4 16 -10 16 -5 0
-10 -4 -10 -9z"/>
<path d="M8688 2938 c20 -20 14 -38 -13 -38 -15 0 -31 -10 -42 -26 -15 -24
-15 -29 -2 -53 12 -21 23 -26 58 -28 33 -1 41 1 32 10 -6 6 -11 41 -11 79 0
57 -3 68 -17 68 -13 0 -14 -3 -5 -12z m12 -94 c0 -33 -2 -35 -27 -32 -47 5
-45 68 2 68 22 0 25 -4 25 -36z"/>
<path d="M8770 2941 c0 -6 5 -13 10 -16 6 -3 10 1 10 9 0 9 -4 16 -10 16 -5 0
-10 -4 -10 -9z"/>
<path d="M9044 2934 c3 -9 6 -44 6 -79 0 -62 0 -63 28 -63 44 0 62 15 62 52 0
39 -21 61 -50 53 -17 -4 -20 0 -20 24 0 20 -5 29 -16 29 -11 0 -14 -5 -10 -16z
m81 -73 c9 -28 -5 -51 -31 -51 -21 0 -24 5 -24 35 0 30 3 35 24 35 15 0 27 -7
31 -19z"/>
<path d="M9315 2870 c0 -71 2 -80 19 -80 12 0 16 5 12 16 -3 9 -6 45 -6 80 0
44 -4 64 -12 64 -9 0 -13 -23 -13 -80z"/>
<path d="M9400 2935 c0 -8 5 -15 10 -15 6 0 10 7 10 15 0 8 -4 15 -10 15 -5 0
-10 -7 -10 -15z"/>
<path d="M10416 2921 c6 -27 4 -29 -15 -24 -30 8 -51 -14 -51 -52 0 -40 15
-53 60 -53 l35 0 -3 79 c-3 59 -7 79 -18 79 -10 0 -12 -8 -8 -29z m4 -76 c0
-30 -3 -35 -24 -35 -26 0 -40 23 -31 51 4 12 16 19 31 19 21 0 24 -5 24 -35z"/>
<path d="M11018 2938 c7 -7 12 -37 12 -68 0 -31 -5 -61 -12 -68 -9 -9 -6 -12
16 -12 24 0 26 2 17 14 -7 8 -11 27 -9 43 2 21 9 29 27 31 23 4 24 2 19 -42
-5 -39 -3 -46 12 -46 15 0 17 6 13 43 -7 53 -20 70 -50 62 -20 -5 -23 -2 -23
25 0 22 -5 30 -17 30 -13 0 -14 -3 -5 -12z"/>
<path d="M11465 2870 c0 -67 3 -80 16 -80 14 0 16 8 11 45 -4 44 -4 45 23 45
27 0 27 -1 23 -45 -5 -38 -3 -45 12 -45 14 0 16 6 10 43 -8 57 -18 70 -46 64
-21 -4 -24 0 -24 24 0 17 -5 29 -12 29 -9 0 -13 -23 -13 -80z"/>
<path d="M12298 2938 c7 -7 12 -37 12 -68 0 -31 -5 -61 -12 -68 -9 -9 -7 -12
10 -12 19 0 21 4 16 25 -3 14 -2 25 3 25 5 0 20 -11 33 -25 13 -14 28 -25 33
-25 6 0 1 10 -11 23 -12 13 -22 27 -22 32 0 5 10 19 22 32 21 23 21 23 1 23
-12 0 -23 -8 -26 -20 -3 -11 -12 -20 -21 -20 -12 0 -16 10 -16 45 0 36 -4 45
-17 45 -13 0 -14 -3 -5 -12z"/>
<path d="M12565 2870 c0 -71 2 -80 19 -80 12 0 16 5 12 16 -3 9 -6 45 -6 80 0
44 -4 64 -12 64 -9 0 -13 -23 -13 -80z"/>
<path d="M12835 2941 c-3 -5 -1 -12 5 -16 5 -3 10 1 10 9 0 18 -6 21 -15 7z"/>
<path d="M13238 2938 c20 -20 14 -38 -13 -38 -15 0 -31 -10 -42 -26 -15 -24
-15 -29 -2 -53 12 -21 23 -26 58 -28 33 -1 41 1 32 10 -6 6 -11 41 -11 79 0
57 -3 68 -17 68 -13 0 -14 -3 -5 -12z m12 -94 c0 -33 -2 -35 -27 -32 -47 5
-45 68 2 68 22 0 25 -4 25 -36z"/>
<path d="M14245 2870 c0 -71 2 -80 19 -80 12 0 16 5 12 16 -3 9 -6 45 -6 80 0
44 -4 64 -12 64 -9 0 -13 -23 -13 -80z"/>
<path d="M16220 2934 c0 -8 5 -12 10 -9 6 3 10 10 10 16 0 5 -4 9 -10 9 -5 0
-10 -7 -10 -16z"/>
<path d="M16408 2938 c20 -20 14 -38 -12 -38 -31 0 -56 -25 -56 -55 0 -35 26
-55 73 -55 32 0 38 3 29 12 -7 7 -12 40 -12 80 0 57 -3 68 -17 68 -13 0 -14
-3 -5 -12z m7 -93 c0 -25 -4 -30 -25 -30 -16 0 -26 6 -28 18 -6 30 6 49 30 45
18 -2 23 -9 23 -33z"/>
<path d="M16490 2935 c0 -8 5 -15 10 -15 6 0 10 7 10 15 0 8 -4 15 -10 15 -5
0 -10 -7 -10 -15z"/>
<path d="M17436 2925 c5 -22 3 -25 -19 -25 -30 0 -49 -22 -49 -55 0 -38 19
-54 64 -53 28 0 37 3 29 11 -6 6 -11 42 -11 79 0 40 -4 68 -10 68 -6 0 -8 -11
-4 -25z m4 -81 c0 -33 -2 -35 -27 -32 -47 5 -45 68 2 68 22 0 25 -4 25 -36z"/>
<path d="M17890 2934 c0 -8 5 -12 10 -9 6 3 10 10 10 16 0 5 -4 9 -10 9 -5 0
-10 -7 -10 -16z"/>
<path d="M17958 2938 c7 -7 12 -37 12 -68 0 -31 -5 -61 -12 -68 -9 -9 -6 -12
17 -12 23 0 26 3 17 12 -7 7 -12 40 -12 80 0 57 -3 68 -17 68 -13 0 -14 -3 -5
-12z"/>
<path d="M18098 2938 c7 -7 12 -37 12 -68 0 -31 -5 -61 -12 -68 -9 -9 -7 -12
10 -12 19 0 21 4 16 25 -3 14 -2 25 3 25 5 0 20 -11 33 -25 13 -14 28 -25 33
-25 6 0 1 10 -11 23 -12 13 -22 27 -22 32 0 5 10 19 22 32 21 23 21 23 1 23
-12 0 -23 -8 -26 -20 -3 -11 -12 -20 -21 -20 -12 0 -16 10 -16 45 0 36 -4 45
-17 45 -13 0 -14 -3 -5 -12z"/>
<path d="M6861 2918 c0 -10 -6 -18 -13 -18 -9 0 -9 -3 0 -12 7 -7 12 -29 12
-50 0 -26 5 -41 15 -45 23 -8 33 7 12 18 -23 13 -23 65 1 78 15 9 15 10 0 11
-9 0 -19 8 -21 18 -4 16 -5 16 -6 0z"/>
<path d="M7668 2913 c-2 -26 2 -74 7 -100 5 -23 45 -34 45 -13 0 6 -7 10 -15
10 -19 0 -21 60 -3 78 9 9 9 12 0 12 -7 0 -12 7 -12 15 0 21 -20 19 -22 -2z"/>
<path d="M8181 2918 c0 -10 -6 -18 -12 -18 -8 0 -8 -4 0 -14 7 -8 11 -25 10
-38 -4 -45 1 -58 21 -58 11 0 20 5 20 10 0 6 -7 10 -15 10 -19 0 -21 60 -3 78
8 8 9 12 1 12 -6 0 -14 8 -16 18 -4 16 -5 16 -6 0z"/>
<path d="M16571 2918 c0 -10 -6 -18 -12 -18 -8 0 -8 -4 -1 -13 6 -7 12 -30 14
-52 2 -28 8 -41 21 -43 9 -2 17 1 17 7 0 6 -7 11 -15 11 -22 0 -20 66 3 79 15
9 15 10 0 11 -9 0 -19 8 -21 18 -4 16 -5 16 -6 0z"/>
<path d="M16661 2918 c0 -10 -6 -18 -12 -18 -8 0 -8 -4 0 -14 7 -8 11 -25 10
-38 -4 -45 1 -58 21 -58 11 0 20 5 20 10 0 6 -7 10 -15 10 -19 0 -21 60 -3 78
8 8 9 12 1 12 -6 0 -14 8 -16 18 -4 16 -5 16 -6 0z"/>
<path d="M2426 2903 c-4 -4 -19 -7 -34 -8 -32 0 -51 -31 -44 -75 3 -24 9 -30
29 -30 49 0 63 16 61 70 -1 28 -3 50 -4 50 0 0 -4 -3 -8 -7z m-32 -48 c-19
-29 -34 -32 -34 -7 0 24 8 32 32 32 17 0 18 -1 2 -25z m36 -7 c0 -23 -17 -40
-34 -36 -15 3 -15 5 -1 26 18 24 35 29 35 10z"/>
<path d="M2038 2858 c5 -56 15 -67 64 -66 28 0 37 3 29 11 -6 6 -11 30 -11 54
0 34 -4 43 -17 43 -13 0 -14 -3 -5 -12 7 -7 12 -27 12 -45 0 -29 -3 -33 -25
-33 -23 0 -25 4 -25 45 0 30 -4 45 -13 45 -9 0 -11 -13 -9 -42z"/>
<path d="M2247 2893 c-15 -14 -6 -40 18 -51 36 -17 32 -36 -6 -28 -27 5 -30 4
-19 -9 15 -18 42 -19 58 -3 20 20 14 35 -18 48 -16 7 -30 17 -30 22 0 6 13 8
30 5 31 -7 42 6 14 17 -20 8 -39 8 -47 -1z"/>
<path d="M2632 2888 c-17 -17 -15 -73 3 -88 10 -8 24 -9 42 -4 l28 8 -35 5
c-46 8 -48 35 -2 39 17 2 32 9 32 16 0 17 -21 36 -40 36 -9 0 -21 -5 -28 -12z
m53 -18 c4 -6 -7 -10 -25 -10 -18 0 -29 4 -25 10 3 6 15 10 25 10 10 0 22 -4
25 -10z"/>
<path d="M2755 2843 c0 -41 4 -53 15 -53 12 0 14 10 12 45 -4 40 -2 45 17 45
12 0 21 4 21 9 0 5 -15 9 -32 8 -33 -1 -33 -1 -33 -54z"/>
<path d="M2910 2885 c8 -10 11 -38 8 -80 -4 -60 -2 -65 16 -65 16 0 17 3 8 12
-19 19 -14 38 11 38 43 0 71 52 48 89 -6 8 -29 16 -56 17 -40 3 -45 1 -35 -11z
m75 -40 c0 -25 -4 -30 -25 -30 -16 0 -26 6 -28 18 -6 30 6 49 30 45 18 -2 23
-9 23 -33z"/>
<path d="M3055 2890 c-4 -6 5 -10 19 -10 16 0 26 -6 26 -15 0 -9 -9 -15 -25
-15 -14 0 -28 -7 -31 -15 -10 -24 14 -43 50 -42 33 1 34 1 28 41 -2 23 -9 47
-15 54 -11 14 -43 16 -52 2z m53 -62 c-7 -20 -48 -23 -48 -4 0 11 9 16 26 16
16 0 24 -5 22 -12z"/>
<path d="M3368 2888 c7 -7 12 -26 12 -43 0 -17 -5 -36 -12 -43 -9 -9 -6 -12
17 -12 23 0 26 3 17 12 -7 7 -12 31 -12 55 0 34 -4 43 -17 43 -13 0 -14 -3 -5
-12z"/>
<path d="M3445 2844 c0 -43 3 -54 16 -54 14 0 16 8 11 46 -5 44 -4 46 19 42
21 -3 24 -8 23 -45 -1 -34 3 -43 16 -43 14 0 16 7 10 43 -9 59 -15 66 -58 65
l-37 0 0 -54z"/>
<path d="M3655 2890 c-4 -6 5 -10 19 -10 16 0 26 -6 26 -15 0 -9 -9 -15 -25
-15 -14 0 -28 -7 -31 -15 -9 -24 13 -43 50 -43 34 0 34 0 29 42 -3 22 -10 47
-16 54 -11 14 -43 16 -52 2z m45 -65 c0 -8 -9 -15 -20 -15 -11 0 -20 7 -20 15
0 8 9 15 20 15 11 0 20 -7 20 -15z"/>
<path d="M3909 2887 c15 -15 14 -70 -1 -85 -9 -9 -6 -12 17 -12 23 0 26 3 17
12 -20 20 -15 69 8 75 32 9 23 21 -16 21 -26 0 -33 -3 -25 -11z"/>
<path d="M4026 2884 c-32 -32 -10 -94 34 -94 10 0 22 5 25 10 4 6 -7 10 -24
10 -24 0 -31 4 -31 20 0 16 7 20 35 20 38 0 40 2 25 31 -13 23 -43 25 -64 3z
m54 -14 c0 -5 -11 -10 -25 -10 -14 0 -25 5 -25 10 0 6 11 10 25 10 14 0 25 -4
25 -10z"/>
<path d="M4147 2893 c-15 -14 -6 -40 18 -51 14 -6 25 -17 25 -23 0 -7 -10 -9
-25 -7 -29 6 -34 -8 -6 -17 47 -15 73 37 27 55 -39 15 -45 34 -8 27 33 -7 45
6 16 17 -20 8 -39 8 -47 -1z"/>
<path d="M4263 2893 c-22 -8 -14 -33 17 -51 38 -22 38 -36 0 -28 -36 7 -41
-11 -6 -20 31 -7 46 1 46 27 0 12 -10 23 -25 29 -14 5 -25 15 -25 21 0 7 10 9
25 7 28 -6 34 6 9 16 -18 7 -23 7 -41 -1z"/>
<path d="M4372 2888 c-7 -7 -12 -26 -12 -43 0 -17 5 -36 12 -43 15 -15 54 -16
63 -2 4 6 -6 10 -23 10 -17 0 -32 6 -35 14 -8 20 1 26 39 26 28 0 32 3 27 18
-12 32 -48 43 -71 20z m53 -18 c4 -6 -7 -10 -25 -10 -18 0 -29 4 -25 10 3 6
15 10 25 10 10 0 22 -4 25 -10z"/>
<path d="M4557 2882 c-22 -24 -21 -55 1 -75 35 -32 82 -10 82 38 0 49 -52 71
-83 37z m62 -21 c13 -24 -8 -55 -35 -49 -20 3 -30 29 -20 54 8 20 43 17 55 -5z"/>
<path d="M4692 2888 c-17 -17 -15 -73 3 -88 8 -7 24 -10 36 -7 15 4 19 1 17
-11 -2 -11 -16 -19 -38 -22 -31 -5 -33 -7 -12 -14 53 -18 72 9 72 102 l0 52
-33 0 c-18 0 -38 -5 -45 -12z m58 -43 c0 -30 -3 -35 -24 -35 -26 0 -40 23 -31
51 4 12 16 19 31 19 21 0 24 -5 24 -35z"/>
<path d="M4863 2886 c3 -8 11 -33 18 -55 7 -23 17 -40 22 -38 7 2 47 91 47
105 0 1 -7 2 -16 2 -8 0 -13 -4 -10 -9 3 -5 0 -26 -8 -47 l-13 -39 -12 37 c-7
21 -10 42 -6 48 3 5 -1 10 -10 10 -11 0 -15 -5 -12 -14z"/>
<path d="M4995 2890 c-4 -6 5 -10 19 -10 16 0 26 -6 26 -15 0 -9 -9 -15 -25
-15 -14 0 -28 -7 -31 -15 -9 -24 13 -43 50 -43 34 0 34 0 29 42 -3 22 -10 47
-16 54 -11 14 -43 16 -52 2z m45 -65 c0 -8 -9 -15 -20 -15 -11 0 -20 7 -20 15
0 8 9 15 20 15 11 0 20 -7 20 -15z"/>
<path d="M5115 2844 c0 -43 3 -54 16 -54 14 0 16 8 11 45 -4 41 -3 45 17 45
11 0 21 4 21 9 0 5 -15 9 -32 9 l-33 0 0 -54z"/>
<path d="M5280 2886 c14 -14 13 -69 -2 -84 -9 -9 -6 -12 16 -12 24 0 26 2 17
14 -7 8 -11 27 -9 43 2 21 9 29 27 31 23 4 24 2 19 -42 -5 -39 -3 -46 12 -46
15 0 17 7 12 45 -4 44 -4 45 23 45 27 0 27 -1 23 -45 -5 -38 -3 -45 12 -45 14
0 16 6 10 45 -4 25 -10 48 -14 52 -4 4 -41 8 -82 9 -52 1 -72 -2 -64 -10z"/>
<path d="M5493 2874 c-15 -24 -15 -29 -2 -53 28 -50 89 -31 89 29 0 51 -58 67
-87 24z m72 -13 c10 -31 -5 -52 -34 -49 -26 3 -38 26 -27 54 8 21 53 18 61 -5z"/>
<path d="M5770 2885 c-17 -21 -16 -64 3 -82 11 -11 23 -13 44 -8 l28 9 -35 5
c-46 8 -48 35 -2 39 33 3 41 19 20 40 -16 16 -43 15 -58 -3z m55 -15 c4 -6 -7
-10 -25 -10 -18 0 -29 4 -25 10 3 6 15 10 25 10 10 0 22 -4 25 -10z"/>
<path d="M6185 2890 c-4 -6 5 -10 19 -10 16 0 26 -6 26 -15 0 -9 -9 -15 -25
-15 -14 0 -28 -7 -31 -15 -10 -24 14 -43 50 -42 33 1 34 1 28 41 -2 23 -9 47
-15 54 -11 14 -43 16 -52 2z m53 -62 c-7 -20 -48 -23 -48 -4 0 11 9 16 26 16
16 0 24 -5 22 -12z"/>
<path d="M6318 2889 c-26 -15 -24 -75 3 -89 11 -7 27 -9 35 -6 9 4 14 -2 14
-15 0 -16 -6 -20 -27 -19 -42 3 -50 1 -33 -10 49 -31 80 2 80 86 0 63 0 64
-27 64 -16 0 -36 -5 -45 -11z m52 -44 c0 -30 -3 -35 -24 -35 -26 0 -40 23 -31
51 4 12 16 19 31 19 21 0 24 -5 24 -35z"/>
<path d="M6442 2888 c-7 -7 -12 -26 -12 -43 0 -17 5 -36 12 -43 15 -15 54 -16
63 -2 4 6 -6 10 -23 10 -17 0 -32 6 -35 14 -8 20 1 26 39 26 28 0 32 3 27 18
-12 32 -48 43 -71 20z m53 -18 c4 -6 -7 -10 -25 -10 -18 0 -29 4 -25 10 3 6
15 10 25 10 10 0 22 -4 25 -10z"/>
<path d="M6565 2844 c0 -43 3 -54 16 -54 14 0 16 8 11 45 -4 41 -3 45 17 45
11 0 21 4 21 9 0 5 -15 9 -32 9 l-33 0 0 -54z"/>
<path d="M6736 2884 c-32 -32 -10 -94 34 -94 10 0 22 5 25 10 4 6 -7 10 -24
10 -24 0 -31 4 -31 20 0 16 7 20 35 20 38 0 40 2 25 31 -13 23 -43 25 -64 3z
m54 -14 c0 -5 -11 -10 -25 -10 -14 0 -25 5 -25 10 0 6 11 10 25 10 14 0 25 -4
25 -10z"/>
<path d="M6995 2819 c0 -69 2 -79 18 -79 13 0 16 5 12 23 -5 19 -1 24 27 32
28 8 34 15 36 43 4 44 -11 61 -56 60 l-37 0 0 -79z m80 42 c9 -28 -5 -51 -31
-51 -21 0 -24 5 -24 35 0 30 3 35 24 35 15 0 27 -7 31 -19z"/>
<path d="M7135 2844 c0 -51 2 -54 25 -54 19 0 21 3 12 12 -7 7 -12 27 -12 45
0 26 4 33 20 33 11 0 20 4 20 9 0 5 -15 9 -32 9 l-33 0 0 -54z"/>
<path d="M7240 2885 c8 -9 11 -30 7 -55 -5 -36 -3 -40 16 -40 16 0 18 3 9 12
-7 7 -12 31 -12 55 0 33 -4 43 -16 43 -14 0 -14 -3 -4 -15z"/>
<path d="M7327 2893 c-16 -15 -6 -44 18 -53 37 -14 32 -34 -6 -26 -27 5 -30 4
-19 -9 16 -19 44 -19 60 0 15 18 1 40 -31 50 -31 10 -22 28 11 22 31 -7 42 6
14 17 -20 8 -39 8 -47 -1z"/>
<path d="M7436 2878 c-21 -29 -20 -41 2 -68 15 -19 24 -22 48 -15 l29 9 -35 5
c-46 8 -48 35 -2 39 33 3 41 19 20 40 -19 19 -45 14 -62 -10z m54 -8 c0 -5
-12 -10 -26 -10 -14 0 -23 4 -19 10 3 6 15 10 26 10 10 0 19 -4 19 -10z"/>
<path d="M7560 2885 c-15 -17 -6 -33 26 -45 35 -14 31 -34 -6 -26 -37 7 -40
-11 -4 -20 34 -9 63 18 45 40 -7 8 -21 18 -32 21 -32 11 -22 28 12 21 27 -5
30 -4 19 9 -16 19 -44 19 -60 0z"/>
<path d="M7755 2845 c0 -47 3 -55 19 -55 12 0 16 5 12 16 -3 9 -6 33 -6 55 0
24 -5 39 -12 39 -9 0 -13 -18 -13 -55z"/>
<path d="M7835 2844 c0 -43 3 -54 16 -54 14 0 16 8 11 46 -5 44 -4 46 19 42
18 -2 25 -10 27 -31 2 -16 -2 -35 -9 -43 -9 -12 -7 -14 16 -14 23 0 25 2 16
14 -7 8 -11 27 -9 43 2 21 9 29 27 31 22 3 23 1 20 -42 -3 -38 -1 -46 12 -46
14 0 16 7 12 43 -3 23 -10 46 -15 52 -5 5 -39 11 -76 12 l-67 1 0 -54z"/>
<path d="M8055 2891 c-4 -7 4 -11 19 -11 36 0 34 -28 -1 -32 -22 -2 -28 -8
-28 -28 0 -23 4 -25 43 -27 33 -1 41 1 33 10 -5 7 -11 30 -13 52 -2 32 -7 41
-25 43 -11 2 -24 -2 -28 -7z m45 -66 c0 -9 -9 -15 -25 -15 -24 0 -32 10 -18
23 12 13 43 7 43 -8z"/>
<path d="M8310 2885 c8 -10 11 -38 8 -80 -4 -60 -2 -65 16 -65 16 0 17 3 8 12
-19 19 -14 38 11 38 43 0 71 52 48 89 -6 8 -29 16 -56 17 -40 3 -45 1 -35 -11z
m75 -40 c0 -25 -4 -30 -25 -30 -16 0 -26 6 -28 18 -6 30 6 49 30 45 18 -2 23
-9 23 -33z"/>
<path d="M8455 2890 c-4 -6 5 -10 19 -10 16 0 26 -6 26 -15 0 -9 -9 -15 -25
-15 -14 0 -28 -7 -31 -15 -9 -24 13 -43 50 -43 34 0 34 0 29 42 -3 22 -10 47
-16 54 -11 14 -43 16 -52 2z m45 -65 c0 -8 -9 -15 -20 -15 -11 0 -20 7 -20 15
0 8 9 15 20 15 11 0 20 -7 20 -15z"/>
<path d="M8765 2845 c0 -47 3 -55 19 -55 12 0 16 5 12 16 -3 9 -6 33 -6 55 0
24 -5 39 -12 39 -9 0 -13 -18 -13 -55z"/>
<path d="M8845 2844 c0 -43 3 -54 16 -54 14 0 16 8 11 46 -5 44 -4 46 19 42
21 -3 24 -8 23 -45 -1 -34 3 -43 16 -43 14 0 16 7 10 43 -9 59 -15 66 -58 65
l-37 0 0 -54z"/>
<path d="M9198 2889 c-27 -15 -24 -75 3 -90 36 -19 69 3 69 45 0 47 -34 68
-72 45z m57 -28 c9 -28 -5 -51 -30 -51 -25 0 -39 23 -30 51 4 12 16 19 30 19
14 0 26 -7 30 -19z"/>
<path d="M9395 2845 c0 -47 3 -55 19 -55 12 0 16 5 12 16 -3 9 -6 33 -6 55 0
24 -5 39 -12 39 -9 0 -13 -18 -13 -55z"/>
<path d="M9482 2888 c-17 -17 -15 -73 3 -88 8 -7 24 -10 36 -7 15 4 19 1 17
-11 -2 -11 -16 -19 -38 -22 -31 -5 -33 -7 -12 -14 53 -18 72 9 72 102 l0 52
-33 0 c-18 0 -38 -5 -45 -12z m58 -43 c0 -30 -3 -35 -24 -35 -26 0 -40 23 -31
51 4 12 16 19 31 19 21 0 24 -5 24 -35z"/>
<path d="M9667 2882 c-22 -24 -21 -55 1 -75 35 -32 82 -10 82 38 0 49 -52 71
-83 37z m62 -21 c13 -24 -8 -55 -35 -49 -20 3 -30 29 -20 54 8 20 43 17 55 -5z"/>
<path d="M9802 2888 c-17 -17 -15 -73 3 -88 8 -7 24 -10 36 -7 15 4 19 1 17
-11 -2 -11 -16 -19 -38 -22 -31 -5 -33 -7 -12 -14 53 -18 72 9 72 102 l0 52
-33 0 c-18 0 -38 -5 -45 -12z m58 -43 c0 -30 -3 -35 -24 -35 -26 0 -40 23 -31
51 4 12 16 19 31 19 21 0 24 -5 24 -35z"/>
<path d="M9970 2898 c0 -14 40 -103 47 -105 5 -2 15 16 22 39 7 24 18 49 23
56 8 8 6 12 -4 12 -8 0 -19 -19 -27 -47 l-13 -48 -13 35 c-7 19 -10 41 -7 48
2 6 -3 12 -12 12 -9 0 -16 -1 -16 -2z"/>
<path d="M10098 2887 c6 -7 12 -30 14 -52 3 -39 4 -40 43 -42 l40 -2 -3 55
c-3 35 -8 54 -17 54 -9 0 -11 -12 -7 -45 4 -43 4 -45 -22 -45 -24 0 -26 3 -26
45 0 35 -4 45 -16 45 -12 0 -14 -3 -6 -13z"/>
<path d="M10245 2844 c0 -51 2 -54 25 -54 19 0 21 3 12 12 -20 20 -15 69 8 75
31 8 24 21 -12 21 l-33 0 0 -54z"/>
<path d="M10500 2885 c-17 -21 -16 -64 3 -82 11 -11 23 -13 44 -8 l28 9 -35 5
c-46 8 -48 35 -2 39 33 3 41 19 20 40 -16 16 -43 15 -58 -3z m55 -15 c4 -6 -7
-10 -25 -10 -18 0 -29 4 -25 10 3 6 15 10 25 10 10 0 22 -4 25 -10z"/>
<path d="M10619 2887 c15 -15 14 -70 -1 -85 -9 -9 -6 -12 17 -12 23 0 26 3 17
12 -20 20 -15 69 8 75 32 9 23 21 -16 21 -26 0 -33 -3 -25 -11z"/>
<path d="M10736 2884 c-32 -32 -10 -94 34 -94 10 0 22 5 25 10 4 6 -7 10 -24
10 -24 0 -31 4 -31 20 0 16 7 20 35 20 38 0 40 2 25 31 -13 23 -43 25 -64 3z
m54 -14 c0 -5 -11 -10 -25 -10 -14 0 -25 5 -25 10 0 6 11 10 25 10 14 0 25 -4
25 -10z"/>
<path d="M10855 2844 c0 -43 3 -54 16 -54 14 0 16 8 11 45 -4 41 -3 45 17 45
11 0 21 4 21 9 0 5 -15 9 -32 9 l-33 0 0 -54z"/>
<path d="M11150 2898 c0 -13 40 -103 46 -105 5 -1 19 22 30 52 16 40 18 55 9
55 -8 0 -16 -18 -20 -40 -4 -22 -10 -42 -15 -45 -9 -5 -25 51 -21 73 1 6 -5
12 -14 12 -8 0 -15 -1 -15 -2z"/>
<path d="M11285 2891 c-3 -5 7 -11 22 -13 33 -4 34 -21 1 -28 -16 -4 -23 -13
-23 -30 0 -22 5 -25 36 -26 l37 -1 -5 41 c-3 23 -6 47 -9 54 -4 14 -50 16 -59
3z m55 -66 c0 -9 -9 -15 -25 -15 -24 0 -32 10 -18 23 12 13 43 7 43 -8z"/>
<path d="M11603 2886 c3 -8 11 -33 18 -55 7 -23 17 -40 22 -38 7 2 47 91 47
105 0 1 -7 2 -16 2 -8 0 -13 -4 -10 -9 3 -5 0 -26 -8 -47 l-13 -39 -12 37 c-7
21 -10 42 -6 48 3 5 -1 10 -10 10 -11 0 -15 -5 -12 -14z"/>
<path d="M11736 2878 c-21 -29 -20 -41 2 -68 15 -19 24 -22 48 -15 l29 9 -35
5 c-46 8 -48 35 -2 39 33 3 41 19 20 40 -19 19 -45 14 -62 -10z m54 -8 c0 -5
-12 -10 -26 -10 -14 0 -23 4 -19 10 3 6 15 10 26 10 10 0 19 -4 19 -10z"/>
<path d="M11859 2887 c15 -15 14 -70 -1 -85 -9 -9 -6 -12 17 -12 23 0 26 3 17
12 -20 20 -15 69 8 75 32 9 23 21 -16 21 -26 0 -33 -3 -25 -11z"/>
<path d="M12032 2888 c-17 -17 -15 -73 3 -88 10 -8 24 -9 42 -4 l28 8 -35 5
c-46 8 -48 35 -2 39 17 2 32 9 32 16 0 17 -21 36 -40 36 -9 0 -21 -5 -28 -12z
m53 -18 c4 -6 -7 -10 -25 -10 -18 0 -29 4 -25 10 3 6 15 10 25 10 10 0 22 -4
25 -10z"/>
<path d="M12149 2887 c15 -15 14 -70 -1 -85 -9 -9 -6 -12 16 -12 24 0 26 2 17
14 -7 8 -11 27 -9 43 2 21 9 29 27 31 22 3 23 1 20 -42 -3 -38 -1 -46 12 -46
14 0 16 7 12 43 -7 56 -16 64 -64 64 -28 0 -37 -3 -30 -10z"/>
<path d="M12446 2884 c-32 -32 -10 -94 34 -94 10 0 22 5 25 10 4 6 -7 10 -24
10 -24 0 -31 4 -31 20 0 16 7 20 35 20 38 0 40 2 25 31 -13 23 -43 25 -64 3z
m54 -14 c0 -5 -11 -10 -25 -10 -14 0 -25 5 -25 10 0 6 11 10 25 10 14 0 25 -4
25 -10z"/>
<path d="M12706 2878 c-21 -29 -20 -41 2 -68 15 -19 24 -22 48 -15 l29 9 -35
5 c-46 8 -48 35 -2 39 33 3 41 19 20 40 -19 19 -45 14 -62 -10z m54 -8 c0 -5
-12 -10 -26 -10 -14 0 -23 4 -19 10 3 6 15 10 26 10 10 0 19 -4 19 -10z"/>
<path d="M12828 2888 c7 -7 12 -26 12 -43 0 -17 -5 -36 -12 -43 -9 -9 -6 -12
17 -12 23 0 26 3 17 12 -7 7 -12 31 -12 55 0 34 -4 43 -17 43 -13 0 -14 -3 -5
-12z"/>
<path d="M12912 2888 c-7 -7 -12 -26 -12 -43 0 -17 5 -36 12 -43 15 -15 54
-16 63 -2 4 6 -6 10 -23 10 -17 0 -32 6 -35 14 -8 20 1 26 39 26 28 0 32 3 27
18 -12 32 -48 43 -71 20z m53 -18 c4 -6 -7 -10 -25 -10 -18 0 -29 4 -25 10 3
6 15 10 25 10 10 0 22 -4 25 -10z"/>
<path d="M13035 2844 c0 -43 3 -54 16 -54 14 0 16 8 11 46 -5 44 -4 46 19 42
18 -2 25 -10 27 -31 2 -16 -2 -35 -9 -43 -9 -12 -7 -14 16 -14 21 0 25 3 17
13 -6 7 -12 30 -14 52 -3 39 -4 40 -43 42 l-40 2 0 -55z"/>
<path d="M13326 2884 c-34 -33 -7 -98 37 -92 12 2 28 15 36 29 13 24 13 29 -2
53 -20 29 -48 34 -71 10z m59 -39 c0 -25 -4 -30 -25 -30 -16 0 -26 6 -28 18
-6 30 6 49 30 45 18 -2 23 -9 23 -33z"/>
<path d="M13450 2886 c14 -14 13 -69 -2 -84 -9 -9 -6 -12 16 -12 24 0 26 2 17
14 -7 8 -11 27 -9 43 2 21 9 29 27 31 22 3 23 1 20 -42 -3 -37 -1 -46 12 -46
14 0 16 8 11 45 -4 44 -4 45 23 45 27 0 27 -1 23 -45 -5 -38 -3 -45 12 -45 15
0 17 6 13 43 -3 23 -10 46 -15 52 -4 5 -42 10 -84 11 -52 1 -72 -2 -64 -10z"/>
<path d="M13667 2893 c-15 -14 -6 -40 18 -51 14 -6 25 -17 25 -23 0 -7 -10 -9
-25 -7 -29 6 -34 -8 -6 -17 47 -15 73 37 27 55 -39 15 -45 34 -8 27 33 -7 45
6 16 17 -20 8 -39 8 -47 -1z"/>
<path d="M13775 2844 c0 -43 3 -54 16 -54 14 0 16 8 11 46 -5 44 -4 46 19 42
18 -2 25 -10 27 -31 2 -16 -2 -35 -9 -43 -9 -12 -7 -14 16 -14 23 0 25 2 16
14 -7 8 -11 27 -9 43 2 21 9 29 27 31 22 3 23 1 20 -42 -3 -38 -1 -46 12 -46
14 0 16 7 12 43 -3 23 -10 46 -15 52 -5 5 -39 11 -76 12 l-67 1 0 -54z"/>
<path d="M13996 2884 c-32 -32 -10 -94 34 -94 10 0 22 5 25 10 4 6 -7 10 -24
10 -24 0 -31 4 -31 20 0 16 7 20 35 20 38 0 40 2 25 31 -13 23 -43 25 -64 3z
m54 -14 c0 -5 -11 -10 -25 -10 -14 0 -25 5 -25 10 0 6 11 10 25 10 14 0 25 -4
25 -10z"/>
<path d="M14128 2889 c-26 -15 -24 -75 3 -89 11 -7 27 -9 35 -6 9 4 14 -2 14
-15 0 -16 -6 -20 -27 -19 -42 3 -50 1 -33 -10 49 -31 80 2 80 86 0 63 0 64
-27 64 -16 0 -36 -5 -45 -11z m52 -44 c0 -30 -3 -35 -24 -35 -26 0 -40 23 -31
51 4 12 16 19 31 19 21 0 24 -5 24 -35z"/>
<path d="M14332 2888 c-7 -7 -12 -26 -12 -43 0 -17 5 -36 12 -43 15 -15 54
-16 63 -2 4 6 -6 10 -23 10 -17 0 -32 6 -35 14 -8 20 1 26 39 26 28 0 32 3 27
18 -12 32 -48 43 -71 20z m53 -18 c4 -6 -7 -10 -25 -10 -18 0 -29 4 -25 10 3
6 15 10 25 10 10 0 22 -4 25 -10z"/>
<path d="M14455 2843 c0 -41 4 -53 15 -53 12 0 14 10 12 45 -4 40 -2 45 17 45
12 0 21 4 21 9 0 5 -15 9 -32 8 -33 -1 -33 -1 -33 -54z"/>
<path d="M14670 2885 c-15 -17 -6 -33 26 -45 35 -14 31 -34 -6 -26 -37 7 -40
-11 -4 -20 34 -9 63 18 45 40 -7 8 -21 18 -32 21 -32 11 -22 28 12 21 27 -5
30 -4 19 9 -16 19 -44 19 -60 0z"/>
<path d="M14787 2882 c-22 -24 -21 -55 1 -75 35 -32 82 -10 82 38 0 49 -52 71
-83 37z m62 -21 c13 -24 -8 -55 -35 -49 -20 3 -30 29 -20 54 8 20 43 17 55 -5z"/>
<path d="M14915 2843 c0 -41 4 -53 15 -53 12 0 14 10 11 46 -3 43 -2 45 20 42
18 -2 25 -10 27 -31 2 -16 -2 -35 -9 -43 -9 -12 -7 -14 16 -14 23 0 25 2 16
14 -7 8 -11 27 -9 43 2 21 9 29 27 31 23 4 24 2 19 -42 -5 -39 -3 -46 12 -46
15 0 17 6 13 43 -3 23 -10 47 -15 52 -5 6 -39 10 -76 11 l-67 1 0 -54z"/>
<path d="M15198 2889 c-27 -15 -24 -75 3 -90 36 -19 69 3 69 45 0 47 -34 68
-72 45z m57 -28 c9 -28 -5 -51 -30 -51 -25 0 -39 23 -30 51 4 12 16 19 30 19
14 0 26 -7 30 -19z"/>
<path d="M15310 2885 c8 -10 11 -38 8 -80 -4 -60 -2 -65 16 -65 16 0 17 3 8
12 -19 19 -14 38 11 38 43 0 71 52 48 89 -6 8 -29 16 -56 17 -40 3 -45 1 -35
-11z m75 -40 c0 -25 -4 -30 -25 -30 -16 0 -26 6 -28 18 -6 30 6 49 30 45 18
-2 23 -9 23 -33z"/>
<path d="M15460 2885 c-17 -21 -16 -64 3 -82 11 -11 23 -13 44 -8 l28 9 -35 5
c-46 8 -48 35 -2 39 33 3 41 19 20 40 -16 16 -43 15 -58 -3z m55 -15 c4 -6 -7
-10 -25 -10 -18 0 -29 4 -25 10 3 6 15 10 25 10 10 0 22 -4 25 -10z"/>
<path d="M15579 2887 c15 -15 14 -70 -1 -85 -9 -9 -6 -12 17 -12 23 0 26 3 17
12 -20 20 -15 69 8 75 32 9 23 21 -16 21 -26 0 -33 -3 -25 -11z"/>
<path d="M15696 2884 c-32 -32 -10 -94 34 -94 10 0 22 5 25 10 4 6 -7 10 -24
10 -24 0 -31 4 -31 20 0 16 7 20 35 20 38 0 40 2 25 31 -13 23 -43 25 -64 3z
m54 -14 c0 -5 -11 -10 -25 -10 -14 0 -25 5 -25 10 0 6 11 10 25 10 14 0 25 -4
25 -10z"/>
<path d="M15815 2844 c0 -43 3 -54 16 -54 14 0 16 8 11 45 -4 41 -3 45 17 45
11 0 21 4 21 9 0 5 -15 9 -32 9 l-33 0 0 -54z"/>
<path d="M15930 2885 c-17 -21 -16 -64 3 -82 11 -11 23 -13 44 -8 l28 9 -35 5
c-46 8 -48 35 -2 39 33 3 41 19 20 40 -16 16 -43 15 -58 -3z m55 -15 c4 -6 -7
-10 -25 -10 -18 0 -29 4 -25 10 3 6 15 10 25 10 10 0 22 -4 25 -10z"/>
<path d="M16049 2887 c15 -15 14 -70 -1 -85 -9 -9 -6 -12 17 -12 23 0 26 3 17
12 -20 20 -15 69 8 75 32 9 23 21 -16 21 -26 0 -33 -3 -25 -11z"/>
<path d="M16215 2845 c0 -42 3 -55 15 -55 12 0 14 11 12 55 -5 74 -27 74 -27
0z"/>
<path d="M16485 2845 c0 -47 3 -55 19 -55 12 0 16 5 12 16 -3 9 -6 33 -6 55 0
24 -5 39 -12 39 -9 0 -13 -18 -13 -55z"/>
<path d="M16808 2889 c-12 -6 -18 -22 -18 -45 0 -27 5 -37 24 -46 32 -14 54
-5 66 28 19 50 -26 90 -72 63z m57 -44 c0 -25 -4 -31 -26 -33 -29 -3 -44 18
-33 50 4 14 13 18 32 16 23 -2 27 -8 27 -33z"/>
<path d="M16930 2886 c14 -14 13 -69 -2 -84 -9 -9 -6 -12 16 -12 24 0 26 2 17
14 -7 8 -11 27 -9 43 2 21 9 29 27 31 23 4 24 2 19 -42 -5 -39 -3 -46 12 -46
15 0 17 7 12 45 -4 44 -4 45 23 45 27 0 27 -1 23 -45 -5 -38 -3 -45 12 -45 14
0 16 6 10 45 -4 25 -10 48 -14 52 -4 4 -41 8 -82 9 -52 1 -72 -2 -64 -10z"/>
<path d="M17145 2843 c0 -41 4 -53 15 -53 12 0 14 10 12 45 -4 40 -2 45 17 45
12 0 21 4 21 9 0 5 -15 9 -32 8 -33 -1 -33 -1 -33 -54z"/>
<path d="M17255 2890 c-4 -6 5 -10 19 -10 36 0 34 -28 -1 -32 -20 -2 -29 -9
-31 -25 -3 -22 10 -29 58 -31 24 -1 25 1 22 41 -3 23 -9 48 -14 55 -12 14 -44
16 -53 2z m45 -65 c0 -16 -35 -21 -44 -6 -8 12 4 21 26 21 10 0 18 -7 18 -15z"/>
<path d="M17516 2884 c-32 -32 -10 -94 34 -94 31 0 33 18 3 22 -17 2 -29 10
-31 21 -3 14 4 17 32 17 39 0 41 2 26 31 -13 23 -43 25 -64 3z m54 -14 c0 -5
-11 -10 -25 -10 -14 0 -25 5 -25 10 0 6 11 10 25 10 14 0 25 -4 25 -10z"/>
<path d="M17750 2898 c0 -13 40 -103 46 -105 5 -1 19 22 30 52 16 40 18 55 9
55 -8 0 -16 -18 -20 -40 -4 -22 -10 -42 -15 -45 -9 -5 -25 51 -21 73 1 6 -5
12 -14 12 -8 0 -15 -1 -15 -2z"/>
<path d="M17885 2845 c0 -42 3 -55 15 -55 12 0 14 11 12 55 -5 74 -27 74 -27
0z"/>
<path d="M18237 2858 c7 -65 9 -67 53 -66 32 0 40 4 36 15 -3 8 -6 32 -6 54 0
26 -4 39 -14 39 -10 0 -12 -11 -8 -46 5 -44 4 -46 -19 -42 -20 2 -24 9 -27 46
-2 23 -7 42 -12 42 -4 0 -6 -19 -3 -42z"/>
<path d="M18379 2887 c15 -15 14 -70 -1 -85 -9 -9 -6 -12 16 -12 24 0 26 2 17
14 -7 8 -11 27 -9 43 2 21 9 29 27 31 22 3 23 1 20 -42 -3 -38 -1 -46 12 -46
14 0 16 7 12 43 -7 56 -16 64 -64 64 -28 0 -37 -3 -30 -10z"/>
<path d="M18525 2844 c0 -43 3 -54 16 -54 14 0 16 8 11 45 -4 44 -4 45 23 45
27 0 27 -1 23 -45 -5 -38 -3 -45 12 -45 15 0 17 6 13 43 -7 55 -16 64 -61 64
l-37 0 0 -53z"/>
<path d="M18682 2888 c-17 -17 -15 -73 3 -88 10 -8 24 -9 42 -4 l28 8 -35 5
c-46 8 -48 35 -2 39 17 2 32 9 32 16 0 17 -21 36 -40 36 -9 0 -21 -5 -28 -12z
m53 -18 c4 -6 -7 -10 -25 -10 -18 0 -29 4 -25 10 3 6 15 10 25 10 10 0 22 -4
25 -10z"/>
<path d="M14540 2801 c0 -5 -3 -18 -6 -28 -5 -16 -4 -16 10 1 18 23 20 36 6
36 -5 0 -10 -4 -10 -9z"/>
<path d="M17633 2793 c-3 -10 -8 -21 -10 -25 -2 -5 0 -8 5 -8 5 0 14 11 20 25
7 16 8 25 1 25 -5 0 -12 -8 -16 -17z"/>
<path d="M15614 2565 c-4 -9 -2 -21 4 -27 15 -15 44 -1 40 19 -4 23 -36 29
-44 8z m33 -11 c-3 -3 -12 -4 -19 -1 -8 3 -5 6 6 6 11 1 17 -2 13 -5z"/>
<path d="M2798 2558 c16 -16 16 -120 0 -136 -9 -9 -6 -12 17 -12 23 0 26 3 17
12 -7 7 -12 40 -12 80 0 57 -3 68 -17 68 -13 0 -14 -3 -5 -12z"/>
<path d="M3256 2541 c6 -27 4 -29 -15 -24 -30 8 -51 -14 -51 -52 0 -40 15 -53
60 -53 l35 0 -3 79 c-3 59 -7 79 -18 79 -10 0 -12 -8 -8 -29z m4 -76 c0 -30
-3 -35 -24 -35 -26 0 -40 23 -31 51 4 12 16 19 31 19 21 0 24 -5 24 -35z"/>
<path d="M3336 2561 c-4 -5 -2 -12 3 -15 5 -4 12 -2 15 3 4 5 2 12 -3 15 -5 4
-12 2 -15 -3z"/>
<path d="M3608 2558 c7 -7 12 -40 12 -78 l0 -67 32 1 c24 1 36 8 47 27 13 24
13 29 -3 54 -14 21 -23 25 -42 21 -21 -6 -24 -3 -24 24 0 22 -5 30 -17 30 -13
0 -14 -3 -5 -12z m77 -93 c0 -25 -4 -30 -27 -33 -26 -3 -28 -1 -28 33 0 34 2
36 28 33 23 -3 27 -8 27 -33z"/>
<path d="M3878 2558 c16 -16 16 -120 0 -136 -9 -9 -6 -12 17 -12 23 0 26 3 17
12 -7 7 -12 40 -12 80 0 57 -3 68 -17 68 -13 0 -14 -3 -5 -12z"/>
<path d="M3965 2561 c-3 -5 -1 -12 5 -16 5 -3 10 1 10 9 0 18 -6 21 -15 7z"/>
<path d="M4240 2555 c-6 -8 -13 -44 -14 -80 -1 -55 1 -65 15 -65 14 0 16 7 12
40 -4 25 -1 46 7 55 9 10 9 15 1 15 -6 0 -11 7 -11 15 0 8 9 15 21 15 11 0 17
5 14 10 -9 15 -31 12 -45 -5z"/>
<path d="M4639 2557 c6 -8 20 -44 31 -80 13 -40 26 -67 35 -67 8 0 22 28 36
68 12 37 26 73 32 80 7 9 3 12 -16 12 -19 0 -24 -4 -21 -17 3 -10 -4 -43 -14
-73 l-19 -55 -17 59 c-10 32 -15 65 -12 72 4 10 -3 14 -21 14 -20 0 -23 -3
-14 -13z"/>
<path d="M4815 2561 c-3 -5 -1 -12 5 -16 5 -3 10 1 10 9 0 18 -6 21 -15 7z"/>
<path d="M4938 2558 c7 -7 12 -40 12 -78 0 -66 0 -66 29 -68 31 -2 61 26 61
59 0 25 -35 52 -59 44 -18 -5 -21 -2 -21 24 0 23 -5 31 -17 31 -13 0 -14 -3
-5 -12z m77 -93 c0 -25 -4 -30 -27 -33 -25 -3 -28 0 -28 26 0 35 8 44 35 40
15 -2 20 -10 20 -33z"/>
<path d="M5328 2558 c7 -7 12 -37 12 -68 0 -31 -5 -61 -12 -68 -9 -9 -7 -12
10 -12 17 0 22 6 22 25 0 32 5 31 35 -2 13 -16 27 -24 32 -19 4 5 2 11 -5 13
-7 3 -17 14 -23 25 -9 16 -6 24 12 44 l22 24 -22 0 c-12 0 -20 -4 -17 -9 3 -4
-3 -16 -14 -26 -20 -18 -20 -17 -20 33 0 47 -2 52 -22 52 -17 0 -19 -3 -10
-12z"/>
<path d="M5777 2563 c-4 -3 -7 -15 -7 -25 0 -10 -5 -18 -11 -18 -8 0 -8 -5 1
-15 8 -9 11 -30 7 -55 -4 -33 -2 -40 12 -40 13 0 15 8 12 46 -2 32 1 49 10 55
10 6 11 9 2 9 -7 0 -13 7 -13 15 0 8 7 15 15 15 8 0 15 5 15 10 0 11 -33 14
-43 3z"/>
<path d="M5848 2558 c7 -7 12 -37 12 -68 0 -31 -5 -61 -12 -68 -9 -9 -6 -12
17 -12 23 0 26 3 17 12 -7 7 -12 40 -12 80 0 57 -3 68 -17 68 -13 0 -14 -3 -5
-12z"/>
<path d="M6348 2558 c7 -7 12 -37 12 -68 0 -31 -5 -61 -12 -68 -9 -9 -6 -12
17 -12 23 0 26 3 17 12 -7 7 -12 27 -12 45 0 29 3 33 26 33 26 0 26 -2 22 -45
-5 -38 -3 -45 12 -45 15 0 17 6 13 43 -7 53 -20 70 -50 62 -20 -5 -23 -2 -23
25 0 22 -5 30 -17 30 -13 0 -14 -3 -5 -12z"/>
<path d="M6846 2541 c6 -27 4 -29 -15 -24 -30 8 -51 -14 -51 -52 0 -40 15 -53
60 -53 l35 0 -3 79 c-3 59 -7 79 -18 79 -10 0 -12 -8 -8 -29z m4 -76 c0 -30
-3 -35 -24 -35 -26 0 -40 23 -31 51 4 12 16 19 31 19 21 0 24 -5 24 -35z"/>
<path d="M7218 2545 c3 -20 0 -25 -16 -25 -45 0 -69 -61 -37 -93 20 -21 88
-20 81 0 -3 8 -6 44 -6 79 0 47 -4 64 -14 64 -9 0 -12 -8 -8 -25z m2 -81 c0
-31 -3 -35 -22 -32 -39 5 -37 68 2 68 16 0 20 -6 20 -36z"/>
<path d="M7835 2561 c-3 -5 -1 -12 5 -16 5 -3 10 1 10 9 0 18 -6 21 -15 7z"/>
<path d="M8024 2554 c3 -9 6 -44 6 -79 0 -62 0 -63 28 -63 44 0 62 15 62 52 0
39 -21 61 -50 53 -17 -4 -20 0 -20 24 0 20 -5 29 -16 29 -11 0 -14 -5 -10 -16z
m81 -73 c9 -28 -5 -51 -31 -51 -21 0 -24 5 -24 35 0 30 3 35 24 35 15 0 27 -7
31 -19z"/>
<path d="M8165 2490 c0 -71 2 -80 19 -80 12 0 16 5 12 16 -3 9 -6 45 -6 80 0
44 -4 64 -12 64 -9 0 -13 -23 -13 -80z"/>
<path d="M9358 2558 c7 -7 12 -37 12 -68 0 -31 -5 -61 -12 -68 -9 -9 -6 -12
17 -12 23 0 26 3 17 12 -7 7 -12 40 -12 80 0 57 -3 68 -17 68 -13 0 -14 -3 -5
-12z"/>
<path d="M9678 2558 c7 -7 12 -37 12 -68 0 -31 -5 -61 -12 -68 -9 -9 -6 -12
16 -12 24 0 26 2 17 14 -7 8 -11 27 -9 43 2 21 9 29 27 31 23 4 24 2 19 -42
-5 -39 -3 -46 12 -46 15 0 17 6 13 43 -7 53 -20 70 -50 62 -20 -5 -23 -2 -23
25 0 22 -5 30 -17 30 -13 0 -14 -3 -5 -12z"/>
<path d="M9830 2554 c0 -8 5 -12 10 -9 6 3 10 10 10 16 0 5 -4 9 -10 9 -5 0
-10 -7 -10 -16z"/>
<path d="M10346 2561 c-4 -5 -2 -12 3 -15 5 -4 12 -2 15 3 4 5 2 12 -3 15 -5
4 -12 2 -15 -3z"/>
<path d="M10418 2558 c7 -7 12 -37 12 -68 0 -31 -5 -61 -12 -68 -9 -9 -7 -12
10 -12 19 0 21 4 16 25 -3 14 -2 25 3 25 5 0 20 -11 33 -25 13 -14 28 -25 33
-25 6 0 1 10 -11 23 -12 13 -22 27 -22 32 0 5 10 19 22 32 21 23 21 23 1 23
-12 0 -23 -8 -26 -20 -3 -11 -12 -20 -21 -20 -12 0 -16 10 -16 45 0 36 -4 45
-17 45 -13 0 -14 -3 -5 -12z"/>
<path d="M10558 2558 c7 -7 12 -37 12 -68 0 -31 -5 -61 -12 -68 -9 -9 -7 -12
10 -12 19 0 21 4 16 25 -3 14 -2 25 3 25 5 0 20 -11 33 -25 13 -14 28 -25 33
-25 6 0 1 10 -11 23 -12 13 -22 27 -22 32 0 5 10 19 22 32 21 23 21 23 1 23
-12 0 -23 -8 -26 -20 -3 -11 -12 -20 -21 -20 -12 0 -16 10 -16 45 0 36 -4 45
-17 45 -13 0 -14 -3 -5 -12z"/>
<path d="M11120 2555 c0 -8 5 -15 10 -15 6 0 10 7 10 15 0 8 -4 15 -10 15 -5
0 -10 -7 -10 -15z"/>
<path d="M11188 2558 c7 -7 12 -37 12 -68 0 -31 -5 -61 -12 -68 -9 -9 -6 -12
17 -12 23 0 26 3 17 12 -7 7 -12 40 -12 80 0 57 -3 68 -17 68 -13 0 -14 -3 -5
-12z"/>
<path d="M11460 2555 c0 -8 5 -15 10 -15 6 0 10 7 10 15 0 8 -4 15 -10 15 -5
0 -10 -7 -10 -15z"/>
<path d="M11868 2558 c20 -20 14 -38 -12 -38 -31 0 -56 -25 -56 -55 0 -35 26
-55 73 -55 32 0 38 3 29 12 -7 7 -12 40 -12 80 0 57 -3 68 -17 68 -13 0 -14
-3 -5 -12z m7 -93 c0 -25 -4 -30 -25 -30 -16 0 -26 6 -28 18 -6 30 6 49 30 45
18 -2 23 -9 23 -33z"/>
<path d="M12875 2490 c0 -64 3 -80 15 -80 12 0 14 14 12 80 -2 53 -8 80 -15
80 -8 0 -12 -25 -12 -80z"/>
<path d="M14708 2558 c7 -7 12 -37 12 -68 0 -31 -5 -61 -12 -68 -9 -9 -6 -12
17 -12 23 0 26 3 17 12 -7 7 -12 40 -12 80 0 57 -3 68 -17 68 -13 0 -14 -3 -5
-12z"/>
<path d="M15117 2563 c-4 -3 -7 -15 -7 -25 0 -10 -5 -18 -12 -18 -9 0 -9 -3 0
-12 7 -7 12 -26 12 -43 0 -17 -5 -36 -12 -43 -9 -9 -6 -12 17 -12 23 0 26 3
17 12 -7 7 -12 26 -12 43 0 17 5 36 12 43 9 9 9 12 0 12 -7 0 -12 7 -12 15 0
8 9 15 20 15 11 0 20 5 20 10 0 11 -33 14 -43 3z"/>
<path d="M15895 2561 c-3 -5 -1 -12 5 -16 5 -3 10 1 10 9 0 18 -6 21 -15 7z"/>
<path d="M16328 2558 c7 -7 12 -37 12 -68 0 -31 -5 -61 -12 -68 -9 -9 -6 -12
17 -12 23 0 26 3 17 12 -7 7 -12 40 -12 80 0 57 -3 68 -17 68 -13 0 -14 -3 -5
-12z"/>
<path d="M16405 2490 c0 -71 2 -80 19 -80 12 0 16 5 12 16 -3 9 -6 45 -6 80 0
44 -4 64 -12 64 -9 0 -13 -23 -13 -80z"/>
<path d="M16490 2555 c0 -8 5 -15 10 -15 6 0 10 7 10 15 0 8 -4 15 -10 15 -5
0 -10 -7 -10 -15z"/>
<path d="M17238 2558 c7 -7 12 -37 12 -68 0 -31 -5 -61 -12 -68 -9 -9 -6 -12
17 -12 23 0 26 3 17 12 -7 7 -12 40 -12 80 0 57 -3 68 -17 68 -13 0 -14 -3 -5
-12z"/>
<path d="M17715 2561 c-3 -5 -1 -12 5 -16 5 -3 10 1 10 9 0 18 -6 21 -15 7z"/>
<path d="M8991 2538 c0 -10 -6 -18 -12 -18 -8 0 -8 -4 -1 -13 6 -7 12 -30 14
-52 2 -28 8 -41 21 -43 9 -2 17 1 17 7 0 6 -7 11 -15 11 -22 0 -20 66 3 79 15
9 15 10 0 11 -9 0 -19 8 -21 18 -4 16 -5 16 -6 0z"/>
<path d="M10021 2538 c0 -10 -6 -18 -12 -18 -8 0 -8 -4 -1 -13 6 -7 12 -30 14
-52 2 -28 8 -41 21 -43 9 -2 17 1 17 7 0 6 -7 11 -15 11 -22 0 -20 66 3 79 15
9 15 10 0 11 -9 0 -19 8 -21 18 -4 16 -5 16 -6 0z"/>
<path d="M11028 2533 c-3 -10 -2 -40 1 -68 4 -37 11 -51 24 -53 9 -2 17 1 17
7 0 6 -4 11 -10 11 -15 0 -12 77 3 83 10 4 10 6 0 6 -7 1 -13 8 -13 16 0 21
-17 19 -22 -2z"/>
<path d="M16121 2538 c0 -10 -6 -18 -12 -18 -8 0 -8 -4 -1 -13 6 -7 12 -30 14
-52 2 -28 8 -41 21 -43 9 -2 17 1 17 7 0 6 -7 11 -15 11 -22 0 -20 66 3 79 15
9 15 10 0 11 -9 0 -19 8 -21 18 -4 16 -5 16 -6 0z"/>
<path d="M16968 2533 c-2 -26 2 -74 7 -100 5 -23 45 -34 45 -13 0 6 -7 10 -15
10 -19 0 -21 60 -3 78 9 9 9 12 0 12 -7 0 -12 7 -12 15 0 21 -20 19 -22 -2z"/>
<path d="M17396 2521 c-3 -5 -15 -7 -26 -4 -33 9 -61 -24 -58 -67 3 -34 6 -37
35 -38 45 -2 63 20 61 73 -2 47 -3 50 -12 36z m-37 -47 c-13 -14 -25 -20 -27
-14 -7 20 7 40 29 40 l22 0 -24 -26z m31 -14 c0 -20 -25 -38 -37 -26 -5 5 24
46 34 46 1 0 3 -9 3 -20z"/>
<path d="M2567 2513 c-16 -15 -6 -44 18 -53 37 -14 32 -34 -6 -26 -27 5 -30 4
-19 -9 16 -19 44 -19 60 0 15 18 1 40 -31 50 -31 10 -22 28 11 22 31 -7 42 6
14 17 -20 8 -39 8 -47 -1z"/>
<path d="M2676 2498 c-21 -29 -20 -41 2 -68 15 -19 24 -22 48 -15 l29 9 -35 5
c-46 8 -48 35 -2 39 33 3 41 19 20 40 -19 19 -45 14 -62 -10z m54 -8 c0 -5
-12 -10 -26 -10 -14 0 -23 4 -19 10 3 6 15 10 26 10 10 0 19 -4 19 -10z"/>
<path d="M2886 2504 c-33 -33 -6 -102 35 -91 14 4 19 0 19 -15 0 -15 -6 -19
-27 -18 -42 3 -50 1 -33 -10 25 -16 59 -11 70 9 5 11 10 47 10 80 0 61 0 61
-29 61 -16 0 -37 -7 -45 -16z m54 -40 c0 -31 -3 -35 -22 -32 -39 5 -37 68 2
68 16 0 20 -6 20 -36z"/>
<path d="M3016 2504 c-32 -32 -10 -94 34 -94 10 0 22 5 25 10 4 6 -7 10 -24
10 -24 0 -31 4 -31 20 0 16 7 20 35 20 38 0 40 2 25 31 -13 23 -43 25 -64 3z
m54 -14 c0 -5 -11 -10 -25 -10 -14 0 -25 5 -25 10 0 6 11 10 25 10 14 0 25 -4
25 -10z"/>
<path d="M3328 2508 c7 -7 12 -26 12 -43 0 -17 -5 -36 -12 -43 -9 -9 -6 -12
17 -12 23 0 26 3 17 12 -7 7 -12 31 -12 55 0 34 -4 43 -17 43 -13 0 -14 -3 -5
-12z"/>
<path d="M3405 2464 c0 -43 3 -54 16 -54 14 0 16 8 11 45 -4 44 -4 45 23 45
27 0 27 -1 23 -45 -5 -38 -3 -45 12 -45 15 0 17 6 13 43 -7 55 -16 64 -61 64
l-37 0 0 -53z"/>
<path d="M3756 2504 c-34 -33 -7 -98 37 -92 12 2 28 15 36 29 13 24 13 29 -2
53 -20 29 -48 34 -71 10z m59 -39 c0 -25 -4 -30 -25 -30 -16 0 -26 6 -28 18
-6 30 6 49 30 45 18 -2 23 -9 23 -33z"/>
<path d="M3958 2508 c7 -7 12 -26 12 -43 0 -17 -5 -36 -12 -43 -9 -9 -6 -12
17 -12 23 0 26 3 17 12 -7 7 -12 31 -12 55 0 34 -4 43 -17 43 -13 0 -14 -3 -5
-12z"/>
<path d="M4048 2509 c-26 -15 -24 -75 3 -89 11 -7 27 -9 35 -6 9 4 14 -2 14
-15 0 -16 -6 -20 -27 -19 -42 3 -50 1 -33 -10 49 -31 80 2 80 86 0 63 0 64
-27 64 -16 0 -36 -5 -45 -11z m52 -44 c0 -30 -3 -35 -24 -35 -26 0 -40 23 -31
51 4 12 16 19 31 19 21 0 24 -5 24 -35z"/>
<path d="M4317 2502 c-22 -24 -21 -55 1 -75 35 -32 82 -10 82 38 0 49 -52 71
-83 37z m62 -21 c13 -24 -8 -55 -35 -49 -20 3 -30 29 -20 54 8 20 43 17 55 -5z"/>
<path d="M4445 2463 c0 -41 4 -53 15 -53 12 0 14 10 12 45 -4 40 -2 45 17 45
12 0 21 4 21 9 0 5 -15 9 -32 8 -33 -1 -33 -1 -33 -54z"/>
<path d="M4808 2508 c7 -7 12 -26 12 -43 0 -17 -5 -36 -12 -43 -9 -9 -6 -12
17 -12 23 0 26 3 17 12 -7 7 -12 31 -12 55 0 34 -4 43 -17 43 -13 0 -14 -3 -5
-12z"/>
<path d="M5079 2507 c15 -15 14 -70 -1 -85 -9 -9 -6 -12 17 -12 23 0 26 3 17
12 -20 20 -15 69 8 75 32 9 23 21 -16 21 -26 0 -33 -3 -25 -11z"/>
<path d="M5187 2478 c7 -65 9 -67 53 -66 32 0 40 4 36 15 -3 8 -6 32 -6 54 0
26 -4 39 -14 39 -10 0 -12 -11 -8 -46 5 -44 4 -46 -19 -42 -20 2 -24 9 -27 46
-2 23 -7 42 -12 42 -4 0 -6 -19 -3 -42z"/>
<path d="M5476 2498 c-21 -29 -20 -41 2 -68 15 -19 24 -22 48 -15 l29 9 -35 5
c-46 8 -48 35 -2 39 33 3 41 19 20 40 -19 19 -45 14 -62 -10z m54 -8 c0 -5
-12 -10 -26 -10 -14 0 -23 4 -19 10 3 6 15 10 26 10 10 0 19 -4 19 -10z"/>
<path d="M5595 2464 c0 -51 2 -54 25 -54 19 0 21 3 12 12 -20 20 -15 69 8 75
31 8 24 21 -12 21 l-33 0 0 -54z"/>
<path d="M5936 2504 c-32 -32 -10 -94 34 -94 10 0 22 5 25 10 4 6 -7 10 -24
10 -24 0 -31 4 -31 20 0 16 7 20 35 20 38 0 40 2 25 31 -13 23 -43 25 -64 3z
m54 -14 c0 -5 -11 -10 -25 -10 -14 0 -25 5 -25 10 0 6 11 10 25 10 14 0 25 -4
25 -10z"/>
<path d="M6055 2464 c0 -43 3 -54 16 -54 14 0 16 8 11 45 -4 41 -3 45 17 45
11 0 21 4 21 9 0 5 -15 9 -32 9 l-33 0 0 -54z"/>
<path d="M6170 2505 c-17 -21 -16 -64 3 -82 11 -11 23 -13 44 -8 l28 9 -35 5
c-46 8 -48 35 -2 39 33 3 41 19 20 40 -16 16 -43 15 -58 -3z m55 -15 c4 -6 -7
-10 -25 -10 -18 0 -29 4 -25 10 3 6 15 10 25 10 10 0 22 -4 25 -10z"/>
<path d="M6488 2507 c6 -7 12 -30 14 -52 3 -39 4 -40 43 -42 l40 -2 -3 55 c-3
35 -8 54 -17 54 -9 0 -11 -12 -7 -45 4 -43 4 -45 -22 -45 -24 0 -26 3 -26 45
0 35 -4 45 -16 45 -12 0 -14 -3 -6 -13z"/>
<path d="M6635 2464 c0 -43 3 -54 16 -54 14 0 16 8 11 45 -4 44 -4 45 23 45
27 0 27 -1 23 -45 -5 -38 -3 -45 12 -45 15 0 17 6 13 43 -7 55 -16 64 -61 64
l-37 0 0 -53z"/>
<path d="M6919 2507 c15 -15 14 -70 -1 -85 -9 -9 -6 -12 17 -12 23 0 26 3 17
12 -20 20 -15 69 8 75 32 9 23 21 -16 21 -26 0 -33 -3 -25 -11z"/>
<path d="M7036 2504 c-32 -32 -10 -94 34 -94 31 0 33 18 3 22 -17 2 -29 10
-31 21 -3 14 4 17 32 17 39 0 41 2 26 31 -13 23 -43 25 -64 3z m54 -14 c0 -5
-11 -10 -25 -10 -14 0 -25 5 -25 10 0 6 11 10 25 10 14 0 25 -4 25 -10z"/>
<path d="M7302 2508 c-17 -17 -15 -73 3 -88 10 -8 24 -9 42 -4 l28 8 -35 5
c-46 8 -48 35 -2 39 17 2 32 9 32 16 0 17 -21 36 -40 36 -9 0 -21 -5 -28 -12z
m53 -18 c4 -6 -7 -10 -25 -10 -18 0 -29 4 -25 10 3 6 15 10 25 10 10 0 22 -4
25 -10z"/>
<path d="M7484 2465 c11 -30 25 -53 30 -52 6 2 46 92 46 105 0 1 -7 2 -16 2
-9 0 -14 -6 -12 -12 3 -7 0 -29 -7 -48 l-12 -35 -12 37 c-7 21 -10 42 -6 48 3
5 -3 10 -13 10 -19 0 -19 -1 2 -55z"/>
<path d="M7605 2510 c-4 -6 5 -10 19 -10 36 0 34 -28 -1 -32 -20 -2 -29 -9
-31 -25 -3 -22 10 -29 58 -31 24 -1 25 1 22 41 -3 23 -9 48 -14 55 -12 14 -44
16 -53 2z m45 -65 c0 -16 -35 -21 -44 -6 -8 12 4 21 26 21 10 0 18 -7 18 -15z"/>
<path d="M7725 2463 c0 -41 4 -53 15 -53 12 0 14 10 12 45 -4 40 -2 45 17 45
12 0 21 4 21 9 0 5 -15 9 -32 8 -33 -1 -33 -1 -33 -54z"/>
<path d="M7828 2508 c7 -7 12 -26 12 -43 0 -17 -5 -36 -12 -43 -9 -9 -6 -12
17 -12 23 0 26 3 17 12 -7 7 -12 31 -12 55 0 34 -4 43 -17 43 -13 0 -14 -3 -5
-12z"/>
<path d="M7915 2511 c-4 -7 4 -11 19 -11 36 0 34 -28 -1 -32 -22 -2 -28 -8
-28 -28 0 -23 4 -25 43 -27 33 -1 41 1 33 10 -5 7 -11 30 -13 52 -2 32 -7 41
-25 43 -11 2 -24 -2 -28 -7z m45 -66 c0 -9 -9 -15 -25 -15 -24 0 -32 10 -18
23 12 13 43 7 43 -8z"/>
<path d="M8252 2508 c-17 -17 -15 -73 3 -88 10 -8 24 -9 42 -4 l28 8 -35 5
c-46 8 -48 35 -2 39 17 2 32 9 32 16 0 17 -21 36 -40 36 -9 0 -21 -5 -28 -12z
m53 -18 c4 -6 -7 -10 -25 -10 -18 0 -29 4 -25 10 3 6 15 10 25 10 10 0 22 -4
25 -10z"/>
<path d="M8375 2463 c0 -41 4 -53 15 -53 12 0 14 10 12 45 -4 40 -2 45 17 45
12 0 21 4 21 9 0 5 -15 9 -32 8 -33 -1 -33 -1 -33 -54z"/>
<path d="M8543 2513 c-22 -8 -14 -33 17 -51 38 -22 38 -36 0 -28 -36 7 -41
-11 -6 -20 31 -7 46 1 46 27 0 12 -10 23 -25 29 -14 5 -25 15 -25 21 0 7 10 9
25 7 28 -6 34 6 9 16 -18 7 -23 7 -41 -1z"/>
<path d="M8645 2511 c-3 -5 7 -11 22 -13 33 -4 34 -21 1 -28 -16 -4 -23 -13
-23 -30 0 -22 5 -25 36 -26 l37 -1 -5 41 c-3 23 -6 47 -9 54 -4 14 -50 16 -59
3z m55 -66 c0 -9 -9 -15 -25 -15 -24 0 -32 10 -18 23 12 13 43 7 43 -8z"/>
<path d="M8770 2506 c14 -14 13 -69 -2 -84 -9 -9 -6 -12 16 -12 24 0 26 2 17
14 -7 8 -11 27 -9 43 2 21 9 29 27 31 23 4 24 2 19 -42 -5 -39 -3 -46 12 -46
15 0 17 7 12 45 -4 44 -4 45 23 45 27 0 27 -1 23 -45 -5 -38 -3 -45 12 -45 14
0 16 6 10 45 -4 25 -10 48 -14 52 -4 4 -41 8 -82 9 -52 1 -72 -2 -64 -10z"/>
<path d="M9130 2505 c-15 -17 -6 -33 26 -45 35 -14 31 -34 -6 -26 -36 7 -41
-11 -6 -20 31 -7 46 1 46 27 0 12 -10 23 -25 29 -37 14 -32 34 6 26 27 -5 30
-4 19 9 -16 19 -44 19 -60 0z"/>
<path d="M9245 2511 c-4 -7 4 -11 19 -11 36 0 34 -28 -1 -32 -22 -2 -28 -8
-28 -28 0 -23 4 -25 43 -27 33 -1 41 1 33 10 -5 7 -11 30 -13 52 -2 32 -7 41
-25 43 -11 2 -24 -2 -28 -7z m45 -66 c0 -9 -9 -15 -25 -15 -24 0 -32 10 -18
23 12 13 43 7 43 -8z"/>
<path d="M9446 2504 c-31 -31 -15 -88 26 -89 13 -1 24 -4 26 -8 7 -22 -1 -29
-28 -25 -19 3 -29 1 -27 -6 5 -16 46 -19 63 -6 10 9 14 33 14 81 l0 69 -29 0
c-16 0 -37 -7 -45 -16z m59 -39 c0 -25 -4 -30 -25 -30 -16 0 -26 6 -28 18 -6
30 6 49 30 45 18 -2 23 -9 23 -33z"/>
<path d="M9570 2505 c-15 -17 -6 -33 26 -45 35 -14 31 -34 -6 -26 -37 7 -40
-11 -4 -20 34 -9 63 18 45 40 -7 8 -21 18 -32 21 -32 11 -22 28 12 21 27 -5
30 -4 19 9 -16 19 -44 19 -60 0z"/>
<path d="M9825 2465 c0 -42 3 -55 15 -55 12 0 14 11 12 55 -5 74 -27 74 -27 0z"/>
<path d="M9907 2513 c-15 -14 -6 -40 18 -51 36 -17 32 -36 -6 -28 -27 5 -30 4
-19 -9 15 -18 42 -19 58 -3 20 20 14 35 -18 48 -16 7 -30 17 -30 22 0 6 13 8
30 5 31 -7 42 6 14 17 -20 8 -39 8 -47 -1z"/>
<path d="M10107 2502 c-22 -24 -21 -55 1 -75 35 -32 82 -10 82 38 0 49 -52 71
-83 37z m62 -21 c13 -24 -8 -55 -35 -49 -20 3 -30 29 -20 54 8 20 43 17 55 -5z"/>
<path d="M10235 2464 c0 -43 3 -54 16 -54 14 0 16 8 11 45 -4 41 -3 45 17 45
11 0 21 4 21 9 0 5 -15 9 -32 9 l-33 0 0 -54z"/>
<path d="M10338 2508 c7 -7 12 -26 12 -43 0 -17 -5 -36 -12 -43 -9 -9 -6 -12
17 -12 23 0 26 3 17 12 -7 7 -12 31 -12 55 0 34 -4 43 -17 43 -13 0 -14 -3 -5
-12z"/>
<path d="M10702 2508 c-7 -7 -12 -26 -12 -43 0 -17 5 -36 12 -43 15 -15 54
-16 63 -2 4 6 -6 10 -23 10 -17 0 -32 6 -35 14 -8 20 1 26 39 26 28 0 32 3 27
18 -12 32 -48 43 -71 20z m53 -18 c4 -6 -7 -10 -25 -10 -18 0 -29 4 -25 10 3
6 15 10 25 10 10 0 22 -4 25 -10z"/>
<path d="M10825 2464 c0 -43 3 -54 16 -54 14 0 16 8 11 46 -5 44 -4 46 19 42
18 -2 25 -10 27 -31 2 -16 -2 -35 -9 -43 -9 -12 -7 -14 16 -14 21 0 25 3 17
13 -6 7 -12 30 -14 52 -3 39 -4 40 -43 42 l-40 2 0 -55z"/>
<path d="M11115 2465 c0 -47 3 -55 19 -55 12 0 16 5 12 16 -3 9 -6 33 -6 55 0
24 -5 39 -12 39 -9 0 -13 -18 -13 -55z"/>
<path d="M11336 2504 c-32 -32 -10 -94 34 -94 31 0 33 18 3 22 -17 2 -29 10
-31 21 -3 14 4 17 32 17 39 0 41 2 26 31 -13 23 -43 25 -64 3z m54 -14 c0 -5
-11 -10 -25 -10 -14 0 -25 5 -25 10 0 6 11 10 25 10 14 0 25 -4 25 -10z"/>
<path d="M11455 2465 c0 -47 3 -55 19 -55 12 0 16 5 12 16 -3 9 -6 33 -6 55 0
24 -5 39 -12 39 -9 0 -13 -18 -13 -55z"/>
<path d="M11542 2508 c-17 -17 -15 -73 3 -88 10 -8 24 -9 42 -4 l28 8 -35 5
c-46 8 -48 35 -2 39 17 2 32 9 32 16 0 17 -21 36 -40 36 -9 0 -21 -5 -28 -12z
m53 -18 c4 -6 -7 -10 -25 -10 -18 0 -29 4 -25 10 3 6 15 10 25 10 10 0 22 -4
25 -10z"/>
<path d="M11665 2463 c0 -41 4 -53 15 -53 12 0 14 10 11 46 -3 43 -2 45 20 42
18 -2 25 -10 27 -31 2 -16 -2 -35 -9 -43 -9 -12 -7 -14 16 -14 21 0 25 3 17
13 -6 7 -12 30 -14 52 -3 39 -4 40 -43 41 l-40 1 0 -54z"/>
<path d="M11958 2509 c-12 -6 -18 -22 -18 -45 0 -27 5 -37 24 -46 32 -14 54
-5 66 28 19 50 -26 90 -72 63z m57 -44 c0 -25 -4 -31 -26 -33 -29 -3 -44 18
-33 50 4 14 13 18 32 16 23 -2 27 -8 27 -33z"/>
<path d="M12080 2506 c14 -14 13 -69 -2 -84 -9 -9 -6 -12 16 -12 24 0 26 2 17
14 -7 8 -11 27 -9 43 2 21 9 29 27 31 23 4 24 2 19 -42 -5 -39 -3 -46 12 -46
15 0 17 7 12 45 -4 44 -4 45 23 45 27 0 27 -1 23 -45 -5 -38 -3 -45 12 -45 14
0 16 6 10 45 -4 25 -10 48 -14 52 -4 4 -41 8 -82 9 -52 1 -72 -2 -64 -10z"/>
<path d="M12297 2513 c-15 -14 -6 -40 18 -51 36 -17 32 -36 -6 -28 -27 5 -30
4 -19 -9 15 -18 42 -19 58 -3 20 20 14 35 -18 48 -16 7 -30 17 -30 22 0 6 13
8 30 5 31 -7 42 6 14 17 -20 8 -39 8 -47 -1z"/>
<path d="M12405 2463 c0 -41 4 -53 15 -53 12 0 14 10 11 46 -3 43 -2 45 20 42
18 -2 25 -10 27 -31 2 -16 -2 -35 -9 -43 -9 -12 -7 -14 16 -14 23 0 25 2 16
14 -7 8 -11 27 -9 43 2 21 9 29 27 31 23 4 24 2 19 -42 -5 -39 -3 -46 12 -46
15 0 17 6 13 43 -3 23 -10 47 -15 52 -5 6 -39 10 -76 11 l-67 1 0 -54z"/>
<path d="M12622 2508 c-7 -7 -12 -26 -12 -43 0 -17 5 -36 12 -43 15 -15 54
-16 63 -2 4 6 -6 10 -23 10 -17 0 -32 6 -35 14 -8 20 1 26 39 26 28 0 32 3 27
18 -12 32 -48 43 -71 20z m53 -18 c4 -6 -7 -10 -25 -10 -18 0 -29 4 -25 10 3
6 15 10 25 10 10 0 22 -4 25 -10z"/>
<path d="M12752 2508 c-17 -17 -15 -73 3 -88 8 -7 24 -10 36 -7 15 4 19 1 17
-11 -2 -11 -16 -19 -38 -22 -31 -5 -33 -7 -12 -14 53 -18 72 9 72 102 l0 52
-33 0 c-18 0 -38 -5 -45 -12z m58 -43 c0 -30 -3 -35 -24 -35 -26 0 -40 23 -31
51 4 12 16 19 31 19 21 0 24 -5 24 -35z"/>
<path d="M12960 2505 c-17 -21 -16 -64 3 -82 11 -11 23 -13 44 -8 l28 9 -35 5
c-46 8 -48 35 -2 39 33 3 41 19 20 40 -16 16 -43 15 -58 -3z m55 -15 c4 -6 -7
-10 -25 -10 -18 0 -29 4 -25 10 3 6 15 10 25 10 10 0 22 -4 25 -10z"/>
<path d="M13079 2507 c15 -15 14 -70 -1 -85 -9 -9 -6 -12 17 -12 23 0 26 3 17
12 -20 20 -15 69 8 75 32 9 23 21 -16 21 -26 0 -33 -3 -25 -11z"/>
<path d="M13185 2464 c0 -43 3 -54 16 -54 14 0 16 8 11 45 -4 44 -4 45 23 45
27 0 27 -1 23 -45 -5 -38 -3 -45 12 -45 15 0 17 6 13 43 -7 55 -16 64 -61 64
l-37 0 0 -53z"/>
<path d="M13342 2508 c-17 -17 -15 -73 3 -88 10 -8 24 -9 42 -4 l28 8 -35 5
c-46 8 -48 35 -2 39 17 2 32 9 32 16 0 17 -21 36 -40 36 -9 0 -21 -5 -28 -12z
m53 -18 c4 -6 -7 -10 -25 -10 -18 0 -29 4 -25 10 3 6 15 10 25 10 10 0 22 -4
25 -10z"/>
<path d="M13520 2505 c-15 -17 -6 -33 26 -45 35 -14 31 -34 -6 -26 -37 7 -40
-11 -4 -20 34 -9 63 18 45 40 -7 8 -21 18 -32 21 -32 11 -22 28 12 21 27 -5
30 -4 19 9 -16 19 -44 19 -60 0z"/>
<path d="M13637 2502 c-22 -24 -21 -55 1 -75 35 -32 82 -10 82 38 0 49 -52 71
-83 37z m62 -21 c13 -24 -8 -55 -35 -49 -20 3 -30 29 -20 54 8 20 43 17 55 -5z"/>
<path d="M13765 2463 c0 -41 4 -53 15 -53 12 0 14 10 11 46 -3 43 -2 45 20 42
18 -2 25 -10 27 -31 2 -16 -2 -35 -9 -43 -9 -12 -7 -14 16 -14 23 0 25 2 16
14 -7 8 -11 27 -9 43 2 21 9 29 27 31 23 4 24 2 19 -42 -5 -39 -3 -46 12 -46
15 0 17 6 13 43 -3 23 -10 47 -15 52 -5 6 -39 10 -76 11 l-67 1 0 -54z"/>
<path d="M14042 2508 c-17 -17 -15 -73 3 -88 8 -7 24 -10 36 -7 15 4 19 1 17
-11 -2 -11 -16 -19 -38 -22 -31 -5 -33 -7 -12 -14 53 -18 72 9 72 102 l0 52
-33 0 c-18 0 -38 -5 -45 -12z m58 -43 c0 -30 -3 -35 -24 -35 -26 0 -40 23 -31
51 4 12 16 19 31 19 21 0 24 -5 24 -35z"/>
<path d="M14165 2464 c0 -43 3 -54 16 -54 14 0 16 8 11 45 -4 41 -3 45 17 45
11 0 21 4 21 9 0 5 -15 9 -32 9 l-33 0 0 -54z"/>
<path d="M14268 2478 c5 -56 15 -67 64 -66 28 0 37 3 29 11 -6 6 -11 30 -11
54 0 34 -4 43 -17 43 -13 0 -14 -3 -5 -12 7 -7 12 -27 12 -45 0 -29 -3 -33
-25 -33 -23 0 -25 4 -25 45 0 30 -4 45 -13 45 -9 0 -11 -13 -9 -42z"/>
<path d="M14415 2464 c0 -43 3 -54 16 -54 14 0 16 8 11 46 -5 44 -4 46 19 42
21 -3 24 -8 23 -45 -1 -34 3 -43 16 -43 14 0 16 7 10 43 -9 59 -15 66 -58 65
l-37 0 0 -54z"/>
<path d="M14565 2463 c0 -41 4 -53 15 -53 12 0 14 10 11 46 -3 43 -2 45 20 42
18 -2 25 -10 27 -31 2 -16 -2 -35 -9 -43 -9 -12 -7 -14 16 -14 21 0 25 3 17
13 -6 7 -12 30 -14 52 -3 39 -4 40 -43 41 l-40 1 0 -54z"/>
<path d="M14795 2511 c-4 -7 4 -11 19 -11 36 0 34 -28 -1 -32 -22 -2 -28 -8
-28 -28 0 -23 4 -25 43 -27 33 -1 41 1 33 10 -5 7 -11 30 -13 52 -2 32 -7 41
-25 43 -11 2 -24 -2 -28 -7z m45 -66 c0 -9 -9 -15 -25 -15 -24 0 -32 10 -18
23 12 13 43 7 43 -8z"/>
<path d="M14913 2494 c-15 -24 -15 -29 -2 -53 11 -18 23 -26 42 -26 29 1 31
-2 18 -24 -6 -8 -19 -12 -35 -9 -17 4 -25 1 -23 -6 5 -16 46 -20 63 -6 10 9
14 33 14 81 l0 69 -30 0 c-21 0 -35 -8 -47 -26z m67 -30 c0 -33 -2 -35 -27
-32 -47 5 -45 68 2 68 22 0 25 -4 25 -36z"/>
<path d="M15198 2509 c-27 -15 -24 -75 3 -90 36 -19 69 3 69 45 0 47 -34 68
-72 45z m57 -28 c9 -28 -5 -51 -30 -51 -25 0 -39 23 -30 51 4 12 16 19 30 19
14 0 26 -7 30 -19z"/>
<path d="M15315 2464 c0 -51 2 -54 25 -54 19 0 21 3 12 12 -20 20 -15 69 8 75
31 8 24 21 -12 21 l-33 0 0 -54z"/>
<path d="M15473 2506 c3 -8 11 -33 18 -55 7 -23 17 -40 22 -38 7 2 47 91 47
105 0 1 -7 2 -16 2 -8 0 -13 -4 -10 -9 3 -5 0 -26 -8 -47 l-13 -39 -12 37 c-7
21 -10 42 -6 48 3 5 -1 10 -10 10 -11 0 -15 -5 -12 -14z"/>
<path d="M15605 2510 c-4 -6 5 -10 19 -10 16 0 26 -6 26 -15 0 -9 -9 -15 -25
-15 -14 0 -28 -7 -31 -15 -10 -24 14 -43 50 -42 33 1 34 1 28 41 -2 23 -9 47
-15 54 -11 14 -43 16 -52 2z m53 -62 c-7 -20 -48 -23 -48 -4 0 11 9 16 26 16
16 0 24 -5 22 -12z"/>
<path d="M15725 2464 c0 -43 3 -54 16 -54 14 0 16 8 11 45 -4 41 -3 45 17 45
11 0 21 4 21 9 0 5 -15 9 -32 9 l-33 0 0 -54z"/>
<path d="M15888 2508 c7 -7 12 -26 12 -43 0 -17 -5 -36 -12 -43 -9 -9 -6 -12
17 -12 23 0 26 3 17 12 -7 7 -12 31 -12 55 0 34 -4 43 -17 43 -13 0 -14 -3 -5
-12z"/>
<path d="M15965 2464 c0 -43 3 -54 16 -54 14 0 16 8 11 46 -5 44 -4 46 19 42
21 -3 24 -8 23 -45 -1 -34 3 -43 16 -43 14 0 16 7 10 43 -9 59 -15 66 -58 65
l-37 0 0 -54z"/>
<path d="M16206 2498 c-21 -29 -20 -41 2 -68 15 -19 24 -22 48 -15 l29 9 -35
5 c-46 8 -48 35 -2 39 33 3 41 19 20 40 -19 19 -45 14 -62 -10z m54 -8 c0 -5
-12 -10 -26 -10 -14 0 -23 4 -19 10 3 6 15 10 26 10 10 0 19 -4 19 -10z"/>
<path d="M16485 2465 c0 -47 3 -55 19 -55 12 0 16 5 12 16 -3 9 -6 33 -6 55 0
24 -5 39 -12 39 -9 0 -13 -18 -13 -55z"/>
<path d="M16572 2508 c-17 -17 -15 -73 3 -88 8 -7 24 -10 36 -7 15 4 19 1 17
-11 -2 -11 -16 -19 -38 -22 -31 -5 -33 -7 -12 -14 53 -18 72 9 72 102 l0 52
-33 0 c-18 0 -38 -5 -45 -12z m58 -43 c0 -30 -3 -35 -24 -35 -26 0 -40 23 -31
51 4 12 16 19 31 19 21 0 24 -5 24 -35z"/>
<path d="M16702 2508 c-17 -17 -15 -73 3 -88 10 -8 24 -9 42 -4 l28 8 -35 5
c-46 8 -48 35 -2 39 17 2 32 9 32 16 0 17 -21 36 -40 36 -9 0 -21 -5 -28 -12z
m53 -18 c4 -6 -7 -10 -25 -10 -18 0 -29 4 -25 10 3 6 15 10 25 10 10 0 22 -4
25 -10z"/>
<path d="M16825 2463 c0 -41 4 -53 15 -53 12 0 14 10 11 46 -3 43 -2 45 20 42
18 -2 25 -10 27 -31 2 -16 -2 -35 -9 -43 -9 -12 -7 -14 16 -14 21 0 25 3 17
13 -6 7 -12 30 -14 52 -3 39 -4 40 -43 41 l-40 1 0 -54z"/>
<path d="M17062 2508 c-7 -7 -12 -26 -12 -43 0 -17 5 -36 12 -43 15 -15 54
-16 63 -2 4 6 -6 10 -23 10 -17 0 -32 6 -35 14 -8 20 1 26 39 26 28 0 32 3 27
18 -12 32 -48 43 -71 20z m53 -18 c4 -6 -7 -10 -25 -10 -18 0 -29 4 -25 10 3
6 15 10 25 10 10 0 22 -4 25 -10z"/>
<path d="M17457 2513 c-15 -14 -6 -40 18 -51 36 -17 32 -36 -6 -28 -27 5 -30
4 -19 -9 15 -18 42 -19 58 -3 20 20 14 35 -18 48 -16 7 -30 17 -30 22 0 6 13
8 30 5 31 -7 42 6 14 17 -20 8 -39 8 -47 -1z"/>
<path d="M17565 2463 c0 -41 4 -53 15 -53 12 0 14 10 11 46 -3 43 -2 45 20 42
18 -2 25 -10 27 -31 2 -16 -2 -35 -9 -43 -9 -12 -7 -14 16 -14 21 0 25 3 17
13 -6 7 -12 30 -14 52 -3 39 -4 40 -43 41 l-40 1 0 -54z"/>
<path d="M17708 2508 c7 -7 12 -26 12 -43 0 -17 -5 -36 -12 -43 -9 -9 -6 -12
17 -12 23 0 26 3 17 12 -7 7 -12 31 -12 55 0 34 -4 43 -17 43 -13 0 -14 -3 -5
-12z"/>
<path d="M17785 2464 c0 -43 3 -54 16 -54 14 0 16 8 11 45 -4 44 -4 45 23 45
27 0 27 -1 23 -45 -5 -38 -3 -45 12 -45 15 0 17 6 13 43 -7 55 -16 64 -61 64
l-37 0 0 -53z"/>
<path d="M17942 2508 c-17 -17 -15 -73 3 -88 8 -7 24 -10 36 -7 15 4 19 1 17
-11 -2 -11 -16 -19 -38 -22 -31 -5 -33 -7 -12 -14 53 -18 72 9 72 102 l0 52
-33 0 c-18 0 -38 -5 -45 -12z m58 -43 c0 -30 -3 -35 -24 -35 -26 0 -40 23 -31
51 4 12 16 19 31 19 21 0 24 -5 24 -35z"/>
<path d="M4530 2425 c0 -8 5 -15 10 -15 6 0 10 7 10 15 0 8 -4 15 -10 15 -5 0
-10 -7 -10 -15z"/>
<path d="M18060 2426 c0 -9 5 -16 10 -16 6 0 10 4 10 9 0 6 -4 13 -10 16 -5 3
-10 -1 -10 -9z"/>
<path d="M10102 2281 c-54 -14 -49 -21 16 -21 112 0 201 -50 248 -140 14 -26
19 -57 19 -125 0 -76 -4 -98 -25 -140 -14 -28 -40 -60 -60 -74 l-35 -24 30 7
c54 12 108 58 138 116 26 50 28 62 25 140 -6 126 -49 195 -148 239 -52 22
-160 34 -208 22z"/>
<path d="M9311 1945 c-50 -14 -175 -74 -168 -81 1 -2 32 6 67 17 130 41 268
25 360 -42 85 -62 151 -207 151 -334 0 -79 -15 -127 -58 -184 -29 -38 -19 -34
42 14 86 69 120 184 91 308 -32 136 -105 240 -202 287 -63 30 -202 37 -283 15z"/>
<path d="M11570 1677 c3 -3 39 -31 80 -64 82 -65 171 -168 218 -253 67 -119
90 -296 57 -423 -43 -167 -189 -357 -350 -455 -91 -56 -167 -75 -275 -69 -52
3 -106 8 -120 12 -50 13 47 -34 127 -61 63 -22 96 -27 168 -27 145 1 246 47
379 173 121 115 201 244 232 377 31 130 0 300 -78 430 -67 112 -226 261 -341
320 -49 24 -105 48 -97 40z"/>
<path d="M10095 1525 c34 -33 34 -84 -1 -119 -25 -25 -26 -26 -6 -26 12 0 33
11 48 24 38 32 38 90 -1 123 -14 13 -35 23 -45 23 -17 0 -17 -2 5 -25z"/>
<path d="M9915 1268 c-39 -21 -77 -64 -102 -113 -14 -27 -50 -75 -80 -105
l-56 -55 79 -3 c44 -2 89 -1 100 2 13 4 38 33 63 76 23 38 50 74 59 79 10 5
46 9 80 8 l62 -2 0 -33 c0 -40 -24 -99 -51 -128 l-21 -22 21 -7 c16 -5 21 -15
22 -43 1 -36 2 -35 14 16 7 28 20 70 29 92 23 57 21 131 -4 163 -11 14 -20 30
-20 36 0 6 -15 20 -32 31 -37 22 -129 27 -163 8z"/>
<path d="M10512 1211 l-84 -28 -124 -212 c-122 -206 -124 -212 -115 -249 10
-34 18 -41 107 -85 l97 -48 -7 -57 c-3 -31 -9 -78 -12 -103 l-6 -45 48 -10
c40 -7 52 -15 68 -44 51 -87 10 -217 -84 -268 -38 -20 -55 -23 -113 -19 l-68
4 22 -23 c21 -22 30 -24 132 -24 93 0 113 3 137 20 57 40 87 153 60 224 -9 25
-7 26 68 50 67 22 72 25 40 26 -29 0 -49 10 -96 50 -33 27 -67 61 -76 74 -20
31 -22 86 -2 86 8 0 17 11 20 25 6 24 279 335 319 364 17 12 19 22 14 67 -3
30 -4 54 -2 54 2 0 18 -24 35 -52 39 -64 76 -97 110 -98 22 0 28 6 38 45 18
67 2 92 -118 200 -97 86 -106 92 -122 78 -10 -8 -24 -13 -33 -9 -12 4 -14 0
-10 -17 21 -99 26 -185 15 -259 -7 -43 -16 -80 -20 -83 -11 -7 -130 330 -130
366 0 35 -3 35 -108 0z m-86 -373 c-3 -13 -6 -44 -6 -70 0 -27 -3 -48 -7 -48
-5 1 -20 11 -35 23 l-27 22 32 47 c34 51 53 62 43 26z"/>
<path d="M9485 941 c-17 -7 -15 -9 16 -20 82 -27 111 -113 61 -180 -26 -36
-20 -39 25 -11 39 24 54 50 55 99 1 82 -82 141 -157 112z"/>
<path d="M10907 522 c-26 -26 -47 -56 -47 -66 0 -10 8 -47 17 -82 16 -60 19
-64 46 -64 47 0 115 21 133 41 16 18 15 23 -24 102 -22 46 -49 91 -60 100 -17
16 -20 14 -65 -31z"/>
<path d="M9280 228 c0 -26 23 -95 52 -161 l31 -67 128 0 129 0 0 24 c0 21 -8
27 -57 41 -74 22 -128 54 -178 105 -35 36 -83 70 -100 70 -3 0 -5 -6 -5 -12z"/>
<path d="M9728 52 c-54 -1 -98 -7 -98 -12 0 -36 11 -40 117 -40 l104 0 -3 27
c-4 31 4 29 -120 25z"/>
</g>
</svg>
