<svg id="Lager_1" data-name="Lager 1" xmlns="http://www.w3.org/2000/svg" viewBox="0 0 874.61 1086.74"><defs><style>.cls-1,.cls-2{fill:none;stroke-miterlimit:10;stroke-width:3px;}.cls-1{stroke:#787878;}.cls-2{stroke:#49796b;}</style></defs><polyline class="cls-1" points="530.46 439.37 530.46 552.33 530.46 569.53"/><polyline class="cls-1" points="2.28 95.64 40.15 117.59 64.9 131.93 72.39 136.28 88.29 145.49 90.14 146.57 104.75 155.03 106.65 156.13 112.98 159.8 121.82 164.93 137.01 173.73 138.19 174.42 153.51 183.3 154.37 183.79 170.28 193.02 170.64 193.22 186.27 202.29 186.97 202.69 202.9 211.93 203.63 212.35 218.67 221.06 219.63 221.62 235.81 231 251.83 240.28 252.17 240.48 268.71 250.07 268.98 250.22 269.31 250.41 284.04 258.95 284.53 259.24 284.71 259.34 300.67 268.59 301.07 268.82 316.28 277.64 301.07 286.7 300.25 287.19 284.71 296.45 284.14 296.79 268.71 305.98 267.61 306.64 252.32 315.74 236.08 325.42 222.28 333.64 219.63 332.15 205.4 324.17 203.63 323.18 188.5 314.69 187.01 313.85 173.53 306.29 170.28 304.46 156.01 296.46 139.6 287.25 122.37 277.58 106.48 268.67 104.75 267.7 89.14 258.93 88.29 258.46 73.7 250.28 72.39 249.54 56.51 240.63 40.5 231.64 16.09 217.95 1.28 209.64"/><line class="cls-1" x1="16.78" y1="105.14" x2="1.78" y2="115.14"/><polyline class="cls-1" points="41.78 119.14 40.15 120.13 0.78 144.14"/><polyline class="cls-1" points="64.78 132.14 40.21 146.73 0.78 170.14"/><polyline class="cls-1" points="89.78 147.14 88.29 148 72.39 157.22 40.3 175.82 1.78 198.14"/><polyline class="cls-1" points="112.78 160.14 104.75 164.94 88.29 174.78 72.39 184.29 40.42 203.41 16.09 217.95 15.78 218.14"/><polyline class="cls-1" points="153.78 183.14 153.51 183.3 138.19 192.3 137.51 192.7 121.94 201.85 121.29 202.23 104.75 211.95 104.7 211.98 89.25 221.06 88.29 221.62 73.31 230.42 72.39 230.97 56.78 240.14"/><polyline class="cls-1" points="170.78 193.14 170.64 193.22 170.28 193.43 154.62 202.64 154.37 202.78 138.4 212.17 138.19 212.29 122.01 221.8 121.82 221.91 106.37 230.99 104.75 231.94 90.42 240.36 88.29 241.61 73.78 250.14"/><polyline class="cls-1" points="185.78 203.14 170.59 211.91 170.28 212.09 154.37 221.27 154.22 221.36 138.19 230.61 137.49 231.02 121.91 240.02 105.82 249.3 104.75 249.92 89.14 258.93 88.78 259.14"/><polyline class="cls-1" points="202.78 212.14 186.97 221.36 186.92 221.39 170.64 230.89 170.28 231.1 154 240.6 138.49 249.64 122.49 258.98 106.78 268.14"/><polyline class="cls-1" points="218.54 221.29 203.63 229.99 202.68 230.54 186.98 239.7 186.4 240.04 170.28 249.44 169.75 249.75 154.25 258.79 138.25 268.13 122.54 277.29"/><polyline class="cls-1" points="235.54 231.29 219.79 240.48 219.63 240.57 203.63 249.9 203.51 249.98 186.99 259.61 186.87 259.68 171.36 268.73 170.28 269.36 155.36 278.06 139.6 287.25 139.54 287.29"/><polyline class="cls-1" points="252.24 240.04 252.17 240.08 251.83 240.28 235.81 249.62 235.68 249.7 219.63 259.06 219.4 259.2 203.63 268.4 202.75 268.91 187.25 277.95 187 278.1 171.25 287.29 170.28 287.85 156.24 296.04"/><polyline class="cls-1" points="269.45 250.33 269.31 250.41 268.71 250.76 253.14 259.84 252.17 260.41 236.86 269.34 235.81 269.95 220.22 279.05 219.63 279.39 204.71 288.09 203.63 288.73 188.71 297.43 187.01 298.42 173.53 306.29 173.45 306.33"/><polyline class="cls-1" points="284.17 258.88 284.04 258.95 268.71 267.9 267.87 268.39 252.17 277.55 251.58 277.89 235.81 287.09 234.94 287.6 219.63 296.53 219.43 296.64 203.63 305.86 203.43 305.98 188.5 314.69 188.17 314.88"/><polyline class="cls-1" points="301.16 268.31 301.07 268.36 300.67 268.59 284.71 277.91 284.48 278.04 268.71 287.24 268.2 287.54 252.17 296.89 251.56 297.25 236.05 306.29 235.81 306.43 220.05 315.62 219.63 315.87 205.4 324.17 205.16 324.31"/><path class="cls-1" d="M38.75-.48s0,57.87.12,115.43v2.54c0,9,0,17.91.06,26.6,0,10.15,0,20,.09,29.09,0,10.25.07,19.63.12,27.59.09,16.92.21,27.73.36,27.73l16.69-9.91,14.92-8.86,1.36-.8L87,200.29l.41-.24,16-9.53.75-.45,16.38-9.72,14.9-8.85" transform="translate(1.28 2.64)"/><polyline class="cls-1" points="56.57 2.88 56.57 12.76 56.57 88.81 56.57 89.53 72.39 98.62 88.29 107.76 104.75 117.23 121.7 126.97 122.86 127.64 138.19 136.45 139.16 137.01 154.37 145.75 170.28 154.9 186.95 164.48 203.63 174.07 219.63 183.27 219.81 183.37 235.63 174.02 219.63 164.75 203.63 155.48 186.94 145.82 170.28 136.16 155.33 127.5 154.37 126.95 139.22 118.17 138.19 117.58 121.64 107.99 104.75 98.21 88.29 88.67 72.39 79.46"/><polyline class="cls-1" points="72.75 79.1 72.39 79.32 56.93 88.81"/><polyline class="cls-1" points="88.29 2.88 88.29 13.06 88.29 13.18 88.29 88.67 88.29 107.76 88.29 145.49 88.29 148 88.29 174.78 88.29 202.93 88.29 220.5 88.29 221.62 88.29 239.12 88.29 241.61 88.29 258.46 88.29 296.69 88.29 315.26 88.29 317.25 88.29 335.65 88.29 411.17 88.29 429.85 88.29 430.98 88.29 448.6 88.29 562.18 88.29 580.65 88.29 601.17 88.29 619.14 88.29 676.17 88.29 694.47 88.29 694.76 88.29 712.35 88.29 713.68 88.29 808.32 88.29 825.66 88.29 827.87 88.29 845.51 88.29 845.97 88.29 902.38 88.29 921.26 88.29 958.61 88.29 959.2 88.29 978.07 88.29 1082.61"/><polyline class="cls-1" points="104.75 2.52 104.75 98.21 104.75 117.23 104.75 138.11 104.75 155.03 104.75 164.94 104.75 193.16 104.75 211.95 104.75 212 104.75 230.05 104.75 231.94 104.75 248.68 104.75 249.92 104.75 267.7 104.75 306.28 104.75 307.61 104.75 324.86 104.75 345.19 104.75 420.68 104.75 421.47 104.75 439.4 104.75 458.08 104.75 571.65 104.75 590.18 104.75 592.13 104.75 610.06 104.75 628.57 104.75 666.55 104.75 684.98 104.75 685.08 104.75 704.03 104.75 721.94 104.75 798.75 104.75 818.39 104.75 834.96 104.75 949.63 104.75 968.1 104.75 987.43 104.75 1086.74"/><polyline class="cls-1" points="170.28 0 170.28 80.9 170.28 100.2 170.28 118.71 170.28 136.16 170.28 154.9 170.28 193.02 170.28 193.43 170.28 211.73 170.28 212.09 170.28 230.68 170.28 231.1 170.28 249.44 170.28 250.05 170.28 268.1 170.28 269.36 170.28 286.73 170.28 287.85 170.28 304.46 170.28 363.09 170.28 383.16 170.28 383.61 170.28 439.91 170.28 458.54 170.28 477.4 170.28 495.85 170.28 534.29 170.28 554.04 170.28 609.38 170.28 628.11 170.28 628.22 170.28 647.53 170.28 665.89 170.28 742.2 170.28 760.09 170.28 760.67 170.28 780.69 170.28 836.31 170.28 854.97 170.28 873.7 170.28 912.08 170.28 1005.89 170.28 1024.66 170.28 1084.04"/><polyline class="cls-1" points="57.29 221.12 57.47 221.23 72.39 229.89 73.31 230.42 88.29 239.12 90.42 240.36 104.75 248.68 105.82 249.3 122.49 258.98 138.25 268.13 155.36 278.06 170.28 286.73 171.25 287.29 187.01 296.44 188.71 297.43 203.43 305.98 203.63 306.09 219.63 315.38 220.05 315.62 235.63 324.67"/><polyline class="cls-1" points="252.53 315.86 252.32 315.74 252.11 315.62 236.05 306.29 235.81 306.15 219.63 296.76 219.43 296.64 204.71 288.09 203.63 287.47 187.25 277.95 187 277.81 171.36 268.73 170.28 268.1 154.25 258.79 138.49 249.64 121.91 240.02 106.37 230.99 104.75 230.05 89.25 221.06 88.29 220.5 74.19 212.31"/><polyline class="cls-1" points="88.57 202.61 88.7 202.69 104.7 211.98 104.75 212 121.82 221.91 137.49 231.02 154 240.6 169.75 249.75 170.28 250.05 186.87 259.68 186.99 259.76 202.75 268.91 203.63 269.42 219.63 278.71 220.22 279.05 234.94 287.6 235.81 288.1 251.56 297.25 252.17 297.6 266.56 305.96 266.91 306.16"/><polyline class="cls-1" points="105.83 193.26 121.29 202.23 121.95 202.62 138.19 212.05 138.4 212.17 154.22 221.36 154.37 221.44 170.28 230.68 170.64 230.89 186.4 240.04 186.98 240.38 203.51 249.98 203.63 250.05 219.4 259.2 219.63 259.34 235.81 268.73 236.86 269.34 251.58 277.89 252.17 278.23 268.2 287.54 268.71 287.83 284.14 296.79 284.17 296.81"/><polyline class="cls-1" points="122.37 183.91 137.51 192.7 138.19 193.1 154.37 202.49 154.62 202.64 170.28 211.73 170.59 211.91 186.92 221.39 186.97 221.42 202.68 230.54 203.63 231.09 219.63 240.38 219.79 240.48 235.68 249.7 235.81 249.78 252.17 259.28 253.14 259.84 267.87 268.39 268.71 268.88 284.48 278.04 284.71 278.17 300.25 287.19 300.71 287.46"/><polyline class="cls-1" points="121.29 2.88 121.64 107.99 121.7 126.97 121.7 128.31 121.76 147.24 121.82 164.93 121.88 182.99 121.89 183.91 121.94 201.85 121.95 202.62 122.01 221.8 122.01 221.84"/><polyline class="cls-1" points="138.19 2.88 138.19 117.58 138.19 118.77 138.19 136.45 138.19 137.58 138.19 174.42 138.19 192.3 138.19 193.1 138.19 212.05 138.19 212.29 138.19 230.61 138.19 231.19"/><polyline class="cls-1" points="154.37 2.16 154.37 109.4 154.37 126.95 154.37 128.06 154.37 145.75 154.37 183.79 154.37 202.49 154.37 202.78 154.37 221.27 154.37 221.44 154.37 221.48"/><polyline class="cls-1" points="72.39 1082.61 72.39 969.04 72.39 968.43 72.39 930.92 72.39 911.07 72.39 910.96 72.39 893.13 72.39 854.97 72.39 837.02 72.39 817.56 72.39 816.66 72.39 723 72.39 704.11 72.39 703.1 72.39 685.47 72.39 610.12 72.39 571.45 72.39 553.02 72.39 440.17 72.39 420.63 72.39 401.98 72.39 326.55 72.39 326.44 72.39 307.19 72.39 305.98 72.39 287.43 72.39 249.54 72.39 230.97 72.39 229.89 72.39 212.37 72.39 184.29 72.39 157.22 72.39 136.28 72.39 98.62 72.39 79.46 72.39 79.32 72.39 22.65 72.39 2.88 88.29 13.06 88.39 13.12 88.29 13.18 72.39 22.65 56.8 12.61 56.75 12.58"/><polyline class="cls-1" points="56.57 12.76 56.8 12.61 72.21 2.7"/><polyline class="cls-1" points="89.29 147.06 90.14 146.57 104.75 138.11 121.7 128.31 122.86 127.64 138.19 118.77 139.22 118.17 154.37 109.4 170.28 100.2 186.92 90.57 187.14 90.44 203.52 80.96 203.63 80.9"/><polyline class="cls-1" points="106.19 156.4 106.65 156.13 121.76 147.24 138.19 137.58 139.16 137.01 154.37 128.06 155.33 127.5 170.28 118.71 186.93 108.92 202.74 99.62 203.63 99.09 219.35 89.85 219.63 89.68 235.81 80.17 252.17 70.54 268.71 60.82 284.71 51.41 301.07 41.79 317.97 31.85 318.32 31.64"/><polyline class="cls-1" points="202.73 99.6 187.14 90.44 186.92 90.31 170.91 80.9 186.91 71.73 203.52 80.96 203.63 81.02 219.27 89.71"/><polyline class="cls-1" points="186.91 71.73 186.92 90.31 186.92 90.57 186.93 108.92 186.94 145.82 186.95 164.48 186.97 202.69 186.97 221.36 186.97 221.42 186.98 239.7 186.98 240.38 186.99 259.61 186.99 259.76 187 277.81 187 278.1 187.01 296.44 187.01 298.42 187.01 313.85 187.04 372.87 187.04 373.92 187.05 392.87 187.08 468.25 187.09 487.15 187.1 505.54 187.11 524.96 187.11 544.26 187.11 544.28 187.15 619.09 187.16 637.88 187.16 656.79 187.2 732.28 187.2 750.84 187.2 751.32 187.21 769.94 187.21 770.94 187.24 826.48 187.25 845.18 187.26 883.45 187.27 902.01 187.27 902.21 187.27 902.47"/><polyline class="cls-1" points="203.63 80.9 203.63 81.02 203.63 99.09 203.63 155.48 203.63 174.07 203.63 212.35 203.63 229.99 203.63 231.09 203.63 249.9 203.63 250.05 203.63 268.4 203.63 269.42 203.63 287.47 203.63 288.73 203.63 305.86 203.63 306.09 203.63 323.18 203.63 364.34 203.63 382.55 203.63 402.48 203.63 477.81 203.63 496.74 203.63 515.07 203.63 515.45 203.63 534.65 203.63 553.68 203.63 628.58 203.63 647.18 203.63 647.42 203.63 741.52 203.63 760.63"/><polyline class="cls-1" points="219.63 1.26 219.63 13.3 219.63 32.36 219.63 51.06 219.63 69.75 219.63 89.68 219.63 107.86 219.63 126.92 219.63 145.62 219.63 164.67 219.63 164.75 219.63 183.27 219.63 202.43 219.63 220.84 219.63 221.62 219.63 240.38 219.63 240.57 219.63 259.06 219.63 259.34 219.63 278.71 219.63 279.39 219.63 296.53 219.63 296.76 219.63 315.38 219.63 315.87 219.63 332.15 219.63 355.09 219.63 391.88 219.63 411.75 219.63 487.05 219.63 506.02 219.63 506.24 219.63 524.29 219.63 525.35 219.63 562.77 219.63 637.79 219.63 637.85 219.63 656.68 219.63 750.38"/><polyline class="cls-1" points="235.81 1.26 235.81 4.09 235.81 23.14 235.81 41.81 235.81 60.72 235.81 80.17 235.81 98.76 235.81 117.69 235.81 136.37 235.81 155.39 235.81 174.02 235.81 193.08 235.81 193.15 235.81 211.55 235.81 230.83 235.81 231 235.81 231.29 235.81 249.62 235.81 249.78 235.81 268.73 235.81 269.95 235.81 287.09 235.81 288.1 235.81 306.15 235.81 306.43 235.81 324.97 235.81 325.21"/><polyline class="cls-1" points="252.17 315.51 252.17 297.6 252.17 296.89 252.17 278.23 252.17 277.55 252.17 260.41 252.17 259.28 252.17 240.48 252.17 240.08 252.17 221.53 252.17 202.47 252.17 202.16 252.17 183.77 252.17 164.75 252.17 146.02 252.17 127.03 252.17 108.36 252.17 89.35 252.17 70.54 252.17 51.38 252.17 32.25 252.17 13.6 252.17 1.08"/><polyline class="cls-1" points="268.71 0.9 268.71 3.95 268.71 22.58 268.71 41.94 268.71 60.82 268.71 79.83 268.71 98.93 268.71 117.58 268.71 136.54 268.71 155.28 268.71 174.28 268.71 192.66 268.71 192.69 268.71 211.97 268.71 212.02 268.71 230.81 268.71 250.07 268.71 250.76 268.71 267.9 268.71 268.88 268.71 287.24 268.71 287.83 268.71 305.98 268.71 307.32 268.71 326.74 268.71 420.52 268.71 440.19 268.71 477.98 268.71 496.8 268.71 515.41 268.71 515.53 268.71 534.48 268.71 534.62 268.71 552.69 268.71 590.68 268.71 609.61 268.71 666.05 268.71 685.08 268.71 722.7 268.71 817.64 268.71 855.21 268.71 930.19 268.71 949.63 268.71 969.64 268.71 1044.5 268.71 1063.37"/><polyline class="cls-1" points="284.71 1.44 284.71 13.23 284.71 32.8 284.71 51.41 284.71 70.63 284.71 89.8 284.71 108.43 284.71 127.36 284.71 146.12 284.71 165.11 284.71 183.48 284.71 183.85 284.71 201.94 284.71 202.82 284.71 221.15 284.71 221.64 284.71 240.78 284.71 259.14 284.71 259.34 284.71 277.91 284.71 278.17 284.71 296.45 284.71 317.12 284.71 317.49 284.71 429.85 284.71 449.46 284.71 486.93 284.71 487.5 284.71 506.07 284.71 524.65 284.71 525.24 284.71 543.76 284.71 561.91 284.71 599.78 284.71 600.4 284.71 675.26 284.71 694.35 284.71 713.45 284.71 731.85 284.71 732.58"/><polygon class="cls-1" points="316.89 732.22 301.07 722.99 284.71 713.45 284.53 713.35 269.25 722.7 284.71 731.85 285.33 732.22 301.07 741.54 301.43 741.75 316.89 732.22"/><polyline class="cls-1" points="284.71 732.58 285.33 732.22 301.07 723.06"/><polyline class="cls-1" points="301.07 0.54 301.07 3.67 301.07 23.46 301.07 41.79 301.07 61.22 301.07 80.47 301.07 99.08 301.07 117.98 301.07 136.75 301.07 155.72 301.07 174.09 301.07 193.42 301.07 211.4 301.07 212.27 301.07 230.55 301.07 231.06 301.07 249.76 301.07 268.36 301.07 268.4 301.07 268.82 301.07 286.7 301.07 308.04 301.07 325.21 301.07 439.4 301.07 458.94 301.07 477.98 301.07 496.18 301.07 496.4 301.07 515.65 301.07 534.11 301.07 553.25 301.07 571.33 301.07 684.68 301.07 703.82 301.07 722.99 301.07 723.06 301.07 741.54 301.07 836.26 301.07 836.62 301.07 948.77 301.07 968.47 301.07 988.57 301.07 1025.78 301.07 1045.52 301.07 1082.43 269.92 1064.08 268.71 1063.37"/><polyline class="cls-1" points="219.81 13.3 235.81 4.09 238.86 2.34"/><polyline class="cls-1" points="219.99 32.36 235.81 23.14 252.17 13.6 268.71 3.95 270.86 2.7"/><polyline class="cls-1" points="219.99 51.06 235.81 41.81 252.17 32.25 268.71 22.58 284.71 13.23 301.07 3.67 303.04 2.52"/><polyline class="cls-1" points="219.99 69.75 235.81 60.72 252.17 51.38 268.71 41.94 284.71 32.8 301.07 23.46 317.61 14.02"/><polyline class="cls-1" points="219.99 107.86 235.81 98.76 252.17 89.35 268.71 79.83 284.71 70.63 301.07 61.22 317.79 51.6"/><polyline class="cls-1" points="219.63 126.92 235.81 117.69 252.17 108.36 268.71 98.93 284.71 89.8 301.07 80.47 317.97 70.83"/><polyline class="cls-1" points="219.63 145.62 235.81 136.37 252.17 127.03 268.71 117.58 284.71 108.43 301.07 99.08 317.79 89.53"/><polyline class="cls-1" points="219.63 164.67 235.81 155.39 252.17 146.02 268.71 136.54 284.71 127.36 301.07 117.98 317.79 108.4"/><polyline class="cls-1" points="235.99 174.02 252.17 164.75 268.71 155.28 284.71 146.12 301.07 136.75 317.61 127.28"/><polyline class="cls-1" points="219.63 202.43 235.81 193.15 235.87 193.12 252.17 183.77 252.81 183.4 268.71 174.28 284.71 165.11 301.07 155.72 317.43 146.34"/><polyline class="cls-1" points="219.45 220.94 219.63 220.84 235.81 211.55 251.9 202.31 252.17 202.16 268.68 192.68 268.71 192.66 284.71 183.48 301.07 174.09 317.79 164.49"/><polyline class="cls-1" points="235.99 230.83 252.17 221.53 268.71 212.02 268.76 211.99 284.71 202.82 285.48 202.38 300.23 193.9 301.07 193.42 317.61 183.91"/><polyline class="cls-1" points="252.89 183.55 268.68 192.68 268.71 192.69 284.71 201.94 285.48 202.38 301.07 211.4 301.83 211.83 317.82 221.07 317.82 221.08 317.97 221.16 384.69 259.72 399.58 268.33 414.32 276.85 399.58 287.1 368.34 269.17 317.97 240.25 317.81 240.15 301.51 230.8 301.07 230.55 285.13 221.4 284.71 221.15 268.76 211.99 268.71 211.97 252.17 202.47 251.9 202.31 235.87 193.12 235.81 193.08"/><polyline class="cls-1" points="284.53 183.73 284.71 183.85 300.17 193.8"/><polyline class="cls-1" points="252.35 240.18 268.71 230.81 284.71 221.64 285.13 221.4 301.07 212.27 301.83 211.83 317.61 202.79"/><polyline class="cls-1" points="269.07 250.07 284.71 240.78 301.07 231.06 301.51 230.8 317.79 221.12"/><polyline class="cls-1" points="284.53 259.24 284.71 259.14 301.07 249.76 317.79 240.18"/><line class="cls-1" x1="301.07" y1="268.4" x2="317.79" y2="259.24"/><polyline class="cls-1" points="3 247.01 72.39 287.43 88.18 296.63 88.29 296.69 104.75 306.28 105.47 306.7"/><polyline class="cls-1" points="88.12 296.72 73.36 306.55 72.39 307.19 56.93 317.48 72.39 326.44 72.49 326.5 88.29 335.65 104.75 345.19 170.28 383.16 170.67 383.38 187.05 392.87 203.63 402.48 219.63 411.75 268.71 440.19 284.71 449.46 301.07 458.94 333.07 477.48 317.19 486.87 301.26 496.29 301.07 496.4 284.71 506.07 268.81 515.47 268.71 515.53 252.53 525.1 252.35 525.2 236.98 534.29 220.54 524.82 219.63 524.29 203.96 515.26 203.63 515.07 187.1 505.54 170.28 495.85 153.92 486.42 138.55 477.56 122.1 468.08 104.75 458.08 88.29 448.6 73.03 439.8 72.75 439.64"/><polyline class="cls-1" points="139.49 287.28 104.75 307.61 89.99 316.25 88.29 317.25 72.49 326.5 72.39 326.55 56.91 335.61 7.54 364.51 3.58 366.83"/><polyline class="cls-1" points="3.85 362.38 7.54 364.51 56.85 393 72.39 401.98 88.29 411.17 104.75 420.68 105.44 421.08 138.02 439.9 138.29 440.05 153.92 449.09 155.35 449.91 170.28 458.54 187.08 468.25 203.63 477.81 219.63 487.05 236.26 496.66 252.66 506.14 268.71 515.41 268.81 515.47 284.71 524.65 285.21 524.94 301.07 534.11 317.61 543.66 333.07 552.59 350.32 562.56 367.86 572.69 416.09 600.56 431.59 609.52 432.08 609.8"/><polyline class="cls-1" points="4.08 479.64 56.79 449.18 72.39 440.17 73.03 439.8 88.29 430.98 89.27 430.42 104.75 421.47 105.44 421.08 170.28 383.61 170.67 383.38 187.04 373.92 187.95 373.4 203.63 364.34 219.63 355.09 268.71 326.74 284.71 317.49 301.07 308.04 317.97 298.27 368.34 269.17 384.69 259.72 399.58 251.12 416.3 241.46 431.58 232.63 432.48 233.14 448.39 242.24 595.18 326.11 432.48 420.48 350.32 468.13 301.07 439.4 284.71 429.85 268.71 420.52 219.63 391.88 203.63 382.55 187.95 373.4 187.04 372.87 170.28 363.09 104.75 324.86 89.99 316.25 88.29 315.26 73.36 306.55 72.39 305.98 3.36 265.71"/><polyline class="cls-1" points="266.55 305.98 267.61 306.64 268.71 307.32 284.53 317.12"/><polyline class="cls-1" points="56.93 317.48 56.91 335.61 56.85 393 56.83 411.61 56.79 449.18 56.69 543.99 56.67 562.35 56.62 619.25 56.54 694.75 56.52 713.44 56.5 732.31 56.42 807.63 56.4 826.85 56.38 846.23 56.34 883.7 56.32 901.79 56.3 922.07 72.39 930.92 72.48 930.97 88.12 921.26 72.48 911.01 72.39 911.07 56.3 922.07"/><polyline class="cls-1" points="4.26 513.8 56.69 543.99 72.39 553.02 88.29 562.18 104.75 571.65 122.1 581.64 122.45 581.84 138.55 591.11 153.92 599.96 170.28 609.38 186.51 618.72 187.15 619.09 203.63 628.58 219.63 637.79 219.68 637.82 236.98 647.78 252.35 656.63 268.71 666.05 284.71 675.26 301.07 684.68 317.61 694.2 301.7 704.18 301.07 703.82 284.71 694.35 268.71 685.08 252.35 675.62 236.98 666.72 219.63 656.68 203.63 647.42 203.43 647.3 187.16 637.88 170.37 628.16 170.28 628.11 153.92 618.64 138.55 609.75 122.1 600.22 106.43 591.15 104.75 590.18 88.29 580.65 72.39 571.45 56.67 562.35 3.99 531.86"/><polyline class="cls-1" points="4.26 381.12 56.83 411.61 72.39 420.63 88.29 429.85 89.27 430.42 104.75 439.4 122.1 449.46 138.46 458.95 140.38 460.06 153.92 467.91 170.28 477.4 187.09 487.15 203.63 496.74 219.63 506.02 219.82 506.13 236.27 515.67 252.35 524.99 252.53 525.1 268.71 534.48 268.83 534.55 284.71 543.76 301.07 553.25 317.61 562.84 333.07 571.8 350.32 581.81 367.88 591.99 399.28 610.2 415.28 619.48 416.12 619.97 431.13 628.67"/><polyline class="cls-1" points="138.55 1084.22 138.55 1006.63 138.55 987.59 138.55 929.99 138.55 854.07 138.55 798.94 138.55 779.11 138.55 741.61 138.55 684.22 138.55 647.95 138.55 646.78 138.55 629.39 138.55 609.75 138.55 591.11 138.55 572.48 138.55 477.56 138.55 461.3 140.38 460.06 153.92 450.88 155.35 449.91 170.1 439.91 153.92 430.74 138.28 439.75 138.02 439.9 122.1 449.08 122.1 449.46 122.1 468.08 122.1 581.64 122.1 582.05 122.1 600.22 122.1 619.98 122.1 638.52 122.1 656.4 122.1 693.86 122.1 732.04 122.1 788.67 122.1 808.41 122.1 844.77 122.1 939.55 122.1 978.11 122.1 997.28 122.1 1084.22"/><polyline class="cls-1" points="153.92 430.74 153.92 449.09 153.92 450.88 153.92 467.91 153.92 486.42 153.92 563.55 153.92 599.96 153.92 618.64 153.92 637.79 153.92 638.18 153.92 656.77 153.92 675.21 153.92 750.56 153.92 770.18 153.92 790.1 153.92 845.79 153.92 864.36 153.92 921.06 153.92 996.46 153.92 1015.36 153.92 1084.22"/><polyline class="cls-1" points="138.28 439.64 138.28 439.75 138.29 440.05 138.55 458.79"/><polyline class="cls-1" points="301.7 496.54 301.26 496.29 301.07 496.18 285.2 487.21 284.71 486.93 268.8 477.93 268.71 477.98 236.26 496.66 219.82 506.13 219.63 506.24 203.96 515.26 203.63 515.45 187.11 524.96 170.91 534.29 187.09 544.27 187.11 544.26 203.63 534.65 219.63 525.35 220.54 524.82 236.27 515.67 252.66 506.14 268.71 496.8 284.71 487.5 285.2 487.21 301.07 477.98 301.16 477.93 317.19 486.87 317.61 487.1 317.61 505.95 317.61 543.66 317.61 562.84 317.61 580.86 317.61 694.2 317.61 713.35 317.61 732.22 317.61 827.12 317.61 845.78 317.61 958.26 317.61 978.11 317.61 998.24 317.61 1016.22 317.61 1035.67 317.61 1084.4"/><polyline class="cls-1" points="236.98 534.29 236.98 572.64 236.98 627.87 236.98 647.78 236.98 666.72 236.98 798.29 236.98 816.47 236.98 873.45 236.98 911.98 236.98 931.16 236.98 951.09 236.98 1044.36 236.98 1062.56"/><polyline class="cls-1" points="252.35 524.85 252.35 524.99 252.35 525.2 252.35 543.73 252.35 581.38 252.35 619.02 252.35 656.63 252.35 675.62 252.35 808.22 252.35 864.61 252.35 920.8 252.35 940.11 252.35 960.08 252.35 1053.12 252.35 1053.95 252.35 1073.08"/><polyline class="cls-1" points="317.97 316.04 399.58 363.01 415.88 372.39 416.3 372.63 432.3 381.84 416.3 391.09 416.12 391.19 399.57 381.67 301.43 325.21 317.97 316.04 317.97 298.27 317.97 277.64 317.97 259.24 317.97 240.25 317.97 221.16 317.97 202.79 317.97 183.91 317.97 164.49 317.97 146.34 317.97 127.28 317.97 108.4 317.97 89.53 317.97 70.83 317.97 51.6 317.97 31.85 317.97 14.02 317.97 0.72"/><polyline class="cls-1" points="399.58 2.52 399.58 251.12 399.58 268.33 399.58 287.1 399.58 363.01 399.58 381.66 415.88 372.39 416.3 372.15 432.48 362.94 432.75 362.79 448.12 372.22 432.48 381.73 432.3 381.84"/><polyline class="cls-1" points="416.3 2.52 416.3 241.46 416.3 276.85 416.3 372.15 416.3 372.63 416.3 391.09 416.3 391.19"/><polyline class="cls-1" points="448.39 2.52 448.39 242.24 448.39 372.22"/><polyline class="cls-1" points="432.48 2.52 432.48 233.14 432.48 362.94 432.48 381.73 432.48 420.48 432.48 440.31 432.48 495.46 432.48 514.95 432.48 534.7 432.48 591.77 432.48 608.98 432.48 628.04 432.48 761.12 432.48 892.9 432.48 949.89 432.48 968.07 432.48 1005.82 432.48 1043.59 432.48 1063.85 432.48 1085.75"/><polygon class="cls-1" points="399.04 627.78 416.03 637.57 416.12 637.52 431.2 628.78 432.48 628.04 447.04 619.6 512.84 581.48 432.48 534.7 367.78 497.04 350.32 486.88 350.24 486.83 333.07 496.89 317.61 505.95 301.07 515.65 285.21 524.94 284.71 525.24 268.83 534.55 268.71 534.62 253.16 543.73 268.71 552.69 284.71 561.91 301.07 571.33 317.61 580.86 333.07 589.77 350.32 599.71 367.9 609.84 399.04 627.78"/><polygon class="cls-1" points="187.2 732.28 187.09 732.22 171.18 742.2 186.79 751.08 187.2 751.32 203.61 760.66 204.35 761.08 219.72 750.56 219.57 750.48 203.63 741.52 203.21 741.28 187.2 732.28"/><polyline class="cls-1" points="3.45 857.62 7.74 855.13 56.4 826.85 72.39 817.56 73.17 817.11 88.29 808.32 104.75 798.75 122.1 788.67 138.55 779.11 153.92 770.18 170.28 760.67 170.78 760.38 186.79 751.08 187.2 750.84 203 741.66"/><polyline class="cls-1" points="4.26 876.22 7.89 874.13 24.15 864.77 56.38 846.23 57.16 845.78 72.39 837.02 73.81 836.2 88.29 827.87 90.23 826.75 104.75 818.39 122.1 808.41 138.55 798.94 153.92 790.1 170.28 780.69 187.21 770.94 188.07 770.45 204.35 761.08"/><polyline class="cls-1" points="3.72 852.76 7.74 855.13 24.15 864.77 56.34 883.7 72.39 893.13 88.12 902.38 72.48 911.01 72.39 910.96 56.32 901.79 7.89 874.13 3.99 871.91"/><polyline class="cls-1" points="73.56 836.04 73.81 836.2 88.29 845.51 88.66 845.75 88.29 845.97 72.75 855.19 72.39 854.97 57.16 845.78 57.11 845.75"/><polygon class="cls-1" points="219.63 637.85 219.18 638.11 203.63 647.18 203.43 647.3 187.16 656.79 186.82 656.99 170.28 647.53 153.92 638.18 153.58 637.98 138.55 629.39 122.1 619.98 104.75 610.06 89.2 601.17 104.75 592.13 106.43 591.15 122.1 582.05 122.45 581.84 138.55 572.48 153.92 563.55 170.28 554.04 187.09 544.27 187.11 544.28 203.63 553.68 219.63 562.77 236.98 572.64 252.35 581.38 268.71 590.68 284.71 599.78 285.25 600.09 284.71 600.4 268.71 609.61 252.35 619.02 236.98 627.87 219.68 637.82 219.63 637.85"/><polyline class="cls-1" points="186.55 618.7 186.51 618.72 170.37 628.16 170.28 628.22 153.92 637.79 153.58 637.98 138.55 646.78 137.53 647.37 122.1 656.4 104.75 666.55 88.97 675.78 88.29 676.17 72.58 685.36 72.39 685.47 57.29 694.3 56.54 694.75 3.99 725.48"/><polyline class="cls-1" points="3.99 649.71 56.62 619.25 72.39 610.12 72.48 610.07 88.29 619.14 104.75 628.57 122.1 638.52 137.53 647.37 138.55 647.95 153.92 656.77 169.83 665.89 153.92 675.21 138.55 684.22 122.1 693.86 104.75 704.03 89.42 713.01 88.29 713.68 72.39 723 56.5 732.31 3.72 763.24"/><polyline class="cls-1" points="88.66 675.6 88.97 675.78 104.75 684.98 104.84 685.03 104.75 685.08 88.29 694.76 73.25 703.6 72.39 704.11 56.52 713.44 3.45 744.63"/><polyline class="cls-1" points="72.48 685.3 72.58 685.36 88.12 694.47"/><polyline class="cls-1" points="57.11 694.2 57.29 694.3 72.39 703.1 73.25 703.6 88.29 712.35 89.42 713.01 104.75 721.94 122.1 732.04 138.55 741.61 153.92 750.56 170.28 760.09 170.78 760.38 187.21 769.94 188.07 770.45 235.9 798.29 187.24 826.48 170.28 836.31 153.92 845.79 139.09 854.38 138.55 854.07 122.1 844.77 104.75 834.96 90.23 826.75 88.29 825.66 73.17 817.11 72.39 816.66 56.42 807.63 3.18 777.53"/><polyline class="cls-1" points="333.07 477.48 333.07 496.89 333.07 552.59 333.07 571.8 333.07 589.77 333.07 722.26 333.07 818.24 333.07 854.67 333.07 949.93 333.07 967.14 333.07 987.11 333.07 1007.28 317.61 1016.22 301.07 1025.78 268.71 1044.5 252.35 1053.95 237.1 1062.77 204.35 1081.71"/><polygon class="cls-2" points="612.62 336.36 774.95 430.74 644.44 505.94 612.62 524.27 595.18 534.32 547.08 562.04 530.64 571.51 530.46 571.41 432.48 514.95 367.76 477.66 432.48 440.31 595.18 346.42 612.62 336.36"/><polyline class="cls-2" points="873.11 637.84 774.95 693.93 710.24 656.4 693.21 646.52 613.16 600.09 693.02 553.51 710.24 543.46 774.95 580.96 873.11 637.84 873.11 902.65 775.49 958.74 774.95 958.43 726.06 929.93 646.2 883.39 628.98 873.35 612.85 863.95 612.62 863.82 612.62 844.51 612.62 788.95 612.62 751.41 612.62 600.09 612.62 581.19 612.62 524.27 612.62 487.36 612.62 336.36"/><polyline class="cls-2" points="774.95 430.74 774.95 580.96 774.95 693.93 774.95 845.44 774.95 958.43 774.95 958.74 726.06 987.23 628.98 1043.81 611.72 1053.87 559.72 1084.18"/><polyline class="cls-2" points="873.11 902.65 774.95 845.44 710.24 807.73 693.62 817.33 628.98 854.64 612.85 863.95 596.1 873.62 578.7 883.67 530.46 911.51 512.84 921.68 447.04 959.67 432.48 968.07 416.12 977.52 399.04 987.37 383.73 996.21 368.3 1005.12 368.28 987.48 368.28 987.35 368.22 929.84 368.17 874.87 368.09 798.12 368.03 742.4 367.9 609.84 367.88 591.99 367.86 572.69 367.78 497.04 367.76 477.66"/><polyline class="cls-2" points="710.24 543.46 710.24 656.4 710.24 807.73"/><polyline class="cls-1" points="301.7 704.18 317.61 713.35 333.07 722.26 350.32 732.2 368.03 742.4 399.04 760.27"/><polyline class="cls-1" points="399.04 1084.94 399.04 1044.45 399.04 1023.55 399.04 1005 399.04 987.37 399.04 969.47 399.04 912.23 399.04 892.64 399.04 780.33 399.04 760.27 399.04 627.78 399.04 610.34 399.28 610.2 416.09 600.56 416.12 600.54 431.94 591.46 432.48 591.77 447.04 600.09 432.48 608.98 431.59 609.52 416.12 618.96 415.28 619.48 415.22 619.51"/><polyline class="cls-1" points="416.12 604.31 416.12 618.96 416.12 619.97 416.12 637.52 416.12 770.52 416.12 902.47 416.12 959.47 416.12 977.52 416.12 1014.8 416.12 1033.78 416.12 1054.36 416.12 1085.75"/><polyline class="cls-1" points="692.98 534.29 612.62 581.19 596.26 590.74 595.18 590.11 547.08 562.04 530.46 552.33 433.02 495.46 530.46 439.37 595.18 477.17 612.62 487.36 644.44 505.94 692.98 534.29 693.02 553.51 693.21 646.52 693.52 797.48 612.62 751.41 595.18 741.48 530.64 704.72 530.46 704.82 512.84 714.95 447.04 752.75 432.59 761.05 432.48 761.12 416.12 770.52 399.04 780.33 368.09 798.12 350.32 808.32 333.07 818.24 317.61 827.12 301.39 836.44 301.07 836.62 268.71 855.21 252.35 864.61 236.98 873.45 203.43 892.72 187.27 902.01 187.09 902.11 187.27 902.21 236.98 931.16 252.35 940.11 268.71 949.63 301.07 968.47 317.61 978.11 333.07 987.11 350.32 997.15 351.04 997.57 368.28 987.48 368.39 987.41 399.04 969.47 416.12 959.47 432.48 949.89 447.04 941.37 512.84 902.85 530.46 892.54 562.08 874.03 579.36 863.91 595.18 854.65 595.18 799.02 595.18 741.48 595.18 590.11 595.18 534.32 595.18 477.17 595.18 346.42 595.18 326.11"/><polyline class="cls-2" points="530.46 570.79 530.46 571.41 530.46 704.82 530.46 817.42 530.46 835.95 530.46 855.68 530.46 892.54 530.46 911.51 530.46 949.52 530.46 1084.22"/><line class="cls-1" x1="530.46" y1="569.53" x2="530.46" y2="570.79"/><polyline class="cls-1" points="512.84 581.48 512.84 714.95 512.84 807.29 512.84 845.87 512.84 902.85 512.84 921.68 512.84 959.64 512.84 1085.3"/><polyline class="cls-1" points="628.98 1081.17 628.98 1063.6 628.98 1043.81 628.98 892.7 628.98 873.35 628.98 854.64 628.98 835 628.98 779.51 676.55 807.34 693.62 817.33 726.06 836.31 726.06 929.93 726.06 987.23 726.06 1081.89"/><polyline class="cls-1" points="726.06 836.31 646.2 883.39 629.7 893.12 628.98 892.7 596.1 873.62 579.36 863.91 531.18 835.95 546.9 826.88 595.18 799.02 612.62 788.95 628.98 779.51"/><polyline class="cls-1" points="693.52 797.48 676.55 807.34 628.98 835 612.62 844.51 595.18 854.65 546.9 826.88 530.46 817.42 512.84 807.29 447.04 769.44 432.66 761.17"/><polyline class="cls-1" points="611.72 902.83 530.46 949.52 512.84 959.64 447.04 997.45 432.48 1005.82 416.48 1015.01 416.12 1014.8 399.04 1005 383.73 996.21 368.39 987.41 368.28 987.35 350.32 977.04 333.07 967.14 318.05 958.51 317.61 958.26 301.07 948.77 268.71 930.19 252.35 920.8 236.98 911.98 203.43 892.72 187.26 883.45 170.28 873.7 154.01 864.36 170.28 854.97 187.25 845.18 236.98 816.47 251.81 807.91 252.35 808.22 268.71 817.64 301.07 836.26 301.39 836.44 317.61 845.78 333.07 854.67 350.32 864.6 368.17 874.87 399.04 892.64 416.12 902.47 432.48 892.9 447.04 884.38 512.84 845.87 513.2 845.66 530.46 855.68 562.08 874.03 578.7 883.67 611.72 902.83 611.72 1053.87 611.72 1073.25 611.72 1081.89"/><polyline class="cls-1" points="416.12 902.47 399.04 912.23 368.22 929.84 350.32 940.07 333.07 949.93 318.05 958.51 317.97 958.56"/><polyline class="cls-1" points="333.07 1007.28 317.61 998.24 301.07 988.57 268.71 969.64 252.35 960.08 236.98 951.09 170.28 912.08 169.83 911.82 153.92 921.06 138.55 929.99 122.1 939.55 104.75 949.63 88.8 958.9 88.29 959.2 72.39 968.43 71.86 968.74 3.36 1008.54"/><line class="cls-1" x1="4.08" y1="1041.98" x2="72.03" y2="1081.53"/><polyline class="cls-1" points="236.98 1062.56 170.28 1024.66 153.92 1015.36 138.55 1006.63 122.1 997.28 104.75 987.43 88.29 978.07 72.39 969.04 71.86 968.74 71.67 968.63"/><polyline class="cls-1" points="252.17 1053.12 236.98 1044.36 170.28 1005.89 153.92 996.46 138.55 987.59 122.1 978.11 104.75 968.1 88.8 958.9 88.29 958.61 88.21 958.56"/><polyline class="cls-1" points="234.91 1084.94 253.63 1073.79 269.92 1064.08 301.07 1045.52 317.61 1035.67 350.32 1016.18 350.32 997.15 350.32 977.04 350.32 940.07 350.32 864.6 350.32 808.32 350.32 732.2 350.32 599.71 350.32 581.81 350.32 562.56 350.32 486.88 350.32 468.13"/><polyline class="cls-1" points="350.32 1016.18 399.04 1044.45 416.12 1054.36 432.48 1063.85 447.04 1072.29 463.58 1081.89"/><polyline class="cls-2" points="500.71 1084.49 447.04 1052.32 432.48 1043.59 416.12 1033.78 399.04 1023.55 368.3 1005.12"/><polyline class="cls-1" points="252.35 1073.08 253.63 1073.79 268.35 1081.89"/><polyline class="cls-1" points="447.04 600.09 447.04 619.6 447.04 752.75 447.04 769.44 447.04 884.38 447.04 941.37 447.04 959.67 447.04 997.45 447.04 1052.32 447.04 1072.29 447.04 1084.4"/><polyline class="cls-1" points="660.35 1082.25 628.98 1063.6 611.72 1073.25 595.63 1082.25"/></svg>