<?xml version="1.0" encoding="utf-8"?>
<!-- Generator: Adobe Illustrator 24.1.1, SVG Export Plug-In . SVG Version: 6.00 Build 0)  -->
<svg version="1.1" id="Lager_1" xmlns="http://www.w3.org/2000/svg" xmlns:xlink="http://www.w3.org/1999/xlink" x="0px" y="0px"
	 width="500px" height="500px" viewBox="0 0 500 500" style="enable-background:new 0 0 500 500;" xml:space="preserve">
<style type="text/css">
	.st0{fill:#313639;}
</style>
<g>
	<path class="st0" d="M0,372.7c71.8-47.4,144.2-87.2,217.6-113.4l67.1,104.2l69.4-34.7l-57.9-99.5c4.2-5.5,12.1-8.4,23.1-9.3
		l60.2,94.9l70.1-37.3L408.9,210c27.4-6.5,57.2-6.6,89.1-0.8l-31.6-47.4c0,0-225.1,41.2-428.6,173.1l99.9-217.2l68.3,113.2
		c24.6-15.4,49.8-26.7,75.7-33.3L231.7,106l-108.2,0.8L0,372.7z"/>
	<path class="st0" d="M260.8,109.3l44.1,79.1C328.8,176.7,351,169,379,163l-33.3-56.2L260.8,109.3z"/>
</g>
</svg>
