<?xml version="1.0" encoding="utf-8"?>
<!-- Generator: Adobe Illustrator 24.1.1, SVG Export Plug-In . SVG Version: 6.00 Build 0)  -->
<svg version="1.1" id="Lager_1" xmlns="http://www.w3.org/2000/svg" xmlns:xlink="http://www.w3.org/1999/xlink" x="0px" y="0px"
	 width="500px" height="500px" viewBox="0 0 500 500" style="enable-background:new 0 0 500 500;" xml:space="preserve">
<style type="text/css">
	.st0{fill:#DE5D83;}
</style>
<g>
	<path class="st0" d="M27,366c66.2-43.7,133-80.5,200.7-104.6l61.9,96.1l64.1-32l-53.4-91.8c3.8-5,11.2-7.7,21.4-8.5l55.5,87.6
		l64.7-34.4L404.2,216c25.3-6,52.8-6,82.2-0.8l-29.2-43.8c0,0-207.7,38-395.4,159.7l92.1-200.4l63,104.4
		c22.7-14.2,46-24.6,69.9-30.7L240.7,120l-99.8,0.8L27,366z"/>
	<path class="st0" d="M267.6,123.1l40.7,72.9c22.1-10.8,42.5-17.9,68.4-23.4l-30.7-51.8L267.6,123.1z"/>
</g>
</svg>
