<?xml version="1.0" encoding="utf-8"?>
<!-- Generator: Adobe Illustrator 24.1.1, SVG Export Plug-In . SVG Version: 6.00 Build 0)  -->
<svg version="1.1" xmlns="http://www.w3.org/2000/svg" xmlns:xlink="http://www.w3.org/1999/xlink" x="0px" y="0px" width="500px"
	 height="500px" viewBox="0 0 500 500" style="enable-background:new 0 0 500 500;" xml:space="preserve">
<style type="text/css">
	.st0{opacity:0.55;fill:#989DA6;}
	.st1{fill:#4C484D;}
	.st2{fill:#CCADA3;}
	.st3{fill:#D1B2AA;}
	.st4{opacity:0.42;}
	.st5{fill:#9E6C71;}
	.st6{fill:#857B77;}
	.st7{fill:#D9D0C8;}
	.st8{fill:#C9AAA1;}
	.st9{opacity:0.74;}
	.st10{fill:#443334;}
	.st11{fill:#B4606E;}
	.st12{fill:#DEA6AF;}
	.st13{fill:#DED0D3;}
	.st14{fill:#51585E;}
	.st15{fill:#8D6363;}
	.st16{fill:#7F5C5C;}
	.st17{fill:#6D6664;}
	.st18{fill:#D8B6A9;}
	.st19{fill:#484349;}
	.st20{fill:#AA5B6C;}
	.st21{opacity:0.87;fill:#E2B0BA;}
</style>
<g id="Lager_1">
	<rect x="-2.1" y="-1" class="st0" width="503.7" height="504.8"/>
</g>
<g id="Lager_2">
	<g>
		<path class="st1" d="M500.5,505.9c1.1-8.6-0.7-18.2,0.3-26.9c1.5-12.1,2.6-25.7-5.1-35.2c-9.7-12-27.8-11.1-43.3-11.5
			c-18.7-0.4-37.3-4.2-54.7-11.1c-7-2.8-13.9-6.2-21.4-7.7c-15.9-3.3-32.1,1.8-48,4.9c-45.6,9-92.8,1.6-139.2,4
			c-16.1,0.9-32.1,2.9-48.1,4.9c-38.9,5-77.7,9.9-116.6,14.9c-6.8,0.9-18.4,1.9-23.7,5.9c-1.5,22.5-0.9,45.6-2.3,68.1
			c-0.1,2.3,1.7,4.8,3.3,6.4c1.3,1.3,3.3,1.5,5.2,1.6c85,5.3,170.3,2,255.4-1.2c18.9-0.7,37.8-1.4,56.7-2.2
			c59.4-2.3,118.7-4.5,177.9-9.6C497.2,509.2,500.3,508.1,500.5,505.9z"/>
	</g>
	<g>
		<path class="st2" d="M178.4,484.9c-7.1-9.2-13-19.4-17.2-30.3c-0.9-2.2-1.7-4.4-2.3-6.7c-3.2-11,3.1-22.3,14-26
			c6.9-2.3,0.4-7,5.3-7.9c30.5-5.7,61.6-7.7,92.5-6.1c19.2,1,39.1,3.3,57.2-3.2c4.5-1.6,8.8-3.7,13.5-4.1c6.4-0.5,5.5,3.6,11.5,5.8
			c6.6,2.5,13.2,5.2,18,8.1c7.1,4.4,14.8,11.4,14.8,19.8c0,0.1,0,0.1,0,0.2c0,5-1.4,9.9-2.8,14.8c-4.9,17-10.1,34.6-21.7,48
			c-5.5,6.4-12.4,11.6-19.5,16.1c-8.7,5.4-18,9.9-27.7,13.1c-29.5,9.8-62.7,7.8-90.8-5.4C205.7,512.8,190.2,500.3,178.4,484.9z"/>
	</g>
	<g>
		<path class="st3" d="M361.4,346.4c0.9-9.3,0.9-18.8,1.9-28.1c1.2-11.4,4-22.6,5.4-34c1.1-8.9,1.5-18,1.7-27
			c0.7-25.5,0.7-51.1,0-76.6c-0.1-4.1-0.3-8.4-2-12.2c-4.9-10.9-19.4-12.8-31.4-13c-57.9-1.3-117.3-2.4-172.2,16
			c-7.4,2.5-14.8,5.4-20.9,10.3c-6.2,5.1-10.9,12.6-10.7,20.6c-3.3,48.4,1.7,97.4,14.7,144.1c3.4,12.3,7.5,24.6,14.4,35.3
			c18.6,28.8,55.1,41.2,89.4,42.1c22.7,0.6,45.8-3.1,65.8-13.9c20-10.8,36.4-29.1,41.8-51.2C360.3,354.7,361,350.6,361.4,346.4z"/>
	</g>
	<g class="st4">
		<path class="st5" d="M239.2,311.9c7.4-0.7-15.3-1.5-20.1-7.1c-1-1.2-1.7-2.6-2.6-3.8c-8-11.2,17.2-47.6,22.5-51.1
			C239,249.9,182.7,317.5,239.2,311.9z"/>
	</g>
	<g class="st4">
		<path class="st5" d="M267.9,309.3c-5.2,1.2,10.8-0.8,14.4-4.6c5.3-5.6,2.1-9.5-0.4-16.8c-1.9-5.4-8.2-6.8-12-11
			C269.9,276.9,302.6,301.4,267.9,309.3z"/>
	</g>
	<g>
		<path d="M266.3,304.5c-2,0.3-3-3-1.5-4.4c1.5-1.4,4.1-0.8,5.6,0.6c0.6,0.6,1.1,1.6,0.6,2.2c-1.6,0.3-3.2,0.5-4.8,0.8"/>
	</g>
	<g>
		<path d="M231.6,300.2c-1.4,0.5-2.7,1.3-3.8,2.3c-0.5,0.5-1,1.2-1.1,1.9c0,1.2,1.3,2.1,2.5,2.3c2.3,0.4,4.8-0.7,6.1-2.7
			c-0.7-1.1-1.9-1.9-3.1-2.1"/>
	</g>
	<g>
		<path class="st6" d="M123.4,199.2c0.9-0.2,1.8-0.5,2.7-0.7c76.3-19.3,155.1-35.6,233.3-26.6c16.9,1.9,33.7,5.1,50.7,4.5
			c5.1-0.2,10.9-1.2,13.3-5.7c3-5.9-2.3-12.5-7.5-16.6c-10.1-8-21.3-14.6-33.2-19.5c-0.8-0.3-3.6-1.2-3.6-1.2
			c-39.9-12.9-77.9-21.6-119.4-15.7c-6.6,0.9-13.4,0.8-20,1.2c-11.7,0.7-26.8,4.7-38.4,5.9c-8.3,0.9-16.3,3.2-24.2,5.6
			c-25.5,7.9-51.6,18.4-69.5,38c-7.3,3.3-13.9,8.1-19.3,14.1c-3.8,4.2-7,10.6-3.6,15.1c1.6,2.1,4.2,3.2,6.8,3.8
			C101.8,204.2,112.8,201.9,123.4,199.2z"/>
	</g>
	<g>
		<path class="st7" d="M354.4,78.6c8.6,19.9,16.9,46.3,34.1,58.7c-12.3-1.7-23-6.8-35-10.1c-4.4-1.2-13-4.5-17.5-4.6
			c-4.3-0.1-29-3.8-33.3-3.8c-22.1,0.4-20.7,1-41.5,1c-9,0-18,1.3-27,2.7c-44.4,6.7-91.1,14.4-125.8,42.8c-1.3-0.6-2.4-1.9-2.6-3.4
			c-0.3-2.4,1-4.7,2.2-6.8c4.6-7.8,9.3-15.5,13.9-23.3c3.2-5.3,6.4-10.6,8.3-16.5c3.3-10.3,2.6-21.7,7-31.6c2.3-5.3,6-9.8,9.9-14
			c20.3-22,47.6-37.5,76.9-43.6s60.5-2.8,87.9,9.3c10,4.4,19.7,10.1,27.1,18.1C345.8,60.7,350.4,69.4,354.4,78.6z"/>
	</g>
	<g>
		<path class="st8" d="M386.8,262.7c0,0.2-0.1,0.4-0.1,0.6c-1.4,6.9-5.4,13.6-11.9,16.3c-2.3,0.9-5.7,0.9-6.5-1.5
			c-0.2-0.6-0.2-1.2-0.1-1.8c0.5-16.7,1-33.3,1.5-50c0.2-5.5-0.6-11.1,0.6-16.5c0.7-6.4-0.3-10.9,0.4-17.3c0.1-1,3-1.7,3.9-2.2
			c1.4-0.8,3,0.7,3.7,2.1c1.6,3.2,2.1,6.8,2.6,10.3c1.8,13.2,3.6,26.4,5.4,39.5C387,249.1,387.9,256,386.8,262.7z"/>
	</g>
	<g id="ögonbryn" class="st9">
		<g>
			<path class="st10" d="M265.9,189.9c-0.3-2.9-0.3-5.8-0.2-8.6"/>
		</g>
		<g>
			<path class="st10" d="M267.9,189.5c-0.2-3-0.1-6,0.2-9"/>
		</g>
		<g>
			<path class="st10" d="M268.7,189.9c-0.7-3.9-0.1-8,1.7-11.6"/>
		</g>
		<g>
			<path class="st10" d="M270.2,189.2c0.7-4.1,2-8,3.6-11.8"/>
		</g>
		<g>
			<path class="st10" d="M272.2,190.4c0-4.8,2.8-9.1,5.4-13.1"/>
		</g>
		<g>
			<path class="st10" d="M274.3,188.4c1.1-4.1,3.4-7.9,6.6-10.8"/>
		</g>
		<g>
			<path class="st10" d="M276.2,188.5c2.5-4.1,5.3-8,8.5-11.6"/>
		</g>
		<g>
			<path class="st10" d="M279,188.8c2.9-4.5,6.3-8.8,10.1-12.5"/>
		</g>
		<g>
			<path class="st10" d="M282.1,187.6c2.6-3.9,5.9-7.4,9.6-10.2"/>
		</g>
		<g>
			<path class="st10" d="M285.9,186.7c3-4.2,6.6-8,10.8-11.2"/>
		</g>
		<g>
			<path class="st10" d="M286.9,186.9c2.9-4.6,7.3-8.3,12.3-10.3"/>
		</g>
		<g>
			<path class="st10" d="M289.8,184c4-2.5,7.9-5,11.9-7.6"/>
		</g>
		<g>
			<path class="st10" d="M289.8,183.3c3-2.5,6.5-4.6,10.1-6"/>
		</g>
		<g>
			<path class="st10" d="M283,188.1c-0.5,0.2-1,0.4-1.6,0.7c0.7-3.1,3-5.4,5.4-7.5c2.3-1.9,4.8-3.7,7.3-5.3"/>
		</g>
		<g>
			<path class="st10" d="M280.5,186.4c-0.4-0.1-0.9-0.1-1.3-0.2c2.9-4.2,7.1-7.6,11.8-9.6"/>
		</g>
		<g>
			<path class="st10" d="M278.6,186.7c-0.5,0.3-1.3-0.2-1.4-0.8c-0.1-0.6,0.2-1.2,0.5-1.8c2.2-3.7,5.4-6.7,9.3-8.7"/>
		</g>
		<g>
			<path class="st10" d="M271.7,188.8c0.6-4.6,3-9,6.5-11.9"/>
		</g>
		<g>
			<path class="st10" d="M265.8,189.2c1.2-5,4.1-9.5,8.1-12.8"/>
		</g>
		<g>
			<path class="st10" d="M264.7,184.1c2-3.9,5.1-7.3,8.9-9.4"/>
		</g>
		<g>
			<path class="st10" d="M267.9,184.9c2.7-3.9,5.8-8.1,10.4-9.2"/>
		</g>
		<g>
			<path class="st10" d="M273.2,182.3c3.3-2.9,7-5.4,10.8-7.6"/>
		</g>
		<g>
			<path class="st10" d="M281.1,182.2c4.1-3.3,8.6-6.1,13.4-8.2"/>
		</g>
		<g>
			<path class="st10" d="M287.9,184c2.5-3.1,6-5.3,9.9-6.2"/>
		</g>
		<g>
			<path class="st10" d="M295.6,181.2c1.7-3,4.6-5.2,8-6"/>
		</g>
		<g>
			<path class="st10" d="M298.1,179.8c2.2-2,4.8-3.6,7.6-4.6"/>
		</g>
		<g>
			<path class="st10" d="M285.4,183.9c2.6-2.3,5.6-4.1,8.8-5.5"/>
		</g>
		<g>
			<path class="st10" d="M276.5,185.5c-0.8-0.5-0.2-1.8,0.4-2.5c3-3.2,6.5-5.9,10.3-8"/>
		</g>
		<g>
			<path class="st10" d="M274.4,185.5c-0.8-0.1-1.3-1.2-1-2s0.9-1.4,1.6-2c3.3-2.6,7-4.6,11-5.9"/>
		</g>
		<g>
			<path class="st10" d="M274.3,184.1c2.1-4.6,5.9-8.4,10.4-10.5"/>
		</g>
		<g>
			<path class="st10" d="M270.3,186c-0.4-1.2,0.3-2.5,1-3.5c2.2-3,4.9-5.7,8.1-7.7"/>
		</g>
		<g>
			<path class="st10" d="M269.7,183.4c2.1-2.7,4.8-5,7.8-6.6"/>
		</g>
		<g>
			<path class="st10" d="M282.6,182.3c2.9-1.7,5.7-3.4,8.6-5.1"/>
		</g>
		<g>
			<path class="st10" d="M196,192.2c-2.8-0.6-5.5-1.3-8.3-1.9"/>
		</g>
		<g>
			<path class="st10" d="M197.1,191.5c-2.8-0.7-5.5-1.7-8-3"/>
		</g>
		<g>
			<path class="st10" d="M201.7,191.4c-3.8-0.9-7.6-2.2-11.2-3.9"/>
		</g>
		<g>
			<path class="st10" d="M206.7,194.3c-4.6-2.7-9-5.8-13.2-9.1"/>
		</g>
		<g>
			<path class="st10" d="M209.8,192.8c-0.6,0.6-1.7,0.1-2.4-0.4c-3.1-2-6.1-4.1-9.2-6.1"/>
		</g>
		<g>
			<path class="st10" d="M212.5,192.1c-4.4-3.2-9.1-6-14-8.3"/>
		</g>
		<g>
			<path class="st10" d="M212.1,192.5c-3.5-2-6.8-4.4-9.6-7.3"/>
		</g>
		<g>
			<path class="st10" d="M214.3,189.5c-4.1-1.9-8.5-3.4-13-4.3"/>
		</g>
		<g>
			<path class="st10" d="M214,189.8c-2.6-2.5-5.5-4.7-8.7-6.4"/>
		</g>
		<g>
			<path class="st10" d="M215.4,188.5c-2.5-3.2-6.3-5.5-10.4-6.2"/>
		</g>
		<g>
			<path class="st10" d="M214.2,187.9c-3.1-2.6-7-4.3-11-5"/>
		</g>
		<g>
			<path class="st10" d="M202.5,187.1c-4.3-0.2-8.6-0.3-12.9-0.5"/>
		</g>
		<g>
			<path class="st10" d="M200.3,192c-4.4-2.4-9.1-3.9-14-4.6"/>
		</g>
		<g>
			<path class="st10" d="M197.1,190.6c-4.3-1.1-8.6-2.1-13-3.2"/>
		</g>
		<g>
			<path class="st10" d="M204.6,188.6c-4.8-0.8-9.5-2.1-14-3.8"/>
		</g>
		<g>
			<path class="st10" d="M208.7,194.4c-4.6-4-9.8-7.3-15.2-9.9"/>
		</g>
		<g>
			<path class="st10" d="M207.4,192.2c-4.8-1.7-9.4-3.7-13.9-6.1"/>
		</g>
		<g>
			<path class="st10" d="M209.5,191.6c-3.1-1.6-6.2-3.3-9.2-4.9c-1.4-0.8-3-1.6-4.6-1.2"/>
		</g>
		<g>
			<path class="st10" d="M208.2,191.4c-3.8-2.1-7.6-4.2-11.4-6.3"/>
		</g>
		<g>
			<path class="st10" d="M211.8,188.4c-4.2-1.4-8.5-2.4-12.9-3"/>
		</g>
		<g>
			<path class="st10" d="M212.4,188.7c-4.4-1.7-8.8-3.4-13.2-5.3"/>
		</g>
		<g>
			<path class="st10" d="M208.9,186.8c-3.2-1.1-6.4-2.1-9.6-3.2"/>
		</g>
		<g>
			<path class="st10" d="M211.8,187.2c-4-0.8-7.9-2.4-11.4-4.6"/>
		</g>
		<g>
			<path class="st10" d="M212.5,191.1c-4.4-2.2-9-4-13.6-5.4"/>
		</g>
		<g>
			<path class="st10" d="M211.4,193.5c-4.6-1.6-9.1-3.1-13.7-4.7"/>
		</g>
		<g>
			<path class="st10" d="M212.8,193.9c-3.3-2.5-6.9-4.5-10.8-6.1"/>
		</g>
		<g>
			<path class="st10" d="M216,191.1c-4.1-2.8-8.5-5.1-13.1-6.8"/>
		</g>
		<g>
			<path class="st10" d="M216.3,194.8c-3-3.9-6.8-7.3-11-9.9"/>
		</g>
		<g>
			<path class="st10" d="M215,193.9c-4.1-2.9-8.6-5.3-13.3-7.2"/>
		</g>
		<g>
			<path class="st10" d="M212.5,196.4c-1.9-3.2-5.7-4.6-9.2-5.8c-3.9-1.3-7.9-2.7-12-3.2"/>
		</g>
		<g>
			<path class="st10" d="M209.4,194.2c-5.2-2.6-10.5-5.2-16.3-5.9"/>
		</g>
		<g>
			<path class="st10" d="M209.2,194.4c-5.6-2.1-11.4-3.9-17.2-5.4c-1.6-0.4-3.4-0.8-5-0.3"/>
		</g>
		<g>
			<path class="st10" d="M203.2,190.9c-6.2-0.3-12.3-1.2-18.3-2.6"/>
		</g>
		<g>
			<path class="st10" d="M212.4,190.4c-4.3-3-9.6-3.9-14.7-4.8c-1.4-0.3-3-0.5-4.2,0.4"/>
		</g>
		<g>
			<path class="st10" d="M211.5,190.5c-5.6-1.6-11.2-3.4-16.6-5.5"/>
		</g>
		<g>
			<path class="st10" d="M210.1,186.4c-1.9,0.7-4,0.5-5.9,0.3c-3.9-0.4-7.8-0.7-11.7-1.1"/>
		</g>
		<g>
			<path class="st10" d="M265.7,188.1c0.2-5.5,3.7-10.8,8.7-13.2"/>
		</g>
		<g>
			<path class="st10" d="M265.8,187c2.9-5.2,6.9-9.8,11.7-13.5"/>
		</g>
		<g>
			<path class="st10" d="M269.8,187.2c3.1-5.5,7.9-10,13.6-12.6"/>
		</g>
		<g>
			<path class="st10" d="M268.3,189.2c4.5-4.7,9.4-8.9,14.7-12.7"/>
		</g>
		<g>
			<path class="st10" d="M273.5,188.7c3.5-4.8,8.3-8.7,13.8-11"/>
		</g>
		<g>
			<path class="st10" d="M277.8,190.1c2.6-5.7,7.4-10.3,13.2-12.8"/>
		</g>
		<g>
			<path class="st10" d="M282.6,188.1c2.7-4.2,6.6-7.6,11.2-9.7"/>
		</g>
		<g>
			<path class="st10" d="M287,184.9c2.9-4,7.1-6.9,11.8-8.3"/>
		</g>
		<g>
			<path class="st10" d="M284.8,183.8c4.8-3.1,9.8-5.8,15-8.1"/>
		</g>
		<g>
			<path class="st10" d="M294.8,177.6c2.2-1.4,4.7-2.3,7.2-2.8"/>
		</g>
	</g>
	<g id="musch">
		<g>
			<path class="st10" d="M249.1,319.5c-4.8,4.2-5.9,11.2-6.8,17.5"/>
		</g>
		<g>
			<path class="st10" d="M250,321.1c-3.9,5.5-6.3,12-7,18.7"/>
		</g>
		<g>
			<path class="st10" d="M248.8,319.3c-2.2,1.1-3.4,3.5-4.4,5.8c-1.9,4.5-3.3,9.1-4.3,13.9"/>
		</g>
		<g>
			<path class="st10" d="M244.1,320.3c-4.6,5.2-7.1,12.2-6.8,19.1"/>
		</g>
		<g>
			<path class="st10" d="M244.5,317.5c-5,6-8.5,13.2-10,20.9"/>
		</g>
		<g>
			<path class="st10" d="M242.3,316.6c-1.4,0.9-2.4,2.4-3.3,3.8c-3.7,6.2-5.9,13.3-6.4,20.4"/>
		</g>
		<g>
			<path class="st10" d="M237.7,318.2c-4,1.3-6.2,5.4-7.6,9.4c-1.3,3.6-2.1,7.4-2.4,11.2"/>
		</g>
		<g>
			<path class="st10" d="M234.7,321c-4.6,4.5-7.3,10.9-7.4,17.3"/>
		</g>
		<g>
			<path class="st10" d="M239.9,322.2c-1.5,0.2-2.4,1.8-3.1,3.1c-2.2,4.6-4,9.4-5.4,14.4"/>
		</g>
		<g>
			<path class="st10" d="M237.3,321.8c-2.5,0.9-3.8,3.5-4.8,6c-1.6,4-2.8,8.1-3.6,12.3"/>
		</g>
		<g>
			<path class="st10" d="M236.5,321.6c-3,2.4-5.1,5.9-6.4,9.6s-1.9,7.6-2.5,11.4"/>
		</g>
		<g>
			<path class="st10" d="M243.4,324c-4.1,4.8-6.5,11-6.8,17.3"/>
		</g>
		<g>
			<path class="st10" d="M235.9,318.6c-5.9,5.5-9.4,13.5-9.5,21.6"/>
		</g>
		<g>
			<path class="st10" d="M233,320c-3.2,2.2-5.4,5.7-6.8,9.4c-1.4,3.7-1.9,7.6-2.5,11.5"/>
		</g>
		<g>
			<path class="st10" d="M228.5,324.5c-4.8,4.7-7.5,11.5-7.3,18.2"/>
		</g>
		<g>
			<path class="st10" d="M226,326.6c-3.8,5.5-7.8,11.6-7.3,18.3"/>
		</g>
		<g>
			<path class="st10" d="M224.4,326.1c-0.2-0.5-1-0.2-1.3,0.3c-4.4,5.3-5.1,12.7-5.6,19.5"/>
		</g>
		<g>
			<path class="st10" d="M223.9,325.7c-5.2,4.1-7.1,10.9-8.6,17.3c-0.4,1.8-0.9,3.7-0.5,5.5"/>
		</g>
		<g>
			<path class="st10" d="M220.2,328.1c-5.9,4.6-9,12.6-7.8,20"/>
		</g>
		<g>
			<path class="st10" d="M218.3,327.9c-5.8,5-9.1,12.8-8.5,20.5"/>
		</g>
		<g>
			<path class="st10" d="M214.7,330.5c-4.9,4.5-7.4,11.4-6.6,18"/>
		</g>
		<g>
			<path class="st10" d="M211.9,333c-4.2,4.9-6.4,11.5-6.1,17.9"/>
		</g>
		<g>
			<path class="st10" d="M208,334.3c-3.7,5-5.3,11.6-4.3,17.7"/>
		</g>
		<g>
			<path class="st10" d="M206,334.7c-3.9,5-5.5,11.8-4.3,18.1"/>
		</g>
		<g>
			<path class="st10" d="M205.2,335.1c-2.7,4.8-4.3,10.3-4.4,15.9"/>
		</g>
		<g>
			<path class="st10" d="M205,337c-0.8-0.4-1.6,0.6-1.9,1.4c-2,4.9-3.1,10.2-3.1,15.5"/>
		</g>
		<g>
			<path class="st10" d="M203.3,337.7c-3.2,4.5-4.7,10.2-4.3,15.8"/>
		</g>
		<g>
			<path class="st10" d="M201.4,336.9c-4,4.2-5.8,10.4-4.7,16.2"/>
		</g>
		<g>
			<path class="st10" d="M198.3,339.2c-2.8,5-4,10.8-3.6,16.5"/>
		</g>
		<g>
			<path class="st10" d="M195.8,340.6c-2.7,5-3.3,11.1-1.8,16.5"/>
		</g>
		<g>
			<path class="st10" d="M195.2,340.5c-4.2,5-5.8,12.1-4,18.4"/>
		</g>
		<g>
			<path class="st10" d="M193.4,340.9c-1.7,2.9-2.9,6.2-3.2,9.5c-0.3,3.4,0.4,6.9,2.4,9.7"/>
		</g>
		<g>
			<path class="st10" d="M190,342.5c-3.7,4.8-4.8,11.6-2.8,17.3"/>
		</g>
		<g>
			<path class="st10" d="M188.1,341.2c-0.6,0-0.9,0.7-1.1,1.2c-1.7,5.7-1.8,11.8-0.3,17.5"/>
		</g>
		<g>
			<path class="st10" d="M252.5,319.8c-3.1,5.1-4.8,11.1-4.6,17.1"/>
		</g>
		<g>
			<path class="st10" d="M254.2,322.9c-3.8,5.4-5.8,12.1-5.6,18.7"/>
		</g>
		<g>
			<path class="st10" d="M253.9,322.1c1.7,1,2.2,3.1,2.6,5.1c0.8,4.5,1.1,9.1,1,13.7"/>
		</g>
		<g>
			<path class="st10" d="M251.4,325c2.4,0.9,2.9,4,3.1,6.5c0.2,2.6,0.4,5.2,0.5,7.9"/>
		</g>
		<g>
			<path class="st10" d="M255,321.7c1.9,0.5,3.1,2.3,4.1,4c2.7,4.9,4.4,10.4,5.1,16"/>
		</g>
		<g>
			<path class="st10" d="M255.4,322.2c3,6,4.9,12.5,5.7,19.1"/>
		</g>
		<g>
			<path class="st10" d="M257.2,320.6c5.6,6.3,9.8,13.7,12.5,21.7"/>
		</g>
		<g>
			<path class="st10" d="M258.9,319.3c7.9,4.1,13.5,12.4,14.3,21.2"/>
		</g>
		<g>
			<path class="st10" d="M263.2,322.5c0.4-0.5,1.2-0.1,1.6,0.3c6.1,5.5,10.3,13.2,11.7,21.3"/>
		</g>
		<g>
			<path class="st10" d="M265.9,322.7c7.9,5.2,13.5,13.6,15.4,22.9"/>
		</g>
		<g>
			<path class="st10" d="M270.8,322.9c6.2,4.6,10.6,11.5,12.2,19.1"/>
		</g>
		<g>
			<path class="st10" d="M276,327.1c1.1,0.6,2.4,0.9,3.6,1.3c5.1,1.9,8.7,7.1,8.8,12.5"/>
		</g>
		<g>
			<path class="st10" d="M280.4,330.2c4.6,3.3,7.8,8.6,8.4,14.2"/>
		</g>
		<g>
			<path class="st10" d="M281.9,326.5c4.5,4.3,8.2,9.4,10.8,15.1"/>
		</g>
		<g>
			<path class="st10" d="M285.9,327.9c3.2,4.5,5.6,9.7,6.7,15.1"/>
		</g>
		<g>
			<path class="st10" d="M289.1,333.7c5.1,1.4,9,6.3,9.3,11.5"/>
		</g>
		<g>
			<path class="st10" d="M294.5,333.4c4.6,2.8,7.9,7.6,8.9,12.9"/>
		</g>
		<g>
			<path class="st10" d="M295.9,332.6c1.3-0.2,2.5,0.7,3.4,1.7c3.4,3.9,5.5,8.9,5.7,14.1"/>
		</g>
		<g>
			<path class="st10" d="M300.7,334.3c4.8,2.4,8.3,7.1,9.2,12.4"/>
		</g>
		<g>
			<path class="st10" d="M304.7,336.3c0.6-1,2.1-0.1,2.8,0.8c2.6,3.4,4,7.6,4.2,11.8"/>
		</g>
		<g>
			<path class="st10" d="M308.8,336.8c1.7-0.3,3,1.4,3.9,2.9c1.9,3.4,3.2,7.1,4,10.9"/>
		</g>
		<g>
			<path class="st10" d="M313.6,336.5c3.5,3.2,5.7,7.9,5.8,12.7"/>
		</g>
		<g>
			<path class="st10" d="M286.2,330.5c6.6,3.7,11.8,9.6,14.6,16.6"/>
		</g>
		<g>
			<path class="st10" d="M289.8,332.2c3.6,1,7.2,2.6,10,5.1s4.9,6,5.2,9.8"/>
		</g>
		<g>
			<path class="st10" d="M290.9,330c8.7,1.2,16.2,8.4,17.8,17"/>
		</g>
		<g>
			<path class="st10" d="M298,330.8c0.5,3.1,4.1,4.5,6.8,6.1c3.4,2.1,6,5.5,7.1,9.4"/>
		</g>
		<g>
			<path class="st10" d="M307,334.9c3.9,2.4,6.6,6.8,6.9,11.4"/>
		</g>
		<g>
			<path class="st10" d="M276.2,327.5c3.6,0.8,6.3,3.7,8.5,6.8c2.1,3,4,6.4,7.1,8.5"/>
		</g>
		<g>
			<path class="st10" d="M261.7,321.2c3.5,4.7,6.1,10.1,7.5,15.8"/>
		</g>
		<g>
			<path class="st10" d="M276,340.8c-3.2-4.5-6.8-8.8-10.8-12.6"/>
		</g>
		<g>
			<path class="st10" d="M283.2,339.7c-1-1-1.6-2.2-2.3-3.4c-2.4-4-5.5-7.5-9.2-10.3"/>
		</g>
		<g>
			<path class="st10" d="M281.6,341.2c-2.1-5.4-5.5-10.4-9.7-14.4"/>
		</g>
		<g>
			<path class="st10" d="M287.4,340.8c0.4,0.1,0.3-0.5,0.1-0.8c-3-3.8-6.1-7.5-9.4-11"/>
		</g>
		<g>
			<path class="st10" d="M293.9,341.8c-3.1-5.1-7.1-9.6-11.9-13.2"/>
		</g>
		<g>
			<path class="st10" d="M297.7,341.6c-2.9-3.8-5.9-7.5-8.8-11.3"/>
		</g>
		<g>
			<path class="st10" d="M303.8,342.7c-3-3.3-6.5-6.2-10.3-8.4"/>
		</g>
		<g>
			<path class="st10" d="M310,342.3c-3-1.7-5.8-3.7-8.3-6.1"/>
		</g>
		<g>
			<path class="st10" d="M242.9,338.4c-0.3-5.2,1.1-10.5,3.9-14.9"/>
		</g>
		<g>
			<path class="st10" d="M237.5,337.2c1.3-6.6,3.7-12.9,7.2-18.6"/>
		</g>
		<g>
			<path class="st10" d="M233.5,337.6c-0.6-5.7,1.5-11.6,5.5-15.6"/>
		</g>
		<g>
			<path class="st10" d="M226.3,338.4c1.2-4.6,3.1-9,5.5-13"/>
		</g>
		<g>
			<path class="st10" d="M221.6,337.3c0.2-4.2,2-8.2,4.9-11.2"/>
		</g>
		<g>
			<path class="st10" d="M215.3,344.5c0.5-6.1,3-11.9,7-16.5"/>
		</g>
		<g>
			<path class="st10" d="M208.5,347c2.5-5.6,5.4-11,8.6-16.2"/>
		</g>
		<g>
			<path class="st10" d="M201.7,353.1c1-5.9,3.4-11.7,6.9-16.5"/>
		</g>
		<g>
			<path class="st10" d="M198.1,353.2c-0.8-0.1-1-1.2-0.9-2c0.5-4.1,1.9-8.2,4.2-11.7"/>
		</g>
		<g>
			<path class="st10" d="M193.7,355.6c0.3-4.4,2-8.8,4.8-12.2"/>
		</g>
		<g>
			<path class="st10" d="M191.6,356c-1-3.9-0.5-8.1,1.4-11.6"/>
		</g>
		<g>
			<path class="st10" d="M188,354.5c1.3-3.2,2.7-6.5,4-9.7"/>
		</g>
		<g>
			<path class="st10" d="M220.7,341.6c2.2-4.2,5.4-7.8,9.1-10.7"/>
		</g>
		<g>
			<path class="st10" d="M251.6,322.1c-3,3.9-5,8.6-5.9,13.4"/>
		</g>
		<g>
			<path class="st10" d="M252.2,324c-1.9,4.2-3.3,8.5-4.3,12.9"/>
		</g>
		<g>
			<path class="st10" d="M255.2,323.8c-2.7,5-4.6,10.4-5.7,16"/>
		</g>
		<g>
			<path class="st10" d="M256,324.3c-0.8,3.6-1.6,7.2-2.4,10.8"/>
		</g>
		<g>
			<path class="st10" d="M257.3,323.1c3.8,4.5,5.4,10.9,4.1,16.7"/>
		</g>
		<g>
			<path class="st10" d="M258.1,324.1c5.3,4.2,8.5,11.1,8.2,17.9"/>
		</g>
		<g>
			<path class="st10" d="M260,322.9c5.6,4.8,10,11.1,12.7,17.9"/>
		</g>
		<g>
			<path class="st10" d="M259,322.3c7.9,2.8,14.1,9.8,16,17.9"/>
		</g>
		<g>
			<path class="st10" d="M254.7,325.8c-1.7,4.2-2.5,8.8-2.3,13.3"/>
		</g>
		<g>
			<path class="st10" d="M246.3,321.4c-1.1,1-1.5,2.7-1.8,4.2c-0.7,3.8-1.4,7.6-2.1,11.3"/>
		</g>
		<g>
			<path class="st10" d="M242.4,321.8c-2.5,5.2-4.3,10.8-5.2,16.6"/>
		</g>
		<g>
			<path class="st10" d="M241.6,321.4c-3.9,4.1-6.3,9.5-6.7,15.1"/>
		</g>
		<g>
			<path class="st10" d="M234.5,324c-0.3-0.2-0.4-0.6-0.3-0.9c-1.3,5-2.4,10.2-3.1,15.3"/>
		</g>
		<g>
			<path class="st10" d="M265.9,323.5c5.7,3.3,9.8,9.1,11.1,15.6"/>
		</g>
		<g>
			<path class="st10" d="M270.2,325.5c2.2,4.7,4.4,9.3,6.7,13.9"/>
		</g>
		<g>
			<path class="st10" d="M257.8,324.7c4.5,3,7.6,8,8.4,13.3"/>
		</g>
		<g>
			<path class="st10" d="M257.5,322.5c1.9,5.4,4.2,10.7,6.7,15.9"/>
		</g>
		<g>
			<path class="st10" d="M276.8,325.5c4.9,3.8,9.9,7.6,14.8,11.5"/>
		</g>
		<g>
			<path class="st10" d="M289.3,332.5c3.7,2.4,6.7,5.8,8.6,9.7"/>
		</g>
		<g>
			<path class="st10" d="M289.7,334.9c3.3,3.6,6.3,7.5,8.9,11.7"/>
		</g>
		<g>
			<path class="st10" d="M291.7,333.3c4.5,3.9,8.2,8.7,11,13.9"/>
		</g>
		<g>
			<path class="st10" d="M295.9,332.7c3.5,3.3,6.4,7.3,8.4,11.8"/>
		</g>
		<g>
			<path class="st10" d="M265.2,318.2c0.3,2,2.3,3.3,3.9,4.5c2.7,2,4.9,4.5,6.5,7.4"/>
		</g>
		<g>
			<path class="st10" d="M269.4,319.8c5.4,2.7,10.3,6.4,14.5,10.8"/>
		</g>
		<g>
			<path class="st10" d="M271.4,320.6c1.8-0.5,3.7,0.4,5.3,1.4c4.5,2.8,8.1,6.9,10.4,11.7"/>
		</g>
		<g>
			<path class="st10" d="M267.4,320.2c5.8,3,10.7,7.6,14.2,13.1"/>
		</g>
		<g>
			<path class="st10" d="M266.6,318.7c6.6,3.3,12,8.8,15.2,15.4"/>
		</g>
		<g>
			<path class="st10" d="M274.3,321.2c7.6,3.4,14.3,8.8,19.2,15.6"/>
		</g>
		<g>
			<path class="st10" d="M282.3,324c2.7,2.4,5.8,4.1,8.8,6.1s5.7,4.5,7.2,7.7"/>
		</g>
		<g>
			<path class="st10" d="M288.5,326c6.8,2.7,12.8,7.7,16.6,14"/>
		</g>
		<g>
			<path class="st10" d="M299.6,331.2c3.7,2.2,6.8,5.3,9,9"/>
		</g>
		<g>
			<path class="st10" d="M244.2,314.7c-2,1.9-3.7,4.2-4.8,6.7"/>
		</g>
		<g>
			<path class="st10" d="M247.8,313.3c-2.6,2.5-4.8,5.4-6.5,8.6"/>
		</g>
		<g>
			<path class="st10" d="M247.1,315.4c-2.8,4.4-5.6,8.8-8.4,13.2"/>
		</g>
		<g>
			<path class="st10" d="M250.9,314.2c-3,3.5-5.3,7.4-7,11.6"/>
		</g>
		<g>
			<path class="st10" d="M254.2,314.7c-2.3,0.3-3.8,2.4-5,4.4c-1.8,2.9-3.6,5.9-5.4,8.8"/>
		</g>
		<g>
			<path class="st10" d="M252.8,313.6c-3.7,5.6-7,11.5-9.8,17.6"/>
		</g>
		<g>
			<path class="st10" d="M255.6,317.8c-3.6,3.5-6.3,7.9-7.8,12.7"/>
		</g>
		<g>
			<path class="st10" d="M257.1,317.1c-3.8,3.4-6.6,7.8-8.2,12.6"/>
		</g>
		<g>
			<path class="st10" d="M258.6,318.6c-2.1,3.9-4,7.8-5.7,11.9"/>
		</g>
		<g>
			<path class="st10" d="M256,315.4c5.4,2.8,10.4,6.4,14.8,10.7"/>
		</g>
		<g>
			<path class="st10" d="M258.3,313.1c6.5,3.8,12.3,8.8,17.2,14.5"/>
		</g>
		<g>
			<path class="st10" d="M265.2,310.2c1.5,1.4,3,2.8,4.5,4.1c4.7,4.3,9.5,8.8,11.8,14.7"/>
		</g>
		<g>
			<path class="st10" d="M264.3,312.9c7.3,4.5,13.6,10.6,18.1,17.9"/>
		</g>
		<g>
			<path class="st10" d="M261.6,313.7c5.8,4.4,11.3,9.3,16.3,14.6"/>
		</g>
		<g>
			<path class="st10" d="M255.8,315.1c6.8,2.9,12.6,8.1,16.2,14.6"/>
		</g>
		<g>
			<path class="st10" d="M256.4,316.6c4.5,2.8,6.5,8.2,8.2,13.2"/>
		</g>
		<g>
			<path class="st10" d="M248.1,310.7c-4.3,3-8.1,6.8-11.1,11.2"/>
		</g>
		<g>
			<path class="st10" d="M240.9,316.8c-5.2,2.4-9.5,6.7-11.8,11.9"/>
		</g>
		<g>
			<path class="st10" d="M324.7,331.5"/>
		</g>
	</g>
	<g>
		<path class="st8" d="M129.9,294.8c1.7,1.6,3.9,2.7,6.3,2.6c1.9-5.6,0.6-11.7-0.4-17.5c-3.5-20.3-3.1-41-2.7-61.6
			c0.1-5.5,0.2-11,0.3-16.5c-3.2-2.7-8.1-1.1-10.5,2c-2.2,2.9-2.8,6.7-3,10.3c-0.5,11.6,2.7,23,3.8,34.6c1.1,11.5,0.2,23.1,1.6,34.6
			c0.4,3.2,1,6.5,2.8,9.3C128.6,293.4,129.2,294.2,129.9,294.8z"/>
	</g>
	<g>
		<path class="st11" d="M303.3,350.6c0.7-0.5,1.4-1.1,2.1-1.7c-4-1.1-8.2-0.3-12.3,0.3c-16.9,2.8-33.9,4.5-50.9,5.2
			c-11.8,0.5-23.6,0.5-35.2-1.6c14.8,10.5,33.2,15.7,51.4,14.7C274.5,366.6,290.4,360.6,303.3,350.6z"/>
	</g>
	<g>
		<path class="st12" d="M302.8,348.4c-23.5,3.6-46.7,8.8-69.4,7.3c-8.5-0.6-18.4-0.4-26.5-2.8c7.3-3.6,17.7-5.6,25.5-7.2
			c19.7-4,39.2-2.1,58.9,0.2C295.4,346.4,298.4,347.4,302.8,348.4z"/>
	</g>
	<g id="Left_eye">
		<g>
			<path class="st13" d="M222.4,230c0.6,0.5,1.1,1,1.6,1.5c-10.6-3.6-21.3,0.5-32,0.7c-9.8,0.2-19.6-3-27.9-8.9
				c4.9-5.6,12.2-7.5,19.2-7.7C197.3,215.1,211.3,220.3,222.4,230z"/>
		</g>
		<g>
			<path class="st14" d="M180.7,229.7c1.2,0.9,2.7,1.4,4.1,1.7c2.7,0.6,5.4,0.6,8.1,0.2c0.5-0.1,1.1-0.2,1.6-0.5
				c0.6-0.4,0.9-1,1.3-1.7c0.8-1.6,1.4-3.3,1.5-5.1c0.2-2.7-1.4-7-3.2-8.7c-3.3-0.4-6.7-0.7-10-1.1c-1-0.1-1.5,0.9-2.5,1
				c-2.6,0.4-5,3.5-4.8,6.5c0.1,1.1,0.5,2.2,0.9,3.2c0.6,1.4,1.2,2.8,2.2,3.9C180.1,229.2,180.4,229.5,180.7,229.7z"/>
		</g>
		<g>
			<g>
				<path d="M164.4,222.7c0,0.2-0.2,0.4-0.4,0.4c-0.2,0-0.4-0.2-0.6-0.3c-0.4-0.3-0.8-0.5-1.2-0.8c0,0-0.1,0,0,0.1
					c0.5,0.3,1,0.6,1.5,0.9c0.2,0.1,0.3,0.2,0.5,0.1C164.3,223.1,164.4,222.9,164.4,222.7C164.4,222.7,164.4,222.7,164.4,222.7
					L164.4,222.7z"/>
			</g>
		</g>
		<g>
			<g>
				<path d="M164.9,221.9c-1,0.1-1.8-0.8-2-1.8c0,0-0.1,0-0.1,0C163,221.1,163.9,222.1,164.9,221.9C165,221.9,165,221.9,164.9,221.9
					L164.9,221.9z"/>
			</g>
		</g>
		<g>
			<g>
				<path d="M166.8,220.6c0.1,0.2-0.1,0.3-0.2,0.3c-0.1,0-0.2,0-0.4,0c-0.3-0.1-0.5-0.2-0.7-0.4c-0.5-0.4-0.8-0.8-1-1.4
					c0,0-0.1,0-0.1,0c0.2,0.6,0.7,1.2,1.3,1.6c0.1,0.1,0.3,0.1,0.4,0.2c0.1,0.1,0.3,0.1,0.4,0.1
					C166.7,220.9,166.9,220.8,166.8,220.6C166.8,220.5,166.8,220.5,166.8,220.6L166.8,220.6z"/>
			</g>
		</g>
		<g>
			<g>
				<path d="M168.3,219.2c-1,0.3-1.9-0.5-2.1-1.4c0,0-0.1,0-0.1,0C166.3,218.8,167.3,219.6,168.3,219.2
					C168.4,219.2,168.3,219.2,168.3,219.2L168.3,219.2z"/>
			</g>
		</g>
		<g>
			<g>
				<path d="M170.2,218.3c-0.6,0.1-1.2-0.1-1.7-0.5c-0.5-0.4-0.8-1.1-0.8-1.7c0,0-0.1-0.1-0.1,0
					C167.7,217.4,168.9,218.7,170.2,218.3C170.3,218.3,170.2,218.3,170.2,218.3L170.2,218.3z"/>
			</g>
		</g>
		<g>
			<g>
				<path d="M171.9,217.7c-1.3,0-2.3-1.1-2.6-2.4c0-0.1-0.1,0-0.1,0C169.5,216.6,170.6,217.7,171.9,217.7
					C172,217.7,172,217.7,171.9,217.7L171.9,217.7z"/>
			</g>
		</g>
		<g>
			<g>
				<path d="M173.2,216.5c-0.7-0.1-1.4-0.5-1.8-1.1c0,0-0.1,0-0.1,0C171.7,216.1,172.4,216.5,173.2,216.5
					C173.2,216.6,173.2,216.5,173.2,216.5L173.2,216.5z"/>
			</g>
		</g>
		<g>
			<g>
				<path d="M175.1,216c-0.6,0.2-1.2,0-1.7-0.3c-0.5-0.4-0.9-0.9-1.1-1.6c0-0.1-0.1,0-0.1,0C172.4,215.4,173.7,216.4,175.1,216
					C175.1,216,175.1,216,175.1,216L175.1,216z"/>
			</g>
		</g>
		<g>
			<g>
				<path d="M176.3,215.4c-0.5,0-1-0.3-1.3-0.6c-0.4-0.4-0.6-0.9-0.6-1.5c0-0.1-0.1-0.1-0.1,0C174.3,214.4,175.1,215.5,176.3,215.4
					C176.3,215.5,176.3,215.4,176.3,215.4L176.3,215.4z"/>
			</g>
		</g>
		<g>
			<g>
				<path d="M177.9,214.9c-1.4-0.4-2.2-1.8-2.3-3.1c0-0.1-0.1-0.1-0.1,0C175.5,213.2,176.4,214.6,177.9,214.9
					C177.9,214.9,177.9,214.9,177.9,214.9L177.9,214.9z"/>
			</g>
		</g>
		<g>
			<g>
				<path d="M179.2,214.4c-1-0.4-1.6-1.4-1.7-2.3c0-0.1-0.1,0-0.1,0C177.6,213.1,178.2,214.1,179.2,214.4
					C179.2,214.4,179.3,214.4,179.2,214.4L179.2,214.4z"/>
			</g>
		</g>
		<g>
			<g>
				<path d="M181,214.6c-1.1-0.6-1.8-1.9-1.9-3.1c0-0.1-0.1-0.1-0.1,0C179.1,212.7,179.8,214,181,214.6
					C181,214.6,181,214.6,181,214.6L181,214.6z"/>
			</g>
		</g>
		<g>
			<g>
				<path d="M182.9,214.4c-1.1-0.7-1.8-1.8-2.1-3c0-0.1-0.1,0-0.1,0C181,212.7,181.8,213.8,182.9,214.4
					C182.9,214.4,182.9,214.4,182.9,214.4L182.9,214.4z"/>
			</g>
		</g>
		<g>
			<g>
				<path d="M184.2,214c-0.9-0.2-1.5-1.1-1.7-2c0-0.1-0.1,0-0.1,0C182.6,213,183.3,213.8,184.2,214C184.2,214.1,184.2,214,184.2,214
					L184.2,214z"/>
			</g>
		</g>
		<g>
			<g>
				<path d="M185.6,214c-0.7-0.4-1.1-1.1-1.3-1.8c0-0.1-0.1,0-0.1,0C184.4,213,184.9,213.7,185.6,214
					C185.6,214.1,185.6,214,185.6,214L185.6,214z"/>
			</g>
		</g>
		<g>
			<g>
				<path d="M187.8,214.5c-0.1,0.3-0.5-0.1-0.5-0.2c-0.1-0.3-0.3-0.6-0.4-0.8c-0.2-0.6-0.4-1.1-0.5-1.7c0-0.1-0.1,0-0.1,0
					c0.1,0.4,0.2,0.7,0.3,1.1c0.1,0.3,0.3,0.7,0.4,1c0.1,0.3,0.2,0.6,0.5,0.7C187.6,214.7,187.8,214.7,187.8,214.5
					C187.9,214.5,187.8,214.5,187.8,214.5L187.8,214.5z"/>
			</g>
		</g>
		<g>
			<g>
				<path d="M188.9,214.2c-0.7-0.4-0.9-1.3-0.8-2c0-0.1-0.1-0.1-0.1,0C187.9,213,188.2,213.9,188.9,214.2
					C189,214.3,189,214.2,188.9,214.2L188.9,214.2z"/>
			</g>
		</g>
		<g>
			<g>
				<path d="M191.5,214.6c-0.7,0-1.3-0.4-1.6-1c-0.3-0.6-0.2-1.4,0.1-2c0,0,0-0.1-0.1,0c-0.4,0.6-0.4,1.4-0.1,2.1
					C190.2,214.3,190.8,214.7,191.5,214.6C191.5,214.6,191.5,214.6,191.5,214.6L191.5,214.6z"/>
			</g>
		</g>
		<g>
			<g>
				<path d="M192.9,215.1c-0.8-0.7-0.8-2.1-0.2-2.8c0,0,0-0.1-0.1-0.1C191.9,213,192.1,214.5,192.9,215.1
					C192.9,215.2,193,215.1,192.9,215.1L192.9,215.1z"/>
			</g>
		</g>
		<g>
			<g>
				<path d="M194.7,215.6c-0.9-0.4-1.3-1.7-1.1-2.6c0-0.1-0.1-0.1-0.1,0C193.3,214,193.7,215.2,194.7,215.6
					C194.7,215.7,194.8,215.6,194.7,215.6L194.7,215.6z"/>
			</g>
		</g>
		<g>
			<g>
				<path d="M196.4,216c-0.1,0.3-0.4,0-0.5-0.1c-0.1-0.2-0.2-0.4-0.3-0.7c-0.2-0.5-0.2-1-0.1-1.5c0,0-0.1-0.1-0.1,0
					c-0.1,0.6,0,1.2,0.2,1.8c0.1,0.2,0.2,0.5,0.4,0.6C196.2,216.1,196.4,216.1,196.4,216C196.4,215.9,196.4,215.9,196.4,216
					L196.4,216z"/>
			</g>
		</g>
		<g>
			<g>
				<path d="M198.7,217.2c-0.7-0.7-0.8-1.9-0.4-2.8c0-0.1-0.1-0.1-0.1,0C197.9,215.3,198,216.5,198.7,217.2
					C198.7,217.3,198.7,217.2,198.7,217.2L198.7,217.2z"/>
			</g>
		</g>
		<g>
			<g>
				<path d="M201,216.9c-0.3-0.6-0.2-1.4,0.2-1.9c0,0,0-0.1-0.1-0.1C200.7,215.5,200.6,216.3,201,216.9
					C201,216.9,201,216.9,201,216.9L201,216.9z"/>
			</g>
		</g>
		<g>
			<g>
				<path d="M166.3,225.6c0.3-0.1,0.3,0.5,0.3,0.7c0,0.3-0.1,0.6-0.2,0.9c-0.2,0.6-0.5,1.1-0.9,1.5c0,0,0,0.1,0.1,0.1
					c0.5-0.5,0.8-1.1,1-1.8c0.1-0.3,0.2-0.7,0.1-1C166.6,225.8,166.5,225.5,166.3,225.6C166.3,225.6,166.3,225.6,166.3,225.6
					L166.3,225.6z"/>
			</g>
		</g>
		<g>
			<g>
				<path d="M168.4,227.1c0,1-0.1,2-0.3,3c0,0,0.1,0.1,0.1,0C168.4,229.1,168.5,228.1,168.4,227.1C168.4,227,168.4,227,168.4,227.1
					L168.4,227.1z"/>
			</g>
		</g>
		<g>
			<g>
				<path d="M169.9,228.3c0.1,0.9-0.2,1.8-0.7,2.6c0,0,0,0.1,0.1,0C169.8,230.2,170,229.2,169.9,228.3
					C169.9,228.3,169.9,228.3,169.9,228.3L169.9,228.3z"/>
			</g>
		</g>
		<g>
			<g>
				<path d="M172,229.1c0.1,0.8,0,1.7-0.4,2.4c0,0,0,0.1,0.1,0C172.1,230.8,172.2,229.9,172,229.1C172.1,229,172,229.1,172,229.1
					L172,229.1z"/>
			</g>
		</g>
		<g>
			<g>
				<path d="M174.3,229.2c0,0.7-0.1,1.4-0.4,2.1c-0.1,0.3-0.3,0.6-0.6,0.8c-0.1,0.2-0.6,0.6-0.7,0.2c0,0-0.1,0-0.1,0
					c0.1,0.3,0.4,0.2,0.6,0.1c0.3-0.2,0.5-0.5,0.7-0.8C174.2,230.8,174.4,230,174.3,229.2C174.3,229.2,174.3,229.2,174.3,229.2
					L174.3,229.2z"/>
			</g>
		</g>
		<g>
			<g>
				<path d="M175.9,230.3c0.2,1-0.3,2.2-1.3,2.6c0,0,0,0.1,0,0.1C175.7,232.7,176.2,231.3,175.9,230.3
					C176,230.3,175.9,230.3,175.9,230.3L175.9,230.3z"/>
			</g>
		</g>
		<g>
			<g>
				<path d="M178.2,230.9c-0.1,0.9-0.5,1.8-1.3,2.3c0,0,0,0.1,0,0.1C177.8,232.8,178.3,231.8,178.2,230.9
					C178.3,230.9,178.2,230.9,178.2,230.9L178.2,230.9z"/>
			</g>
		</g>
		<g>
			<g>
				<path d="M180.1,231.2c0.1,0.7,0.3,1.5,0.1,2.3c-0.2,0.6-0.7,1.2-1.3,1.1c-0.1,0-0.1,0.1,0,0.1c0.6,0.1,1.1-0.4,1.4-0.9
					C180.5,232.9,180.3,232,180.1,231.2C180.1,231.2,180.1,231.2,180.1,231.2L180.1,231.2z"/>
			</g>
		</g>
		<g>
			<g>
				<path d="M182.3,231.7c0,0.5-0.1,1.1-0.3,1.6c-0.2,0.4-0.6,0.8-1.1,0.7c-0.1,0-0.1,0.1,0,0.1c0.5,0.1,0.9-0.2,1.2-0.6
					C182.3,232.9,182.3,232.3,182.3,231.7C182.3,231.6,182.3,231.7,182.3,231.7L182.3,231.7z"/>
			</g>
		</g>
		<g>
			<g>
				<path d="M183.8,232.2c0.1,1.1-0.5,2.4-1.6,2.8c0,0,0,0.1,0,0.1C183.4,234.6,184,233.3,183.8,232.2
					C183.9,232.1,183.8,232.1,183.8,232.2L183.8,232.2z"/>
			</g>
		</g>
		<g>
			<g>
				<path d="M186.2,232.3c0,0.6-0.1,1.2-0.3,1.8c-0.2,0.5-0.5,0.9-1,1.1c0,0,0,0.1,0,0.1c0.5-0.1,0.9-0.6,1.1-1
					C186.2,233.6,186.2,232.9,186.2,232.3C186.2,232.3,186.2,232.3,186.2,232.3L186.2,232.3z"/>
			</g>
		</g>
		<g>
			<g>
				<path d="M188.6,232.6c0,0.1,0,0.3,0,0.4c0,0.1,0,0.3-0.1,0.4c-0.1,0.3-0.1,0.5-0.3,0.8c-0.2,0.5-0.6,0.8-1,1.1c0,0,0,0.1,0,0.1
					c0.5-0.2,0.8-0.7,1-1.1c0.1-0.2,0.2-0.5,0.3-0.8c0-0.1,0-0.3,0.1-0.4C188.6,232.9,188.6,232.8,188.6,232.6
					C188.6,232.6,188.5,232.6,188.6,232.6L188.6,232.6z"/>
			</g>
		</g>
		<g>
			<g>
				<path d="M190.2,232.3c0.2,1.2-0.4,2.7-1.7,3.2c0,0,0,0.1,0,0.1C189.8,235.1,190.5,233.6,190.2,232.3
					C190.2,232.3,190.2,232.3,190.2,232.3L190.2,232.3z"/>
			</g>
		</g>
		<g>
			<g>
				<path d="M192.3,232.6c0.1,1.2-0.5,2.5-1.7,3c0,0,0,0.1,0,0.1C191.9,235.3,192.5,233.9,192.3,232.6
					C192.4,232.6,192.3,232.6,192.3,232.6L192.3,232.6z"/>
			</g>
		</g>
		<g>
			<g>
				<path d="M193.8,232.7c0.3,1,0,2.1-0.7,2.7c0,0,0,0.1,0,0.1C194,234.8,194.2,233.6,193.8,232.7
					C193.9,232.6,193.8,232.6,193.8,232.7L193.8,232.7z"/>
			</g>
		</g>
		<g>
			<g>
				<path d="M195.7,232.9c0,0.9-0.4,1.7-1,2.3c0,0,0,0.1,0.1,0.1C195.4,234.7,195.8,233.8,195.7,232.9
					C195.8,232.9,195.7,232.9,195.7,232.9L195.7,232.9z"/>
			</g>
		</g>
		<g>
			<g>
				<path d="M197.2,232.9c-0.1,0.1-0.1,0.3-0.2,0.4c-0.1,0.2-0.1,0.3-0.2,0.4c-0.1,0.1-0.2,0.3-0.3,0.4c-0.1,0.1-0.2,0.2-0.3,0.3
					c0,0,0,0.1,0,0.1c0.1-0.1,0.2-0.2,0.3-0.3c0.1-0.1,0.2-0.3,0.3-0.4c0.1-0.1,0.2-0.3,0.2-0.4
					C197.2,233.2,197.2,233.1,197.2,232.9C197.2,232.9,197.2,232.9,197.2,232.9L197.2,232.9z"/>
			</g>
		</g>
		<g>
			<g>
				<path d="M198.9,232.6c0,0.2,0,0.3-0.1,0.5c0,0.2-0.1,0.3-0.1,0.5c-0.1,0.2-0.1,0.3-0.2,0.5c-0.1,0.1-0.2,0.3-0.3,0.4
					c0,0,0,0.1,0.1,0c0.2-0.2,0.4-0.6,0.5-0.9C198.9,233.3,199,233,198.9,232.6C198.9,232.6,198.9,232.6,198.9,232.6L198.9,232.6z"
					/>
			</g>
		</g>
		<g>
			<g>
				<path d="M200.7,232.3c-0.1,0.8-0.4,1.6-0.9,2.2c0,0,0,0.1,0,0C200.3,233.9,200.6,233.1,200.7,232.3
					C200.7,232.3,200.7,232.3,200.7,232.3L200.7,232.3z"/>
			</g>
		</g>
		<g>
			<g>
				<path d="M202,232.9c-0.1,0.3-0.3,0.6-0.4,0.9c-0.1,0.3-0.3,0.6-0.4,0.9c0,0,0,0.1,0.1,0c0.1-0.3,0.3-0.6,0.4-0.9
					C201.8,233.6,201.9,233.3,202,232.9C202.1,232.9,202,232.9,202,232.9L202,232.9z"/>
			</g>
		</g>
		<g>
			<g>
				<path d="M204,232.6c-0.1,0.7-0.4,1.2-0.9,1.7c0,0,0,0.1,0,0C203.6,233.9,203.9,233.3,204,232.6C204.1,232.6,204,232.6,204,232.6
					L204,232.6z"/>
			</g>
		</g>
		<g>
			<g>
				<path d="M205.7,232.8c-0.3,0.4-0.6,0.9-0.9,1.3c0,0,0,0.1,0.1,0C205.2,233.7,205.4,233.3,205.7,232.8
					C205.7,232.8,205.7,232.8,205.7,232.8L205.7,232.8z"/>
			</g>
		</g>
		<g>
			<g>
				<path d="M207.8,232.6c-0.3,0.8-0.7,1.6-1.1,2.3c0,0,0,0.1,0.1,0C207.2,234.2,207.6,233.5,207.8,232.6
					C207.9,232.6,207.8,232.6,207.8,232.6L207.8,232.6z"/>
			</g>
		</g>
		<g>
			<g>
				<path d="M209.8,232.3c0,0.5-0.1,0.9-0.3,1.4c-0.1,0.2-0.2,0.4-0.3,0.6c-0.1,0.2-0.3,0.3-0.4,0.5c0,0,0,0.1,0,0.1
					c0.4-0.3,0.6-0.7,0.8-1.1C209.7,233.3,209.9,232.8,209.8,232.3C209.9,232.3,209.8,232.3,209.8,232.3L209.8,232.3z"/>
			</g>
		</g>
		<g>
			<g>
				<path d="M212.2,231.9c-0.5,0.3-0.6,0.8-0.8,1.3c-0.2,0.5-0.3,1.1-0.9,1.3c0,0,0,0.1,0,0.1c0.5-0.1,0.7-0.7,0.9-1.2
					C211.5,232.9,211.7,232.2,212.2,231.9C212.2,231.9,212.2,231.9,212.2,231.9L212.2,231.9z"/>
			</g>
		</g>
		<g>
			<g>
				<path d="M213.8,232c-0.4,0.8-0.8,1.6-1.3,2.4c0,0,0,0.1,0.1,0C213.1,233.6,213.6,232.8,213.8,232C213.9,232,213.9,232,213.8,232
					L213.8,232z"/>
			</g>
		</g>
		<g>
			<g>
				<path d="M215.3,232.3c-0.4,0.7-0.9,1.4-1.5,1.9c0,0,0,0.1,0.1,0.1C214.4,233.7,214.9,233,215.3,232.3
					C215.3,232.3,215.3,232.2,215.3,232.3L215.3,232.3z"/>
			</g>
		</g>
		<g>
			<g>
				<path d="M217,232.2c-0.1,0.5-0.3,1-0.6,1.5c-0.2,0.4-0.5,0.8-0.9,1.2c0,0,0,0.1,0.1,0.1C216.3,234.2,216.8,233.2,217,232.2
					C217,232.1,217,232.1,217,232.2L217,232.2z"/>
			</g>
		</g>
		<g>
			<g>
				<path d="M218.9,231.8c-0.1,0.7-0.3,1.4-0.6,2c0,0,0,0.1,0.1,0C218.7,233.2,218.9,232.6,218.9,231.8
					C219,231.8,218.9,231.8,218.9,231.8L218.9,231.8z"/>
			</g>
		</g>
		<g>
			<g>
				<path d="M220.2,231.7c0,0.6-0.1,1.1-0.3,1.7c0,0.1,0,0.1,0.1,0C220.2,232.9,220.3,232.3,220.2,231.7
					C220.3,231.7,220.2,231.7,220.2,231.7L220.2,231.7z"/>
			</g>
		</g>
		<g>
			<g>
				<path d="M202.1,218.1c-0.4-0.5-0.3-1.5,0.3-1.8c0,0,0-0.1,0-0.1C201.8,216.6,201.7,217.6,202.1,218.1
					C202.1,218.1,202.1,218.1,202.1,218.1L202.1,218.1z"/>
			</g>
		</g>
		<g>
			<g>
				<path d="M203.7,218.6c-0.3-0.5-0.1-1.4,0.5-1.6c0,0,0-0.1,0-0.1C203.5,217.1,203.4,218.1,203.7,218.6
					C203.7,218.6,203.7,218.6,203.7,218.6L203.7,218.6z"/>
			</g>
		</g>
		<g>
			<g>
				<path d="M205.2,219.7c-0.2-0.4-0.1-1,0.3-1.4c0,0,0-0.1-0.1-0.1C205.1,218.6,205,219.2,205.2,219.7
					C205.2,219.7,205.3,219.7,205.2,219.7L205.2,219.7z"/>
			</g>
		</g>
		<g>
			<g>
				<path d="M206.9,220.4c-0.2-0.7,0.2-1.5,0.9-1.7c0,0,0-0.1,0-0.1c-0.4,0.1-0.6,0.3-0.8,0.6C206.8,219.7,206.8,220,206.9,220.4
					C206.9,220.4,206.9,220.4,206.9,220.4L206.9,220.4z"/>
			</g>
		</g>
		<g>
			<g>
				<path d="M208.3,221.3c0-0.4,0.1-0.8,0.4-1.1c0,0,0-0.1-0.1-0.1C208.4,220.5,208.3,220.9,208.3,221.3
					C208.3,221.4,208.4,221.4,208.3,221.3L208.3,221.3z"/>
			</g>
		</g>
		<g>
			<g>
				<path d="M210.1,222.1c-0.1,0-0.2,0-0.4,0c0,0,0,0,0,0c0.1-0.2,0.2-0.4,0.3-0.6c0.1-0.2,0.2-0.4,0.2-0.5c0,0,0-0.1-0.1,0
					c-0.1,0.2-0.2,0.4-0.3,0.6c-0.1,0.2-0.2,0.4-0.2,0.5c0,0,0,0,0,0C209.9,222.1,210,222.1,210.1,222.1
					C210.1,222.1,210.1,222.1,210.1,222.1L210.1,222.1z"/>
			</g>
		</g>
		<g>
			<g>
				<path d="M211.3,222.5c-0.1,0-0.1,0-0.2,0c0,0,0,0-0.1-0.1c0,0,0-0.1,0-0.1c0-0.1,0.1-0.3,0.2-0.4c0.1-0.2,0.3-0.5,0.4-0.7
					c0,0,0-0.1-0.1,0c-0.2,0.2-0.4,0.5-0.5,0.8c0,0.1-0.1,0.2-0.1,0.2c0,0,0,0.1,0,0.1c0,0,0,0.1,0,0.1
					C211.1,222.6,211.2,222.6,211.3,222.5C211.4,222.6,211.3,222.5,211.3,222.5L211.3,222.5z"/>
			</g>
		</g>
		<g>
			<g>
				<path d="M213.1,223.2c0.1-0.5,0.3-0.9,0.8-1.1c0,0,0-0.1,0-0.1C213.4,222.2,213.1,222.7,213.1,223.2
					C213.1,223.2,213.1,223.2,213.1,223.2L213.1,223.2z"/>
			</g>
		</g>
		<g>
			<g>
				<path d="M215,224.3c0,0.1-0.1,0.1-0.1,0.2c0,0-0.1,0.1-0.1,0.1c0,0,0,0,0,0c-0.2-0.4-0.1-1,0.3-1.3c0,0,0-0.1,0-0.1
					c-0.2,0.1-0.4,0.4-0.4,0.6c-0.1,0.3,0,0.5,0.1,0.8c0,0,0,0,0,0c0-0.1,0.1-0.1,0.1-0.2C214.9,224.4,214.9,224.4,215,224.3
					C215,224.3,215,224.3,215,224.3L215,224.3z"/>
			</g>
		</g>
		<g>
			<g>
				<path d="M215.9,224.9c0-0.4,0.1-0.9,0.4-1.2c0,0,0-0.1,0,0C216,224,215.8,224.5,215.9,224.9
					C215.9,224.9,215.9,224.9,215.9,224.9L215.9,224.9z"/>
			</g>
		</g>
		<g>
			<g>
				<path d="M216.8,225.8c0-0.3,0.1-0.6,0.3-0.8c0.1-0.1,0.2-0.2,0.3-0.2c0.1-0.1,0.2-0.1,0.4-0.1c0,0,0-0.1,0-0.1
					c-0.3,0-0.5,0.2-0.7,0.3C216.9,225.2,216.8,225.5,216.8,225.8C216.7,225.8,216.8,225.8,216.8,225.8L216.8,225.8z"/>
			</g>
		</g>
		<path class="st15" d="M164,223.5c0,0,18-22.9,60,8C225.2,231.2,186,197.2,164,223.5z"/>
		<path class="st16" d="M164,223.5c0.3-1,9.4,8.5,28.8,8.1c12.3,0.4,23.2-4.2,31.2,0C224,231.6,174.1,240,164,223.5z"/>
		<g>
			<path d="M186.9,225.8c0.7,0.2,1.5,0.2,2.2-0.1c0.3-0.1,0.6-0.3,0.8-0.5c0.5-0.6,0.6-1.5,0.5-2.3c-0.1-0.8-0.4-1.5-0.9-2.1
				c-1.4-3.5-3.4-2.3-4.4-0.8c-0.2,0.3-0.4,0.5-0.5,0.9c-0.6,1.3-0.2,3.1,0.8,4.1C185.8,225.4,186.3,225.7,186.9,225.8z"/>
		</g>
	</g>
	<g id="right_eye">
		<g>
			<path class="st13" d="M277.9,226.2c5.2-5.2,11.1-9.3,17.3-12.9c4.4-2.5,9-4.8,13.9-4.8c8.8,0.1,17.5,7.8,25.7,2.2
				c-15.4,15.5-37.5,21.5-57.4,16C277.5,226.5,277.7,226.4,277.9,226.2z"/>
		</g>
		<g>
			<path class="st14" d="M312.6,224.3c1.6-0.7,3.2-1.6,4.1-3.1c0.9-1.6,1-3.6,1.1-5.5c0-1.5-0.1-3.2-1-4.3c-0.6-0.7-1.3-1-2.1-1.3
				c-4-1.5-5.7-4-9.6-2.4c-3.8-0.6-9.7,6.3-9.2,10.4c0.3,2.3,1.5,4.2,2.7,6c0.4,0.6,0.9,1.2,1.5,1.6c0.6,0.4,1.3,0.6,2,0.7
				c0.6,0.1,1.3,0.1,1.9,0.1c2.8,0,5.5-0.9,8.1-2C312.2,224.5,312.4,224.4,312.6,224.3z"/>
		</g>
		<g>
			<path d="M305.3,219.5c0.5,0.1,0.9,0.2,1.4,0.1c1.8-0.3,3.2-2.3,3.1-4.4c-0.1-2.3-2-4.3-4.1-3.9c0,0-0.1,0-0.1,0
				c-0.6,0.3-1.1,0.8-1.5,1.3c-0.5,0.5-1,1-1.2,1.7c-0.2,0.6-0.3,1.4-0.2,2C302.9,217.8,304,219.1,305.3,219.5z"/>
		</g>
		<g>
			<g>
				<path d="M332.1,211.4c-0.4,0-0.7-0.2-1-0.5c-0.3-0.3-0.4-0.8-0.3-1.2c0,0-0.1-0.1-0.1,0C330.6,210.5,331.3,211.6,332.1,211.4
					C332.2,211.4,332.2,211.4,332.1,211.4L332.1,211.4z"/>
			</g>
		</g>
		<g>
			<g>
				<path d="M330.1,211.5c-0.6-0.2-1-0.8-1.2-1.4c0,0-0.1,0-0.1,0C329,210.7,329.5,211.3,330.1,211.5
					C330.1,211.5,330.1,211.5,330.1,211.5L330.1,211.5z"/>
			</g>
		</g>
		<g>
			<g>
				<path d="M328.1,211.2c-0.2-0.4-0.4-0.8-0.7-1.2c0,0-0.1,0,0,0C327.6,210.4,327.8,210.8,328.1,211.2
					C328.1,211.2,328.1,211.2,328.1,211.2L328.1,211.2z"/>
			</g>
		</g>
		<g>
			<g>
				<path d="M327,211.3c-0.2,0.1-0.5,0-0.7-0.2c-0.2-0.2-0.3-0.5-0.2-0.7c0,0-0.1-0.1-0.1,0c-0.1,0.4,0.2,0.9,0.7,1
					C326.8,211.4,326.9,211.4,327,211.3C327,211.3,327,211.3,327,211.3L327,211.3z"/>
			</g>
		</g>
		<g>
			<g>
				<path d="M326.1,211.4c-0.6-0.1-1-0.9-0.9-1.5c0,0-0.1,0-0.1,0C325,210.6,325.4,211.3,326.1,211.4
					C326.1,211.5,326.1,211.4,326.1,211.4L326.1,211.4z"/>
			</g>
		</g>
		<g>
			<g>
				<path d="M324.7,211.3c-0.6-0.7-0.8-1.6-0.6-2.5c0-0.1-0.1-0.1-0.1,0C323.9,209.7,324.1,210.7,324.7,211.3
					C324.7,211.4,324.7,211.3,324.7,211.3L324.7,211.3z"/>
			</g>
		</g>
		<g>
			<g>
				<path d="M323.9,211.1c-0.7-0.5-0.8-1.4-0.5-2.2c0,0-0.1-0.1-0.1,0C323,209.7,323.2,210.7,323.9,211.1
					C323.9,211.2,323.9,211.2,323.9,211.1L323.9,211.1z"/>
			</g>
		</g>
		<g>
			<g>
				<path d="M322.8,211.5c-0.6-0.7-0.7-1.8-0.4-2.6c0,0-0.1-0.1-0.1,0C322,209.7,322.2,210.8,322.8,211.5
					C322.8,211.5,322.9,211.5,322.8,211.5L322.8,211.5z"/>
			</g>
		</g>
		<g>
			<g>
				<path d="M321.6,210.1c0.1,0.2,0,0.4-0.1,0.5c0,0,0,0,0.1,0c-0.3-0.2-0.4-0.5-0.5-0.8c-0.1-0.3-0.1-0.7-0.1-1c0,0-0.1-0.1-0.1,0
					c-0.1,0.7,0.2,1.5,0.7,1.9c0,0,0,0,0.1,0C321.6,210.5,321.7,210.3,321.6,210.1C321.6,210,321.6,210.1,321.6,210.1L321.6,210.1z"
					/>
			</g>
		</g>
		<g>
			<g>
				<path d="M320.5,210.6c-0.5-0.2-0.8-0.7-0.9-1.2c-0.1-0.6,0-1.3,0.1-2c0,0-0.1-0.1-0.1,0c-0.1,0.7-0.2,1.4,0,2.1
					C319.7,210,320,210.5,320.5,210.6C320.5,210.6,320.6,210.6,320.5,210.6L320.5,210.6z"/>
			</g>
		</g>
		<g>
			<g>
				<path d="M319.3,210.2c-0.6-0.6-0.9-1.5-0.7-2.3c0-0.1-0.1-0.1-0.1,0C318.3,208.7,318.6,209.7,319.3,210.2
					C319.3,210.3,319.4,210.2,319.3,210.2L319.3,210.2z"/>
			</g>
		</g>
		<g>
			<g>
				<path d="M318.1,209.8c-0.7-0.6-1-1.6-0.8-2.5c0-0.1-0.1-0.1-0.1,0C317,208.2,317.3,209.3,318.1,209.8
					C318.1,209.9,318.1,209.9,318.1,209.8L318.1,209.8z"/>
			</g>
		</g>
		<g>
			<g>
				<path d="M317.4,209.3c-0.8-0.3-1.2-1.4-0.9-2.2c0-0.1-0.1-0.1-0.1,0C316.2,207.9,316.5,209,317.4,209.3
					C317.4,209.4,317.4,209.3,317.4,209.3L317.4,209.3z"/>
			</g>
		</g>
		<g>
			<g>
				<path d="M316.5,209.2c-1-0.4-1.3-1.6-1-2.5c0-0.1-0.1-0.1-0.1,0C315,207.6,315.5,208.9,316.5,209.2
					C316.5,209.2,316.5,209.2,316.5,209.2L316.5,209.2z"/>
			</g>
		</g>
		<g>
			<g>
				<path d="M315.2,208.7c-0.7-0.6-0.9-1.6-0.7-2.5c0,0-0.1-0.1-0.1,0C314.1,207,314.4,208.1,315.2,208.7
					C315.1,208.7,315.2,208.7,315.2,208.7L315.2,208.7z"/>
			</g>
		</g>
		<g>
			<g>
				<path d="M313.8,208.5c-0.9-0.5-1.3-1.5-1.3-2.4c0-0.1-0.1,0-0.1,0C312.4,207,312.9,208.1,313.8,208.5
					C313.8,208.5,313.8,208.5,313.8,208.5L313.8,208.5z"/>
			</g>
		</g>
		<g>
			<g>
				<path d="M312.7,207.9c-0.5-0.1-0.8-0.6-1-1c-0.2-0.5-0.2-1,0.1-1.5c0,0,0-0.1-0.1,0C311.3,206.3,311.7,207.7,312.7,207.9
					C312.7,208,312.7,207.9,312.7,207.9L312.7,207.9z"/>
			</g>
		</g>
		<g>
			<g>
				<path d="M311.1,207.3c-0.8-0.3-1.1-1.3-1-2c0-0.1-0.1-0.1-0.1,0C309.9,206,310.3,207,311.1,207.3
					C311.1,207.3,311.1,207.3,311.1,207.3L311.1,207.3z"/>
			</g>
		</g>
		<g>
			<g>
				<path d="M309.8,207.3c-0.6-0.8-0.8-1.8-0.7-2.8c0-0.1-0.1-0.1-0.1,0C308.8,205.5,309.1,206.5,309.8,207.3
					C309.8,207.3,309.8,207.3,309.8,207.3L309.8,207.3z"/>
			</g>
		</g>
		<g>
			<g>
				<path d="M309.3,206.5c-0.7-0.3-1-1.2-0.9-1.9c0,0-0.1-0.1-0.1,0C308.2,205.4,308.6,206.3,309.3,206.5
					C309.3,206.6,309.4,206.5,309.3,206.5L309.3,206.5z"/>
			</g>
		</g>
		<g>
			<g>
				<path d="M307.8,205.9c-0.4-0.1-0.7-0.3-0.9-0.7c-0.2-0.3-0.3-0.7-0.3-1.1c0-0.1-0.1-0.1-0.1,0
					C306.6,204.9,307.1,205.8,307.8,205.9C307.9,206,307.9,205.9,307.8,205.9L307.8,205.9z"/>
			</g>
		</g>
		<g>
			<g>
				<path d="M306.2,206.4c-0.6-0.6-1-1.4-1.1-2.2c0-0.1-0.1,0-0.1,0C305.2,205,305.6,205.8,306.2,206.4
					C306.2,206.4,306.3,206.4,306.2,206.4L306.2,206.4z"/>
			</g>
		</g>
		<g>
			<g>
				<path d="M304.5,206.2c-0.7-0.4-1.1-1.3-1-2.1c0-0.1-0.1-0.1-0.1,0C303.3,205,303.7,205.9,304.5,206.2
					C304.5,206.3,304.5,206.2,304.5,206.2L304.5,206.2z"/>
			</g>
		</g>
		<g>
			<g>
				<path d="M303.3,206.3c-0.3-0.2-0.6-0.5-0.8-0.9c-0.2-0.4-0.3-0.7-0.4-1.1c0-0.1-0.1,0-0.1,0
					C302.1,205.1,302.6,205.9,303.3,206.3C303.3,206.4,303.3,206.4,303.3,206.3L303.3,206.3z"/>
			</g>
		</g>
		<g>
			<g>
				<path d="M302.2,207.2c-0.8-0.2-1.1-1.1-1-1.9c0,0-0.1-0.1-0.1,0C300.9,206,301.4,207,302.2,207.2
					C302.2,207.2,302.2,207.2,302.2,207.2L302.2,207.2z"/>
			</g>
		</g>
		<g>
			<g>
				<path d="M301,207.3c-0.7-0.4-1.2-1.2-1.2-2c0-0.1-0.1-0.1-0.1,0C299.7,206.1,300.2,207,301,207.3C301,207.4,301,207.3,301,207.3
					L301,207.3z"/>
			</g>
		</g>
		<g>
			<g>
				<path d="M299.1,208.6c-0.7-0.7-0.9-1.8-0.7-2.8c0,0-0.1-0.1-0.1,0C298.1,206.8,298.4,207.9,299.1,208.6
					C299.1,208.7,299.1,208.7,299.1,208.6L299.1,208.6z"/>
			</g>
		</g>
		<g>
			<g>
				<path d="M297.3,208.5c-0.6-0.1-0.9-0.8-0.9-1.4c0,0-0.1,0-0.1,0C296.3,207.7,296.7,208.4,297.3,208.5
					C297.4,208.6,297.4,208.5,297.3,208.5L297.3,208.5z"/>
			</g>
		</g>
		<g>
			<g>
				<path d="M296.3,210c-0.9-0.3-1.2-1.3-1.1-2.1c0,0-0.1-0.1-0.1,0C294.9,208.7,295.4,209.8,296.3,210
					C296.3,210.1,296.3,210,296.3,210L296.3,210z"/>
			</g>
		</g>
		<g>
			<g>
				<path d="M294.9,210.3c-0.6-0.5-1-1.1-1.3-1.7c0,0-0.1,0-0.1,0C293.8,209.2,294.3,209.8,294.9,210.3
					C294.9,210.3,294.9,210.3,294.9,210.3L294.9,210.3z"/>
			</g>
		</g>
		<g>
			<g>
				<path d="M293.4,211.6c-0.7-0.3-1-1.1-0.9-1.8c0,0-0.1,0-0.1,0C292.4,210.5,292.7,211.3,293.4,211.6
					C293.4,211.7,293.5,211.6,293.4,211.6L293.4,211.6z"/>
			</g>
		</g>
		<g>
			<g>
				<path d="M292.1,212.5c-0.7-0.7-1.1-1.6-1.3-2.5c0-0.1-0.1,0-0.1,0C290.8,210.9,291.3,211.8,292.1,212.5
					C292,212.5,292.1,212.5,292.1,212.5L292.1,212.5z"/>
			</g>
		</g>
		<g>
			<g>
				<path d="M291,213.3c-0.4,0-0.7-0.3-0.9-0.6c-0.2-0.3-0.3-0.7-0.3-1.1c0,0-0.1-0.1-0.1,0C289.7,212.4,290.2,213.3,291,213.3
					C291,213.3,291,213.3,291,213.3L291,213.3z"/>
			</g>
		</g>
		<g>
			<g>
				<path d="M289.1,214.4c-0.4-0.3-0.6-0.7-0.7-1.1c-0.1-0.5,0-0.9,0.1-1.3c0,0-0.1-0.1-0.1,0c-0.2,0.4-0.2,0.9-0.1,1.4
					C288.4,213.7,288.7,214.1,289.1,214.4C289.1,214.4,289.1,214.4,289.1,214.4L289.1,214.4z"/>
			</g>
		</g>
		<g>
			<g>
				<path d="M288.6,215.4c-0.8-0.4-1.1-1.3-1-2.2c0,0-0.1-0.1-0.1,0C287.4,214,287.8,215,288.6,215.4
					C288.6,215.4,288.6,215.4,288.6,215.4L288.6,215.4z"/>
			</g>
		</g>
		<g>
			<g>
				<path d="M287.3,216.7c-0.8-0.7-1.1-1.8-1.1-2.9c0-0.1-0.1-0.1-0.1,0C286.1,214.9,286.5,216,287.3,216.7
					C287.3,216.7,287.3,216.7,287.3,216.7L287.3,216.7z"/>
			</g>
		</g>
		<g>
			<g>
				<path d="M286.1,218.1c-0.8-0.5-1.3-1.3-1.5-2.2c0,0-0.1,0-0.1,0C284.8,216.8,285.3,217.6,286.1,218.1
					C286.1,218.1,286.1,218.1,286.1,218.1L286.1,218.1z"/>
			</g>
		</g>
		<g>
			<g>
				<path d="M285.5,218.3c-0.4,0.1-0.8-0.2-1.1-0.5c-0.3-0.3-0.4-0.8-0.4-1.2c0,0-0.1,0-0.1,0C283.8,217.5,284.5,218.5,285.5,218.3
					C285.5,218.3,285.5,218.3,285.5,218.3L285.5,218.3z"/>
			</g>
		</g>
		<g>
			<g>
				<path d="M283.9,219.2c-0.5-0.4-0.7-1.1-0.7-1.7c0,0-0.1,0-0.1,0C283.1,218.2,283.4,218.8,283.9,219.2
					C283.9,219.3,283.9,219.3,283.9,219.2L283.9,219.2z"/>
			</g>
		</g>
		<g>
			<g>
				<path d="M291.3,228.2c-0.6,0-0.9,0.6-0.8,1.1c0,0,0.1,0,0.1,0C290.4,228.9,290.8,228.3,291.3,228.2
					C291.3,228.3,291.3,228.2,291.3,228.2L291.3,228.2z"/>
			</g>
		</g>
		<g>
			<g>
				<path d="M291.5,228.7c-0.1,0.5-0.2,1-0.1,1.6c0,0,0.1,0,0,0C291.4,229.8,291.4,229.3,291.5,228.7
					C291.5,228.7,291.5,228.7,291.5,228.7L291.5,228.7z"/>
			</g>
		</g>
		<g>
			<g>
				<path d="M292.9,228.3c-0.4,0.6-0.6,1.5-0.3,2.2c0,0,0.1,0,0.1,0C292.4,229.7,292.5,228.9,292.9,228.3
					C292.9,228.3,292.9,228.2,292.9,228.3L292.9,228.3z"/>
			</g>
		</g>
		<g>
			<g>
				<path d="M294.7,228.2c-0.5,0.6-0.7,1.5-0.4,2.2c0,0,0.1,0,0.1,0C294.2,229.7,294.3,228.9,294.7,228.2
					C294.8,228.3,294.8,228.2,294.7,228.2L294.7,228.2z"/>
			</g>
		</g>
		<g>
			<g>
				<path d="M296.8,228c-0.8,0.5-1.2,1.6-0.9,2.5c0,0,0.1,0,0.1,0C295.7,229.6,296,228.5,296.8,228C296.8,228,296.8,228,296.8,228
					L296.8,228z"/>
			</g>
		</g>
		<g>
			<g>
				<path d="M297.5,228c-0.6,0.7-0.6,1.8,0,2.6c0,0,0.1,0,0.1-0.1C296.9,229.8,296.9,228.7,297.5,228
					C297.5,228,297.5,227.9,297.5,228L297.5,228z"/>
			</g>
		</g>
		<g>
			<g>
				<path d="M299.8,228c-0.6,0.6-0.7,1.7-0.3,2.4c0,0,0.1,0,0.1,0C299.2,229.7,299.3,228.7,299.8,228C299.9,228,299.8,228,299.8,228
					L299.8,228z"/>
			</g>
		</g>
		<g>
			<g>
				<path d="M301.8,227.8c-0.6,0.6-0.8,1.6-0.5,2.4c0,0,0.1,0,0.1,0C301.1,229.4,301.2,228.4,301.8,227.8
					C301.8,227.8,301.8,227.8,301.8,227.8L301.8,227.8z"/>
			</g>
		</g>
		<g>
			<g>
				<path d="M303.5,227c-0.6,1-0.8,2.2-0.3,3.3c0,0,0.1,0,0.1,0C302.9,229.2,302.9,228,303.5,227C303.6,227,303.5,227,303.5,227
					L303.5,227z"/>
			</g>
		</g>
		<g>
			<g>
				<path d="M306.2,227.3c-0.3,0-0.5,0-0.8,0c0,0,0,0,0,0c-0.2,0.5-0.2,1.1-0.2,1.6c0,0.5,0.1,1.1,0.3,1.5c0,0,0.1,0,0.1,0
					c-0.2-0.6-0.3-1.2-0.3-1.9c0-0.3,0-0.6,0.1-1c0-0.1,0-0.2,0.1-0.2c0-0.1,0.2,0,0.2,0C305.9,227.4,306.1,227.4,306.2,227.3
					C306.3,227.4,306.3,227.3,306.2,227.3L306.2,227.3z"/>
			</g>
		</g>
		<g>
			<g>
				<path d="M307.9,226.6c-0.8,0.6-0.9,2-0.3,2.8c0,0,0.1,0,0.1,0C307.1,228.5,307.2,227.3,307.9,226.6
					C308,226.6,307.9,226.6,307.9,226.6L307.9,226.6z"/>
			</g>
		</g>
		<g>
			<g>
				<path d="M309.6,226.6c-0.2-0.1-0.3,0.1-0.4,0.2c-0.1,0.3-0.1,0.6-0.1,0.9c0,0.6,0,1.3,0.4,1.8c0,0,0.1,0,0.1,0
					c-0.3-0.4-0.4-1-0.4-1.5C309.2,227.8,309.2,226.4,309.6,226.6C309.6,226.6,309.6,226.6,309.6,226.6L309.6,226.6z"/>
			</g>
		</g>
		<g>
			<g>
				<path d="M311.2,226.4c-0.1,0-0.3,0-0.4,0c0,0,0,0,0,0c-0.3,1-0.1,2.2,0.5,3c0,0,0.1,0,0.1,0c-0.3-0.4-0.5-1-0.6-1.5
					c0-0.3,0-0.6,0-0.8c0-0.2,0-0.3,0.1-0.5c0-0.1,0-0.1,0.1-0.1C311,226.4,311.1,226.4,311.2,226.4
					C311.2,226.4,311.2,226.4,311.2,226.4L311.2,226.4z"/>
			</g>
		</g>
		<g>
			<g>
				<path d="M313.2,225.5c-0.8,0.8-0.9,2.2-0.3,3.1c0,0,0.1,0,0.1,0C312.4,227.6,312.5,226.3,313.2,225.5
					C313.2,225.5,313.2,225.5,313.2,225.5L313.2,225.5z"/>
			</g>
		</g>
		<g>
			<g>
				<path d="M314.3,224.9c-0.2,0.8,0,1.7,0.5,2.4c0,0,0.1,0,0.1,0C314.4,226.5,314.2,225.7,314.3,224.9
					C314.4,224.8,314.3,224.8,314.3,224.9L314.3,224.9z"/>
			</g>
		</g>
		<g>
			<g>
				<path d="M316.4,224.3c-0.8,0.6-0.6,2.1,0.3,2.4c0.1,0,0.1-0.1,0-0.1C315.8,226.3,315.7,224.9,316.4,224.3
					C316.5,224.3,316.4,224.3,316.4,224.3L316.4,224.3z"/>
			</g>
		</g>
		<g>
			<g>
				<path d="M318.8,223.4c-0.4,0.9-0.3,1.9,0.2,2.7c0,0,0.1,0,0.1,0C318.6,225.3,318.5,224.3,318.8,223.4
					C318.9,223.4,318.8,223.4,318.8,223.4L318.8,223.4z"/>
			</g>
		</g>
		<g>
			<g>
				<path d="M320,222.9c-0.3,0.8-0.3,1.7,0.2,2.4c0,0,0.1,0,0.1,0C319.8,224.5,319.8,223.6,320,222.9
					C320.1,222.8,320,222.8,320,222.9L320,222.9z"/>
			</g>
		</g>
		<g>
			<g>
				<path d="M322.1,221.4c-0.3,0.4-0.4,0.9-0.4,1.4c0,0.2,0,0.5,0.1,0.7c0,0,0,0.1,0,0.1c0,0,0.1,0,0.2,0c0.1,0,0.3,0,0.4-0.1
					c0,0,0-0.1,0-0.1c-0.1,0.1-0.3,0.1-0.4,0.1c-0.1,0-0.1-0.2-0.1-0.3c-0.1-0.2-0.1-0.4-0.1-0.7
					C321.8,222.3,321.9,221.8,322.1,221.4C322.2,221.4,322.2,221.4,322.1,221.4L322.1,221.4z"/>
			</g>
		</g>
		<g>
			<g>
				<path d="M324,220.1c-0.5,0.9-0.3,2.2,0.5,2.8c0,0,0.1,0,0-0.1C323.7,222.3,323.5,221,324,220.1C324,220.1,324,220.1,324,220.1
					L324,220.1z"/>
			</g>
		</g>
		<g>
			<g>
				<path d="M326,218.7c-0.4,0.3-0.6,0.9-0.5,1.4c0,0.5,0.3,1,0.7,1.3c0,0,0.1,0,0-0.1c-0.4-0.2-0.7-0.8-0.7-1.2
					C325.5,219.6,325.6,219,326,218.7C326,218.7,326,218.7,326,218.7L326,218.7z"/>
			</g>
		</g>
		<g>
			<g>
				<path d="M327,218.4c-0.3,0.4-0.3,0.9-0.2,1.3c0.1,0.4,0.4,0.8,0.9,0.9c0.1,0,0.1-0.1,0-0.1C326.8,220.4,326.5,219.1,327,218.4
					C327,218.4,327,218.4,327,218.4L327,218.4z"/>
			</g>
		</g>
		<g>
			<g>
				<path d="M328.3,217.3c-0.3,0.4-0.3,1-0.3,1.5c0,0.2,0,0.5,0.2,0.6c0.2,0.1,0.3,0,0.4-0.2c0-0.1-0.1-0.1-0.1,0
					c0,0.1-0.1,0.1-0.2,0.1c-0.1,0-0.2-0.1-0.2-0.2c-0.1-0.2-0.1-0.4-0.1-0.6C328.1,218.1,328.1,217.7,328.3,217.3
					C328.3,217.3,328.3,217.3,328.3,217.3L328.3,217.3z"/>
			</g>
		</g>
		<g>
			<g>
				<path d="M329.6,216.4c-0.3,0.3-0.4,0.7-0.3,1c0,0.4,0.2,0.7,0.5,1c0,0,0.1,0,0-0.1c-0.3-0.2-0.4-0.6-0.5-0.9
					C329.3,217.1,329.4,216.7,329.6,216.4C329.7,216.4,329.7,216.4,329.6,216.4L329.6,216.4z"/>
			</g>
		</g>
		<g>
			<g>
				<path d="M330.2,215.2c-0.2,0.8,0,1.8,0.8,2.3c0,0,0.1,0,0-0.1C330.4,216.9,330.1,216,330.2,215.2
					C330.3,215.2,330.3,215.1,330.2,215.2L330.2,215.2z"/>
			</g>
		</g>
		<g>
			<g>
				<path d="M331.5,214.6c-0.1,0.4-0.2,0.8-0.1,1.1c0.1,0.3,0.3,0.5,0.6,0.5c0.1,0,0.1-0.1,0-0.1c-0.3,0-0.5-0.3-0.5-0.5
					C331.4,215.3,331.5,214.9,331.5,214.6C331.5,214.6,331.5,214.6,331.5,214.6L331.5,214.6z"/>
			</g>
		</g>
		<path class="st15" d="M277.4,226.7c0,0,25.9-20.1,31.7-18.2c5.8,1.9,21.6,7.1,25.7,2.2c0,0-12.1,1.4-24.9-4.7
			S277.4,226.7,277.4,226.7z"/>
		<path class="st16" d="M277.4,226.7c0,0,34.4,6.4,57.4-16C334.8,210.7,319.3,238.5,277.4,226.7z"/>
	</g>
	<path class="st17" d="M82.6,192.6c0,0,3.8,10.3,71.1-4.3c64-13.9,163.8-26.3,243.2-18.3c0,0,22.3,5.4,27-3.6c0,0,4.3,13.9-31.1,9.7
		c-34.5-4.1-184.2-3.3-264.3,23.2C129.4,198.8,82.2,210.6,82.6,192.6z"/>
	<g>
		<g>
			<path class="st18" d="M242.7,495.1c1,0,1-1.5,0-1.5C241.8,493.6,241.8,495.1,242.7,495.1L242.7,495.1z"/>
		</g>
	</g>
	<path class="st19" d="M172.9,422l-19.7,3.8c0,0-29.5,24.4,8.6,73.5h32C193.8,499.3,134.3,444.4,172.9,422z"/>
	<path class="st19" d="M369.5,412.6c0,0,51.8,4.9,19.8,87.5l-32,0C360.8,501.8,404.8,439.7,369.5,412.6z"/>
	
		<image style="overflow:visible;" width="800" height="600" xlink:href="../../../../Users/arre_/Pictures/bilder/p.png"  transform="matrix(0.1116 0 0 0.1116 209.2921 43.7191)">
	</image>
	<path class="st20" d="M207,352.8c0,0,48.2,39.2,97.8-3.9C304.8,348.8,261.2,386.2,207,352.8z"/>
	<path class="st20" d="M207,353c0,0,35.9,11.5,95.8-4.5C301.9,348.2,245.8,360.6,207,353z"/>
	<path class="st21" d="M207.4,352.7c0,0,39.1-18.1,95.2-4.3C302.6,348.5,244.3,338.8,207.4,352.7z"/>
	<g id="skägg_1_">
		<g>
			<path class="st10" d="M236.9,452.4c-2.1,0.8-4.2,1.6-6.5,1.7c-2.2,0.1-4.6-0.4-6.2-2.1"/>
		</g>
		<g>
			<path class="st10" d="M239.3,457.2c-2.6,1.9-6.2,2-9.2,0.8s-5.4-3.7-7.1-6.4"/>
		</g>
		<g>
			<path class="st10" d="M237,459.2c-4,2.1-9.2,1.1-12.2-2.2"/>
		</g>
		<g>
			<path class="st10" d="M235.9,457.8c-5.9,2.4-13.2,0.4-17-4.7"/>
		</g>
		<g>
			<path class="st10" d="M233.7,452"/>
		</g>
		<g>
			<path class="st10" d="M240.9,452.7c0.1,1.8,0.2,3.7,1.1,5.3c0.8,1.6,2.6,2.9,4.4,2.6"/>
		</g>
		<g>
			<path class="st10" d="M245.1,452.8c-0.9,1.8-1.8,3.8-1.7,5.8c0.1,2,1.7,4.1,3.7,4.1"/>
		</g>
		<g>
			<path class="st10" d="M250.1,452.6c-1.4,2.2-1.8,5-1,7.4c0.8,2.5,2.6,4.6,5,5.6"/>
		</g>
		<g>
			<path class="st10" d="M253.1,454.1c-2.5,1.1-3.8,4.4-2.8,6.9c1,2.5,4.3,4,6.8,3"/>
		</g>
		<g>
			<path class="st10" d="M256,452.3c-1.3,2.6-1.8,5.8-0.5,8.3c1.3,2.6,5.1,3.9,7.2,2"/>
		</g>
		<g>
			<path class="st10" d="M261.4,454.9c-0.1,1.4-0.2,2.9,0.2,4.3c0.4,1.4,1.3,2.7,2.7,3.2c1.4,0.5,3.1-0.1,3.6-1.5"/>
		</g>
		<g>
			<path class="st10" d="M264.2,454.9c0.4,2.3,0.8,4.6,2.4,6.4c1.5,1.7,4.6,2.3,6.1,0.5"/>
		</g>
		<g>
			<path class="st10" d="M269.4,452.4c0.4,1.6,1,3.1,1.7,4.5c0.8,1.5,1.8,3.1,3.3,3.8s3.7,0.5,4.6-0.9"/>
		</g>
		<g>
			<path class="st10" d="M242.7,452.6c0.2-0.3-0.3-0.6-0.5-0.4c-0.3,0.2-0.3,0.6-0.2,0.9c0.2,3.9,1.4,7.7,3.4,11
				c0.6,1,1.3,2,2.4,2.5c1.1,0.5,2.5,0.4,3.2-0.6"/>
		</g>
		<g>
			<path class="st10" d="M245.9,452.8c-0.7,3.2,0.7,6.7,3.4,8.5c2.7,1.8,6.6,1.6,9.2-0.3"/>
		</g>
		<g>
			<path class="st10" d="M276.4,451.6c-0.8,2.9,0,6.2,2.3,8.1s6.2,1.6,7.9-0.8"/>
		</g>
		<g>
			<path class="st10" d="M281.5,452c0.7,2.8,1.6,5.7,3.7,7.6s5.9,2.3,7.6,0"/>
		</g>
		<g>
			<path class="st10" d="M314.1,454c-2.3,1.5-4.6,3.1-7.2,3.8c-2.6,0.8-5.7,0.6-7.9-1"/>
		</g>
		<g>
			<path class="st10" d="M307.8,455.1c-4.8,1.2-9.7,2.5-14.5,3.7c-0.6,0.1-1.1,0.3-1.7,0.1c-0.6-0.1-1.1-0.7-1-1.2"/>
		</g>
		<g>
			<path class="st10" d="M297.2,459.8c-4,3.2-10.5,2.6-14-1.2"/>
		</g>
		<g>
			<path class="st10" d="M289.3,457.1c-1.9,2.4-4.3,4.6-7.3,5.2s-6.6-1.2-7-4.2"/>
		</g>
		<g>
			<path class="st10" d="M280.6,462.2c-2.5,1.4-5.8,1.4-8.3,0s-4.3-4.1-4.5-7"/>
		</g>
		<g>
			<path class="st10" d="M271.2,462.5c-1.7,1.4-4,2.8-5.9,1.8c-1.4-0.7-2-2.2-2.3-3.7c-0.6-2.9-0.5-6,0.3-8.9"/>
		</g>
		<g>
			<path class="st10" d="M267.6,461.7c-1.8,1.4-3.9,2.5-6.2,2.5c-2.3,0-4.6-1.7-4.7-4"/>
		</g>
		<g>
			<path class="st10" d="M258.5,464.9c-1.8,1.7-4.9,1.2-6.6-0.6s-2.2-4.5-1.9-6.9"/>
		</g>
		<g>
			<path class="st10" d="M253.4,462.2c-1,0.9-2.6,0.5-3.4-0.5c-0.8-1-1.1-2.3-1.4-3.6"/>
		</g>
		<g id="skägg">
			<g>
				<path class="st10" d="M141.7,315c0.1,0.1,0.2,0.2,0.4,0.4"/>
			</g>
			<g>
				<path class="st10" d="M188.1,379.7c2.3,0.7,7.2,0.7,10.5,0.3l9.3-2.5c4.4,0,8.8,0,13.3,0.1c3.7,0,7.3,0,11,0.3
					c2.1,0.2,4.2,0.4,6.3,0.6c2.4,0.1,4.8,0.1,7.2,0c8.7-0.3,17.3-0.5,26-0.8c3.1-0.1,6.3-0.2,9.4-0.3c16.7-0.7,33.5-2,50.1-4.2
					c3.2-0.4,6.4-0.9,9.2-2.5c6.3-3.7,7.9-12,9.2-19.2c3.7-20.6,10-40.7,18.9-59.6c0.8,19.6,0.4,39.2-1.3,58.7
					c-1.3,14.3-3.2,28.6-5.9,42.8c-1.5,8.2-3.4,16.4-7.4,23.7c-4.6,8.4-11.8,15-19.6,20.6c-19.5,13.9-43.1,21.9-67.1,22.6
					c-23.9,0.7-48-5.8-68.3-18.5c-4.1-2.6-8-5.4-11.9-8.3c-3.8-2.9-7.5-5.9-11-9.2c-15.9-15.1-25.6-35.8-30.5-57.2
					c-5-21.4-5.5-43.6-5.3-65.7c6.6,26.3,17,51.6,30.9,74.9c1.7,2.9,5.8,0.5,9,1.7l2.7,0.4C184.6,378.7,186.4,379.2,188.1,379.7z"/>
			</g>
			<g>
				<path class="st10" d="M163.7,408.5c-0.5,2-3.4,2.6-5.1,1.4c-1.7-1.2-2.4-3.4-2.6-5.4"/>
			</g>
			<g>
				<path class="st10" d="M161.9,409.1c-2.1,0.6-4.4-1-5.2-3.1c-0.8-2.1-0.5-4.4-0.1-6.5"/>
			</g>
			<g>
				<path class="st10" d="M164.7,406.8c-4.6-1.8-8-6.6-8.1-11.6"/>
			</g>
			<g>
				<path class="st10" d="M164.1,401.5c-1.9,0.7-4-0.2-5.3-1.7c-1.3-1.5-1.9-3.5-2.5-5.4"/>
			</g>
			<g>
				<path class="st10" d="M153.5,382.6c-0.7,5.8,0.6,11.7,3.4,16.7c0.3,0.5,0.6,1,1.1,1.1c0.5,0.2,1.2-0.1,1.2-0.7"/>
			</g>
			<g>
				<path class="st10" d="M153.2,385.1c-2,1.8-1.8,4.9-1.1,7.5c1,3.5,2.9,6.7,5.3,9.4"/>
			</g>
			<g>
				<path class="st10" d="M152.5,383.7c-2.7,5.3-1.5,12.2,2.7,16.3"/>
			</g>
			<g>
				<path class="st10" d="M153.2,381.5c-4.1,5.9-3.7,14.5,0.9,19.9"/>
			</g>
			<g>
				<path class="st10" d="M150.6,378.6c-3.6,5.6-2.9,13.6,1.7,18.5"/>
			</g>
			<g>
				<path class="st10" d="M150.2,373.5c-3.5,5-3.4,12.3,0.2,17.2"/>
			</g>
			<g>
				<path class="st10" d="M145.2,362.8c-1.2,4.9-0.6,10.2,1.8,14.7c0.5,1,1.2,2,2.2,2.3"/>
			</g>
			<g>
				<path class="st10" d="M144.6,358.5c-1.5,2.4-1.7,5.4-1.2,8.1s1.7,5.3,2.8,7.9c0.3,0.8,0.7,1.6,1.4,2c0.7,0.5,1.8,0.4,2.2-0.4"/>
			</g>
			<g>
				<path class="st10" d="M142.4,350.9c-0.8,6.1,0.1,12.4,2.6,18c0.6,1.3,1.2,2.6,2.4,3.4"/>
			</g>
			<g>
				<path class="st10" d="M142,345.2c0.2,4.6,1.4,9.2,3.6,13.2c0.5,0.9,1.6,1.9,2.4,1.2"/>
			</g>
			<g>
				<path class="st10" d="M140.5,334c-2.3,4.4-0.4,9.8,1.5,14.4c0.6,1.4,1.2,2.8,2.4,3.8"/>
			</g>
			<g>
				<path class="st10" d="M139.9,329.7c-1.2,6.4-1.3,13.1-0.1,19.5c0.2,1.3,0.6,2.7,1.5,3.7"/>
			</g>
			<g>
				<path class="st10" d="M138.6,325c-0.7,1.9-0.6,4-0.3,6c0.6,5,2.1,9.8,4.3,14.3"/>
			</g>
			<g>
				<path class="st10" d="M141,319.7c-2.1,1.3-2,4.4-1.6,6.8c0.6,3.6,1.3,7.3,3.7,10"/>
			</g>
			<g>
				<path class="st10" d="M138.4,314.3c-1.4,5.5-0.4,11.6,2.7,16.4"/>
			</g>
			<g>
				<path class="st10" d="M139.7,310.3c-1.4,5.4,0.4,11.4,4.3,15.3"/>
			</g>
			<g>
				<path class="st10" d="M140.9,308.7c4.1,2.3,7,6.5,7.9,11"/>
			</g>
			<g>
				<path class="st10" d="M141.2,309.8c3.5,3.9,6.1,8.5,7.7,13.5"/>
			</g>
			<g>
				<path class="st10" d="M141.4,310.7c5.1,4.9,8.9,11,11,17.7"/>
			</g>
			<g>
				<path class="st10" d="M142.4,315.2c2,2.6,4.1,5.2,6.1,7.8c2.3,3,4.7,6,6.2,9.5"/>
			</g>
			<g>
				<path class="st10" d="M144.1,318c5.3,6.5,9.7,13.7,13.1,21.4"/>
			</g>
			<g>
				<path class="st10" d="M145.8,322.9c0.9,3.3,3.8,5.6,6.2,8.1c2.7,2.8,4.9,6,6.5,9.5"/>
			</g>
			<g>
				<path class="st10" d="M146.4,323.6c5.1,7,9.6,14.3,13.6,22"/>
			</g>
			<g>
				<path class="st10" d="M147.3,328.7c3.8,8.3,11.7,14.6,14.1,23.4"/>
			</g>
			<g>
				<path class="st10" d="M148.2,332.9c2.8,0.1,5.3,2,7.1,4.2c2.9,3.5,4.6,7.8,6.3,12.1"/>
			</g>
			<g>
				<path class="st10" d="M148.3,334.3c5.9,5.8,11,12.3,15.1,19.5"/>
			</g>
			<g>
				<path class="st10" d="M153.5,344.2c5.7,4.4,10,10.6,11.9,17.6"/>
			</g>
			<g>
				<path class="st10" d="M154.2,342.7c4.2,6.2,7.4,13.1,9.2,20.4"/>
			</g>
			<g>
				<path class="st10" d="M160,350.6c3,5.5,5.9,11.1,8.5,16.8"/>
			</g>
			<g>
				<path class="st10" d="M163.5,358.3c3.8,4.8,6.8,10.2,8.9,16"/>
			</g>
			<g>
				<path class="st10" d="M168.1,362.8c0.3,5.4,1.8,10.7,4.2,15.5"/>
			</g>
			<g>
				<path class="st10" d="M159.2,355c4.4,5,7.5,11.3,8.8,17.9"/>
			</g>
			<g>
				<path class="st10" d="M161.8,361.4c3.3,4.7,6.3,9.7,9,14.7"/>
			</g>
			<g>
				<path class="st10" d="M173.3,379.3c0.6-2.5,2.6-4.6,5.1-5.5"/>
			</g>
			<g>
				<path class="st10" d="M173.7,379c1.7-2.2,5.2-2.8,7.6-1.3"/>
			</g>
			<g>
				<path class="st10" d="M173.7,376.3c2.7-0.3,5.5,0.1,7.9,1.3"/>
			</g>
			<g>
				<path class="st10" d="M172.7,378.4c1.3-1.9,3.9-2.5,6.1-1.9c2.2,0.6,4.1,2,5.7,3.6"/>
			</g>
			<g>
				<path class="st10" d="M177.5,377.5c0.3-0.8,1.4-1,2.3-1c4.2,0.1,8.2,2.8,9.9,6.6"/>
			</g>
			<g>
				<path class="st10" d="M181,381.8c0.9-1.8,2.8-3,4.8-3.2s4,0.6,5.4,2"/>
			</g>
			<g>
				<path class="st10" d="M183,379.9c4.4-1.9,10-0.8,13.3,2.7"/>
			</g>
			<g>
				<path class="st10" d="M188.7,382.9c1.5-2.4,3.8-4.3,6.6-5"/>
			</g>
			<g>
				<path class="st10" d="M169.3,379.4c-1-2.7,1.6-5.8,4.4-5.9s5.4,2.1,6.4,4.8"/>
			</g>
			<g>
				<path class="st10" d="M173,380.8c1.3-2.2,3.6-3.7,6.1-4"/>
			</g>
			<g>
				<path class="st10" d="M173.4,416.2c-2.3,1-5.1,0.6-7-1s-2.7-4.3-2.1-6.7"/>
			</g>
			<g>
				<path class="st10" d="M173.7,417.6c-2.9,0-5.7-1.3-7.5-3.6c-1.8-2.2-2.6-5.3-2-8.1"/>
			</g>
			<g>
				<path class="st10" d="M171.2,416.9c-2.6,0.8-5.1-1.3-6.7-3.5c-2.1-3-3.2-6.7-3.2-10.3"/>
			</g>
			<g>
				<path class="st10" d="M165.8,411.9c-2.8-0.3-5.2-2.5-6.5-5.1s-1.5-5.5-1.5-8.4"/>
			</g>
			<g>
				<path class="st10" d="M162.5,412.8c-3.4-3.2-5-8.1-4.1-12.6"/>
			</g>
			<g>
				<path class="st10" d="M178.1,420.5c-1,0.4-2.2,0.1-3.2-0.3c-4.3-1.8-7.2-6.4-7-11"/>
			</g>
			<g>
				<path class="st10" d="M181.2,421.7c-0.9,1.2-2.8,1.4-4.1,0.8c-1.4-0.6-2.4-1.9-3.1-3.2c-1.8-2.9-2.8-6.3-3-9.7"/>
			</g>
			<g>
				<path class="st10" d="M182.4,424.5c-3,1.2-6.6-0.3-8.5-2.9s-2.5-6-2.3-9.2"/>
			</g>
			<g>
				<path class="st10" d="M180.2,427c-2,1.1-4.4-0.3-6-2c-3.3-3.5-5.1-8.4-4.8-13.3"/>
			</g>
			<g>
				<path class="st10" d="M179.8,426.6c-4.8-1.2-8.6-5.4-9.5-10.3"/>
			</g>
			<g>
				<path class="st10" d="M179.8,426.8c-1,1-2.5,1.3-3.9,1c-1.4-0.3-2.6-1.1-3.6-2c-4.1-3.6-6.3-9.4-5.5-14.8"/>
			</g>
			<g>
				<path class="st10" d="M175.5,425.9c-3.1-1-5.4-3.5-6.9-6.4s-2.1-6.1-2.7-9.2"/>
			</g>
			<g>
				<path class="st10" d="M173.1,423.8c-3.8-1.8-6.9-5-8.5-8.8c-1.6-3.8-1.8-8.3-0.4-12.2"/>
			</g>
			<g>
				<path class="st10" d="M195.8,435.1c-2.7,0.7-5.8,0.7-8.3-0.7s-4.2-4.2-4-7"/>
			</g>
			<g>
				<path class="st10" d="M191,437.2c-4.9-1.6-9-5.5-10.8-10.4"/>
			</g>
			<g>
				<path class="st10" d="M188.8,436.8c-2.8,0.8-5.8-1-7.3-3.4c-1.5-2.5-1.8-5.5-1.8-8.3"/>
			</g>
			<g>
				<path class="st10" d="M194.3,438c-2.1,1.1-4.7,0.6-6.6-0.8s-3-3.5-3.7-5.8"/>
			</g>
			<g>
				<path class="st10" d="M202.5,441c-5,0.5-10.3-2-13-6.3"/>
			</g>
			<g>
				<path class="st10" d="M208.5,440.8c-1.5,3.3-6.1,4.4-9.4,2.9c-3.3-1.5-5.5-4.8-6.7-8.2"/>
			</g>
			<g>
				<path class="st10" d="M206.8,446c-2.8,0.7-5.8-0.2-8.1-2s-4-4.2-5.3-6.8"/>
			</g>
			<g>
				<path class="st10" d="M210.1,445.6c-2.1,1-4.7,1-6.8,0.1s-3.8-2.9-4.4-5.2"/>
			</g>
			<g>
				<path class="st10" d="M218.1,442.4c-0.2,1.8-0.5,3.7-1.4,5.3c-1,1.6-2.9,2.7-4.6,2.2c-1.1-0.3-1.9-1.1-2.6-2
					c-1.9-2.3-3.2-5.2-3.7-8.1"/>
			</g>
			<g>
				<path class="st10" d="M223.4,447.7c-2.3,1.9-5.5,2.6-8.4,2s-5.5-2.6-6.9-5.2"/>
			</g>
			<g>
				<path class="st10" d="M227.4,447.3c-0.5,2.9-3.3,5.3-6.2,5.3c-3,0-5.7-2.4-6.2-5.3"/>
			</g>
			<g>
				<path class="st10" d="M228.2,450.2c-0.1,2.3-2.7,3.4-4.9,4.1c-3,0.9-6.7,1.7-9-0.5"/>
			</g>
			<g>
				<path class="st10" d="M220.1,455.2c-5.3,1.3-11.2-2.6-12.1-7.9"/>
			</g>
			<g>
				<path class="st10" d="M215.5,453.5c-2.7,1.3-6.1,0.2-8.1-2c-2-2.2-3-5.2-3.7-8.1"/>
			</g>
			<g>
				<path class="st10" d="M212.5,453.1c-2.9,0.1-5.6-1.6-7.3-3.9c-1.7-2.3-2.4-5.2-2.9-8"/>
			</g>
			<g>
				<path class="st10" d="M226.7,456c-1.4,2.1-4.5,2.1-6.9,1.3c-4.7-1.6-8.7-5.1-10.7-9.6"/>
			</g>
			<g>
				<path class="st10" d="M217.3,453.9c-2.6,1-5.6-0.1-7.9-1.7c-3.5-2.4-6.2-6-7.5-10"/>
			</g>
			<g>
				<path class="st10" d="M205.3,451c-5.3-3.4-8.7-9.6-8.5-15.9"/>
			</g>
			<g>
				<path class="st10" d="M202.1,451.4c-2.1-0.9-3.5-3-4.5-5.1c-1.9-4.3-2.7-9.1-2.2-13.7"/>
			</g>
			<g>
				<path class="st10" d="M237.2,450.6c0,3.3,1.1,6.7,3.1,9.3c0.7,0.9,1.9,1.8,2.8,1.2"/>
			</g>
			<g>
				<path class="st10" d="M288.5,450.2c-1.1,3.8-0.6,8,1.2,11.5c0.3,0.5,0.6,1,1,1.3c0.8,0.5,2,0.4,2.8-0.2s1.4-1.4,2-2.2"/>
			</g>
			<g>
				<path class="st10" d="M295.2,449.1c-1.6,1.8-2.5,4.2-2.1,6.6s2.3,4.5,4.6,4.9c2.3,0.5,5-1,5.6-3.3"/>
			</g>
			<g>
				<path class="st10" d="M297,450.1c-0.7,1.2-0.2,2.8,0.9,3.8c1,0.9,2.5,1.3,3.9,1.3c3.1,0.1,6.3-1.1,8.6-3.3"/>
			</g>
			<g>
				<path class="st10" d="M301.7,450.2c-0.2,2.7,2.4,5.1,5.1,5.3c2.7,0.3,5.4-1.1,7.3-3"/>
			</g>
			<g>
				<path class="st10" d="M304.9,448c1.3,3,4.1,5.5,7.4,5.9c3.3,0.4,6.8-1.9,7.3-5.2"/>
			</g>
			<g>
				<path class="st10" d="M311.2,446.9c0.3,1.7,2.5,2.3,4.2,2.1c3.4-0.2,6.7-1.7,9.2-4"/>
			</g>
			<g>
				<path class="st10" d="M316.3,443.4c1,2.1,3.7,3.1,6.1,2.8c2.4-0.3,4.5-1.5,6.6-2.6"/>
			</g>
			<g>
				<path class="st10" d="M350.4,415.7c-0.3,3.2-0.6,6.3-0.9,9.5c-0.3,2.9-0.9,6.3-3.6,7.3"/>
			</g>
			<g>
				<path class="st10" d="M346.1,421c-0.5,3-1.5,6-2.8,8.7c-1,2-2.4,4.1-4.6,4.7"/>
			</g>
			<g>
				<path class="st10" d="M345.8,423.6c0.4,3.3-0.6,6.6-1.8,9.7c-0.6,1.6-1.3,3.2-2.3,4.5c-1.1,1.3-2.7,2.3-4.4,2.3"/>
			</g>
			<g>
				<path class="st10" d="M341.9,430c-1.3,3.1-2.8,6.1-4.9,8.7s-4.8,4.8-8,5.8"/>
			</g>
			<g>
				<path class="st10" d="M337.9,432.2c-0.8,2.9-1.7,5.8-3.3,8.4s-3.9,4.8-6.7,5.7c-1.7,0.6-4,0.5-4.8-1.1"/>
			</g>
			<g>
				<path class="st10" d="M329.9,443.6c-1.3,2.9-2.7,5.8-5.1,7.9c-2.4,2.1-6.1,2.9-8.7,1.2"/>
			</g>
			<g>
				<path class="st10" d="M322.5,448.4c-1.5,2.3-3.3,4.4-5.3,6.2c-1,0.9-2.2,1.8-3.5,2.1s-2.9-0.2-3.6-1.4"/>
			</g>
			<g>
				<path class="st10" d="M350.1,409.8c2,4,2.5,8.7,1.4,13c-0.2,0.9-0.7,2-1.7,2.1"/>
			</g>
			<g>
				<path class="st10" d="M351.8,406.4c0.9,5.9,1.1,12,0.7,18"/>
			</g>
			<g>
				<path class="st10" d="M351.8,401.4c1.9,6.1,2.4,12.7,1.4,19"/>
			</g>
			<g>
				<path class="st10" d="M356,399.1c1.2,7.2,1,14.5-0.6,21.6"/>
			</g>
			<g>
				<path class="st10" d="M358.8,398.8c0.4,6.3,0,12.6-1.3,18.7"/>
			</g>
			<g>
				<path class="st10" d="M357.6,393.1c1.1,5,2.2,10,3.3,15.1c0.4,1.8,0.8,3.7,0.1,5.4"/>
			</g>
			<g>
				<path class="st10" d="M354.5,384.3c1.3-0.3,2.6,0.4,3.5,1.4c0.9,1,1.4,2.2,1.8,3.5c1.8,5.4,2.4,11.2,1.6,16.9"/>
			</g>
			<g>
				<path class="st10" d="M359.3,381.8c2.7,8.8,3.5,18.2,2.5,27.4"/>
			</g>
			<g>
				<path class="st10" d="M359.9,380c2.7,7.3,4.3,15,4.9,22.8"/>
			</g>
			<g>
				<path class="st10" d="M358,375c0.2-0.8,1.3-1.1,2.1-0.8c0.8,0.4,1.2,1.2,1.6,1.9c3.1,5.9,4.5,12.7,4.2,19.4"/>
			</g>
			<g>
				<path class="st10" d="M357.3,370.3c-0.1-0.7,0.9-1.1,1.6-0.8c0.6,0.3,1,1,1.2,1.7c2.9,7,5.9,14.3,5.5,21.8"/>
			</g>
			<g>
				<path class="st10" d="M359,367.8c1.5-0.6,3,0.9,3.8,2.3c3.6,6.2,5,13.7,4,20.8"/>
			</g>
			<g>
				<path class="st10" d="M358.5,362.4c0.9-0.9,2.4-0.7,3.4,0s1.6,1.9,2.1,3c2.6,5.7,4.2,11.8,5,18c0.2,1.9,0.3,3.9-0.9,5.4"/>
			</g>
			<g>
				<path class="st10" d="M360.4,357c6.5,6.7,9.9,16.3,9,25.6"/>
			</g>
			<g>
				<path class="st10" d="M362.2,350.1c1.7,1.2,2.6,3.1,3.4,4.9c1.6,3.6,2.9,7.4,4.1,11.2c0.8,2.8,1.5,5.7,0.8,8.6"/>
			</g>
			<g>
				<path class="st10" d="M359.9,352.6c-0.4-0.8,0.8-1.7,1.7-1.4c0.9,0.3,1.3,1.3,1.7,2.2c1.8,4.7,2.8,9.6,3.9,14.5"/>
			</g>
			<g>
				<path class="st10" d="M362.1,344.3c1.1-0.3,2.2,0.3,2.8,1.2c0.7,0.9,0.9,2,1.1,3c1.3,6.4,1.1,13.1-0.4,19.4"/>
			</g>
			<g>
				<path class="st10" d="M364,340.5c3,7.7,4.9,15.9,5.5,24.1"/>
			</g>
			<g>
				<path class="st10" d="M364,332.9c0.5-0.6,1.4-0.5,2,0c0.6,0.5,0.8,1.2,1.1,1.9c2.8,8.2,3.5,17.1,2,25.6"/>
			</g>
			<g>
				<path class="st10" d="M366.1,329.8c0.9-0.5,1.7,0.8,1.9,1.8c1.6,7.7,2.3,15.5,2,23.3"/>
			</g>
			<g>
				<path class="st10" d="M363.5,303.1c0-0.4,0.1-0.7,0.4-1c-3.5,2.9-5.7,7.3-6.1,11.8"/>
			</g>
			<g>
				<path class="st10" d="M362.3,304.4c-1.2,1.5-2.4,3-3.2,4.8c-0.8,1.8-1,3.9-0.2,5.6c0.8,1.8,2.8,3,4.7,2.6"/>
			</g>
			<g>
				<path class="st10" d="M363,308c-2.9,1.9-3.9,5.6-4.6,9c-0.4,2-0.7,4.5,1,5.7"/>
			</g>
			<g>
				<path class="st10" d="M359.7,311.1c-4.3,4.9-4.6,12.8-0.5,17.9"/>
			</g>
			<g>
				<path class="st10" d="M359.3,314c-2.5,2.9-4.5,6.4-5.1,10.2c-0.6,3.8,0.2,7.9,2.8,10.8"/>
			</g>
			<g>
				<path class="st10" d="M356.5,320.9c-4.7,5.2-5,13.7-0.8,19.3"/>
			</g>
			<g>
				<path class="st10" d="M357.1,325.1c-3.2,2.1-5.3,5.8-5.4,9.7c-0.2,3.8,1.6,7.7,4.7,10.1"/>
			</g>
			<g>
				<path class="st10" d="M352.7,333.3c-1.5,3.2-1.3,7,0.4,10"/>
			</g>
			<g>
				<path class="st10" d="M350.1,352.3c-1.9-1.2-3-3.6-2.6-5.8c0.3-2.2,2.1-4.2,4.2-4.7"/>
			</g>
			<g>
				<path class="st10" d="M349,352.8c-0.6-1.7-1.2-3.6-1-5.4s1.2-3.7,3-4.3"/>
			</g>
			<g>
				<path class="st10" d="M350.8,360.1c-1.8-1.3-3.3-3.1-3.8-5.3c-0.5-2.2,0.1-4.7,1.9-6"/>
			</g>
			<g>
				<path class="st10" d="M349,368.7c-3.5-3.6-4.2-9.5-1.7-13.8"/>
			</g>
			<g>
				<path class="st10" d="M345.9,370.4c-1.7-1.1-2.3-3.3-2.3-5.3c0-3.2,1.2-6.4,3.3-8.9"/>
			</g>
			<g>
				<path class="st10" d="M346.3,378.5c-2.9-0.8-4.8-3.8-5.2-6.8s0.3-6,1-8.9"/>
			</g>
			<g>
				<path class="st10" d="M341.9,376.9c-2-5-1.8-10.8,0.6-15.6"/>
			</g>
			<g>
				<path class="st10" d="M339.4,381.5c-1.5,0-2.9-1-3.7-2.3c-0.8-1.3-1-2.9-1-4.4c0.1-4.5,2.8-8.9,6.8-11"/>
			</g>
			<g>
				<path class="st10" d="M331.7,384.1c-1-5.3,0.2-10.9,3.1-15.5"/>
			</g>
			<g>
				<path class="st10" d="M329.9,383.5c-1.6-2.7-1.7-6.2-0.7-9.2c1-3,3-5.6,5.3-7.8"/>
			</g>
			<g>
				<path class="st10" d="M330.1,385.1c-1.5,0.1-2.1-1.8-2.1-3.3c0-2.4,0.1-5,1.1-7.2c1-2.2,2.9-4.2,5.3-4.6"/>
			</g>
			<g>
				<path class="st10" d="M326.8,385.1c-0.9-4.9-0.6-10,0.9-14.8"/>
			</g>
			<g>
				<path class="st10" d="M324.3,384c-2.3-4.8-1-11.1,3-14.6"/>
			</g>
			<g>
				<path class="st10" d="M322.9,390.9c-1.7-2.1-2.5-4.9-2.1-7.6"/>
			</g>
			<g>
				<path class="st10" d="M192.1,383.7c-0.9,0.2-1.5-0.9-1.5-1.8c0.1-2.1,2.1-3.9,4.2-3.8c2.1,0,4,1.8,4.4,3.8"/>
			</g>
			<g>
				<path class="st10" d="M193.4,384.1c0.2-2.3,0.4-4.8,1.7-6.8s4.2-3.1,6.1-1.7"/>
			</g>
			<g>
				<path class="st10" d="M198.6,382.2c-1.3-1.9-0.7-4.9,1.4-5.8c1.7-0.7,3.6,0.1,5,1.3c2.4,1.9,3.9,4.8,4.3,7.8"/>
			</g>
			<g>
				<path class="st10" d="M199.9,380.4c0.8-2.4,2.9-4.2,5.4-4.6c2.5-0.4,5.1,0.7,6.5,2.7"/>
			</g>
			<g>
				<path class="st10" d="M206.2,380.5c1-2.4,3.8-4.1,6.4-3.7c2.6,0.3,4.9,2.5,5.4,5.1"/>
			</g>
			<g>
				<path class="st10" d="M211.8,377.9c1.8-1.3,3.8-2.3,6-2.9c1-0.3,2.1-0.5,3.1-0.3c1.6,0.3,2.9,1.6,3.6,3.1c0.7,1.5,1,3.1,1.3,4.7
					"/>
			</g>
			<g>
				<path class="st10" d="M227.1,382.7c-1.4-2.2-2.4-4.7-2.6-7.3"/>
			</g>
			<g>
				<path class="st10" d="M234.4,378.7c-2.5-3.3-7.7-4.2-11.2-1.9"/>
			</g>
			<g>
				<path class="st10" d="M234.5,374.7c-1.9-1-4.4-0.4-6,1c-1.7,1.4-2.6,3.5-3.2,5.6"/>
			</g>
			<g>
				<path class="st10" d="M245.3,379c-2.4-0.9-4.9-1.8-7.4-1.4c-2.5,0.4-4.9,2.5-4.7,5.1"/>
			</g>
			<g>
				<path class="st10" d="M247.8,374.2c-1.6-0.7-3.6,0.1-4.8,1.4s-1.7,3.1-2.1,4.8c-0.6,2.7-0.6,6.2,1.8,7.7"/>
			</g>
			<g>
				<path class="st10" d="M254.3,375.7c-2.3-1.2-5.2,0.3-6.5,2.6c-1.2,2.3-1.1,5-0.7,7.5"/>
			</g>
			<g>
				<path class="st10" d="M253.4,380c1.1-1.7,3.1-2.6,5.1-2.8c2-0.2,4,0.1,5.9,0.5"/>
			</g>
			<g>
				<path class="st10" d="M257.6,376.6c0.7-1.9,3.2-2.6,5.2-2.1c2,0.6,3.5,2,5,3.5"/>
			</g>
			<g>
				<path class="st10" d="M262.5,377.1c2.5-1.1,5.5-1,7.9,0.3s4.2,3.6,4.8,6.3"/>
			</g>
			<g>
				<path class="st10" d="M267.9,375.8c1.7-1.7,4.6-1.3,6.7-0.2c1.8,1,3.4,2.5,4.3,4.5s1,4.2,0.1,6.1"/>
			</g>
			<g>
				<path class="st10" d="M278.3,381.2c-0.4-2.4,0.4-4.9,2.1-6.7c1.7-1.8,4.2-2.7,6.6-2.4"/>
			</g>
			<g>
				<path class="st10" d="M279.7,378.7c0.6-2.3,1.2-4.8,3-6.5c1.7-1.7,4.9-2.2,6.4-0.3"/>
			</g>
			<g>
				<path class="st10" d="M291.3,383.7c-0.3,1.3-0.6,2.6-1.7,3.4c-1.4,0.9-3.4,0.2-4.3-1.1c-0.9-1.4-1.1-3.1-0.9-4.8
					c0.2-2.8,1.1-5.6,2.6-8.1c0.7-1.2,1.6-2.4,2.9-3.1c1.2-0.7,2.9-0.9,4.1-0.1"/>
			</g>
			<g>
				<path class="st10" d="M293.1,368.9c1.5-0.4,3.2,0.3,4.3,1.4c1.1,1.1,1.8,2.6,2.3,4.1c1.1,3.2,1.7,6.6,1.8,10"/>
			</g>
			<g>
				<path class="st10" d="M295.7,384.1c-1.8-5.2,0.2-11.5,4.6-14.7"/>
			</g>
			<g>
				<path class="st10" d="M299.7,383.7c-1.7-5.9,2.1-12.9,8-14.7"/>
			</g>
			<g>
				<path class="st10" d="M301.9,386.6c-0.8-6.2,1.8-12.6,6.5-16.7"/>
			</g>
			<g>
				<path class="st10" d="M309.3,382.7c-1-5.5,1.6-11.5,6.4-14.5"/>
			</g>
			<g>
				<path class="st10" d="M309.9,382.6c0.1-6,2.9-11.8,7.4-15.8"/>
			</g>
			<g>
				<path class="st10" d="M314.7,374.4c1.4-2.1,2.9-4.2,4.7-5.9c1.9-1.7,4.2-3,6.7-3.1"/>
			</g>
			<g>
				<path class="st10" d="M316,385.2c-1.6-2.5-1-5.8,0.1-8.6c1.8-4.5,5.2-8.9,10-9.5"/>
			</g>
			<g>
				<path class="st10" d="M323.3,386.2c-2.5-1.8-3.5-5.2-3.3-8.3s1.6-6,3.1-8.7"/>
			</g>
			<g>
				<path class="st10" d="M327.1,377.7c-5.4-5.1-13.9-6.6-20.8-3.8"/>
			</g>
			<g>
				<path class="st10" d="M316.9,373.5c-4.2,0.8-8.4,1.7-12.2,3.5c-3.8,1.9-7.3,4.9-8.7,8.8"/>
			</g>
			<g>
				<path class="st10" d="M303.9,372c-6.8,2.8-12.5,8.3-15.5,14.9"/>
			</g>
			<g>
				<path class="st10" d="M304.2,371.4c-2.3-0.9-4.9,0.1-7.1,1.2c-6.5,3.1-13.1,7.3-15.8,14"/>
			</g>
			<g>
				<path class="st10" d="M298.9,369.9c-2-1.2-4.7-0.6-6.8,0.4c-6.9,3-12.4,9.1-14.8,16.2"/>
			</g>
			<g>
				<path class="st10" d="M292.7,371.6c-3-0.6-6.1,0.7-8.8,2.3c-5.3,3.2-9.8,7.6-13.1,12.8"/>
			</g>
			<g>
				<path class="st10" d="M285.2,372.4c-1.3-0.4-2.6,0.2-3.8,0.7c-9,4.4-16.5,11.9-20.9,20.8"/>
			</g>
			<g>
				<path class="st10" d="M278,372.1c-7.7,1.2-13.8,7-18.4,13.3c-1.5,2.1-3,4.4-3.7,6.8c-0.8,2.5-0.9,5.3,0.2,7.7"/>
			</g>
			<g>
				<path class="st10" d="M266.5,375.7c-4.6-0.3-8.7,2.6-11.8,6c-5.2,5.7-8.4,13.1-8.9,20.7"/>
			</g>
			<g>
				<path class="st10" d="M215.8,372.5c-2.1-0.9-4.5,0.1-6.4,1.5c-4.3,3.2-7,8.4-7.1,13.7"/>
			</g>
			<g>
				<path class="st10" d="M215.7,374.4c-2.5-0.8-5.2-0.2-7.4,1c-2.3,1.2-4.1,3.1-5.8,5c-2,2.4-3.9,5.1-4.3,8.2
					c-0.1,0.7-0.1,1.5,0.4,2c1,1,2.6,0.1,3.6-0.9c1.9-1.9,3.4-4.2,4.4-6.7c0.6-1.5,1.1-3.1,1-4.7c-0.1-1.6-1-3.2-2.4-4
					c-2.3-1.1-5,0.3-6.9,2c-3,2.7-5.2,6.3-6.3,10.1c-0.4,1.3-0.6,2.7-0.3,3.9c0.3,1.3,1.4,2.5,2.8,2.5"/>
			</g>
			<g>
				<path class="st10" d="M202.2,373.1c-1.8-1.1-4.2-0.1-5.9,1.2c-6.3,4.8-8.8,14-5.9,21.3"/>
			</g>
			<g>
				<path class="st10" d="M365.3,318.9c-0.7-0.2-1.1-1-0.8-1.7c2,7.7,2.6,15.8,1.6,23.7"/>
			</g>
			<g>
				<path class="st10" d="M365.4,318.6c4.3,5.6,6.5,12.8,6.1,19.8"/>
			</g>
			<g>
				<path class="st10" d="M366.1,312.8c3.2,6.8,4.7,14.4,4.5,22"/>
			</g>
			<g>
				<path class="st10" d="M366.8,308.2c3.5,7.5,5,15.9,4.4,24.1"/>
			</g>
			<g>
				<path class="st10" d="M368,306.8c1.6,9,3.1,17.9,4.7,26.9"/>
			</g>
			<g>
				<path class="st10" d="M371.8,347.7c0.6,8,0.2,16.1-1,24.1"/>
			</g>
			<g>
				<path class="st10" d="M369.3,368.2c0.4,7.4-0.4,14.8-2.1,21.9"/>
			</g>
			<g>
				<path class="st10" d="M367.2,385.1c-0.4,6.9-2.7,13.7-6.5,19.4"/>
			</g>
			<g>
				<path class="st10" d="M363.5,399.5c-0.6,7-4.4,13.6-10,17.7"/>
			</g>
			<g>
				<path class="st10" d="M356.7,418.2c-2.7,3.2-5.7,6.1-8.9,8.7"/>
			</g>
			<g>
				<path class="st10" d="M347.4,413.9c-0.1,7-1.7,14-4.7,20.3c-0.5,1.1-1.1,2.2-2.2,2.9s-2.6,0.7-3.4-0.2"/>
			</g>
			<g>
				<path class="st10" d="M342.7,433.3c-2.3,2.7-5.3,4.9-8.6,6.3"/>
			</g>
			<g>
				<path class="st10" d="M343.1,429c-1.5,3.5-3.6,6.8-6,9.7c-2.4,2.9-5.7,5.6-9.5,5.2"/>
			</g>
			<g>
				<path class="st10" d="M335.1,435.8c-4.4,5.3-10.3,9.3-16.8,11.5"/>
			</g>
		</g>
	</g>
</g>
</svg>
