<?xml version="1.0" encoding="utf-8"?>
<!-- Generator: Adobe Illustrator 25.1.0, SVG Export Plug-In . SVG Version: 6.00 Build 0)  -->
<svg version="1.1" id="Lager_1" xmlns="http://www.w3.org/2000/svg" xmlns:xlink="http://www.w3.org/1999/xlink" x="0px" y="0px"
	 viewBox="0 0 500 500" style="enable-background:new 0 0 500 500;" xml:space="preserve">
<style type="text/css">
	.st0{fill:#197ACF;}
</style>
<g>
	<path class="st0" d="M317.9,359.6L140.4,182.1c-11.5-11.5-11.5-30.2,0-41.7l0,0c11.5-11.5,30.2-11.5,41.7,0l177.5,177.5
		c11.5,11.5,11.5,30.2,0,41.7l0,0C348.1,371.2,329.4,371.2,317.9,359.6z"/>
	<path class="st0" d="M359.6,182.1L182.1,359.6c-11.5,11.5-30.2,11.5-41.7,0l0,0c-11.5-11.5-11.5-30.2,0-41.7l177.5-177.5
		c11.5-11.5,30.2-11.5,41.7,0l0,0C371.2,151.9,371.2,170.6,359.6,182.1z"/>
</g>
</svg>
