<?xml version="1.0" encoding="utf-8"?>
<!-- Generator: Adobe Illustrator 25.1.0, SVG Export Plug-In . SVG Version: 6.00 Build 0)  -->
<svg version="1.1" id="Lager_1" xmlns="http://www.w3.org/2000/svg" xmlns:xlink="http://www.w3.org/1999/xlink" x="0px" y="0px"
	 viewBox="0 0 500 500" style="enable-background:new 0 0 500 500;" xml:space="preserve">
<style type="text/css">
	.st0{fill:#197ACF;}
	.st1{fill:#F3F4F4;}
	.st2{fill:#C3CDD7;}
	.st3{fill:#A5AEB5;}
	.st4{fill:#0F3F69;}
	.st5{fill:#082742;}
</style>
<path class="st0" d="M322.5,186.5h-198c-16.3,0-29.5-13.2-29.5-29.5v0c0-16.3,13.2-29.5,29.5-29.5h198c16.3,0,29.5,13.2,29.5,29.5v0
	C352,173.2,338.8,186.5,322.5,186.5z"/>
<path class="st0" d="M375.5,279.5h-251c-16.3,0-29.5-13.2-29.5-29.5v0c0-16.3,13.2-29.5,29.5-29.5h251c16.3,0,29.5,13.2,29.5,29.5v0
	C405,266.3,391.8,279.5,375.5,279.5z"/>
<path class="st0" d="M280.1,372.6H124.5c-16.3,0-29.5-13.2-29.5-29.5v0c0-16.3,13.2-29.5,29.5-29.5h155.6
	c16.3,0,29.5,13.2,29.5,29.5v0C309.6,359.4,296.4,372.6,280.1,372.6z"/>
<rect x="99" y="-60.6" class="st1" width="34.8" height="34.8"/>
<rect x="144.7" y="-60.6" class="st2" width="34.8" height="34.8"/>
<rect x="192" y="-60.6" class="st3" width="34.8" height="34.8"/>
<rect x="240.1" y="-60.6" class="st0" width="34.8" height="34.8"/>
<rect x="285.8" y="-60.6" class="st4" width="34.8" height="34.8"/>
<rect x="331.5" y="-60.6" class="st5" width="34.8" height="34.8"/>
</svg>
