<?xml version="1.0" encoding="utf-8"?>
<!-- Generator: Adobe Illustrator 25.1.0, SVG Export Plug-In . SVG Version: 6.00 Build 0)  -->
<svg version="1.1" id="Lager_1" xmlns="http://www.w3.org/2000/svg" xmlns:xlink="http://www.w3.org/1999/xlink" x="0px" y="0px"
	 viewBox="0 0 500 500" style="enable-background:new 0 0 500 500;" xml:space="preserve">
<style type="text/css">
	.st0{fill:#C3CDD7;}
	.st1{fill:#0F3F69;}
	.st2{fill:#197ACF;}
</style>
<g>
	<path class="st0" d="M440.7,394.7L297.4,251.4c-2.3-2.3-6-2.3-8.3,0l0,0c-2.3,2.3-2.3,6,0,8.3l179.2,179.2c3.1,3.1,3.1,8.2,0,11.3
		l0,0c-3.1,3.1-8.2,3.1-11.3,0L293.1,286.4c-2.4-2.4-6.4-2.4-8.8,0l0,0c-2.4,2.4-2.4,6.4,0,8.8l74.8,74.8c2.8,2.8,2.8,7.4,0,10.2
		l0,0c-2.8,2.8-7.4,2.8-10.2,0l-74.8-74.8c-2.4-2.4-6.4-2.4-8.8,0l0,0c-2.4,2.4-2.4,6.4,0,8.8l127.2,127.2c2.3,2.3,2.3,6,0,8.3l0,0
		c-2.3,2.3-6,2.3-8.3,0l-97.9-97.9c-2.4-2.4-6.4-2.4-8.8,0l0,0c-2.4,2.4-2.4,6.4,0,8.8l75.1,75.1c2.3,2.3,2.3,5.9,0,8.2l0,0
		c-2.3,2.3-5.9,2.3-8.2,0L46.2,145.8c-22.5-22.5-22.5-58.9,0-81.4l0,0c22.5-22.5,58.9-22.5,81.4,0L449.4,386c2.4,2.4,2.4,6.3,0,8.7
		l0,0C447,397.1,443.1,397.1,440.7,394.7z"/>
	<path class="st1" d="M279.8,241.3l-49.9-49.9c-2.5-2.5-6.6-2.5-9.1,0l0,0c-2.5,2.5-2.5,6.6,0,9.1l16.4,16.4c2.1,2.1,2.1,5.5,0,7.6
		l0,0c-2.1,2.1-5.5,2.1-7.6,0L158.1,153c-2.5-2.5-6.6-2.5-9.1,0l0,0c-2.5,2.5-2.5,6.6,0,9.1l92.3,92.3c1.8,1.8,1.8,4.7,0,6.6l0,0
		c-1.8,1.8-4.7,1.8-6.6,0l-66.3-66.3c-2.5-2.5-6.6-2.5-9.1,0l0,0c-2.5,2.5-2.5,6.6,0,9.1l79.5,79.5c1.8,1.8,1.8,4.7,0,6.6l-0.1,0.1
		c-1.8,1.8-4.7,1.8-6.6,0l-94.8-95c-2.5-2.5-6.6-2.5-9.1,0l0,0c-2.5,2.5-2.5,6.6,0,9.1l66.7,66.7c1.6,1.6,1.6,4.2,0,5.9l0,0
		c-1.6,1.6-4.2,1.6-5.9,0L53.4,141c-19.6-19.6-19.6-51.3,0-70.8l0,0c19.6-19.6,51.3-19.6,70.8,0l163.3,163.3c2.1,2.1,2.1,5.5,0,7.6
		l-0.2,0.2C285.3,243.4,281.9,243.4,279.8,241.3z"/>
	<path class="st1" d="M238.5,314.7l-12.3-12.3c-1.1-1.1-2.9-1.1-4.1,0l-0.9,0.9c-1.1,1.1-1.1,2.9,0,4.1l12.3,12.3
		c1.1,1.1,2.9,1.1,4.1,0l0.9-0.9C239.6,317.6,239.6,315.8,238.5,314.7z"/>
	<path class="st1" d="M277.5,259l-12.3-12.3c-1.1-1.1-2.9-1.1-4.1,0l-0.9,0.9c-1.1,1.1-1.1,2.9,0,4.1l12.3,12.3
		c1.1,1.1,2.9,1.1,4.1,0l0.9-0.9C278.6,261.9,278.6,260.1,277.5,259z"/>
	
		<ellipse transform="matrix(5.530038e-02 -0.9985 0.9985 5.530038e-02 -23.5475 188.6122)" class="st2" cx="87.9" cy="106.7" rx="41.3" ry="41.3"/>
</g>
</svg>
