<svg id="Lager_1" data-name="Lager 1" xmlns="http://www.w3.org/2000/svg" viewBox="0 0 441.3 405"><defs><style>.cls-1{fill:#243447;}.cls-2{fill:#141d26;}.cls-3{fill:#c51f5d;}</style></defs><path class="cls-1" d="M440.7,394.7,297.4,251.4a5.85,5.85,0,0,0-8.3,0h0a5.85,5.85,0,0,0,0,8.3L468.3,438.9a8,8,0,0,1,0,11.3h0a8,8,0,0,1-11.3,0L293.1,286.4a6.28,6.28,0,0,0-8.8,0h0a6.28,6.28,0,0,0,0,8.8L359.1,370a7.24,7.24,0,0,1,0,10.2h0a7.24,7.24,0,0,1-10.2,0l-74.8-74.8a6.28,6.28,0,0,0-8.8,0h0a6.28,6.28,0,0,0,0,8.8L392.5,441.4a5.85,5.85,0,0,1,0,8.3h0a5.85,5.85,0,0,1-8.3,0l-97.9-97.9a6.28,6.28,0,0,0-8.8,0h0a6.28,6.28,0,0,0,0,8.8l75.1,75.1a5.73,5.73,0,0,1,0,8.2h0a5.73,5.73,0,0,1-8.2,0L46.2,145.8a57.52,57.52,0,0,1,0-81.4h0a57.52,57.52,0,0,1,81.4,0L449.4,386a6.16,6.16,0,0,1,0,8.7h0A6.16,6.16,0,0,1,440.7,394.7Z" transform="translate(-29.33 -47.53)"/><path class="cls-2" d="M279.8,241.3l-49.9-49.9a6.46,6.46,0,0,0-9.1,0h0a6.46,6.46,0,0,0,0,9.1l16.4,16.4a5.37,5.37,0,0,1,0,7.6h0a5.37,5.37,0,0,1-7.6,0L158.1,153a6.46,6.46,0,0,0-9.1,0h0a6.46,6.46,0,0,0,0,9.1l92.3,92.3a4.71,4.71,0,0,1,0,6.6h0a4.71,4.71,0,0,1-6.6,0l-66.3-66.3a6.46,6.46,0,0,0-9.1,0h0a6.46,6.46,0,0,0,0,9.1l79.5,79.5a4.71,4.71,0,0,1,0,6.6l-.1.1a4.71,4.71,0,0,1-6.6,0l-94.8-95a6.46,6.46,0,0,0-9.1,0h0a6.46,6.46,0,0,0,0,9.1l66.7,66.7a4.23,4.23,0,0,1,0,5.9h0a4.23,4.23,0,0,1-5.9,0L53.4,141a50,50,0,0,1,0-70.8h0a50,50,0,0,1,70.8,0L287.5,233.5a5.37,5.37,0,0,1,0,7.6l-.2.2A5.25,5.25,0,0,1,279.8,241.3Z" transform="translate(-29.33 -47.53)"/><path class="cls-2" d="M238.5,314.7l-12.3-12.3a3,3,0,0,0-4.1,0l-.9.9a3,3,0,0,0,0,4.1l12.3,12.3a3,3,0,0,0,4.1,0l.9-.9A3,3,0,0,0,238.5,314.7Z" transform="translate(-29.33 -47.53)"/><path class="cls-2" d="M277.5,259l-12.3-12.3a3,3,0,0,0-4.1,0l-.9.9a3,3,0,0,0,0,4.1L272.5,264a3,3,0,0,0,4.1,0l.9-.9A3,3,0,0,0,277.5,259Z" transform="translate(-29.33 -47.53)"/><circle class="cls-3" cx="58.57" cy="59.17" r="41.3"/></svg>