<?xml version="1.0" encoding="utf-8"?>
<!-- Generator: Adobe Illustrator 25.1.0, SVG Export Plug-In . SVG Version: 6.00 Build 0)  -->
<svg version="1.1" id="Lager_1" xmlns="http://www.w3.org/2000/svg" xmlns:xlink="http://www.w3.org/1999/xlink" x="0px" y="0px"
	 viewBox="0 0 500 500" style="enable-background:new 0 0 500 500;" xml:space="preserve">
<style type="text/css">
	.st0{fill:#C3CDD7;}
	.st1{fill:#0F3F69;}
	.st2{fill:#197ACF;}
</style>
<g>
	<path class="st0" d="M440.7,105.3L297.4,248.6c-2.3,2.3-6,2.3-8.3,0l0,0c-2.3-2.3-2.3-6,0-8.3L468.3,61.1c3.1-3.1,3.1-8.2,0-11.3v0
		c-3.1-3.1-8.2-3.1-11.3,0L293.1,213.6c-2.4,2.4-6.4,2.4-8.8,0v0c-2.4-2.4-2.4-6.4,0-8.8l74.8-74.8c2.8-2.8,2.8-7.4,0-10.2v0
		c-2.8-2.8-7.4-2.8-10.2,0l-74.8,74.8c-2.4,2.4-6.4,2.4-8.8,0l0,0c-2.4-2.4-2.4-6.4,0-8.8L392.5,58.6c2.3-2.3,2.3-6,0-8.3v0
		c-2.3-2.3-6-2.3-8.3,0l-97.9,97.9c-2.4,2.4-6.4,2.4-8.8,0h0c-2.4-2.4-2.4-6.4,0-8.8l75.1-75.1c2.3-2.3,2.3-5.9,0-8.2v0
		c-2.3-2.3-5.9-2.3-8.2,0L46.2,354.3c-22.5,22.5-22.5,58.9,0,81.4l0,0c22.5,22.5,58.9,22.5,81.4,0L449.4,114c2.4-2.4,2.4-6.3,0-8.7
		v0C447,102.9,443.1,102.9,440.7,105.3z"/>
	<path class="st1" d="M279.8,258.7l-49.9,49.9c-2.5,2.5-6.6,2.5-9.1,0l0,0c-2.5-2.5-2.5-6.6,0-9.1l16.4-16.4c2.1-2.1,2.1-5.5,0-7.6
		l0,0c-2.1-2.1-5.5-2.1-7.6,0L158.1,347c-2.5,2.5-6.6,2.5-9.1,0h0c-2.5-2.5-2.5-6.6,0-9.1l92.3-92.3c1.8-1.8,1.8-4.7,0-6.6h0
		c-1.8-1.8-4.7-1.8-6.6,0l-66.3,66.3c-2.5,2.5-6.6,2.5-9.1,0l0,0c-2.5-2.5-2.5-6.6,0-9.1l79.5-79.5c1.8-1.8,1.8-4.7,0-6.6l-0.1-0.1
		c-1.8-1.8-4.7-1.8-6.6,0L137.3,305c-2.5,2.5-6.6,2.5-9.1,0l0,0c-2.5-2.5-2.5-6.6,0-9.1l66.7-66.7c1.6-1.6,1.6-4.2,0-5.9h0
		c-1.6-1.6-4.2-1.6-5.9,0L53.4,359c-19.6,19.6-19.6,51.3,0,70.8v0c19.6,19.6,51.3,19.6,70.8,0l163.3-163.3c2.1-2.1,2.1-5.5,0-7.6
		l-0.2-0.2C285.3,256.6,281.9,256.6,279.8,258.7z"/>
	<path class="st1" d="M238.5,185.3l-12.3,12.3c-1.1,1.1-2.9,1.1-4.1,0l-0.9-0.9c-1.1-1.1-1.1-2.9,0-4.1l12.3-12.3
		c1.1-1.1,2.9-1.1,4.1,0l0.9,0.9C239.6,182.4,239.6,184.2,238.5,185.3z"/>
	<path class="st1" d="M277.5,241l-12.3,12.3c-1.1,1.1-2.9,1.1-4.1,0l-0.9-0.9c-1.1-1.1-1.1-2.9,0-4.1l12.3-12.3
		c1.1-1.1,2.9-1.1,4.1,0l0.9,0.9C278.6,238.1,278.6,239.9,277.5,241z"/>
	<circle class="st2" cx="87.9" cy="393.3" r="41.3"/>
</g>
</svg>
