<?xml version="1.0" encoding="utf-8"?>
<!-- Generator: Adobe Illustrator 24.3.0, SVG Export Plug-In . SVG Version: 6.00 Build 0)  -->
<svg version="1.1" xmlns="http://www.w3.org/2000/svg" xmlns:xlink="http://www.w3.org/1999/xlink" x="0px" y="0px" width="500px"
	 height="500px" viewBox="0 0 500 500" style="enable-background:new 0 0 500 500;" xml:space="preserve">
<style type="text/css">
	.st0{fill:#272D2D;}
	.st1{fill:url(#SVGID_1_);}
	.st2{fill:#394444;}
	.st3{fill:#2F3838;}
	.st4{fill:#333944;}
	.st5{fill:#B0DAF0;}
	.st6{fill:#060A13;}
	.st7{fill:#D4F2FD;}
	.st8{fill:#1E2121;}
	.st9{fill:#333F3F;}
	.st10{fill:none;}
	.st11{fill-rule:evenodd;clip-rule:evenodd;}
	.st12{fill:#C4E3D4;}
	.st13{fill:#C4E3D4;stroke:#000000;stroke-width:0.5;stroke-miterlimit:10;}
	.st14{fill:#3E5D7F;}
	.st15{fill:#B58A86;}
	.st16{fill:#9B271A;}
	.st17{fill:#E2CAB2;}
	.st18{fill:#CF432A;}
	.st19{fill:#9B1E15;}
	.st20{fill:#DCA797;}
	.st21{fill:#E9C384;}
	.st22{fill:#B78A48;}
</style>
<g id="Lager_1">
	<rect y="153.2" class="st0" width="500" height="346.8"/>
	<radialGradient id="SVGID_1_" cx="250.1292" cy="76.5761" r="184.971" gradientUnits="userSpaceOnUse">
		<stop  offset="0.5587" style="stop-color:#FFFFFF"/>
		<stop  offset="0.6176" style="stop-color:#CFD2D2"/>
		<stop  offset="0.6778" style="stop-color:#A5ACAC"/>
		<stop  offset="0.7396" style="stop-color:#838C8C"/>
		<stop  offset="0.802" style="stop-color:#687474"/>
		<stop  offset="0.8655" style="stop-color:#556262"/>
		<stop  offset="0.9306" style="stop-color:#4A5757"/>
		<stop  offset="1" style="stop-color:#465454"/>
	</radialGradient>
	<polygon class="st1" points="499.7,152.4 0,153.2 0,0 500.3,0.6 	"/>
	<polygon class="st2" points="500,148.6 430,129.3 382.8,151.7 345.8,97 306.2,146.4 249.5,65.8 186.8,150.5 95.8,-2.5 83.7,52.5 
		53.1,22.4 0,146.5 0,230.5 500.3,226 	"/>
	<polygon class="st3" points="500.3,152.9 450,177.2 377.2,121 345.8,133.4 315.3,96.2 250.5,163.4 186.8,103.1 150,116.2 
		90.9,41.2 53.1,51.6 20,136.4 -0.1,149.2 -0.1,226 500.3,231.4 	"/>
	<g>
		<g>
			<path class="st4" d="M388.9,199.3c0.5,0.5,1,0.9,1.5,1.4c8.1,7.7,16.3,15.9,20.2,26.4c2.8,7.6,3.1,15.8,3,23.9
				c-0.1,5.6-0.4,11.4-3.2,16.1c-5.8,9.6-18.8,11-30,11.3c-81.1,1.8-162.4-3.4-243.4,1c-11.8,0.6-23.9,1.5-35.5-1
				c-2.8-0.6-5.8-1.6-7.5-3.9c-1.9-2.6-1.6-6.1-1.2-9.3c1.5-12.9,3-25.9,4.4-38.8c16-23.3,34.4-44.9,55-64.2
				c4.5-4.3,9.2-8.4,13.2-13.1c18.5-21.7,22.4-53.5,42.5-73.7c11.1-11.2,26.7-17.8,42.5-18s31.5,6,42.9,16.9
				c14.7,14.1,21.3,34.3,31.3,52.1C340.5,154.7,365.2,176.8,388.9,199.3z"/>
		</g>
		<g>
			<path class="st5" d="M234.5,114.7c2.7,0,5.5-1,7.5-2.9c0.9-0.9,1.7-1.9,2-3.1c0.4-1.4,0.2-2.9-0.3-4.3c-1-2.8-3.3-5.1-6.1-6.2
				c-4-2.7-9.9-0.6-11.8,3.7c-1.8,4,0,9.3,3.9,11.5C231.2,114.3,232.8,114.7,234.5,114.7z"/>
		</g>
		<g>
			<path class="st5" d="M266.3,113.3c-1.8,0-3.6-0.4-5.2-1.1c-1.2-0.6-2.4-1.4-3.2-2.5c-0.7-1.1-0.9-2.4-0.8-3.7
				c0.2-3.3,2.4-6.3,5.4-7.8c3.3-0.9,7.1,0,9.4,2.5c2.6,2.9,2.8,7.8,0,10.5C270.3,112.7,268.3,113.3,266.3,113.3z"/>
		</g>
		<g>
			<path class="st6" d="M245.6,148.2c13.1-0.3,26.2-0.6,39.2-0.9c1.5,0,3.1-0.4,4.3-1.3c4.2-2.8,2.7-7.1,0.5-10.2
				c-8.9-12.5-28.1-16.1-35.3-29.1c-0.9-1.7-3.1-2.2-4.6-1c-7.6,6.3-11.3,17.7-20.2,22.6c-3.7,2.1-8,2.8-11.9,4.5
				c-3.9,1.7-7.7,4.9-8,9.1c-0.1,0.9,0,1.8,0.5,2.5c0.4,0.5,1,0.9,1.6,1.2c5.9,3.1,12.8,3,19.4,2.9
				C236,148.5,240.8,148.3,245.6,148.2z"/>
		</g>
		<g>
			<path class="st6" d="M208.7,170.2c-1.8-1.4-2.6-4.2-1-5.7c1.2-1.2,3.1-1.2,4.7-1.1c10.2,0.2,20.3-2.1,30.4-3.3
				c23.1-2.7,46.9,0.5,68.5,9.4c-31.7-1.4-63.5-0.8-95.1,1.9c-2.4,0.2-5,0.4-7.1-0.8C209,170.4,208.9,170.3,208.7,170.2z"/>
		</g>
		<g>
			<path class="st6" d="M235.9,108.9c-0.2,0-0.3,0-0.5,0c-1.1-0.1-1.9-1.1-1.8-2.2c0.1-0.7,0.5-1.4,1-2c0.2-0.3,0.5-0.2,0.7-0.4
				c0.2-0.1,0.4-0.2,0.7-0.1c0.1,0,0.3,0.1,0.4,0.2c0.7,0.7,1.4,1.6,1.3,2.6C237.5,107.9,236.8,108.7,235.9,108.9z"/>
		</g>
		<g>
			<path class="st6" d="M265.2,108.1c-0.3-0.2-0.5-0.4-0.7-0.7c-0.4-0.7-0.4-1.7,0.1-2.4c0.3-0.4,0.7-0.6,1.1-0.7
				c0.9,0.4,1.7,1.2,1.8,2.2c0.1,0.8-0.4,1.7-1.1,1.9C266,108.5,265.6,108.4,265.2,108.1z"/>
		</g>
		<g>
			<path class="st7" d="M215.1,169.3c0.9,0.2,1.8,0,2.7-0.2c1.6-0.2,3.2-0.4,4.8-0.3c0.1,0,0.2,0,0.3-0.1c0.1-0.1,0.1-0.3,0.1-0.4
				c-0.1-1.4-0.2-2.9-0.2-4.3c-2.2,0.5-4.4,0.8-6.7,0.8c-0.7,0-1.5,0.1-1.9,0.6c-0.4,0.5-0.4,1.3-0.2,2c0.2,0.6,0.4,1.2,0.6,1.7
				C214.8,169.2,215,169.3,215.1,169.3z"/>
		</g>
		<g>
			<path class="st7" d="M233.2,168C233.2,168,233.3,168,233.2,168c0.2-0.2,0.2-0.3,0.2-0.5c0.1-1.2,0.1-2.5,0-3.7
				c0-0.2,0-0.3-0.2-0.5c-0.1-0.1-0.3-0.1-0.4-0.1c-2.6,0-5.1,0.3-7.7,0.7c0.2,1.2,0.4,2.4,0.5,3.6c0,0.2,0.1,0.4,0.2,0.6
				c0.2,0.1,0.4,0.1,0.6,0.1c1,0,2,0,3.1,0.1c1.1,0,2.2,0,3.3-0.3C233,168.1,233.1,168.1,233.2,168z"/>
		</g>
		<g>
			<path class="st7" d="M244.6,167.1C244.7,167,244.7,167,244.6,167.1c0.1-0.1,0.1-0.2,0.1-0.3c0-1.1,0-2.2,0-3.3
				c0-0.3,0-0.7-0.3-0.9c-0.1-0.1-0.3-0.1-0.5-0.1c-2.9-0.2-5.8-0.1-8.7,0.6c-0.1,1.3,0,2.6,0.3,3.8c0,0.2,0.1,0.4,0.3,0.5
				c0.1,0.1,0.2,0.1,0.3,0.1c1.4,0,2.8,0,4.3-0.1c1.3,0,2.7,0,4-0.2C244.5,167.1,244.6,167.1,244.6,167.1z"/>
		</g>
		<g>
			<path class="st7" d="M257,166.5C257,166.5,257,166.5,257,166.5c-0.2,0.1-0.3,0.1-0.5,0.1c-2.9-0.2-5.9,0.5-8.8,0.3
				c-0.2,0-0.5,0-0.6-0.2c-0.1-0.1-0.1-0.2-0.2-0.4c-0.4-1.4-0.7-2.9-0.8-4.4c2.6-0.2,5.2-0.4,7.8-0.4c1,0,2.1,0,3.1,0.3
				c0.1,0,0.2,0.1,0.3,0.2c0.1,0.1,0.1,0.2,0,0.3c-0.1,1.2-0.2,2.4-0.3,3.6C257.1,166.2,257.1,166.4,257,166.5z"/>
		</g>
		<g>
			<path class="st7" d="M268.8,165.9c0.1,0,0.2-0.1,0.3-0.1c0.1-0.1,0.1-0.2,0.1-0.4c0-1,0-2,0-3c0-0.1,0-0.3-0.1-0.4
				c-0.1-0.1-0.2-0.1-0.4-0.1c-1.8-0.1-3.6-0.2-5.4-0.2c-1.4-0.1-2.9-0.1-4.3,0.4c0,1.1,0.2,2.1,0.5,3.2c0.1,0.2,0.1,0.4,0.3,0.5
				c0.2,0.1,0.4,0.1,0.6,0.1c2.7,0,5.5,0,8.2,0.1C268.6,165.9,268.7,165.9,268.8,165.9z"/>
		</g>
		<g>
			<path class="st7" d="M280.4,165.8c-0.1,0-0.2,0-0.2,0c-1.7,0-3.4-0.1-5.1-0.1c-1.1,0-2.1,0-3.2-0.1c-0.2,0-0.3,0-0.4-0.1
				c-0.1-0.1-0.2-0.2-0.2-0.4c-0.4-1.2-0.5-2.5-0.5-3.8c3,0.8,6.2,1.2,9.3,1.3c0.3,0,0.7,0,0.9,0.3c0.1,0.1,0.1,0.3,0.1,0.5
				c0,0.6-0.1,1.3-0.2,1.9c0,0.1,0,0.3-0.1,0.4C280.6,165.7,280.5,165.7,280.4,165.8z"/>
		</g>
		<g>
			<path class="st7" d="M290,165.6c-0.2,0-0.3,0-0.5,0c-1.4-0.1-2.7-0.2-4.1-0.2c-0.4,0-0.8,0-1.1,0c-0.4,0.1-1,0.2-1.3,0
				c-0.3-0.2-0.4-0.7-0.4-1c0-0.5,0.2-1,0-1.4c2.3,0.3,4.7,0.7,7.1,0.6c0.3,0,0.7,0,0.9,0.3c0.1,0.3-0.1,0.6,0,0.9
				c0,0.1,0.1,0.2,0.1,0.4c0,0.2-0.2,0.4-0.4,0.5C290.2,165.6,290.1,165.6,290,165.6z"/>
		</g>
		<g>
			<path class="st7" d="M296.7,166.6c-1.1-0.2-2.2-0.3-3.3-0.1c-0.1,0-0.2,0-0.3,0c0,0-0.1-0.1-0.1-0.2c-0.1-0.6-0.2-1.3-0.4-1.9
				c1.5,0.5,2.9,1.1,4.4,1.6c0.2,0.1,0.3,0.1,0.4,0.2c0.1,0.1,0.1,0.3,0,0.4c-0.1,0.1-0.2,0-0.4,0
				C296.9,166.7,296.8,166.7,296.7,166.6z"/>
		</g>
		<g>
			<path class="st7" d="M208.7,168.6c-0.1-0.1-0.1-0.2-0.1-0.4c0-0.5,0-0.9,0-1.4c0-0.2,0.1-0.5,0.2-0.7c0.2-0.4,0.7-0.6,1.2-0.8
				c0.5-0.2,1-0.4,1.5-0.3c0.2,0,0.3,0.1,0.5,0.1c0.2,0,0.3,0,0.5-0.1c0,0.3,0,0.6,0,0.6c0,0.7,0,1.5,0,2.2c0,0.2,0,0.4-0.2,0.6
				c-0.1,0.1-0.3,0.1-0.5,0.1c-0.8,0.1-1.7,0.1-2.5,0.1C209.1,168.8,208.8,168.8,208.7,168.6z"/>
		</g>
	</g>
	<polygon class="st0" points="500.3,218.7 449.8,233.4 380.4,164.2 348.2,168.1 325.3,193.4 290.7,214.4 205.6,208.5 159.1,146.2 
		126.2,148.6 75.9,77.8 63.4,117.9 26.8,163.8 0.2,186.8 -0.1,283.5 500,279.9 	"/>
	<g>
		<g>
			<path class="st8" d="M376.6,334.5c0.1-0.2,0.2-0.3,0.4-0.5c1.4-1.6,3.3-3,5.4-3c2.3,0,4.5,1.6,5.6,3.7c1.2,2,1.6,4.4,1.8,6.8
				c0.5,5.8,0.2,11.6-1.1,17.3c-0.1,0.6,0,1.6,0.6,1.5c0.2,0,0.3-0.1,0.5-0.2c1.4-0.9,2.7-1.8,4.1-2.7c0.4-0.3,0.8-0.5,1.3-0.5
				c0.8,0.1,1.1,1.1,0.9,1.8s-0.9,1.2-1.5,1.7c-1,0.7-2,1.5-3,2.2c2.4,0.3,4.8,1,7,1.9c0.6,0.2,1.3,0.7,1.1,1.3
				c-0.1,0.5-0.7,0.6-1.2,0.7c-2.4,0.3-5-0.1-7.2-1c0.7,2.8,4.9,2.9,6.4,5.3c0.2,0.3,0.3,0.7,0.1,1c-0.3,0.5-1.1,0.3-1.6,0
				c-1.8-1-3.6-2.1-5.4-3.1c0.4,2.9,0.9,5.9,1.3,8.8c-1.9-2-3-4.8-3.2-7.5c-0.9,1.6-0.9,3.4-0.9,5.2c0.2,9.7,1.9,19.3,1.7,29
				c-0.1,5.1-0.8,10.3-1.4,15.4c-0.3,2.7-0.7,5.4-1,8.1c-3.2,1.6-7.1,1.2-10.7,0.7c-1.7-0.2-3.5-0.6-4.6-1.8
				c-1.2-1.3-1.3-3.3-1.1-5.1c0.4-5.5,2.2-10.8,3.2-16.3c2.1-11.6,0.4-23.4-1.4-35.1c-0.2-1.2-0.4-2.4-1.2-3.2
				c-0.1,2-0.7,3.9-1.7,5.5c-0.8-0.6-0.9-1.7-0.6-2.6c0.3-0.9,0.8-1.7,1.3-2.5c0.2-0.3,0.3-0.7,0.2-1c-0.2-0.7-1.3-0.8-1.9-0.3
				c-0.6,0.5-0.9,1.2-1.5,1.7c-0.6,0.5-1.6,0.7-2,0.1c0.6-1.8,1.7-3.4,3.1-4.6c-1.8-0.2-3.6-0.4-5.5-0.6c-0.1-1,0.8-1.9,1.7-2.3
				c1-0.3,2-0.3,3.1-0.2c-0.2-2.6-4.5-4-3.6-6.4c1.1-0.1,2.3,0.4,3,1.3c0.4,0.5,0.6,1.1,1.2,1.2c1.3,0.4,1.9-1.5,1.8-2.8
				c-0.1-1.3,0.4-3.2,1.7-3c-0.2,2.7-0.1,5.4,0.5,8.1c1-4.1,0.7-8.4,0.9-12.6C373.4,341.9,374.2,337.7,376.6,334.5z"/>
		</g>
		<g>
			<path class="st9" d="M385.5,345c-0.2,0-0.3,0-0.5,0c-1.4,0-2.7-1.2-2.9-2.6c-0.2-1.4,0.8-2.9,2.2-3.2c0.1,0,0.3,0,0.3,0.1
				c0.1,0.2-0.7,0.1,0.7-0.4c1.5,0.5,2.5,2.3,2.3,3.9c-0.1,0.7-0.4,1.4-1,1.8C386.2,344.8,385.8,345,385.5,345z"/>
		</g>
		<g>
			<path class="st9" d="M379.4,342.1C379.4,342.1,379.4,342.1,379.4,342.1c-1-0.4-1.6-1.4-1.6-2.4c0-1,0.6-2,1.5-2.4
				c0.6-0.3,1.4-0.3,1.7,0.2c0,0,0.3,0.4,0.6,0.8c0.2,0.7,0.1,1.5,0,2.2c-0.1,0.5-0.3,1.1-0.7,1.4
				C380.5,342.3,379.9,342.3,379.4,342.1z"/>
		</g>
	</g>
	<g>
		<g>
			<path class="st8" d="M404.5,358.8c-0.1-0.2-0.2-0.3-0.4-0.5c-1.4-1.7-3.4-3.1-5.7-3.1c-2.4,0-4.6,1.7-5.9,3.8
				c-1.2,2.1-1.6,4.6-1.8,7c-0.5,6-0.2,12.1,1.1,18c0.1,0.7,0,1.6-0.6,1.6c-0.2,0-0.4-0.1-0.5-0.2c-1.4-0.9-2.8-1.9-4.2-2.8
				c-0.4-0.3-0.8-0.5-1.3-0.5c-0.8,0.1-1.2,1.1-0.9,1.9c0.3,0.7,0.9,1.3,1.6,1.7c1,0.8,2.1,1.5,3.1,2.3c-2.5,0.4-4.9,1-7.3,1.9
				c-0.6,0.2-1.4,0.7-1.2,1.4c0.1,0.5,0.8,0.7,1.3,0.7c2.5,0.3,5.1-0.1,7.5-1c-0.8,2.9-5.1,3-6.7,5.5c-0.2,0.3-0.3,0.7-0.1,1.1
				c0.3,0.5,1.2,0.3,1.7,0c1.9-1.1,3.8-2.2,5.6-3.3c-0.5,3.1-0.9,6.1-1.4,9.2c2-2.1,3.2-4.9,3.3-7.8c0.9,1.6,1,3.6,0.9,5.4
				c-0.2,10.1-2,20.1-1.8,30.2c0.1,5.3,0.8,10.7,1.5,16c0.4,2.8,0.7,5.6,1.1,8.4c3.4,1.7,7.4,1.3,11.1,0.7c1.7-0.3,3.6-0.6,4.8-1.9
				c1.2-1.4,1.3-3.4,1.2-5.3c-0.5-5.7-2.3-11.2-3.3-16.9c-2.2-12-0.4-24.3,1.4-36.4c0.2-1.2,0.4-2.5,1.3-3.3c0.1,2,0.7,4,1.8,5.8
				c0.8-0.6,0.9-1.8,0.6-2.7c-0.3-1-0.9-1.8-1.3-2.6c-0.2-0.3-0.3-0.7-0.2-1.1c0.2-0.8,1.3-0.8,2-0.3c0.6,0.5,1,1.2,1.5,1.8
				c0.6,0.5,1.6,0.7,2.1,0.1c-0.7-1.8-1.8-3.5-3.3-4.7c1.9-0.2,3.8-0.4,5.7-0.6c0.1-1.1-0.8-2-1.8-2.4c-1-0.4-2.1-0.3-3.2-0.2
				c0.2-2.7,4.6-4.1,3.8-6.7c-1.2-0.1-2.4,0.4-3.1,1.3c-0.4,0.5-0.7,1.1-1.2,1.3c-1.3,0.4-2-1.5-1.9-2.9s-0.4-3.3-1.7-3.1
				c0.2,2.8,0.1,5.6-0.5,8.4c-1-4.3-0.7-8.7-1-13.1C407.8,366.5,407,362.1,404.5,358.8z"/>
		</g>
		<g>
			<path class="st9" d="M395.3,369.7c0.2,0,0.3,0,0.5,0c1.5,0,2.8-1.3,3-2.7c0.2-1.5-0.8-3-2.3-3.3c-0.1,0-0.3,0-0.3,0.1
				c-0.1,0.2,0.8,0.2-0.7-0.4c-1.6,0.5-2.6,2.4-2.4,4.1c0.1,0.7,0.4,1.4,1,1.9C394.5,369.5,394.9,369.7,395.3,369.7z"/>
		</g>
		<g>
			<path class="st9" d="M401.6,366.7C401.6,366.7,401.6,366.6,401.6,366.7c1-0.5,1.7-1.4,1.7-2.5c0-1-0.6-2-1.5-2.5
				c-0.6-0.3-1.4-0.3-1.8,0.2c0,0-0.3,0.4-0.7,0.9c-0.2,0.7-0.1,1.6,0,2.3c0.1,0.5,0.3,1.1,0.7,1.4
				C400.4,366.9,401,366.9,401.6,366.7z"/>
		</g>
	</g>
	<g>
		<g>
			<path class="st8" d="M326.9,318.7c-0.1-0.2-0.3-0.4-0.4-0.6c-1.7-2-4.1-3.7-6.7-3.7c-2.9,0-5.5,2-6.9,4.5
				c-1.4,2.5-1.9,5.4-2.2,8.3c-0.6,7.1-0.2,14.3,1.4,21.3c0.2,0.8,0,1.9-0.7,1.9c-0.2,0-0.4-0.1-0.6-0.3c-1.7-1.1-3.4-2.2-5-3.3
				c-0.5-0.3-1-0.6-1.5-0.6c-0.9,0.1-1.4,1.3-1.1,2.2c0.3,0.9,1.1,1.5,1.9,2c1.2,0.9,2.5,1.8,3.7,2.7c-3,0.4-5.9,1.2-8.6,2.3
				c-0.7,0.3-1.6,0.9-1.4,1.6c0.2,0.6,0.9,0.8,1.5,0.9c3,0.4,6.1-0.1,8.9-1.2c-0.9,3.4-6.1,3.5-7.9,6.5c-0.2,0.4-0.4,0.9-0.2,1.3
				c0.4,0.6,1.4,0.3,2,0c2.2-1.3,4.5-2.6,6.7-3.9c-0.5,3.6-1.1,7.2-1.6,10.9c2.3-2.5,3.7-5.9,3.9-9.3c1.1,1.9,1.1,4.2,1.1,6.4
				c-0.3,11.9-2.4,23.8-2.1,35.7c0.1,6.3,0.9,12.6,1.7,18.9c0.4,3.3,0.8,6.7,1.3,10c4,2,8.7,1.5,13.1,0.8c2.1-0.3,4.3-0.7,5.7-2.2
				c1.5-1.6,1.5-4.1,1.4-6.2c-0.5-6.8-2.8-13.3-4-20c-2.6-14.2-0.4-28.8,1.7-43.2c0.2-1.4,0.5-2.9,1.5-3.9c0.1,2.4,0.8,4.8,2.1,6.8
				c0.9-0.7,1.1-2.1,0.7-3.2s-1-2.1-1.6-3.1c-0.2-0.4-0.4-0.8-0.3-1.3c0.2-0.9,1.6-1,2.3-0.4c0.7,0.6,1.1,1.5,1.8,2.1
				c0.7,0.6,2,0.9,2.4,0.1c-0.8-2.2-2.1-4.1-3.9-5.6c2.2-0.2,4.5-0.5,6.7-0.7c0.1-1.3-0.9-2.4-2.1-2.8c-1.2-0.4-2.5-0.3-3.8-0.2
				c0.3-3.2,5.5-4.9,4.5-7.9c-1.4-0.1-2.8,0.5-3.7,1.6c-0.4,0.6-0.8,1.3-1.5,1.5c-1.5,0.5-2.4-1.8-2.3-3.4c0.1-1.6-0.4-4-2.1-3.7
				c0.3,3.3,0.1,6.7-0.6,9.9c-1.2-5.1-0.9-10.3-1.2-15.5C330.8,327.8,329.9,322.6,326.9,318.7z"/>
		</g>
		<g>
			<path class="st9" d="M316,331.6c0.2,0,0.4,0,0.6,0c1.8-0.1,3.4-1.5,3.6-3.2c0.2-1.7-1-3.6-2.7-4c-0.1,0-0.3,0-0.4,0.1
				c-0.1,0.2,0.9,0.2-0.8-0.5c-1.9,0.6-3.1,2.8-2.8,4.8c0.1,0.9,0.5,1.7,1.2,2.2C315,331.4,315.5,331.5,316,331.6z"/>
		</g>
		<g>
			<path class="st9" d="M323.4,328C323.4,328,323.5,328,323.4,328c1.2-0.5,2-1.7,2-2.9c0-1.2-0.7-2.4-1.8-2.9
				c-0.7-0.3-1.7-0.4-2.1,0.3c0,0-0.3,0.4-0.8,1c-0.3,0.9-0.2,1.8,0,2.8c0.1,0.6,0.3,1.3,0.8,1.7C322,328.3,322.8,328.2,323.4,328z"
				/>
		</g>
	</g>
	<g>
		<g>
			<path class="st8" d="M341.1,283.9c0.1-0.2,0.2-0.3,0.4-0.5c1.4-1.7,3.4-3.1,5.7-3.1c2.4,0,4.6,1.7,5.9,3.8c1.2,2.1,1.6,4.6,1.8,7
				c0.5,6,0.2,12.1-1.1,18c-0.1,0.7,0,1.6,0.6,1.6c0.2,0,0.4-0.1,0.5-0.2c1.4-0.9,2.8-1.9,4.2-2.8c0.4-0.3,0.8-0.5,1.3-0.5
				c0.8,0.1,1.2,1.1,0.9,1.9s-0.9,1.3-1.6,1.7c-1,0.8-2.1,1.5-3.1,2.3c2.5,0.4,4.9,1,7.3,1.9c0.6,0.2,1.4,0.7,1.2,1.4
				c-0.1,0.5-0.8,0.7-1.3,0.7c-2.5,0.3-5.1-0.1-7.5-1c0.8,2.9,5.1,3,6.7,5.5c0.2,0.3,0.3,0.7,0.1,1.1c-0.3,0.5-1.2,0.3-1.7,0
				c-1.9-1.1-3.8-2.2-5.6-3.3c0.5,3.1,0.9,6.1,1.4,9.2c-2-2.1-3.2-4.9-3.3-7.8c-0.9,1.6-1,3.6-0.9,5.4c0.2,10.1,2,20.1,1.8,30.2
				c-0.1,5.3-0.8,10.7-1.5,16c-0.4,2.8-0.7,5.6-1.1,8.4c-3.4,1.7-7.4,1.3-11.1,0.7c-1.7-0.3-3.6-0.6-4.8-1.9
				c-1.2-1.4-1.3-3.4-1.2-5.3c0.5-5.7,2.3-11.2,3.3-16.9c2.2-12,0.4-24.3-1.4-36.4c-0.2-1.2-0.4-2.5-1.3-3.3c-0.1,2-0.7,4-1.8,5.8
				c-0.8-0.6-0.9-1.8-0.6-2.7c0.3-1,0.9-1.8,1.3-2.6c0.2-0.3,0.3-0.7,0.2-1.1c-0.2-0.8-1.3-0.8-2-0.3c-0.6,0.5-1,1.2-1.5,1.8
				c-0.6,0.5-1.6,0.7-2.1,0.1c0.7-1.8,1.8-3.5,3.3-4.7c-1.9-0.2-3.8-0.4-5.7-0.6c-0.1-1.1,0.8-2,1.8-2.4c1-0.4,2.1-0.3,3.2-0.2
				c-0.2-2.7-4.6-4.1-3.8-6.7c1.2-0.1,2.4,0.4,3.1,1.3c0.4,0.5,0.7,1.1,1.2,1.3c1.3,0.4,2-1.5,1.9-2.9c-0.1-1.4,0.4-3.3,1.7-3.1
				c-0.2,2.8-0.1,5.6,0.5,8.4c1-4.3,0.7-8.7,1-13.1C337.8,291.6,338.6,287.2,341.1,283.9z"/>
		</g>
		<g>
			<path class="st9" d="M350.3,294.8c-0.2,0-0.3,0-0.5,0c-1.5,0-2.8-1.3-3-2.7c-0.2-1.5,0.8-3,2.3-3.3c0.1,0,0.3,0,0.3,0.1
				c0.1,0.2-0.8,0.2,0.7-0.4c1.6,0.5,2.6,2.4,2.4,4.1c-0.1,0.7-0.4,1.4-1,1.9C351.1,294.6,350.7,294.7,350.3,294.8z"/>
		</g>
		<g>
			<path class="st9" d="M344,291.7C344,291.7,344,291.7,344,291.7c-1-0.5-1.7-1.4-1.7-2.5s0.6-2,1.5-2.5c0.6-0.3,1.4-0.3,1.8,0.2
				c0,0,0.3,0.4,0.7,0.9c0.2,0.7,0.1,1.6,0,2.3c-0.1,0.5-0.3,1.1-0.7,1.4C345.2,292,344.6,291.9,344,291.7z"/>
		</g>
	</g>
	<g>
		<g>
			<path class="st8" d="M354,326.8c0.1-0.2,0.2-0.3,0.4-0.5c1.4-1.6,3.3-3,5.4-3c2.3,0,4.5,1.6,5.6,3.7c1.2,2,1.6,4.4,1.8,6.8
				c0.5,5.8,0.2,11.6-1.1,17.3c-0.1,0.6,0,1.6,0.6,1.5c0.2,0,0.3-0.1,0.5-0.2c1.4-0.9,2.7-1.8,4.1-2.7c0.4-0.3,0.8-0.5,1.3-0.5
				c0.8,0.1,1.1,1.1,0.9,1.8c-0.3,0.7-0.9,1.2-1.5,1.7c-1,0.7-2,1.5-3,2.2c2.4,0.3,4.8,1,7,1.9c0.6,0.2,1.3,0.7,1.1,1.3
				c-0.1,0.5-0.7,0.6-1.2,0.7c-2.4,0.3-5-0.1-7.2-1c0.7,2.8,4.9,2.9,6.4,5.3c0.2,0.3,0.3,0.7,0.1,1c-0.3,0.5-1.1,0.3-1.6,0
				c-1.8-1-3.6-2.1-5.4-3.1c0.4,2.9,0.9,5.9,1.3,8.8c-1.9-2-3-4.8-3.2-7.5c-0.9,1.6-0.9,3.4-0.9,5.2c0.2,9.7,1.9,19.3,1.7,29
				c-0.1,5.1-0.8,10.3-1.4,15.4c-0.3,2.7-0.7,5.4-1,8.1c-3.2,1.6-7.1,1.2-10.7,0.7c-1.7-0.2-3.5-0.6-4.6-1.8
				c-1.2-1.3-1.3-3.3-1.1-5.1c0.4-5.5,2.2-10.8,3.2-16.3c2.1-11.6,0.4-23.4-1.4-35.1c-0.2-1.2-0.4-2.4-1.2-3.2
				c-0.1,2-0.7,3.9-1.7,5.5c-0.8-0.6-0.9-1.7-0.6-2.6c0.3-0.9,0.8-1.7,1.3-2.5c0.2-0.3,0.3-0.7,0.2-1c-0.2-0.7-1.3-0.8-1.9-0.3
				s-0.9,1.2-1.5,1.7c-0.6,0.5-1.6,0.7-2,0.1c0.6-1.8,1.7-3.4,3.1-4.6c-1.8-0.2-3.6-0.4-5.5-0.6c-0.1-1,0.8-1.9,1.7-2.3
				c1-0.3,2-0.3,3.1-0.2c-0.2-2.6-4.5-4-3.6-6.4c1.1-0.1,2.3,0.4,3,1.3c0.4,0.5,0.6,1.1,1.2,1.2c1.3,0.4,1.9-1.5,1.8-2.8
				c-0.1-1.3,0.4-3.2,1.7-3c-0.2,2.7-0.1,5.4,0.5,8.1c1-4.1,0.7-8.4,0.9-12.6C350.8,334.2,351.6,330,354,326.8z"/>
		</g>
		<g>
			<path class="st9" d="M362.9,337.3c-0.2,0-0.3,0-0.5,0c-1.4,0-2.7-1.2-2.9-2.6c-0.2-1.4,0.8-2.9,2.2-3.2c0.1,0,0.3,0,0.3,0.1
				c0.1,0.2-0.7,0.1,0.7-0.4c1.5,0.5,2.5,2.3,2.3,3.9c-0.1,0.7-0.4,1.4-1,1.8C363.6,337.1,363.2,337.3,362.9,337.3z"/>
		</g>
		<g>
			<path class="st9" d="M356.8,334.4C356.8,334.4,356.8,334.3,356.8,334.4c-1-0.4-1.6-1.4-1.6-2.4c0-1,0.6-2,1.5-2.4
				c0.6-0.3,1.4-0.3,1.7,0.2c0,0,0.3,0.4,0.6,0.8c0.2,0.7,0.1,1.5,0,2.2c-0.1,0.5-0.3,1.1-0.7,1.4
				C357.9,334.6,357.3,334.6,356.8,334.4z"/>
		</g>
	</g>
	<g>
		<g>
			<path class="st8" d="M295.5,367.9c0.1-0.2,0.2-0.4,0.2-0.5c0.9-1.9,2.5-3.7,4.6-4.2c2.3-0.5,4.7,0.5,6.3,2.2s2.5,3.9,3.3,6.2
				c1.9,5.5,2.9,11.3,3,17.1c0,0.6,0.3,1.5,0.9,1.4c0.2-0.1,0.3-0.2,0.4-0.3c1.1-1.2,2.2-2.4,3.3-3.6c0.3-0.3,0.7-0.7,1.1-0.7
				c0.8-0.1,1.3,0.8,1.3,1.5c-0.1,0.8-0.6,1.4-1.1,2c-0.8,0.9-1.6,1.9-2.4,2.8c2.4-0.2,4.8-0.2,7.2,0.2c0.6,0.1,1.4,0.4,1.4,1
				c0,0.5-0.6,0.8-1,1c-2.3,0.8-4.8,1.1-7.3,0.7c1.4,2.5,5.5,1.6,7.5,3.7c0.3,0.3,0.5,0.6,0.4,1c-0.2,0.6-1,0.5-1.6,0.4
				c-2-0.6-4-1.2-6-1.8c1.1,2.8,2.2,5.5,3.3,8.3c-2.3-1.5-4.1-3.9-4.8-6.6c-0.5,1.7-0.1,3.6,0.4,5.3c2.5,9.4,6.4,18.4,8.4,27.8
				c1.1,5,1.7,10.2,2.2,15.3c0.3,2.7,0.6,5.4,0.9,8.1c-2.8,2.4-6.6,2.8-10.2,3.2c-1.7,0.2-3.5,0.3-4.9-0.7c-1.5-1-2-2.9-2.3-4.7
				c-0.9-5.5-0.3-11-0.7-16.6c-0.7-11.7-5.1-22.9-9.5-33.8c-0.4-1.1-0.9-2.2-2-2.8c0.4,1.9,0.2,3.9-0.4,5.8
				c-0.9-0.4-1.2-1.5-1.2-2.4s0.4-1.9,0.7-2.8c0.1-0.3,0.2-0.7,0-1.1c-0.4-0.7-1.4-0.5-1.9,0.1c-0.5,0.6-0.6,1.4-1,2
				c-0.4,0.6-1.4,1.1-1.9,0.5c0.2-1.9,0.9-3.7,2-5.2c-1.8,0.2-3.6,0.5-5.4,0.7c-0.3-1,0.3-2.1,1.1-2.6c0.9-0.6,1.9-0.7,2.9-0.9
				c-0.8-2.4-5.3-2.8-5-5.4c1.1-0.4,2.3-0.2,3.2,0.5c0.5,0.4,0.9,0.9,1.5,0.9c1.3,0.1,1.5-1.9,1.1-3.1c-0.4-1.3-0.4-3.2,0.9-3.3
				c0.4,2.7,1.2,5.3,2.3,7.7c0-4.2-1.3-8.3-2-12.5C294.1,375.8,293.9,371.6,295.5,367.9z"/>
		</g>
		<g>
			<path class="st9" d="M306.6,376c-0.2,0.1-0.3,0.1-0.5,0.1c-1.4,0.3-2.9-0.5-3.5-1.9c-0.5-1.3,0.1-3,1.4-3.6
				c0.1-0.1,0.3-0.1,0.3,0c0.1,0.2-0.7,0.3,0.6-0.6c1.6,0.1,3,1.6,3.2,3.3c0.1,0.7-0.1,1.5-0.5,2C307.3,375.7,306.9,375.9,306.6,376
				z"/>
		</g>
		<g>
			<path class="st9" d="M300,374.6C300,374.6,300,374.6,300,374.6c-1-0.2-1.9-1-2.1-1.9c-0.2-1,0.1-2,0.9-2.7
				c0.5-0.4,1.2-0.6,1.7-0.2c0,0,0.3,0.3,0.8,0.7c0.4,0.7,0.5,1.4,0.5,2.2c0,0.5,0,1.1-0.3,1.5C301.2,374.6,300.6,374.7,300,374.6z"
				/>
		</g>
	</g>
	<g>
		<g>
			<path class="st8" d="M378.8,286.7c0.1-0.1,0.2-0.1,0.3-0.2c1.2-0.7,2.6-1,3.8-0.6c1.4,0.5,2.3,1.9,2.5,3.4c0.3,1.4,0,2.9-0.4,4.4
				c-0.9,3.5-2.4,6.9-4.4,9.9c-0.2,0.3-0.4,0.9,0,1c0.1,0,0.2,0,0.3,0c1-0.2,2-0.5,3-0.7c0.3-0.1,0.6-0.1,0.8,0
				c0.4,0.2,0.4,0.9,0.1,1.2c-0.3,0.4-0.8,0.5-1.2,0.7c-0.7,0.2-1.5,0.4-2.2,0.6c1.3,0.7,2.6,1.6,3.7,2.6c0.3,0.3,0.6,0.7,0.4,1
				c-0.2,0.3-0.6,0.2-0.9,0.2c-1.5-0.4-2.9-1.1-4-2.1c-0.2,1.8,2.3,2.8,2.7,4.5c0,0.2,0,0.5-0.1,0.6c-0.3,0.2-0.7-0.1-1-0.4
				c-0.8-1-1.7-2-2.5-3c-0.4,1.8-0.7,3.6-1.1,5.5c-0.7-1.6-0.8-3.5-0.2-5.1c-0.9,0.7-1.3,1.8-1.6,2.9c-1.9,5.8-3,11.8-5.2,17.4
				c-1.2,3-2.6,5.9-4.1,8.7c-0.8,1.5-1.6,3-2.3,4.6c-2.3,0.3-4.4-0.8-6.4-1.9c-0.9-0.5-1.9-1.1-2.3-2.1c-0.4-1,0-2.2,0.4-3.2
				c1.4-3.1,3.6-5.9,5.4-8.9c3.7-6.4,5.2-13.7,6.7-20.9c0.1-0.7,0.3-1.5,0-2.1c-0.5,1.1-1.2,2.1-2.2,2.9c-0.3-0.5-0.1-1.2,0.2-1.7
				c0.4-0.5,0.9-0.8,1.3-1.2c0.2-0.2,0.3-0.3,0.4-0.6c0-0.5-0.6-0.7-1-0.6c-0.5,0.1-0.8,0.5-1.2,0.7c-0.4,0.2-1.1,0.1-1.2-0.4
				c0.7-0.9,1.7-1.6,2.8-2c-1-0.5-2.1-1-3.1-1.5c0.2-0.6,0.9-1,1.5-1c0.6,0,1.3,0.3,1.8,0.6c0.4-1.6-1.8-3.3-0.8-4.6
				c0.7,0.2,1.3,0.7,1.5,1.4c0.1,0.3,0.2,0.8,0.4,1c0.6,0.5,1.4-0.5,1.7-1.2c0.2-0.8,0.9-1.8,1.6-1.4c-0.7,1.5-1.2,3.2-1.5,4.8
				c1.4-2.2,2.2-4.8,3.3-7.2C375.3,290.4,376.7,288.1,378.8,286.7z"/>
		</g>
		<g>
			<path class="st9" d="M381.7,294.8c-0.1,0-0.2-0.1-0.3-0.1c-0.8-0.3-1.4-1.3-1.2-2.2s1.1-1.5,2-1.4c0.1,0,0.2,0,0.2,0.1
				c0,0.1-0.5-0.1,0.5-0.1c0.8,0.6,1,1.9,0.5,2.8c-0.2,0.4-0.5,0.7-1,0.9C382.2,294.9,382,294.9,381.7,294.8z"/>
		</g>
		<g>
			<path class="st9" d="M378.8,291.8C378.8,291.8,378.8,291.8,378.8,291.8c-0.5-0.5-0.6-1.2-0.4-1.7c0.2-0.6,0.8-1,1.4-1.1
				c0.4,0,0.9,0.1,1,0.5c0,0,0.1,0.3,0.2,0.6c0,0.5-0.2,0.9-0.5,1.3c-0.2,0.3-0.4,0.6-0.7,0.7C379.4,292.2,379.1,292,378.8,291.8z"
				/>
		</g>
	</g>
</g>
<g id="Lager_2">
	<g>
		<g>
			<g>
				<polygon class="st10" points="520.8,500 520.8,-20.3 -19.8,-20.3 -19.8,520.3 500.5,520.3 500.5,479.7 20.8,479.7 20.8,20.3 
					480.2,20.3 480.2,500 				"/>
				<path class="st11" d="M504.9,499.9c-0.3,0.5-0.4-0.8-0.6-1.2c0.1-1.7,0.2-3.7,0.6-3.5C504.9,496.8,504.9,498.3,504.9,499.9z"/>
				<path class="st11" d="M517.9,352.9c-0.1-5.5,0.6-5.7,0.6-10.5c0.2-4.4-0.3-3.8-0.5-5.8c0.6-25.8,0.3-50.9-0.6-72.3
					c0.3,0.6,0.3-1.7,0.3-3.5c0.7,0.2,1.2,2,1.6,4.7c0.6,25.8,0.6,49.6,1.5,74.7C519,338,519.6,353.7,517.9,352.9z"/>
				<path class="st11" d="M520,83.3c0.3-1.7,0.2-6,0.8-5.8C520.8,80.9,520.5,82.8,520,83.3z"/>
				<path class="st11" d="M481.2,60c-0.2-4.7-0.3-14.6,0.3-16.3c-0.5-6.5-1.1-12.8-1.1-23.3c0.3,0,0.6-0.1,1-0.1
					c0.1,0.1,0.2,0,0.2,0.2c0.1,0.9,0.2,1.8,0.2,2.7c0.1,1.9,0.3,4,0.5,6.1c0.3,4.3,0.6,9,0.7,13.4C483.2,51.3,482.9,58.9,481.2,60z
					"/>
				<path class="st11" d="M337.7-13.9c4.9,0.2-4.1,0.4,0,0.5c-0.8,0.4-6.6,0.1-5.8-0.3C333.5-13.8,337.9-13.5,337.7-13.9z"/>
				<path class="st11" d="M202.3-15.8c0.3,0.4-0.4,0.7-3.5,0.6C198.5-15.6,199.2-15.9,202.3-15.8z"/>
				<path class="st11" d="M4.2-10.3c-4.8-0.3-7.2-0.2-8.8-0.1c-1.7,0.1-2.7,0.2-5.3,0c0,0.5-0.1,1-0.2,1.7C-10-3.8-9.9,1.3-9.9,6.7
					c0,2.7,0,5.4,0,8.1c0,2.4,0,4.9,0,7.3c-0.1,7.3-0.2,14.7-0.1,21.1c0.1,6.3,0.6,12.2,0.8,18.7c0.7,25.8,0.4,54.5,0.5,80.5
					c0,15,0.2,30.5-0.3,43.2c-2.4-10.6-1.3-36.6-1.1-53.7c-0.1-3.4-0.3-6-0.6-8.2c0.3-22.2-0.3-41.3-0.6-59.5
					c-0.2-9.1-0.3-17.9-0.2-26.8c0-4.4,0.1-8.9,0.2-13.4c0.1-2.8,0.2-5.6,0.3-8.4c0.1-3.5,0.2-7,0.4-10.6C-11-0.7-11-6-11-11.6
					c4,0,8.1-0.1,12.6-0.2c1.7,0.1,3.4,0.1,3.8,0.3C8.1-11.2,5.3-10.7,4.2-10.3z"/>
				<path class="st11" d="M-5.1,148.2c0.2,3.9,0.3,12.1-0.5,11.7c0.5,4.4-0.1,9.3,0,15.2c-1.6,32.6-1,76.6-2.1,117.9
					c-0.8,1.5-0.7-2.6-1-4.7c0.5-16.4-0.9-28.5-0.2-44.3c-1-20.3,0.9-43.8,1.3-63c0.7-7.4,1.1-21.2,1-33.8
					C-6.4,145.9-5.5,147-5.1,148.2z"/>
				<path class="st11" d="M-4.5,262.6H-4c0.4,10-0.2,19.7,0.2,29.2c-0.7-1.7-0.8-7.5-1.3-10.5C-4.9,273.9-5.1,268.3-4.5,262.6z"/>
				<path class="st11" d="M-8.2,296.4c0.8-0.9,0.5,10.3,0.3,12.8C-8.4,305.3-7.9,301.1-8.2,296.4z"/>
				<path class="st11" d="M33.8,509.5c1.5-0.6,9-1.9,14-1c11.3-1.1,24.8-0.7,39.7-1.1c-1.1,0.7,6.3,0.6,8.2,0.3
					c-0.5-0.5-4.5,0.4-3.5-0.3c9.7-0.3,19.2,0,25.7-0.5c0.3,0.3-1.1,0.3-1.2,0.5c0.2,0.2,2.1,0.1,3.5,0.2c-0.4,0.3-10.2,0.2-5.8-0.2
					c-2.1,0-2.5,0.2-4.7,0.2c4.4,0.2-1.4,0.9,5.8,0.8c-0.3,0.2-3.5,0.1-3.5,0.3c-2-0.1-2.1-0.6-3.5-0.8c-3.5,0.3-17.5,0-14,0.8
					c-4.8,0.5-15.3-1.2-19.8-0.2C60.1,508.3,52.2,509.4,33.8,509.5z"/>
				<path class="st11" d="M122.5,506.9c2.4,0.1,4.8,0.5,2.3,0.8C122.3,507.7,122.3,507.3,122.5,506.9z"/>
				<path class="st11" d="M130.6,506.5c3.7-0.1,3.1,0.4,5.8,0.5C134.8,507.4,130.1,506.9,130.6,506.5z"/>
				<path class="st11" d="M147,507.6c0.5-0.6,6.6,0.1,10.5-0.3C157.1,507.8,150.8,507.5,147,507.6z"/>
				<path class="st11" d="M164.5,507.3c2-0.3,2.9-0.7,7-0.6C170.2,507,167.9,507.2,164.5,507.3z"/>
				<path class="st11" d="M289.3,513.7c3.8,0.1,6.1,0.4,7,1C294.3,514.3,289.7,514.3,289.3,513.7z"/>
				<path class="st11" d="M71.1,484.1c-10.1-0.4-20.9-0.9-30.3-0.2c-6.2-0.2-12.8-0.3-19.6-0.5l-0.3,0l-0.1,0l-0.1,0l-0.2,0
					l-0.4-0.1l-0.9-0.1c-0.6-0.1-1.1-0.1-1.6-0.2c0.1-0.9,0.1-1.7,0-2.5l0-0.6l0-0.1l0-0.1l0-0.4c0-0.6,0-1.2,0-1.8
					c-0.1-2.4-0.1-4.8-0.2-7.1c0.6-7.7,0-16.5,0.3-24.5c1.4-37.9-0.3-77.2-2.3-114.3c0-2.7,0-5.4,0-8.2c-0.5-11.3-1.4-22.4-1.8-35
					c-0.8-26-0.1-56.9,0.3-84c0.3-0.1,0.6,0.2,0.5-2.3c0.8-26.4,2.6-51.4,2.6-79.3c0-6.8-0.5-13.2,0-19.8c-0.5-7.1-0.8-16-1.1-24.5
					c0.4-16,0-41.6-1.3-54.8c0-1.3,0.1-2.6,0.1-3.9c0-0.6,0-1.2-0.1-1.8c-0.1-1.2-0.3-2.5-0.3-3.9c0.3,0,0.7,0,1.1,0
					c1.1,0,2.1,0,3.2-0.1c0.6,0,1.1,0,1.7,0c1.3,0,2.6,0,4,0c7,0,14.1,0,21.4-0.1c14.6,0,29.7-0.1,44.8-0.1
					c30.3-0.1,60.7-0.1,87.4-0.2c4.8-0.5,8.5-0.3,14-0.6c15,0.8,43.2,0.1,58.3-0.6c8.6,0.8,23.2,0.2,36.2,0.6
					c10.1,0.3,19.3,1.3,26.8,0.5c22.8,0.4,46.9-0.5,72.3,0.6c10.3,0.5,20.8,1.2,31.5,1.6c14.6-0.2,28.3,0,43.2-0.3
					c0.2-0.2-0.2-0.5,1.2-0.5c4.3,0.1,10-0.1,15.9-0.3c0.7,0,1.5-0.1,2.2-0.1l0.6,0c0.1,0,0.1,0,0.2,0l0.1,0l0.4,0
					c0.5,0,1-0.1,1.4-0.1c1,0,1.9,0,2.7,0.1c0.7-0.1,1.3-0.2,2-0.3c0.3,1,0.6,2.2,0.9,3.7c0.1,0.7,0.3,1.5,0.4,2.3l0.1,0.6
					c0,0.5,0.1,1.1,0.1,1.6c0.1,1.1,0.1,2.3,0.2,3.4c0.5,9.3,0.8,20,0.6,33.5c1.7,11.8,1.1,37.4,1.8,53.7c-0.3,12.5-0.5,32.9-1.8,42
					c-0.2,8-0.4,15.5-0.3,25.7c-0.2,3-0.6,4.3-0.6,8.2c0.3,1.6,0.4,4,0.5,7c-1.1,17.2-1,44.8-0.3,65.3c-0.6,2.3,0.1,7.8-0.5,10.5
					c0.8,34.5,2.7,72.1,0.8,107.4c-2,5.8-3,15.5-5.2,17.5c-0.3,2.9-0.4,8-1,9.3c-0.5-0.6-0.6,1.7-1,2.3c-0.9,10.4-2,30.6-0.8,42
					c1.6,5.7,3.2,12.6,4.8,3.5c3.3,1.3,7.3-13.1,8.1,15.2c1.5,4.4,2.4,9.3,4.5,7c0.9-7,2.4-10.5,3.2-21c0.3,2.2,0.4,0.1,0.8,0
					c0.1-4.9-0.1-12.3,0.6-12.8c-0.2,12.4,1.1,14,1.3,23.3c1.5,10.4,4,6.4,5.3,14c-0.2,3-0.4,3.5-0.2,7c1.1,2,1.4-2.4,2.1,3.5
					c0.7-2.1,0.6-5.1,0.6-9.3c1.7-3.5,2.3-15.5,3.1-25.7c0-30.2,2.2-50.1,1.8-75.8c1-0.7,0.9-10.2,0.5-15.2c0.4-2.1,1.3-0.8,1.5-4.7
					c-0.4-3.2-0.7,1-1.1,1.2c-0.4-4.3-0.6-14.3-0.2-17.5c-0.8-7.8-0.5-22.8-1.3-32.7c0.7-3.8,1.1-9.3,1.1-17.5
					c-0.6-0.1-0.9-1.9-1.3-3.5c-0.9-22.3,1-34.3,0-56c0.5-5.9,0.5-15,0.5-24.5c1.9-23.8,2-59.2,0.6-88.7c1.7-8.2,0.6-21.3,1-31.5
					c0.6-16.2,2.1-32.4,1.1-49c0-1.9-0.4-0.6-0.5-2.3c0-2.7,0-5.5,0-8.5c0-3.4-0.1-6.8-0.1-10.4c-0.1-11.8-0.2-24-0.2-35.7
					c-3.5,0-6.8,0-10.1,0c-9.2,0-18.3-0.2-27.4-0.3c-2.5,0-5.1-0.1-7.6-0.1c-2.4,0-4.9,0-7.3,0.1c-11.4,0.3-20,1-26.8,2.4
					c-8.9-0.1-19,1.8-28,1c-1.7,0.2-1.4,0.7-4.7,0.6c-2.3,0-2.3-0.2-3.5-0.3c0.1,0.6,1.3,0.5,0,1c6.5-0.3,9.6-0.2,15.2-0.8
					c1.6,0.1,2.2,0.2,4.7,0.2c12.7-1,27.5-2.2,44.3-2.7c2.9-0.1,5.8-0.2,8.7-0.2c1.4,0,2.9,0,4.3,0c2.6,0,5.3,0,7.9,0
					c10.4,0,20.4,0,29.7-0.1c0.1,7.4,0.2,14.2,0.5,20.1c-0.1,5-0.6,3.2-0.8,6.8c0.1,2.7,0.2,5.5,0.2,8.2c0,1.1,0,2.2,0,3.4
					c0,0.7,0,1.5-0.1,2.2c-0.1,3-0.2,6.2-0.1,9.8c0.1,5.1,0.9,9.4,1,15.2c0.1,11.7-0.6,19.1-0.6,32.7c-1.1,5.6-0.4,19-1.5,19.8
					c-0.6-2.6,0.7-8.3,0-11.7c-0.2,2.3-0.3,5-0.6,5.8c-1.1-12-3.2-16.4-3.9-31.5c0.1-12.6-0.2-21.7-0.8-29.2
					c0.1-2.6,0.1-5.3,0.2-8.1c0-3.2,0.1-6.5,0.1-9.8c0.1-8.8,0.1-18,0.2-27.4c-6.7,0-13.4,0-20.2,0c-5.7,0-11.5,0-17.3,0
					c-9,0-18,0.1-26.9,0.2c-17.8,0.2-35,0.6-49.9,1c-9.9-0.5-18.3-0.5-30.3-0.2c-14-2.1-47.5,0.6-60.7-0.6c-6,1.6-25.3,0.8-31.5,0
					c-2.3,1.1-11.7,0.7-17.5,0.3c0-0.2,4.9-0.5,0-0.5c-2.3,0-2.3,0.2-3.5,0.3c-2.1-0.4-4.9-0.6-5.8-1.1c-4.3-0.1-5,0.3-9.3,0.2
					c1.2-0.3,2-0.7,4.7-0.8c6.3-0.2,7.1,0.3,10.5,0.5c-0.1-0.4-2.2-0.5,1.2-0.6c1.6,1,7.5-0.2,10.5,0.6c-2.2,0-3.9,0.1-4.7,0.3
					c4.6-0.2,10-0.3,14-0.5c-1.2,0-3-0.1-1.2-0.2c-41.1-1.9-77.2-1-117.8-0.6c-2.2-0.4-6.5-0.5-10.5-0.6
					c-11.7,0.4-20.1,0.4-23.3,2.1c14.1,0,25.2-0.4,47.8-0.3c4.7,0.4,8.3,1,9.3,1.9c-18.1,0.6-37.6-0.5-54.8,0
					c-2.5,0.1-3.5,0.3-5.8,0.3c-14.4,0.1-21.7-0.3-31.5-0.5c-19-0.4-39.4,0-58.3-0.3c-2.1,0-4.2-0.2-6.3-0.3l-0.8,0l-0.9,0
					c-0.8,0-1.6,0-2.5,0c-1.6,0-3.3,0.1-5,0.3C22-10,25.9-9.8,31.3-9.7c5.1,0.1,9.8,0,13.5-0.1c10.7,0.6,29.1,0.8,42,0.8
					c25.6,1.3,44.7,0.3,75.8,1c1.6,0.9,5.3,0.7,10.5,0.8c-0.4,1,3.5,1.3,9.3,1.5c3.2-0.2-2-0.7,1.2-0.8c3.3,0.3,6.5,0.6,7,1.3
					c-3.1,0-6.7,0.1-8.2-0.2c1.1,0.8,8.2,0.7,8.2,1.6C167.4-3.5,147-2,124.1-2.4c-3-0.4-4.5-1.1-8.2-1.5c-2.4,0.7,6,1.1,7,1.8
					c-6.8,0.5-17.4,0.5-23.3,1.1c-1.4-0.2-1-0.7-4.7-0.6C73.1-2,58.4-1.1,41.3-0.8c-6.9,0.1-13.7,0.2-20.5,0.2c-7,0-14-0.1-21.1-0.1
					c0,6.1,0,12.3,0,18.8c0,3.1,0.1,6.3,0.1,9.5c0.1,3.2,0.1,6.5,0.2,9.8c-0.1,1.9-0.8-0.3-0.6,3.5c-0.2,17.3,0.4,41.9-1.9,51.3
					c0.2,7.3-0.4,9.2-0.6,14c0.1,2.2,0.3,4.3,0.3,7c-0.6,2.5-0.2,10.4-0.3,16.3c-0.1,6.6-0.9,11.9-1.1,18.7
					c-0.4,11.8,0.1,16.7,0.5,22.2c0.4,6.7,0.6,16.7,1.6,21c0.3-2,0.5-4.1,0.8-5.8c-0.6-7.6-1.8-16.4-1.8-26.8c0-6.6,1-10.7,0.6-17.5
					h0.5C-2.7,105.4,1.5,88.5,1,53.7c0.7-9,1.6-17.4,2.6-24.5c-0.2,12.2,0.8,16.2,0.6,28C6.6,87,4.7,127.4,5.5,161.1
					c-0.8,25,0.3,46.6,0.5,71.2c-0.9,3.5-0.7,15.2-1,23.3c0.1,2.4,0.8,0.3,0.6,4.7c-0.1,17.6-2.7,18.9-3.2,31.5
					c-0.1,2.3,0.2,6.3,0.2,9.3c0,4.4-0.4,12.8-0.3,16.3c0.2,12.7,1.3,24.6,1.3,38.5c0,19.9-0.2,42.4-0.3,64.2
					c-0.5,8.9-0.5,20.1-0.4,32c0,5.9,0,12,0,18c0,3-0.1,6-0.1,9c0,1.3-0.1,2.7-0.1,4c-0.1,1.3-0.1,2.6-0.2,3.9
					c0.2,3.2,0.3,6.8,0.4,10.7c3.8-0.1,7.7-0.1,11.7,0c4.2,0,8.6,0,12.8,0c8.9-0.1,17.4-0.3,24-1c3.1,0,0.9,0.6,4.7,0.5
					c10.1-0.8,21.5-0.4,28-1.8c2.7-0.1,4.5,0,5.8,0.2c31.1-1.6,63.5-4,103.8-3.4c12.9,1.6,24.7,3.4,38.5,4.8c11.4,2,21.4,4.1,40.8,5
					c20.9-1,35.6-3.7,46.7-5.5c7.8-0.3,10.8-1.3,12.8-1.9c18.1-0.8,32.8-1.4,51.3-1.8c37.1-0.7,59.6,3.8,95.7,3.2
					c1.6,0.2,2.3,0.4,4.7,0.5c2.2-1,14.3,0.8,16.3-0.8c-6.1-1.1-19.4-1.7-30.3-1.6c-3.7-0.9-10.2-0.4-16.3-0.6
					c-7.7-0.3-14.5-1.4-21-1.8c-1.9-0.1-4,0.2-4.7,0.2c-5.2-0.2-9.5-0.9-16.3-1c-15.4-0.1-20.1,0.1-33.8,0.5
					c-27.8,0.7-56,1.2-65.3,4.5c-10.4,0-13.6,2.3-22.2,3.1c-11.8,0.2-9.4,0.7-21,0.5c-23.2-3.6-39-8.3-70-10.8
					c-7.3,0.1-14.4,0.2-18.7-0.5c33.1-2.4,97.9,0.6,134.2-2.1c-4-0.8-9.1-0.3-14-0.3c-26.9,0-56.5-0.2-88.7,0
					c-19.1,0.1-37.1,1.7-58.3,1.5c-12.4-0.1-22-0.7-36.2-0.6c-0.5-0.3-3.7-0.1-2.3-0.6c-16.5,0.3-30.4-2.6-45.5-1.1
					C70.6,484.4,73.5,484.4,71.1,484.1z M497,452c0-1.5,0.3-1.2,0.3,0c0.2-0.2,0.1-2.1,0.2-3.5c0.3,0.3,0.2,4.3,0.5,4.7
					c0.3-1.9,0.5-4.4,0.6-7C499.3,452.8,497.5,457,497,452z M502,377.4c1.5-1.1,1.8,15.1,1.6,18.7c-0.2,3.6-0.9,9.8-1.5,5.8
					C501.5,397.5,502.7,384.2,502,377.4z M499.9,344.7c-0.4,0.4-0.6-0.2-0.8-1.2c0.7-6.4,0.3-21,1.6-25.7
					C500.5,329.1,500,332.1,499.9,344.7z M502.5,307.4c-0.4,0.8-0.3-2.3-0.6-2.3c0.3-1.5,0.4-5.1,0.8-5.8
					C502.8,303.2,502.4,303.7,502.5,307.4z M498.6,303.9c0.5-13.2,1.1-28,1-43.2c-0.1-13.1-1.4-25.6-1-36.2c1,11.6,1,30,2.3,39.7
					c-0.3,11.5-1.1,25.2-0.5,33.8C499.6,299,499.5,304.4,498.6,303.9z M502.6,295.7h-0.5c-0.1-4.9-0.4-13.6,0.5-14
					C503,287.5,502.9,289.7,502.6,295.7z M503.1,280.5c-0.1-0.9-0.4-1.3-0.6-1.2C502.4,274.2,503.3,275.3,503.1,280.5z M506.3,279.4
					c0.5-1.5,0.1-5.7,0.2-8.2c0.2-4.8,0.9-7.6,1-11.7c0.2-7.4-0.8-10.3-0.6-19.8c0-3-0.6-1.9-0.8-3.5c-1.2-44.1-1.8-84.5-0.2-135.4
					c1.6,2.1,1,17,3.4,15.2c0.6,27.6-0.7,48.3,1,71.2c0,15.9-0.7,29.1-0.8,47.8C509.3,254.4,509.2,273.5,506.3,279.4z M511,197.7
					c0-3.8,0.5-3.4,0.6-5.8c-0.1-7.7,0.4-11.2,0.6-16.3c0.3-12.2-0.8-37.1,0.5-45.5c-0.3,7.4,1.2,12,0.8,19.8
					c2.1,10.7,2.9,21.9,2.1,45.5c-0.2,5-0.9,10.2-1.1,15.2c-0.4,9.2,0.3,18.6-0.6,23.3C511.7,230.8,512.5,206,511,197.7z M498.4,221
					c-0.5-2.7-0.1-4.5-0.3-9.3C498.9,212.1,498.5,218.2,498.4,221z M497.3,47.2c0-7.7-0.2-15.3-0.3-23.1c0-3.4-0.1-6.9-0.1-10.4
					c0-3.3,0-6.6,0.1-10.2c-0.2,0-0.4,0-0.5,0c-3.2-0.1-6-0.2-8.8-0.3c-2.9-0.1-5.6-0.3-8.4-0.4c-6.6-0.3-13.7-0.5-23.8-0.4
					c-5.9,0-9.7,0.6-18.7,0.8c-10.1,0.2-19.7-0.5-26.8,0.6c-11.2-0.3-22.1-0.8-31.5,0.2c2.9-1.3,16.7-2.4,25.7-3.4
					c16.5,0.1,32.8,0.1,48.9,0.1c8,0,16,0,23.9,0.1c3.8,0,7.7,0.1,11.5,0.1c3.7,0.1,7.4,0.1,11.1,0.2c-0.1,3.9-0.2,7.7-0.3,11.5
					c-0.1,3.8-0.2,7.6-0.4,11.4c-0.3,7.9-0.6,15.6-1.1,23.3H497.3z M314.3,4.3c-0.3,0.2-3.5,0.1-3.5,0.3
					c-11.9-0.6-21.4,0.2-30.3,0.3c-4.2,0-8.5-0.4-14-0.5c-7.3-0.1-16.9,0.8-19.8-0.3c-6.8,0.7-19.3-0.1-26.8,0.6
					c0.4-0.8,11.9-1.4,4.7-2.3c-3.1,0.3-3,1.1-5.8,1.5c-7.3,0-12.1-0.3-12.8-1.1c9.8-1.2,38.7-1.4,51.3-0.6
					c8.6-0.5,15.7-0.1,24.5,0.2c0.6-0.3-1.7-0.3-3.5-0.3C289,1.3,300.4,3.9,312,3.5C314,3.6,311.9,4.3,314.3,4.3z M202.3,3.7
					c-2.4-0.1-3.8-0.3-5.8-0.5c0.5-0.5,2.5-0.7,5.8-0.8C205.6,2.7,204,3.2,202.3,3.7z M141.6,10.9c-16.8,0.1-34,0.4-50.2,0.6
					c-11.6,0.2-25,0.1-38.4,0.1c-6.7,0-13.4,0-19.9,0.1c-3.3,0.1-6.4,0.1-9.6,0.2c-0.8,0-1.6,0-2.3,0.1c-0.5,0-0.5,0-0.7,0l-0.5,0
					c-0.6,0.1-1.2,0.1-1.8,0.2c-1.4-0.1-3.6-0.3-5.9-0.4c-0.1,1.7-0.1,3.5,0,5.1c0.1,0.8,0.1,1.5,0.2,2.2c0.1,0.3,0.1,0.6,0.2,0.9
					c0,0.1,0.1,0.2,0.1,0.4c0,0.3,0.1,0.5,0.1,0.8c-0.3,17.8,0.7,35.2,1.1,51.3c-0.5,21.8,0.7,45.7-0.2,70
					c-0.2,5.5-0.9,9.6-1.1,15.2c-0.2,4.9,0,10.8-0.2,16.3c-0.3,8-1.1,15.6-1.3,23.3c-0.1,3.5,0.1,8.2,0,11.7
					c-0.1,2.3-0.5,3.7-0.6,5.8c-0.4,6.5-0.1,14.4-0.6,19.8c0.4,19.2,0.3,36.5,0.6,59.5c-0.9-10.3-1.7-21.5-3.5-24.5
					c0-11.6-0.3-22.4,0-33.8c0.2-8.2,0.5-11,0.3-24.5c-0.1-6.1-0.4-11.8-0.5-17.5c-0.1-15.1,0.5-30.7,0.5-45.5
					c0-12.7-0.7-25.3,0.2-35c-0.4-20.3,0.7-45.5-0.8-63C7.3,43,7.2,35.6,7.1,28.4c0-1.8-0.1-3.6-0.1-5.3c0-1.5-0.1-3-0.1-4.4
					c-0.1-2.4-0.1-4.7-0.2-6.8c0.3-1.5,0.7-3,1-4.7c4,0.6,7.8,1.1,11.6,1.5c0.5,0,1,0.1,1.4,0.1c0.8,0,1.6,0.1,2.5,0.1
					c1.7,0.1,3.5,0.1,5.4,0.1c3.7,0,7.5,0,11.6-0.1C56.9,8.4,66.8,5.8,79.8,5c7.1,0.6,12.3-0.2,19.8-0.2C111,5,124,6.1,140.5,5.5
					c-2.3,1.7-2.3,2.9-5.8,4.2C136.3,10.2,141.6,10.2,141.6,10.9z M10.8,302.3c0.4,0.4,0.6,1.9,1.1,1.2c-0.6,6.1,0.3,13.4,0.8,18.7
					c0.2,17.4,0.9,30.6,1.1,47.8c-0.2,3.6-0.6,6-0.8,9.3c-0.1,11.9-0.2,23.8-0.3,35c-0.1,12.1,0.3,24.8,0.3,36.2
					c0,6.3-0.3,12.7-0.5,18.8c-0.1,3.1-0.1,6.1-0.1,9c0,1.8,0.1,1.9,0.1,2.6c0.1,0.6,0.2,1.1,0.3,1.6c-0.1,1.6-0.2,3.5-0.4,5.6
					c1.8,0.2,3.9,0.3,5.9,0.4c0.5,0,1,0,1.5,0c0.7,0,1.4,0,2.1,0c2.1,0,4.2-0.1,6-0.2c10.5,0.9,28.2,0.6,42,1.3
					c26.8-0.6,43.7-2.9,73.5-1.5c-10.4,1-26.2,0.2-33.8,1.5c-11.2-0.3-21.4,0.9-29.2,1.3c-6.7,0.3-15.1,0.3-22.2,0.6
					c-8.6,0.4-13.4,1.1-26.8,1.1c-4.7,0-9.1,0-14.3,0c-3,0-6.1-0.1-9-0.3c0.1-2.5,0.3-4.9,0.4-7.3c0-1.1,0.1-2.2,0.1-3.2
					c0-0.5,0-1,0-1.5c0-0.7,0-1.3,0-1.9c0-2.7-0.4-5.5-0.3-8.2c0.1-6.3,0.8-14,0.8-21c0-1.1-0.3-4.7-0.3-5.8
					c0.1-3.5,0.5-7.2,0.6-10.5c0.8-22.5,0.4-52.8,0.6-80.5c0-5.6,0.4-10.8,0.3-16.3c0-3.7-0.4-7.8-0.3-11.7
					C10.3,316.7,11.3,310.2,10.8,302.3z M75.8,485c3.2,0,2.4-0.3,4.7,0C81.4,485.6,74.9,485.6,75.8,485z"/>
				<path class="st11" d="M373.8-13.4c2.4-0.1,3.8-0.3,5.8-0.5c5.4,0.5,16.8-0.6,21,0.3c-16.4,0.2-29,0.2-44.3,0.2
					C358.8-14,373.6-13.7,373.8-13.4z"/>
				<path class="st11" d="M344.7-13.9c4.2,0,4.3-0.5,8.2-0.5c-1.5,0.5-6.8,0.6-8.2,1.1C341.7-13.3,346.3-13.5,344.7-13.9z"/>
				<path class="st11" d="M116.7,508.6c5.7-0.8,20.5-0.4,28-1C137.1,508.5,125.5,508.1,116.7,508.6z"/>
			</g>
		</g>
	</g>
	<g>
		<g>
			<path class="st12" d="M400.9,457.6c-6.3-0.7-12.6-1-18.9-1c-4.1,0-8.9,0.6-10.9,4.2c-0.8,1.4-1,3-1.9,4.3
				c-1.5,2.2-4.5,2.6-7.2,2.7c-8.6,0.4-17.2-0.7-25.4-3.1c-2.3-0.7-4.5-1.5-6.8-2.2c-2.4-0.8-4.8-1.7-7.2-2.5
				c-1.3,1.1-2.7,2-4.1,2.9c-4.3-5.4-14.2,0.6-19.6-3.8c0.1-3.4,5.6-3.2,7.6-5.9c0.9-1.3,0.9-3.1,0.8-4.7
				c-0.6-17.7,4.6-35.5,14.8-50c-5.4-3.8-8.9-10.4-9-17c-0.1-6.7,3-13.3,8.3-17.4c2-1.5,4.3-2.8,5.5-4.9c0.9-1.5,1.2-3.3,1.5-5
				c2.2-11.9,7.2-23.3,14.5-33c-2.1-6.2,0.1-13.6,5.1-17.7c4.4,2.3,6.9,7.9,5.5,12.8c2,0.5,4.1,1.1,6.1,1.6c0.6,0.2,1.3,0.3,1.9,0
				c0.7-0.3,1-1.2,1.2-2c1.8-5.5,6-10.2,11.3-12.7c1.2,4.2,1.8,8.6,1.7,13c-0.1,2.3-0.3,4.5-0.1,6.8c0.2,2.2,0.8,4.4,1.4,6.6
				c8.7,33,9.2,68,21.5,99.8c0.5,1.2,1,2.4,1.8,3.3c0.8,0.8,2,1.3,3,1.9c2.8,1.6,5.2,3.8,6.9,6.5c0.4,0.6,0.8,1.3,1.4,1.6
				c1.3,0.8,3.1-0.1,4.1-1.3s1.7-2.7,3-3.5c2.8-1.7,6.7,0.7,7.5,3.8c0.8,3.2-0.4,6.5-2,9.4c-1.1,2-2.2,3.9-3.5,5.7
				c-0.6,0.9-1.3,1.8-2.3,2.3c-1.5,0.8-3.4,0.5-5.1,0.2C409.3,458.7,405.1,458.1,400.9,457.6z"/>
			<g>
				<path d="M400.9,457.2c-6.5-0.7-13-1.1-19.5-1c-4.1,0.1-9.1,0.9-10.9,5.1c-0.5,1.1-0.7,2.3-1.3,3.3c-0.8,1.3-2.2,2-3.7,2.4
					c-2.8,0.7-5.8,0.5-8.6,0.5c-6.6-0.2-13.2-1.2-19.6-3c-3.5-1-7-2.3-10.4-3.4c-0.8-0.3-1.7-0.6-2.5-0.9c-0.5-0.2-1.3-0.7-1.8-0.5
					c-0.6,0.1-1.4,1-1.9,1.4c-0.7,0.5-1.5,1-2.3,1.5c0.2,0,0.3,0,0.5,0.1c-3.1-3.7-8.5-2.3-12.7-2.2c-1.2,0-2.5,0-3.7-0.2
					c-0.8-0.2-3.2-0.7-3-1.8c0.3-1.9,4.1-2.7,5.5-3.5c2.2-1.2,2.9-3.2,2.8-5.7c-0.1-3.4-0.1-6.8,0.2-10.2c0.5-6.8,2-13.5,4.2-20
					c2.5-7.3,6-14.2,10.4-20.5c0.1-0.2,0-0.4-0.1-0.5c-5.7-4.1-9.2-11-8.8-18.1c0.2-3.6,1.3-7.1,3.2-10.2c2-3.2,4.7-5.3,7.6-7.5
					c1.1-0.9,2.2-1.8,3-3.1c0.9-1.5,1.2-3.3,1.5-5.1c0.7-3.7,1.7-7.3,2.9-10.9c2.4-7.1,5.9-13.9,10.2-20.1c0.4-0.6,1.4-1.4,1.5-2.1
					c0.1-0.6-0.4-1.6-0.6-2.2c-0.3-1.9-0.3-3.9,0-5.7c0.7-3.7,2.6-7.1,5.5-9.5c-0.2,0-0.3,0-0.5,0.1c4.3,2.4,6.6,7.6,5.3,12.3
					c-0.1,0.2,0.1,0.4,0.3,0.5c1.4,0.4,2.8,0.7,4.2,1.1c1.1,0.3,2.4,0.9,3.6,0.7c1.9-0.4,2.2-3.3,2.9-4.7c2.1-4.4,5.7-8,10.1-10.1
					c-0.2-0.1-0.4-0.1-0.6-0.2c1,3.6,1.6,7.3,1.6,11c0.1,3.4-0.5,6.8,0.1,10.2c0.6,3.5,1.7,7,2.5,10.5c0.8,3.3,1.5,6.7,2.2,10.1
					c2.7,13.5,4.5,27.2,6.8,40.8c2.3,13.6,5.2,27.1,9.8,40.2c0.9,2.5,1.6,5.7,3.8,7.4c1.1,0.8,2.4,1.3,3.5,2.1
					c1.4,0.9,2.7,2,3.9,3.3c0.9,1.1,1.6,2.3,2.5,3.4c0.6,0.8,1.5,1.3,2.5,1.2c3.1-0.3,3.7-4,6.1-5.3c3.3-1.7,6.6,1.9,6.9,5
					c0.4,3.9-2,7.8-3.9,11c-1,1.5-2,3.6-3.6,4.6c-1.7,1.1-3.8,0.6-5.6,0.2C409,458.3,405,457.7,400.9,457.2c-0.5-0.1-0.5,0.7,0,0.8
					c4,0.4,8,1,12,1.7c2.7,0.5,5.3,0.9,7.3-1.4c2.1-2.3,3.8-5.4,5.1-8.2c1.3-2.7,2.3-5.8,1.3-8.7c-0.7-2-2.4-3.7-4.5-4.2
					c-2.6-0.7-4.3,0.9-5.7,2.9c-0.9,1.3-2.6,3.5-4.5,2.4c-0.7-0.4-1-1.2-1.5-1.8c-0.5-0.7-1-1.4-1.5-2c-0.9-1-1.9-2-3-2.8
					c-1.3-1-2.7-1.6-4.1-2.5c-1.6-1-2.3-2.4-2.9-4c-0.7-1.7-1.3-3.4-1.9-5.2c-1.1-3.3-2.2-6.7-3.1-10c-1.9-6.9-3.4-13.9-4.8-20.9
					c-2.6-14-4.5-28.1-7-42.2c-1.4-7.9-3.2-15.6-5.2-23.4c-0.5-2.1-0.9-4.2-0.9-6.3c0-2.1,0.2-4.2,0.2-6.3c0-4-0.6-8-1.7-11.9
					c-0.1-0.2-0.3-0.3-0.6-0.2c-3.7,1.8-6.9,4.5-9.1,8c-1.1,1.7-1.7,3.6-2.5,5.5c-0.8,1.9-2.9,0.9-4.4,0.6c-1.4-0.4-2.8-0.7-4.2-1.1
					c0.1,0.2,0.2,0.3,0.3,0.5c1.3-5.1-1.1-10.7-5.7-13.2c-0.2-0.1-0.3-0.1-0.5,0.1c-4.8,4.1-7.1,10.9-5.5,17.1
					c0.1,0.4,0.2,0.7,0.1,1.1c-0.1,0.4-0.6,0.9-0.9,1.2c-0.6,0.8-1.2,1.7-1.7,2.5c-1.1,1.6-2.1,3.3-3,5c-1.9,3.4-3.5,6.9-4.9,10.5
					c-1.4,3.7-2.5,7.5-3.4,11.4c-0.4,1.9-0.6,3.9-1.3,5.7c-0.8,2.1-2.5,3.5-4.2,4.8c-2.8,2-5.3,4.3-7.1,7.2
					c-1.7,2.9-2.8,6.1-3.1,9.4c-0.7,7.6,3,15.2,9.1,19.7c0-0.2-0.1-0.3-0.1-0.5c-7.9,11.3-12.9,24.5-14.4,38.2
					c-0.4,3.4-0.6,6.8-0.5,10.3c0,1.7,0.3,3.6-0.2,5.2c-0.5,1.4-1.7,2.1-2.9,2.7c-1.7,0.8-4.1,1.4-5,3.2c-0.3,0.7-0.4,1.2,0.2,1.6
					c0.9,0.7,2.1,1.1,3.2,1.4c2.7,0.5,5.4,0.1,8.1-0.1c2.8-0.2,5.9-0.1,7.9,2.2c0.1,0.1,0.3,0.1,0.5,0.1c1.2-0.7,2.3-1.6,3.5-2.3
					c0.8-0.5,1.3-0.1,2.1,0.1c0.8,0.3,1.7,0.6,2.5,0.9c3.1,1.1,6.2,2.2,9.3,3.1c6,1.8,12.1,2.9,18.3,3.2c3,0.2,6.2,0.3,9.2-0.1
					c2.1-0.2,4.3-0.8,5.7-2.4c1.6-1.9,1.5-4.6,3.5-6.3c1.9-1.6,4.5-2.1,6.8-2.3c3.4-0.3,6.8-0.1,10.1,0.1c3.7,0.2,7.4,0.4,11.1,0.8
					C401.4,458,401.4,457.3,400.9,457.2z"/>
			</g>
		</g>
		<g>
			<path d="M379.1,380.3c-3.3,11.8-13.4,21.4-25.4,24c-10.3,2.2-22-1.1-31.4-5.8c-0.5-0.4-0.6-0.4-1.1-0.8
				c10.2,5.2,23.6,7.2,34.7,4.4c11.1-2.8,21.1-11.5,23.5-22.7C379.2,379.7,379.2,380,379.1,380.3z"/>
		</g>
		
			<ellipse transform="matrix(0.2677 -0.9635 0.9635 0.2677 -96.9383 591.0577)" class="st13" cx="340.4" cy="359.3" rx="8.5" ry="5.1"/>
		
			<ellipse transform="matrix(0.165 -0.9863 0.9863 0.165 -55.7805 656.3294)" class="st13" cx="359.8" cy="361.1" rx="8.5" ry="5.1"/>
		<g>
			<path class="st14" d="M359.7,361.7c-0.3,0-0.5,0-0.8,0c-0.3,0-0.7-0.1-0.9-0.4c-0.2-0.2-0.4-0.5-0.5-0.8
				c-0.4-1.2-0.2-2.6,0.4-3.7c0.2-0.4,0.7-0.8,1.1-1c0.3-0.2,0.6-0.3,0.6-0.3c1-0.4,2.2-0.1,2.9,0.8s0.7,2.1,0.3,3
				C362.3,360.7,361.1,361.6,359.7,361.7z"/>
		</g>
		<g>
			<path class="st14" d="M340.1,360.8c-0.3,0-0.5,0-0.8,0c-0.3,0-0.7-0.1-0.9-0.4c-0.2-0.2-0.4-0.5-0.5-0.8
				c-0.4-1.2-0.2-2.6,0.4-3.7c0.2-0.4,0.7-0.8,1.1-1c0.3-0.2,0.6-0.3,0.6-0.3c1-0.4,2.2-0.1,2.9,0.8c0.7,0.8,0.7,2.1,0.3,3
				C342.7,359.8,341.5,360.6,340.1,360.8z"/>
		</g>
		<g>
			<g>
				<path d="M371.2,342.2c-0.1,0.4-0.6,0.1-0.7-0.1c-0.2-0.2-0.3-0.5-0.4-0.8c-0.2-0.5-0.5-1-0.9-1.4c-0.7-0.9-1.6-1.7-2.6-2.2
					c-2.1-1-4.6-0.8-6.4,0.7c-0.4,0.3,0.2,0.8,0.5,0.5c2.2-1.7,5.3-1.2,7.2,0.6c0.5,0.4,0.9,0.9,1.2,1.5c0.3,0.5,0.5,1.1,0.8,1.5
					c0.5,0.6,1.8,0.8,2-0.2C372,341.9,371.3,341.7,371.2,342.2L371.2,342.2z"/>
			</g>
		</g>
		<g>
			<g>
				<path d="M348.3,337.7c-2-0.7-4.3-0.9-6.4-0.4c-1.8,0.5-3.5,1.9-3.3,3.9c0.1,0.5,0.8,0.5,0.8,0c-0.2-1.9,1.6-3,3.2-3.3
					c1.8-0.4,3.8-0.2,5.5,0.5C348.5,338.6,348.7,337.8,348.3,337.7L348.3,337.7z"/>
			</g>
		</g>
		<g>
			<path class="st15" d="M367.9,318.9c1.2-2.8,2.3-5.7,3.5-8.5c1.8,2.9,2.1,6.8,0.9,10"/>
		</g>
		<g>
			<path class="st15" d="M345.5,318.3c1.3-2.2,0.4-5,0.8-7.5c0-0.3,0.1-0.6,0.4-0.6c0.2,0,0.3,0.1,0.5,0.2c2.2,1.6,3.5,4.4,3.5,7.1"
				/>
		</g>
		<g>
			<g>
				<path d="M323.8,460.2c-0.4-1.6,0.5-3.1,1.2-4.5c0.5-1.1,1-2.2,1.4-3.3c1.1-2.6,2-5.2,2.8-7.8c1.7-5.2,3-10.6,4.3-15.9
					c0.1-0.5-0.6-0.7-0.7-0.2c-1.4,5.6-2.7,11.3-4.5,16.8c-0.9,2.8-2,5.6-3.2,8.3c-0.9,2.1-2.6,4.4-2.1,6.8
					C323.2,460.8,323.9,460.6,323.8,460.2L323.8,460.2z"/>
			</g>
		</g>
		<g>
			<g>
				<path d="M335.2,444.3c3.9-2.1,8.4-2.5,12.6-1.5c2,0.5,4,1.4,5.7,2.6c1.9,1.3,4.7,3.7,3.6,6.3c0.2,0.1,0.5,0.1,0.7,0.2
					c0.8-2.6,1.5-5.3,3-7.6c0.8-1.2,1.7-2.4,3-3.2c1.8-1.2,3.7,0.5,4.6,2c1.4,2.2,1.6,4.9,1.9,7.4c0.4,3.1,0.7,6.3,1,9.4
					c0.1,0.5,0.8,0.5,0.8,0c-0.4-3.8-0.8-7.6-1.3-11.3c-0.4-2.7-1-5.6-3.1-7.5c-5.6-5-9.5,7-10.6,10.6c-0.1,0.5,0.5,0.6,0.7,0.2
					c0.9-2.3-0.8-4.5-2.4-5.9c-1.8-1.6-4-2.8-6.3-3.5c-4.7-1.5-9.9-1.1-14.3,1.2C334.4,443.9,334.8,444.5,335.2,444.3L335.2,444.3z"
					/>
			</g>
		</g>
		<g>
			<g>
				<path d="M394.4,418.1c-0.2,4.3,0,8.6-0.1,12.9c-0.1,2.3-0.4,4.6-1,6.8c-0.5,2-1.2,5.2-3.1,6.3c-0.4,0.2,0,0.9,0.4,0.6
					c1.6-1,2.3-3.1,2.9-4.8c0.8-2.3,1.3-4.7,1.5-7.2c0.4-4.9,0-9.8,0.2-14.7C395.1,417.6,394.4,417.6,394.4,418.1L394.4,418.1z"/>
			</g>
		</g>
		<g>
			<g>
				<path d="M394.9,434.4c0.5-0.5,1.3-0.8,2-0.9c0.8-0.1,1.4,0.2,2.1,0.5c1.1,0.6,2.7,1.1,3.9,0.5c0.4-0.2,0.1-0.9-0.4-0.6
					c-0.6,0.3-1.4,0.1-2.1-0.1c-0.7-0.2-1.3-0.6-2-0.9c-1.4-0.5-3.1-0.1-4.1,0.9C394,434.2,394.5,434.7,394.9,434.4L394.9,434.4z"/>
			</g>
		</g>
		<g>
			<path class="st0" d="M325.9,466.6c3.2-3,5.7-6.8,7-11c0.9,4,0,8.4-2.4,11.8c3.7-2.2,6.5-6,7.4-10.2c1.3,3.8,0.7,8.2-1.4,11.6
				c3.8-2.6,4.1-8.9,8.3-10.7c-0.1,4-1.5,8-4.1,11.1c3.8-1.7,6.8-5.1,7.9-9.2c1.3,3.6-0.2,8-3.3,10.1c3.9-2,7.8-5.1,8-9.5
				c1.2,1.5,0.9,3.7,0.1,5.5c-0.7,1.8-1.8,3.5-1.9,5.4c2-4,5.3-7.4,9.2-9.6c-2.4,2.3-3.2,6.2-1.8,9.3c3.2-2.4,5.3-6.4,5.3-10.5
				c2.7,2.4,4.3,5.9,4.5,9.5"/>
		</g>
		<g>
			<path class="st0" d="M374.6,458.6c3.2-3,5.7-6.8,7-11c0.9,4,0,8.4-2.4,11.8c3.7-2.2,6.5-6,7.4-10.2c1.3,3.8,0.7,8.2-1.4,11.6
				c3.8-2.6,4.1-8.9,8.3-10.7c-0.1,4-1.5,8-4.1,11.1c3.8-1.7,6.8-5.1,7.9-9.2c1.3,3.6-0.2,8-3.3,10.1c3.9-2,7.8-5.1,8-9.5
				c1.2,1.5,0.9,3.7,0.1,5.5c-0.7,1.8-1.8,3.5-1.9,5.4c2-4,5.3-7.4,9.2-9.6c-2.4,2.3-3.2,6.2-1.8,9.3c3.2-2.4,5.3-6.4,5.3-10.5
				c2.7,2.4,4.3,5.9,4.5,9.5"/>
		</g>
	</g>
	<g>
		<g>
			<path d="M48.6,465.5c0.3-0.8,0.6-1.5,1.5-1.8c0.3-0.1,0.6,0,0.9,0.1c0.3,0.3,0.3,0.9,0.3,1.2c0,0.9-0.1,1.8-0.3,2.8
				c-0.1,0.9-0.4,1.7-0.4,2.6c0,1.4,1.1,2.6,2.3,3.1c1.5,0.8,3.4,0.6,4.9,0.3c0.4-0.1,0.4-0.9-0.1-0.9c-1.8,0.1-3.7,0.4-5.3-0.8
				c-0.6-0.4-0.9-1.2-0.9-2c0-1.1,0.4-2,0.6-2.9c0.1-0.9,0.1-1.8,0.1-2.9c0-0.6-0.3-1.2-0.9-1.4c-1.5-0.4-2.5,1.1-2.9,2.3
				C47.9,465.5,48.4,465.7,48.6,465.5L48.6,465.5z"/>
		</g>
	</g>
	<g>
		<g>
			<path d="M60.8,462.3c-1.5,0.6-2.8,2.2-3.1,3.9s0.4,3.4,1.8,4.5s3.2,1.1,4.6,0.1c1.4-0.9,2.3-2.6,1.7-4.3
				c-0.6-1.7-2.8-3.1-4.5-2.2c-0.4,0.3-0.3,1.1,0.3,1.1c0.6,0,1.1-0.1,1.7,0.1c0.4,0.3,0.9,0.6,1.2,1.1c0.6,1.1,0.1,2.3-0.8,3.1
				c-2.3,1.8-5.3-0.4-5.1-3.1c0-1.5,1.1-3.1,2.3-4C61.2,462.4,60.9,462.1,60.8,462.3L60.8,462.3z"/>
		</g>
	</g>
	<g>
		<g>
			<path d="M67.9,463.4c0.6-0.9,1.5-1.7,2.6-2c-0.1-0.1-0.4-0.1-0.6-0.3c0.9,2.5-1.4,5.3,0.1,7.7c0.6,0.8,1.5,1.2,2.5,1.1
				c0.9-0.1,1.7-0.8,1.5-1.8c0-0.4-0.8-0.4-0.9,0c-0.1,0.6-0.6,0.9-1.2,0.8c-0.8,0-1.2-0.8-1.4-1.5c-0.1-1.1,0.1-2,0.3-2.9
				c0.3-1.2,0.4-2.3,0-3.6c-0.1-0.3-0.3-0.4-0.6-0.3c-1.4,0.3-2.5,1.4-2.9,2.6C67.1,463.4,67.7,463.7,67.9,463.4L67.9,463.4z"/>
		</g>
	</g>
	<g>
		<g>
			<path d="M82.1,458.9c-1.8,0-3.7,0.8-4.8,2.5c-1.1,1.5-1.1,3.7-0.1,5.4c0.8,1.5,3.1,3.6,4.6,1.8c0.8-0.8,1.4-1.7,1.8-2.6
				c0.6-0.9,0.9-2,1.1-3.1c0.1-1.8-1.2-4.2-3.4-4.2c-0.8,0-0.8,1.1,0,1.1c1.2,0.1,2.2,1.4,2.2,2.6c0,1.7-1.1,3.2-2,4.5
				c-0.1,0.3-0.4,0.6-0.8,0.8c-0.3,0.3-0.8,0.1-1.1-0.1c-0.6-0.3-1.1-0.9-1.4-1.4c-0.8-1.2-0.9-2.8-0.3-4c0.8-1.5,2.3-2.6,4-2.6
				C82.5,459.7,82.5,458.9,82.1,458.9L82.1,458.9z"/>
		</g>
	</g>
	<g>
		<g>
			<path d="M36.5,456.7c2.6-8.9,4.3-18.1,4.8-27.5c-0.3,0.1-0.8,0.1-1.1,0.3c2.5,3.9,3.1,8.8,4,13.1c1.1,4.8,2.2,9.7,3.2,14.5
				c0.3-0.1,0.8-0.3,1.1-0.4c-2.2-4.9-7.2-7.1-12-8.9c0,0.3-0.1,0.8-0.1,1.1c4.5-0.6,9.1-1.4,13.4-2.6c0.8-0.1,0.4-1.2-0.3-1.1
				c-4.3,1.1-8.8,2.2-13.3,2.8c-0.6,0.1-0.4,0.9,0,1.1c4.3,1.8,9.1,4,11.3,8.5c0.3,0.6,1.2,0.1,1.1-0.4c-1.1-4.9-2.2-10-3.4-15
				c-0.9-4.3-1.5-9.1-4.2-12.9c-0.3-0.4-1.1-0.3-1.1,0.3c-0.4,9.3-1.7,18.3-4.3,27.3C35.8,456.9,36.4,457.2,36.5,456.7L36.5,456.7z"
				/>
		</g>
	</g>
	<g>
		<g>
			<path d="M46.7,429.1c0.3,4.3,1.1,8.5,1.8,12.6c0.8,4.3,1.7,8.6,2.6,12.9c0.1,0.3,0.6,0.6,0.9,0.4c1.1-0.8,1.5-2,1.2-3.2
				c-0.3-0.8-1.4-0.4-1.2,0.3c0.1,0.8,0,1.4-0.6,1.8c0.3,0.1,0.6,0.3,0.9,0.4c-0.9-4.2-1.8-8.5-2.8-12.6c-0.8-4.2-1.4-8.5-2.3-12.8
				C47.5,428.7,46.7,428.8,46.7,429.1L46.7,429.1z"/>
		</g>
	</g>
</g>
<g id="Lager_3">
	<g>
		<g>
			<path class="st16" d="M130.8,435.7c0.5-0.4,0.9-0.9,0.9-1.5c0.1-1-0.6-1.9-1.2-2.8c-1.7-2.5-2.6-5.6-2.5-8.6
				c0.1-2.3,0.8-4.6,1-6.9c0-0.5,0-1-0.3-1.3c-0.2-0.2-0.5-0.3-0.9-0.3c-3.3-0.6-6.7-0.6-10,0c0,0-0.2,0-0.3,0.1
				c-0.3,0.7-0.6,1.4-0.6,1.4c-0.2,0.4-0.2,0.9-0.3,1.3c-0.2,2.5-0.5,5-0.7,7.5c-0.3,3.4-0.5,7.1,1.6,9.8c1.3,1.6,3.2,2.5,5.2,2.8
				c2,0.3,4,0,6-0.5C129.5,436.4,130.2,436.2,130.8,435.7z"/>
		</g>
		<g>
			<path class="st16" d="M156.1,432.7c-2.8,0.5-5.6,0.9-8.3,0.4c-0.8-0.1-1.6-0.3-2.2-0.9c-0.8-0.8-1.1-2.2-2.2-2.2
				c-0.2,1.2-2.1,1.4-2.9,0.5s-0.9-2.2-1-3.4c-0.1-3.2-0.2-6.4,0-9.5c0.1-1.1,0.2-2.3,0.9-3.2c0.6-0.8,1.9-1.2,2.7-0.7
				c2.1-0.5,4.2-0.7,6.3-0.7c0.5,0,1,0,1.3,0.3c0.4,0.3,0.5,0.9,0.6,1.5c0.2,1.6,0.4,3.1,0.6,4.7c0.2,1.4,0.4,2.8,1.4,3.8
				c1.9,1.9,5.6,0.8,7.3,2.9c0.4,0.5,0.6,1.1,0.8,1.7c0.4,1.1,0.6,2.5-0.2,3.3c-0.5,0.5-1.2,0.7-1.9,0.8
				C158.2,432.3,157.2,432.5,156.1,432.7z"/>
		</g>
		<g>
			<path class="st17" d="M142,412.1c-0.5-5.5-1-11.1-1.6-16.6c0-0.5-0.1-0.9,0.1-1.4c0.4-0.8,1.6-0.9,2.6-0.9c1.3-0.1,2.6-0.4,3.8-1
				c1.1-0.6,2.3-1.3,3.5-0.7c-0.9,7.1-2.4,14.2-4.5,21.1c-0.1,0.2-0.1,0.5-0.3,0.7c-0.5,0.8-1.8,0.7-2.7,0.4
				c-0.3-0.1-0.7-0.2-0.9-0.5c-0.1-0.2-0.1-0.4-0.1-0.6C142.1,412.4,142.1,412.2,142,412.1z"/>
		</g>
		<g>
			<path class="st17" d="M120.6,411.2c0-7,0-14,0-21c3.9,1.2,8,1.5,12,1.1c-3.4,7.1-3,15.5-5.9,22.8c-0.1,0.2-0.2,0.5-0.4,0.6
				c-0.2,0.2-0.5,0.2-0.8,0.1c-1.6,0-3.2-0.1-4.9-0.1C120.6,413.6,120.6,412.4,120.6,411.2z"/>
		</g>
		<g>
			<path class="st18" d="M121.2,391.1c-5.7-2.5-10.7-7-15.7-11c-1.4-1.1-2.9-2.3-4.6-2.9c-3-1-7.3-0.7-8.3-3.7
				c-0.6-1.7,0.3-3.4,1.1-5c3-5.4,5.9-10.8,8.9-16.2c6.7-12.3,13.5-24.6,20.8-36.5c2.5-4,5-7.9,8.1-11.4c0.4-0.4,0.8-0.9,1.3-1
				c0.9-0.3,1.9,0.2,2.7,0.7c6.1,3.5,13.8,6.4,20.1,3.2c2.3,0.1,3.9,2.6,4.9,4.7c1.5,3.3,2.7,6.8,3.7,10.3c1.9,7,2.6,14.4,5.5,21.1
				c1.8,4.3,4.7,11.1,5.3,13.6c0.7,2.4,2.1,8.7,2.2,13.6c0,2.9,0.1,5.8-0.8,8.5c-1,3.1-3.1,5.7-5.2,8.2c-0.8,0.9-1.6,1.9-2.6,2.6
				c-5.2,3.7-12.9,0.1-18.6,2.8c-1.7,0.8-3.3,2.2-5.2,2.6c-2.7,0.5-5.3-1.2-8-1.9c-2.6-0.6-5.4-0.2-8.1-0.3
				C126.1,392.8,123.6,392.1,121.2,391.1z"/>
		</g>
		<g>
			<path class="st19" d="M134.8,333.1c0.1,1.4-0.2,3-0.8,4.3c-0.9,2.2-2.4,4.2-3.2,6.5c-0.5,1.4-0.8,3-1,4.5
				c-0.7,4.5-1.4,9-2.1,13.5c-0.1,0.8-0.3,1.6-0.9,2.1c-0.4,0.3-0.9,0.3-1.4,0.4c-3.5,0.2-7-0.2-10.4-1.2c0-3.8-0.6-7.6-0.9-11.4
				c-0.6-7.9,0.2-16,2.5-23.6c-1.2,10.8-1.2,21.7-0.2,32.4c0,0.5,0.1,0.9,0.4,1.3c0.4,0.5,1,0.7,1.6,0.8c1.5,0.4,3,0.8,4.5,0.7
				c1.5-0.1,3.1-1,3.7-2.4c0.3-0.8,0.3-1.7,0.4-2.6c0.1-5.3,1.6-10.6,3-15.7c0.3-1.1,0.6-2.3,1.2-3.3c0.6-1,1.4-1.9,1.9-2.9
				c1-1.8,1-4,1-6.1C134.5,331.2,134.8,332.1,134.8,333.1z"/>
		</g>
		<g>
			<path class="st20" d="M121.1,374.7c0.4-1.1,0.6-2.2,0.8-3.3c0.9,0.5,1.6,2,2.6,1.6c0.6-0.3,0.7-1.1,0.6-1.8
				c-0.1-2.1-0.4-4.2-0.7-6.3c0-0.3-0.1-0.5-0.3-0.7c-0.2-0.2-0.5-0.2-0.8-0.2c-1.8-0.1-3.6-0.2-5.3-0.2c-1.5,1.7-2.2,4-2.7,6.3
				c-0.3,1.4-0.5,3-0.2,4.4s1.3,2.8,2.7,3.2c0.7,0.2,1.5,0.1,2-0.3c0.3-0.3,0.5-0.6,0.7-1C120.7,375.8,120.9,375.3,121.1,374.7z"/>
		</g>
		<g>
			<path class="st19" d="M166.4,331.5c-0.1-0.3-0.2-0.6-0.4-0.8c0.3,3.2,1,6.4,2.1,9.4c1.9,5.1,5.2,9.8,5.9,15.3
				c0.1,0.6,0.1,1.3-0.1,1.9c-0.5,1.4-2.1,1.8-3.6,2.1c-2.2-7.8-4.7-15.4-7.7-22.9c-0.7-1.8-1.4-3.6-1.4-5.5c-0.8-0.2-1,0.9-1,1.6
				c0.7,6.1,4.4,11.3,6.2,17.2c0.9,3,1.3,6.2,3,8.8c0.3,0.5,0.7,1,1.3,1c0.4,0.1,0.8-0.1,1.2-0.3c0.8-0.4,1.6-0.8,2.4-1.2
				c0.2-0.1,0.5-0.3,0.6-0.5c0.1-0.2,0.1-0.4,0-0.7c-0.8-5-2.5-9.9-4.8-14.4c-0.5-1-1.1-2-1.5-3
				C167.7,336.9,167.4,334.1,166.4,331.5z"/>
		</g>
		<g>
			<path class="st20" d="M176.8,367.2c-0.3,0.4-0.7,0.8-1.2,0.9c-1.1,0.2-2-0.9-2.3-1.9c-0.4-1-0.5-2.1-0.4-3.2
				c-0.1,0.5-0.2,1-0.3,1.5c-1.4-1-2-2.9-1.5-4.5c1.3-0.9,2.7-1.7,4.2-2.2c0.8,1.4,1.6,2.9,2,4.4c0.4,1.6,0.4,3.3-0.4,4.8
				C176.9,367,176.9,367.1,176.8,367.2z"/>
		</g>
		<g>
			<path class="st17" d="M125.8,311.3c1.6-2.6,3.4-5,5.5-7.3c0.6-0.6,1.3-1.3,2.2-1.4c0.7,0,1.3,0.4,1.9,0.7
				c5.7,3.4,12.5,4.9,19.1,4c1.4-0.2,3.1-0.4,4.2,0.6c0.4,0.3,0.6,0.8,0.8,1.2c2.4,4.4,4.5,9.2,5.2,14.2c-0.3,0.5-1.4,0.8-1.9,0.9
				c-1,0.2-2-0.1-3,0.1c-1.6,0.3-2.8,2-4.5,2c-1.9,0-3.5-2.1-5.4-1.6c-0.9,0.2-1.6,1.1-2.5,1.5c-3,1.3-5.5-3.4-8.7-3.5
				c-2.1-0.1-3.9,1.7-6,1.5c-2.8-0.3-4.2-4-6.9-4.6c-1.1-0.3-2.6-0.2-3-1.2c-0.2-0.6,0-1.2,0.3-1.8
				C123.8,314.7,124.7,312.9,125.8,311.3z"/>
		</g>
		<g>
			<path class="st21" d="M162.2,261.1c0.2,0.1,0.3,0.2,0.5,0.3c1.1,0.6,2.3,1.2,3.6,1.4c1.3,0.1,2.7-0.3,3.4-1.4
				c0.4-0.7,0.5-1.5,0.4-2.2c-0.2-2.6-2.2-4.9-4.6-5.7c1.5-0.6,3.1-1.5,3.3-3c0.1-1-0.5-2-1.4-2.6s-1.9-0.7-3-0.8
				c-4.4-0.2-9.1,1.3-13.2,2.8c1.1,1.2,1.6,2.9,1.3,4.4c-0.2,0.8-0.4,1.8,0.2,2.3c0.3,0.2,0.6,0.2,0.9,0.3c2.1,0.6,2.9,3.1,4.1,5
				c1.3,2,3.2,3.5,5.1,5c0.3,0.2,0.6,0.4,0.9,0.5c0.6,0.1,1.2-0.5,1.3-1.1s-0.1-1.3-0.5-1.8c-1.7-2.8-5.5-3.7-7.6-6.2
				C158.6,259.1,160.4,260.1,162.2,261.1z"/>
		</g>
		<g>
			<path class="st21" d="M132,260.2c-0.2-0.4-0.4-0.8-0.4-1.3c-0.2-2.5,2-4.5,2.5-6.9c-1.3,0.3-2.8-0.5-3.4-1.7
				c-0.5-1.3-0.1-2.9,1-3.7c0.7-0.5,1.6-0.7,2.4-0.8c2-0.4,4-0.8,6-0.5c2.9,0.3,5.5,1.8,7.9,3.3c0.4,0.2,0.7,0.4,1.1,0.7
				c0.4,0.6,0.7,1,0.7,1c0.7,1,0.9,2.3,0.7,3.5c-0.1,0.6-0.4,1.3-0.4,1.9c0,0.6,0.2,1.2,0.3,1.8c0,1.7-1.6,3-2.9,4
				c-1.5,1.2-2.8,2.6-4,4.1c-1.2,1.7-2.8,3.8-4.8,3.5c-1.4-0.2-2.4-1.5-3.1-2.8c-0.7-1.4-0.9-3.3,0.3-4.2
				C134.4,262.5,132.7,261.5,132,260.2z"/>
		</g>
		<g>
			<path class="st21" d="M151.9,257c-0.2,0.1-0.3,0.2-0.5,0.2c-0.6,0-1.1-0.5-1.4-1c-1.3-2-1.4-4.6-0.4-6.7c0.3-0.7,1.1-0.9,1.7-0.5
				c0.8,0.5,1.4,1.3,1.7,2.2c0.5,1.5,0.3,3.3-0.4,4.7C152.4,256.3,152.2,256.7,151.9,257z"/>
			<g>
				<path class="st22" d="M151.7,256.6c-1.1,0.6-1.9-1.5-2.1-2.2c-0.3-1.1-0.4-2.3-0.1-3.4c0.1-0.5,0.2-1.2,0.6-1.5
					c0.4-0.4,0.9-0.2,1.3,0.1c0.9,0.8,1.5,1.9,1.5,3.1c0,0.7,0,1.4-0.2,2.1C152.5,255.3,152.2,256.2,151.7,256.6
					c-0.4,0.3,0,0.9,0.4,0.6c0.6-0.5,0.9-1.2,1.2-1.9c0.3-0.8,0.4-1.6,0.4-2.5c0-1.6-0.7-3.1-1.9-4c-0.5-0.4-1.1-0.6-1.7-0.3
					c-0.6,0.3-0.9,0.9-1.1,1.5c-0.5,1.5-0.5,3.1-0.1,4.5c0.4,1.3,1.5,3.7,3.2,2.7C152.5,257,152.1,256.4,151.7,256.6z"/>
			</g>
		</g>
	</g>
</g>
</svg>
