<?xml version="1.0" encoding="utf-8"?>
<!-- Generator: Adobe Illustrator 25.1.0, SVG Export Plug-In . SVG Version: 6.00 Build 0)  -->
<svg version="1.1" id="Lager_1" xmlns="http://www.w3.org/2000/svg" xmlns:xlink="http://www.w3.org/1999/xlink" x="0px" y="0px"
	 viewBox="0 0 500 500" style="enable-background:new 0 0 500 500;" xml:space="preserve">
<style type="text/css">
	.st0{fill:#F3F4F4;}
	.st1{fill:#C3CDD7;}
	.st2{fill:#A5AEB5;}
	.st3{fill:#197ACF;}
	.st4{fill:#0F3F69;}
	.st5{fill:#082742;}
	.st6{fill:#FFFFFF;}
</style>
<rect x="97.1" y="-39.6" class="st0" width="34.8" height="34.8"/>
<rect x="142.8" y="-39.6" class="st1" width="34.8" height="34.8"/>
<rect x="190.1" y="-39.6" class="st2" width="34.8" height="34.8"/>
<rect x="238.2" y="-39.6" class="st3" width="34.8" height="34.8"/>
<rect x="283.9" y="-39.6" class="st4" width="34.8" height="34.8"/>
<rect x="329.6" y="-39.6" class="st5" width="34.8" height="34.8"/>
<g>
	<path class="st1" d="M343.2,117.6c16.3,26.5,25.7,57.7,25.7,91.1c0,96.3-78.1,174.3-174.3,174.3c-43.3,0-82.9-15.8-113.4-42
		c30.7,50,85.8,83.3,148.7,83.3c96.3,0,174.3-78.1,174.3-174.3C404.1,197,380.5,149.6,343.2,117.6z"/>
	<path class="st0" d="M368.9,208.7c0-33.4-9.4-64.6-25.7-91.1c-30.5-26.1-70.1-42-113.4-42c-96.3,0-174.3,78.1-174.3,174.3
		c0,33.4,9.4,64.6,25.7,91.1c30.5,26.2,70.1,42,113.4,42C290.8,383,368.9,305,368.9,208.7z"/>
	<g>
		<circle class="st6" cx="153.9" cy="325" r="32.6"/>
		<path class="st1" d="M130.8,327.9c0-15.6,12.7-28.3,28.3-28.3c3.9,0,7.6,0.8,11,2.2c-4.6-3.2-10.2-5.1-16.2-5.1
			c-15.6,0-28.3,12.7-28.3,28.3c0,11.8,7.2,21.8,17.4,26.1C135.6,346,130.8,337.5,130.8,327.9z"/>
		<path class="st0" d="M185.7,325c0-9.6-4.8-18.1-12.1-23.2c-3.4-1.4-7.1-2.2-11-2.2c-15.6,0-28.3,12.7-28.3,28.3
			c0,9.6,4.8,18.1,12.1,23.2c3.4,1.4,7.1,2.2,11,2.2C173,353.4,185.7,340.7,185.7,325z"/>
	</g>
	<g>
		<circle class="st6" cx="105.4" cy="262.5" r="11.1"/>
		<path class="st1" d="M97.5,263.5c0-5.3,4.3-9.7,9.7-9.7c1.3,0,2.6,0.3,3.7,0.8c-1.6-1.1-3.5-1.7-5.5-1.7c-5.3,0-9.7,4.3-9.7,9.7
			c0,4,2.4,7.5,5.9,8.9C99.2,269.7,97.5,266.8,97.5,263.5z"/>
		<path class="st0" d="M116.3,262.5c0-3.3-1.6-6.2-4.1-7.9c-1.2-0.5-2.4-0.8-3.7-0.8c-5.3,0-9.7,4.3-9.7,9.7c0,3.3,1.6,6.2,4.1,7.9
			c1.2,0.5,2.4,0.8,3.7,0.8C111.9,272.2,116.3,267.8,116.3,262.5z"/>
	</g>
	<g>
		<circle class="st6" cx="165" cy="381.7" r="11.1"/>
		<path class="st1" d="M157.1,382.7c0-5.3,4.3-9.7,9.7-9.7c1.3,0,2.6,0.3,3.7,0.8c-1.6-1.1-3.5-1.7-5.5-1.7c-5.3,0-9.7,4.3-9.7,9.7
			c0,4,2.4,7.5,5.9,8.9C158.8,388.9,157.1,386,157.1,382.7z"/>
		<path class="st0" d="M175.9,381.7c0-3.3-1.6-6.2-4.1-7.9c-1.2-0.5-2.4-0.8-3.7-0.8c-5.3,0-9.7,4.3-9.7,9.7c0,3.3,1.6,6.2,4.1,7.9
			c1.2,0.5,2.4,0.8,3.7,0.8C171.6,391.4,175.9,387.1,175.9,381.7z"/>
	</g>
	<g>
		<circle class="st6" cx="177.7" cy="162.6" r="13.2"/>
		<path class="st1" d="M168.4,163.8c0-6.3,5.1-11.4,11.4-11.4c1.6,0,3.1,0.3,4.4,0.9c-1.9-1.3-4.1-2.1-6.5-2.1
			c-6.3,0-11.4,5.1-11.4,11.4c0,4.8,2.9,8.8,7,10.6C170.3,171.1,168.4,167.7,168.4,163.8z"/>
		<path class="st0" d="M190.6,162.6c0-3.9-1.9-7.3-4.9-9.4c-1.4-0.6-2.9-0.9-4.4-0.9c-6.3,0-11.4,5.1-11.4,11.4
			c0,3.9,1.9,7.3,4.9,9.4c1.4,0.6,2.9,0.9,4.4,0.9C185.4,174.1,190.6,169,190.6,162.6z"/>
	</g>
	<g>
		<circle class="st6" cx="252.8" cy="227.5" r="11.1"/>
		<path class="st1" d="M244.9,228.4c0-5.3,4.3-9.7,9.7-9.7c1.3,0,2.6,0.3,3.7,0.8c-1.6-1.1-3.5-1.7-5.5-1.7c-5.3,0-9.7,4.3-9.7,9.7
			c0,4,2.4,7.5,5.9,8.9C246.5,234.6,244.9,231.7,244.9,228.4z"/>
		<path class="st0" d="M263.6,227.5c0-3.3-1.6-6.2-4.1-7.9c-1.2-0.5-2.4-0.8-3.7-0.8c-5.3,0-9.7,4.3-9.7,9.7c0,3.3,1.6,6.2,4.1,7.9
			c1.2,0.5,2.4,0.8,3.7,0.8C259.3,237.1,263.6,232.8,263.6,227.5z"/>
	</g>
	<g>
		<circle class="st6" cx="356.6" cy="262.5" r="11.1"/>
		<path class="st1" d="M348.7,263.5c0-5.3,4.3-9.7,9.7-9.7c1.3,0,2.6,0.3,3.7,0.8c-1.6-1.1-3.5-1.7-5.5-1.7c-5.3,0-9.7,4.3-9.7,9.7
			c0,4,2.4,7.5,5.9,8.9C350.3,269.7,348.7,266.8,348.7,263.5z"/>
		<path class="st0" d="M367.5,262.5c0-3.3-1.6-6.2-4.1-7.9c-1.2-0.5-2.4-0.8-3.7-0.8c-5.3,0-9.7,4.3-9.7,9.7c0,3.3,1.6,6.2,4.1,7.9
			c1.2,0.5,2.4,0.8,3.7,0.8C363.1,272.2,367.5,267.8,367.5,262.5z"/>
	</g>
	<g>
		<circle class="st6" cx="356.3" cy="187.6" r="22"/>
		<path class="st1" d="M340.7,189.6c0-10.5,8.6-19.1,19.1-19.1c2.6,0,5.1,0.5,7.4,1.5c-3.1-2.2-6.9-3.4-10.9-3.4
			c-10.5,0-19.1,8.6-19.1,19.1c0,7.9,4.8,14.7,11.7,17.6C344,201.8,340.7,196.1,340.7,189.6z"/>
		<path class="st0" d="M377.8,187.6c0-6.5-3.2-12.2-8.2-15.7c-2.3-1-4.8-1.5-7.4-1.5c-10.5,0-19.1,8.6-19.1,19.1
			c0,6.5,3.2,12.2,8.2,15.7c2.3,1,4.8,1.5,7.4,1.5C369.2,206.8,377.8,198.2,377.8,187.6z"/>
	</g>
	<g>
		<circle class="st6" cx="317.3" cy="243.4" r="28.1"/>
		<path class="st1" d="M297.4,245.9c0-13.5,10.9-24.4,24.4-24.4c3.3,0,6.5,0.7,9.4,1.9c-4-2.8-8.8-4.4-13.9-4.4
			c-13.5,0-24.4,10.9-24.4,24.4c0,10.1,6.2,18.8,15,22.5C301.5,261.5,297.4,254.2,297.4,245.9z"/>
		<path class="st0" d="M344.7,243.4c0-8.3-4.1-15.6-10.5-20c-2.9-1.2-6.1-1.9-9.4-1.9c-13.5,0-24.4,10.9-24.4,24.4
			c0,8.3,4.1,15.6,10.5,20c2.9,1.2,6.1,1.9,9.4,1.9C333.8,267.8,344.7,256.9,344.7,243.4z"/>
	</g>
	<g>
		<circle class="st6" cx="184.2" cy="253.8" r="26"/>
		<path class="st1" d="M165.8,256.1c0-12.5,10.1-22.5,22.5-22.5c3.1,0,6,0.6,8.7,1.8c-3.7-2.5-8.1-4-12.9-4
			c-12.5,0-22.5,10.1-22.5,22.5c0,9.4,5.7,17.4,13.8,20.8C169.7,270.5,165.8,263.8,165.8,256.1z"/>
		<path class="st0" d="M209.6,253.8c0-7.7-3.8-14.4-9.7-18.5c-2.7-1.1-5.6-1.8-8.7-1.8c-12.5,0-22.5,10.1-22.5,22.5
			c0,7.7,3.8,14.4,9.7,18.5c2.7,1.1,5.6,1.8,8.7,1.8C199.5,276.4,209.6,266.3,209.6,253.8z"/>
	</g>
	<g>
		<circle class="st6" cx="227.5" cy="398.2" r="13"/>
		<path class="st1" d="M218.3,399.4c0-6.2,5-11.3,11.3-11.3c1.5,0,3,0.3,4.4,0.9c-1.8-1.3-4-2-6.4-2c-6.2,0-11.3,5-11.3,11.3
			c0,4.7,2.9,8.7,6.9,10.4C220.2,406.6,218.3,403.2,218.3,399.4z"/>
		<path class="st0" d="M240.1,398.2c0-3.8-1.9-7.2-4.8-9.3c-1.3-0.6-2.8-0.9-4.4-0.9c-6.2,0-11.3,5-11.3,11.3c0,3.8,1.9,7.2,4.8,9.3
			c1.3,0.6,2.8,0.9,4.4,0.9C235.1,409.5,240.1,404.5,240.1,398.2z"/>
	</g>
	<g>
		<circle class="st6" cx="120.8" cy="210.1" r="14.1"/>
		<path class="st1" d="M110.8,211.4c0-6.8,5.5-12.2,12.2-12.2c1.7,0,3.3,0.3,4.7,0.9c-2-1.4-4.4-2.2-7-2.2
			c-6.8,0-12.2,5.5-12.2,12.2c0,5.1,3.1,9.4,7.5,11.3C112.9,219.2,110.8,215.5,110.8,211.4z"/>
		<path class="st0" d="M134.6,210.1c0-4.2-2.1-7.8-5.2-10c-1.5-0.6-3.1-0.9-4.7-0.9c-6.8,0-12.2,5.5-12.2,12.2c0,4.2,2.1,7.8,5.2,10
			c1.5,0.6,3.1,0.9,4.7,0.9C129.1,222.3,134.6,216.9,134.6,210.1z"/>
	</g>
	<g>
		<circle class="st6" cx="123.5" cy="152.9" r="11.3"/>
		<path class="st1" d="M115.5,153.9c0-5.4,4.4-9.8,9.8-9.8c1.3,0,2.6,0.3,3.8,0.8c-1.6-1.1-3.5-1.8-5.6-1.8c-5.4,0-9.8,4.4-9.8,9.8
			c0,4.1,2.5,7.5,6,9C117.1,160.1,115.5,157.2,115.5,153.9z"/>
		<path class="st0" d="M134.4,152.9c0-3.3-1.7-6.3-4.2-8c-1.2-0.5-2.4-0.8-3.8-0.8c-5.4,0-9.8,4.4-9.8,9.8c0,3.3,1.7,6.3,4.2,8
			c1.2,0.5,2.4,0.8,3.8,0.8C130.1,162.6,134.4,158.3,134.4,152.9z"/>
	</g>
	<g>
		<ellipse class="st6" cx="254.3" cy="136.6" rx="44.8" ry="43"/>
		<path class="st1" d="M222.6,140.4c0-20.6,17.4-37.3,38.8-37.3c5.3,0,10.4,1,15,2.9c-6.3-4.2-13.9-6.7-22.2-6.7
			c-21.5,0-38.8,16.7-38.8,37.3c0,15.5,9.8,28.8,23.8,34.4C229.2,164.3,222.6,153.1,222.6,140.4z"/>
		<path class="st0" d="M298,136.6c0-12.7-6.6-23.9-16.7-30.6c-4.6-1.9-9.7-2.9-15-2.9c-21.5,0-38.8,16.7-38.8,37.3
			c0,12.7,6.6,23.9,16.7,30.6c4.6,1.9,9.7,2.9,15,2.9C280.6,173.9,298,157.2,298,136.6z"/>
	</g>
	<g>
		<ellipse class="st6" cx="283.9" cy="332.6" rx="44.8" ry="43"/>
		<path class="st1" d="M252.2,336.4c0-20.6,17.4-37.3,38.8-37.3c5.3,0,10.4,1,15,2.9c-6.3-4.2-13.9-6.7-22.2-6.7
			c-21.5,0-38.8,16.7-38.8,37.3c0,15.5,9.8,28.8,23.8,34.4C258.8,360.3,252.2,349,252.2,336.4z"/>
		<path class="st0" d="M327.5,332.6c0-12.7-6.6-23.9-16.7-30.6c-4.6-1.9-9.7-2.9-15-2.9c-21.5,0-38.8,16.7-38.8,37.3
			c0,12.7,6.6,23.9,16.7,30.6c4.6,1.9,9.7,2.9,15,2.9C310.2,369.9,327.5,353.2,327.5,332.6z"/>
	</g>
</g>
</svg>
