<?xml version="1.0" encoding="utf-8"?>
<!-- Generator: Adobe Illustrator 24.1.1, SVG Export Plug-In . SVG Version: 6.00 Build 0)  -->
<svg version="1.1" xmlns="http://www.w3.org/2000/svg" xmlns:xlink="http://www.w3.org/1999/xlink" x="0px" y="0px" width="1920px"
	 height="1080px" viewBox="0 0 1920 1080" style="enable-background:new 0 0 1920 1080;" xml:space="preserve">
<style type="text/css">
	.st0{opacity:0.35;stroke:#000000;stroke-miterlimit:10;}
	.st1{fill:#FFE0BD;}
	.st2{fill:#0F0F0F;}
	.st3{fill:#DBDBD1;}
	.st4{fill:#CCBE9A;}
	.st5{fill:#BFB28C;}
	.st6{fill:#EDEDDE;}
	.st7{fill:#887E97;}
	.st8{fill:#05010C;}
	.st9{fill:#05010C;stroke:#000000;stroke-miterlimit:10;}
	.st10{fill:#EBEDEC;}
	.st11{fill:#1F1F1F;}
	.st12{fill:none;stroke:#000000;stroke-miterlimit:10;}
	.st13{fill:#CACED4;}
	.st14{fill:#16181A;}
	.st15{fill:#1E2024;}
	.st16{fill:#141518;}
	.st17{fill:#634739;}
	.st18{fill:#EDEDED;}
	.st19{fill:#414141;}
	.st20{fill:#484949;}
	.st21{fill:none;stroke:#F4D6BA;stroke-miterlimit:10;}
	.st22{fill:#82766B;}
	.st23{fill:#FFFFFF;}
	.st24{fill:#989DA6;}
	.st25{fill:#AE988A;}
	.st26{fill:none;stroke:#000000;stroke-width:2.500000e-02;stroke-miterlimit:10;}
	.st27{fill:#CC5500;}
	.st28{fill:#DE5D83;}
	.st29{fill:#313639;}
	.st30{fill:#715444;}
	.st31{fill:#0F4C81;}
	.st32{fill:#33A1C9;}
</style>
<g id="Lager_1">
	<path class="st0" d="M243.4,390.3c-13-38.1-29-60.3-44.3-73.2c-33.9-41.5-105.9-4.9-113.1-2c-7.6,3.1-22.1,6.7-32.1,11.4
		c-9.9,4.6-16.5,25.1-28,43.6c-11.5,18.5,6.4,46.6,6.4,46.6c-4.1-10.9,12.1-41.6,9.1-27.7c-3,13.9,12.8,40.4,14.6,46.6
		c1.8,6.2,13.4,10.8,14.7,24.7c1.3,13.9,17.3,15.4,25.2,23.2c7.9,7.7-1.1,10.8-1.1,10.8c9.9,0,5.8-9.3,5.8-9.3s14.6,1.5,15.4,9.3
		c0.9,7.7-2.9,9.3-2.9,9.3s18.9-3.1,0.8-30.9c-1.1-1.7-2-3.2-2.8-4.7c0.6,0.1,1.2,0.2,1.8,0.2c0.5,1.5,1,3,1.6,4.5
		c0,0,23.6,8.8,24.8,16.5c1.2,7.7-6.9,5.8-6.9,5.8l-3.7,8.9c0,0.1,0,0.2,0,0.4c-5.1,13.6-12.8,39.7-13.9,45.5
		c-1.5,7.8,12.5,97.8,12.5,97.8s1.6,1.1,3.9,1.9c1.8,3.2,4.9,9.8,2,13.4c-1.7,2.1-6,6.5-9.9,11c-54.8,13.8-25.3,63.9-25.4,75
		c-0.1,11.9,16.6,31.7,16.6,31.7c14,44.6,18.9,42.6,22.4,48.6c3.6,5.9,23.9,25.8,34.4,33.7c10.5,7.9,15.4,0,15.4,0
		s4.4,3.6,26.2-11.5c-0.1,1.3,0,2.4,0.2,2.8c0,0,0,0,0,0c0.1,3.2,0.5,6,0.7,6.9c-0.5,0.4-2.6,2.2-2.5,4.7c0,0,0.2,3.4,13.4,6.4
		c-3.2-0.6-5.9-1.1-6.9-1.6c0,0-5.2-1.8-6.2-3.6c0,0-1,5.5,22.1,8.3c0,0,19.2,1.8,26.3,2.6c6.9,0.8,16.1-0.6,18.1-3.5
		c0.7-0.4,1.1-0.8,1.1-1.3c0,0,0,0,0,0c0.7-2.4-1-3.5-1-3.5c-2.5-3.3-14.2-6.5-14.2-6.5c-0.6-0.2-1.3-0.5-2-0.8l-0.9-0.5
		c-0.7-0.4-1.5-0.8-2.3-1.3l-0.5-0.3l0,0c-0.7-0.4-1.5-0.8-2.2-1.3l-0.5-0.3c-1.1-0.7-2.2-1.3-3.2-2l-0.3-0.2
		c-0.9-0.6-1.7-1.1-2.6-1.7l-0.3-0.2c-1.1-0.8-2.2-1.5-3.2-2.1h0l-0.1-0.1c-0.2-0.1-0.3-0.2-0.4-0.3l0-0.1l-0.5-0.2
		c-1.1-0.7-1.9-1.3-2.6-1.8l-0.3-0.2c-0.6-0.4-0.9-0.6-0.9-0.6c-6.8-7.3-7.1-5.6-7.1-5.6c0.1,1,0,2-0.2,2.9c-0.8-3-2.2-8.9-4.1-16.6
		c5.3-19.2-3-47.2-17.2-88.9c-1.3-3.9-2.8-7.5-4.4-11c-2.2-13.9-2.7-22.8,0.1-21.5c8.3,3.9,31.5,87.9,45.2,121.2
		c-0.5,0.3-1,1-1.4,1.9c-0.3,0.5-0.6,1.1-0.8,1.8c-0.8,2.2-1.4,4.6-1.2,5.4c0,0,0,0,0,0c-0.4,3-0.4,5.7-0.4,6.6
		c-0.5,0.3-3,1.6-3.4,4c0,0-0.4,3.3,12.9,8.4c-3.3-1.1-5.9-2.1-6.9-2.8c0,0-5.1-2.6-5.8-4.5c0,0-1.9,4.9,21.6,11.7
		c0,0,19.6,5.1,26.8,7.1c7,2,16.7,2.3,19.3,0c0.8-0.2,1.3-0.6,1.4-1.1c0,0,0,0,0,0c1.2-2.1-0.5-3.4-0.5-3.4
		c-2-3.5-13.7-8.6-13.7-8.6c-0.6-0.3-1.2-0.7-1.9-1.1l-0.9-0.6c-0.7-0.5-1.4-1-2.2-1.6l-0.4-0.3l0,0c-0.7-0.5-1.4-1-2.1-1.6
		l-0.4-0.4c-1-0.8-2-1.6-3-2.5l-0.3-0.2c-0.8-0.7-1.6-1.4-2.4-2l-0.2-0.2c-1.3-1.1-2.4-2.1-3.5-3l0.1-0.1l-0.4-0.3
		c-1-0.9-1.8-1.6-2.4-2.2l-0.2-0.1c-0.6-0.5-0.9-0.8-0.9-0.8c-5.9-8-6.5-6.5-6.5-6.5c-0.1,1.1-0.4,2.1-0.8,2.9l-36-143.9
		c-11.2,15.6-31.8,14.3-48.4,9.8c-2-2-4-4-6.1-5.7c2.2,1,4.4,1.9,6.7,2.7c25.2,8.4,44.1-13.1,45.1-14.3l0,0.1c0,0,3.8,9.9,5.9,10.9
		c2.1,1-1.1-9.9-1.1-9.9s7.3,23.3,10.3,21.3s-5.8-19.8-5.8-19.8s12.2,19.8,13.7,15.9c1.6-4-11-18.8-11-18.8s14.4,14.9,16.5,12.9
		c2.1-2-11.9-15.9-11.9-15.9s10.2,4,10.6,2c0.3-2-6.3-5.9-13.5-8.9c-6.3-2.6-11.1-9.6-12.3-11.4l-0.1-0.1l0,0l-0.5-1.4l0,0
		l-44.7-123.5l-21.3-22.5c0,0,0-0.1,0-0.1l-2.6-2.8c2.9-5.4,7-11,11-8.6c7.3,4.4,23.3,4.4,23.3,4.4s-0.6-2.2,14.3,4.4
		c13.7,6,16.8-1.4,17.1-2.6c5.4-0.8,8.5-2.2,8.5-2.2S280.1,498,243.4,390.3z M271.6,854.5c-0.8-0.3-1.7-0.6-2.6-0.9
		c0.4,0.1,0.9,0.3,1.3,0.4l0,0C270.7,854.2,271.2,854.4,271.6,854.5L271.6,854.5z M263.5,851.5l0-0.1
		C263.5,851.4,263.5,851.5,263.5,851.5L263.5,851.5C263.5,851.5,263.5,851.5,263.5,851.5z M267.1,852.8c0.1,0,0.2,0.1,0.3,0.1l0,0.1
		c-0.1,0-0.1,0-0.2-0.1L267.1,852.8z M260.2,850.3C260.3,850.3,260.3,850.3,260.2,850.3L260.2,850.3
		C260.3,850.3,260.3,850.3,260.2,850.3L260.2,850.3z M281,864.4c4,1,8.4,2,13.3,3c0,0,6.4,1.3,12.2,1.9
		C300.6,869.2,291.8,868.2,281,864.4z M147.2,513.4c-0.9-0.7-1.9-1.5-2.9-2.5l-0.6-0.8C144.9,511.3,146.1,512.4,147.2,513.4z
		 M235.7,866.7c-0.8-0.2-1.7-0.3-2.6-0.5c0.4,0.1,0.9,0.2,1.3,0.2l0,0C234.9,866.5,235.3,866.6,235.7,866.7L235.7,866.7z M227.7,865
		l-0.1-0.1C227.7,864.9,227.7,864.9,227.7,865L227.7,865C227.7,865,227.7,865,227.7,865z M231.3,865.7c0.1,0,0.2,0,0.3,0.1l0,0.1
		c-0.1,0-0.1,0-0.2,0L231.3,865.7z M224.4,864.3C224.5,864.3,224.5,864.3,224.4,864.3L224.4,864.3
		C224.5,864.3,224.5,864.3,224.4,864.3L224.4,864.3z M230.4,851.8c0.5-0.4,0.9-0.8,1.3-1.2C231.3,851.1,230.9,851.5,230.4,851.8z
		 M147.4,657.9c-0.3,0.9,0.1,2.6,1.1,4.8c-3.7-5.7-5-10.5-5.5-13c0.5-0.5,1-1.1,1.6-2L147.4,657.9z M246.2,875.3
		c3.9,0.3,8.1,0.6,12.9,0.8c0,0,6.2,0.2,11.7-0.2C265.2,876.7,256.8,877.3,246.2,875.3z"/>
	<path class="st1" d="M233.6,508.3c0,0,21,8.1,20,15.1c-1,7-8.6,5.3-8.6,5.3c8,24,22.7,23.6,22.7,23.6s14-19.9,20-15.9
		c6,4,22,4,22,4s0-2,13,4c13,6,18-2.6,18-2.6S225.5,417.6,233.6,508.3z"/>
	<path class="st2" d="M366.6,371.7c0,0-59.9-32.7-88.9,4.5c-32.7,41.9-1.1,124.1,3.2,131.1c0,0-12.7,4.5-25.2-26c0,0-2.8,17,2.8,24
		s-19.8-9.9-8.5-24c0,0-26.9,1.4-17,26.9c9.9,25.4-9.9,28.3-9.9,28.3s4.2-1.4,5.7-8.5c1.4-7.1-12.7-8.5-12.7-8.5s1.4,8.5-8.5,8.5
		c0,0,9.9-2.8,4.2-9.9c-5.7-7.1-21.2-8.5-18.4-21.2s-7.4-17-7.4-22.7c0-5.7-8-29.9-0.9-42.7s-18.2,15.4-17.2,25.4
		c0,0-9.7-25.7,7.3-42.7c17-17,29.5-35.7,40.8-39.9c11.3-4.2,27-7.6,35.4-10.4C259.9,361.2,350.2,324.5,366.6,371.7z"/>
	<path class="st3" d="M315.3,351.5c0,0-72.6,3.7-51.7,108.2c20.9,104.5,86.2,80.4,86.2,80.4s42.1-8.6,37-107.2
		S315.3,351.5,315.3,351.5z"/>
	<path class="st4" d="M274,544.4l16.6,23.2l8.6,114.6l-8.8-1l1,20.8c0,0-26,21.1-49.4,13.1c-23.4-7.9-32.7-32.7-29.8-37.2l0.2-9.4
		h-17.2c0,0,12.4-82.4,16.2-89.6s30-47.6,33.7-49.3C245,529.6,254,562.3,274,544.4z"/>
	<path class="st5" d="M212.3,668.5h-17.2c0,0,3.5,2.7,8.2,2.7C207.8,671.2,208.7,672.1,212.3,668.5z"/>
	<path class="st1" d="M289.4,681.2l9.5,0.5c0,0,2.7,8.2,9.1,10.9c6.4,2.7,11.8,6.4,10.9,8.2c-0.9,1.8-10-1.8-10-1.8
		s10,12.7,7.3,14.5c-2.7,1.8-12.7-11.8-12.7-11.8s8.2,13.6,5.4,17.2s-9.1-14.5-9.1-14.5s3.6,16.3,0,18.2c-3.6,1.8-4.1-19.5-4.1-19.5
		s0,10-1.8,9.1c-1.8-0.9-2.7-10-2.7-10L289.4,681.2"/>
	<path class="st6" d="M315.5,356.2c0,0-69.2,3.5-49.3,103.1s82.1,76.6,82.1,76.6s40.1-8.2,35.2-102.2
		C378.7,339.7,315.5,356.2,315.5,356.2z"/>
	<path class="st7" d="M366.1,395.8v18.2c0,0,7.3,3.6,9.1,0.9C375.2,414.8,376.1,400.3,366.1,395.8z"/>
	<path class="st7" d="M343.4,394c0,0,0,15.4-1.8,18.2c-1.8,2.7-10.9-1.8-10.9-1.8S335.3,395.8,343.4,394z"/>
	<path class="st8" d="M379.7,427.5c0,0-5.4-5.4-9.1-4.5c-3.6,0.9-7.3,5.4-7.3,5.4s3.6,6.4,8.2,5.4
		C376.1,433,379.7,427.5,379.7,427.5z"/>
	<path class="st8" d="M377,433.9c-0.6-0.6,0,1.8-7.3,1.8c-5.6,0-0.5,1.1,2.2,1.6c1,0.2,2,0.1,3-0.2C377,436.5,378.8,435.7,377,433.9
		z"/>
	<path class="st8" d="M339.8,429.4c0,0-5.4-7.3-10.9-6.4c-5.4,0.9-8.2,3.6-8.2,3.6s2.7,6.4,10,7.3
		C338,434.8,339.8,429.4,339.8,429.4z"/>
	<path class="st9" d="M333.5,435.7c0,0-8.2,0.9-10.9-2.7c-1.4-1.9-1.4-1.1-1,0.2c0.5,1.6,1.9,2.9,3.5,3.2
		C327.8,437,331.7,437.4,333.5,435.7z"/>
	<path class="st7" d="M378.8,439.3L367,443l-0.9,30.9C366.1,473.8,375.2,476.5,378.8,439.3z"/>
	<path class="st7" d="M334.4,443.9c0,0-10-3.6-13.6-0.9c-3.6,2.7-1.8,29,2.7,32.7C328,479.3,336.2,449.3,334.4,443.9z"/>
	<path class="st8" d="M358.9,503.8c-10-15.2-21.6-13.9-34.5,0.9C324.4,504.7,344.3,517.4,358.9,503.8z"/>
	<path class="st7" d="M349.8,511.9h-14.5C335.3,511.9,343.4,517.4,349.8,511.9z"/>
	<path class="st1" d="M244.7,488.9c0,0-8.5-31.4-24.7-16.7s4.8,33,14.6,31.9"/>
	<path class="st5" d="M252.2,543.3l-7.3-14.5l-6.4,8.2c-1.5,4.6,15.5,28.1,15.5,28.1l7.7-10.8h4.6l7.7,9.3c0,0,1.5-15,1.5-16.6
		l-1.8-2.7C272.2,546,263.1,556,252.2,543.3z"/>
	<polygon class="st5" points="289.4,681.2 277.6,583.2 290.3,567.8 276.7,583.2 	"/>
	<polygon class="st5" points="276.7,583.2 288.7,565 277.6,580.5 	"/>
	<polygon class="st5" points="212.3,668.5 222.3,583.2 221.4,585 	"/>
	<polygon class="st5" points="299,680.6 289.3,680.2 289.4,681.6 299.1,681.9 	"/>
	<rect x="261.3" y="554.1" class="st5" width="5.4" height="20"/>
	<circle class="st4" cx="264" cy="571.4" r="0.9"/>
	<circle class="st4" cx="264" cy="566.8" r="0.9"/>
	<circle class="st4" cx="264" cy="562.3" r="0.9"/>
	<path class="st10" d="M318.6,870.1c0,0-20.1-1.2-33.7-9.7c0,0-24.3-9.1-25.1-9.8c-0.8-0.7-0.3-1-0.3-1s-3.5,1.3-4.7,3.7
		c0,0-3.2,7,42.7,16.6C297.4,869.8,318.5,874,318.6,870.1z"/>
	<path class="st11" d="M259.2,849.8c0,0,4.2-13.3,9.1-14.5c0,0,3.2,1.8,2.2,6.8s13,4.3,16.7-4.2c0,0,1-1.4,4.5,6
		c0,0,10.8,12.5,16.2,15.6c0,0,10.2,4.6,11.2,7.8c0,0,1.3,1.2-0.5,3.1c0,0-19-1-29.3-7.7c0,0-15.5-7.6-28.3-11
		C260.9,851.8,259.3,851.1,259.2,849.8"/>
	<path class="st12" d="M265.8,876.4"/>
	<path class="st13" d="M277.4,857.5l-0.1-4.3l-2.7,3.5l-0.5-4.7l-2.8,3.2l-0.4-4.1l-2.5,3l-0.1-4.3l-2.5,3.3l-0.3-4.5l-2.6,3.4
		c0,0-0.5-3.5,0.1-4.3c0.6-0.8-2.2,3.2-2.2,3.2s-0.9-1.4,0-2.9c0.9-1.5-1.7,1.9-1.7,1.9c0.1-0.1,0,0.3,0.8,1.3
		c0.6,0.7,1.2,0.9,2.9,1.2C265.6,853,270.4,855.1,277.4,857.5z"/>
	<polygon class="st14" points="297.8,856.8 290.2,863.5 293,865 300,858.1 	"/>
	<path class="st14" d="M295.4,854.9c-0.7,0.2-8.4,6.9-8.4,6.9l-2.3-1l8.9-7.5L295.4,854.9z"/>
	<polygon class="st14" points="290.8,851.9 280.9,859 278.4,858.1 289.3,850.4 	"/>
	<path class="st15" d="M317,871.3c0.4-0.3-13.9,2.2-32-4.4c0,0-22.9-6.4-25.9-8.6c0,0-4.3-2.4-4.5-4.1c0,0-3.4,4.5,18.2,10.7
		c0,0,18.1,4.7,24.7,6.5S314,873.6,317,871.3z"/>
	<circle class="st14" cx="304.6" cy="859.2" r="0.7"/>
	<circle class="st14" cx="301.6" cy="857" r="0.7"/>
	<circle class="st14" cx="299" cy="854.9" r="0.7"/>
	<circle class="st14" cx="296.6" cy="852.7" r="0.7"/>
	<circle class="st14" cx="294.3" cy="850.1" r="0.7"/>
	<circle class="st14" cx="292.3" cy="848" r="0.7"/>
	<polygon class="st14" points="305.2,858.9 306.3,858.5 305.5,857.9 304.8,858.6 	"/>
	<polygon class="st14" points="304.4,858.5 303.9,856.5 303.5,856.2 303.2,856 303.9,859 	"/>
	<polygon class="st14" points="302.1,856.6 303.5,856.2 303.2,856 301.8,856.4 	"/>
	<polygon class="st14" points="301.2,856.4 301.3,854.1 302,854.8 301.8,856.4 	"/>
	<polygon class="st14" points="299.7,855 301.2,854.1 300.6,853.5 299.5,854.4 	"/>
	<polygon class="st14" points="299.2,854.3 299.5,852.4 299,851.9 298.8,854.8 	"/>
	<polygon class="st14" points="297.3,852.7 299,851.9 298.6,851.5 296.7,852.6 	"/>
	<polygon class="st14" points="296.8,852 297.4,850.2 296.9,849.7 296.4,852.9 	"/>
	<polygon class="st14" points="295,850.2 296.9,849.7 296.5,849.3 294.4,850.1 	"/>
	<polygon class="st14" points="294.5,849.5 294.9,847.5 294.5,847.1 294.1,850 	"/>
	<polygon class="st14" points="293,848 294.6,847 294.2,846.8 292.4,847.9 	"/>
	<polygon class="st14" points="292.5,847.3 292.5,844.8 292.2,844.5 292.4,848.2 	"/>
	<path class="st16" d="M273.7,846.1c0,0-4.8,4.9-9-3c0,0-1.1-0.6-3,0.6c-0.1-1.4,5.6-9.5,6.7-8.3
		C268.8,835.8,264.7,843.4,273.7,846.1z"/>
	<path class="st10" d="M280.6,874.5c0,0-20,2.1-34.9-4.1c0,0-25.5-5-26.4-5.6c-0.9-0.6-0.5-0.9-0.5-0.9s-3.2,1.8-4,4.4
		c0,0-2,7.4,44.8,9.4C259.7,877.7,281.2,878.4,280.6,874.5z"/>
	<path class="st11" d="M218.7,864.2c0,0,2-13.8,6.6-15.8c0,0,3.4,1.2,3.3,6.4c-0.2,5.2,13.5,2.1,15.8-6.8c0,0,0.8-1.5,5.5,5.2
		c0,0,12.7,10.6,18.5,12.7c0,0,10.8,2.9,12.3,5.9c0,0,1.4,1,0,3.2c0,0-19,2.1-30.2-2.9c0,0-16.5-5-29.7-6.2
		C220.7,865.9,219,865.4,218.7,864.2"/>
	<path class="st13" d="M237.9,868.8l-0.8-4.2l-2.1,3.9l-1.2-4.5l-2.3,3.6l-1.1-3.9l-2,3.3l-0.8-4.2l-2,3.6l-1.1-4.4l-2,3.8
		c0,0-1.1-3.3-0.6-4.2c0.5-0.9-1.7,3.5-1.7,3.5s-1.1-1.2-0.5-2.9c0.6-1.7-1.4,2.1-1.4,2.1c0.1-0.1,0,0.3,1,1.1
		c0.7,0.6,1.3,0.7,3,0.8C225.6,866.3,230.7,867.6,237.9,868.8z"/>
	<polygon class="st14" points="257.9,864.8 251.6,872.6 254.6,873.7 260.3,865.7 	"/>
	<path class="st14" d="M255.3,863.4c-0.7,0.3-7.2,8.2-7.2,8.2l-2.5-0.7l7.5-8.8L255.3,863.4z"/>
	<polygon class="st14" points="250.3,861.1 241.6,869.7 239,869.2 248.6,859.9 	"/>
	<path class="st15" d="M279.2,876c0.3-0.3-13.3,4.4-32.3,0.9c0,0-23.7-2.6-27-4.2c0,0-4.6-1.7-5.1-3.3c0,0-2.6,5,19.7,7.6
		c0,0,18.6,1.7,25.5,2.4C266.8,880.1,276.6,878.8,279.2,876z"/>
	<circle class="st14" cx="265" cy="866.1" r="0.7"/>
	<circle class="st14" cx="261.7" cy="864.4" r="0.7"/>
	<circle class="st14" cx="258.8" cy="862.8" r="0.7"/>
	<circle class="st14" cx="256.1" cy="860.9" r="0.7"/>
	<circle class="st14" cx="253.4" cy="858.8" r="0.7"/>
	<circle class="st14" cx="251.1" cy="857" r="0.7"/>
	<polygon class="st14" points="265.6,865.7 266.6,865.1 265.7,864.6 265.1,865.4 	"/>
	<polygon class="st14" points="264.7,865.4 263.9,863.5 263.4,863.3 263.2,863.1 264.4,866 	"/>
	<polygon class="st14" points="262.1,863.9 263.5,863.3 263.2,863.1 261.8,863.7 	"/>
	<polygon class="st14" points="261.3,863.9 260.9,861.6 261.7,862.1 261.8,863.7 	"/>
	<polygon class="st14" points="259.5,862.7 260.9,861.6 260.2,861.1 259.2,862.2 	"/>
	<polygon class="st14" points="258.9,862.1 258.9,860.2 258.3,859.8 258.6,862.7 	"/>
	<polygon class="st14" points="256.8,860.9 258.3,859.8 257.9,859.4 256.2,860.9 	"/>
	<polygon class="st14" points="256.2,860.3 256.4,858.3 255.9,858 255.9,861.2 	"/>
	<polygon class="st14" points="254.1,858.7 255.9,858 255.4,857.6 253.4,858.7 	"/>
	<polygon class="st14" points="253.4,858.1 253.5,856.1 253.1,855.8 253.1,858.7 	"/>
	<polygon class="st14" points="251.8,856.9 253.1,855.7 252.8,855.5 251.2,856.9 	"/>
	<polygon class="st14" points="251.2,856.3 250.7,853.9 250.4,853.6 251.2,857.2 	"/>
	<path class="st16" d="M232.4,858.1c0,0-3.9,5.6-9.4-1.5c0,0-1.2-0.5-2.9,1.1c-0.3-1.4,4-10.3,5.3-9.2
		C225.9,848.8,223.1,856.9,232.4,858.1z"/>
	<path class="st17" d="M291.7,708.9l-6.3,132.4c0,0-3.2,3.3-5,4.2c-2.6,1.3-10,1.8-10.9-0.9c-6.2-18.6-3.2-116.2-11.3-120.2
		c-8.5-4.2-14.2,111-14.9,126.7c-0.1,1.1-0.7,2.1-1.8,2.6c-3,1.2-8.1,6.8-14.7,4.1c-9.1-3.6-8.5-148.8-8.5-148.8
		S262.7,735.2,291.7,708.9z"/>
	<g id="FAdkgo.tif_1_">
		<path class="st18" d="M196.7,690.5c0,0,53.5,10,56.3,63.5c2.7,53.5,1.8,82.6-28.1,98.9s-33.6,12.7-33.6,12.7s-7.3,7.3-15.4,0
			s-22.7-25.4-24.5-30.9c-1.8-5.4-7.3-3.6-8.2-44.5c0,0-10.9-18.2-7.3-29C139.5,750.4,122.2,698.7,196.7,690.5z"/>
	</g>
	<path class="st1" d="M197.8,668.5c0,0,4.1,9.5-1.4,14.1c-5.4,4.5-28.1,20-23.6,22.7c4.5,2.7,10.9-7.3,10.9-7.3s-9.1,13.6-6.4,16.3
		c2.7,2.7,9.1-15.4,11.8-15.4c2.7,0-10,14.5-4.5,19.1c5.4,4.5,7.3-20.9,12.7-20s-11.8,15.4-5.4,22.7c6.4,7.3,6.4-9.1,10.9-20.9
		s17.2,3.6,17.2,3.6s15.4,5.4,0.9-8.2c-14.5-13.6-10.4-26.8-10.4-26.8H197.8z"/>
	<path class="st19" d="M150,802.5c3.5,1.8,13.9,5.8,24.4-0.3c0.4-0.3,0.9-0.4,1.4-0.4h7.4l0,0c0,1.8-1.2,1.5-3,1.5h-5.4
		c0,0-11.9,6.5-23.9,2.2c-1.1-0.4-2.1-1-2.1-2.2v0C148.8,802.7,149.5,802.2,150,802.5z"/>
	<path class="st19" d="M234.3,805.5c-4.7,2.1-15.4,5.4-26.1-1.1c-0.3-0.2-1.8-1.1-2.2-1.1l-5.4-1.1c-1,0-2,0.4-2,1.4l0,0
		c0,1,1,0.7,2,0.7h3.3c0.4,0,4,1.2,4.3,1.4c2.9,2.1,15.9,6.9,28.2,0.2c0.4-0.2,0.4-0.7,0.4-1.1v0C236.8,803.5,235.5,805,234.3,805.5
		z"/>
	<path class="st19" d="M240.4,786.5c0,0-25.4-12.7-32.7-10.9C207.8,775.6,223.2,773.8,240.4,786.5z"/>
	<path class="st19" d="M180.5,781.9c0,0-23.6-7.3-31.8-2.7C148.8,779.2,162.4,771.9,180.5,781.9z"/>
	<path class="st19" d="M198,822.6c0,0,20.9,7-10.4,10.4c0,0-17-3.9-12.2-8.7c0,0,2.7,8.9,15.1,6.6C199.3,829.3,206.9,830,198,822.6z
		"/>
	<path class="st20" d="M165.1,848.4c3.1,1.6,7.6,0.8,10.7,0c2.2-0.6,4.4-0.4,6.5,0.6c1.2,0.5,2.2,0.6,3.2,0.4c3-0.6,6-0.5,8.8,0.6
		c3.8,1.4,8,2.5,8,2.5c-0.2,0.1-0.4,0.2-0.6,0.3c-11.4,1-24.2,1.2-35.9-3.6C165.4,848.6,165.1,848.4,165.1,848.4z"/>
	<path class="st19" d="M165.8,849.1c11.9,4.8,24.2,4.3,35.9,3.6C183.4,862.6,169.2,851.9,165.8,849.1z"/>
	<path class="st21" d="M234.9,486.2c0,0-5.4-16.8-9.9-8c-4.4,8.9-6.2,9.8,4.4,16"/>
	<ellipse class="st22" cx="242.2" cy="586.1" rx="10.3" ry="12.1"/>
	<ellipse class="st23" cx="240.7" cy="586.4" rx="8.8" ry="10.3"/>
	<ellipse class="st23" cx="145.6" cy="574.1" rx="8.8" ry="10.3"/>
</g>
<g id="Lager_2">
	<g>
		<path class="st24" d="M968.7,440.7C879,429.2,788.5,423.6,698,423.9c-123.2,0.4-250.7,13.1-356.1,79.1
			c41.4-16.9,68.2-31.6,111.2-44.6c57.5-17.3,132.8-29.2,192.9-28.4c22.7,0.3,39.7-0.1,57.1-0.7c13.7-0.5,24.9,1.3,38.7,0.6
			c12.1-0.6,24.2,0,36.2,0.7c44.7,2.6,89.1,9.2,133.5,15.6c107.6,20.6,185,26.1,278.7,24.2c57.6-1.2,115.4-3.3,172.1-13.3
			c85.7-15.2,167.1-48,247.7-80.6c5.8-2.4,11.6-4.7,17.4-7.1c-1.6-11.7-14.1-19.3-25.9-19.6c-11.8-0.3-22.9,4.7-33.8,9.4
			c-67.3,28.8-139.1,44.9-210.5,61c-51.4,11.5-100.3,26.4-152.9,26.7c-20.2,0.1-49.9,0.8-70.1,0.4c-57.6-1-109.2,1.9-166.2-6.5"/>
	</g>
	<g>
		<path class="st25" d="M1055.4,493c60.1,7.8,114.1,10.6,175.2,9.4c57.6-1.2,115.4-3.3,172.1-13.3c85.7-15.2,167.1-48,247.7-80.6
			c5.8-2.4,11.6-4.7,17.4-7.1c-1.6-11.7-29-30-40.8-30.3c-11.8-0.3-22.2,6.5-33.1,11.2c-67.3,28.8-128.3,51.4-199.7,67.4
			c-51.4,11.5-94.5,17.4-147.2,17.8c-20.2,0.1-56.7,3.3-76.9,2.9c-57.8-1.1-111.1-3.5-168.3-12c-89.8-11.5-173.2-29.5-263.7-29.1
			c-49.3,0.2-105.8-2.5-161.3,4.4c-74.4,9.3-155.1,26.9-215.1,59.6c-7.1,3.9-14.1,5.1-20.8,9.3c15.1-5.6,22.3-4.6,37.2-11.3
			c25.5-11.4,66.1-23.9,96.6-31.8c67.7-17.7,129.3-19.6,191.1-18.5c22.7,0.4,48.8,4.3,66.1,3.7c13.7-0.5,45.4,6.2,59.1,7
			c14.9,0.9,36,1.9,48,3.7c46.5,7.1,68.7,14.3,113,20.6C989.5,483.2,1023.3,488.8,1055.4,493z"/>
	</g>
	<path class="st26" d="M338.7,533.1"/>
	<g>
		<path class="st27" d="M1101.1,523.6c60.1,7.8,114.1,10.6,175.2,9.4c57.6-1.2,115.4-3.3,172.1-13.3c85.7-15.2,167.1-48,247.7-80.6
			c5.8-2.4,11.6-4.7,17.4-7.1c-1.6-11.7-29-30-40.8-30.3s-22.2,6.5-33.1,11.2c-67.3,28.8-128.3,51.4-199.7,67.4
			c-51.4,11.5-94.5,17.4-147.2,17.8c-20.2,0.1-56.7,3.3-76.9,2.9c-57.8-1.1-111.1-3.5-168.3-12c-89.8-11.5-181.9-37.6-273.7-45.5
			c-49.1-4.2-121-11.5-176.5-4.5c-74.4,9.3-166.5,18.1-226.5,50.9c-7.1,3.9-19.9,8.2-26.7,12.4c15.1-5.6,60-17,74.9-23.6
			c25.5-11.4,91.8-19,127.7-24.8c69.1-11.1,117.2-3.2,179-2.1c22.7,0.4,65.4,6.7,82.3,10.7c19,4.5,40.1,10.4,53.3,14.1
			c13.6,3.7,26.9,6.4,38.9,8.3c46.5,7.1,53,15.6,97.3,21.9C1035.2,513.8,1069,519.4,1101.1,523.6z"/>
	</g>
	<g>
		<path class="st28" d="M1142.3,554.7c60.1,7.8,114.1,10.6,175.2,9.4c57.6-1.2,115.4-3.3,172.1-13.3c85.7-15.2,167.1-48,247.7-80.6
			c5.8-2.4,11.6-4.7,17.4-7.1c-1.6-11.7-29-30-40.8-30.3c-11.8-0.3-22.2,6.5-33.1,11.2c-67.3,28.8-128.3,51.4-199.7,67.4
			c-51.4,11.5-94.5,17.4-147.2,17.8c-20.2,0.1-56.7,3.3-76.9,2.9c-57.8-1.1-111.1-3.5-168.3-12c-89.8-11.5-225.4-62.8-317.1-70.7
			c-49.1-4.2-107.3-14.4-162.9-7.4c-74.4,9.3-133.5,2.8-193.5,35.6c-7.1,3.9-64.4,20.2-71.1,24.4c15.1-5.6,92.6-24.4,107.5-31
			c25.5-11.4,79.4-10.7,115.3-16.5c69.1-11.1,92.5-7,163.6,0.8c22.6,2.5,77.1,12.1,94,16.1c19,4.5,47.7,12.8,60.9,16.4
			c13.6,3.7,39.1,11.8,50.7,15c47.5,13.2,60,18.8,102.9,31.4C1074.3,544.4,1110.3,550.5,1142.3,554.7z"/>
	</g>
	<g>
		<path class="st29" d="M1173.5,589.8c60.1,7.8,114.1,10.6,175.2,9.4c57.6-1.2,115.4-3.3,172.1-13.3c85.7-15.2,167.1-48,247.7-80.6
			c5.8-2.4,11.6-4.7,17.4-7.1c-1.6-11.7-29-30-40.8-30.3c-11.8-0.3-22.2,6.5-33.1,11.2c-67.3,28.8-128.3,51.4-199.7,67.4
			c-51.4,11.5-81.2,13.8-133.9,14.2c-20.2,0.1-70.9,3.5-91.2,3.1c-57.8-1.1-113.3-6-170.5-14.6c-89.8-11.5-219.3-66.5-310.1-82.2
			c-46.8-8.1-134.2-25.5-189.8-18.6c-74.4,9.3-140.9,0-200.9,32.8C409,485,354,499,347.2,503.2c15.1-5.6,98.9-20,113.8-26.7
			c25.5-11.4,105.7-9.6,141.4-11.5c69.9-3.6,95.1,9.8,166.2,17.7c22.6,2.5,74.6,15.8,91.5,19.8c19,4.5,43.6,14.2,56.9,17.8
			c13.6,3.7,38.8,14.1,50.4,17.4c47.5,13.2,60,18.8,102.9,31.4C1105.5,579.5,1141.4,585.7,1173.5,589.8z"/>
	</g>
	<g>
		<path class="st30" d="M1215.3,622.9c60.1,7.8,114.1,10.6,175.2,9.4c57.6-1.2,115.4-3.3,172.1-13.3c85.7-15.2,167.1-48,247.7-80.6
			c5.8-2.4,11.6-4.7,17.4-7.1c-1.6-11.7-29-30-40.8-30.3s-22.2,6.5-33.1,11.2c-23.9,10.2-48.8,18.1-71.9,26.7
			c-41.8,15.7-81.8,30.3-127.8,40.7c-51.4,11.5-94.5,17.4-147.2,17.8c-20.2,0.1-57.7,0.8-78,0.4c-57.8-1.1-110-1-167.2-9.5
			c-89.8-11.5-244.6-89.7-336.4-97.6c-49.1-4.2-150.3-39-205.9-32c-74.4,9.3-133-7.6-193,25.1c-7.1,3.9-71.1,16-77.9,20.3
			c15.1-5.6,114.6-19.5,129.5-26.2c25.5-11.4,113.7-7.9,150.1-6.8c65.5,1.9,97.1,18.3,167.4,31.6c22.9,4.3,87.3,22,104.2,26
			c19,4.5,45.7,21.2,58.9,24.8c13.6,3.7,38.8,14.1,50.4,17.4c47.5,13.2,60,18.8,102.9,31.4C1147.2,612.6,1183.2,618.7,1215.3,622.9z
			"/>
	</g>
	<g>
		<path class="st31" d="M1247.1,654.8c60.1,7.8,114.1,10.6,175.2,9.4c57.6-1.2,115.4-3.3,172.1-13.3c85.7-15.2,167.1-48,247.7-80.6
			c5.8-2.4,11.6-4.7,17.4-7.1c-1.6-11.7-29-30-40.8-30.3c-11.8-0.3-22.2,6.5-33.1,11.2c-67.3,28.8-128.3,51.4-199.7,67.4
			c-51.4,11.5-94.5,17.4-147.2,17.8c-20.2,0.1-56.7,3.3-76.9,2.9c-57.8-1.1-110.1-4.7-167.4-13.2c-89.8-11.5-280-106.7-371.8-114.5
			c-49.1-4.2-133.4-44.9-188.9-38c-74.4,9.3-120-16.8-179.9,16c-7.1,3.9-95.2,17.4-101.9,21.7c15.1-5.6,122.2-17.8,137.1-24.4
			c25.5-11.4,106.3-1.7,142.2,4.5c57.5,9.9,130.6,24.9,199.3,45.1c28.1,8.3,79,21.6,95.9,25.6c19,4.5,50.8,27,64.1,30.6
			c13.6,3.7,38.8,14.1,50.4,17.4c47.5,13.2,60,18.8,102.9,31.4C1179.1,644.4,1215,650.6,1247.1,654.8z"/>
	</g>
	<g>
		<path class="st32" d="M1288.4,687.4c60.1,7.8,114.1,10.6,175.2,9.4c57.6-1.2,115.4-3.3,172.1-13.3c85.7-15.2,167.1-48,247.7-80.6
			c5.8-2.4,11.6-4.7,17.4-7.1c-1.6-11.7-29-30-40.8-30.3c-11.8-0.3-22.2,6.5-33.1,11.2c-27.1,11.6-54.8,21.6-81,31.1
			c-38.8,14.2-76.1,26.7-118.7,36.2c-51.4,11.5-94.5,17.4-147.2,17.8c-20.2,0.1-56.7,3.3-76.9,2.9c-57.8-1.1-111.1-3.5-168.3-12
			c-89.8-11.5-272.9-107.5-364.7-115.3c-49.1-4.2-175.7-59.5-229-56.6c-74.9,4.1-114.5-29.4-174.5,3.3c-7.1,3.9-108.9,15.8-115.6,20
			c15.1-5.6,121-10.9,135.9-17.5c25.5-11.4,105.8,12.4,141.8,6.6c69.1-11.1,188.5,58.7,259.6,66.6c22.6,2.5,78.2,24.1,95.1,28.1
			c19,4.5,40.1,19.5,53.3,23.2c13.6,3.7,36.3,17.4,48,20.7c47.5,13.2,57.5,22.5,100.5,35.1C1220.4,677.1,1256.3,683.2,1288.4,687.4z
			"/>
	</g>
</g>
</svg>
