<?xml version="1.0" standalone="no"?>
<!DOCTYPE svg PUBLIC "-//W3C//DTD SVG 20010904//EN"
 "http://www.w3.org/TR/2001/REC-SVG-20010904/DTD/svg10.dtd">
<svg version="1.0" xmlns="http://www.w3.org/2000/svg"
 width="2707.000000pt" height="1543.000000pt" viewBox="0 0 2707.000000 1543.000000"
 preserveAspectRatio="xMidYMid meet">

<g transform="translate(0.000000,1543.000000) scale(0.100000,-0.100000)"
fill="#000000" stroke="none">
<path d="M0 7715 l0 -7715 13535 0 13535 0 0 7715 0 7715 -13535 0 -13535 0 0
-7715z m20330 45 c0 -16 -7 -20 -30 -20 -23 0 -30 4 -30 20 0 16 7 20 30 20
23 0 30 -4 30 -20z m80 0 c0 -15 -7 -20 -25 -20 -18 0 -25 5 -25 20 0 15 7 20
25 20 18 0 25 -5 25 -20z m-14489 -69 c16 -16 29 -37 29 -45 0 -23 -46 -20
-70 4 -24 24 -63 26 -80 5 -17 -21 -6 -30 62 -49 91 -26 123 -86 75 -142 -28
-32 -108 -44 -157 -24 -38 16 -69 68 -48 81 22 15 40 10 64 -16 26 -28 60 -32
89 -11 29 21 12 41 -53 59 -98 27 -128 83 -73 138 25 25 37 29 81 29 44 0 56
-4 81 -29z m199 -63 l55 -93 3 93 3 92 29 0 30 0 0 -145 0 -145 -34 0 c-32 0
-37 5 -87 91 l-54 90 -3 -90 -3 -91 -29 0 -30 0 0 145 0 145 33 0 c31 0 36 -6
87 -92z m390 67 c0 -25 -1 -25 -80 -25 l-80 0 0 -30 0 -30 75 0 c73 0 75 -1
75 -25 0 -24 -2 -25 -75 -25 l-75 0 0 -40 0 -40 80 0 c79 0 80 0 80 -25 l0
-25 -110 0 -110 0 0 145 0 145 110 0 110 0 0 -25z m213 8 c2 -10 25 -75 50
-145 l46 -128 -34 0 c-29 0 -35 4 -45 35 -11 34 -13 35 -66 35 -53 0 -55 -1
-70 -35 -12 -29 -20 -35 -44 -35 l-29 0 36 98 c19 53 43 118 51 145 16 46 17
47 58 47 31 0 43 -4 47 -17z m187 -45 l0 -61 56 61 c51 57 59 62 97 62 l41 0
-52 -53 c-29 -29 -52 -56 -52 -60 0 -4 25 -45 55 -92 l55 -85 -40 0 c-38 0
-41 2 -77 65 l-37 65 -23 -22 c-17 -16 -23 -33 -23 -65 0 -41 -1 -43 -30 -43
l-30 0 0 145 0 145 30 0 30 0 0 -62z m440 37 c0 -24 -2 -25 -75 -25 l-75 0 0
-30 0 -30 70 0 c68 0 70 -1 70 -25 0 -24 -2 -25 -70 -25 l-70 0 0 -40 0 -40
80 0 c79 0 80 0 80 -25 l0 -25 -110 0 -110 0 0 145 0 145 105 0 105 0 0 -25z
m265 0 c16 -15 25 -36 25 -55 0 -31 -37 -80 -61 -80 -6 0 3 -16 20 -35 17 -19
38 -49 46 -65 l16 -30 -35 0 c-31 0 -39 6 -67 48 -37 55 -56 72 -81 72 -15 0
-18 -9 -18 -60 l0 -60 -30 0 -30 0 0 145 0 145 95 0 c88 0 98 -2 120 -25z
m244 12 c14 -6 31 -27 38 -44 13 -33 13 -33 -15 -33 -15 0 -35 9 -45 20 -24
29 -87 25 -87 -6 0 -17 25 -30 73 -39 58 -11 87 -39 87 -86 0 -67 -47 -96
-138 -86 -72 8 -123 79 -67 93 20 5 30 0 46 -20 24 -31 68 -35 92 -8 23 25 10
37 -56 56 -68 20 -97 45 -97 84 0 50 40 81 105 82 22 0 51 -6 64 -13z m11891
-49 l1 -63 59 63 c55 57 63 62 102 62 l43 0 -57 -56 -56 -57 54 -83 c30 -46
54 -86 54 -89 0 -3 -17 -5 -38 -5 -31 0 -41 5 -50 24 -6 14 -23 44 -38 67
l-27 43 -23 -28 c-17 -18 -24 -40 -24 -67 0 -37 -2 -39 -30 -39 l-30 0 0 145
0 145 30 0 30 0 0 -62z m290 -58 l0 -120 75 0 c73 0 75 -1 75 -25 l0 -25 -105
0 -105 0 0 145 0 145 30 0 30 0 0 -120z m362 73 c8 -27 32 -92 51 -145 l36
-98 -34 0 c-29 0 -35 4 -45 35 -11 35 -12 35 -69 35 -57 0 -58 -1 -67 -32 -8
-28 -15 -34 -43 -36 -25 -3 -32 0 -29 10 3 7 27 73 54 146 l49 132 40 0 c40 0
42 -1 57 -47z m293 35 c59 -27 84 -142 46 -216 -25 -49 -55 -62 -146 -62 l-75
0 0 145 0 145 75 0 c41 0 86 -5 100 -12z m325 -13 c0 -24 -2 -25 -75 -25 l-75
0 0 -30 0 -30 70 0 c68 0 70 -1 70 -25 0 -24 -2 -25 -70 -25 l-70 0 0 -40 0
-40 80 0 c79 0 80 0 80 -25 l0 -25 -110 0 -110 0 0 145 0 145 105 0 105 0 0
-25z m265 0 c16 -15 25 -36 25 -55 0 -31 -37 -80 -61 -80 -6 0 3 -16 20 -35
17 -19 38 -49 46 -65 l16 -30 -35 0 c-30 0 -39 6 -65 44 -41 60 -59 76 -82 76
-17 0 -19 -7 -19 -60 l0 -60 -30 0 -30 0 0 145 0 145 95 0 c88 0 98 -2 120
-25z m-16977 -7352 c5 -17 -26 -29 -40 -15 -6 6 -7 15 -3 22 9 14 37 9 43 -7z
m-3971 -15 c50 -47 17 -148 -49 -148 -41 0 -63 14 -78 49 -14 35 1 95 28 111
29 16 74 11 99 -12z m407 6 c30 -30 16 -46 -15 -18 -12 11 -27 14 -44 10 -37
-9 -31 -34 13 -46 45 -12 57 -20 65 -43 17 -46 -74 -76 -113 -37 -24 24 -26
40 -5 40 8 0 15 -6 15 -14 0 -18 33 -29 61 -21 33 11 18 38 -31 55 -34 12 -46
21 -48 40 -7 44 67 69 102 34z m410 -27 c8 -6 8 -10 -1 -14 -17 -6 -17 -90 0
-96 6 -2 9 -8 5 -12 -4 -4 -14 -5 -23 -2 -11 5 -15 21 -15 57 0 46 -2 50 -24
50 -28 0 -36 -16 -36 -71 0 -21 -4 -39 -10 -39 -6 0 -10 28 -10 65 0 47 4 65
13 64 41 -5 65 2 72 24 7 21 7 21 12 2 3 -11 10 -24 17 -28z m46 33 c0 -5 -4
-10 -10 -10 -5 0 -10 5 -10 10 0 6 5 10 10 10 6 0 10 -4 10 -10z m75 -6 c-17
-13 -18 -16 -5 -25 11 -8 12 -12 3 -16 -8 -3 -13 -25 -13 -59 0 -41 -4 -54
-15 -54 -11 0 -15 13 -15 53 0 29 -5 58 -12 65 -8 8 -8 12 -1 12 6 0 13 9 16
20 4 14 13 20 34 20 27 -1 27 -1 8 -16z m465 -26 l0 -42 43 42 c52 51 86 58
38 8 l-34 -35 37 -50 c30 -42 33 -51 18 -51 -10 0 -25 12 -35 28 -35 58 -34
57 -51 43 -9 -8 -16 -26 -16 -42 0 -16 -4 -29 -10 -29 -6 0 -10 35 -10 85 0
50 4 85 10 85 6 0 10 -19 10 -42z m410 23 c0 -11 6 -22 13 -25 10 -5 10 -7 0
-12 -15 -7 -18 -94 -3 -94 6 0 10 -4 10 -10 0 -5 -9 -10 -20 -10 -19 0 -21 5
-34 99 -5 30 9 71 24 71 5 0 10 -9 10 -19z m180 -28 l1 -48 20 28 c11 15 28
27 37 27 13 0 12 -4 -6 -23 l-21 -22 25 -43 c20 -33 22 -42 10 -42 -9 0 -23
14 -31 30 -18 34 -35 31 -35 -6 0 -13 -4 -24 -10 -24 -6 0 -10 35 -10 85 0 50
4 85 10 85 6 0 10 -21 10 -47z m134 4 c8 -6 8 -10 -1 -14 -15 -6 -18 -93 -3
-93 6 0 10 -4 10 -10 0 -5 -9 -10 -20 -10 -18 0 -20 7 -20 54 0 34 -5 56 -12
59 -9 4 -10 8 -2 14 6 4 14 17 19 28 l8 20 5 -20 c2 -11 9 -24 16 -28z m341
18 c52 -51 16 -145 -55 -145 -44 0 -80 39 -80 85 0 46 36 85 80 85 19 0 40 -9
55 -25z m725 -17 l1 -43 38 43 c21 23 47 42 57 42 14 0 11 -7 -16 -35 -32 -33
-32 -35 -16 -60 9 -14 23 -36 32 -50 14 -21 14 -25 1 -25 -8 0 -26 18 -41 41
-22 33 -30 38 -42 28 -8 -6 -14 -24 -14 -40 0 -16 -4 -29 -10 -29 -6 0 -10 35
-10 85 0 50 4 85 10 85 6 0 10 -19 10 -42z m510 32 c0 -5 -4 -10 -10 -10 -5 0
-10 5 -10 10 0 6 5 10 10 10 6 0 10 -4 10 -10z m50 -75 c0 -50 -4 -85 -10 -85
-6 0 -10 35 -10 85 0 50 4 85 10 85 6 0 10 -35 10 -85z m50 45 c0 -44 13 -51
32 -20 7 11 19 20 27 20 10 0 10 -6 -4 -26 -16 -26 -16 -28 5 -65 26 -48 4
-56 -24 -9 -19 34 -36 31 -36 -6 0 -13 -4 -24 -10 -24 -6 0 -10 35 -10 85 0
50 4 85 10 85 6 0 10 -18 10 -40z m-440 20 c0 -5 -4 -10 -10 -10 -5 0 -10 5
-10 10 0 6 5 10 10 10 6 0 10 -4 10 -10z m40 0 c0 -5 -4 -10 -10 -10 -5 0 -10
5 -10 10 0 6 5 10 10 10 6 0 10 -4 10 -10z m-3202 -33 c14 -10 17 -117 2 -117
-5 0 -10 19 -10 43 0 50 -12 72 -34 64 -12 -5 -16 -20 -16 -57 0 -27 -4 -50
-10 -50 -5 0 -10 19 -10 43 0 50 -12 72 -34 64 -12 -5 -16 -20 -16 -57 0 -38
-4 -50 -15 -50 -12 0 -15 14 -15 64 l0 64 73 -2 c39 0 78 -5 85 -9z m337 -3
c20 -20 19 -78 -2 -99 -9 -10 -26 -15 -40 -12 -20 4 -23 0 -23 -24 0 -16 -4
-29 -10 -29 -6 0 -10 36 -10 88 l0 89 35 1 c19 1 41 -5 50 -14z m127 -1 c22
-20 23 -70 1 -95 -18 -20 -63 -24 -81 -6 -19 19 -15 95 6 107 25 15 53 13 74
-6z m198 -48 c0 -37 -4 -65 -10 -65 -6 0 -10 28 -10 65 0 37 4 65 10 65 6 0
10 -28 10 -65z m754 52 c12 -9 18 -26 18 -52 0 -26 -6 -43 -18 -52 -41 -30
-94 -2 -94 50 0 56 51 85 94 54z m134 -54 c2 -39 -1 -63 -8 -63 -6 0 -10 24
-10 56 0 52 -1 55 -22 52 -20 -3 -23 -10 -26 -55 -2 -38 -7 -53 -18 -53 -11 0
-14 15 -14 64 l0 65 48 -2 47 -2 3 -62z m178 59 c7 -4 14 -33 15 -64 l4 -56
-50 1 c-48 2 -50 3 -50 32 0 26 5 30 38 38 20 5 37 13 37 18 0 17 -32 23 -52
10 -25 -15 -35 -7 -18 14 13 16 57 20 76 7z m314 -11 c5 -11 10 -39 10 -64 l0
-44 -46 1 c-77 2 -87 55 -13 71 35 8 39 35 5 35 -13 0 -26 -5 -28 -11 -2 -7
-10 -10 -17 -8 -11 4 -10 9 3 22 24 23 73 22 86 -2z m350 4 c16 -19 5 -34 -12
-17 -14 14 -48 16 -48 2 0 -5 16 -16 35 -24 26 -11 35 -21 35 -39 0 -40 -71
-53 -90 -17 -9 16 -8 20 5 20 8 0 15 -4 15 -10 0 -5 11 -10 25 -10 37 0 31 27
-10 40 -26 9 -35 17 -35 34 0 13 3 26 7 29 12 13 60 7 73 -8z m104 9 c17 -7
22 -34 6 -34 -5 0 -10 5 -10 10 0 6 -12 10 -26 10 -35 0 -26 -22 14 -34 35
-10 50 -39 32 -61 -16 -20 -64 -19 -80 0 -16 19 -5 34 12 17 16 -16 48 -15 48
2 0 8 -14 19 -30 25 -35 12 -47 35 -30 56 13 16 38 19 64 9z m708 -11 c38 -34
12 -113 -38 -113 -32 0 -54 26 -54 65 0 58 51 85 92 48z m132 -5 c34 -48 5
-113 -45 -106 -26 4 -29 2 -29 -24 0 -15 -4 -28 -10 -28 -6 0 -10 36 -10 88
l0 89 39 1 c31 1 44 -3 55 -20z m56 -15 c18 -57 26 -59 40 -9 7 26 19 46 26
46 11 0 8 -15 -9 -62 -13 -34 -28 -63 -34 -65 -10 -4 -53 93 -53 117 0 24 20
6 30 -27z m110 -28 c0 -37 -4 -65 -10 -65 -6 0 -10 28 -10 65 0 37 4 65 10 65
6 0 10 -28 10 -65z m285 53 c2 -7 5 -36 8 -65 l4 -51 -51 1 c-49 2 -51 3 -51
32 0 26 5 30 38 38 21 5 36 14 34 21 -5 14 -47 21 -47 7 0 -6 -7 -11 -15 -11
-18 0 -19 12 -3 28 16 16 78 15 83 0z m100 2 c-3 -6 -12 -10 -19 -10 -16 0
-26 -31 -26 -77 0 -18 -4 -33 -10 -33 -6 0 -10 28 -10 63 l0 64 35 1 c21 1 33
-3 30 -8z"/>
<path d="M6657 7615 c-22 -65 -22 -65 19 -65 39 0 38 -5 9 80 l-12 34 -16 -49z"/>
<path d="M7460 7634 l0 -35 51 3 c95 6 93 68 -2 68 l-49 0 0 -36z"/>
<path d="M20334 7634 c-4 -10 -13 -34 -20 -51 l-13 -33 39 0 39 0 -16 48 c-20
58 -21 60 -29 36z"/>
<path d="M20580 7575 l0 -95 33 0 c18 0 43 7 55 16 19 13 22 24 22 79 0 55 -3
66 -22 79 -12 9 -37 16 -55 16 l-33 0 0 -95z"/>
<path d="M21130 7635 l0 -35 50 0 c40 0 51 4 60 21 18 32 -4 49 -61 49 l-49 0
0 -35z"/>
<path d="M246 314 c-21 -20 -21 -78 0 -98 35 -35 94 -4 94 49 0 53 -59 84 -94
49z"/>
<path d="M2712 318 c-16 -16 -16 -90 0 -106 17 -17 63 -15 78 3 6 8 12 30 12
50 0 20 -6 42 -12 50 -15 18 -61 20 -78 3z"/>
<path d="M814 276 c-12 -31 0 -71 23 -74 25 -4 38 26 29 64 -7 27 -43 34 -52
10z"/>
<path d="M934 276 c-3 -8 -4 -27 -2 -43 2 -20 9 -29 25 -31 30 -4 50 36 34 67
-13 24 -49 28 -57 7z"/>
<path d="M1889 269 c-15 -28 3 -69 30 -69 23 0 35 31 27 66 -8 30 -41 32 -57
3z"/>
<path d="M2218 233 c-27 -7 -22 -33 6 -33 20 0 36 16 36 36 0 5 -18 4 -42 -3z"/>
<path d="M2514 226 c-18 -14 -18 -15 -1 -21 23 -9 47 1 47 20 0 19 -20 19 -46
1z"/>
<path d="M3674 266 c-8 -34 4 -66 25 -66 23 0 41 19 41 45 0 46 -55 63 -66 21z"/>
<path d="M3812 278 c-26 -26 -8 -83 24 -76 15 2 19 12 19 43 0 42 -19 57 -43
33z"/>
<path d="M4267 233 c-26 -7 -15 -28 14 -28 15 0 25 7 27 18 3 17 -6 19 -41 10z"/>
</g>
</svg>
