<?xml version="1.0" standalone="no"?>
<!DOCTYPE svg PUBLIC "-//W3C//DTD SVG 20010904//EN"
 "http://www.w3.org/TR/2001/REC-SVG-20010904/DTD/svg10.dtd">
<svg version="1.0" xmlns="http://www.w3.org/2000/svg"
 width="994.000000pt" height="1276.000000pt" viewBox="0 0 994.000000 1276.000000"
 preserveAspectRatio="xMidYMid meet">

<g transform="translate(0.000000,1276.000000) scale(0.100000,-0.100000)"
fill="#000000" stroke="none">
<path d="M6730 11778 l0 -583 -1298 0 c-1174 0 -1314 -2 -1477 -18 -99 -10
-187 -20 -195 -22 -8 -3 -37 -7 -65 -10 -222 -27 -619 -119 -870 -204 -181
-61 -358 -135 -348 -145 4 -4 0 -4 -8 -1 -22 8 -322 -142 -313 -157 4 -7 3 -8
-4 -4 -26 16 -302 -160 -505 -321 -374 -298 -668 -657 -871 -1063 -55 -111
-115 -247 -120 -275 -1 -5 -7 -19 -13 -30 -37 -67 -130 -402 -162 -585 -54
-303 -76 -715 -52 -976 46 -503 180 -920 426 -1326 57 -93 165 -249 194 -280
9 -9 27 -31 41 -49 75 -100 230 -257 395 -400 75 -65 184 -141 195 -134 6 4 9
1 8 -6 -2 -7 52 -47 120 -91 l124 -78 1681 0 c1817 0 1753 -1 1836 53 73 49
106 156 76 251 -35 110 -118 169 -515 366 -132 66 -243 120 -246 120 -16 0
-601 301 -688 354 -129 79 -254 160 -314 203 -40 30 -77 51 -83 48 -5 -4 -8
-3 -7 2 2 5 -51 62 -118 128 -124 123 -184 199 -247 316 -168 308 -198 805
-70 1148 19 53 44 114 55 136 22 43 122 200 141 221 104 112 208 205 286 258
86 57 187 119 201 122 3 0 12 4 20 7 144 61 341 118 475 137 44 6 91 14 105
17 14 3 517 9 1117 12 l1093 6 2 -577 3 -578 75 61 c41 34 89 73 105 88 17 14
50 42 75 61 70 53 135 114 132 123 -1 5 1 6 6 3 13 -8 553 444 546 456 -4 6
-2 8 4 4 11 -6 51 25 362 283 297 246 391 324 515 426 66 54 122 101 125 105
3 3 43 36 90 74 47 38 92 75 100 83 32 28 385 320 440 363 116 91 190 154 190
161 0 4 -33 33 -72 65 -64 51 -154 125 -238 196 -53 45 -356 296 -420 348 -37
30 -115 95 -174 143 -62 52 -111 85 -118 81 -7 -4 -8 -3 -4 4 4 7 -54 61 -146
138 -84 69 -173 143 -198 163 -25 21 -78 66 -119 99 -40 34 -78 59 -84 55 -5
-3 -7 -2 -4 4 6 10 -11 26 -197 177 -93 76 -236 195 -346 290 -14 11 -45 37
-70 56 -25 19 -128 104 -230 189 -102 84 -194 160 -205 170 -11 9 -48 40 -83
69 l-62 54 0 -584z m275 332 c3 -5 1 -10 -4 -10 -6 0 -11 5 -11 10 0 6 2 10 4
10 3 0 8 -4 11 -10z m-3532 -1027 c-7 -2 -19 -2 -25 0 -7 3 -2 5 12 5 14 0 19
-2 13 -5z m5057 -1806 c0 -2 -10 -12 -22 -23 l-23 -19 19 23 c18 21 26 27 26
19z m-270 -221 c0 -2 -8 -10 -17 -17 -16 -13 -17 -12 -4 4 13 16 21 21 21 13z
m-7793 -958 c-3 -7 -5 -2 -5 12 0 14 2 19 5 13 2 -7 2 -19 0 -25z m864 -2605
c13 -16 12 -17 -3 -4 -10 7 -18 15 -18 17 0 8 8 3 21 -13z m4140 -100 c13 -16
12 -17 -3 -4 -10 7 -18 15 -18 17 0 8 8 3 21 -13z"/>
</g>
</svg>
