<?xml version="1.0" encoding="utf-8"?>
<!-- Generator: Adobe Illustrator 25.0.1, SVG Export Plug-In . SVG Version: 6.00 Build 0)  -->
<svg version="1.1" id="Lager_1" xmlns="http://www.w3.org/2000/svg" xmlns:xlink="http://www.w3.org/1999/xlink" x="0px" y="0px"
	 viewBox="0 0 500 250" style="enable-background:new 0 0 500 250;" xml:space="preserve">
<style type="text/css">
	.st0{fill:#70C1BF;}
	.st1{fill:#9E9E9E;}
</style>
<g>
	<g>
		<rect x="42.2" y="86.2" class="st0" width="1.5" height="28.9"/>
		<rect x="44.2" y="86.2" class="st0" width="1.5" height="28.9"/>
		<rect x="46.1" y="86.2" class="st0" width="1.5" height="28.9"/>
		<rect x="48.2" y="86.2" class="st0" width="1.5" height="28.9"/>
		<rect x="50.1" y="86.2" class="st0" width="1.5" height="28.9"/>
		<rect x="52.4" y="86.2" class="st0" width="1.5" height="28.9"/>
		<rect x="54.5" y="86.2" class="st0" width="1.5" height="28.9"/>
		<rect x="56.5" y="104.4" class="st0" width="1.5" height="10.8"/>
		<rect x="56.5" y="86.8" class="st0" width="1.5" height="10.8"/>
		<path class="st1" d="M42.2,80.9v5.9c0,0,14.6-1.1,14.7,4.4s-9.6,5.7-9.6,5.7l10.4,18.2h7.1l-7.9-12.9c0,0,8.1-3.2,7.3-11.1
			C63.3,83.3,58.1,79.7,42.2,80.9z"/>
	</g>
	<g>
		<rect x="23.3" y="86.9" class="st0" width="1.5" height="28.3"/>
		<rect x="21.2" y="86.9" class="st0" width="1.5" height="28.3"/>
		<rect x="19.2" y="86.9" class="st0" width="1.5" height="28.3"/>
		<rect x="17" y="86.9" class="st0" width="1.5" height="28.3"/>
		<rect x="14.9" y="86.9" class="st0" width="1.5" height="28.3"/>
		<rect x="12.8" y="86.9" class="st0" width="1.5" height="28.3"/>
		<rect x="25.4" y="86.9" class="st0" width="1.5" height="28.3"/>
		<polygon class="st1" points="12.8,80.9 12.8,101.5 33.2,101.5 33.2,95.7 19.5,95.7 19.5,86.9 38.2,86.9 38.2,80.9 		"/>
	</g>
	<g>
		<polygon class="st1" points="70.9,83.4 96.9,115.2 98.9,113.2 72.7,81.7 		"/>
		<path class="st1" d="M77.9,82.4l4.1,4.9c0,0,17-1,12.8,15.4l4.6,5.2C99.4,107.9,109.7,78,77.9,82.4z"/>
		<path class="st0" d="M70.9,88.5l20.5,25.4C91.4,113.9,60.9,118.4,70.9,88.5z"/>
	</g>
	<g>
		<rect x="135.4" y="80.5" class="st0" width="1.5" height="34.7"/>
		<rect x="133.5" y="80.5" class="st0" width="1.5" height="34.7"/>
		<rect x="131.5" y="80.5" class="st0" width="1.5" height="34.7"/>
		<rect x="137.8" y="80.5" class="st0" width="1.5" height="34.7"/>
		<rect x="138.6" y="80.5" class="st1" width="10.5" height="6.6"/>
	</g>
	<g>
		<rect x="152.8" y="80.7" class="st1" width="19.1" height="6.6"/>
		<rect x="152.8" y="94.6" class="st1" width="19.1" height="6.6"/>
		<g>
			<rect x="152.8" y="108.5" class="st1" width="19.1" height="6.6"/>
		</g>
		<rect x="152.8" y="102" class="st0" width="19.1" height="1.5"/>
		<rect x="152.8" y="104.1" class="st0" width="19.1" height="1.5"/>
		<rect x="152.8" y="106.3" class="st0" width="19.1" height="1.5"/>
	</g>
	<g>
		<rect x="191.1" y="80.7" class="st0" width="1.5" height="25.2"/>
		<rect x="189.3" y="80.7" class="st0" width="1.5" height="25.2"/>
		<rect x="187.4" y="80.7" class="st0" width="1.5" height="25.2"/>
		<rect x="185.4" y="80.7" class="st0" width="1.5" height="19"/>
		<rect x="183.4" y="80.7" class="st0" width="1.5" height="19"/>
		<rect x="181.4" y="80.7" class="st0" width="1.5" height="19"/>
		<rect x="179.6" y="80.7" class="st0" width="1.5" height="11.3"/>
		<rect x="177.6" y="80.7" class="st0" width="1.5" height="11.3"/>
		<rect x="175.6" y="80.7" class="st0" width="1.5" height="11.3"/>
		<polygon class="st1" points="175.6,92.5 192.2,115.2 198,115.2 198,80.7 191.5,80.7 191.5,104.2 175.6,83.2 		"/>
	</g>
	<g>
		<rect x="202" y="85.9" class="st0" width="1.5" height="24"/>
		<rect x="203.9" y="85.9" class="st0" width="1.5" height="24"/>
		<rect x="206" y="85.9" class="st0" width="1.5" height="24"/>
		<rect x="208.1" y="85.9" class="st0" width="1.5" height="24"/>
		<rect x="210" y="85.9" class="st0" width="1.5" height="24"/>
		<rect x="212.2" y="85.9" class="st0" width="1.5" height="24"/>
		<rect x="214.2" y="85.9" class="st0" width="1.5" height="24"/>
		<rect x="216.1" y="85.9" class="st0" width="1.5" height="24"/>
		<rect x="218.3" y="85.9" class="st0" width="1.5" height="24"/>
		<path class="st1" d="M202,80.9v6.6c0,0,18.7-0.5,17.4,10.6S202,109.4,202,109.4v6c0,0,23.7,3.3,24.1-17.2S202,80.9,202,80.9z"/>
	</g>
	<g>
		<rect x="268.4" y="80.6" class="st1" width="19.1" height="6.6"/>
		<rect x="268.4" y="94.5" class="st1" width="19.1" height="6.6"/>
		<g>
			<rect x="268.4" y="108.4" class="st1" width="19.1" height="6.6"/>
		</g>
		<rect x="268.3" y="101.8" class="st0" width="19.1" height="1.5"/>
		<rect x="268.4" y="104" class="st0" width="19.1" height="1.5"/>
		<rect x="268.4" y="106.2" class="st0" width="19.1" height="1.5"/>
	</g>
	<g>
		<rect x="321" y="80.6" class="st1" width="19.1" height="6.6"/>
		<rect x="321" y="94.5" class="st1" width="19.1" height="6.6"/>
		<g>
			<rect x="321" y="108.4" class="st1" width="19.1" height="6.6"/>
		</g>
		<rect x="320.9" y="101.8" class="st0" width="19.1" height="1.5"/>
		<rect x="321" y="104" class="st0" width="19.1" height="1.5"/>
		<rect x="321" y="106.2" class="st0" width="19.1" height="1.5"/>
	</g>
	<g>
		<rect x="432.5" y="80.6" class="st1" width="19.1" height="6.6"/>
		<rect x="432.5" y="94.5" class="st1" width="19.1" height="6.6"/>
		<g>
			<rect x="432.5" y="108.4" class="st1" width="19.1" height="6.6"/>
		</g>
		<rect x="432.4" y="101.8" class="st0" width="19.1" height="1.5"/>
		<rect x="432.5" y="104" class="st0" width="19.1" height="1.5"/>
		<rect x="432.5" y="106.2" class="st0" width="19.1" height="1.5"/>
	</g>
	<g>
		<rect x="456.8" y="86.7" class="st0" width="1.5" height="28.9"/>
		<rect x="458.8" y="86.7" class="st0" width="1.5" height="28.9"/>
		<rect x="460.8" y="86.7" class="st0" width="1.5" height="28.9"/>
		<rect x="462.8" y="86.7" class="st0" width="1.5" height="28.9"/>
		<rect x="464.8" y="86.7" class="st0" width="1.5" height="28.9"/>
		<rect x="467" y="86.7" class="st0" width="1.5" height="28.9"/>
		<rect x="469.2" y="86.7" class="st0" width="1.5" height="28.9"/>
		<rect x="471.3" y="104.8" class="st0" width="1.5" height="10.8"/>
		<rect x="471.3" y="87.2" class="st0" width="1.5" height="10.8"/>
		<path class="st1" d="M456.8,81.4v5.9c0,0,14.6-1.1,14.7,4.4s-9.6,5.7-9.6,5.7l10.4,18.2h7.1l-7.9-12.9c0,0,8.1-3.2,7.3-11.1
			S472.7,80.2,456.8,81.4z"/>
	</g>
	<g>
		<polygon class="st1" points="370.6,83.4 396.6,115.2 398.5,113.2 372.3,81.7 		"/>
		<path class="st1" d="M377.5,82.4l4.1,4.9c0,0,17-1,12.8,15.4l4.6,5.2C399,107.9,409.3,78,377.5,82.4z"/>
		<path class="st0" d="M370.6,88.5l20.5,25.4C391.1,113.9,360.5,118.4,370.6,88.5z"/>
	</g>
	<g>
		<rect x="293.5" y="97.8" class="st0" width="10.5" height="1.5"/>
		<rect x="293.4" y="99.7" class="st0" width="10.5" height="1.5"/>
		<rect x="293.5" y="101.5" class="st0" width="10.5" height="1.5"/>
		<polygon class="st1" points="290.8,97.9 298,115.2 303,115.2 317.6,80.5 310.1,80.5 300,102.2 297.2,97.9 		"/>
	</g>
	<g>
		<rect x="343.4" y="80.6" class="st0" width="1.5" height="28.9"/>
		<rect x="345.4" y="80.6" class="st0" width="1.5" height="28.9"/>
		<rect x="347.7" y="80.6" class="st0" width="1.5" height="28.9"/>
		<rect x="350.1" y="80.6" class="st0" width="1.5" height="28.9"/>
		<rect x="343.4" y="108.9" class="st1" width="23.7" height="6.3"/>
	</g>
	<g>
		<rect x="404.4" y="80.7" class="st0" width="1.5" height="34.4"/>
		<rect x="406.5" y="80.7" class="st0" width="1.5" height="34.4"/>
		<rect x="408.7" y="80.7" class="st0" width="1.5" height="34.4"/>
		<rect x="410.8" y="80.7" class="st0" width="1.5" height="18.4"/>
		<rect x="413" y="80.7" class="st0" width="1.5" height="18.4"/>
		<rect x="415.2" y="80.7" class="st0" width="1.5" height="18.4"/>
		<rect x="417.4" y="84.3" class="st0" width="1.5" height="14.8"/>
		<rect x="419.5" y="84.3" class="st0" width="1.5" height="14.8"/>
		<rect x="421.7" y="84.3" class="st0" width="1.5" height="14.8"/>
		<rect x="423.8" y="84.3" class="st0" width="1.5" height="14.8"/>
		<path class="st1" d="M410.8,97.8v6.2c0,0,16.8,2.4,18-10.7s-11.9-12.5-11.9-12.5v5.9c0,0,7.4-0.1,7.4,5.8
			C424.2,99.5,410.8,97.8,410.8,97.8z"/>
	</g>
	<circle class="st0" cx="484.1" cy="112.5" r="3.1"/>
	<g>
		<rect x="239.2" y="85.4" class="st0" width="1.5" height="24"/>
		<rect x="241.1" y="85.4" class="st0" width="1.5" height="24"/>
		<rect x="243.2" y="85.4" class="st0" width="1.5" height="24"/>
		<rect x="245.4" y="85.4" class="st0" width="1.5" height="24"/>
		<rect x="247.2" y="85.4" class="st0" width="1.5" height="24"/>
		<rect x="249.4" y="85.4" class="st0" width="1.5" height="24"/>
		<rect x="251.4" y="85.4" class="st0" width="1.5" height="24"/>
		<rect x="253.3" y="85.4" class="st0" width="1.5" height="24"/>
		<rect x="255.5" y="85.4" class="st0" width="1.5" height="24"/>
		<path class="st1" d="M239.2,80.4V87c0,0,18.7-0.5,17.4,10.6c-1.3,11.1-17.4,11.3-17.4,11.3v6c0,0,23.7,3.3,24.1-17.2
			C263.8,77.1,239.2,80.4,239.2,80.4z"/>
	</g>
	<g>
		<rect x="119.9" y="81.2" class="st0" width="1.5" height="25.2"/>
		<rect x="118.1" y="81.2" class="st0" width="1.5" height="25.2"/>
		<rect x="116.2" y="81.2" class="st0" width="1.5" height="25.2"/>
		<rect x="114.2" y="81.2" class="st0" width="1.5" height="19"/>
		<rect x="112.2" y="81.2" class="st0" width="1.5" height="19"/>
		<rect x="110.2" y="81.2" class="st0" width="1.5" height="19"/>
		<rect x="108.4" y="81.2" class="st0" width="1.5" height="11.3"/>
		<rect x="106.4" y="81.2" class="st0" width="1.5" height="11.3"/>
		<rect x="104.4" y="81.2" class="st0" width="1.5" height="11.3"/>
		<polygon class="st1" points="104.4,93 121,115.7 126.8,115.7 126.8,81.2 120.3,81.2 120.3,104.7 104.4,83.7 		"/>
	</g>
</g>
<g>
	<rect x="118.1" y="135.1" class="st0" width="1.5" height="28.9"/>
	<rect x="120.1" y="135.1" class="st0" width="1.5" height="28.9"/>
	<rect x="122.4" y="135.1" class="st0" width="1.5" height="28.9"/>
	<rect x="124.8" y="135.1" class="st0" width="1.5" height="28.9"/>
	<rect x="118.1" y="163.7" class="st1" width="23.7" height="6.3"/>
</g>
<g>
	<rect x="180.5" y="135.3" class="st1" width="19.1" height="6.6"/>
	<rect x="180.5" y="149.3" class="st1" width="19.1" height="6.6"/>
	<g>
		<rect x="180.5" y="163.2" class="st1" width="19.1" height="6.6"/>
	</g>
	<rect x="180.5" y="156.6" class="st0" width="19.1" height="1.5"/>
	<rect x="180.5" y="158.8" class="st0" width="19.1" height="1.5"/>
	<rect x="180.5" y="161" class="st0" width="19.1" height="1.5"/>
</g>
<g>
	<rect x="273.3" y="135.3" class="st1" width="19.1" height="6.6"/>
	<rect x="273.3" y="149.3" class="st1" width="19.1" height="6.6"/>
	<g>
		<rect x="273.3" y="163.2" class="st1" width="19.1" height="6.6"/>
	</g>
	<rect x="273.3" y="156.6" class="st0" width="19.1" height="1.5"/>
	<rect x="273.3" y="158.8" class="st0" width="19.1" height="1.5"/>
	<rect x="273.3" y="161" class="st0" width="19.1" height="1.5"/>
</g>
<g>
	<rect x="245.8" y="140.3" class="st0" width="1.5" height="24"/>
	<rect x="247.7" y="140.3" class="st0" width="1.5" height="24"/>
	<rect x="249.8" y="140.3" class="st0" width="1.5" height="24"/>
	<rect x="252" y="140.3" class="st0" width="1.5" height="24"/>
	<rect x="253.9" y="140.3" class="st0" width="1.5" height="24"/>
	<rect x="256" y="140.3" class="st0" width="1.5" height="24"/>
	<rect x="258.1" y="140.3" class="st0" width="1.5" height="24"/>
	<rect x="260" y="140.3" class="st0" width="1.5" height="24"/>
	<rect x="262.1" y="140.3" class="st0" width="1.5" height="24"/>
	<path class="st1" d="M245.8,135.1v6.6c0,0,18.7-0.5,17.4,10.6s-17.4,11.3-17.4,11.3v6c0,0,23.7,3.3,24.1-17.2
		C270.4,131.8,245.8,135.1,245.8,135.1z"/>
</g>
<g>
	<rect x="145.5" y="157.7" class="st1" width="7" height="1.5"/>
	<rect x="145.5" y="159.7" class="st0" width="7" height="1.5"/>
	<rect x="145.5" y="161.8" class="st0" width="7" height="1.5"/>
	<rect x="145.5" y="164" class="st0" width="7" height="1.5"/>
	<rect x="145.5" y="166.1" class="st0" width="7" height="1.5"/>
	<rect x="145.5" y="168.3" class="st0" width="7" height="1.5"/>
	<rect x="145.5" y="135.2" class="st1" width="7" height="23.4"/>
</g>
<g>
	<rect x="156.1" y="135.2" class="st0" width="1.5" height="34.6"/>
	<g>
		<rect x="158.5" y="135.2" class="st0" width="1.5" height="34.6"/>
		<rect x="160.7" y="157.5" class="st0" width="1.5" height="12.4"/>
		<rect x="162.6" y="135.2" class="st0" width="1.5" height="8.4"/>
		<rect x="164.7" y="135.2" class="st0" width="1.5" height="9"/>
		<rect x="166.7" y="135.2" class="st0" width="1.5" height="8.4"/>
		<rect x="162.6" y="159.4" class="st0" width="1.5" height="10.5"/>
		<rect x="164.7" y="159.4" class="st0" width="1.5" height="10.5"/>
		<rect x="166.7" y="159.4" class="st0" width="1.5" height="10.5"/>
		<rect x="160.7" y="135.2" class="st0" width="1.5" height="12.4"/>
		<polygon class="st1" points="175.7,135.2 161.2,152.1 177.2,169.8 169.2,169.8 156.1,155.2 156.1,149.1 168.8,135.2 		"/>
	</g>
</g>
<g>
	<rect x="325.8" y="158.2" class="st1" width="7" height="1.5"/>
	<rect x="325.9" y="160.4" class="st0" width="7" height="1.5"/>
	<rect x="325.9" y="162.6" class="st0" width="7" height="1.5"/>
	<rect x="325.8" y="164.4" class="st0" width="7" height="1.5"/>
	<rect x="325.8" y="166.6" class="st0" width="7" height="1.5"/>
	<rect x="325.8" y="168.8" class="st0" width="7" height="1.5"/>
	<rect x="325.8" y="135.7" class="st1" width="7" height="23.4"/>
</g>
<g>
	<rect x="209" y="137.9" class="st0" width="1.5" height="14.7"/>
	<rect x="211.1" y="137.9" class="st0" width="1.5" height="14.7"/>
	<rect x="213.2" y="137.9" class="st0" width="1.5" height="14.7"/>
	<rect x="215.4" y="137.9" class="st0" width="1.5" height="14.7"/>
	<rect x="214.7" y="153.8" class="st0" width="1.5" height="14.7"/>
	<rect x="216.8" y="153.8" class="st0" width="1.5" height="14.7"/>
	<rect x="218.9" y="153.8" class="st0" width="1.5" height="14.7"/>
	<rect x="221.1" y="153.8" class="st0" width="1.5" height="14.7"/>
	<path class="st1" d="M216.9,135.9v5.3c0,0-7.5,0.4-7.4,3.9s2.9,4.5,12.6,5.7c9.7,1.2,9.9,15.9,0,18.5s-17.3-1-19.2-6.8l4.9-2.2
		c0,0,3.5,8.1,15.1,2.9l-0.1-6.4c0,0-0.6-1.5-11.9-2.7C199.6,153,202.2,135.3,216.9,135.9z"/>
</g>
<g>
	<rect x="302" y="137.9" class="st0" width="1.5" height="14.7"/>
	<rect x="304.1" y="137.9" class="st0" width="1.5" height="14.7"/>
	<rect x="306.2" y="137.9" class="st0" width="1.5" height="14.7"/>
	<rect x="308.4" y="137.9" class="st0" width="1.5" height="14.7"/>
	<rect x="307.7" y="153.8" class="st0" width="1.5" height="14.7"/>
	<rect x="309.8" y="153.8" class="st0" width="1.5" height="14.7"/>
	<rect x="311.9" y="153.8" class="st0" width="1.5" height="14.7"/>
	<rect x="314.1" y="153.8" class="st0" width="1.5" height="14.7"/>
	<path class="st1" d="M309.9,135.9v5.3c0,0-7.5,0.4-7.4,3.9s2.9,4.5,12.6,5.7s9.9,15.9,0,18.5s-17.3-1-19.2-6.8l4.9-2.2
		c0,0,3.5,8.1,15.1,2.9v-6.4c0,0-0.6-1.5-11.9-2.7C292.6,153,295.2,135.3,309.9,135.9z"/>
</g>
<g>
	<rect x="351.4" y="140.1" class="st0" width="1.5" height="24.9"/>
	<rect x="349.1" y="140.1" class="st0" width="1.5" height="24.9"/>
	<rect x="346.8" y="140.1" class="st0" width="1.1" height="24.9"/>
	<rect x="344.2" y="140.1" class="st0" width="1.5" height="24.9"/>
	<path class="st1" d="M353.3,150.5h18.9c0,0,0.4,17.6-13.9,19.6s-22.4-9.7-20.8-19.6s11.3-15.3,15.4-14.8v6.3c0,0-6.3,0.3-8.2,6.8
		c-1.9,6.5,0.7,13.8,8.5,15.1c7.9,1.3,11.6-5.2,11.7-7.1h-11.6V150.5z"/>
</g>
<circle class="st0" cx="405.5" cy="166.6" r="3.1"/>
<g>
	<rect x="391.1" y="135.8" class="st0" width="1.5" height="25.2"/>
	<rect x="389.2" y="135.8" class="st0" width="1.5" height="25.2"/>
	<rect x="387.3" y="135.8" class="st0" width="1.5" height="25.2"/>
	<rect x="385.4" y="135.8" class="st0" width="1.5" height="19"/>
	<rect x="383.4" y="135.8" class="st0" width="1.5" height="19"/>
	<rect x="381.4" y="135.8" class="st0" width="1.5" height="19"/>
	<rect x="379.6" y="135.8" class="st0" width="1.5" height="11.3"/>
	<rect x="377.6" y="135.8" class="st0" width="1.5" height="11.3"/>
	<rect x="375.6" y="135.8" class="st0" width="1.5" height="11.3"/>
	<polygon class="st1" points="375.6,147.5 392.2,170.2 398,170.2 398,135.8 391.5,135.8 391.5,159.3 375.6,138.3 	"/>
</g>
</svg>
