<?xml version="1.0" encoding="utf-8"?>
<!-- Generator: Adobe Illustrator 24.1.1, SVG Export Plug-In . SVG Version: 6.00 Build 0)  -->
<svg version="1.1" id="Lager_1" xmlns="http://www.w3.org/2000/svg" xmlns:xlink="http://www.w3.org/1999/xlink" x="0px" y="0px"
	 width="1920px" height="1080px" viewBox="0 0 1920 1080" style="enable-background:new 0 0 1920 1080;" xml:space="preserve">
<style type="text/css">
	.st0{fill:url(#SVGID_1_);}
	.st1{fill:url(#SVGID_2_);}
	.st2{fill:url(#SVGID_3_);}
	.st3{fill:url(#SVGID_4_);}
	.st4{fill:url(#SVGID_5_);}
	.st5{fill:#FFE0BD;}
	.st6{fill:#0F0F0F;}
	.st7{fill:#DBDBD1;}
	.st8{fill:#634739;}
	.st9{fill:#CCBE9A;}
	.st10{fill:none;stroke:#000000;stroke-miterlimit:10;}
	.st11{fill:#BFB28C;}
	.st12{fill:#EDEDDE;}
	.st13{fill:#887E97;}
	.st14{fill:#05010C;}
	.st15{fill:#05010C;stroke:#000000;stroke-miterlimit:10;}
	.st16{fill:#EBEDEC;}
	.st17{fill:#1F1F1F;}
	.st18{fill:#CACED4;}
	.st19{fill:#16181A;}
	.st20{fill:#1E2024;}
	.st21{fill:#141518;}
	.st22{fill:none;stroke:#F4D6BA;stroke-miterlimit:10;}
	.st23{fill:#82766B;}
	.st24{fill:#FFFFFF;}
	.st25{opacity:0.66;fill:none;stroke:url(#SVGID_6_);stroke-miterlimit:10;enable-background:new    ;}
	.st26{fill:#EDEDED;}
	.st27{opacity:0.5;fill:#414141;enable-background:new    ;}
	.st28{opacity:0.5;fill:#484949;enable-background:new    ;}
</style>
<linearGradient id="SVGID_1_" gradientUnits="userSpaceOnUse" x1="-3.5" y1="575.55" x2="359.4" y2="575.55" gradientTransform="matrix(1 0 0 -1 0 1080)">
	<stop  offset="0" style="stop-color:#000000"/>
	<stop  offset="1" style="stop-color:#FFFFFF"/>
</linearGradient>
<polygon class="st0" points="-3.5,367.8 359.4,641.1 318.2,638.6 -3.5,395.5 "/>
<linearGradient id="SVGID_2_" gradientUnits="userSpaceOnUse" x1="-4.7" y1="597.05" x2="353.3" y2="597.05" gradientTransform="matrix(1 0 0 -1 0 1080)">
	<stop  offset="0" style="stop-color:#000000"/>
	<stop  offset="1" style="stop-color:#FFFFFF"/>
</linearGradient>
<polygon class="st1" points="-4.7,347.8 353.3,615.6 315.5,618.1 -3.1,375.6 "/>
<linearGradient id="SVGID_3_" gradientUnits="userSpaceOnUse" x1="-4.3" y1="582.4" x2="341.6" y2="582.4" gradientTransform="matrix(1 0 0 -1 0 1080)">
	<stop  offset="0" style="stop-color:#000000"/>
	<stop  offset="1" style="stop-color:#FFFFFF"/>
</linearGradient>
<polygon class="st2" points="-4.3,367.1 20.5,367.1 10,377.6 23,387.6 48.3,387.6 38.3,398.8 49.3,407.4 75.8,408 66.4,420 
	77.4,428.3 102.5,428.6 93.4,440 106,449.4 130.1,448.8 120.7,460.7 132.1,469.8 157,469.6 148.2,481.3 157,488.5 182.6,488.2 
	172.6,499.9 185.1,509.1 210.8,509.2 204,523.4 210,528.5 236.5,528.9 236.1,548.2 262.6,547.6 262.6,567.4 288.3,567.4 
	288.3,587.4 315.7,587.4 315.7,608.1 341.6,608.1 341.6,628.1 "/>
<linearGradient id="SVGID_4_" gradientUnits="userSpaceOnUse" x1="-5.1" y1="608.1" x2="521.2" y2="608.1" gradientTransform="matrix(1 0 0 -1 0 1080)">
	<stop  offset="0" style="stop-color:#000000"/>
	<stop  offset="1" style="stop-color:#FFFFFF"/>
</linearGradient>
<polygon class="st3" points="-4.7,314.6 416,635.1 521.2,635.1 520.4,629.3 416.4,629.3 -5.1,308.7 "/>
<linearGradient id="SVGID_5_" gradientUnits="userSpaceOnUse" x1="-2.9577" y1="637.2794" x2="602.3886" y2="637.2794" gradientTransform="matrix(1 -3.511308e-03 -3.511308e-03 -1 1.4898 1083.5486)">
	<stop  offset="0" style="stop-color:#000000"/>
	<stop  offset="1" style="stop-color:#FFFFFF"/>
</linearGradient>
<polygon class="st4" points="-4.4,248.5 -3.8,256.4 6.4,264 14.4,405.3 20.3,404.9 13.5,267.9 151.3,373 154.5,501.2 160,504.7 
	158,377.1 290.3,479.3 294.8,608.5 299.2,608.5 296,484 420,578.6 432.9,578.9 434.7,642.5 441,642.5 439.6,578.9 502.4,578.3 
	503,641.1 510.9,641.1 509.1,577.1 520.1,577.8 597.6,636.7 602.3,631.9 521.6,571.4 423.5,571.7 "/>
<g>
	<path class="st5" d="M377.2,415.7c0,0,14.2,5.5,13.5,10.2s-5.8,3.6-5.8,3.6c5.4,16.2,15.3,15.9,15.3,15.9s9.4-13.4,13.5-10.7
		s14.9,2.7,14.9,2.7s0-1.4,8.8,2.7c8.8,4.1,12.2-1.7,12.2-1.7S371.7,354.5,377.2,415.7z"/>
	<path class="st6" d="M466.8,323.6c0,0-40.4-22-60,3.1c-22,28.3-0.7,83.7,2.1,88.5c0,0-8.6,3.1-17-17.6c0,0-1.9,11.4,1.9,16.2
		c3.8,4.8-13.4-6.7-5.7-16.2c0,0-18.1,1-11.4,18.1c6.7,17.2-6.7,19.1-6.7,19.1s2.9-1,3.8-5.7s-8.6-5.7-8.6-5.7s1,5.7-5.7,5.7
		c0,0,6.7-1.9,2.9-6.7c-3.8-4.8-14.3-5.7-12.4-14.3c1.9-8.6-5-11.5-5-15.3c0-3.8-5.4-20.2-0.6-28.8c4.8-8.6-12.2,10.4-11.6,17.1
		c0,0-6.5-17.3,4.9-28.8c11.4-11.4,19.9-24.1,27.5-26.9c7.6-2.9,18.2-5.1,23.9-7C394.9,316.5,455.8,291.7,466.8,323.6z"/>
	<path class="st7" d="M432.2,310c0,0-48.9,2.5-34.9,73c14.1,70.5,58.1,54.2,58.1,54.2s28.4-5.8,24.9-72.3S432.2,310,432.2,310z"/>
	<path class="st8" d="M416.7,542.2l-4.6,98c0,0-2.2,2.2-3.4,2.8c-1.7,0.9-6.7,1.2-7.3-0.6c-4.2-12.6-2.2-78.4-7.7-81.1
		c-5.7-2.9-9.6,74.9-10,85.4c0,0.8-0.5,1.4-1.2,1.7c-2,0.8-5.4,4.6-9.9,2.8c-6.1-2.4-4.6-111.7-4.6-111.7S397.1,560,416.7,542.2z"/>
	<path class="st9" d="M406.8,440l11.2,15.6l5.8,77.3l-5.9-0.7l0.6,14c0,0-17.5,14.2-33.3,8.9c-15.8-5.3-22-22.1-20.1-25.1l0.1-6.4
		h-11.6c0,0,8.3-55.6,10.9-60.4c2.6-4.8,20.3-32.1,22.7-33.3C387.2,430.1,393.4,452.1,406.8,440z"/>
	<path class="st10" d="M286.1,523.9"/>
	<path class="st11" d="M362.8,523.8h-11.6c0,0,2.4,1.8,5.5,1.8C359.7,525.6,360.3,526.2,362.8,523.8z"/>
	<path class="st5" d="M414.8,532.3l6.4,0.3c0,0,1.8,5.5,6.1,7.3c4.3,1.8,8,4.3,7.3,5.5c-0.6,1.2-6.7-1.2-6.7-1.2s6.7,8.6,4.9,9.8
		s-8.6-8-8.6-8s5.5,9.2,3.7,11.6c-1.8,2.4-6.1-9.8-6.1-9.8s2.4,11,0,12.2c-2.4,1.2-2.8-13.2-2.8-13.2s0,6.7-1.2,6.1
		c-1.2-0.6-1.8-6.7-1.8-6.7L414.8,532.3"/>
	<path class="st12" d="M432.4,313.1c0,0-46.7,2.4-33.2,69.5s55.4,51.7,55.4,51.7s27.1-5.5,23.8-68.9S432.4,313.1,432.4,313.1z"/>
	<path class="st13" d="M466.5,339.8V352c0,0,4.9,2.4,6.1,0.6C472.7,352.7,473.3,342.9,466.5,339.8z"/>
	<path class="st13" d="M451.2,338.6c0,0,0,10.4-1.2,12.2c-1.2,1.8-7.3-1.2-7.3-1.2S445.7,339.8,451.2,338.6z"/>
	<path class="st14" d="M475.7,361.2c0,0-3.7-3.7-6.1-3.1c-2.4,0.6-4.9,3.7-4.9,3.7s2.4,4.3,5.5,3.7
		C473.3,364.9,475.7,361.2,475.7,361.2z"/>
	<path class="st14" d="M473.9,365.5c-0.4-0.4,0,1.2-4.9,1.2c-3.7,0-0.3,0.7,1.5,1.1c0.7,0.1,1.3,0.1,2-0.1
		C473.9,367.3,475.1,366.7,473.9,365.5z"/>
	<path class="st14" d="M448.8,362.5c0,0-3.7-4.9-7.3-4.3c-3.7,0.6-5.5,2.4-5.5,2.4s1.8,4.3,6.7,4.9
		C447.6,366.1,448.8,362.5,448.8,362.5z"/>
	<path class="st15" d="M444.5,366.7c0,0-5.5,0.6-7.3-1.8c-1-1.3-0.9-0.7-0.7,0.1c0.3,1.1,1.3,1.9,2.4,2.2
		C440.7,367.6,443.3,367.9,444.5,366.7z"/>
	<path class="st13" d="M475.1,369.2l-8,2.4l-0.6,20.8C466.5,392.4,472.7,394.3,475.1,369.2z"/>
	<path class="st13" d="M445.1,372.2c0,0-6.7-2.4-9.2-0.6s-1.2,19.6,1.8,22C440.8,396.1,446.3,375.9,445.1,372.2z"/>
	<path class="st14" d="M461.6,412.7l-23.3,0.6C438.4,413.3,451.8,421.8,461.6,412.7z"/>
	<path class="st13" d="M455.5,418.2h-9.8C445.7,418.2,451.2,421.8,455.5,418.2z"/>
	<path class="st5" d="M384.7,402.6c0,0-5.7-21.2-16.7-11.2c-10.9,10,3.3,22.3,9.8,21.5"/>
	<path class="st11" d="M389.7,439.3l-4.9-9.8l-4.3,5.5c-1,3.1,10.5,18.9,10.5,18.9l5.2-7.3h3.1l5.2,6.3c0,0,1-10.1,1-11.2l-1.2-1.8
		C403.2,441.1,397.1,447.8,389.7,439.3z"/>
	<polygon class="st11" points="414.8,532.3 406.9,466.2 415.4,455.8 406.2,466.2 	"/>
	<polygon class="st11" points="406.2,466.2 414.3,453.9 406.9,464.4 	"/>
	<polygon class="st11" points="362.8,523.8 369.5,466.2 368.9,467.4 	"/>
	<polygon class="st11" points="421.3,532 414.7,531.6 414.8,532.6 421.3,532.8 	"/>
	<rect x="395.8" y="446.6" class="st11" width="3.7" height="13.5"/>
	<circle class="st9" cx="397.7" cy="458.3" r="0.6"/>
	<circle class="st9" cx="397.7" cy="455.2" r="0.6"/>
	<circle class="st9" cx="397.7" cy="452.1" r="0.6"/>
	<path class="st16" d="M437.1,656.1c0,0-13.5,1-23.4-3.5c0,0-17.1-3.9-17.7-4.3s-0.3-0.6-0.3-0.6s-2.2,1.2-2.8,2.9c0,0-1.5,5,30,7.3
		C422.9,657.8,437.4,658.8,437.1,656.1z"/>
	<path class="st17" d="M395.6,647.9c0,0,1.6-9.3,4.8-10.5c0,0,2.3,0.9,2.1,4.4c-0.2,3.5,9.1,1.7,10.8-4.3c0,0,0.5-1,3.6,3.6
		c0,0,8.4,7.4,12.2,9c0,0,7.2,2.2,8.2,4.2c0,0,1,0.7-0.1,2.1c0,0-12.8,1-20.3-2.6c0,0-11-3.7-19.9-4.8
		C396.9,649,395.8,648.7,395.6,647.9"/>
	<path class="st10" d="M398.9,664"/>
	<path class="st18" d="M408.2,650.8l-0.2-2.9l-1.7,2.5l-0.5-3.1l-1.8,2.3l-0.4-2.7l-1.6,2.1l-0.2-2.9l-1.6,2.3l-0.4-3l-1.6,2.4
		c0,0-0.4-2.3-0.1-2.9c0.4-0.6-1.4,2.2-1.4,2.2s-0.6-0.9-0.1-2c0.5-1.1-1.1,1.3-1.1,1.3c0-0.1,0,0.2,0.6,0.8c0.4,0.5,0.8,0.6,2,0.7
		C400.1,648.1,403.4,649.4,408.2,650.8z"/>
	<polygon class="st19" points="422,649.1 417.5,654.2 419.5,655 423.6,649.7 	"/>
	<path class="st19" d="M420.2,648c-0.4,0.2-5,5.4-5,5.4l-1.7-0.5l5.3-5.8L420.2,648z"/>
	<polygon class="st19" points="416.9,646.4 410.9,652.1 409.1,651.7 415.8,645.6 	"/>
	<path class="st20" d="M436.1,657.1c0.2-0.2-9.1,2.7-21.8-0.1c0,0-15.9-2.2-18.1-3.4c0,0-3.1-1.2-3.4-2.4c0,0-1.9,3.3,13.1,5.5
		c0,0,12.5,1.5,17.1,2.2C427.7,659.6,434.3,658.9,436.1,657.1z"/>
	<circle class="st19" cx="426.8" cy="650.1" r="0.5"/>
	<circle class="st19" cx="424.6" cy="648.9" r="0.5"/>
	<circle class="st19" cx="422.7" cy="647.7" r="0.5"/>
	<circle class="st19" cx="420.9" cy="646.4" r="0.5"/>
	<circle class="st19" cx="419.1" cy="644.9" r="0.5"/>
	<circle class="st19" cx="417.6" cy="643.7" r="0.5"/>
	<polygon class="st19" points="427.1,649.8 427.9,649.5 427.3,649.1 426.8,649.6 	"/>
	<polygon class="st19" points="426.6,649.6 426,648.3 425.7,648.1 425.6,648 426.3,650 	"/>
	<polygon class="st19" points="424.9,648.6 425.8,648.2 425.6,648.1 424.6,648.4 	"/>
	<polygon class="st19" points="424.3,648.5 424.1,647 424.6,647.4 424.6,648.4 	"/>
	<polygon class="st19" points="423.1,647.7 424.1,647 423.6,646.6 422.9,647.3 	"/>
	<polygon class="st19" points="422.7,647.3 422.8,646 422.4,645.7 422.5,647.7 	"/>
	<polygon class="st19" points="421.3,646.4 422.4,645.7 422.1,645.4 420.9,646.4 	"/>
	<polygon class="st19" points="420.9,646 421.1,644.7 420.8,644.4 420.7,646.6 	"/>
	<polygon class="st19" points="419.5,644.9 420.8,644.4 420.5,644.2 419.1,644.9 	"/>
	<polygon class="st19" points="419.1,644.5 419.2,643.1 418.9,642.9 418.9,644.9 	"/>
	<polygon class="st19" points="418,643.6 419,642.8 418.7,642.7 417.6,643.6 	"/>
	<polygon class="st19" points="417.6,643.2 417.4,641.6 417.2,641.4 417.6,643.8 	"/>
	<path class="st21" d="M405.3,643.2c0,0-3.1,3.4-6.2-1.8c0,0-0.8-0.4-2,0.5c-0.1-0.9,3.5-6.6,4.3-5.8
		C401.7,636.4,399.2,641.6,405.3,643.2z"/>
	<path class="st16" d="M408.8,662.7c0,0-13.5,1.4-23.5-2.8c0,0-17.2-3.4-17.8-3.8c-0.6-0.4-0.3-0.6-0.3-0.6s-2.2,1.2-2.7,3
		c0,0-1.4,5,30.2,6.3C394.7,664.9,409.3,665.4,408.8,662.7z"/>
	<path class="st17" d="M367.1,655.8c0,0,1.3-9.3,4.4-10.6c0,0,2.3,0.8,2.2,4.3c-0.1,3.5,9.1,1.4,10.6-4.6c0,0,0.5-1,3.7,3.5
		c0,0,8.6,7.2,12.5,8.6c0,0,7.3,1.9,8.3,4c0,0,1,0.7,0,2.1c0,0-12.8,1.4-20.4-1.9c0,0-11.1-3.4-20-4.2
		C368.4,656.9,367.3,656.6,367.1,655.8"/>
	<path class="st18" d="M380.1,658.9l-0.5-2.9l-1.4,2.7l-0.8-3.1l-1.5,2.5l-0.7-2.7l-1.3,2.3l-0.5-2.9l-1.3,2.5l-0.7-3l-1.3,2.6
		c0,0-0.7-2.3-0.4-2.9c0.3-0.6-1.1,2.4-1.1,2.4s-0.7-0.8-0.3-1.9c0.4-1.1-0.9,1.4-0.9,1.4c0-0.1,0,0.2,0.7,0.8
		c0.5,0.4,0.9,0.5,2,0.5C371.7,657.2,375.2,658.1,380.1,658.9z"/>
	<polygon class="st19" points="393.6,656.2 389.3,661.5 391.3,662.2 395.2,656.8 	"/>
	<path class="st19" d="M391.8,655.2c-0.4,0.2-4.8,5.5-4.8,5.5l-1.7-0.4l5.1-6L391.8,655.2z"/>
	<polygon class="st19" points="388.4,653.7 382.5,659.5 380.8,659.2 387.2,652.9 	"/>
	<path class="st20" d="M407.9,663.8c0.2-0.2-9,3-21.8,0.6c0,0-16-1.7-18.2-2.9c0,0-3.1-1.1-3.5-2.3c0,0-1.8,3.4,13.3,5.1
		c0,0,12.6,1.1,17.2,1.6C399.5,666.5,406.2,665.6,407.9,663.8z"/>
	<circle class="st19" cx="398.4" cy="657.1" r="0.5"/>
	<circle class="st19" cx="396.1" cy="655.9" r="0.5"/>
	<circle class="st19" cx="394.2" cy="654.8" r="0.5"/>
	<circle class="st19" cx="392.3" cy="653.6" r="0.5"/>
	<circle class="st19" cx="390.5" cy="652.1" r="0.5"/>
	<circle class="st19" cx="388.9" cy="650.9" r="0.5"/>
	<polygon class="st19" points="398.1,656.6 397.6,655.3 397.3,655.1 397.1,655 397.9,657 	"/>
	<polygon class="st19" points="396.4,655.6 397.3,655.2 397.1,655.1 396.2,655.5 	"/>
	<polygon class="st19" points="395.8,655.6 395.6,654 396.1,654.4 396.2,655.5 	"/>
	<polygon class="st19" points="394.6,654.8 395.5,654 395.1,653.7 394.4,654.4 	"/>
	<polygon class="st19" points="394.2,654.3 394.2,653.1 393.8,652.8 394,654.8 	"/>
	<polygon class="st19" points="392.8,653.5 393.8,652.8 393.5,652.6 392.4,653.5 	"/>
	<polygon class="st19" points="392.4,653.1 392.5,651.8 392.2,651.6 392.2,653.7 	"/>
	<polygon class="st19" points="390.9,652.1 392.2,651.6 391.9,651.3 390.5,652.1 	"/>
	<polygon class="st19" points="390.5,651.7 390.6,650.3 390.3,650.1 390.3,652.1 	"/>
	<polygon class="st19" points="389.4,650.9 390.3,650 390.1,649.9 389,650.9 	"/>
	<polygon class="st19" points="389,650.5 388.7,648.8 388.5,648.6 389,651.1 	"/>
	<path class="st21" d="M376.3,651.7c0,0-2.7,3.8-6.3-1c0,0-0.8-0.3-1.9,0.7c-0.2-0.9,2.7-7,3.6-6.2
		C371.9,645.4,370.1,650.9,376.3,651.7z"/>
	<path class="st5" d="M353,523.8c0,0,2.8,6.4-0.9,9.5c-3.7,3.1-19,13.5-15.9,15.3s7.3-4.9,7.3-4.9s-6.1,9.2-4.3,11s6.1-10.4,8-10.4
		s-6.7,9.8-3.1,12.9c3.7,3.1,4.9-14.1,8.6-13.5c3.7,0.6-8,10.4-3.7,15.3c4.3,4.9,4.3-6.1,7.3-14.1s11.6,2.4,11.6,2.4
		s10.4,3.7,0.6-5.5c-9.8-9.2-7-18.1-7-18.1H353z"/>
	<path class="st22" d="M378,400.8c0,0-3.7-11.4-6.7-5.4s-4.2,6.6,3,10.8"/>
	<ellipse class="st23" cx="383" cy="468.2" rx="7" ry="8.2"/>
	<ellipse class="st24" cx="381.9" cy="468.4" rx="5.9" ry="7"/>
</g>
<linearGradient id="SVGID_6_" gradientUnits="userSpaceOnUse" x1="958.6" y1="868.5" x2="958.6" y2="1027.7" gradientTransform="matrix(1 0 0 -1 0 1080)">
	<stop  offset="0" style="stop-color:#FFFFFF"/>
	<stop  offset="1" style="stop-color:#000000"/>
</linearGradient>
<rect x="879.5" y="52.8" class="st25" width="158.2" height="158.2"/>
<g id="FAdkgo.tif_2_">
	<path class="st26" d="M958,74.4c0,0,31.2,5.8,32.8,37s1.1,48.1-16.4,57.6c-17.4,9.5-19.6,7.4-19.6,7.4s-4.2,4.2-9,0
		s-13.2-14.8-14.3-18s-4.2-2.1-4.8-25.9c0,0-6.3-10.6-4.2-16.9S914.6,79.2,958,74.4z"/>
</g>
<path class="st27" d="M930.8,139.6c2.1,1,8.1,3.4,14.2-0.2c0.3-0.1,0.5-0.2,0.8-0.2h4.3l0,0c0,1.1-0.7,0.9-1.8,0.9h-3.2
	c0,0-7,3.8-13.9,1.3c-0.7-0.2-1.2-0.6-1.2-1.3l0,0C930.1,139.7,930.5,139.5,930.8,139.6z"/>
<path class="st27" d="M979.9,141.4c-2.8,1.2-8.9,3.1-15.2-0.6c-0.2-0.1-1.1-0.6-1.3-0.6l-3.2-0.6c-0.6,0-1.2,0.2-1.2,0.8l0,0
	c0,0.6,0.6,0.4,1.2,0.4h1.9c0.2,0,2.3,0.7,2.5,0.8c1.7,1.2,9.2,4,16.4,0.1c0.2-0.1,0.2-0.4,0.2-0.7l0,0
	C981.4,140.2,980.6,141.1,979.9,141.4z"/>
<path class="st27" d="M983.5,130.3c0,0-14.8-7.4-19-6.3C964.4,123.9,973.4,122.9,983.5,130.3z"/>
<path class="st27" d="M948.6,127.6c0,0-13.7-4.2-18.5-1.6C930.1,126.1,938,121.8,948.6,127.6z"/>
<path class="st27" d="M958.8,151.3c0,0,12.2,4.1-6.1,6.1c0,0-9.9-2.3-7.1-5.1c0,0,1.6,5.2,8.8,3.8
	C959.5,155.3,963.9,155.7,958.8,151.3z"/>
<path class="st28" d="M939.6,166.4c1.8,0.9,4.4,0.5,6.3,0c1.3-0.3,2.6-0.2,3.8,0.3c0.7,0.3,1.3,0.3,1.8,0.2c1.7-0.4,3.5-0.3,5.1,0.3
	c2.2,0.8,4.7,1.5,4.7,1.5c-0.1,0.1-0.2,0.1-0.3,0.2c-6.6,0.6-14.1,0.7-20.9-2.1C939.7,166.5,939.6,166.4,939.6,166.4z"/>
<path class="st27" d="M940,166.8c6.9,2.8,14.1,2.5,20.9,2.1C950.3,174.6,942,168.4,940,166.8z"/>
</svg>
