<?xml version="1.0" encoding="utf-8"?>
<!-- Generator: Adobe Illustrator 24.3.0, SVG Export Plug-In . SVG Version: 6.00 Build 0)  -->
<svg version="1.1" id="skylt" xmlns="http://www.w3.org/2000/svg" xmlns:xlink="http://www.w3.org/1999/xlink" x="0px" y="0px"
	 width="1366px" height="768px" viewBox="0 0 1366 768" style="enable-background:new 0 0 1366 768;" xml:space="preserve">
<style type="text/css">
	.st0{fill:#FFFFFF;}
	.st1{fill:none;}
	.st2{fill-rule:evenodd;clip-rule:evenodd;}
	.st3{fill:#D1DBDB;stroke:#000000;stroke-miterlimit:10;}
	.st4{fill:none;stroke:#000000;stroke-miterlimit:10;}
	.st5{fill:#8CA5A4;}
	.st6{fill:#BFB28C;stroke:#000000;stroke-miterlimit:10;}
	.st7{fill:#E9B080;stroke:#000000;stroke-miterlimit:10;}
	.st8{fill:#FFA191;stroke:#000000;stroke-miterlimit:10;}
	.st9{fill:#F0F8EB;stroke:#000000;stroke-miterlimit:10;}
	.st10{stroke:#000000;stroke-miterlimit:10;}
	.st11{fill:#A59979;stroke:#000000;stroke-miterlimit:10;}
	.st12{fill:#949B9B;stroke:#000000;stroke-miterlimit:10;}
	.st13{fill:#A3AFAF;stroke:#000000;stroke-miterlimit:10;}
	.st14{fill:#C9BA99;stroke:#000000;stroke-miterlimit:10;}
	.st15{fill:#B7A98F;}
	.st16{fill:none;stroke:#000000;stroke-width:2;stroke-miterlimit:10;}
	.st17{fill:#7F755D;stroke:#000000;stroke-miterlimit:10;}
	.st18{fill:#BFB28C;stroke:#000000;stroke-width:0.5;stroke-miterlimit:10;}
	.st19{fill:#E8E874;stroke:#000000;stroke-miterlimit:10;}
	.st20{fill:none;stroke:#000000;stroke-width:0.5;stroke-miterlimit:10;}
</style>
<g>
	<rect x="-1" y="1" class="st0" width="1364" height="763"/>
	<g>
		<g>
			<polygon class="st1" points="1383.3,764 1383.3,-19.3 -21.3,-19.3 -21.3,784.3 1363,784.3 1363,743.7 19.3,743.7 19.3,21.3 
				1342.7,21.3 1342.7,764 			"/>
			<path class="st2" d="M1367.4,763.8c-0.3,1.1-0.4-1.7-0.6-2.5c0.1-3.6,0.2-7.9,0.6-7.5C1367.4,757.2,1367.4,760.5,1367.4,763.8z"
				/>
			<path class="st2" d="M1380.4,451.1c-0.1-11.8,0.6-12.1,0.6-22.3c0.2-9.3-0.3-8-0.5-12.4c0.6-55,0.3-108.3-0.6-153.9
				c0.3,1.2,0.3-3.5,0.3-7.5c0.7,0.5,1.2,4.3,1.6,9.9c0.6,54.9,0.6,105.5,1.5,158.8C1381.5,419.3,1382.1,452.9,1380.4,451.1z"/>
			<path class="st2" d="M1239.8-18.5c-3.7-0.3-12.8-0.2-12.4-0.8C1234.5-19.3,1238.7-19,1239.8-18.5z"/>
			<path class="st2" d="M1190.1,20.3c-10,0.2-31,0.3-34.7-0.3c-13.9,0.5-27.2,1.1-49.6,1.1c-2-0.3-4.1-0.6-5-1
				C1125.9,18.9,1185.4,17,1190.1,20.3z"/>
			<path class="st2" d="M716.1-12.9c10.5,0.2-8.7,0.4,0,0.5c-1.8,0.4-14.1,0.1-12.4-0.3C707.3-12.8,716.5-12.5,716.1-12.9z"/>
			<path class="st2" d="M428.2-14.8c0.7,0.4-0.9,0.7-7.5,0.6C420.1-14.6,421.7-14.9,428.2-14.8z"/>
			<path class="st2" d="M18.4-9.3c-10-0.3-15-0.2-18.7-0.1c-3.7,0.1-6.1,0.2-11.2,0c-0.1,1.1-0.1,2.3-0.2,3.8
				c0.1,5.1,0.1,10.5,0.2,15.9c0,4.8,0.1,9.8,0.1,14.8c0,7.5,0,15.3,0,23.1c-0.1,15.6-0.2,31.2-0.1,44.8c0.1,13.5,0.6,25.9,0.8,39.7
				c0.7,54.9,0.4,115.9,0.5,171.2c0,31.9,0.2,64.8-0.3,91.8c-2.4-22.6-1.3-77.9-1.1-114.2c-0.1-7.1-0.3-12.8-0.6-17.4
				c0.5-94.5-2.2-162.5,0-240.7c0-0.5,0-1,0-1.4c0-0.6,0-1.2,0-1.9c0-1.5,0-3-0.1-4.4c0-2.9,0-5.9-0.1-8.8c0-5.8,0-11.6,0-17.5
				c8.5,0,17.2-0.1,27-0.2c1.7,0,3.5,0.1,4.9,0.1c0.9,0,1.6,0.1,1.9,0.2c1.8,0.1,1.6,0.3,0.8,0.5c-0.4,0.1-1,0.2-1.6,0.3
				c-0.3,0.1-0.6,0.1-0.9,0.2l-0.2,0c-0.1,0-0.2,0-0.3,0C18.8-9.4,18.6-9.4,18.4-9.3z"/>
			<path class="st2" d="M-6.7,316.3c0.2,8.2,0.3,25.7-0.5,24.8c0.5,9.4-0.1,19.8,0,32.3c-1.6,69.4-1,163-2.1,250.7
				c-0.8,3.3-0.7-5.5-1-9.9c0.5-34.9-0.9-60.7-0.2-94.3c-1-43.2,0.9-93.1,1.3-134c0.7-15.8,1.1-45.2,1-72
				C-7.9,311.3-7,313.7-6.7,316.3z"/>
			<path class="st2" d="M-6,559.5h0.5c0.4,21.3-0.2,41.8,0.2,62c-0.7-3.6-0.8-16-1.3-22.3C-6.4,583.7-6.7,571.6-6,559.5z"/>
			<path class="st2" d="M-9.7,631.5c0.8-1.8,0.5,22,0.3,27.3C-9.9,650.3-9.4,641.4-9.7,631.5z"/>
			<path class="st2" d="M370.3,773.5c3.2-0.6,19.1-1.9,29.8-1c24-1.1,52.7-0.7,84.4-1.1c-2.3,0.7,13.4,0.6,17.4,0.3
				c-1-0.5-9.6,0.4-7.5-0.3c20.5-0.3,40.7,0,54.6-0.5c0.7,0.3-2.3,0.3-2.5,0.5c0.4,0.2,4.5,0.1,7.4,0.2c-0.8,0.3-21.7,0.2-12.4-0.2
				c-4.5,0-5.2,0.2-9.9,0.2c9.3,0.2-3,0.9,12.4,0.8c-0.6,0.2-7.4,0.1-7.4,0.3c-4.4-0.1-4.6-0.6-7.4-0.8c-7.5,0.3-37.2,0-29.8,0.8
				c-10.2,0.5-32.6-1.2-42.2-0.2C426.2,772.3,409.5,773.4,370.3,773.5z"/>
			<path class="st2" d="M558.9,770.9c5,0.1,10.1,0.5,5,0.8C558.4,771.7,558.5,771.3,558.9,770.9z"/>
			<path class="st2" d="M576.3,770.5c7.8-0.1,6.6,0.4,12.4,0.5C585.1,771.4,575.1,770.9,576.3,770.5z"/>
			<path class="st2" d="M611,771.6c1.1-0.6,14.1,0.1,22.3-0.3C632.5,771.8,619.1,771.5,611,771.6z"/>
			<path class="st2" d="M648.2,771.3c4.2-0.3,6.2-0.7,14.9-0.6C660.5,771,655.6,771.2,648.2,771.3z"/>
			<path class="st2" d="M913.8,777.7c8,0.1,13,0.4,14.9,1C924.3,778.3,914.6,778.3,913.8,777.7z"/>
			<path class="st2" d="M449.7,748.1c-21.4-0.4-44.4-0.9-64.5-0.2c-46.1-0.5-102.3-1.5-148.9-0.6c-16.4-0.6-35.1,0-52.1-0.3
				c-30.5-0.5-61.5-0.6-92.5-0.4c-15.5,0.1-31,0.3-46.5,0.5c-7.7,0.1-15.4,0.3-23.1,0.4l-2.7,0.1l-0.5,0.1l-1.1,0.1l-2.5,0.2
				c-0.1-1-0.2-2-0.3-2.9l-0.1-0.8l0-0.4l0-1.6c-0.1-2.4-0.1-4.8-0.2-7.3c-0.2-9.7-0.5-19.3-0.7-28.9c0-5.8,0-11.6,0-17.4
				c-0.5-24-1.4-47.6-1.8-74.5c-0.8-55.4-0.1-121.1,0.3-178.7c0.3-0.2,0.6,0.3,0.5-5c0.8-56.1,2.6-109.4,2.6-168.8
				c0-14.5-0.5-28.1,0-42.2c-0.5-15.1-0.8-34-1.1-52.1c0.4-33.9,0-88.4-1.3-116.7c0.2-8.6,0.2-16.8,0.1-25l0-3.1l0-1.4l0-0.5
				c0-0.6-0.1-1.3-0.1-1.9c-0.1-1.4-0.1-2.7-0.2-4.1c0.8,0,1.6,0,2.3,0c108.1-0.1,250.5-0.3,361-0.5c10.3-0.5,18-0.3,29.8-0.6
				c31.9,0.8,91.9,0.1,124.1-0.6c18.3,0.8,49.4,0.2,76.9,0.6c21.5,0.3,41,1.3,57.1,0.5c48.4,0.4,99.7-0.5,153.9,0.6
				c22,0.5,44.1,1.2,67,1.6c31-0.2,60.1,0,91.8-0.3c0.4-0.2-0.4-0.5,2.5-0.5c18.5,0.3,47.8-1.1,72-0.5c38.8-1.1,72.8-3,136.5-2.6
				c25-1.7,79.6-1.1,114.2-1.8c8.5,0.1,18.8,0.2,29.5,0.3c2.7,0,5.4,0.1,8,0.1l3.7,0.1c0.7,0,1.3,0,2,0.1c2.7,0.1,5.2,0.2,7.6,0.3
				c-0.1,2.9-0.3,5.5-0.4,7.7c-0.2,1.2-0.4,6.8-0.6,10c-0.2,17.1-0.4,32.9-0.3,54.6c-0.2,6.4-0.6,9.2-0.6,17.4
				c0.3,3.5,0.4,8.6,0.5,14.9c-1.1,36.6-1,95.2-0.3,138.9c-0.6,5,0.1,16.7-0.5,22.3c0.8,73.4,2.7,153.4,0.8,228.3
				c-2,12.3-3,33-5.2,37.2c-0.3,6.3-0.4,17-1,19.9c-0.5-1.2-0.6,3.5-1,5c-0.9,22.1-2,65-0.8,89.4c1.6,12.1,3.2,26.9,4.8,7.4
				c3.3,2.7,7.3-27.8,8.1,32.3c1.5,9.4,2.4,19.7,4.5,14.9c0.9-14.8,2.4-22.4,3.2-44.7c0.3,4.6,0.4,0.3,0.8,0
				c0.1-10.5-0.1-26.3,0.6-27.3c-0.2,26.3,1.1,29.8,1.3,49.7c1.5,22.1,4,13.6,5.3,29.8c-0.2,6.5-0.4,7.5-0.2,14.9
				c1.1,4.2,1.4-5.2,2.1,7.5c0.7-4.5,0.6-10.9,0.6-19.9c1.7-7.4,2.3-32.9,3.1-54.6c0-64.3,2.2-106.5,1.8-161.3
				c1-1.5,0.9-21.6,0.5-32.3c0.4-4.6,1.3-1.7,1.5-9.9c-0.4-6.9-0.7,2.2-1.1,2.5c-0.4-9.1-0.6-30.3-0.2-37.2
				c-0.8-16.7-0.5-48.4-1.3-69.5c0.7-8,1.1-19.9,1.1-37.2c-0.6-0.3-0.9-4.1-1.3-7.4c-0.9-47.4,1-73,0-119.1
				c0.5-12.6,0.5-31.9,0.5-52.1c0.7-19.3,1.2-42.2,1.4-66.6c0.1-12.2,0.2-24.8,0.2-37.5c-0.1-18.5-0.1-37.1-0.2-55.6
				c-7.4,0-14.7,0.1-22,0.1c-3.6,0-7.2,0.1-10.8,0.1c-2.7,0-5.4,0.1-8.1,0.1c-7.7,0.1-15.4,0.3-22.8,0.4c-17.4-1.7-45.3-0.6-67-1
				c-34.5-0.6-68.9-2.1-104.2-1.1c-4.1,0-1.4,0.4-5,0.5c-25.9-0.2-60,0.3-89.3,0.3c-20.9,0-41.1-0.6-62-0.3
				c-24.3,0.3-42.6,1-57.1,2.4c-18.9-0.1-40.3,1.8-59.6,1c-3.7,0.2-2.9,0.7-9.9,0.6c-4.9,0-4.9-0.2-7.5-0.3c0.2,0.6,2.8,0.5,0,1
				c13.9-0.3,20.5-0.2,32.3-0.8c3.4,0.1,4.8,0.2,9.9,0.2c27-1,58.5-2.2,94.3-2.7c34.5-0.6,70.4,0.2,94.3-0.8
				c5.7,0.1,3.3,0.6,7.5,0.8c12.9-0.6,24.3,0.2,39.7,0c10.8-0.1,20-0.9,32.3-1c24.9-0.1,40.6,0.6,69.5,0.6
				c11.9,1.1,40.4,0.4,42.2,1.5c-5.5,0.6-17.6-0.7-24.8,0c4.9,0.2,10.6,0.3,12.4,0.6c-25.4,1.1-34.9,3.2-67,3.9
				c-26.8-0.1-46.2,0.2-62.1,0.8c-86.2-1-207.2-0.4-292.9,0.8c-21.1-0.5-38.9-0.5-64.5-0.2C748.5-11,677-8.2,649.1-9.5
				c-12.7,1.6-53.9,0.8-67,0c-5,1.1-24.9,0.7-37.2,0.3c0-0.2,10.5-0.5,0-0.5c-4.9,0-4.9,0.2-7.4,0.3c-4.5-0.4-10.4-0.6-12.4-1.1
				c-9.2-0.1-10.6,0.3-19.8,0.2c2.5-0.3,4.3-0.7,9.9-0.8c13.3-0.2,15.2,0.3,22.3,0.5c-0.3-0.4-4.8-0.5,2.5-0.6
				c3.3,1,15.9-0.2,22.3,0.6c-4.6,0-8.3,0.1-9.9,0.3c9.7-0.2,21.3-0.3,29.8-0.5c-2.6,0-6.3-0.1-2.5-0.2c-87.5-1.9-164.2-1-250.7-0.6
				c-4.7-0.4-13.8-0.5-22.3-0.6c-25,0.4-42.8,0.4-49.6,2.1c30,0,53.7-0.4,101.8-0.3c10,0.4,17.7,1,19.9,1.9
				c-38.5,0.6-79.9-0.5-116.6,0c-5.3,0.1-7.4,0.3-12.4,0.3c-30.7,0.1-46.2-0.3-67-0.5C142.1-9.1,98.8-8.7,58.4-9
				c-8.9-0.1-17.7-0.8-27.3-0.2c21.9,0.4,46.1,0.6,62,0.3c22.7,0.6,61.9,0.8,89.4,0.8c54.4,1.3,95.2,0.3,161.3,1
				c3.4,0.9,11.3,0.7,22.3,0.8c-0.8,1,7.5,1.3,19.8,1.5c6.9-0.2-4.3-0.7,2.5-0.8c7.1,0.3,13.8,0.6,14.9,1.3
				c-6.6,0-14.2,0.1-17.4-0.2c2.3,0.8,17.5,0.7,17.4,1.6C354-2.5,310.5-1,261.9-1.4c-6.4-0.4-9.7-1.1-17.4-1.5
				c-5.2,0.7,12.7,1.1,14.9,1.8c-14.5,0.5-37,0.5-49.6,1.1c-2.9-0.2-2.1-0.7-9.9-0.6C153.4-1,122.1-0.1,85.7,0.2
				C71,0.3,56.6,0.3,42.2,0.3c-14.6,0-29.1-0.1-44-0.1c0,12.8,0,25.8,0,39.2c0,13.2,0.1,26.8,0.3,41c-0.1,4-0.8-0.6-0.6,7.4
				c-0.2,36.7,0.4,89.2-1.9,109.2c0.2,15.6-0.4,19.6-0.6,29.8c0.1,4.6,0.3,9.1,0.3,14.9c-0.6,5.4-0.2,22.1-0.3,34.8
				c-0.1,14.1-0.9,25.3-1.1,39.7c-0.4,25.2,0.1,35.6,0.5,47.1c0.4,14.3,0.6,35.5,1.6,44.7c0.3-4.2,0.5-8.8,0.8-12.4
				c-0.6-16.2-1.8-34.8-1.8-57.1c0-14,1-22.8,0.6-37.3h0.5C-4.2,225.2,0,189.2-0.5,115.3C0.2,96.1,1,78.3,2,63.2
				c-0.2,25.9,0.8,34.5,0.6,59.6C5,185.9,3.2,272,4,343.6c-0.8,53.3,0.3,99,0.5,151.4c-0.9,7.5-0.7,32.2-1,49.6
				c0.1,5.1,0.8,0.7,0.6,9.9c-0.1,37.3-2.7,40.1-3.2,67c-0.1,4.8,0.2,13.4,0.2,19.9c0,9.3-0.4,27.2-0.3,34.7
				c0.1,13.5,0.4,26.6,0.7,40c0.1,6.7,0.3,13.5,0.4,20.4c0,3.3,0.1,6.6,0.1,10c0,3,0,6.1,0,9.3c0,1.6,0,3.1,0,5.1
				c39.6,0.1,84.2,0.2,127.5,0.3c37.8,1,95.5-0.1,143.9,0.8c37.7-1.1,98.7,0.4,134-1.5c6.5,0,2,0.6,9.9,0.5
				c21.4-0.8,45.7-0.4,59.6-1.8c5.8-0.1,9.5,0,12.4,0.2c66.1-1.6,135.1-4,220.9-3.4c27.5,1.6,52.6,3.4,81.9,4.8
				c24.2,2,45.6,4.1,86.8,5c44.4-1,75.8-3.7,99.3-5.5c16.5-0.3,23-1.3,27.3-1.9c38.4-0.8,69.8-1.4,109.2-1.8
				c79-0.7,126.8,3.8,203.5,3.2c3.3,0.2,4.9,0.4,9.9,0.5c4.6-1,30.5,0.8,34.7-0.8c-12.9-1.1-41.2-1.7-64.5-1.6
				c-7.8-0.9-21.6-0.4-34.8-0.6c-16.4-0.3-30.9-1.4-44.7-1.8c-4-0.1-8.4,0.2-9.9,0.2c-11.1-0.2-20.1-0.9-34.8-1
				c-32.7-0.1-42.7,0.1-72,0.5c-59.2,0.7-119.1,1.2-139,4.5c-22.2,0-29,2.3-47.2,3.1c-25.1,0.2-19.9,0.7-44.7,0.5
				c-49.4-3.6-82.9-8.3-148.9-10.8c-15.6,0.1-30.7,0.2-39.7-0.5c70.4-2.4,208.2,0.6,285.4-2.1c-8.4-0.8-19.4-0.3-29.8-0.3
				c-57.1,0-120.2-0.2-188.6,0c-40.7,0.1-79,1.7-124.1,1.5c-26.3-0.1-46.8-0.7-76.9-0.6c-1.1-0.3-7.8-0.1-5-0.6
				c-35.1,0.3-64.6-2.6-96.8-1.1C448.6,748.4,454.7,748.4,449.7,748.1z M1359.5,662c0-3.1,0.3-2.5,0.3,0c0.2-0.4,0.1-4.5,0.2-7.4
				c0.3,0.7,0.2,9.2,0.5,9.9c0.3-4,0.5-9.3,0.6-14.9C1361.7,663.5,1360,672.6,1359.5,662z M1364.5,503.2c1.5-2.3,1.8,32,1.6,39.7
				c-0.2,7.8-0.9,20.8-1.5,12.4C1364,546,1365.1,517.8,1364.5,503.2z M1362.4,433.7c-0.4,0.8-0.6-0.4-0.8-2.5
				c0.7-13.7,0.3-44.7,1.6-54.6C1363,400.4,1362.5,406.9,1362.4,433.7z M1365,354.3c-0.4,1.8-0.3-4.9-0.6-5
				c0.3-3.3,0.4-10.8,0.8-12.4C1365.2,345.5,1364.9,346.4,1365,354.3z M1361.1,346.8c0.5-28,1.1-59.6,1-91.9
				c-0.1-27.8-1.4-54.5-1-76.9c1,24.8,1,63.8,2.3,84.4c-0.3,24.4-1.1,53.6-0.5,72C1362.1,336.4,1362,348,1361.1,346.8z
				 M1365.1,329.5h-0.5c-0.1-10.3-0.4-29,0.5-29.8C1365.5,312,1365.3,316.7,1365.1,329.5z M1365.6,297.2c-0.1-1.9-0.4-2.7-0.6-2.5
				C1364.9,283.7,1365.8,286.1,1365.6,297.2z M1368.8,294.7c0.5-3.1,0.1-12.1,0.2-17.4c0.2-10.1,0.9-16.3,1-24.8
				c0.2-15.8-0.8-21.9-0.6-42.2c0-6.4-0.6-4-0.8-7.5c-0.4-33.8-0.8-66.6-1-99.7c-0.1-16.6-0.1-33.3-0.2-50.2
				c0-18.4,0.1-37.2,0.1-56.4c-8.3,0-16.7-0.1-25.2-0.1c-7-0.1-14-0.1-21.2-0.2c-14.3-0.2-29-0.4-44.1-0.5c4.4-1.6,36.2-1,32.3-3.4
				c9.6-0.1,18.9-0.1,27.8-0.2c12,0,23.6,0,34.8,0c0,11.6,0,22.9-0.1,34.1c0,8.2,0,16.3,0,24.3c0.1,16,0.3,31.8,0.8,48.2
				c0,33.9-0.7,61.8-0.8,101.8C1371.8,241.5,1371.7,282.2,1368.8,294.7z M1373.5,121c0-8.1,0.5-7.2,0.6-12.4
				c-0.1-16.3,0.4-23.9,0.6-34.7c0.1-9.1,0.1-21.5,0-34.5c0-6.8-0.1-13.8-0.1-20.6c0-10.2,0-20.2,0-29.3c-7.9,0-15.2-0.1-21.6-0.2
				c-3.2-0.1-6.2-0.1-8.9-0.2c-0.6,0-1.2,0-1.8-0.1c-0.4,0-0.8,0-1.2-0.1c-0.8,0-1.5-0.1-2.2-0.1c1.1,0,2.3,0,3.3,0
				c1.7,0,3.3,0,4.9,0c3.3,0,6.5-0.1,9.7-0.1c6.4-0.2,12.5-0.3,18.9-0.5c0.2,8.7,0.4,18.2,0.2,29.7c0.1,1.2,0.1,2.3,0.2,3.5
				c0.1,0.7,0.1,1.4,0.2,2.1c0.1,1.4,0.2,2.9,0.3,4.3c0.2,2.9,0.4,5.9,0.6,9c0.4,6.2,0.6,12.9,0.8,20.4c0.4,15.1,0.4,33.6,0,58.7
				c-0.2,10.7-0.9,21.7-1.1,32.3c-0.4,19.7,0.3,39.7-0.6,49.6C1374.2,191.4,1375,138.6,1373.5,121z M1360.9,170.6
				c-0.5-5.7-0.1-9.6-0.3-19.9C1361.4,151.6,1361,164.5,1360.9,170.6z M1162.8,4.2c-33.3,0.1-65.5,0.6-101.8,0.3
				c-33.6-0.3-51.7-1.3-94.3-1.1c-12.5,0-20.6,0.6-39.7,0.8c-21.4,0.2-41.9-0.5-57.1,0.6c-23.9-0.3-47.1-0.8-67,0.2
				c6.2-1.3,35.5-2.4,54.6-3.4c106.6,0.3,209.8-0.7,305.3,2.1V4.2z M666.5,5.3c-0.5,0.2-7.4,0.1-7.4,0.3
				c-25.3-0.6-45.6,0.2-64.5,0.3c-9,0-18.1-0.4-29.8-0.5c-15.6-0.1-36,0.8-42.2-0.3c-14.5,0.7-41-0.1-57.1,0.6
				c0.8-0.8,25.3-1.4,9.9-2.3c-6.6,0.3-6.5,1.1-12.4,1.5c-15.5,0-25.8-0.3-27.3-1.1c20.8-1.2,82.3-1.4,109.2-0.6
				c18.3-0.5,33.3-0.1,52.1,0.2c1.2-0.3-3.5-0.3-7.4-0.3c23-0.8,47.3,1.8,72,1.5C665.8,4.6,661.3,5.3,666.5,5.3z M428.2,4.7
				c-5.2-0.1-8-0.3-12.4-0.5c1.1-0.5,5.2-0.7,12.4-0.8C435.2,3.7,431.8,4.2,428.2,4.7z M299.2,11.9c-35.7,0.1-72.3,0.4-106.7,0.6
				c-49.4,0.3-114-0.3-163.8,0.6c-4.4-0.1-10.9-0.2-17.8-0.4c0,1.8,0,3.7,0,5.5c0,2.9,0.1,5.7,0.1,8.4c0.1,7.9,0.3,14.8,0.7,19.1
				c-0.3,37.9,0.7,75,1.1,109.2c-0.5,46.4,0.7,97.3-0.2,148.9c-0.2,11.6-0.9,20.3-1.1,32.3c-0.2,10.3,0,23-0.2,34.8
				c-0.3,16.9-1.1,33.3-1.3,49.6c-0.1,7.5,0.1,17.5,0,24.8c-0.1,4.9-0.5,8-0.6,12.4c-0.4,13.8-0.1,30.7-0.6,42.2
				c0.4,40.8,0.3,77.7,0.6,126.6c-0.9-21.9-1.7-45.7-3.5-52.1c0-24.7-0.3-47.7,0-72C6,485,6.2,479,6.1,450.3
				c-0.1-12.9-0.4-25.2-0.5-37.2c-0.1-32.2,0.5-65.3,0.5-96.8c0-26.9-0.7-53.7,0.2-74.5c-0.4-43.2,0.7-96.7-0.8-134
				c0.3-15.3,0.3-31.1,0.1-46.3c-0.1-7.6-0.2-15.1-0.3-22.3c-0.1-6.9-0.1-13.6-0.2-19.8c0.3-3.4,0.6-7.2,1-11.2
				C9.7,8.4,13.6,8.7,17.7,9c0.5,0,1,0.1,1.4,0.1c0.7,0,1.5,0.1,2.3,0.1c1.6,0.1,3.2,0.1,4.9,0.2c3.3,0.1,6.7,0.2,10.2,0.3
				c14,0.3,29.6,0.5,46.8,0.3C119,9.4,140,6.8,167.6,6c15.1,0.6,26.1-0.2,42.2-0.2C234,6,261.6,7.1,296.7,6.5
				c-4.9,1.7-4.8,2.9-12.4,4.2C287.8,11.2,299.1,11.2,299.2,11.9z M9.3,643.9c0.4,0.8,0.6,3.9,1.1,2.5c-0.6,13,0.3,28.5,0.8,39.7
				c0.1,14.3,0.2,27.3,0.4,39.9c0.1,6.1,0.2,12.1,0.3,18.1c0.1,2.2,0.2,4.4,0.3,6.7c1.4,0,2.7-0.1,4.2-0.1c0.7,0,1.4,0,2.1,0
				c1.5,0,2.9,0,4.4,0c7.7,0.2,12.8,0.6,19.9,0.8c25.4,0.1,50.6,0.2,74.5,0.3c25.8,0.1,52.7-0.3,76.9-0.3c26.9,0,54.2,1.3,76.9,0.2
				c26.8,0.2,64,1.2,86.9,0.6c22.3,0.9,60,0.6,89.4,1.3c57-0.6,93-2.9,156.3-1.5c-22.1,1-55.8,0.2-72,1.5c-23.7-0.3-45.5,0.9-62,1.3
				c-14.2,0.3-32.2,0.3-47.2,0.6c-18.2,0.4-28.5,1.1-57.1,1.1c-11.3,0-22.1,0-34.7,0c-26.3,0-55.7-0.9-76.9-0.8
				c-5.8,0-11.7,0.4-17.4,0.3c-13.4-0.1-29.7-0.8-44.7-0.8c-2.3,0-10,0.3-12.4,0.3c-7.4-0.1-15.3-0.5-22.3-0.6
				c-22.1-0.4-47.8-0.5-74.9-0.5c-23.9,0-49-0.1-73.4-0.1c0-2.4,0-4.7,0-7.1c0.1-4.9,0.1-9.5,0.2-14.1c0.1-5.7,0.1-11.4,0.1-17.3
				c0-8-0.4-16.7-0.3-24.8C8.7,674.7,9.8,660.8,9.3,643.9z M459.6,749c6.8,0,5-0.3,9.9,0C471.5,749.6,457.7,749.6,459.6,749z"/>
			<path class="st2" d="M793.1-12.4c5.2-0.1,8-0.3,12.4-0.5c11.5,0.5,35.7-0.6,44.7,0.3c-35,0.2-61.7,0.2-94.3,0.2
				c2.7-0.3,11.9-0.4,20.4-0.4c4.3,0,8.4,0.1,11.5,0.1S792.9-12.5,793.1-12.4z"/>
			<path class="st2" d="M731-12.9c8.9,0,9.1-0.5,17.4-0.5c-3.3,0.5-14.5,0.6-17.4,1.1C724.6-12.3,734.4-12.5,731-12.9z"/>
			<path class="st2" d="M546.5,772.6c12.1-0.8,43.5-0.4,59.6-1C590,772.5,565.4,772.1,546.5,772.6z"/>
		</g>
	</g>
</g>
<g id="underskugga">
	<path class="st3" d="M1040.5,419.2c0,0,60-12.8,79-30.8s64-49,64-49"/>
	<path class="st4" d="M1040.5,443.2c0,0,77-19.4,101.4-46.8c24.4-27.4,82.1-74.5,82.1-74.5"/>
</g>
<g id="body">
</g>
<g id="fönster">
</g>
<g id="dragspel">
</g>
<g id="skugga">
</g>
<g>
	<g>
		<path class="st5" d="M596,638c-68,6-233-35-233-35c51-15,77-28,77-28l22-7l5-1l93-6L596,638z"/>
		<g>
			<path class="st5" d="M585.2,639.5c12.3-1.1,56.2-6.3,123.3-26.9l16.7-2.8c0.6-0.1,1.1-0.3,1.6-0.6L843,518l29,7l62-45.5l107-32
				c0.9-0.7-26.4-54-26.8-55.2l-21.3-63.2l-69.3,7.3l-45.2-3.7c-1.4-0.1-2.7,0.3-3.8,1.2l-7.7,6l-88.5,0.2l-76.3,8
				c-0.4,0-0.7,0.4-0.6,0.8l1.5,9.4l-79.6,17.7l-106.9,38.2l-2.8,53.8l10,1.8c0,0-1.9,36.9,56.5,166.6
				C581.1,638.5,583.1,639.7,585.2,639.5z"/>
			<path class="st6" d="M239.4,201c19.6-4.9,90.4-20.5,205.6-25.5l27.4-4.8c0.9-0.2,1.9-0.1,2.8,0.1l370.5,91.7h12.4l67,42
				l111.4,33.1c1.8,0.5,3,2.2,3.1,4l1.9,105.9l-111.2,26l-67.9,29.6c-2.1,0.9-4.4,1-6.6,0.3l-15.2-4.9l-137,47l-122.5,28.7
				c-0.6,0.1-1.3-0.3-1.4-0.9l-2.6-14.9l-132.9,16l-186.8,0.1l-34-79l14.4-8c0,0-23.3-54.1-4.6-279.3
				C233.6,204.8,236,201.9,239.4,201z"/>
			<circle class="st7" cx="245.5" cy="459.5" r="6"/>
			<circle class="st8" cx="260.5" cy="459.5" r="6"/>
			<circle class="st8" cx="253.5" cy="472.5" r="6"/>
			<circle class="st7" cx="415.5" cy="453.5" r="6"/>
			<circle class="st8" cx="399.5" cy="453.5" r="6"/>
			<circle class="st8" cx="407.5" cy="466.5" r="6"/>
			<circle class="st9" cx="279.5" cy="472.5" r="6"/>
			<circle class="st9" cx="293.5" cy="472.5" r="6"/>
			<circle class="st9" cx="380.5" cy="471.5" r="6"/>
			<circle class="st9" cx="365.5" cy="471.5" r="6"/>
			
				<rect x="302.5" y="456.5" transform="matrix(0.9989 -4.581759e-02 4.581759e-02 0.9989 -21.0508 15.5873)" class="st10" width="54" height="21"/>
			<path class="st11" d="M576.7,283l258.7,40.7l8.2,110.8L763,445.7l-9.5,82.8l-50,17c0,0,11.9-90.5,10.5-95.2l-123.5,3.2L576.7,283
				z"/>
			<path class="st11" d="M863,329l94.2,25.3l2.8,71.2l-29.1,4.6l-2.6,44.3l-18,6.6c0,0,3.3-45.1,2.8-48l-44.7,5.8L863,329z"/>
			<path class="st10" d="M473.5,237c-3,9.5-3.4,16.5-7.5,16.5s-6.1-7.5-7.5-16.5c-1.2-8,1.4-14.8,7.5-16.5
				C470,219.4,476.2,228.3,473.5,237z"/>
			<path class="st11" d="M234.6,250.4c-1.8,29.8-8.9,155.7-2,188.8c0.8,4,4.4,6.7,8.4,6.5l177.3-7.5c3.6-0.2,6.5-3.2,6.3-6.9
				c-1.6-30.1-7.8-154.4-0.8-200.8c0.6-3.9-2-7.5-5.9-8.1c-17.4-2.7-68.9-5.8-176.7,19.9C237.5,243.4,234.8,246.6,234.6,250.4z"/>
			<path class="st4" d="M238.1,451l185.4-7.6c0.8,0,1.5,0.6,1.5,1.4V479c0,0.6-0.5,1.1-1.1,1.1l-185.8,6.7c-0.8,0-1.5-0.6-1.5-1.4
				v-32.6C236.6,451.8,237.3,451.1,238.1,451z"/>
			<path class="st12" d="M436.5,224.5c0,0,45.5,57.5,46.5,65.5s16,138,12,144c-3.1,4.7-34.8,28.2-48.8,38.6c-3,2.2-7.3,0.4-7.7-3.3
				C434,432.1,417.2,279.5,436.5,224.5z"/>
			<path class="st12" d="M505.2,300.5h42.7c4.6,0,8.4,3.5,8.8,8l12.2,131h-64L496.3,310C496,304.9,500,300.5,505.2,300.5z"/>
			<path class="st12" d="M596.2,314.2l36,4.2c3.5,0.4,6.3,3.3,6.6,6.8l8.1,104.6c0.3,4.1-2.9,7.7-7.1,7.8l-34.5,0.7
				c-4.9,0.1-9.1-3.7-9.4-8.6L588,322.1C587.6,317.4,591.6,313.7,596.2,314.2z"/>
			<path class="st12" d="M653.5,321.6l32.9,4.1c3.5,0.4,6.3,3.3,6.5,6.9l6.1,96.2c0.3,4.2-3,7.8-7.2,7.9l-31.3,0.7
				c-3.9,0.1-7.3-2.9-7.6-6.8l-7.8-100.9C644.8,324.9,648.9,321,653.5,321.6z"/>
			<polygon class="st12" points="718.5,338.5 732.5,338.5 737.5,447.5 723.7,449 			"/>
			<polygon class="st12" points="737.5,338.5 743.5,448.5 756.7,448 749.5,338.5 			"/>
			<path class="st12" d="M774.5,344.2l18.6,0.5c3.2,0.1,5.8,2.6,6.1,5.8l5.9,75c0.3,3.3-2.2,6.3-5.5,6.7l-19.3,2.4
				c-3.6,0.5-6.9-2.3-7.1-6l-3.4-79.6C769.6,346.4,771.8,344.2,774.5,344.2z"/>
			<path class="st12" d="M809.3,343.2l13.9-0.5c3.5-0.1,6.5,2.5,6.8,6.1l5.6,72.6c0.3,3.4-2.2,6.5-5.6,7l-14.4,2.1
				c-3.8,0.5-7.2-2.2-7.5-6l-5.1-74.2C802.7,346.6,805.6,343.4,809.3,343.2z"/>
			<path class="st13" d="M229.7,491.2l206-6.7l25.3-2.7l-5.3,88.7c-0.1,2.3-2,4-4.3,4H253.8c-2.5,0-4.7-1.5-5.6-3.8l-27.3-68.9
				c-1-2.6,0-5.7,2.5-7.1L229.7,491.2z"/>
			<polyline class="st4" points="504.5,439.5 504.5,481.5 461,481.5 			"/>
			<line class="st4" x1="504.5" y1="567" x2="504.5" y2="481.5"/>
			<polyline class="st4" points="504.5,500.5 568.5,500.5 568.5,559.5 568.5,500.5 568.5,439.5 			"/>
			<path class="st14" d="M585.5,534c1-5.5,7.4-16.7,11-17.5c22-5,56.3-6.9,89.7,0.2c0,0-1.3,35.3-8,39.3l-99.6,20.3
				c-0.7,0.1-1.3-0.2-1.6-0.8l-1.4-3.2c-0.7-1.7-0.4-3.6,0.7-5l3-3.5c0.1-0.1,0.2-0.2,0.3-0.2l5.4-1.9c0.3-0.1,0.4-0.3,0.4-0.6V534z
				"/>
			<circle class="st10" cx="499.5" cy="477.5" r="2"/>
			<circle class="st10" cx="508.5" cy="504.5" r="2"/>
			<circle class="st10" cx="564.5" cy="504.5" r="2"/>
			<circle class="st10" cx="508.5" cy="562.5" r="2"/>
			<circle class="st10" cx="564.5" cy="556.5" r="2"/>
			<circle class="st10" cx="456.5" cy="486.5" r="2"/>
			<circle class="st10" cx="450.5" cy="570.5" r="2"/>
			<circle class="st10" cx="454.5" cy="522.5" r="2"/>
			<circle class="st10" cx="427.5" cy="489.5" r="2"/>
			<path class="st12" d="M871.2,341.3l8.1,1.7c1.3,0.3,2.2,1.4,2.3,2.7l5.4,86c0.1,1.5-1,2.9-2.6,3.1l-9.9,1.3
				c-1.7,0.2-3.2-1.1-3.3-2.8l-3.7-89C867.6,342.4,869.3,340.9,871.2,341.3z"/>
			<path class="st12" d="M889.2,345.3l8,1.7c1.3,0.3,2.2,1.4,2.3,2.7l4.3,79.9c0.1,1.6-1.1,3-2.7,3.1l-8.9,0.6
				c-1.6,0.1-3.1-1.2-3.1-2.8l-3.4-82.2C885.6,346.4,887.3,344.9,889.2,345.3z"/>
			<path class="st12" d="M917.6,363.6L917.6,363.6c0.3,0.1,0.5,0.3,0.5,0.5l1.4,66c0,0.3-0.2,0.5-0.5,0.5l-1.8,0.3
				c-0.3,0-0.6-0.2-0.6-0.5l-1.5-64.7C915,364.3,916.3,363.3,917.6,363.6z"/>
			<path class="st12" d="M922.2,364.3l1.1,0.3c0.4,0.1,0.7,0.5,0.8,0.9l1.4,64.3c0,0.5-0.3,0.9-0.8,1l-1,0.1
				c-0.6,0.1-1.1-0.4-1.1-0.9l-1.6-64.7C921,364.6,921.6,364.1,922.2,364.3z"/>
			<path class="st12" d="M945.8,354.9l7.2,1.3c0.9,0.2,1.5,0.9,1.5,1.7l3.3,63.4c0.1,1-0.7,1.9-1.7,2l-8.2,0.5c-1.1,0.1-2-0.7-2-1.8
				l-2.3-65.2C943.5,355.6,944.6,354.7,945.8,354.9z"/>
			<path class="st12" d="M933.8,353.8l5.1,0.5c1.5,0.1,2.6,1.3,2.7,2.8l2.8,64.5c0.1,1.6-1.2,3-2.8,3.1l-5.6,0.2
				c-1.6,0.1-3-1.2-3.1-2.8l-2.3-65.2C930.6,355.1,932.1,353.6,933.8,353.8z"/>
			<path class="st11" d="M967,358l51.5,17l1.5,47.8l-15.9,3.1l-1.4,29.7l-10.2,2.9c0,0,2.1-28.8,1.8-30.7l-24.4,3.9L967,358z"/>
			<path class="st12" d="M971.5,366.2l4.5,1.2c0.7,0.2,1.1,0.7,1.2,1.4l3,58.5c0,0.8-0.5,1.5-1.3,1.6l-5.5,0.9
				c-0.9,0.1-1.8-0.5-1.8-1.5l-2.1-60.6C969.5,366.8,970.5,366,971.5,366.2z"/>
			<path class="st12" d="M981.6,369l4,1.1c0.8,0.2,1.3,0.9,1.3,1.7l2.4,54c0,1-0.7,1.8-1.7,1.9l-4.5,0.4c-1,0.1-1.9-0.7-2-1.7
				l-1.9-55.4C979.3,369.6,980.5,368.7,981.6,369z"/>
			<path class="st12" d="M996.4,376.3l0.7,0.2l0.8,47.6c-0.4,0.4-0.5,1.3-1.3,1.4l-0.1,0l-1.1-48.4
				C995.4,376.5,995.9,376.2,996.4,376.3z"/>
			<path class="st12" d="M998.7,377l0.6,0.2c0.6,0.2,1.1,0.8,1.1,1.4l0.7,45.3c0,0.8-0.6,1.6-1.5,1.6l-0.1,0L998.7,377z"/>
			<path class="st12" d="M1012.7,376.5l3,0.8c0.7,0.2,1.1,0.7,1.1,1.4l1.5,40.5c0,0.7-0.5,1.4-1.2,1.5l-2,0.4
				c-0.9,0.2-1.8-0.5-1.8-1.4l-2.6-41.7C1010.8,377,1011.7,376.3,1012.7,376.5z"/>
			<path class="st12" d="M1006.4,374.7l1.6,0.4c0.9,0.2,1.6,1,1.6,2l1.8,42.5c0,1.1-0.7,2-1.8,2.2l-2,0.3c-1.3,0.2-2.4-0.8-2.4-2
				l-1.5-43.2C1003.7,375.4,1005,374.3,1006.4,374.7z"/>
			<polygon class="st10" points="1036.2,349.2 1040,349.2 1048.2,361.5 1050.5,361.5 1050.5,385 1043.4,385 1043.4,365 
				1045.5,362.2 1039.2,353.5 1036.2,354 			"/>
			<path d="M467,239.7l-1,3.3c0,0-16,4.9-20,16.9l5,10l-0.9,43c-0.1,2.8-2.4,5.1-5.2,5.1h-12.1c-2.6,0-4.8-2.1-4.8-4.8
				c-0.2-15.7,0.1-31.3,1.1-45.3c0,0-4.2-23.2,30-35.7C463.7,230.6,468.3,234.9,467,239.7z"/>
			<path d="M585,534c0.8,0.2,2.8-16.3,14-18c0,0,5-1,5-1l67.9-12.3c0.1,0,0.1,0,0.2,0c1.1-0.4,13.5-4.5,15.8,14.1
				c0.1,0.6-0.5,1.1-1.1,1C652.3,511.3,616.4,516.8,585,534z"/>
			<path class="st12" d="M239.2,252.9c-1.7,27.2-8.5,141.9-1.9,172.1c0.8,3.6,4.2,6.1,8.1,6l169.3-6.8c3.5-0.1,6.2-3,6-6.3
				c-1.6-27.4-3.1-137.4-2.1-182.4c0.1-3.6-0.6-7.4-4.3-7.9c-16.6-2.4-65.8-5.3-168.7,18.2C242,246.6,239.4,249.5,239.2,252.9z"/>
			<path class="st14" d="M871.4,500.1l37.5-14.4c2.4-1.6,1-10.7,1-10.7c-13.7,1-27.2,4.4-35.7,7.5c-1.4,0.5-3.3,3.9-3.4,5.4l1.5,6.9
				c0,0.1,0,0.1-0.1,0.2l-2,1c0,0.1-0.1,0.1-0.1,0.2l0.4,3.4C870.4,500,871,500.3,871.4,500.1z"/>
			<path d="M870.6,487.9c0.3,0,0.2-4.4,4.6-5.8c0,0,1.9-0.7,1.9-0.7l26.3-8.9c0,0,0,0,0.1,0c0.4-0.2,5.1-2.3,7,2.3
				c0.1,0.2-0.1,0.3-0.4,0.4C896.2,476.5,882.2,480.9,870.6,487.9z"/>
			<path class="st14" d="M971,464.3l20.1-5c1.3-0.7,1.2-5.4,1.2-5.4c-7.1-0.3-14.2,0.5-18.8,1.6c-0.7,0.2-2,1.8-2.1,2.6l0.3,3.6
				c0,0,0,0.1-0.1,0.1l-1.1,0.4c0,0,0,0.1-0.1,0.1l0,1.8C970.5,464.2,970.7,464.4,971,464.3z"/>
			<path d="M971.3,458c0.2,0,0.4-2.2,2.7-2.7c0,0,1-0.2,1-0.2l14.1-2.9c0,0,0,0,0,0c0.2-0.1,2.8-0.8,3.5,1.6c0,0.1-0.1,0.2-0.2,0.2
				C985.2,453.7,977.7,455.1,971.3,458z"/>
		</g>
		<circle cx="668" cy="539" r="4.5"/>
		<circle cx="612" cy="552" r="4.5"/>
		<path class="st6" d="M596.4,559.9l-0.8-15c0-0.8-0.7-1.4-1.5-1.4h-5c-0.8,0-1.5,0.7-1.5,1.5v15.5c0,0.5,0.4,1,1,1h6.4
			C595.8,561.5,596.5,560.8,596.4,559.9z"/>
		<polygon class="st6" points="681.5,547.5 681.5,529.5 675.5,530.5 676.5,548.5 		"/>
		<path class="st15" d="M587,533c0,0,22.5-12.5,43.5-15.5c0,0,34.5-6.5,52.5-0.5L587,533z"/>
		<path d="M586.5,534.5c32.7-6.9,66.3-12.9,101-18"/>
		<path class="st10" d="M837.5,260.5c0,0-3.2,4.8-0.5,11.5l8.7,153.3c0,0-2.4,68.2-8.2,74.2"/>
		<path class="st10" d="M840.5,261.5c0,0-4.2,5.8-1.5,12.5l8.7,153.3c0,0-0.4,65.2-6.2,71.2"/>
		<path class="st10" d="M842.5,261.5c0,0-3.2,5.8-0.5,12.5l8.7,153.3c0,0-2.2,67.2-5.2,73.2"/>
		<path class="st10" d="M845.5,262.5c1-0.6-2.9,6.8,0,15L856,427.6c0,0-0.8,67.9-6.5,73.9"/>
		<path class="st10" d="M848.5,262.5c0,0,2.7,8.4,0,15l11,148c0,0,4,71-4,78"/>
		<path class="st10" d="M851.5,262.5c0,0,2.7,4.8,0,11.5l12,152.5c0,0,1.1,69.8-3,77"/>
		<path class="st10" d="M855.5,262.5c0,0,2.7,6.8,0,13.5l12,152.5c0,0-0.2,64.9-2,73"/>
		<path class="st10" d="M954.5,313.5c0,0,4,4,4,8l3,103c0,0-1,38,0,42"/>
		<path class="st10" d="M956.5,313.5c0,0,6.7,3.8,4,8l4,105c0,0,0,35-1,39"/>
		<path class="st10" d="M958.5,314.5c0,0,6.7,2.8,4,7l4,105c0,0,0,34-1,39"/>
		<path class="st10" d="M961.5,315.5c0,0,5.7,1.8,3,6l4,106c0,0,0,33-1,37"/>
		<path class="st13" d="M246.5,545.5"/>
		<path class="st4" d="M421.5,574.5c0,0-135,42-217,50l-205-1"/>
		<path class="st16" d="M577,559c0,0-248.4,119.6-357,132H0"/>
		<polyline class="st4" points="0.1,87.9 469.2,79.6 750.7,127.1 913,183.2 1019.5,216.6 		"/>
		<path class="st17" d="M417.5,279.5c0.8,0.1,0-11.2,0-12c0.3-13.7,0-24,0.5-31.5c0.3-4.9-1-9-7-10c-20.6-3.4-71.6-3.6-166,20
			c-3.5,0.9-6,3.7-6.3,6.8c-0.6,8.3-1.8,25.8-2.8,46.3c4.5-1.2,9.2-2.2,14-2.9C307.6,287.1,365.9,275.8,417.5,279.5z"/>
		<path d="M593.5,199.5l-27.4-16l1.1-8.6c0,0,26-2.8,4.9-15.8L604,108l61.8,10.5l15.4,12.8l10.8-1.1L671,114L529.2,89.8l-19.9,5.1
			l7.1,5.6l16.4-5.6l62.7,10.8l-31.2,52.9c0,0-23.3,4.1-4.2,15.4l-0.4,8.7l-17.3,4.8"/>
		<circle cx="902.1" cy="481.5" r="1.7"/>
		<circle cx="882.4" cy="490.6" r="1.7"/>
		<path class="st6" d="M877.3,494.7l-1.5-5.5c-0.1-0.3-0.4-0.5-0.7-0.4l-1.9,0.4c-0.3,0.1-0.5,0.4-0.4,0.7l1.2,5.7
			c0,0.2,0.2,0.3,0.4,0.3l2.4-0.5C877.2,495.4,877.4,495,877.3,494.7z"/>
		<polygon class="st6" points="907.8,483.6 906.4,476.9 904.2,477.7 906,484.3 		"/>
		<circle cx="987.8" cy="457.4" r="0.7"/>
		<circle cx="976.4" cy="460.5" r="0.7"/>
		<path class="st18" d="M974.2,462.1l-0.4-2.3c0-0.1-0.1-0.2-0.3-0.2l-0.8,0.1c-0.1,0-0.2,0.1-0.2,0.3l0.3,2.4
			c0,0.1,0.1,0.1,0.2,0.1l1-0.1C974.1,462.3,974.2,462.2,974.2,462.1z"/>
		<path class="st18" d="M990.9,458.2l0.1-2.3c0-0.1-0.1-0.2-0.2-0.2l-0.8-0.1c-0.1,0-0.2,0.1-0.2,0.2l-0.2,2.4
			c0,0.1,0.1,0.2,0.1,0.2l1,0.1C990.8,458.5,990.9,458.4,990.9,458.2z"/>
	</g>
</g>
<path class="st4" d="M232.5,529.5c0,0,172,2,180-3c0,0-11-25,6-31"/>
<path class="st9" d="M407.8,515.1l-13.2,0.5l1.2,11.1c4.6,0.4,9.5,0,14.7-1.1L407.8,515.1z"/>
<path class="st9" d="M246.9,516.3l-15.4,0.2l3.1,11.1c4.6,0,8.7,0.4,13.9-0.1L246.9,516.3z"/>
<polygon class="st10" points="232.5,488.5 434.5,481.5 461.5,479.5 437.5,482.5 "/>
<polygon points="391.5,433.3 375.6,418.3 252.4,412.5 386,412.2 388.7,417 378.8,417 394.9,432.1 "/>
<polygon points="260.2,438.9 274.8,422.7 397.1,406.5 263.9,417.4 261.6,422.5 271.5,421.7 256.7,438 "/>
<ellipse cx="259" cy="437.5" rx="3" ry="2.5"/>
<ellipse cx="393" cy="432.5" rx="3" ry="2.5"/>
<circle cx="274.5" cy="422.5" r="1.5"/>
<circle cx="375.5" cy="418.5" r="1.5"/>
<path d="M229.4,233c-3.8,2-16.5,9.3-13.9,19.5L214,255c-1.2,0-5.1,4.8-5,6l1,53c0.1,1.2,4.9,3.5,6,3l9.5-2.5l3-62
	c0,0-2.5-3.5-4.5-4.5c-2.4-1.2,4-5.6,5.5-8.5c0.7-1.4,0.9-4.2,1-5.8C230.5,233.1,229.9,232.8,229.4,233z"/>
<polygon class="st12" points="1043.5,363.5 1046.5,361.5 1048.5,361.5 1048.5,381.5 1043.5,381.5 "/>
<path class="st19" d="M752.5,526.5l2,2c0,0,3,2.4-1,4s-43,13-43,13s-4.1,1.4-9-2L752.5,526.5z"/>
<path class="st19" d="M912.5,480.5c0,0,14-5.2,16-6s0-1,0-1h-3c0,0-14.8,5-15,5C910.5,478.5,911.5,480.5,912.5,480.5z"/>
<path class="st19" d="M994.3,457.5c0.1,0,0.3,0,0.4,0c1.1-0.3,5.8-1.4,6.8-1.9c1.1-0.6,1-1,1-1l-1.8-0.9c-0.1-0.1-0.2-0.1-0.4,0
	c-0.7,0.2-3.6,1-6.2,1.8C991.6,456,991.7,457,994.3,457.5C994.2,457.4,994.2,457.4,994.3,457.5z"/>
<path class="st4" d="M734.5,332.5c0.3,0,11.3,192.1,1,199"/>
<path class="st4" d="M714.5,439.5"/>
<path class="st4" d="M757.5,332.5h-48C709.5,332.5,733.5,327.5,757.5,332.5z"/>
<path class="st4" d="M913.5,357.5l5,1c0,0,2,112,2,114s-0.6,2.6-0.6,2.6"/>
<line class="st4" x1="918.5" y1="358.5" x2="923.5" y2="360.5"/>
<polyline class="st20" points="997.7,454.3 998.5,423.5 996.5,372.5 994.5,372.5 994.5,372.5 999.5,373.5 "/>
<path class="st10" d="M821.1,316.4l-237.4-40.5c-4.7-0.8-8.2-4.9-8.2-9.7v-24.7c0-6.6,4.7-11.8,11-10L825,291.1
	c3.9,1.1,6.7,4.6,7,8.7l0.5,6.2C833,312.3,827.4,317.5,821.1,316.4z"/>
<g>
	<g>
		<path d="M1095.1,630.3c0.5-1.3,1-2.5,2.5-3.1c0.5-0.2,1,0,1.6,0.2c0.5,0.5,0.5,1.6,0.5,2c0,1.6-0.2,3.1-0.5,4.6
			c-0.2,1.6-0.7,2.8-0.7,4.3c0,2.3,1.8,4.3,3.8,5.1c2.5,1.3,5.7,1,8.2,0.5c0.7-0.2,0.7-1.6-0.2-1.6c-3.1,0.2-6.1,0.7-8.7-1.3
			c-1-0.7-1.6-2-1.6-3.4c0-1.8,0.7-3.4,1-4.8c0.2-1.6,0.2-3.1,0.2-4.8c0-1-0.5-2-1.6-2.3c-2.5-0.7-4.1,1.8-4.8,3.8
			C1094,630.3,1094.8,630.5,1095.1,630.3L1095.1,630.3z"/>
	</g>
</g>
<g>
	<g>
		<path d="M1115.3,624.9c-2.5,1-4.6,3.6-5.1,6.4c-0.5,2.8,0.7,5.7,3.1,7.5c2.3,1.8,5.4,1.8,7.7,0.2c2.3-1.6,3.8-4.3,2.8-7.2
			c-1-2.8-4.6-5.1-7.5-3.6c-0.7,0.5-0.5,1.8,0.5,1.8c1,0,1.8-0.2,2.8,0.2c0.7,0.5,1.6,1,2,1.8c1,1.8,0.2,3.8-1.3,5.1
			c-3.8,3.1-8.7-0.7-8.4-5.1c0-2.5,1.8-5.1,3.8-6.6C1116,625.2,1115.5,624.6,1115.3,624.9L1115.3,624.9z"/>
	</g>
</g>
<g>
	<g>
		<path d="M1075.1,615.7c4.3-14.8,7.2-30,7.9-45.5c-0.5,0.2-1.3,0.2-1.8,0.5c4.1,6.4,5.1,14.6,6.6,21.8c1.8,7.9,3.6,16.1,5.4,24.1
			c0.5-0.2,1.3-0.5,1.8-0.7c-3.6-8.2-12-11.8-20-14.8c0,0.5-0.2,1.3-0.2,1.8c7.5-1,15.1-2.3,22.3-4.3c1.3-0.2,0.7-2-0.5-1.8
			c-7.2,1.8-14.6,3.6-22,4.6c-1,0.2-0.7,1.6,0,1.8c7.2,3.1,15.1,6.6,18.7,14.1c0.5,1,2,0.2,1.8-0.7c-1.8-8.2-3.6-16.6-5.7-24.8
			c-1.6-7.2-2.5-15.1-6.9-21.5c-0.5-0.7-1.8-0.5-1.8,0.5c-0.7,15.4-2.8,30.4-7.2,45.2C1073.8,616,1074.9,616.5,1075.1,615.7
			L1075.1,615.7z"/>
	</g>
</g>
<g>
	<g>
		<path d="M1092,569.9c0.5,7.2,1.8,14.1,3.1,20.9c1.3,7.2,2.8,14.3,4.3,21.5c0.2,0.5,1,1,1.6,0.7c1.8-1.3,2.5-3.4,2-5.4
			c-0.5-1.3-2.3-0.7-2,0.5c0.2,1.3,0,2.3-1,3.1c0.5,0.2,1,0.5,1.6,0.7c-1.6-6.9-3.1-14.1-4.6-20.9c-1.3-6.9-2.3-14.1-3.8-21.2
			C1093.3,569.2,1092,569.4,1092,569.9L1092,569.9z"/>
	</g>
</g>
<g>
	<g>
		<path d="M1124,619.5c0.4,1.4,1.3,2.6,2.1,3.8c0.7,1.2,1.4,2.4,2.1,3.6c0.7,1.2,1.4,2.4,2,3.7c0.4,0.7,0.7,1.3,1.1,2
			c0.3,0.6,0.6,1.4,1.2,1.9c0.5,0.4,1.7,0.2,1.6-0.7c-0.1-0.8-0.5-1.3-0.8-2c-0.4-0.7-0.7-1.3-1.1-1.9c-0.7-1.2-1.5-2.5-2.2-3.7
			c-0.8-1.2-1.5-2.5-2.3-3.7c-0.7-1.2-1.5-2.6-2.6-3.6C1124.6,618.5,1123.8,618.9,1124,619.5L1124,619.5z"/>
	</g>
</g>
<g>
	<g>
		<path d="M1134.8,614c-1,1-2,2.4-1.9,3.9c0.1,1.5,1.3,2.6,2.8,2.8c2.6,0.4,5.7-0.7,8,1.1c1,0.8,1.6,2.2,1.1,3.5
			c-0.4,1-1.6,1.6-2.7,1.3c-1.3-0.4-1.4-2-1.2-3.1c0.2-1.6,1-3,1.3-4.6c0.5-3.2-1.4-7-4.9-7.4c-0.9-0.1-1.2,1.3-0.5,1.7
			c1.3,0.7,2.4,1.4,3,2.8c0.7,1.5,0.3,3-0.2,4.4c-0.5,1.5-1,3-0.8,4.7c0.2,1.5,1.1,2.8,2.5,3.3c2.8,1,5.7-1.4,5.5-4.3
			c-0.2-3.3-3-5-6-5.3c-0.9-0.1-1.8-0.1-2.6,0c-0.7,0-1.5,0.2-2.3,0c-2.2-0.4-0.9-2.8-0.3-4.1C1136,614.1,1135.3,613.5,1134.8,614
			L1134.8,614z"/>
	</g>
</g>
</svg>
