<?xml version="1.0" encoding="utf-8"?>
<!-- Generator: Adobe Illustrator 24.3.0, SVG Export Plug-In . SVG Version: 6.00 Build 0)  -->
<svg version="1.1" id="Lager_1" xmlns="http://www.w3.org/2000/svg" xmlns:xlink="http://www.w3.org/1999/xlink" x="0px" y="0px"
	 width="500px" height="500px" viewBox="0 0 500 500" style="enable-background:new 0 0 500 500;" xml:space="preserve">
<style type="text/css">
	.st0{fill:#FFFFFF;}
	.st1{fill-rule:evenodd;clip-rule:evenodd;}
</style>
<g>
	<rect x="-0.4" y="0.6" class="st0" width="500" height="500"/>
	<g>
		<g>
			<path class="st1" d="M47,305.6c-1.1-3,0.6-4.7,0.7-6.9c0.2-2.7-0.8-4.9,0-7.7C49,295.6,48.1,302.8,47,305.6z"/>
			<path class="st1" d="M46,43.7c-0.3-0.6,0.1-0.3,0.2-0.5c0.1-0.1,0.2-0.4,0.3-0.5c0.3-0.1,0.6,0.3,0.7,0.2c0.1,0,0-0.9,0.4-0.2
				c-0.1,0.7-0.3,0.9-0.6,0.9C46.7,43.6,46.2,43.4,46,43.7z"/>
			<path class="st1" d="M245.6,36.9c-0.4,0.3-7.7,0.6-6.9-0.2C241.2,36.7,244.3,36.6,245.6,36.9z"/>
			<path class="st1" d="M267.8,36c-0.5-0.5,5.9-0.9,5.1,0C271.4,36.5,269.8,36.1,267.8,36z"/>
			<path class="st1" d="M349.2,33.1c-0.9,0.6-2.9,0.8-6,0.7v-0.7C344.4,32.8,348.1,32.8,349.2,33.1z"/>
			<path class="st1" d="M139.6,499.7c0.4-0.5,4.2-0.1,6-0.2C145.6,500.2,140.8,500.1,139.6,499.7z"/>
			<path class="st1" d="M68.5,500c2.5-0.1,2.6,0.5,5.1,0.5C73.3,501.3,67.4,501,68.5,500z"/>
			<path class="st1" d="M6.1,501.4c2.2-0.1,1.5,0.4,4.2,0.2C9.6,502.4,4.5,502.3,6.1,501.4z"/>
			<path class="st1" d="M303.3,509.1c-0.2,0.9-3,0.7-5.1,0.5C298.2,509,301,509.1,303.3,509.1z"/>
			<path class="st1" d="M515.5,127.9c0.8,0.4,0.9,5.9,0.5,7.7c-0.5-0.2-0.1-2.7-0.2-4.3C515.7,130.9,514.8,129.1,515.5,127.9z"/>
			<path class="st1" d="M117.3,522.8c-1.7,0-3.4,0-5.1,0C112.1,522,118,521.7,117.3,522.8z"/>
			<path class="st1" d="M129.3,522.3c-1.7,0.8-6.6,1.3-9.4,0.5C120.5,521.9,126.1,522.5,129.3,522.3z"/>
			<path class="st1" d="M42.3-21.9c-1.2-0.7,1.1-1,3.7-1c0.6,0,1.3,0,1.9,0c0.2,0,0.3,0,0.5,0c0.1,0,0.2,0,0.3,0
				c0.2,0,0.4,0.1,0.5,0.1c0.7,0.1,1.1,0.3,1,0.6c-0.7,0-1.2,0-1.7,0c-0.6,0-1.2,0.1-1.7,0.1C45.7-21.9,44.5-21.8,42.3-21.9z"/>
			<path class="st1" d="M406.9,531.4c0.7,0.9-3.8,0.8-5.1,0.5C401.9,531.3,404.7,531.4,406.9,531.4z"/>
			<path class="st1" d="M201.8,29.3c3.1,0,6.9-0.5,10.3-0.5c1,0,1.8,0.2,3.4,0.2c7.7,0.2,17.9,0.1,22.3-0.2c3-0.2,4-0.7,6-1
				c0.7-0.1,2.2-0.2,2.6-0.2c3.4-0.4,4.8,0.2,7.7,0.2c4.3,0.1,10.2-0.5,16.3-0.5c1.3,0,3.1,0.2,4.3,0.2c3.2,0,6.9-0.3,10.3-0.2
				c1.6,0,1.9,0.3,3.4,0.2c0.9,0,2.2-0.3,2.6-0.2c2,0.1,1.8,0.5,3.4,0.5c0.2,0,1.9-0.4,2.6-0.5c3.8-0.2,5.5,0.2,6.9,0.5
				c0.4,0.1,0.6,0.4,0.9,0.5c0.6,0.1,1.9-0.1,2.6,0c1,0.1,1.6,0.4,2.6,0.5c1,0,3.9-0.2,6-0.7c-2.6-0.7-5.1,0.2-7.7,0.2
				c0.3-0.6-2.5-0.3-2.6-0.7c3.6-0.7,8,0.1,12,0c2.3-0.1,3.5-0.6,6-0.5c0,0.2,0.7,0.3,0.9,0.5c0.4,1.5-6.1,1-6,2.4
				c-1-0.4-0.7-1.1-3.4-1c-2.4,0.8-3.7,0.2-6,0.2c-1.1,0-1.2,0.3-2.6,0.2c-1.1,0-1.2-0.3-2.6-0.2c-4,0.1-8.5,1-12,1
				c-2,0-3.3-0.8-5.1-0.5c-2.2,0.2,3.1,0.8-0.9,1c-3.1-0.2-4.8-0.7-6.9-1.2c-1.5,1-6.5,0.5-9.4,0.7c-1.4,0.1-2,0.4-3.4,0.5
				c-10,0.3-20.8-0.6-30.8,0c-1.4,1.3,6.5,0.1,6,1.2c-2.8-0.3-7.2-0.2-11.1-0.2c-1.7,0.1-0.7,0.9-3.4,0.7c0-0.9-6.7-1.8-8.6-0.7
				c0.5,0.4,4.1,0,4.3,0.5c0.2,0.7,0.1,1.3-2.6,1.2c0.6-0.6,1.7-1.2-1.7-1.2c-3.4,0.3,2.5,1.1,0,1.2h-4.3v-1c-2.1-0.3-3.7,0.4-6,0.5
				c-1.1,0-3.1-0.2-4.3-0.2c-3.4,0-7.9,0.6-12,0.7c-2.6,0.1-5.1-0.1-6.9,0c-1.7,0.1-3.4,1.6-5.1,0.2c0.5-0.5,4-0.2,4.3-0.7
				c-4.4-0.5-10.7,0.7-15.4,0c-1.7,0.4,1.5,1-1.7,1.2c-3.7-0.1-6.7,0.4-10.3,0.5c-6.5,0.2-13.8-0.2-18.9,0.2
				c-1.9,0.2-2.5,0.7-4.3,0.7c-2.1,0.1-3.8-0.5-6-0.5c-1.4,0-2.7,0.4-4.3,0.5c-2.9,0.1-6.1-0.3-8.6,0.2c1.3,0.3,3.8,0.2,3.4,1
				c-2.4,0-5.9,0.2-6-0.5c-0.9-0.6,4-0.9,0-1c-1.2-0.1-1.8,0.2-2.6,0.2c-1.3,0.1-1.7-0.1-2.6,0c-3.2,0.2-6.5,1-11.1,0.7
				c-1.9,2.3-14.2-0.1-17.1,1.4c-0.3-1-4.3-1-8.6-1c-0.6,0.6,3.8,1,0.9,1.4c-2.7,0.1-3.4-0.3-5.1-0.5c0-0.5,2.3-0.3,1.7-1
				c-2.2,0.2-7.4-0.5-6.9,0.5c0.2,1.1,4.6-0.4,4.3,0.7c-3.2,1.4-9.1-0.4-11.1-0.5c-0.9,0-2,0-3.1,0.1c-0.6,0-1.2,0.1-1.8,0.1
				c-0.1,0-0.3,0-0.4,0l-0.1,0c-0.1,0-0.2,0-0.2,0c-0.8,0-1.3-0.5-1.6,0.2c-0.5-0.1-0.5-0.8-1.2-0.7c0.4,1.3-1.2,0.3-1.7,0.5
				c-0.1,0,0.1,0.7-0.1,0.7c-0.3,0.1-1-0.2-1.5-0.2c-0.4,0-0.3,0.2-0.6,0.2c-0.8,0-0.7-0.3-0.8,0.2c0,0.6-1.2,0.1-1.7,0.2
				c0.6,0.6,1.1,1.2,1.2,1.4c-0.6-0.4-1-0.6-1.3-0.6c-0.2,0.4,0.3,1.3,0.4,1.9c0.1,0.8,0.4,2,0.2,2.1c-0.1,0.1-0.7-0.6-0.7-0.1
				c0,0.5,0.2,1.1,0.4,1.7c0.2,0.6,0.3,1,0,1.4c0.4,0.3,0.8-0.2,1,0.3c-0.1,0.7,0,1.4,0.1,2c0,0.1,0.1,0.3,0.1,0.4l0,0.1
				c0,0,0,0,0,0l0,0.2l0,0.6c0,0.4,0.1,0.8,0.1,1.2c0.1,1.6,0.2,3.2,0.3,4.9c-1.1,0.6-1.1,5.4-1.2,9.4c0.4,0.8,0.8-2.6,1,0
				c0,4.1,0.8,8.5,0.7,11.1c0,1.2-0.5,2-0.5,3.4c0,1.5,0.4,2.9,0.5,4.3c0,1.2-0.2,3.1-0.2,4.3c0,2.5,0.3,4.3,0.2,6
				c0,1.5-0.4,2.8-0.5,4.3c-0.2,2.6-0.3,6-0.2,8.6c0.1,2,1,3.3,1,6c0,1.3-0.6,1.1-0.5,3.4c1,0.6,0.7,1.6,0.7,2.6
				c0.2,2.5,0.2,8.7,0.2,9.4c0,1.4-0.3,3.8-0.2,5.1c0,1.2,0.4,2.3,0.5,3.4c0.1,0.9-0.2,1.3-0.2,2.6c0,3.1,0.1,10,0.2,13.7
				c0,1.1,0.5,4.5,0.5,4.3c0.1,0.8-0.3,1.1-0.2,1.7c0.2,4.7,0.7,10.2,0.7,14.6c0,1.2-0.4,1.6-0.2,3.4c0,0.3,0.4,1.3,0.5,1.7
				c0.1,1-0.1,2.5,0,3.4c0.2,1,0.5,1.7,0.7,2.6c0.6,2.8,0.3,3.9,0.2,7.7c-0.1,3.3,0.1,7.2,0,9.4c-0.5,0.2-0.5-1-1-0.9
				c-0.3,2.4,0.5,2.8,0.5,5.1c0,1.9-0.5,2.3-0.5,4.3c0.1,1.8,0.3,1.6,0.5,3.4c0.1,1-0.3,5,0.5,4.3c0-3.3,0.1-6.7,0.5-9.4
				c0.2-1.1,0.2-4.4,0.7-3.4c0,1.8-0.1,3-0.2,4.3c-0.3,3.7-0.3,3.7-0.2,6.9c0,0.2-0.3,0.6-0.2,1.7c0.1,2.1,0.2,3.4-0.2,5.1
				c0.3,1.3,0.9,1.3,1.2,2.6c-0.7,3.8,0.2,6.2,0.2,8.6c0,1.4-0.4,2.2-0.2,3.4c0.2,2.1,1,2.7,1,5.1c-0.2,3.6-1.5,4.5-1.9,0.9
				c0.4-4.3,0.7-8.4-0.2-11.1c-0.5,4.9-0.3,10.8,0,12.9c0.4,3.1,0.8,2,1.4,5.1c0.1,0.6,0.2,3.1,0.2,3.4c0,0.3,0.5,2.1,0,2.6
				c-0.5-0.4-0.7-6-1.2-3.4c0.1,3.7,0.8,4.4,1,6.9c0.3,4.7-0.1,10.4,0,15.4c0,1.2,0.4,2.2,0.5,3.4c0,1.3-0.3,3.4-0.2,5.1
				c0.1,2.4,0.2,5.2,1,5.1c0.6-0.6,0.3-3.8,0.5-5.1c0-0.2,0.5-0.5,0.5-0.9c0-2.5-0.7-2.5-0.7-5.1c1.3-3.1,0.3-6.5,0.2-10.3
				c0-1.4,0.2-3.7,0.2-5.1c0-5.6-0.5-11.9-0.5-18c0-1.5,0.3-2.6,0.2-4.3c-0.1-2.2-0.4-4-0.5-6c-0.1-2.2,0.1-4.5,0-6.9
				c-0.1-3.6-0.9-6.9-1-10.3c0-0.9,0.2-1.9,0.2-3.4c0.1-6,0.3-14.7,0-21.4c-0.1-2.3-0.4-3.9-0.5-6c-0.1-5.7-0.3-12.2-0.2-17.1
				c0-1.3,0.3-3,0.2-4.3c-0.1-1.8-0.6-3.2-0.7-5.1c0-0.8,0.2-3.4,0.2-5.1c0.1-4.5-0.2-8-0.2-10.3c0-1.2,0.3-1.6,0.2-3.4
				c-0.1-2.4-0.4-4.6-0.5-6.9c-0.1-3,0.3-5.8,0.2-8.6c0-1.4-0.4-2.7-0.5-4.3c-0.2-4.6,0.2-10.5,0-14.6c-0.1-1.7-0.4-2.6-0.5-4.3
				c-0.1-3.5,0.2-6.6,0.2-10.3c0-5.1-0.5-11.5-0.5-14.6c0-1.2,0.3-3.1,0.2-4.3c0-1.1-0.6-0.9-0.7-2.6c0-0.2,0-3.3,0-3.4
				c0-1.9,0.3-3.1,0.2-5.1c0-2.7-0.2-5.4-0.4-8c-0.1-2.2-0.3-4.3-0.4-5.9c-0.1-0.5,0.2-0.7,0-0.9c-0.4-0.5,0-0.7,0-1.1
				c0-0.2-0.5-0.8-0.5-1.1c0-0.1,0.3,0,0.2-0.2c0-0.3-0.4-0.9-0.2-1.2c0.1-0.1,0.5,0,0.5-0.1c0,0-0.1-0.2-0.3-0.4
				c-0.2-0.2-0.3-0.5-0.4-0.6c-0.1-0.1-0.1-0.2-0.1-0.3c0.1-0.1,0.4,0,0.4-0.1c0.1-0.1-0.1-0.4,0-0.5c0.4-0.2,1.2-0.3,1.9-0.2
				c0.3,0,0.5,0.3,0.7,0.2c0.3-0.1,0.5-0.6,1-0.7c0.4-0.1,0.7,0.2,1.1,0.2c0.3,0,0.6,0,1-0.1c2.1-0.1,4.2-0.2,6.3-0.2
				c4.3-0.2,8.6-0.4,12.7-0.4c-0.4,0.8,0.7,1.1,3.4,1c2.3-0.5-3-1.2,0.9-1.4c4.6,0.6,6.7,0.3,10.3,0c4-0.4,9-0.3,12.8-0.5
				c1.4-0.1,2.1-0.5,3.4-0.5c1.6,0,3,0.3,4.3,0.2c1.1-0.1,2.2-0.5,3.4-0.5c1.3,0,1.9,0.5,3.4,0.5c1.7,0,2.3-0.9,4.3-0.5
				c3.1,0.3,3,1.2,6.9,1.2c2.5-0.7-2.1-0.4-1.7-1.2c4.2-0.1,8.7,0.1,12.9,0c1.4,0,2.8-0.4,4.3-0.5c2.6-0.1,5.9,0.1,8.6,0
				c3.4-0.1,6-0.7,8.6-0.7c1.2,0,3.9,0.3,5.1,0.2c2.3-0.1,3.6-0.7,6-0.7c1.8,0,4.1,0.5,6,0.5c1,0,2.7-0.4,4.3-0.5
				c1.6,0,3.3,0.3,4.3,0.2c1.2-0.1,1.5-0.4,2.6-0.5c3.2-0.4,9-0.5,12.9-0.5c1.6,0,2,0.3,3.4,0.2c1.2,0,2.8-0.4,4.3-0.5
				c1.4-0.1,2.9,0.1,4.3,0c1.7-0.1,2.7-0.4,4.3-0.5c3.4-0.1,11.7-0.2,12.8-0.2c0.7,0,1.2,0.3,1.7,0.2c2.6-0.2,3.2-0.7,5.1-0.7
				c1.5,0,3.6,0.5,5.1,0.5c1.8-0.1,2.9-0.5,5.1-0.7c4.4-0.4,8.7-0.5,9.4,1c2.4-0.1,5.3,0.2,7.7,0c1.8-0.1,2.2-0.7,3.4-1
				c3.6-0.8,12-0.8,17.1-1c1.1,0,1.2,0.3,2.6,0.2c0.5,0,0.7-0.5,1.7-0.5c0,0,0.7,0.5,0.9,0.5c3.3,0.4,7.2-0.7,9.4-0.7
				c2.4,0,4.3,0.9,6,0.5c1.3-0.3,2.8,0.7,3.4-0.2c-1,0-2-0.1-1.7-0.5c2.5-0.3,3.9-0.8,6-0.5c2.1,0.4,2.9,0,4.3,0
				c1.1,0,1.2,0.3,2.6,0.2c1.4-0.1,1.7-0.4,3.4-0.5c1.6,0,4.1,0.3,6,0.2c1.1,0,1.2-0.2,2.6-0.2c1.9,0,3.4,0.3,5.1,0.2
				c2.6-0.1,3.7-1.2,6.9-0.5c0.3,0.6-4.8-0.2-3.4,0.7c2.8,0.4,3.3-0.1,6.9,0c-0.7-0.9,1.7-0.8,2.6-1c2.1-0.5,2.9-0.7,5.1-0.7
				c1.4,0,3.1,0.3,4.3,0.2c2.2-0.1,4.8-0.7,6.9-0.7c2.1,0,3.5,0.5,5.1,0.5c1.4,0,4.9-0.1,6-0.2c1.5-0.2,1.7-0.6,3.4-0.7
				c5.4-0.3,11.2,0.4,16.3-0.5c0.9,0.3,0.8,0.9,2.6,1c2.4-1.3,7.3-1.4,12-1.2c1.2,0,4.1,0.3,5.1,0.2c0.1,0,2.1-0.4,2.6-0.5
				c3.6-0.3,7.7-0.1,11.1-0.2c3.1-0.1,5.3-1.2,7.7,0c-1.5,0.2-4.6,0-4.3,0.7c5.7-0.2,11.3,0.3,16.3-0.2c1.7-0.2,2.5-0.6,4.3-0.7
				c0.7,0,1.2,0,1.7,0.1c0.3,0,0.5,0.1,0.8,0.1c0.2,0,0.4,0,0.7,0.1c2,0.2,2.5-0.4,3.8-0.5c0.4,0,0.5,0.3,1,0.2
				c1.2,0,2.9-0.1,3.5-0.2c0.2,0,0.3-0.6,0.7-0.7c1.1-0.4,2.1,0.3,2.4-0.5c0.2,0.5,0.5,0.9,2.1,0.7c0.7-0.8-0.9-0.6,0.4-1.2
				c2.8-0.3,5.2-0.4,7.8-0.4c0,0.7,0,1.4,0,2.1c0,0.9,0.3,2,0.2,2.5c0,0-0.1,0.3-0.2,0.5c-0.1,0.3-0.2,0.6-0.2,0.6
				c0.2,1.3,1,0.9,1,2.1c-0.6,0.9,0.1,3-0.7,3.5c0.7-0.1,0.9,1,0.9,2.4c0,1.4-0.1,3.1,0,4.4c0.1,1.3,0.6,2.3,0.7,3.2
				c0,0.1,0,0.2,0,0.4c0,0.1-0.1,0.2-0.1,0.5c-0.1,0.5-0.1,1.1-0.1,2c0.1,1.5,0.4,2.8,0.5,4.3c0.1,1.6-0.3,2.6-0.2,3.4
				c0,1.1,0.5,3.1,0.5,4.3c0.1,3.2-0.1,6.4,0,9.4c0.1,3.7,0.6,6.4,0.5,9.4c-0.1,1.5-0.5,2.9-0.5,4.3c0.6-0.3,1-1.8,1.2,0.9
				c-0.4,2.4-1.4,2.5-1.2,6.9c0.2,2.3,1.1-1.9,1.2,1.7c-0.6,7.3,0.4,13.6,0.2,19.7c0,1.3-0.6,0.8-0.7,1.7c-0.1,1.1,0.3,2.3,0.2,4.3
				c-0.1,3.5-0.6,1.5-0.5,4.3c0.1,3,0.9,3,1,6.9c-0.1,1.3-0.6,0.6-0.7,1.7c0-0.3,0.2,5.8,0.2,6c0.3,2.5,1.5,1.5,1.2,4.3
				c0.3,3.7-1.1,1.1-1,4.3c0.6,1.5,0.8-1,1.2,0.9c-0.2,2.6,0.4,2.5,0.2,5.1h-1c0.3,3.5-0.1,5.4,0,10.3c1.8-2.7,0.5,5.1,1.7,6.9
				c-0.2,2.4-1.2,2-1.2,5.1c0.4,1.9,0.9,3.4,1,6c0,1.8-0.5,2.8-0.7,5.1c-0.2,2.6-0.1,6.6,0,6.9c0.3,1.1,0.7,3.1,0.7,4.3
				c0.1,2.7-0.7,5.8-0.2,8.6c-0.1,2.3,1.3-0.8,1,2.6c0,1.9-0.9,0.4-1.2,0.9c-0.4,4,0.6,5.9,0.7,8.6c0.1,1.2-0.2,2.8-0.2,4.3
				c0,2.5,0.5,4.5,0.2,7.7c0.4,0.8,0.8-2.6,1,0c0.3,4.1-0.5,6.8-0.5,11.1c0,2,0.6,3.9,0.7,6c0.1,3.6-0.7,8.5-0.7,10.3
				c-0.1,3.6,0.2,7.7,0.2,11.1c0,2-0.3,4.1-0.2,6c0,0.8,0.5,2.8,0.5,3.4c0.2,4.5-0.3,11.6,0,18c0.1,1.8,0.4,3.4,0.5,5.1
				c0.2,6.8,0.3,15.8,0,20.6c-0.1,1.2-0.4,2-0.5,3.4c-0.1,1.6,0.3,1.9,0.2,3.4c-0.1,2.2-0.6,5.1-0.7,6c-0.3,2.8-0.1,6-0.2,7.7
				c-0.4,4.3-1.8,8.7-0.5,13.7c0.1-1.1,0.3-1.8,0.7-1.7c0.6,1.8-0.3,3.4,0.2,5.1c1.2,0,1.6-2.8,3.1-1.7c0.3,1.7,0.9,2.6,1,5.1
				c1,0.7,0.5-4.1,1.4-3.4c-0.2,2.8-0.2,5.7,0,8.6c0.8,0.4,1.6-1.6,1.9,3.4c0.8,0.1,1.1-3.8,1.7-1.7c-0.7,3.9,0.3,3.8,0.5,6.9
				c0.4,8.6-0.1,17.5-0.2,25.7c-0.1,2.8,0.1,5.3,0,7.7c-0.1,1.1-0.4,1.7-0.5,2.6c-0.2,1.7-0.1,4.2-0.2,6c-0.3,5.1-0.3,6.6,0,9.4
				c0.3,2.5,0.4,3.9,0.7,5.1c0.2,1,0.2,1.6,0.7,1.7c0.8,0.2,0.8-2.2,1.4-2.6c0.4,0,0.1,2.4,0.5,2.6c0.2-4.1,1.3-1,1.9-1.7
				c0.4-0.5,1.1-3.7,1.4-4.3c0.3-0.5,0.6,0,0.7-0.9c0.5-2.7,0.3-7.4,0.5-11.1c0.1-1.1,0.4-1.8,0.5-2.6c0.3-4,0-5.9,1-6.9
				c0.6,0.3,0.7,2.6,1.4,2.6c0.9-3.5,1.7-6.3,1.7-11.1c2.2-3.2,2.5,4.5,1.7,9.4c0.9,1.1,0.9,5.4,1.2,8.6c0.5,2.2,1.2-1.8,1.4,1.7
				c-0.7,4.1-0.3,7.6-0.2,11.1c0.1,2.9-0.3,5.8-0.2,8.6c0,2.1,0.5,3.9,0.5,6c0,1.2-0.2,3-0.2,4.3c0,1.6,0.2,2.6,0.2,3.4
				c0,1.4-0.3,2.8-0.2,4.3c0,3.6,0.1,9.9,0.2,14.6c0,1.2,0.3,3,0.2,3.4c0,1.8-0.5,2.7-0.5,4.3c0,0.9,0.5,2,0.5,3.4
				c0,1.3-0.3,3.1-0.2,4.3c0.1,4.2,0.6,8,0.5,12c1.8-2.4,0.3-9.4,0.5-13.7c0.1-2,0.5-2.7,0.7-4.3c0.4-3.4,0.4-7.2,0.7-10.3
				c0-1.7-0.9,1.5-1-1.7c0.1-5.9,0.1-6.9,0-12.9h1c0.3-3.6-0.5-3.3-0.5-6c1.1-1.3,0.4-4.5,0.5-7.7c0.1-3.6,0.3-10,0.5-11.1
				c0.5-3.1-0.1-4.1-0.2-6.9c-0.1-2.4,0.1-3.9,0-6c1.1,0.8,0.8-1.8,1-3.4c0-0.3,0.4-1.2,0.5-1.7c0.3-1.6,0.6-2.9,0.7-4.3
				c0.2-1.8-0.1-3.6,0-5.1c0.1-1.1,0.3-1.7,0.5-2.6c0.2-1.5,0.1-1.6,0.5-2.6c0.1-0.4,0.4,0.9,0.5,0.9c0.1,0,0.3-1.5,0.5-1.7
				c0.5-0.5,1.1,0.1,1.4-0.9c0.4-1,0.1-3.4,0.7-6c0.3-1.4,1.2-2.1,1.7-3.4c0.2-0.6,0.3-2.8,0.5-3.4c0.1-0.4,0.4,1,0.5,0.9
				c0.5-0.5-0.1-2.3,0-3.4c0-0.3,0.4,0.9,0.5,0.9c0-0.1,0.2-2.4,0.2-2.6c0.1-0.5,0.1-1.3,0.2-1.7c0.1-0.2,0.7-0.7,0.7-0.9
				c0.2-1.4-0.3-2.8-0.2-3.4c0-0.8,0.6-0.7,0.5-2.6c0-1-0.5-1.8-0.5-3.4c0-0.1,0.4-1.1,0.5-1.7c0.1-1.3-0.1-3,0-4.3
				c0.2-1.9,0.6-1.8,0.5-3.4c0-0.1-0.5-0.7-0.5-0.9c-0.1-0.8,0.2-2.7,0-3.4c-0.2-0.9-1-0.4-1.2-2.6c-0.3-3.5,0.1-1.5-0.7-2.6
				c-0.1-0.1-0.3-1.8-0.2-1.7c-0.4-0.3-0.8,0.4-1,0.9c-0.2-2.3-0.7-3.7-1-6c-0.7-0.1-1.4,2-1.9,0c0.6-1.6,0.4-5.5,0.7-6.9
				c0.1-0.4,0.7-0.5,0.7-0.9c0.1-0.9-0.1-2.5,0-3.4c0.1-0.8,0.4-1,0.5-2.6c0.1-1.6,0.3-5.1,0.2-6.9c0-0.4-0.7-1-0.7-1.7
				c-0.1-0.9,0.6-3,0.2-4.3c-0.4-1.8-1.2-2.3-1.7-4.3c-0.1-0.5,0.1-2,0-2.6c-0.3-2.1-0.8-0.8-1-3.4c-0.1-2,0.4-3.9,0.5-6
				c0-1.3-0.2-3.2-0.2-5.1c0-3.5,0-8.9,0.2-10.3c0.1-1.1,0-1.4,0-1.7c0.1-2.3,0.4-2.7,0.5-4.3c0.1-1.6-0.2-1.9-0.2-3.4
				c0-2.9,0.1-6.9,0.2-9.4c0-1.2,0.4-2.3,0.5-3.4c0.4-4.2-0.1-7,0.2-9.4c0-0.1,0.5-5,0.5-5.1c0-1.5-0.6-2.5-0.5-5.1
				c0.2-4.7,1.2-7.2,1.4-10.3c0.1-1.4-0.2-2.7-0.2-4.3c0-2.3,0.3-4.6,0.2-6.9c-0.1-2.4-1-6.5-0.2-8.6c0.6-1.8-0.3-7.5-0.2-10.3
				c0-1.7,0.3-1.9,0.5-3.4c0.4-4.1-0.1-5.1-0.2-7.7c-0.4-7.7,1.2-10.6,1-16.3c-0.1-2.1-0.7-4-0.7-6c0-1.8,0.6-3.5,0.7-5.1
				c0.2-2.6,0.1-7.6,0.5-11.1c0.2-2.1,0.7-3.4,0.7-5.1c0-1.4-0.2-3.1-0.2-5.1c0-1.5,0.3-4.3,0.2-5.1c-0.1-2.2-0.6-0.4-0.5-2.6
				c0.1-2-0.9-6.7-1-8.6c0-0.3,1.1-3.6,0.2-4.3c0.3,0.3,0.5,1.2,1,0.9c0-1.4,0.6-2.6,0.7-4.3c0.1-1.3-0.3-4.2-0.2-6.9
				c0-2.1,0.5-3.5-0.2-4.3c0.1-2,0.8-1.6,0.7-4.3c-0.6,0.1-0.8,1.6-1-0.9c1.2-2.5,0.4-7.6,0.5-11.1c0.1-5,0.9-10.6,0.5-17.1
				c-0.5-2-1.7-4.8-1.2-7.7c0.4,0.1,0.2,2.2,0.7,1.7c0.5-7.9-0.9-6.5-1-11.1c0.5-0.7,0.5,1.8,0.7,1.7c0.2-0.1,0-3,0.7-2.6
				c0.2,3.1,0.5,9.5,0.5,11.1c0,1.1-0.3,1.2-0.2,2.6c0.1,1.2,0.4,2.1,0.5,3.4c0.1,4.3-0.2,9.3,0,13.7c0.1,1.5,0.5,2.8,0.5,4.3
				c0.1,2.6-0.3,5.1-0.2,7.7c0.2,5,0,12.7,0.2,18c0,0.9,0.4,2.3,0.5,3.4c0.2,2.2,0.1,4.4,0.2,6c0.2,1.7,0.7,2.6,0.7,4.3
				c0-0.1-0.5,0.8-0.5,0.9c-0.1,0.8,0.2,1.1,0.2,1.7c1.5-3.1,1.7,3.6,3.1,3.4c0-3.9,0.6-6.1,0.5-10.3c-0.1-2.2-0.5-3.7-0.5-6
				c0-1.4,0.3-2.7,0.5-4.3c0.3-2.8,0-3.6,0-5.1c0-1.1,0.3-1.2,0.2-2.6c0-2.1-0.2-5-0.2-6.9c-0.1-3-0.5-10.8-0.5-12.9
				c0-1.4,0.5-3.7,0.5-5.1c0-1.1-0.4-3.2-0.5-4.3c-0.1-2.8-0.3-7-0.2-9.4c0-1.6,0.3-2.9,0.2-4.3c0-1.4-0.4-2.7-0.5-4.3
				c-0.1-3.1-0.1-7.1,0-11.5c0-3,0.1-6.1,0.1-9.3c0-3.3,0-6.6-0.1-9.7c-0.1-4.4-0.5-8.6-0.5-12.3c0-5.1,0.2-11.4,0.2-16.3
				c0-4.9-0.7-8.4-0.7-13.1c0-3.1,0.2-7,0.4-10.9c-1,0-2-0.1-3-0.1c-5.2-0.1-11.1-0.1-16.1,0c-7,0.1-10.7,0-16.1,0
				c-4,0-8.6,0.3-12.5,0.2c-2.2-0.1-5-0.5-7.3-0.5c-2.2,0-5.4,0.8-8.8,0.7c-0.3,0-1.8-0.5-3.7-0.2c-2.7-0.5,1.1-0.8-1.2-1.2
				c-0.7,0-1.2,0-1.6,0c-0.4,0-0.6,0.1-0.8,0.1c-0.4,0.1-0.5,0.3-0.6,0.4c-0.3,0.3-0.4,0.7-1.8,0.7c-2.1-0.5-4,0.1-5.1,0
				c-1.1-0.1-0.2-0.9-2.6-0.7c-3.4,0.1,0.6,0.7-1.7,1c-2.5-0.6-6.5,0.1-10.3-0.2c-1.7-0.1-2.3-0.6-4.3-0.7c-1,0-1.3,0.2-2.6,0.2
				c-1.3,0-3.4-0.3-4.3-0.2c-2,0-3.2,0.3-5.1,0.2c-1.2,0-0.3-0.3-0.9-0.5c-3.9-1.3-11.9,0.9-13.7,0.5c-0.6-0.1,1.9-0.4,1.7-0.5
				c-2.6,0-5.1,1.4-6.9,0.2c1.3,0,3.2,0.1,3.4-0.2c-4.4-0.7-5.3,0.8-8.6,1c-2,0.1-5.4,0.1-8.6,0c-3.6-0.1-8.7-0.1-11.1-0.2
				c-1.6-0.1-2.7-0.8-4.3-1c-2.3-0.2-8.5-0.2-9.4-0.2c-1.2,0-1.4,0.4-2.6,0.5c0,0-1-0.5-1.7-0.5c-0.4,0-0.8,0.5-1.7,0.5
				c-1.2,0-1.6-0.4-3.4-0.2c-1.7,1-5.6,0.5-12,0.5c-12.5-0.1-26.4,0.1-34.3-0.2c-0.1-0.4,0.1-0.8-1.7-0.7c-1.2,0.3,0.4,0.5-0.9,0.7
				c-0.9,0.2-5.2,0.3-6.9,0.2c-1.2,0-0.3-0.3-0.9-0.5c-2-0.7-9.6,0-10.3,0c-0.2,0-1.9-0.4-2.6-0.5c-5-0.3-7.1,0.5-10.3,0.5
				c-1.2,0-2.8-0.4-4.3-0.5c-0.9,0-2.7,0.2-4.3,0.2c-1.1,0-1.2-0.2-2.6-0.2c-1.2,0-1.7,0.2-3.4,0.2c-1.6,0-1.9-0.2-3.4-0.2
				c-1.2,0-1.5,0.3-3.4,0.2c-2.5-0.1-3.9-0.4-6-0.5c-1.3,0-3,0.3-4.3,0.2c-1.4-0.1-2.9-0.6-4.3-0.7c-1.3-0.1-2.9,0-4.3,0
				c-2.4-0.1-5.4-0.4-7.7-0.5c-1.6,0-1.9,0.3-3.4,0.2c-3.6,0-8.8-0.2-13.7-0.2c-3.4,0-6.7-0.2-9.4-0.2c-3.7,0-5.8,0.4-7.7,0.2
				c-2-0.2-3-0.9-5.1-1c-1.5-0.1-4.1,0.4-6,0.5c-1,0-1.3-0.2-2.6-0.2c-1.2,0-1.6,0.4-3.4,0.2c-1.2-0.1-0.2-0.2-0.9-0.5
				c-1.5-0.5-6.5,0-8.6,0c-6,0-13.2-0.6-18-0.7c-1.3,0-3,0.1-4.3,0c-1.2-0.1-2-0.4-3.4-0.5c-3.3-0.1-6.8,0-8.6,0
				c-0.4,0-1.1-0.3-2.6-0.2c-1.6,0-2.6,0.3-4.3,0.2c-1.7,0-3.5-0.6-5.1-0.7c-1.8-0.1-2.8,0.5-5.1,0.2c-3.3-0.4-4.3,0.2-6.9,0.2
				c-1.2,0-1.9-0.4-3.4-0.5c-1.3,0-2.9,0.2-4.3,0.2c-6.3,0.2-6.6-0.5-10.3-0.7c-0.8,0-2,0.2-3.4,0.2c-2,0-4-0.3-5.1-0.2
				c-1.4,0.1-1.9,0.5-3.4,0.5c-3.9,0-10.1-0.5-14.6-0.5c-1.9,0-2.5,0-3,0c-0.3,0-0.5,0-0.8-0.1c-0.2,0-0.3,0-0.6-0.1
				c-0.3,0-0.7-0.1-1.2-0.1c-6.7-0.7-14-1-18.9-0.2c-3.3-0.3-4.4-0.9-7.1-1c-4-0.1-8.4,0.4-12.3,0.8c-3.8,0.4-7.1,0.5-9.3-0.3
				c3-0.2,10.8,0.4,9.3-0.5c-7.5,0-14.5,0-20.8,0.1c-6.4,0.1-12.2,0.1-17.6-0.1c-0.1,1.3-0.1,2.6-0.2,3.8c-0.4,0-0.2-3-0.3-4.3
				c0.5-0.1,0.6-0.2-0.3-0.4c0,0-0.1,0-0.1,0c-0.5,4.1,0,14.9-0.7,17.4c0.8,1.6,0.7,4.2,0.6,6.9c-0.1,2.7-0.4,5.6-0.1,7.4
				c0.9-3.9-0.2,7.9,0.5,11.3c-0.6-0.7-1-3.2-1.4-0.7c0.3,6.2,0.3,13,0.7,17.1c0.2,1.7,0.7,0.2,0.7,4.3c-0.1,3.4-0.4,3.9-0.5,8.3
				c0,1.2,0,2.6,0,3.9c0,1.2,0.1,2.4,0.1,3.5c0.1,1.5,0,2.6-0.4,2.9c-0.6-0.1-0.3-3.3-1-3.4c-0.3,2.7-0.8,7.4-0.7,10.3
				c0,1.5,0.8,1.8,1,3.4c0.2,1.6,0.2,9,0.2,8.6c0,0.2-0.7-1.8-0.7-1.7c-0.7,1.5,0.4,2.3,0.2,3.4c-0.1,0.4-0.8,0.4-1,0.9
				c-0.2,0.7-0.1,2.6-0.2,3.4c-0.1,2.6,1.5,3.6,1,5.1c-0.3,0-0.2-1.5-0.5-1.7c-0.4,3.6-0.9,7.2-0.7,12.9c0.9,1.3,0-3.8,1-2.6
				c0.4,3.8-0.7,2.6-0.5,6c-0.4,1.5-0.9-1.3-1,2.6c-0.1,2,0.7,0.9,0.7,2.6c-0.7,0.6,0,2.3,0,3.4c0,1.4-0.3,3-0.2,4.3
				c0,0.2,0.4,1.1,0.5,1.7c0.1,1.2,0,3.3-0.2,3.4c-0.5-0.1-0.1-3.6-0.2-5.1c-1.5,1.8-0.6,8.6-0.7,12.9c-0.1,2.1-0.7,3.8-0.7,6
				c0,1.5,0.2,2,0.2,3.4c0.2,4.6,0.2,5.5,0.5,8.6c-1.3,1-0.4,7.5-0.5,11.1c0,0.6-0.4,2.3-0.5,3.4c-0.1,2.1,0.1,4.2,0,6
				c0,0.7-0.4,2.5-0.5,3.4c-0.5,5.4,0.1,6.9-0.7,7.7c-0.5,0.5,0,5.1,0,6c0,1.6-0.3,1.9-0.2,3.4c0,1.1,0.3,1.2,0.2,2.6
				c0,1.2-0.4,1.8-0.5,3.4c0,0.1,0.3,0.7,0.2,1.7c-0.2,3.7-0.2,9.3-0.5,13.7c0.1,1,1.3-1,1,3.4c-0.7,2.5-0.4-2.1-1.2-1.7
				c0.3,4.8-0.4,7.2-0.5,9.4c-0.1,1.1,0.3,1.2,0.2,2.6c-0.1,1.1-0.4,2.1-0.5,3.4c-0.2,4.5-0.6,10.5-0.5,14.6
				c0.1,2.6,0.6,5.3,0.7,7.7c0.2,5.5-0.5,10.2-0.2,16.3h-1.2c-0.3,3.2,0.5,2.8,0.7,4.3c-1.5,0.9-0.6,4.6-0.7,8.6
				c0-0.2-0.2,1.9-0.2,2.6c-0.2,2.5-0.2,5.6,0,7.7c-0.6,2.3-0.6-2.3-1.2,0c0.2,3.4-0.1,6.7,0,10.3c0,1.6,0.3,3,0.2,5.1
				c-0.1,2.6-0.8,5.2-1,7.7c-0.1,1.7,0.3,4.2,0.2,6c-0.1,4.6-0.8,10.2-1,16.3c-0.2,5.1,0,10.8-0.2,15.4c-0.2,4.1-0.9,8.1-1,12
				c0,1.4,0.4,2.8,0.5,4.3c0.2,7.5-1,11.3-1.2,17.1c0,1.4,0.1,2.9,0,4.3c-0.1,1.1-0.5,2.4-0.5,2.6c0,1.7,0.5,3.5,0.5,5.1
				c-0.3,1.8-0.8,2.1-1,4.3c-0.1,1.4,0.3,3.7,0.2,5.1c0,3.1-0.6,6.6-0.7,8.6c0,0.9,0.3,1,0.2,1.7c0,1.2-0.2,5.7-0.2,7.7
				c-0.1,2.5-0.6,5.2-0.7,7.7c-0.1,2.1,0.1,4.5,0,6c-0.1,1.3-0.4,2.3-0.5,3.4c-0.1,1.3,0.3,3,0.2,3.4c0,0.5-0.3,2.5-0.5,3.4
				c0,0.2-0.2,1.3-0.2,1.7c0-0.1-0.5,1.4-0.5,0.9c-0.1,1,0.2,2.2,0.2,4.3c0,1.8-0.3,3.2-0.2,4.3c0,0.7,0.1,1.3,0.1,2
				c0.1,0.8,0.1,1.7,0.2,2.5c0.1,1.7,0.2,3.3,0.2,5c-0.2,7.3-1.2,12.4-1.4,17.2c-0.4,9.1,0,20.6,0,34.1c0,12.1-0.5,25.7-0.5,37.2
				c0.2,0,0.5,0,0.7,0c7.1,0,16.4-0.5,22.6-0.5c11,0,23.8,0.4,35.5,0.6c11.7,0.2,22.1,0.1,27.5-0.8c-1.4,0.2,0-0.9,0.1-1
				c1.9-0.7,3.1-0.5,3.4-1c0.2-0.2-1.4-0.6-1.6-1.2c-0.3-1.5,2.7-0.9-3-1.9c-5.8-1.1-4.9-0.7-14.1-1.4c-4.2-0.3-6.3-0.7-7.7-0.5
				c-0.9,0.2-1.8-0.2-1.5-0.2c-2.2,0-6.4,0.1-9.4,0c-2.2-0.1-4.3-0.4-6-0.5c0.3,0-4.2,0.3-6.4,0.2c-3.7-0.1-6.9-0.6-10.4-0.7
				c-2.7-0.1-6.7,0.1-9.3,0c-3.9-0.1-7.4-0.4-10.9-0.6c0.2-3.1,0.3-6.1,0.3-8.9c0-2.2-0.3-2.5-0.2-6c0.1-3.9,0.7-8.4,1-14.5
				c0.1-3.8-0.2-8.8,0-13.7c0.1-3.3,0.5-5.6,0.5-7.8c0-4-0.3-6.8-0.2-9c0.1-1.5,0.7-4.2,1-6.3c-0.3-4.8-0.3-10.5-0.2-15
				c0-1.9,0.4-4.5,0.5-6c0-0.3,0-0.5,0-0.8c0-0.2,0-0.3,0-0.5c0-0.3-0.1-0.5-0.1-0.7c-0.1-0.5-0.2-0.9-0.1-1.7
				c0.1-2,0.6-1.5,0.7-3.4c-1-3.1-0.2-4.9,0-7.7c0.1-1-0.4-4,0.2-3.4c-0.2,2.1-0.5,4.4,0.5,4.3c0.1-4.3-0.5-6.3-1-8.6
				c0.8-0.4,0.1-3.7,0.5-6c0.3-1.9,0.8-1.1,1-3.4c0.2-4-0.9-8.5,0-11.1c0.6-0.3-0.1,3.9,0.7,2.6c0-2.2-0.6-2.8-0.7-5.1
				c0-1.3,0.4-3.4,0.5-5.1c0.1-1.4-0.3-3-0.2-4.3c0-0.2,0.4-2,0.5-2.6c0.1-1.2-0.1-3.2,0.2-3.4c0.5,0.2,0.2,3.2,0.7,3.4
				c-0.2-4.6,0.4-10.7,0-12c-0.2-0.8-0.1-0.4-0.2-1.7c-0.5-5.5,0.5-5.2,0.5-10.3c0-1.6-0.3-3.2-0.2-4.3c0.2-2.2,1.5-4,0.7-6.9
				c0,0.9-0.4,1.1-0.5,0c0.3-1.8,1-2.9,1.2-5.1c0.3-3.2-0.4-6.2-0.2-9.4c0.1-2.2,0.8-2.5,1-5.1c0-0.4-0.2-3.4-0.2-4.3
				c0-0.8-0.7-2.6,0-3.4c0.7-0.4,0.2,3.2,0.7,3.4c0.4-5.3,0.2-12.4,0.7-15.4c-0.3-1.9-0.6,1.1-0.7-0.9c-0.2-2.6,0.5-9.2,0.5-10.3
				c0-0.4-0.3-0.4-0.2-1.7c0.1-1.3,0.4-1.9,0.5-3.4c0.1-3.3-0.2-7.1,0-10.3c0.1-1.4,0.4-0.7,0.5-2.6c0.1-3.9-0.5-8.9,0.5-12
				c0.3,0,0.2,1.5,0.5,1.7c0.7-4.1,1.2-9.7,0.7-14.6c-0.1-0.8-0.7-1.6-0.7-2.6c0-1.2,0.2-3.6,0.2-5.1c0-2.1-0.2-4,0.2-5.1
				c1-0.3,0.7,3.6,1.4,4.3c0.1-5.2-0.7-4.6-1.2-6.9c-0.5-4.2,0.7-6,1-8.6c0.2-2.6-0.3-5.5,0.5-7.7c0.5,3.3,0.1,9.9,0.2,14.6
				c-0.4,0.1-0.8-0.1-0.7,1.7c-0.5,1.9,0.6,1.2,0.7,2.6c0.2,2.2-0.7,8.5-0.7,14.6c0,2.3,0.3,3.5,0.2,5.1c0,1.5-0.4,3-0.5,4.3
				c-0.1,2.1-0.3,5.7-0.2,6.9c0.1,1.9,0.9,2.1,0.7,4.3c0.1,2.3-0.9,0.7-0.7,3.4c1.2,3-0.4,6.8,0,12c-0.3,0-0.3-1.1-0.7-0.9
				c0.3,4,0.7,7.9,0.7,11.1c0,3.3-0.4,2.5-0.5,4.3c0,0.3,0.4,1.9,0.2,3.4c-0.1,1.6-0.7,2.4-0.7,4.3c0,0,0,3.1,0,3.4
				c0.1,2.9,0.9,6.3,1,9.4c0,0.6-0.4,2.2-0.5,3.4c-0.4,4.7-0.2,7.7,0,11.1c-0.5,0.4-1-2.6-1,0.8c-0.2,4,0.9,1.2,1,2.6
				c-0.9,2.8-0.2,6.6-0.2,10.3c0,1.3-0.4,1.7-0.5,3.4c0-0.2,0.2,1.1,0.2,1.7c0,1.2-0.2,1.9-0.2,2.6c0,2.2,0.3,4.2,0.2,6
				c0,0.9-0.5,2-0.5,2.6c0,4.3,0.6,7.3,0.2,11.1c-0.1,1.6-0.6,2.5-0.7,4.3c-0.2,4.5,0.1,9.3,0.2,14.6c0,0.9-0.2,1-0.2,1.7
				c0,1.1,0.3,1.2,0.2,2.6c-0.1,5.4-0.2,14.3-0.2,18.8c0,0.4,0.4,1.8,0.2,3.4c-0.1,1.4-0.4,0.6-0.5,2.6c0,2,0.5,3.8,0.5,6
				c0,0.5-0.1,1.1-0.2,1.9c-0.1,0.4-0.1,0.8-0.2,1.2c0,0.1,0,0.2,0,0.4l0,0.5c0,0.3,0,0.7,0,1c-0.2,6.1,0.2,14.6,0,19.2
				c-0.1,2.1-0.5,3.3-0.5,5.7c0,2.6,0.4,5.3,0.5,8.1c0.1,5.2-0.4,5.6-0.5,7.1c-0.1,1.9,0.3,4.8,0.2,6.8c0,0.1-0.2,4.1-0.2,5.7
				c-0.3,7.1-0.2,7.6-1,7.7c0.5,5,0.8,10.5,0.9,16.7c3.3-0.1,6.7-0.1,10.3,0c1.5,0,0.6,0.1,1.2,0.2c2.1,0.6,9.7,0.1,13.7,0.2
				c4.9,0.2,7.8,1.2,13.4,1c0.7-0.4-1.8-0.6,0.4-0.7c5.6-0.3,12.6,0.3,18.1,0.2c2.6,0,6-0.7,8.5-0.7c1,0,8,0.2,11.1,0.2
				c1.3,0,2.6,0,4.1,0.1c1.2,0,2.4,0,3.6,0c2.4,0,4.8-0.1,6.9-0.1c1.3,0,3,0.4,4.3,0.5c1.3,0,3-0.2,4.3-0.2c1.2,0,3,0.3,4.3,0.2
				c1.6,0,1.9-0.3,3.4-0.2c1.7,0,3.6,0.4,5.1,0.5c1,0,1.7-0.2,3.4-0.2c1.8,0,3.5,0.2,5.1,0.2c2.5,0,4.6-0.3,6.9-0.2
				c2.5,0,5,0.5,7.7,0.5c4.1,0,8-0.4,12-0.2c1.1,0,1.2,0.2,2.6,0.2c1,0,2.9-0.3,4.3-0.2c0.4,0,1.7,0.5,2.6,0.5
				c2.5,0,5.8-0.7,7.7-0.7c2.2,1,3.4,0.5,6.9,0.5c4.6,0,8,0,11.1,0c5.4,0,11.6,0.7,17.1,0.7c3.9,0,5.6-0.1,8.6,0
				c3.5,0.1,6.6-0.2,10.3-0.2c11.3,0,22.6,0.5,34.3,0c-0.4-0.9-6.2-0.3-6-1.4c2-0.2,7.7-0.6,9.4,0c2.4,0.6-0.6,0.8-0.9,1.4
				c3.8,0.5,8.8,0.1,12.9,0.2c1.2,0,2.4,0.5,3.4,0.5c0,0,0.7-0.5,0.9-0.5c3.8-0.5,8.5,0,11.1,0c4.2-0.1,9.8-0.2,14.6,0
				c1.7,0.1,2.7,0.6,5.1,0.7c-0.2,0,2.3-0.3,3.4-0.2c2,0.1,3.1,0.5,4.3,0.5c1.2,0,4.4-0.4,4.3-1c-1.9-0.7-5.6,0.5-6-0.5
				c4.7-0.2,8.9,0,12,0c2,0,4-0.3,5.1-0.2c1.4,0.1,3.1,0.6,4.3,0.7c3.9,0.3,9.6,0.1,12,0c5.7-0.2,14.5,0.5,17.1-0.2
				c1.2-0.3,2.4-0.8,3.4-1c4-0.6,5.7,0.2,8.6,0.2c2.2,0.1,4.2-0.3,6-0.2c0,0,0.2,0.2,0.6,0.4c0.3,0.1,0.8,0.2,1.1-0.1
				c-1-0.1-1.3-0.3-1.7-0.5c3.5,0.1,7.6,0.5,4.3,1.2c3.1,0.2,4-1.3,6-1.2c-0.1,0,4.9,1.1,3.4,1.4c-2.7,0.2-2.6-0.4-4.3-0.5
				c0.6,1.3,6.9,1,11.1,0.7c1.4-0.1,2.9-0.6,4.3-0.7c2.1-0.2,3.2,0.1,4.3-0.2c0.8-1-5.7,0-5.1-1c5.7,0.5,14-0.7,18,0.5
				c-1.6,0-2.9,0.2-3.4,0.5c4.8-0.3,9.2,0.7,11.1-0.2c-1.8-0.7-5.3,0.5-6-0.5c1.3-0.2,2.7-0.3,4.3-0.5c1.3-0.1,4.6-0.1,4.3-0.7
				c-3.1-0.7-6.3,0.2-8.6,0.5c-2.1-0.9-6.7-0.6-10.3-0.5c-3,0.1-6.1,0-8.6,0c-1.8,0-1.3,0.4-3.4,0.5c-2.3,0.1-2.2-0.5-4.3-0.5
				c-4.1-0.1-7.7,0.3-12,0.2c-6.8,0-12-0.2-18.9-0.2c-4.6,0-9.9-0.2-13.7,0c-1.4,0.1-2.9,0.5-4.3,0.5c-1.8,0-3.5-0.4-5.1-0.5
				c-2.6-0.1-6-0.2-8.6,0c-1.9,0.1-2.4,0.5-4.3,0.5c-1.4,0-3.2-0.4-5.1-0.5c-5.3-0.3-11.7,0.2-14.6-0.2c-2.6-0.5-2-0.3-4.3-0.2
				c-1.6,0-1.9-0.3-3.4-0.2c-3.1,0-7.2,0.2-10.3,0.2c-1.7,0-3.1-0.3-4.3-0.2c-1.1,0-2.2,0.4-3.4,0.5c-1.3,0-2.6-0.3-4.3-0.2
				c-3.9,0.1-9,0.5-11.1,0.5c-1.3,0-2.9-0.6-4.3-0.7c-3-0.3-5.3,0-7.7-0.2c2-0.6-0.3-0.7-1.7-0.7c-4.7-0.1-4.5,0.7-7.7,1
				c-1.2,0.1-3.4-0.3-5.1-0.2c-1.2,0-1.9,0.4-3.4,0.5c-1,0-3.9-0.2-6-0.2c-2.3,0-5.9,0.1-7.7,0c-1.6-0.1-2.5-0.5-4.3-0.5
				c-3.1,0-6.5,0.4-9.4,0.5c-2.1,0.1-5.3,0.3-6.9,0.2c0.1,0-0.8-0.5-0.9-0.5c-2.5-0.8-9.1,0-13.7,0c-5.4,0-23.4-0.1-25.7-0.5
				c-3-0.5-4.3,0.1-6.9,0.2c-5.7,0.3-13.1-0.3-20.6-0.5c-4-0.1-8.3-0.2-12-0.2c-3.2,0-6.5,0.3-9.4,0.2c-2.4,0-4.5-0.4-6.9-0.5
				c-4-0.1-7.8,0.2-10.3,0c-2-0.1-3.1-0.9-5.1-0.7c-2.7,1.2-7,0.6-12,0.5c-0.4,0-0.8,0-1.1,0c-0.5,0-1,0.1-1.5,0.1
				c-1,0.1-2.1,0.1-3.3,0.1c-4.5,0-9.2-0.3-13.3-0.2c-2.3,0.1-3.3,0.3-5.4,0.2c-1.3,0-4.5-0.5-5.2-0.5c-0.5,0,0.1,0.3-1.4,0.2
				c-2.9-0.1-4.6-0.9-7.7-0.5c-2.7,0.2,0.1,1.4-4.6,1.2c-1.6,0-1.8-0.3-2.4-0.5c-1.3-0.4,0.2-0.2-2.4-0.5
				c-4.6-0.4-10.5,0.3-17.5,0.2c-2.1,0-4.9-0.4-7.5-0.5c-1.1,0-2.2,0-3.3,0.1c-0.1-1-0.1-2-0.1-3.3c0-5.6,0.5-13.2,0.5-20.2
				c0-3.8-0.3-6.9-0.2-10.4c0-2.8,0.4-5.3,0.5-8.2c0.2-9.1,0.3-22.8,0-28.9c-0.1-2-0.6-1.1-0.5-3.9c0-0.5,0-0.6,0-0.8
				c0-0.2,0.1-0.3,0.1-0.4c0.1-0.2,0.2-0.3,0.3-0.4c0.2-0.2,0.4-0.5,0.3-1.9c0.1-2.5-0.5-2.6-0.5-5.1c1.2-3.8,0.7-7.8,0.7-12
				c0.1-6.1,0-15.2,0-20.6c0-1.5,0.3-3.4,0.2-5.1c0-1.4-0.3-3.3-0.2-4.3c0.1-2.5,0.6-5,0.7-7.7c0.2-4.3-0.1-9.3,0-14.6
				c0.1-2.5,0.4-4.5,0.5-6.9c0-2.6-0.2-4.9-0.2-7.7c0-2.7,0.3-5.3,0.2-6c0-1.7-0.5-2.9-0.5-4.3c0.1-4.5,0.8-8,0.7-11.1
				c0-1.1-0.5-3.1-0.5-4.3c0.1-2.2,0.6-4.3,0.7-6.9c0.3-4.7,0.4-10.9,0.5-16.3c0-1-0.3-3.2-0.2-4.3c0.1-1.5,0.5-2.6,0.5-4.3
				c0-4.4-0.4-8.7-0.2-13.7c0-1.3,0.2-2.9,0.2-4.3c0-2.2-0.5-4.5-0.5-6.9c0-2.1,0.1-5.3,0.2-6.9c0.1-1.4,0.6-4.4,1.2-5.1
				c0,4.8-0.1,10.2,0,13.7c0.3,13-0.4,29.9,0,41.1c0,1.1,0.4,2.5,0.5,3.4c0,0.9-0.2,0.6-0.2,0.9c0,0.8,0.2,0.8,0.2,0.9
				c0.1,4.5,0.3,6.5,1,7.7c0.5,2.5-0.1,6.2,0.2,7.7c1.1-0.6,1.8,0,2.9-1.7c-0.1,4.8-0.9,7.4,0.5,9.4c-0.4,0.9,0.1,1.9,0,2.6
				c-0.2,1.8-0.6,1.4-0.7,3.4c-0.1,1.5,0.3,1.9,0.2,3.4c-0.1,2-1,4.3-0.7,6.9c0.8,1.7,0.7-3.4,1-0.9c-0.9,3.2-0.5,6.2-0.5,8.6
				c0,1.1-0.3,1.2-0.2,2.6c0,1.5,0.3,2,0.2,3.4c-0.1,3.8-1,5.6-1,8.6c0,1.7,0.7,3.7,0.7,6c0,1.4-0.5,2.9-0.5,4.3
				c0.4,1.3,0.7,2.1,0.2,3.4c-0.7,1.9-0.2,5-0.2,7.7c0,2.2-0.5,11.1-0.5,12c0,1.7,0.5,2.6,0.5,4.3c0,0.3-0.5,1.2-0.5,2.6
				c0,1.2,0.3,1.5,0.2,3.4c-0.1,2-0.5,3.8-0.5,6c0,1.5,0.4,2.9,0.5,4.3c0.1,1.9,0.1,3.7-0.1,5.4c0,0.5-0.1,1.1-0.1,1.6
				c0,0.6-0.1,1.1-0.1,1.7c-0.1,1.1-0.2,2.3-0.4,3.4c0.2,3.5,1.1,8.4,0.2,9.5c-0.3,0.4-0.2-2.3-0.5-2.3c-0.1,5.2-0.1,10.4,0.7,10.6
				c-0.5,0.6-0.6,3.1-0.7,5.1c-0.1,1.8-0.3,7.4-0.2,9.8c0.1,2.4,0.5,3,0.5,5.7c0,3-0.4,6-0.5,10c-0.1,4.6,0,9.5,0.1,14
				c2.9,0,5.5,0,7.7,0.1c1.9,0.1,3.6,0.5,5.7,0.5c1.5,0,1.9-0.3,3.8-0.2c1.5,0,1.5,0.3,3.5,0.2c1.6-0.1,3.7-0.5,5.2-0.5
				c2.1,0,3.6,0.9,5.8,0.5c1.9-1-7.5,0-4.1-1.2c4.6-0.1,7.7,0.1,10.5,0.3c2.8,0.1,5.3,0.2,8.6-0.3c2.8,0.3-1.6,0.9,0.9,1
				c1.3-0.5,7.2-0.5,11-0.5c2.7,0,5.8,0.1,8.7,0.2c1.7,0,2.5,0.1,3.5,0.2c1,0.1,1.9,0.1,2.7,0.1c0.2,0.7-5.6-0.3-4.3,0.7
				c3.4,0.5,7.3-0.2,11.1,0c2.5,0.1,4.7,1.2,6.9,0.5c2.3-0.3-2.2-0.6-2.6-1c0.9-0.6,4.2-0.1,6.9-0.2c1.6-0.1,1.8-0.6,3.4-0.5
				c0.2,0,1.7,0.6,2.6,0.7c1.8,0.2,4.5-0.3,3.4,0.5c-5.4-0.2-10.2-1-11.1,1c11.4-0.6,23.8,0.5,36.8,0.2c2.1-0.8-3.3-1-2.6-2.2h6
				c0,0.5-2.3,0.3-1.7,1c15.6-0.8,29.5,1.6,42,0c-0.6,0.7,2.3,0.5,1.7,1.2c-1.5,0.1-4.3-0.2-3.4,0.5c3.5,0.3,7.1,0.3,10.3,0.2
				c2.5-0.1,4.7-0.6,6-0.7c1.3-0.1,2.9,0.1,4.3,0c0.4,0,1.8-0.4,2.6-0.5c1.1-0.1,2.3,0.1,3.4,0c2.1-0.1,2.2-0.5,3.4-0.5
				c2.9,0,5.7,0.3,8.6,0.7c2.3-0.2-1.7-0.9,1.7-1c1.2,0.6,2,0.6,4.3,0.7c1.1,0.1,1.1,0.4,1.7,0.5c1.2,0.1,1.9-0.2,2.6-0.2
				c2.2,0,6.2,0.7,7.7,0.7c2.2,0,5.4-0.4,7.7-0.5c0.9,0,1,0.2,1.7,0.2c0.3,0,1.1-0.3,2.6-0.2c1.4,0.1,2.2,0.4,3.4,0.5
				c1.1,0,0.8-0.5,1.7-0.5c0.1,0,2.6,1,4.3,0.5c1.1-0.6-2.5-1,0-1.2c3.5,0.1,6,0.7,8.6,0.7c2.7,0,4.2-0.5,6-0.5
				c0.4,0-0.4,0.8,0.9,0.7c-0.2,0,1.6-1.4,2.6-0.7c1.4,0.5-0.1,0.3,0,1c4.4,0.4,7.1,0,11.1,0c7.1,0,14.7,1.1,18,0
				c-0.7-0.1-1.7,0-1.7-0.2c2.7,0.5,5.2-0.2,7.7-0.2c2.2,0,2.8,0.5,5.1,0.5c1.9,0,2-0.6,4.3-0.5c0.2,0.5-1,0.5-0.9,1
				c2.4,0,3.6-0.4,6-0.5c1.4,0,2.6,0.2,4.3,0.2c5.8,0,12.6-0.6,18-0.5c2.3,0.1,4.6,0.4,6.9,0.5c-0.1,0,0.8-0.5,0.9-0.5
				c0.5-0.1,2,0,2.6,0c2.2,0,5.2,0.4,7.7,0.5c1.8,0,3.7-0.2,6-0.2c2.4,0,4.8,0.3,6.9,0.2c1.3,0,3.1-0.4,4.3-0.5c0.9,0,1,0.3,1.7,0.2
				c4.9-0.1,10.7-0.4,16.3-0.5c4.1-0.1,8.6,0.3,12.9,0.2c3.4-0.1,6.1-0.5,9.4-0.5c1.7,0,3.5,0.3,5.1,0.2c1.4,0,2.7-0.4,4.3-0.5
				c7.9-0.4,18.2,0.2,26.6,0c1.3,0,2.8-0.4,4.3-0.5c2.3-0.1,7.3,0.5,6.9-0.7c-5.1-0.4-8.8,0.1-14.6,0.2c-8,0.2-17.5-0.1-23.1,0.2
				c-1.4,0.1-2.1,0.5-3.4,0.5c-0.9,0-2.7-0.5-3.4-0.5c-2.7-0.1-6.3,0.3-6.9,0.2c-1.1-0.1-1.6-0.5-2.6-0.5c0,0-0.2,0.1-0.4,0.2
				s-0.4,0.2-0.5,0.2c-0.6,0.1-1.9,0-2.6,0c-5,0.2-11.2,0.3-12-0.7c3.3-0.4,8.2,0,11.1,0c2.8,0,5.5-0.4,8.6-0.5c0.9,0,1,0.2,1.7,0.2
				c5.3,0,14.7-0.1,20.6-0.2c3.5-0.1,6.2,0.1,9.4,0c2.7-0.1,5.5-0.4,8.6-0.5c2.7-0.1,5.5,0.1,7.7,0c1.5-0.1,2.8-0.4,4.3-0.5
				c1.9-0.2,5.8,0.3,5.1-0.7c-3.3,0.1-6.9-0.2-10.3,0c-1.7,0.1-2.6,0.4-4.3,0.5c-1.1,0-1.7-0.3-3.4-0.2c-3.2,0-6.5,0.4-10.3,0.5
				c-11.6,0.2-25.3-0.5-33.4,0c-1.4,0.1-2.1,0.5-3.4,0.5c-1.8,0-3.8-0.6-6-0.7c-2.3-0.1-4.1,0.2-6.9,0.2c-7.5,0.2-19.2-0.1-30-0.2
				c-1.6,0-1.9,0.3-3.4,0.2c-4.6-0.1-8.7-0.4-12.9-0.2c-4.1,0.1-5.8,0-9.4,0c-1.6,0-3,0.3-4.3,0.2c-1.5-0.1-2-0.5-3.4-0.5
				c-1.2,0-1.9,0.4-3.4,0.5c0.1,0-1.5-0.3-2.6-0.2c-1.1,0-1.2,0.3-2.6,0.2c-1.8,0-3.8-0.6-6-0.7c-3-0.2-7.2,0.1-11.1,0
				c-1.3,0-3.3-0.4-4.3-0.5c-2.4-0.2-5.5,0-6,0c-1.1,0.1-3.1-0.4-5.1-0.2c-1.3,0.1-2.1,0.7-3.4,0.7c-1.5,0.1-2.6-0.3-4.3-0.2
				c-2.4,0-4.9,0.4-7.7,0.5c-4.1,0.1-8.2-0.4-12.9-0.5c-1.7,0-3.5,0.3-5.1,0.2c-1.4,0-3.4-0.4-5.1-0.5c-6.3-0.2-13.2,0.2-18.8,0
				c-1.5,0-3-0.4-4.3-0.5c-2.4-0.2-4.9,0-7.7,0c-1.5,0-2.6-0.3-4.3-0.2c-1.6,0-2.9,0.3-4.3,0.2c-3-0.1-7.4-0.5-9.4-0.7
				c-4.5-0.4-5,0.4-8.6,0.5c-0.7,0-3.2-0.2-5.1-0.2c-1.7,0-4.3-0.1-6,0c-1.5,0-2.2,0.4-3.4,0.5c-5.8,0.3-7.2-0.6-10.3-0.7
				c-1.9-0.1-4.1,0.5-6,0.5c-1.6,0-3.5-0.4-5.1-0.5c-1.5,0-2.8,0.2-4.3,0.2c-1.2,0-1.6-0.3-3.4-0.2c-2.7,0.1-7.5,0.1-10.3,0
				c-1.2,0-2.2-0.4-3.4-0.5c-1.3-0.1-2.9,0.1-4.3,0c-1.8-0.1-3-0.5-4.3-0.5c0.5,0-2.2,0.2-2.6,0.2c-1.4,0.1-5.8,0.3-7.7,0
				c-0.2,0,0.2-0.4,0-0.5c-1.5-0.4-8.3,0.2-7.7,0.2c-1.6,0-2.8-0.5-4.3-0.5c-0.2,0-2,0.4-2.6,0.5c-0.8,0.1-1-0.2-1.7-0.2
				c-0.3,0-0.7,0.2-1.7,0.2c-6.1,0.1-10.2-0.5-13.7-0.5c-1.1,0-3.2,0.5-4.3,0.5c-0.4,0-1.1-0.5-2.6-0.5c-1.6,0-2,0.3-3.4,0.2
				c-0.2,0-0.5,0-0.8-0.1c-0.1,0-0.3,0-0.4-0.1c-0.2,0-0.4,0-0.6-0.1c-0.8-0.1-1.6-0.2-2.3-0.3c-6.1-0.4-8.8,0.2-13.5,0.2
				c-1.4,0-3.3-0.5-5.5-0.5c-5,0.1-3,0.7-5.6,0c-2.1-0.6-11.2,0-17.7-0.2c-4.2-0.1-7.5-0.8-10.5-0.7c-2.3,0-4.9,0.5-7.1,0.5
				c-0.1,0-0.2,0-0.5,0c0-6.3,0.1-15.8,0.2-23c0-1.5,0.4-3.5,0.5-4.7c0.2-3.5,0.2-9.8,0-12.1c-0.1-1.6-0.7-2.5-0.7-4.2
				c0-2.6,0.6-5.4,0.7-9c0.1-3.3-0.1-7.5,0-9.9c0-0.4,0-0.6,0.1-0.8c0-0.2,0.1-0.4,0.1-0.6c0.1-0.4,0.2-0.7,0.3-1.2
				c0.4-3.9,0-7.1,0-10.3c0-4.6,0.7-8.4,0.7-11.1c0.1-3.6-0.3-7.4-0.2-11.1c0-1.8,0.5-4,0.5-6c0-0.4-0.3-1.8-0.2-3.4
				c0-1.7,0.4-1.8,0.5-2.6c0.1-1-0.3-3.2-0.2-5.1c0.1-2.6,0-4.5,0-6.9c0-3.3,0.5-13.4,0.5-15.4c0-0.4-0.3-0.4-0.2-1.7
				c0.1-0.8,0.4-0.9,0.5-2.6c0.2-3.3,0-5.4,0.2-6.9c0.6-3.4,1.2-9.3,0.2-12c1.2-2.9,0.5-5.3,0.2-8.6c-0.3-4.4,0-4.6,0.2-8.6
				c0.2-2.3,0.1-5,0.2-6c0-0.2,0.4,0.2,0.5,0c0.6-2.2-0.5-7.7-0.5-9.4c0-1.6,0.4-3.6,0.5-5.1c0.1-1.6-0.3-1.9-0.2-3.4
				c0-4.7,0.5-11.1,0.5-16.3c0-1.6-0.3-2.9-0.2-4.3c0.1-1.3,0.4-1.8,0.5-3.4c0.1-1.4,0-2.9,0-4.3c0.8-1,0.6,0.2,1.2-0.9
				c0.1-1.2-0.3-4.4,0.2-4.3c0.9,0.7,0.4,4.4,0.5,6.9c0.1,3.1,0.5,7.3,0.5,10.3c0,1.9-0.6,2.9-0.7,5.1c-0.2,5.1,0.4,5.9,0.5,8.6
				c0,1.3-0.5,3.9,0,5.1c0-1.2,0.9-3.3,1-1.7c0.5,4-0.8,5.3-1,7.7c0,0.9,0.2,1.5,0.2,1.7c0,1.8-0.4,3.5,0.5,4.3
				c-0.1-2.8,0.2-5.3,0.7-3.4c-0.1,3.7-1.2,4.5-1.4,7.7c-0.2,2.4,0.3,4.7,0.2,7.7c0-0.1-0.2,1.8-0.2,2.6c-0.2,3.5-0.2,11.5-0.7,13.7
				c1-0.5,1.1,2.3,1.2,3.4c0,0.4-0.1,3.9-0.2,5.1c0,0.2-0.4-0.2-0.5,0c-0.1,0.3,0.1,1.5,0,1.7c-0.1,0.2-0.7,0.7-0.7,0.9
				c-0.3,2.1-0.1,5,0,6c0.3-0.2,1.2,0.1,1.7,0.9c0.1,3.3-0.7,2.7-1,0.9c-0.5,3.7,0.7,3.7,0.7,4.3c0.2,1.6,0.7,3.6-0.2,5.1
				c0-1.6-0.2-2.9-0.5-3.4c-0.6,2.4,0.1,5.6,0,8.6c-0.1,1.9-0.4,2.6-0.5,4.3c0,1.1,0.5,0.8,0.5,1.7c0,1-0.4,2.2-0.5,3.4
				c-0.3,3.6-0.4,8.2-0.2,12c0,1.4,0.6,2.9,0.7,4.3c0.1,2.2,0.3,10.8,0.2,11.1c-0.1,2.1-1.1,5-1,6.9c0.2,2.6,1,3.4,1.2,6
				c-0.8,1-0.2,4.4-0.2,5.1c0,0.2-0.4,1.2-0.5,1.7c-0.2,1.5-0.2,3-0.1,4.5c0.1,0.8,0.1,1.7,0.2,2.5c0.1,0.9,0.1,1.9,0.1,2.9
				c-0.2,1.8-1,1.4-0.7,5.1c0.6,1,0.9-4.8,1-0.2c0,4.4-1.3-1.3-1.4,3.3c0,5.9,1.2,2,1.4,2.6c0.4,2.8-0.7,3.3-1,5.2
				c-0.2,1.3,0.1,3.6,0,5c-0.1,1.1-0.4,1.1-0.5,3.2c0,1.3,0.2,3.5,0.2,4.9c0.1,2.3,0,4.9,0,7c0,2.8-0.5,11.7-0.5,13.5
				c0,1.1,0.1,2.3,0.2,3.4c4.3-0.3,9.1-0.9,12.9-0.5c1.3,0.5-0.3,0.3-0.8,1c5.1,0,1-0.6,4.7-1c3-0.3,5.9-0.1,8.8,0.1
				c2.9,0.2,5.7,0.3,8.2-0.1c0,0.5-1.4,0.5-1.4,1c3.5,0.6,7.4-0.1,11.2-0.2c3.3-0.1,8-0.3,9.1-0.2c1.6,0.1,2.3,0.5,4,0.5
				c0.4,0,0.8,0,1.1-0.1c0.3-0.1,0.7-0.1,1.1-0.2c0.7-0.1,1.4-0.2,2.2-0.3c2.4-0.1,5.6,0.3,8.6,0.2c1.2,0,1.5-0.3,3.4-0.2
				c2.5,0.1,5.6,0.4,8.6,0.5c2.1,0,4.4-0.1,6,0c1.4,0.1,3.1,0.5,4.3,0.5c1.5,0,2.9-0.8,4.3-0.7c0,0.9,8.6,1,11.1,1
				c1.2,0,3.1-0.6,4.3-0.7c0.8,0,2.3,0.3,4.3,0.2c4.5-0.1,9-0.2,12.9-0.5c-1.4,0.2-2.7,0.8,0,1c3.7-0.3,0.7-0.6,1.7-1
				c3.2,0,5.4-0.5,6.9,0c1.1,0.3-0.2,0.3,1.7,0.5c0.9,0.1,1.5-0.2,1.7-0.2c1.8,0,4.6,0.6,5.1-0.2c-0.4,0.8,2.2,0.7,3.4,1
				c3.1-0.9,7.1-1.5,11.1-1c0.1,0-0.1,0.4,0,0.5c0.7,0.7,4.9,0,6.9,0c1.3,0,1.5,0.3,3.4,0.2c2.2-0.1,4.1-0.5,6-0.5
				c1.6,0,3.4,0.4,5.1,0.5c2.6,0.1,6,0.3,8.6,0.2c4.9,0,9.9-0.8,14.6-0.7c5.5,0,11.8,0,16.3,0c7.6,0,15.2,0.6,23.1,0
				c2.2,0,1.2,0.9,3.4,1c2.5-1.4,7-0.7,11.1-0.7c3.6,0,5.6-0.1,8.6,0c3.8,0.1,9.2-0.3,11.1-0.2c0.9,0,2.2,0.3,2.6,0.2
				c2.2-0.1,3.8-0.7,6-0.7c6-0.1,12.4,0.9,18,0.2c-2.1-0.2-4.9-0.5-6-0.7c-0.1,0-0.6-0.1-1-0.3c-0.4-0.1-0.7-0.2-0.8-0.2
				c-1.8-0.1-5,1.2-6,0c3.3,0.4,4.7-0.6,7.7-0.7c1.5-0.1,2,0.2,3.4,0.2c2.1,0,3.5-0.3,5.1-0.2c1.8,0,3.4,0.3,5.1,0.2
				c1.7,0,2.7-0.3,4.3-0.5c1-0.1,5,0.3,4.3-0.5c-4.8-0.3-10-0.2-13.7-0.2c-8.6-0.2-17,0.2-25.7,0.5c-3.1,0.1-8.2,0.3-9.4,0.2
				c-2.4-0.1-4.6-0.6-6.9-0.7c-5.2-0.2-11.5,0.5-17.1,0.5c-1.7,0-2.7-0.3-4.3-0.2c-1.7,0.1-3.4,0.5-5.1,0.5c-1.2,0-3-0.6-4.3-0.7
				c-2-0.1-4.9,0.2-7.7,0.2c-4.2,0-7.2-0.3-10.3-0.2c-1.8,0-2.6,0.2-4.3,0.2c-2.1,0-4.1-0.5-6-0.5c-1.7,0-4.6,0.2-6.9,0.2
				c-2.7,0-5.4-0.1-7.7,0c-6,0.2-11.8-0.2-18-0.2c-2.5,0-4.4,0.3-6.9,0.2c-3.7-0.1-7.4-0.4-11.1-0.5c-2.4,0-4.1,0.2-6.9,0.2
				c-3.4,0-7.7-0.2-11.1-0.2c-8.3-0.1-15.8,0-23.1,0c-3.4,0-6.9-0.4-10.3-0.5c-1.6,0-1.9,0.2-3.4,0.2c-2.3,0-5.5-0.2-7.7-0.2
				c-3.3-0.1-4.9,0-7.7,0c-2,0-3.9-0.3-6-0.2c-1.6,0-2.9,0.3-4.3,0.2c-1.1,0-1.7-0.4-3.4-0.5c0.1,0-1.5,0.3-2.6,0.2
				c-1.8-0.1-3.9,0-5.1,0c0.7,0-2.8,0-2.6,0c-0.9,0-2-0.5-2.6-0.5c-0.4,0-0.9,0-1.4,0c-0.5,0-1,0.1-1.6,0.1
				c-1.1,0.1-2.3,0.1-3.4,0.1c-2,0-2.9-0.3-4.6-0.2c-4.3,0.1-8.4,0.4-12.5,1c-3.7-1.3-8.9-0.7-16.5-0.7c-2.1,0-7.4-0.1-10.1-0.2
				c-1.6-0.1-2-0.5-3.3-0.5c-0.4,0-0.9,0.2-1.7,0.4c-0.1-0.3-0.1-0.7-0.1-1.4c0.1-2.3,0.5-2.1,0.5-5.1c0-3.4-0.2-6.8-0.3-10.3
				c-0.1-3.5-0.1-7.2,0.3-10.9c1.3,1.5,1.4-1.7,2.4-2c-0.3-4.2,0.1-9.8,1-10.8c0.1,4.1,0,8.2-0.2,12.2c-0.1,4-0.3,7.9-0.1,11.3
				c0.1,1.6,0.4,2.5,0.5,3.9c0,1.1-0.3,1.9-0.2,3.7c0.1,1,0.5,1.1,0.5,2.1c0,0-0.1,0.4-0.2,0.9c-0.1,0.5-0.2,1-0.3,1.3
				c0,0.5-0.1,1-0.1,1.5c5.6,0.2,7.8-1.5,11.9-1.5c0.3,0.6-4.8,1.2-0.9,1.2c1.7-1.6,1.8,0.3,1.5,0.2c1.8,0.1,4.3-0.4,6.3-0.5
				c5.6-0.3,13.1-0.1,18.9-0.2c2.7-0.1,5.4-0.3,8-0.4c2.5-0.1,5-0.1,7.4,0.4c-1.1,0.6-3.4,0.4-5.4,0.4c-2-0.1-3.8,0-4.1,0.8
				c2.7-0.4,5,0.1,6.1,0c1.5-0.1,1.8-0.4,3.4-0.5c2.4-0.1,5.8,0.7,7.7-0.2c-1.6-0.1-3.7-0.1-3.4-0.7c3.6-0.7,6.6,0.1,10.3,0
				c1.3,0,2.9-0.4,4.3-0.5c2.6-0.1,6.1,0.2,9.4,0.2c0.9,0,1-0.2,1.7-0.2c1.7,0,2.7,0.3,4.3,0c1.6-0.3,8.7-0.1,10.3,0
				c0.1,0,0.3,0.6,0.9,0.7c0.9,0.1,3.4-0.1,3.4-0.2c-1,0-2-0.1-1.7-0.5c4.9-0.7,12.3-0.2,16.3-0.2c1.2,0,2.9-0.4,4.3-0.5
				c1.1,0,1.2,0.3,2.6,0.2c8.8-0.2,19.6,0,29.1-0.2c1.2,0,1.5-0.4,2.6-0.5c-0.2,0,1.6,0.3,2.6,0.2c0.5,0,4.9-0.7,3.4,0.2
				c3.5,0.2,1.6-1.1,5.1-1c2.4,0.7,7.3,0.3,11.1,0.5c1.4,0.1,1.9,0.7,3.4,0.5c0.6-1.2,5.5-0.3,8.6-0.5c1.6-0.1,3.6-0.7,5.1-0.7
				c1,0,2.8,0.4,4.3,0.5c1.5,0.1,3.7,0.3,5.1,0.2c2,0,4-0.5,6-0.5c1.9,0,3.3,0.3,5.1,0.5c2.1-0.3-1.5-0.7,0.9-1
				c2.3,0.2,5.2-0.2,8.6,0c1.8,0.1,2.2,0.5,4.3,0.5c1.2,0,2.8-0.2,4.3-0.2c4.5-0.1,11.2-0.2,15.4,0c2.3,0.1,3.9,0.5,6,0.5
				c1.3,0,3.1-0.4,4.3-0.5c1.1-0.1,2.6,0.3,4.3,0.2c1.4,0,2.9-0.5,4.3-0.5c1,0,2.8,0.3,4.3,0.2c0.4,0,1.1-0.3,2.6-0.2
				c1.5,0,2,0.3,3.4,0.2c1.7-0.1,2.8-0.5,4.3-0.5c1.5,0,2.7,0.5,4.3,0.5c1.1,0,2.5-0.5,3.4-0.5c1.4,0,2.9,0.2,4.3,0.2
				c8.3,0,19.7-0.4,29.1-0.5c1,0,3.2,0.3,4.3,0.2c1.9-0.1,1.6-0.5,3.4-0.5c1.6,0,1.9,0.2,3.4,0.2c1.3,0,2.9-0.3,3.4-0.2
				c1.6,0.1,1.7,0.5,3.4,0.5c1.4,0,2.2-0.4,3.4-0.5c0.7,0,5.3,0.2,6.9,0.2c14.5-0.1,43.1,0.2,56.6-0.5c1.6-0.1,3.6-0.5,5.1-0.5
				c-0.1,0,0.8,0.5,0.9,0.5c2.1,0.5,4.1,0,6,0c1.9,0,5.9,0,7.7,0c2.5,0,5.5,0.3,7.7,0.2c0.9,0,2.2-0.4,3.4-0.5
				c1.1,0,1.2,0.3,2.6,0.2c7.8-0.2,18.6,0,30-0.2c2.5-0.1,5.4-0.1,7.7-0.2c2.6-0.1,4.5-0.6,6.9-0.7c4.3-0.3,8.2,0,10.3-0.5
				c0.2-0.1-0.1-0.4,0-0.5c0.1-0.1,1.6-0.1,1.7-0.2c0.3-0.3-1-0.9-0.9-1c1-0.6,4.1-0.6,3.4-1.2c-0.4-0.4-3.4-1.1-6-1.2
				c-1.6-0.1-3.4,0.4-5.1,0.5c-1.6,0.1-1.9-0.2-3.4-0.2c-1,0-1.2,0.2-2.6,0.2c-1.6,0-1.9-0.3-3.4-0.2c-2.1,0-4.6,0.4-6.9,0.5
				c-3.5,0.1-8-0.1-12,0c-3,0.1-5.9,0.5-8.6,0.5c-2.5,0-4.3-0.1-6.9,0c-12.5,0.3-31.3-0.6-42,0c-1.2,0.1-2.2,0.5-3.4,0.5
				c-4.6,0.1-10.3-0.5-14.6-0.5c-1.3,0-3,0.4-4.3,0.5c-1.2,0-3.2-0.2-4.3-0.2c-2.8,0-6.5,0-9.4,0c-5.3,0-10.9,0.6-16.3,0.7
				c-1.2,0-2.9-0.2-4.3-0.2c-4.5,0-9.7,0.2-12.9,0c-1.6-0.1-2.7-0.4-4.3-0.5c-2.9-0.1-6,0.3-6.9,0.2c-3.9-0.1-4.9-0.9-7.7,0.2
				c-3,0-5-0.8-7.7-1c-0.5,0-2.7,0.3-4.3,0.2c-0.8,0-2.9-0.2-3.4-0.5c5.3-0.1,14.9-0.4,18.8-0.5c4.9-0.1,11,0,14.6-0.2
				c1.4-0.1,2.2-0.6,3.4-0.7c0.9-0.1,2.1-0.2,2.6-0.2c3.2-0.4,4.3,0.4,6.9,0.2c2.4-0.1,5-0.8,7.7-1c2-0.1,4.4,0.1,6.9,0
				c0.9,0,2.1-0.4,3.4-0.5c1.3-0.1,3.1,0.1,4.3,0c3.7-0.4,5.5-1.1,8.6-1.7c-0.2-0.9-2.7-0.4-2.6-1c0-0.2,3.8-0.1,2.6-1
				c-4.2-0.7-7.6-0.3-12-0.2c-3.1,0.1-6.8-0.1-9.4,0c-1.2,0-1.4,0.4-2.6,0.5c-1,0-1.8-0.2-3.4-0.2c-2.7,0-5.7,0.4-8.6,0.5
				c-2.8,0.1-5.7-0.1-8.6,0c-1.7,0.1-3.3,0.4-5.1,0.5c-4.9,0.2-10.2-0.2-15.4,0c-1.7,0.1-3.4,0.4-5.1,0.5c-3.6,0.1-7.5-0.1-11.1,0
				c-2,0.1-3.8,0.4-6,0.5c-6.3,0.2-13.3-0.2-19.7,0c-6.1,0.1-16.1,0.6-21.4,0.7c-1.5,0-2.6-0.2-3.4-0.2c-0.3,0-1.9,0.5-3.4,0.5
				c-1.1,0-1.2-0.3-2.6-0.2c-1.2,0.1-2.1,0.5-3.4,0.5c-0.2,0-1.2-0.3-2.6-0.2c-6.4,0.2-15.2-0.1-21.4,0.2c-1.6,0.1-2.7,0.5-4.3,0.5
				c-2.2,0-4.5-0.4-6.9-0.5c-2-0.1-4.2,0.2-6.9,0.2c-1.2,0-1.6-0.3-3.4-0.2c-2.5,0.1-3.3-0.1-6,0c-1.3,0-1.5,0.3-3.4,0.2
				c-2,0-4-0.3-6-0.2c-1.5,0-2.6,0.6-4.3,0.7c-0.8,0-1.5-0.2-2.6-0.2c-8.4-0.3-22.7,0.1-30.8,0.2c-1.1,0-1.2-0.3-2.6-0.2
				c-0.2,0-0.6,0.4-0.9,0.5c-3.2,0.4-6.3-0.5-8.6-0.5c-1.9,0-3.9,0.4-6,0.5c-3.5,0.1-6.9-0.2-11.1-0.2c-4.5,0-9.4,0.5-13.7,0.5
				c-1.3,0-2.9-0.3-4.3-0.2c-5.4,0.1-11.1,0.4-16.3,0.5c-1.4,0-3.1-0.2-3.4-0.2c-1.2,0-1.5,0.3-3.4,0.2c-0.9-0.1-2-0.5-2.6-0.5
				c-1.3,0-1.8,0.2-2.6,0.2c-1.6,0-1.9-0.3-3.4-0.2c-2.8,0-5.8,0.2-8.8,0.3c-2.4,0.1-4.5,0.1-6.5,0c-0.7-0.1-1.6-0.5-2.5-0.5
				c-0.1,0-1.8,0.5-2.1,0.5c-1,0.1-2.3-0.1-3.3,0c-1.1,0.2-2.2,1.1-3.7,1c-1.5-0.7-3.8-0.8-6.6-0.8c-2.8,0-6,0.2-8.9,0.1
				c-1.4,0-2.6-0.2-3.9-0.3c0.1-1.1,0.2-2.2,0.2-3.2c0-1-0.3-1.9-0.2-3.1c0-1.2,0.3-1.7,0.2-2.8c-0.1-1.7-0.4-3.1-0.5-4.9
				c-0.1-3,0.2-6.1,0.2-9.3c0-2.9-0.4-4.8-0.2-7.2c0.1-1.3,0.5-2.1,0.5-3.4c0-0.7-0.4-2.4-0.5-3.3c0-0.3,0-0.7,0-1
				c0-0.4,0-0.8,0-1.1c0-0.8,0-1.6,0-2.4c0-1.6,0.1-3.2,0.1-4.8c0.1-3.1,0.2-6,0.1-7.8c-0.1-0.9-0.5-1-0.5-1.7
				c0-0.5,0.4-2.4,0.5-3.4c0.4-4.4,0-7.8,0-11.1c0-1.8,0.2-3.8,0.2-6c0-2.8-0.2-4.9,0-6c0.1-0.5,0.8-0.4,1-0.9
				c0.2-0.7,0-2.7,0.2-3.4c0.1-0.3,0.4,0.3,0.5,0c0.6-2.4,1-4.2,1.2-6c0.2-1.6,0.7-3.5,0.7-4.3c0.1-1-0.1-2.5,0-3.4
				c0.2-2,0.6-2.5,0.7-4.3c0.1-1.3-0.1-2.9,0-4.3c0.1-1.7,0.4-2.1,0.5-3.4c0.2-3.9,0.1-4.1,0.5-6c0.2-1,0.3-1.8,0.5-2.6
				c0.4-1.3,1,0,1.4-0.9c0.4-0.7,1.3-4.7,1.4-6c0.1-1.2-0.3-1.4-0.2-4.3c0-1.2,0.3-1.5,0.2-3.4c0-1.8-0.4-3.8-0.5-6
				c-0.2-5.5-0.2-13.7,0-19.7c0-1.1,0.4-1.7,0.5-2.6c0.1-1.5-0.1-3.3,0-5.1c0.1-1.7,0.4-3,0.5-4.3c0.1-1.8-0.1-3.6,0-5.1
				c0.1-1.9,0.4-3.3,0.5-5.1c0.1-3.6-0.1-6.8,0-10.3c0.1-3.2,0.6-6.3,0.7-9.4c0.1-1.8-0.1-3.9,0-5.1c0.1-1.8,0.4-2.8,0.5-4.3
				c0.1-4-0.1-7.7,0-11.1c0-1.6,0.4-2.9,0.5-4.3c0.1-2.5,0.2-7.4,0.2-7.7c0-0.8-0.3-1.1-0.2-1.7c0.1-1.5,0.4-2.9,0.5-4.3
				c0.3-4.1-0.1-6.5,0-9.4c0.1-1.8,0.5-2.8,0.5-4.3c0-2.3-1.1-5.3,0-6.9c1.3,2.6,0.5,8.7,0.5,13.7c0,3,0.3,5.5,0.2,8.6
				c0,1.4-0.3,2.9-0.2,4.3c0.1,3.7,0.8,8.8,0.7,12c0,1.7-0.5,3.2-0.5,5.1c0,5.8,0.5,11.7,0.5,17.1c0,3.3-0.5,6.4-0.5,9.4
				c0,0.7,0.4,2.7,0.5,3.4c0.1,2.8,0.2,7.6,0,10.3c0,0.9-0.5,2.4-0.5,3.4c0,1,0.6,1.6,0.7,2.6c0-0.6-0.2,0.7-0.2,0.9
				c-0.3,3,0.4,5.5,0.5,6.9c0.3,8.8,0,18.6,0,28.3c0,4.2,0.4,7.8,0.2,12c-0.1,1.5-0.2,2.8-0.2,4.3c0,2.9,0.4,5.5,0.5,8.6
				c0,1.3-0.2,3-0.2,4.3c0,2.8,0.2,6,0.2,9.4c0,1.6-0.3,1.9-0.2,3.4c0,0.3,0.3,1.9,0.2,3.4c0,1.4-0.3,2.9-0.2,4.3
				c0.1,3.1,0.5,5.7,0.5,8.6c0,2-0.4,3.9-0.5,6c-0.3,5.7-0.2,11.9-0.2,16.3c0,1.6,0.3,1.9,0.2,3.4c-0.1,4.3-0.6,8.4-0.5,12
				c0,0.7,0.1,1.5,0.3,2.2c0.1,0.3,0.1,0.7,0.2,1c0,0.2,0.1,0.3,0.1,0.5c0,0.5-0.5,1.5-0.5,2.1c0,0.8,0.3,1.6,0.2,2.4
				c0,0.9-0.4,1.9-0.5,3c-0.2,2.1-0.1,4.1-0.1,6c0,1.9,0.1,3.8-0.1,5.8c-0.1,1.1-0.1,2.7-0.2,4c0,0.1,0,0.2,0,0.3
				c0.5,0.1,0.9,0.4,1.5,0.4c0.5,0.1,1.2-0.1,1.7,0c0.7,0.1,1.2,0.4,1.8,0.5c2.8,0.3,6.5,0.7,9.4,1c3.8,0.3,5.7,0.1,8.3-0.5
				c0.2-1.8-1.2-2.7-0.1-3.8c0.4,0,0.7,0,1.1,0.1c0.4,0,0.5,0.1,1.4,0.1c1.4,0.1,2.8,0.2,4,0.3c0.6,0.7,0.6,0.5,0,1.2
				c4.4,0.4,8.6,1.7,14.6,1.4c1.1,0,1.6-0.4,2.6-0.5c1.1-0.1,2.5,0,3.4-0.2c1.9-0.4,1.2-1.2,1.7-1.4c2.8-1.2,6.8-0.7,11.1-0.7
				c1.7,0,5.6-0.2,6-0.2c0.2,0,1-0.5,1.9-1c0.8-0.5,1.5-0.9,1.6-0.9c1.1-0.9,0.1-1.6,0-1.9c-0.1-0.3,1-0.3,0.9-0.7
				c-0.2-0.6-1.5-1.2,0-1.7c-3.2-0.3-5.5-1.4-9.4-1.7c-1.1-0.1-3.9,0.3-6.9,0.2c-3.1,0-4-0.1-6.9,0.2c-1.7,0.2-2.7,0.4-4.3,0.5
				c-2.6,0.1-5.2-0.1-6.9,0c-2.3,0.2-3.9,0.9-6,1c-0.5,0-2.9-0.3-4.3-0.2c-1.4,0-2.6,0.1-3.9,0.1c-0.4,0-0.8,0-1.2-0.1
				c-1.5-0.1-3,0.3-4.2,0.2c-0.6,0-0.9-0.3-1.6-0.2c-0.6,0.1-1.4,0.5-1.9,0.5c-1.1,0-1.1-0.5-1.4-0.5c-0.5,0-1.2,0.4-2,0.5
				c-1.7,0.3-2.7-0.1-3.7,0c0,0-0.1,0-0.1,0c-0.1-0.3-0.4-0.6-0.5-1.2c0,0,0-0.4,0.1-0.9c0-0.5,0-0.9-0.1-1.2
				c-0.1-0.3-0.6-0.2-0.7-0.6c-0.1-0.4,0.3-1.1,0.2-1.7c0-0.9-0.6-1.2-0.5-2.2c0.2-0.9,1.1-1.2,1-2.2c-0.3-0.8-0.6,0.3-1-0.3
				c0-0.7,0.4-1,0.5-1.7c0-0.4-0.3-0.4-0.2-0.8c0-0.4,0.3-0.5,0.2-0.9c-0.1-0.5-0.5-0.6-0.5-1.2c0-0.3,0.1-0.6,0.2-0.8
				c0.1-0.3,0.2-0.4,0.3-1.1c0.3-5.6-0.4-8.7-0.5-12c-0.1-3.2,0.5-4.2,0.5-5.1c0-1.8-0.5-3.2-0.5-5.1c0-1.7,0.5-4,0.5-6
				c0-1.2-0.2-7.1-0.2-8.6c-0.1-2-0.5-3.6-0.5-5.1c0-0.1,0.4-2.1,0.5-2.6c0.6-5.9-0.1-11.9,0-18.8c0-3.2,0.4-5.9,0.2-8.6
				c-0.1-1.8-0.5-3.3-0.5-5.1c0-6,0.9-12.4,0.5-19.7c-0.1-1.8-0.5-2.6-0.5-4.3c0-1,0.4-1.8,0.5-3.4c0-1.2-0.3-3.4-0.2-4.3
				c0.1-2.9,0-5.7,0-8.6c0-4.6,0.3-8.7,0-12.9c-0.6-0.3-1-0.6-1-5.1c0.5-1.6,0.2-1.6,1-0.9c0.4-7.6-1.2-8.5-1.2-14.6
				c0.5-1.2,1.9-3.6,1-6.9c0,1.6-0.2,2.9-0.5,3.4c-0.9-5,0.6-8,1-11.1c-1-4,0.1-9.8-0.2-14.6c-0.1-1.1-0.5-2.2-0.5-3.4
				c-0.1-4.6,0.4-9.2,0.2-14.6c-0.1-3.3,0-5.3,0-7.7c0-1.6-0.3-1.9-0.2-3.4c0-1.1,0.3-1.2,0.2-2.6c-0.1-2.4-0.7-3.8-0.7-6
				c0-1.2,0.2-3.1,0.2-4.3c0.1-2.7-0.2-5.1-0.2-7.7c0-3.8,0.3-8.6,0.2-10.3c0-1.1-0.5-2.2-0.5-3.4c0-1.9,0.3-3.8,0.2-6
				c0-1.2-0.2-3-0.2-4.3c0-2.6,0.3-4.9,0.2-7.7c-0.1-3.4,0.1-5.6,0-8.6c0-1.6-0.4-2.6-0.5-4.3c-0.4-7.3,0.4-14.9,0-21.4
				c-0.1-1.1-0.4-2.2-0.5-3.4c0-1.5,0.2-3.7,0.2-5.1c0-4.4-0.5-8.7-0.5-12.9c0-1.5,0.2-2.8,0.2-4.3c0-1.3-0.2-2.7-0.2-4.3
				c0-2.5,0.3-5.2,0.2-7.7c0-3.3-0.4-9.5-0.5-14.6c0-2.1,0.3-4.3,0.2-5.1c-0.2-2-0.7-1.3-0.7-3.4c0-1.2,0.4-2.6,0.5-4.3
				c0.5-8-0.2-13.4-0.2-22.3c0-4.3,0.3-8.2,0.2-12.9c0-2.7,0-5.9,0-8.7c0-1.7-0.1-3.1-0.2-3.9c-0.1-0.6-0.9-1.1-0.7-1.7
				c0.5,0.4,0.6-0.2,0.7-0.8c0,0.2,0-1.8,0-1.4c-0.1-1.3-0.7-1.9-0.7-2.9c0-0.8,0.7-1.1,0.7-2c0-0.4-0.2-1.8-0.2-2.7
				c-0.1-0.6-0.2-0.9-0.2-1.6c0-0.3,0.1-0.4,0.2-0.5c0.3,0.1,0.6,0.2,1,0.3c0.7,0.1,1.6-0.2,2.6-0.2c2-0.1,4.5,0,6.9,0
				c2.5,0,4.9,0,7.2-0.2c0.7-0.1,1.4-0.4,2.1-0.5c0.1,0,0.2,0,0.3,0c0,0,0.1,0,0.2,0l0.3,0c0.4,0.1,0.8,0.1,1.4,0.1
				c7,0.3,11.2-0.7,16.3-0.2c1.3,0.1,2.1,0.4,3.4,0.5c2.7,0.1,7-0.2,7.7-0.2c0.3,0,1.1,0.3,2.6,0.2c1.9-0.1,4-0.5,6-0.5
				c2.4,0,5.7,0.3,7.7,0.2c3.7-0.1,6.7-1.1,10.3-0.7c0.3,0.6-2.5,0.3-2.6,0.7c4.4-0.2,6.2,0.3,10.3,0.2c1.2-0.1,0.1-0.9,1.7-1
				c4.6-0.3,8.4,0.3,12.9,0.2c3.1,0,8.5-0.6,11.1-0.5c1.8,0.1,3.8,0.7,6,0.7c1.4,0,2.7-0.4,4.3-0.5c2.9-0.1,13-0.3,13.7-0.2
				c1.5,0.1,2.3,1,4.3,1c0.1-0.3-0.1-0.7,0.9-0.7c5.3,1,15.7,0.6,23.1,1c3.1-0.2-1.3-1.1,3.4-1c1.8,0.1-1.2,0.6,0.9,1
				C196.9,28.5,199.1,29.3,201.8,29.3z M43.9,154.8c0.9,1.1,0.9,5.3,0.2,6C43.5,161.5,42.9,157.4,43.9,154.8z M44.1,137.6
				c-0.9,0.4-1.3-5.7-0.7-7.7C44.5,131.1,43.6,134.9,44.1,137.6z M42.2,63.1c0,2.9,0,5.7,0,8.6c-0.5,0.9-0.8-5.1-0.7-6
				C41.5,64,41.8,62.6,42.2,63.1z M119.6,38.4c-2.1,0-4.1,0-5.1-0.2C114.2,37.5,121.2,37.3,119.6,38.4z M258.4,36
				c-1.4,0-2.9,0-4.3,0C252.8,35.2,259.7,35.2,258.4,36z M231,34.5c1.8,0.1,6-0.4,5.1,0.5C234,35.2,231.2,35.4,231,34.5z M171,34.5
				c0.6-0.9,2.9-1.4,6-1C176.3,34.3,174.6,34.7,171,34.5z M348.4,30.7c-2,0-4,0-6,0v-0.5c2,0,4,0,6,0V30.7z M322.7,29.7V29
				c2-0.1,3.3,0,4.3,0.2C326.2,29.6,324.8,29.8,322.7,29.7z M327,28.3c1.5-1.3,10.4-0.9,14.6-1.4c0.1,0.4-1,0.5-0.9,1
				c-0.3,0.6,3.9-0.1,2.6,0.7C338.1,28.7,332.7,28.9,327,28.3z M361.2,26.9c0.5-0.3,2.5-0.1,4.3,0c1.7,0.1,5-0.3,4.3,0.5
				C367.7,27.5,360.8,28.1,361.2,26.9z M273.8,26.1c-0.8-0.9,3.7-0.4,4.3-0.2C278.5,26.4,274.2,26.7,273.8,26.1z M24.2,219
				c-1-0.2-0.9-5.2-1-7.7c0-0.7,0.3-0.8,0.2-1.7c0-1.3-0.2-1.6-0.2-2.6c0-2.3,0.3-5,0-8.6c0.7-1.7,0.3,2.4,0.5,3.4
				c0,0.2,0.5-0.2,0.5,0c0.1,1.6-0.2,3.3-0.2,5.1C23.9,210.8,24.4,215,24.2,219z M271.3,24C276.3,23,276,25.9,271.3,24L271.3,24z
				 M168.4,24c2.7-0.8,9.5-1.4,14.6-1c0.4,0-0.3,0.9,0,1c0.5,0.1,7.5-0.1,4.3,0.5c-1.3,0.6-2.3-0.2-4.3-0.2
				C178.5,24,172,24.5,168.4,24z M198.4,24.2c-0.4-0.5,0.6-0.6,0.9-1c-2.3,0-2,0.6-4.3,0.7c-1.3,0.1-4.3-0.3-6-0.5
				c-0.2-0.9,4.4-0.6,6-0.7c2.7-0.3,8.3,0,12-0.2c1.1-0.1,3.8,0,3.4-0.7c2.7-0.1,2.3,0.6,4.3,0.7c2.4,0.3,2.5-0.4,4.3-0.5
				c2.5-0.1,5.4,0.5,7.7,0.5c4.5-0.1,8.1-1,12.9-1.2c4.3-0.2,6.9,0.5,11.1,0.5c1.9,0,3.3-0.4,5.1-0.5c1.9-0.1,2.2,0.2,3.4,0.2
				c1.4,0,1.5-0.2,2.6-0.2c1.7,0,2.4,0.3,3.4,0.2c1.8,0,3.6-0.4,5.1-0.5c2.2-0.1,4,0,6-0.2c1-0.1,2.6-0.4,3.4-0.5
				c1.5-0.1,3.3,0.1,5.1,0c1.3,0,2-0.3,3.4-0.2c2.1,0.1,1.6,0.4,3.4,0.7c2.6-0.6,5.7-0.4,6.9-0.7c0.4-0.1,2.6-0.4,5.1-0.2
				c-1.1,1.2,1.4,0.8,4.3,1.4c1.7,0.4,1.7,0.6,2.6,0.7c3.8,0.3,9.2-0.9,12,0.2c-0.4,1.1-4,0.3-6,0.2c-2.7,0-6.5,0.1-9.4,0
				c-2.8-0.1-3-0.6-7.7-0.5c-1.3,0-1.9,0.6-3.4,0.7c-2,0.2-4.5-0.1-7.7,0c-4.9,0.1-11,0.4-14.6,0.2c-1.4-0.1-2.9-0.5-4.3-0.5
				c-2.5,0-4.5,0.9-6.9,1c0.4,0-1.5-0.4-3.4-0.5c-2.1,0-3.7,0.2-6,0.2c-1.8,0-2.2-0.3-3.4-0.2c-6.1,0.1-16.9-0.1-26.6,0.2
				c-1.6,0-2.9,0.4-4.3,0.5c-3.7,0.3-8.2,0.1-12,0.2C204,24.1,201.4,24.4,198.4,24.2z M149.6,24.2c-0.6-0.7,4.9-1,6-0.5
				C156.3,24.7,151.5,24,149.6,24.2z M325.2,23c-0.7-0.8,1.3-0.5,3.4-0.5c1.4,0,6.1-0.3,5.1,0.5C331.3,23.3,329.4,22.9,325.2,23z
				 M21.1,69.9c-0.4,2.7,0.4,4.6,0.5,6.9c0,1.4-0.4,2.3-0.5,4.3c-0.1,1.9,0.2,2.2,0.2,3.4c0,1.5-0.5,2.8-0.5,3.4
				c0,1.7,0.6,4.4,0.7,6.9c0,0.8-0.3,2.8-0.2,4.3c0.1,0.8,0.6,0.7,0.5,2.6c-0.1,1.2-0.7,2.2-0.7,3.4c0,2.6,0.5,5.2,0.5,7.7
				c0,1.8-0.6,1.9-0.7,3.4c-0.2,1.8,0.3,2.3,0.2,3.4c0,0.7-0.4,0.9-0.5,2.6c-0.1,3.1,0.4,3.8,0.5,6c0,1.4-0.1,7.6-0.2,11.1
				c-0.1,1.7-0.4,1.8-0.5,2.6c-0.1,2,0.3,2.8,0,6c-0.3,3.4-0.8,7.4-0.7,12.9c0,0.6,0.3,0.9,0.2,1.7c-0.1,1.4-0.2,1.2,0.5,2.6
				c0.4,1.9-0.6,1.8-0.7,3.4c-0.1,1.5,0.3,2.6,0.2,4.3c0,1.5-0.4,2.5-0.5,4.3c-0.2,3.2,0.1,7.7,0,10.3c-0.1,1.9-0.7,4.2-0.7,6
				c-0.1,2.3,0.3,4.6,0.2,6.9c0,1.6-0.4,1.9-0.5,3.4c-0.1,1.8,0.3,2.3,0.2,3.4c0,0.7-0.4,1.5-0.5,2.6c-0.2,5.3,0.1,10.6,0,16.3
				c0,2.6-0.5,6-0.5,8.6c0,2.4,0.3,5,0,8.6c-0.1,1-0.4,2.3-0.5,3.4c-0.1,1.9,0.2,2.2,0.2,3.4c0,1.8-0.3,7.8-0.5,11.1
				c-1.2-1.9-1.2-4.9-1-8.6c0.1-1.3,0.5-2.4,0.5-3.4c0-2.6,0.1-5.2,0-7.7c-0.1-2.2-0.7-4.4-0.7-6.9c0-0.8,0.5-2.9,0.5-3.4
				c0.4-7.8-0.5-22.7-0.5-32.6c0-3.8,0.4-5.4,0-8.6c-0.2-1.5-0.3-1.5-0.5-2.6c-0.3-1.6-0.7-5.8-0.5-10.3c0.1-1.9,0.7-3.1,0.7-5.1
				c0-1.8-0.4-3.3-0.5-5.1c-0.1-2.3,0.2-4.9,0.2-7.7c0-3.1-0.1-7-0.2-10.3c-0.1-3.8-0.6-6.6-0.2-11.1c-0.1-1.8-0.9-0.8-1-2.6
				c-0.6-4,0.3-4.1,0.5-6.9c0.1-1.8,0.2-6.2,0.2-9.4c0-1.5-0.3-2.8-0.2-4.3c0-1.5,0.5-3.7,0.5-5.1c0-2.2-0.4-5-0.5-7.7
				c-0.2-7.6,0.1-15.5-0.2-18c-0.2-1.3-0.9-1.8-1-3.4c0.3-4.1,1.2-6.9,0.7-12.9c-0.1-1.2-0.4-2.2-0.5-3.4c-0.1-1.4,0.2-2.3,0.2-4.3
				c0-1.2-0.1-3.2-0.2-5.7c0-1.2-0.1-2.6-0.1-3.9c0-0.6,0-1.1,0-1.7c0-0.5,0-1,0.1-1.5c0.1-1,0.5-2.1,0.5-3c0-1.1-0.4-2.1-0.5-3.1
				c-0.1-1.6,0-3.7,0.2-4.8c0.5-2.4-0.1-7.8,0-12.2c0.1-2.1,0.2-5.3,0.3-8.8c1.6,0,3.3,0,4.8,0c1.4,0.5,0.2,0.3,0.8,1
				c2,0.1,1.5-0.4,2.9,0c0.6-0.4,0.1-1.1,2.3-1c0.7,0.5-0.9,0.3-0.7,0.7c1.4,0.6,4.6,0.1,6.7,0.2c1.4,0-0.3-0.8-1-0.7
				c0.5-0.5,4.2-0.1,5.9-0.2c0.7,0.3,0.9,0.9,1.6,1.2c1.2,0.3,0.9-0.5,1-0.5c0.8,0,1.7,0.4,2.5,0.5c1.1,0.1,2.6,0,3.5,0
				c1.1,0,1.7-0.4,2.9-0.5c0.2,0,0.7,0,1.3-0.1c0.8,0,1.7-0.1,2.6-0.1c1.8-0.1,3.6-0.1,4.2-0.1c0.7,0,0.9,0.3,1.7,0.2
				c2.5-0.1,4-0.5,6-0.5c4.1,0,8.5,0.4,12.9,0.5c2.7,0,6.4-0.4,8.6,0c2.6,0.5,2.7-0.1,6-0.2c0.6,0,2,0.3,3.4,0.2
				c1.3,0,1.5-0.2,2.6-0.2c4.3,0,8.6,0.6,12.9,0.7c1.3,0,3-0.2,4.3-0.2c4.3,0,14,0.2,18.9,0.2c5.4,0,12.7-0.1,17.1,0
				c3.1,0,1.5,0.4,2.6,0.7c2.7,0.2,4.9-0.4,7.7-0.5c1.4,0,2.9,0.5,4.3,0.5c2.3,0,5.1-0.5,7.7-0.5c1.8,0,1.2,0.4,3.4,0.5
				c-0.4,0,4.3-0.3,5.1-0.2c-0.2,0,5,0.4,4.3,1c-2.3,0.1-4.1,0.3-6.9,0.2c-0.8,0-3.2-0.3-4.3-0.2c-2.2,0.1-3.6,0.7-6,0.7
				c-0.5,0-1.6-0.5-2.6-0.5c-1.9,0-3.9,0.4-6,0.5c-3.2,0.1-6.6-0.2-10.3,0c-2.8,0.1-5.7,0.6-8.6,0.7c-1.1,0-3.4-0.2-4.3-0.2
				c-8-0.1-16.9,0.6-24,0.7c-1.3,0-2.8-0.2-4.3-0.2c-1.7,0-3.2,0.5-4.3,0.5c-1.5,0-3-0.5-4.3-0.5c-1.6,0-3.6,0.3-5.1,0.2
				c-2.2-0.1-4.1-0.5-6-0.7c-3.4,0.1,0.6,0.7-1.7,1c-5-0.4-9.9,0.4-14.6,0.5c-1.3,0-2.9-0.5-4.3-0.5c-1.5,0-4,0.5-6,0.5
				c-0.7,0-2.9-0.5-3.4-0.5c-1.6,0-3.5,0.4-5.1,0.5c-0.8,0-1.7,0-2.6,0c-0.8,0-1.5,0-2.3,0c-1,0-2.1-0.1-3.1,0
				c-1.1,0.1-2.2,0.4-3.5,0.5c-1.4,0.1-3-0.1-4,0c-0.9,0.1-1,0.6-1.7,0.7c-2.4,0.5-5.3-0.1-8.4,0c-0.8,0-1.2,0.4-2.1,0.5
				c-0.7,0-1.9-0.3-2.6-0.2c-0.7,0.1-1.1,0.2-1.6,0.4c0.1,0.3,0.1,0.7,0.1,1c0,1.3-0.2,2.3-0.2,3.6c0,0.7,0.2,1.8,0.2,2.6
				c0,1-0.5,0.8-0.5,1.1c0,0.8,0.5,1.7,0.5,2.2c0,0.4-0.5,0.2-0.5,1.2c0,2.5,0.2,5.4,1,6.7c-0.4,1.4-0.4,2.9,0,5.7
				c0.1,0.9,0.4,1.7,0.5,2.4c0,0.2,0,0.4,0,0.6l0,0.3c0,0.2,0,0.4,0,0.6c-0.1,0.8-0.1,1.7-0.1,2.8c0,2.9,0.1,4.5,0,6.9
				c-0.2,2.9-0.7-0.3-0.2,2.6c0.1,0.4,0.4,4.7,0.2,6.9C21.8,72.4,21.6,69.4,21.1,69.9z M479.5,85.9c0.7,1.5,0.2,2.2,0.2,5.1
				C479.1,91,479.2,87,479.5,85.9z M307.2,19.2c4.8,0.4,10.5-0.8,11.1,0.5C316.2,19.9,306.9,20.4,307.2,19.2z M481,114.1
				c0.3,0.6,0.8,1.9,1,3.4c0.2,1.8-0.3,2.3-0.2,3.4c0,3.3,0.8,7.8,0.2,10.3c-1.2,0.1-0.7-3.5-0.7-6.9
				C481.2,120.6,480.5,116.5,481,114.1z M346.7,18.7c0.9-1,7.1-0.9,10.3-1c5.1-0.1,10.6,0.5,14.6,0c1.4-0.2,3.9-0.2,6-0.2
				c1.6,0,2.6,0.3,3.4,0.2c1.8-0.1,3.2-0.6,5.1-0.7c8.2-0.3,15.1,0.3,20.6,1c3,0.4,0.5-0.8,2.6-0.7c2.6-0.2,2.5,0.4,5.1,0.2
				c-1.9,1.7-8.4,1.2-12.9,1.2c-3.6,0-8.3,0.1-12.9,0c-1.1,0-3.6-0.2-3.4-0.2c-1.8,0-3.7,0.6-5.1,0.7c-1.6,0.1-3.1-0.2-3.4-0.2
				c-0.7,0-1.3,0.3-2.6,0.2c-2.9-0.1-5.1-0.3-7.7-0.2c-0.3,0-1.7,0.5-1.7,0.5c-0.8,0-0.8-0.2-0.9-0.2
				C357.7,19.2,351.1,19.7,346.7,18.7z M482.4,137.3c0.2,4.7,0.7,10.1,0,13.7C481.9,148.4,481.1,138.3,482.4,137.3z M441.8,18.2
				c-1.1-0.9,2.8-0.7,5.1-0.7c1.3,0,2.7,0,4,0c0.9,0,1.7,0,2.4,0c1.8-0.1,3.8-0.8,5.8-1c2.3-0.2,11.4-0.2,12,0.2
				c0.2,0.2,1.9,0.3,2.1,0.2c1.8-0.1,2.2-0.7,3.4-0.7c1-0.1,1.7,0.2,2.7,0.2c1.4,0,2.9,0,4.4-0.1c0.1,1.7,0.1,3.3,0.1,4.8
				c0,2.6,0.7,5.8-0.7,7.4c0.3-3.7-0.2-6.6-0.2-10c0-0.5,0-1,0.1-1.5c-0.7-0.1-1.5-0.2-2.4-0.2c-1.1,0-2.7,0.5-3.8,0.5
				c-0.6,0-1.2-0.5-1.9-0.5c-0.5,0-1.8,0.7-2.8,0.7c-3.2,0.2-7-0.2-11.1,0c-1.6,0.1-3.1,0.4-4.5,0.5c-1.3,0.1-2.6,0.1-3.8,0
				c-0.6,0-1.2,0-1.7,0c-0.8,0-1.6,0-2.4,0c-1.6,0-3.2-0.3-4.3-0.2C443.3,18,443,19.1,441.8,18.2z M482.7,152.7
				c0.1,4.8,0.7,11.2,0.7,18c0,1.7,0,9.4-0.7,9.4c-0.5-1.2,0-2.7,0-4.3c0-2.9-0.3-6.9-0.2-10.3c0-1.3,0.3-3.2,0.2-4.3
				C482.6,159.3,480.9,154.4,482.7,152.7z M483.1,181.8c1.1-0.2,0.4,4.3,0.5,6.9c0.1,3,0.5,6.6,0.5,9.4c0,1.3-0.5,2.4-0.5,2.6
				c0.1,4.4,1.2,8.5,0.5,12.9c-0.9-2-0.5-6.1-0.5-8.6c0-1.4-0.2-1.5-0.2-2.6c-0.1-1.8,0.3-2.3,0.2-3.4c0-0.5-0.7-1.3-0.7-1.7
				c-0.1-1.8,0.2-2.3,0.2-3.4c0-1.6-0.2-2.5-0.2-4.3C482.9,187.2,483.4,184.4,483.1,181.8z M186.4,17c-0.1-0.8,7.3-1.2,6.9,0
				C191.3,17.2,188.1,17.5,186.4,17z M483.6,33.6c0.7,0.4,0.4,3.8,0.5,6.2C483.1,39.9,482.9,34.5,483.6,33.6z M483.9,29.4
				c0.1,1.3,0.5,2.2,0,3.5C483,33.5,482.8,29.7,483.9,29.4z M483.6,44.5c1.2,0.3,0.5,2.6,0.5,4.6C483.4,49,483.7,46.3,483.6,44.5z
				 M483.9,40.4c0.4,0.4,0.6,1.9,0.2,2.9C483.5,43.3,483.5,41.2,483.9,40.4z M484.3,220.4c0.6,2.9,0.3,8.8,0.5,13.7
				c0.1,3,0.9,5.5,0.2,7.7c-0.4,0.2-0.4-0.8-0.7-0.9C483.7,234.3,484.3,225.6,484.3,220.4z M485.8,276.1c1-0.3,0.6,3.1,0.5,5.1
				C485.7,281.1,485.8,278.4,485.8,276.1z M268.1,488.9c3.2,0.1,7.6-0.2,9.4,0.2C277.2,489.9,267.3,490.1,268.1,488.9z M10,234.5
				c-0.1,1.8,0.4,6-0.5,5.1C9.7,237.8,9.2,233.6,10,234.5z M198.7,490.1c-0.6,0.5-0.8,1.2-1.7,1.7
				C194.2,491.7,194.4,489.7,198.7,490.1z M9.5,261c0.7,1.1-0.2,3.8-0.2,5.1C8.6,265,9.4,261.9,9.5,261z M9.5,281.6
				c-0.9,0.3-0.3-4.6-0.7-6c0.2-0.6,0.2-2,0.7-1.7C10,276,8.9,278.6,9.5,281.6z M9.5,298.7c-1,0.3-0.6-3.1-0.5-5.1
				C9.5,294.4,9.6,296.3,9.5,298.7z M9.5,305.6c-1,0.1-0.6-2.2-0.5-4.3C9.6,301.4,9.6,303.4,9.5,305.6z M9.5,333.8v3.4
				C8.6,338,8.6,333.2,9.5,333.8z M394.6,9.3c2.1,0,4.1,0,5.1,0.2C398.9,10.2,393.6,10.7,394.6,9.3z M95,490.9
				c0.3,0.8-2.3,1.3-4.3,0.7C91.5,491.2,92.4,490.8,95,490.9z M379.2,9.3c5.5,0.3,10.3-0.9,13.7-0.5c1,0.7-5.2,0.9-7.7,1
				C385.4,9.8,378.3,10.6,379.2,9.3z M364.7,9.6c4.1-0.5,5.8-0.3,11.1-0.5C375.4,10.4,367.1,10.2,364.7,9.6z M9.1,383.5v4.3
				C8.1,388.7,8.1,382.7,9.1,383.5z M8.3,462.6c-0.2-2.1,0.2-2.6,0.2-4.3C9.3,458.3,9.3,463.1,8.3,462.6z M46.6,491.3
				c0.6,0.9-3.1,0.4-3.5,0.2C42.8,491.1,46.3,490.8,46.6,491.3z M55.6,491.3c-0.1,1.1-3.9,0.1-6,0.2C49.3,491,55,490.9,55.6,491.3z
				 M74.5,491.3c0.8,0.9-3.7,0.4-4.3,0.2C69.8,491.1,74.1,490.8,74.5,491.3z M101,491.1c1.4,0,3.3-0.1,3.4,0.2
				C105.4,492.2,99.2,492,101,491.1z M8.8,489.5v1.8h1.7c-0.4,0.2-1.4,0.5-2.3,0.6C8.1,491.1,8.2,490,8.8,489.5z M282.7,491.6
				c2.9-0.1,4.9,0.1,4.3,1C285.7,492.9,281.5,492.7,282.7,491.6z M293,492.3c-2,0.1-4,0.4-4.3-0.5C290,491.4,293.6,491.5,293,492.3z
				 M248.4,491.8c5.5,1,12.3,0,17.1,0.5c-0.3,0.9-3.9,1-6,1c-3.2,0-5.2-0.7-9.4-0.2C249.8,492.6,248.3,492.4,248.4,491.8z
				 M270.7,492.1c2.4-0.2,2.2,0.3,4.3,0.2c0.1,0.7-2.1,0.7-4.3,0.7C272.1,492.6,270.6,492.7,270.7,492.1z M309.3,492.3
				c0.7,0.8-2.6,0.4-4.3,0.5c-2.7,0.1-7,0.5-6.9-0.5C301.5,491.8,304.4,492.5,309.3,492.3z M491.3,167.3c0.9-0.6,1.2,1,1.2,3.4
				C492,172.3,491.4,169.6,491.3,167.3z M204.7,493c-4.8,0.4-10.8,1.5-17.1,0.7c-0.6-0.7,2.6-0.6,4.3-0.7
				C195.5,492.7,199,492.5,204.7,493z M491.8,61.9c0.2-3.7-0.3-9.7,0.2-12c0.5-0.8,0.8,7,0.7,8.6C492.6,60.1,492.3,62.3,491.8,61.9z
				 M136.2,493c0,0.7-4,0.6-5.1,0.2C131.8,492.8,134.8,492.6,136.2,493z M223.6,492.8c0.8,1-4.6,0.8-6,0.5
				C217.7,492.6,221.1,492.8,223.6,492.8z M92.5,494C83.4,494.3,91.9,491.9,92.5,494L92.5,494z M179,493.5
				c-1.4,1.3-7.9,0.1-11.1,0.2c-1.8,0.1-3,0.7-4.3,0.7c-0.8,0-2.2-0.4-3.4-0.5c-1.8-0.1-3.5,0.1-4.3-0.2c2.4-1.1,7.5-0.2,11.1-0.2
				c0.9,0,2.6-0.5,3.4-0.5C173.1,493,176.5,493.3,179,493.5z M492.5,209.3c0.6,0.1,0.6,3.2,0.2,4.3
				C492.3,212.8,492.1,210.5,492.5,209.3z M492.5,89.3c0.6-0.5,0.9,6.7,0,6C492.2,94.1,492.2,90.4,492.5,89.3z M492.5,71.3
				c0.8,0.3,0.3,4.4,0.5,6.9c0.3,4.3,0.6,4,0,7.7c-0.2,1,0,2-0.5,1.7C492.1,82.3,492.3,75.9,492.5,71.3z M155,493.5
				c-0.6,0.5-2.3,0.6-4.3,0.7C151.4,493.7,152.8,492.9,155,493.5z M61.6,493.5h3.4C66.2,494.7,60.5,494.7,61.6,493.5z M492.7,138.1
				c0.6-1.1,1.9,1.4,2.9,1.7c-0.4,2.8,0.4,5.6,0.5,8.6c0,1.8-0.4,3-0.5,5.1c0,1.5,0.2,3,0.2,5.1c0,1.6-0.3,4.1-0.2,5.1
				c0,1.7,0.4,2.5,0.5,4.3c0.1,2.3-0.1,6.4,0,9.4c0,1.8,0.3,4.3,0.2,5.1c-0.1,2.2-0.7,4.6-0.7,6.9c0,2.4,0.6,3.3,0.7,6
				c0,0.4-0.5,1.8-0.5,2.6c0,1.1,0.2,3.5,0.2,5.1c0,1.8,0,3.9,0,5.1c0.2,5.4,0.9,8.7-0.5,12.9c1,8.8,0.2,18.9-0.7,26.6
				c0-1.8-0.9-3.3-1-5.1c-0.1-1.5,0.4-4.7,0.5-6c0.1-3.2-0.4-5.8-0.5-9.4c0-1.7,0.3-3.9,0.2-6c-0.1-6.4,0-17.3-0.2-25.7
				c-0.1-4.1-0.7-11.7-0.7-18c0-2.2,0.3-4.7,0.2-6.9c-0.1-2.9-0.6-5.4-0.7-8.6c0-1.7,0.3-3.3,0.2-5.1
				C492.9,150.5,492.8,144.2,492.7,138.1z M69,6.7c2.8-0.2,5.5-0.3,8.6,0C77.7,7.6,68.6,7.9,69,6.7z M61.3,7.2
				c-0.7-0.9,4.1-0.9,3.4,0C63.1,7.6,63.7,7.2,61.3,7.2z M5.7,14.9c-0.4-1.8,0-0.9,0-3C6.6,12.1,6.6,16.2,5.7,14.9z M5.7,425.5
				c0.3-4.5-0.5-5.1-0.5-8.6C5.7,418.3,7.3,424.6,5.7,425.5z M108.8,494c0.7-0.7,2.8,0.1,4.3,0C112.6,494.7,109.3,494.5,108.8,494z
				 M135.3,494c0.5,0.5-5.9,0.9-5.1,0C131.3,493.7,134.2,493.7,135.3,494z M400.6,7.2c-1.8-0.1-6,0.4-5.1-0.5
				C397.3,6.8,401.5,6.3,400.6,7.2z M251.9,494.9v0.7c-1.8,0.1-2.3-0.2-3.4-0.2C248.6,495,249.9,494.9,251.9,494.9z M4,477
				c-0.8,0.2-1-1.9-0.9-4.7c0.1-2.8,0.4-6.3,0.4-9.2c0-1.3-0.2-1.3-0.2-2.3c0-0.1,0.2-1.5,0.2-2.4c0-1.6,0-3.2-0.1-4.6
				c0-0.7,0-1.4,0-2.1c0-0.7,0-1.4,0.1-2.1c0.1-0.6,0.7-0.9,0.5-2.6h0.7c0.2,1.7,0.1,2.6,0,4.3c0,0.5-0.1,0.9-0.2,1.2
				c-0.1,0.4-0.2,0.8-0.2,1.1C4.2,454.4,4,455.1,4,456c-0.1,2,0.4,6.1,0.2,10.1C4.2,469.1,4,473.1,4,477z M3.5,485.1
				c-0.4-1.1-0.3-5.3,0.5-5.8C4.2,481,4.6,484.7,3.5,485.1z M233,496.4c-2.2,0.3-3.7,0.9-7.7,0.7C225.7,496,230.4,495.7,233,496.4z
				 M4,494.9v1.2h2.7c-0.1,0.6-2.1,0.8-3.4,0.7C3.4,495.9,3.6,495,4,494.9z M177.3,496.1c3.2-0.3,2.8,0.5,4.3,0.7
				C180.7,497.4,176.2,497,177.3,496.1z M191.6,4.8c-0.3-0.6,1.2-0.8,3.4-0.7C195.3,4.7,193.8,4.8,191.6,4.8z M86.5,496.6
				c4.1,0,4.6,1.1,9.4,1c0.4,1.2-3.9,0.4-6,0.5c-2.9,0-5.9,0.6-7.7,0c1.2-0.4,3.3-0.5,6-0.5C89.2,496.8,85.4,497.4,86.5,496.6z
				 M78.8,497.3c4.7,0.1-1.1,1.5-2.6,0.7C75.9,497.5,80.1,498.2,78.8,497.3z M66.5,2.9c1.6,0.1,5.2-0.3,4.3,0.5
				C68.7,3.5,66.3,3.8,66.5,2.9z M55.6,498.3c0.6,0.9-6.5,0.6-5.1-0.2C52.6,497.9,54,497.8,55.6,498.3z M162.4,1.9
				c1.3,0.1,2.2,0.4,3.4,0.5C164.7,3.5,159.5,2.9,162.4,1.9z M45.5,498.8c-2.5,0-5,0-7.4,0C37.5,498,46.2,498,45.5,498.8z
				 M288.4,2.6c-2.5,0-4.7,0-4.3-0.7C285.5,1.5,289.1,1.7,288.4,2.6z M224.1,1.9c1.9,0,6.3-0.6,6.9,0.5
				C227.9,2.2,224.2,3.2,224.1,1.9z M282.4,2.4h-4.3C276.8,1.6,283.7,1.6,282.4,2.4z M1.4,497.5c0,0.5,0,1,0,1.3
				c0.7,0.1,1,0.2,1.8,0.2c-0.4,0.3-1.3,0.5-2.5,0.5c0-0.4,0-0.8,0-1.3L1.4,497.5z M13.3,498.8h3.3
				C16.6,499.7,11.9,499.7,13.3,498.8z M1.1,481.9c-0.1,0.9-0.3,0.5-0.5,0.3c-0.3-0.3-0.6-0.9-0.5-3.9c0,0.2,0.4-0.6,0.2-1
				c0-0.1-0.2-1.1-0.3-2.2c-0.1-1.1-0.1-2.4,0.3-2.8c0.6-0.2,0.6,1.9,0.5,4.3C0.9,479,0.7,481.5,1.1,481.9z M-4.1,282.4
				c0,2.1,0,4.1-0.2,5.1C-5.1,287.4-4.9,282-4.1,282.4z M-4.9,322.7c-0.5-1.2-0.1-6-0.2-8.6C-4.4,315.4-4.7,320.1-4.9,322.7z
				 M-4.6,335.6c-1-1.1-0.7-5-0.5-7.7C-4.3,328.1-4.7,332.8-4.6,335.6z M-5.8,361.3C-5.5,351.7-3.4,364.7-5.8,361.3L-5.8,361.3z
				 M-5.1,376.7h-0.7c-0.1-2,0-3.3,0.2-4.3C-5.2,373.1-5.2,375.2-5.1,376.7z M-5.3,408.4c-1.2-0.5-0.9-5.3-0.7-8.6
				C-5,401.7-5.6,404.9-5.3,408.4z M-6.3,295.3c0.1-1.6-0.3-5.2,0.5-4.3C-5.5,292.2-5.6,295.5-6.3,295.3z M-5.8,423
				c-0.8-0.4-0.4-5.6-0.5-8.6C-5.5,414.9-5.4,420.9-5.8,423z M-5.8,429c-0.7,0-0.6-4-0.2-5.1C-5.7,425-5.4,427.6-5.8,429z M-5.8,455
				c0.4,2.2-0.5,2.5-0.5,2.9c-0.1,1.8,0.7,5-0.5,4.9c0.1-1.5-0.1-3.4,0-4.8c0-0.2,0.4,0.2,0.5-0.1C-6.1,456.9-6.5,454.2-5.8,455z
				 M-7.3,308.1c-0.1-3.2,0.2-5,1-5.1C-5.7,305.6-6.4,308.2-7.3,308.1z M8.3,506.7c2.4,0,4.9,0,4.4,0.7
				C9.9,507.5,7.3,507.5,8.3,506.7z M310.7-6.3c-0.5-1.2,3.7-0.5,6-0.5c3.1,0,7-0.5,7.7,0.5C319.1-5.6,316.3-6.2,310.7-6.3z
				 M57.3,507.2c-0.1,0.6-3.2,0.6-4.3,0.2C53.1,506.8,56.3,506.9,57.3,507.2z M97.6,508.1C95,506,108.1,507.6,97.6,508.1L97.6,508.1
				z M294.4-6.5c0.2-0.9,3.5-0.2,5.1-0.2c2.1-0.1,5.2-0.7,6.9-0.2C304.7-5.7,298.4-6.1,294.4-6.5z M209.6-8.2c2.6-0.2-0.8-0.5,0-1
				c3.9,1.2,12.9,1.2,23.1,1.2c4.3,0,8.6,0.3,11.1,0.2c0.7,0,2.8-0.5,3.4-0.5c1.8,0,2.7,0.6,4.3,0.7c0.1,0,2.9,0,4.3,0
				c3.3,0.1,10.6,0.2,14.6,0c1.9-0.1,4.1-0.9,7.7-0.5c0.7,0.1,0.5,0.4,1.7,0.5c2.1,0.1,3.6-0.3,5.1-0.2c1.7,0.1,2.5,0.2,4.3,0.5
				c1,0.1,4,0.2,3.4,0.7c-2.3,0.6-4.4,0-6.9,0c-1.2,0-3.5,0.2-3.4,0.2c-0.7,0-1.6-0.5-1.7-0.5c-1.8,0-1.8,0.4-2.6,0.5
				c-1.1,0.1-6.9-0.5-8.6-0.5c-1.6,0-3.3,0.5-5.1,0.5c0.5,0-4-0.1-3.4,0c-0.8-0.1-0.7-0.5-1.7-0.5c-2.6,0-5.2,0.5-7.7,0.5
				c-1.7,0-2.6-0.6-4.3-0.7c-0.3,0-2.3,0.2-3.4,0.2c-1.4,0-1.5-0.3-2.6-0.2c-0.7,0-0.8,0.3-1.7,0.2c-3.1-0.1-12.3-0.2-17.1,0
				c-1.7,0.1-1.7,0.4-2.6,0.5c-1.4,0.1-1.9-0.3-3.4-0.2c-0.8,0-0.9,0.4-2.6,0.5c0.1,0-0.1-0.5-0.9-0.5c-1.7,0.1-1.7,0.1-2.6,0.2
				c-2.4,0.3-3-0.2-6-0.2c-2.4-0.1-4,0.2-6.9,0.2c-3.7,0-8.4-0.5-12.9-0.5c-2,0-3.5,0.3-5.1,0.2c-1.5-0.1-3.5-0.4-5.1-0.5
				c-4.4-0.1-8.2,0.3-12.9,0c-1.2-0.1-2.2-0.5-2.6-0.5c-0.4,0-1.6,0.2-2.6,0.2c-2.6,0-4.6-0.3-6-0.2c-2,0.1-2.6,0.6-4.3,0.7
				c-1.2,0.1-3-0.1-4.3,0c-1.9,0.1-3.3,0.5-4.3,0.5c-4.1,0.1-9-0.5-13.7-0.5c-2.4,0-5.6,0.6-8.6,0.2c-0.2,0-0.8-0.5-0.9-0.5
				c-1.6-0.1-2.8,0.3-4.3,0.2c-1.4-0.1-2.2-0.6-3.4-0.7c-5.5-0.5-11.6,0-18.9,0c-1.2,0-2.4-0.2-2.6-0.2c-0.7,0-1.3,0.3-2.6,0.2
				c-1.3,0-3-0.4-4.3-0.5c-1.4,0-1.5,0.2-2.6,0.2c-1.5,0-1.8-0.2-3.4-0.2c-2,0-4,0.2-6,0.2c-1.5,0-1.8-0.3-3.4-0.2
				c-1.8,0-1.6,0.4-3.4,0.5c-0.7,0-2-0.4-3.4-0.2c-0.2-1,2.6-0.4,4.3-0.5c1.3-0.1,3-0.4,4.3-0.5c4.3-0.1,8.4,0.3,12.9,0.2
				c2,0,8.5-0.2,9.4-0.5c1.9-0.6,0.9-0.2,5.1-0.2c3,0,6.1-0.3,8.6-0.2c4.8,0,17.2,0.2,23.1,0c1.6-0.1,2.6,0.3,3.4,0.2
				c2-0.2,3.4-0.9,5.1-1c2.9-0.2,5.9,0.5,8.6,0c0,0.5-2.3,0.3-1.7,1c1.6-0.1,3.7-0.1,3.4-0.7c3.4,0.9,12.5,0,19.7,0.2
				c0.7,0,2-0.1,2.6,0c0.1,0,0.9,0.5,0.9,0.5c0.7,0,3.1-0.8,6.9-0.5c1.4,0.8-1.1,0.4,2.6,0.5c1.3,0,2.7,0.5,3.4,0.5
				c1.5,0,1.9-0.2,3.4-0.2c3.9,0,8.9,0.5,12,0.5C199.7-8.4,206-9.3,209.6-8.2z M392.1-6.5c1.5-0.9,9.8-1.4,12-0.7
				c-0.6,0.8-5.3,0.4-7.7,0.5C394.3-6.6,393.1-5.9,392.1-6.5z M368.1-6.3C368-8,372.6-7,376.6-7.5C377.8-5.9,372.2-6.3,368.1-6.3z
				 M326.1-6.3c-0.6-1.3,4.8-0.6,7.7-0.7c1.1,0,2.5-0.5,3.4-0.5c1.6,0,3.1,0.4,5.1,0.5c3.7,0.2,7.9-0.1,11.1,0
				c1.4,0,1.7,0.1,1.7,0.5c-0.7,0-0.9,0.2-1.7,0.2c-0.7,0-1.6-0.5-1.7-0.5c-1.2,0-2.9,0.4-4.3,0.5C341.1-6,332.4-6.6,326.1-6.3z
				 M-7.5,225c-0.3-1.4-0.6-4.6-0.2-6C-7.2,219.7-7.1,223.5-7.5,225z M-7.5,235.3c-0.8,1.2-0.6-5.1-0.2-5.1
				C-7,229-7.1,235.3-7.5,235.3z M-8.2,278.2c-0.1-2.1,0.4-1.9,0.2-4.3c-1.3,0.4,0,6.7-1.7,6.9c-0.6-2.6,0.7-2.8,0.7-3.4
				c0.1-1.7-0.4-3.1-0.2-4.3c0.2-1.2,0.7-2.2,1.2-2.6c0-2.5-0.1-5.6,0.2-6.9c0.5,1.2,0.2,4.3,0.2,6.9
				C-7.5,273.3-6.6,278.8-8.2,278.2z M115.6,507.7c-0.1,0.6-3.2,0.6-4.3,0.2C111.4,507.3,114.5,507.3,115.6,507.7z M123.3,507.4
				c1.2,0.1,4.4-0.3,4.3,0.2c0.3,0.9-4.6,0.3-6,0.7C122,508,124.3,508.2,123.3,507.4z M132.7,507.4v0.7c-1.1,0-2.3,0-3.4,0
				C130.1,507.8,130,507.2,132.7,507.4z M155.9,507.4c2,0,4,0,6,0C162.3,508.4,154.9,509,155.9,507.4z M385.2-6.7
				c-0.6,0.3-8.4,0.6-7.7-0.2C381-7.2,381.9-6.6,385.2-6.7z M201.3,507.7c4.7,0.7,9.1,0,13.7,0.5c0.3,0.7-3.5,0.4-6,0.5
				C205.6,508.8,201.7,509,201.3,507.7z M281,508.1c-1.5,0.8-10.2,0.6-12,0.5v-0.7C271.3,507.6,277.7,507.9,281,508.1z M173,508.1
				c-0.6,0.8-8.4,0.5-10.3,0.2c0.2-0.9,3.1-0.2,4.3-0.2C169.1,508.1,171.2,507.6,173,508.1z M196.2,508.1c-0.2,1-7.8,0.2-10.3,0.7
				v-0.7C187.7,508.2,193.2,507.6,196.2,508.1z M223.6,508.1c1.1-0.5,6.6-0.3,6,0.5C227.7,509.1,224.7,508.6,223.6,508.1z
				 M254.4,508.1c-0.2,1.2-5.1,0.4-7.7,0.5c-3.2,0-6.3,0.6-8.6,0c-1.5,0.1-1.6-0.2-1.7-0.5C240.6,507.8,250.2,507.8,254.4,508.1z
				 M264.7,508.4c-2.1,0.6-3.6,0.2-7.7,0.5c-0.4-0.2-0.8-0.4-1.7-0.5C256.1,507.5,263.6,507.9,264.7,508.4z M-8.2,254.2
				c0.5,0.1,0.1,3.6,0.2,5.1C-8.6,259.3-8.5,255.3-8.2,254.2z M-9.7,183.9c0-6.9,0-12.2,0.2-16.3c0.8-0.4,0.2,2.6,0.2,4.3
				C-9.1,175.8-8.3,183.4-9.7,183.9z M-10.1,207.9c0.1-1.8-0.4-6,0.5-5.1C-9.3,204.1-9.4,208.1-10.1,207.9z M7.6-8.9
				C4.2-8.7,3-9.2,1-9.4C1.2-10.3,7.6-9.7,7.6-8.9z M-10.6-4.5c0-2,0-3.7-0.1-5.2C-7.3-9.7-5-9.8-2.3-9.6c-0.2,0.4-4,0.8-7.6,0.8
				C-9.8-6.2-10-4.1-10.6-4.5z M-9.9,221.6c-0.7,0.2-1.3,0.1-1.2-2.6C-10.6,217.2-9.9,219-9.9,221.6z M-9.9,228.5
				c-1.1,0.3-1-2.9-0.5-4.3C-9.9,224.3-9.9,226.3-9.9,228.5z M13.4-9.4c-1.5-1.2,7.8-1.1,11.1-0.7C24.5-8.6,18.9-9.5,13.4-9.4z
				 M-12.3,76.8c0-5.1-0.3-9.1,0-14.6c0.1-2,0.3-4.1,0.3-6.4c0-1.1,0-2.3,0-3.6c0-0.6-0.1-1.2-0.1-1.9c-0.1-0.7-0.1-1.4-0.2-2.1
				c-0.1-1.5,0-1.2-0.2-2.1c-0.7-2.6-0.3-17.6,0.7-21.1c-0.4-3.4-0.4-6.8-0.3-10.3c0.2-3.5,0.4-6.9,0.5-10.7
				c0.9,3.9,0.4,9.2,0.5,13.9c0.1,3.6,0.4,8.4,0.5,13.7c0,2.2-0.3,2.7-0.2,4.1c0,3.5,0.1,8.2,0.1,13c0,1,0,2.1,0,3.1c0,1,0,2-0.1,3
				c0,2-0.1,3.9-0.2,5.6c-0.2,2.6-0.5,5.1-0.5,7.7c0,1.1,0.2,1.4,0.2,1.7C-11.3,70.1-11.4,77-12.3,76.8z M-10.6,248.2
				c0,2.7,0.2,6.3-0.2,7.7C-11.4,255.7-11.6,248.2-10.6,248.2z M43.3-9.9c-2.1-1.2,7.3-1.3,6-0.2c-0.9,0-1.8,0.1-2.6,0.2
				C45.8-9.8,44.9-9.8,43.3-9.9z M-10.9,82.8c0,1.7-0.6,1.9-0.7,4.3c-0.3,5,0.6,13-1.4,9.4c0.4-0.2,0.2-2.9,0.2-3.4
				c0.2-1.9,0.4-1.9,0.5-3.4c0.1-2.9-0.3-5.9,0.2-8.6C-11.3,80.3-11.3,82.4-10.9,82.8z M-11.8,265.3c0.1-3-0.4-8.3,0.7-7.7
				C-10.9,259.9-10.4,266.5-11.8,265.3z M-11.1,159.9c0,2.8,0.1,6.1-0.7,6C-12.1,163.6-12.3,159.3-11.1,159.9z M-12.8,194.2
				c0.2-4.1,0.8-8.7,0.7-12.9c-0.1-3.5-0.7-5.4-0.7-8.6c1.2-1.5,1.4,3.9,1.4,7.7c0,2.5-0.1,7.2-0.2,8.6c-0.2,2-0.3,1.3-0.7,3.4
				C-12.1,191.4-12,195.2-12.8,194.2z M-11.3,195c-0.4,3.6-0.5,3.6,0,6.9c-0.6,0.5-0.5,3.3-1.4,2.6c-0.6-2,0.4-2.3,0.5-4.3
				c-0.1-1.6-0.7-1.5-0.5-4.3C-12,196.5-11.9,195-11.3,195z M-11.3,283.3c0,3.4-1.2,4.7-1,0H-11.3z M-12.5,215.6
				c0.2-1.1,0.2-3.2,0.5-4.3C-11.2,212-11.8,215.9-12.5,215.6z M-12.3,287.6c1.3-0.3,0.7,6.6,0,6.9
				C-12.6,294.2-12.1,290.2-12.3,287.6z M-12.8,114.5c0.1-1.8-0.4-6,0.5-5.1C-11.9,110.7-12,114.7-12.8,114.5z M-12.3,142.8
				c-0.8,0.6-0.9-3-0.5-4.3C-12.3,139.1-11.8,141.1-12.3,142.8z M511.9,18.9c0.6,0,0.1,4.7,0,5.4C511.2,24.1,511.5,19.8,511.9,18.9z
				 M-12.3,121.4c-0.3,3.8-0.1,9.5-0.5,12.8C-14.1,133-13.6,121.4-12.3,121.4z M-12.3,239.6c-0.1,2.4-0.7,5-1.2,3.4
				C-13.6,239.8-12.9,237.7-12.3,239.6z M-13,335.6c-0.8-1.8-0.8-11.4,0.5-11.1c0.8,2.8-0.3,4.5-0.5,6.9
				C-13.1,333.1-12.5,334.1-13,335.6z M504.8-11.5c-1.2,0-0.4-0.2,0.2-0.2c2-0.8-3.3-0.2-1.3-1c3.5,0,5.6,0.3,5.6,1
				C507.6-11.8,505.3-11.9,504.8-11.5z M-13,257.6c-0.5-0.3,0-3.9-1-2.6c-0.1-2.2,0.1-3.7,0.7-3.4C-13.6,255.3-12.4,255.5-13,257.6z
				 M512.7,121C514.7,123.4,511.8,128.5,512.7,121L512.7,121z M-13.3,357.8h-1c0-2.1,0.4-2.6,0.5-4.3
				C-13.2,353.7-13.2,355.7-13.3,357.8z M-14.5,375.8c0.1-1.6-0.3-5.2,0.5-4.3C-13.8,373.6-13.5,376-14.5,375.8z M-14,386.1
				c-0.9-0.3-0.9-6.1,0-6.9C-13.7,381.7-13.7,383.7-14,386.1z M309.8-14.2c0.1-1,3.1-0.3,4.3-0.2c0.9,0,2.6-0.1,3.4,0
				c0.1,0,0.9,0.5,0.9,0.5c1.3,0,3.5-0.2,5.1-0.2c4.1-0.1,7.9,0.2,12,0.2c-0.3,0.5-3.4,0.9-4.3,1c-2.6,0.1-6-0.3-9.4-0.5
				c-0.6,0-0.9,0.3-1.7,0.2c-0.2,0-0.8-0.5-0.9-0.5c-1.5,0-1.8,0.3-3.4,0.2C313.6-13.6,311.6-14,309.8-14.2z M-14,279.9
				c-0.5,3.1,0,12.1-0.2,13.7c-1.4-0.8-0.4-10-1-13.7H-14z M-14.2,328.7c-1.3,1-1-3.7-0.7-6C-14.3,323.2-14.5,326.8-14.2,328.7z
				 M-14.5,244.7c-1.2,0.6-1.6-4.8-1-7.7C-14.3,236.9-14.8,242.1-14.5,244.7z M-14.5,273c0,1.4,0,2.9,0,4.3
				C-15.4,278.1-15.4,272.2-14.5,273z M-14.5,343.3c-0.4,0-0.5-1-0.7-1.7c-0.6-1.9-0.7-1.5-0.5-6C-14.9,336.8-14.3,338.8-14.5,343.3
				z M274.7-14.2c1.1-0.9,8.7-0.4,11.1-0.2C284.7-13.2,278-14,274.7-14.2z M-15.4,321.9v-3.4C-14.5,317.8-14.5,322.5-15.4,321.9z
				 M-14.7,348.4c-0.1,3.1-0.7,7.9-1.4,6c0.1-2.6,0.2-4.8,0.5-6.9C-15.2,347.2-15,348.1-14.7,348.4z M514.8-0.6
				c0.2,3.3-0.4,3.6-0.2,6.9C513.9,7,514.1-0.1,514.8-0.6z M479.1-13.9c-2.6-0.1-2.4-0.6-1.1-0.9c1.3-0.3,3.6-0.5,4.9-0.1
				C482.9-14.3,478.5-14.7,479.1-13.9z M286.7-14.2c0.1-0.6,3.2-0.6,4.3-0.2C290.9-13.8,287.8-13.9,286.7-14.2z M-14.9,252.4
				c0.1,3.7-0.2,6.2-1,6.9c-0.6-1.6,0.1-2.1,0.2-3.4C-15.5,254.7-15.9,251-14.9,252.4z M-15.2,443.5c-1.2,0.3-0.4-3.9-0.2-6
				C-14.7,438.2-15.2,441.9-15.2,443.5z M-15.2,361.3c-2-4.5,0.3,6.2-0.5,9.4c-0.3-0.4-0.5-1.1-0.5-2.6c-0.6,0.4-0.6,3.8-1.2,1.7
				c-0.3-4.3,0.8-6,1-8.6c0.1-1.7-0.7-4.1,0-6C-15.9,356.9-15.4,358.6-15.2,361.3z M-15.4,303c-0.6,0.5-0.9-0.3-0.7-2.6
				c-1.1,4,0.5,14.3-1.4,16.3c-0.6-3.6,0.4-6.4,0.5-9.4c0.1-1.8-0.4-3.5-0.2-6.9c0,0.2,0.4-0.4,0.2-0.9c-0.3-0.8,0.4-6.2,0-10.3
				c0.9-1.3,0.1,2.9,0.7,2.6c0.6,0.3-0.2-4.8,0.7-3.4c0.1,4.5,0.1,8.8-0.7,10.3C-16,300-15.3,300-15.4,303z M-15.7,479.2
				c0.2,2.1-0.4,2.7-0.5,3.6c-0.1,1.6,0.6,4.9-0.5,4.8C-16.7,483.2-16.4,480.3-15.7,479.2z M403.2-15.6c1.4,0.1,1.5-0.3,2.6-0.2
				c0.8,0,1.4,0.5,1.7,0.5c1,0,5.2-0.8,5.1,0.2C410.8-14.9,402.6-14.5,403.2-15.6z M381.8-15.6h5.1C387-14.9,381.1-14.6,381.8-15.6z
				 M516.3,47.8c0.1,0.4,0.1,0.9,0.2,1.5c0,0.5,0.1,1,0.1,1.5c0,1.1,0,2.3,0,3.4c-0.8,0.9-1.2-0.7-1.2-2.5c0-0.5,0-0.9,0.1-1.3
				c0-0.2,0-0.4,0.1-0.6c0-0.2,0.1-0.4,0.1-0.6C515.7,48.1,516,47.6,516.3,47.8z M374.1-15.1c-2.5,0-4.7,0-4.3-0.7
				C371.6-16.4,374.1-15.9,374.1-15.1z M356.1-15.1c-1.8-0.7-3.8-0.1-6-0.5c0.5-0.2,0.9-0.4,0.9-0.7C353.5-16.2,355.9-16,356.1-15.1
				z M516.5,29.3c0,3,0,6-0.7,5.9C515.4,33.4,515.6,28.6,516.5,29.3z M348.4-15.6h-4.3C342.8-16.4,349.7-16.4,348.4-15.6z
				 M-16.6,381.8c-0.5-2.7-0.8-4.8-0.5-8.6C-16.3,373.7-16.7,378.9-16.6,381.8z M-17.1,318.4C-16.1,324.9-19.2,321.6-17.1,318.4
				L-17.1,318.4z M-17.1,412.7c-0.8,0.6-0.9-3-0.5-4.3C-17.1,408.5-17.1,410.6-17.1,412.7z M-17.1,431.5c-0.3,1.3-0.9,1.3-1.2,2.6
				c-0.1-1.5-0.2-10.2,0.2-12.8c0.9-0.3,0.3,3.8,0.5,6C-17.4,429.4-17.1,429.8-17.1,431.5z M32.8,517.3c1.6,0.8-8.1,1.1-7,0.2
				C27.3,517.2,30,517.2,32.8,517.3z M-17.3,325.3c0.1,2.8-0.3,4.1-1,4.3C-18.5,326.4-18,325.4-17.3,325.3z M184.7-17.3
				c1.2-1.1,4.6-0.1,6,0.2C188.9-16.2,186.5-16.9,184.7-17.3z M177-16.8c0-1.1,6.5-0.8,7.7-0.2C183.3-16.3,179.9-16.7,177-16.8z
				 M-18.8,446.1c0.1-3.7-0.2-8.8,0.2-11.1c0.8-0.2,0.8,5,0.7,6C-18,442.6-18.1,447.1-18.8,446.1z M-18.1,484.9
				c1,2.5,0,6.8-0.2,10.7c-0.6-0.3-0.5-2.9-0.5-4.4c0-0.3,0.7-0.1,0.7-0.4C-17.7,488.5-19,485.5-18.1,484.9z M-16.6,518.5
				c-0.4,0-1,0-1.6,0c0-3-0.3-7,0.4-6.9c0.2,0.9,0.4,4.1,0.2,6.3C-16.5,517.9-15.9,518.1-16.6,518.5z M517-11.6v-5.3h-2.9l0.5-0.5
				h2.9v5.3L517-11.6z M208.7-16.8c-2,0.1-3.3,0-4.3-0.2c-0.4-0.8,0.3-1.4,3.4-1.2c-0.3,0.3-1.5,0.4-1.7,0.7
				C205.8-17,210-17.7,208.7-16.8z M135.9-18.3c2.6,0.2,5.1,0.5,7.7,0.7C140.7-16.9,136.2-17.1,135.9-18.3z M-18.1,447.8
				c0.1,1.3,0,2.1-0.1,2.8c0,0.4-0.1,0.7-0.1,1.1c0,0.4-0.1,1-0.1,1.7c-0.1-0.3-0.2-0.7-0.3-1.2c0-0.2-0.1-0.5-0.1-0.7
				c0-0.2,0-0.5-0.1-0.7c-0.1-1.1-0.1-2.4,0-3.7C-18.6,447.4-18.4,447.8-18.1,447.8z M75.3,518.9c-1.6-0.1-5.2,0.3-4.3-0.5
				C73.1,518.3,75.5,518,75.3,518.9z M83,518.9c-2.8,0-4.1,0.6-4.3-0.5C79.6,518.2,83.2,518.2,83,518.9z M167.6-17.3h-3.4
				C163.5-18.2,168.3-18.2,167.6-17.3z M159.9-17.3c-3.3,0.1-5.4-0.3-6-1C156-18.7,159.7-18.1,159.9-17.3z M97.6,518.5
				c1.4,0,2.9,0,4.3,0C102.7,519.4,96.8,519.4,97.6,518.5z M127.3-17.5v-1c1.8,0.1,5.6-0.3,6,0.2C133.2-17.5,129.9-17.6,127.3-17.5z
				 M115.3-19c2.9-0.4,2.8,0.6,4.3,0.7c1.6,0.1,3.5-0.7,5.1,0c0.7,1-3.2,0.2-5.1,0.2c-2.1,0-8.5,0.5-10.3-0.5
				C107.1-18.8,115.1-17.7,115.3-19z M-19,171.9c-0.8-0.6-0.5-8.4-0.2-10.3C-18.4,162.2-18.7,170-19,171.9z M-20,290.1
				c-1.4-0.5-0.4-6.7-0.5-9.4c-0.1-5.4-0.2-14-0.2-21.4c0-1.8,0.3-4,0.2-6c0-2-0.5-3.8-0.5-5.1c0-1.6,0.4-3.5,0.5-5.1
				c0.3-7.7-0.1-16.5,0-24.9c0-3.4,0.2-6.9,0.2-10.3c0-3.1-0.3-6.6-0.2-9.4c0-2.1,0.4-3.9,0.5-6c0.2-5-0.3-10.6,0.2-15.4h0.7
				c0.6,3.1-0.2,3.6-0.2,6c-0.2,5.9,0.1,11.5,0,17.1c-0.1,4.3,0,9.1,0,13.7c0,4.2-0.2,8.2-0.2,12c0,2.1,0.3,3.2,0.2,5.1
				c-0.1,2.4-0.4,5.2-0.5,7.7c0,1.7,0.2,3.2,0.2,5.1c0,1.5-0.3,3.1-0.2,4.3c0,2,0.4,4.1,0.5,6c0,1.5-0.3,1.8-0.2,3.4
				c0,1.3,0.3,1.6,0.2,2.6c0,2.6-0.4,5.1-0.5,7.7C-19.8,274-19.4,282.7-20,290.1z M-19,496c0.5,0.8,0.3,8.3-0.5,7.5
				C-19.7,499.5-19.2,498.2-19,496z M-9.1,519.2l-0.8,1c-3.5-0.3-7.8,0.1-10-0.1c0.1-1.1,0.2-1.9,0.6-2.5c0,0.7,0,1.3,0,1.9
				C-15.4,519.5-11.9,519.4-9.1,519.2z M76.7-19c2.4-0.2,2.2,0.3,4.3,0.2C81-18,75.9-18.1,76.7-19z M60.8,520.9
				c-3.1-0.2-4.1,0.5-6,0c4.4-1-1.8,0-1.7-1.2C55.8,519.2,60.6,519.9,60.8,520.9z M158.5,519.7c-2.1,1.2-8.8-0.2-12,0.5
				c0-0.2-1-0.2-1.7-0.2C146.2,519,155.7,519.4,158.5,519.7z M198.7,520.6c-1.3,0.7-5.1,0-6-0.2
				C193.6,519.4,198.3,520.1,198.7,520.6z M185.9,520.4c0.1-0.5,3.6-0.1,5.1-0.2C191,520.8,187,520.7,185.9,520.4z M214.1,520.4
				c-1.2-0.7,3,0.2,5.1,0.2c2.7,0.1,4.6-0.1,6.9,0C224.1,521.9,217.3,520.9,214.1,520.4z M234.7,521.1c-2.8,0.1-6.5,0.6-6.9-0.5
				C230.7,520.6,234.3,520,234.7,521.1z M294.7,520.4c1.8,0.5,4.4,1,7.7,0.5C303.5,522.7,289.8,521.7,294.7,520.4z M136.7-19.7
				c-0.2-0.5,5.2-1.3,5.1-0.2C140.9-19.7,138.8-19.7,136.7-19.7z M134.2-19.9c-0.7,0.4-6.2,0.2-6-0.5
				C131.7-20.7,131.5-19.9,134.2-19.9z M284.4,522.1c-2-0.4-7.3,0.1-6.9-1c3.2,0,4-0.6,5.1,0.2C283.1,521.6,284.8,521.6,284.4,522.1
				z M338.4,521.3c0,0.7-6.1,0.7-5.1-0.2C335.9,520.8,336.6,520.9,338.4,521.3z M105-19.9c-2.9,0.1-4.8-0.1-6.9-0.2
				C99.3-20.6,105.5-21.1,105-19.9z M84.8,521.1c1.8,0.1,6-0.4,5.1,0.5C88.1,521.4,84,522,84.8,521.1z M152.5,521.1
				c6.7,0.4,9.7,0.3,16.3,0.7c-1,1.1-4.1,0.1-6,0.2c-2.6,0.1-5.3,1.1-9.4,0.7C152.5,522.2,153.3,522,152.5,521.1z M273.3,521.3
				c0.9,1-3.3,0.2-5.1,0.2c-2.4,0-4.7,0.5-6.9,0C263.5,520.6,271.2,521.3,273.3,521.3z M353,521.3c0.2,0.6-6,0.7-6.9,0.2
				C345.5,520.7,352.1,521.1,353,521.3z M366.7,521.8c-2.7,0-6.3,0.2-7.7-0.2C359.1,520.9,367.6,520.8,366.7,521.8z M-23.3,5.3
				c-0.4-1.7-0.6-1.8-1-0.6c-0.1,4.8,0.2,7.5,0,11.5c-0.1,1.9-0.4,3.2-0.5,4.9c-0.1,5.7,0.2,11.5,0,19.3c0,4.8,0.9,0.2,1,2.7
				c0.1,2.7-0.3,2.4-0.7,2.5c-0.1,2.8,0.4,2,0.5,3.8c0.1,1.3-0.2,1.5-0.2,2.6c-0.1,2.7,0.3,3.1,0,6c-0.2,1.5-0.2,1.6-0.5,2.6
				c-0.3,1.2-0.9,9.3-0.7,12.9c0.2,3.2,0.7,3.5,1,6.9c-0.5,0.4-0.1,3-0.5,4.3c-0.1,0.2-0.4-0.2-0.5,0c-0.2,1.5,0,3.5-0.2,5.1
				c-0.1,0.4-0.4,0.5-0.5,0.9c-0.3,2.2-0.6,5.7-0.2,9.4c0.2,1.4,0.6,2.3,0.7,4.3c-0.8-0.4-1,1.1-1.2,2.6c-0.2,1.9,0.3,3.9,0.2,6
				c-0.1,2.3-0.8,3.7-1,6c-0.1,1.8,0.1,4.8,0,7.7c-0.1,1.7-0.4,3.6-0.5,5.1c-0.1,2.6,0.1,5.1,0,6.9c-0.1,1.1-0.5,2.8-0.5,3.4
				c0,0.3,1.1,6.9,0.2,7.7c-0.9,0.9-0.3,0.8-0.2,3.4c0,1.3-0.7,4.2,0.2,4.3c0,2.9-0.7,1.6-1,3.4c-0.2,1.4,0.4,2.4,0.2,4.3
				c0,0.6-0.7,0.9-0.5,2.6c0.2,2.9,0.5,0.1,1,1.7c-0.2,2.2-0.5,2.3-0.5,4.3c0,1.6,1.1,5.2,0.2,6c-1.2,1.1,0,0.3-0.2,3.4
				c-0.1,0.9-1.1,2.5-1.2,4.3c0.5,2.3,0.6,11.9-0.5,13.7c0,2.4-0.2,5.9,0.5,6c-0.2,2.4-0.6-1.2-1,0.9c0.1,4.4,0.7,6.4,0.2,12
				c-0.3,3.8-1.9,8.1-0.2,10.3c-0.7,1.5-0.3,4.4-0.5,6.9c0,0.3-0.6,2.2-0.7,3.4c-0.1,1.1,0.1,2.4,0,3.4c-0.2,2.1-0.7,5.7-0.7,9.4
				c0,1.7,0.5,3.5,0.5,5.1c-0.1,2-0.5,1.7-0.5,3.4c0,0.7,0.5,2.7-0.5,2.6c-0.3,2,0.3,2.6,0.2,4.3c0,1.8-0.4,2-0.5,3.4
				c-0.1,3.1,0.3,4.3,0,6.9c0,0.3,0.1,1.5,0,1.7c0,0.1-0.5-0.2-0.5,0c-0.1,1.9-0.3,5.5-0.2,6.9c0,1.5,0.5,3.4,0.5,5.1
				c0,2-0.6,2.2-0.7,4.3c-0.1,1.8,0.2,2.2,0.2,3.4c0,1.8-0.5,3.2-0.5,4.3c0,1.8,0.2,5.9,0,9.4c-0.1,1.4-0.4,2.1-0.5,3.4
				c-0.1,1.4,0.1,3.3,0,5.1c-0.1,0.8-0.4,1.4-0.5,2.6c-0.1,1.9-0.2,4.9-0.2,6.9c0,1.3,0.3,1.6,0.2,2.6c0,1.3-0.4,2.1-0.5,3.4
				c-0.2,3.1-0.1,7.4-0.2,11.1c-0.1,2-0.4,4.1-0.5,6c-0.1,2.1,0.1,4.7,0,6.9c-0.1,1.5-0.4,2.8-0.5,4.3c-0.1,1.7,0.2,4.8,0,7.7
				c-0.1,0.9-0.4,2.4-0.5,3.4c-0.2,5.9,0.4,12.4-1,17.1c-0.7-3.5,0.1-7.8,0.2-12c0.1-1.4-0.1-3.6,0-5.1c0.1-1.7,0.4-1.7,0.5-2.6
				c0.1-1.3-0.2-1.3-0.2-1.7c0,0,0.1-0.9,0.2-1.9c0.1-1,0.2-2.1,0.2-2.4c0-0.8-0.3-1.9-0.2-3.4c0.1-1.7,0.4-3.8,0.5-6
				c0.2-5.3-0.2-14.1,0.5-18c0.1-0.5,0.3,1.4,0.2,1.7c0.1-3.3-0.3-6.1-0.2-9.4c0-1.2,0.6-2.3,0.7-3.4c0.1-1.4-0.2-1.5-0.2-2.6
				c0-2.2,0.5-10.2,0.5-13.7c0-0.8-0.3-1.3-0.2-2.6c0-0.5,0.5-1.4,0.5-1.7c0.1-0.8-0.1-1.8,0-2.6c0.1-1.2,0.4-2.5,0.5-3.4
				c0-0.5-0.2-2.1-0.2-3.4c0-3.4,0.4-7.8,0.5-11.1c0-2.2-0.1-4.8,0-6.9c0.1-1.4,0.5-2.9,0.5-4.3c0-2.3-0.2-4.7-0.2-6.9
				c0-2.5,0.1-10.9,0.5-12c0.6-1.9,0.2-0.7,0.2-4.3c0-1.6,0.5-2.8,0.5-3.4c0-1.5-0.4-1-0.5-3.4c0,0.3,0.3-0.3,0.2-0.9
				c0-0.2-0.2-0.1-0.2-0.9c0-1.5,0.4-2.5,0.5-4.3c0.2-4.5-0.1-9.8,0-12c0.2-2.8,1-5,1.2-7.7c0.1-2-0.2-4-0.2-6
				c-0.1-5.6,0.8-12.2,0.7-18c0-1.6,0-3.2-0.5-4.3c1.5-5.3,0.8-19.1,1.7-29.1c0.9-1.3,0.1,2.9,0.7,2.6c0.5-0.9,0.1-5.4,0.2-7.7
				c-1.1-1.3,0.1,5.6-1,4.3c0.1-2.2-0.5-1.9-0.2-4.3c0.1-1,0.7-0.4,0.7-1.7c0.2-4.4-0.1-9.8,0-14.6c0-1.5,0.4-2.7,0.5-4.3
				c0.1-1.5-0.1-3.2,0-5.1c0.1-2.1,0.4-4,0.5-6c0.1-3.9-0.1-8,0-12c0.1-3.3,0.6-6.9,0.7-10.3c0-1.8-0.2-6.1,0-9.4
				c0.1-0.9,0.4-2.3,0.5-3.4c0.3-7.4-0.4-15.5,0-22.3c0.1-1.4,0.6-1.8,0.7-2.6c0.4-3.6-0.1-7.8,0-12c0-1.4,0.2-2.4,0.3-3.6
				c0.1-0.6,0.1-1.3,0.2-2.1c0-0.4,0-0.8,0-1.4c0-0.7,0-1.6,0-2.5c0-1.6-0.2-5.7-0.2-5.3c0.1-2.9,0.5-4.2,0.5-6.6
				c0-2.1-0.2-4.5-0.2-6.7c0-3.6,0.4-7.6,0.5-11.8c0-1.7-0.1-3.7,0-5.3c0.2-4.8,0.7-10.5,0.7-19.3c0-2.4-0.3-3-0.2-5.4
				c0-2.5,0.3-3.5,0.2-5c0-2.9-0.2-5-0.3-6.8c1.8-0.1,3.3-0.1,5.6,0.3c2,0.3,5.6,0.1,10.7,0.2c5.2,0.1,10.1,0.6,16.1,0.7
				c3,0.1,5.9-0.3,8.9-0.2c4.9,0,9.5,0.4,14.4,0.5c4.1,0.1,9-0.1,12.9,0c1.9,0.1,3.6,0.2,5.2,0.4l0.6,0.1c0.2,0,0.4,0,0.5,0.1
				l0.8,0.1c0.6,0.1,1.1,0.1,1.7,0.1c3.2,0.1,9.6,0.2,12,0.2c0.7,0,1.3-0.3,2.6-0.2c1.3,0,1.8,0.4,3.4,0.5c1.5,0.1,5.9-0.3,6.9,0
				c0.6,0.2,0.8,0.7,1.7,0.7c1.8,0.1,3.4-0.3,5.1-0.2c1.7,0.1,3.9,1.2,8.6,0.7c-0.8,1.5-8.1-0.1-8.6,1.2c-2.8,0.3-5.9-0.3-7.7-0.2
				c-1.8,0.1-1.4,0.4-3.4,0.5c-3,0.2-0.9-0.6-2.6-1c-0.9-0.2-3.2,0.1-4.3,0c-0.5,0-2.4-0.7-4.3-0.7c-2.1-0.1,0.5,1.1-2.6,0.7
				c-3.5,0.1-0.5-0.5-0.9-1c-1.7,0-3.4,0-5.1,0c-2.7,0.4,5,0.6,1.7,1.2c-1.3,0-2.6,0.1-3.9,0.1l-1,0c-0.4,0-0.8,0-1.2,0
				c-0.9,0-1.8,0-2.7-0.1c-1.7-0.1-1.4-0.6-2.5-0.7c-1.2-0.2-2.9-0.1-3.8-0.2c-1.8-0.2-5.9-0.6-10.4-0.8c-4.5-0.2-9.4-0.2-12.3,0.3
				c0,0,1.1,0.1,1.8,0.3c0.7,0.1,1.1,0.2-0.3,0.2c-0.8,0-3.5-0.4-5.1-0.2c-0.8,0.1,0.3,0.4-1,0.5c-0.7,0-3.3,0.2-3.6,0.2
				c-2.6,0.1-2.9-0.4-4-0.5c-2.2-0.1-3.6,0.5-4.7,0.5c-2.4,0-3.2-0.4-5.3-0.5c-2.2,0-2.4,0.5-4.6,0.5c-2.2,0-2.1-0.5-6.7-0.5
				c-1.6,0-3.3,0-5,0c0.1,6.4,0.2,13-1,16.7C-23.7-1.5-23.5,1.6-23.3,5.3z M-21.4,183c-0.3,2.2,0,6.8-0.7,7.7
				C-22.2,190.4-22.6,181.9-21.4,183z M202.2,521.6c2.3,0,4.9-0.1,6,0.2C207.5,522.4,201.5,522.7,202.2,521.6z M-22.6,242.2
				c0.2-1.9-0.4-6.7,0.5-6C-21.8,237.5-21.6,243-22.6,242.2z M19.7-22.1c4.6,0,9.2,0,13.8,0c1.5,0.7-2.1,0.5-3.6,0.5
				C27.1-21.6,19.4-21.3,19.7-22.1z M-22.4,135.9v1.7c-0.2-0.2-0.2,0.3-0.2,0.9h-0.5c0-0.7-0.1-0.8-0.2-0.9v-1.7
				c0.2,0.2,0.2-0.3,0.2-0.9h0.5C-22.7,135.8-22.5,135.9-22.4,135.9z M-23.3,249.9c0-2.1,0.4-2.7,0.5-4.3
				C-22.2,246.6-22.2,250.8-23.3,249.9z M-22.6,146.2c-1,0.8-1.1-5.1-1-6C-22.9,141-22.7,143.5-22.6,146.2z M-23.3,268.7
				c-0.4-1,0-5.1,0-6.9c0-2.5-0.4-8.2,0.5-8.6c0.3,2.4,0.4,4.2,0.2,6.9c-0.1,1.1-0.5,2.4-0.5,2.6C-23.1,263.2-21.8,268.7-23.3,268.7
				z M-22.9,163.3c0,1.3-0.5,0.4-0.7,0.9c0,0-0.4,1.6-0.2,1.7c-0.5-0.3-0.3-4.3-1-5.1c0.2-2.5,0.4-1,1-0.9c0.1-2-0.5-2.1-0.5-3.4
				c0-2.6,0.9-4,0.2-8.6c0.4,0.9,0.9,2,1,3.4c0.1,1.7-0.4,1.6-0.5,3.4C-23.6,156.1-22.9,160.8-22.9,163.3z M-23.6,19.1
				c0-2.5,0-5.1,0-7.6C-23.2,11.9-22.6,20.1-23.6,19.1z M-23.3,170.2c0.1,2.2-0.1,3.7-0.7,3.4C-24.1,171.4-24.1,169.3-23.3,170.2z
				 M-23.6,181.3c-0.9,0.5-0.7-2.5-0.7-5.1C-23.6,176.2-23.7,179.2-23.6,181.3z M-24.3,189c-0.4-1.2-0.2-4.5,0.5-4.3
				C-23.4,186-23.5,189.6-24.3,189z M-23.8,198.5c0,1.5-0.3,1.8-0.2,3.4c-0.7,0.4-0.8-1.8-0.7-4.3
				C-24.3,197.2-24.1,198.2-23.8,198.5z M-24.1,206.2c0.6,0.8-0.3,3.3,0,6C-25.8,212.3-24.6,207.3-24.1,206.2z M-23.8,235.3
				c0.1,2.1-0.7,2.4-1,3.4c-0.2,0.9,0.2,3.3-0.5,2.6c0.2-4.2-0.4-5.7,0-8.6C-24.7,233.2-24.7,236.1-23.8,235.3z M-24.8,69.9
				C-25.5,62.1-23.1,67.7-24.8,69.9L-24.8,69.9z M-24.3,213.9c0,2.3,0,4.6,0,6.9C-25.2,220.6-25.3,213.8-24.3,213.9z M-24.3,226.7
				v3.4C-25.1,231.2-25.4,225.4-24.3,226.7z M-24.8,282.4c-0.6,5.1-1.8-3.2-1-6C-25.4,278.2-25.4,281.4-24.8,282.4z M-25.3,287.6
				c0.1,2,0,3.3-0.2,4.3C-26.1,292.1-26.3,286.1-25.3,287.6z M-26,213c-0.4-1.2-1.1-3.5-0.7-5.1C-25.9,207.7-25.5,211.1-26,213z
				 M-26,219c-1.1,0.8-1.4-5.3,0-4.3C-25.7,215.9-25.7,217.9-26,219z M-26.5,222.5c-0.1-0.5,0.4-1.1,0.5-0.9
				c0.1,0.4-0.5,1.8-0.5,1.7c0,2,0.6,6.8,0,8.6c-1.3,0.2-0.9-5.3-1-9.4C-26.9,221.3-26.5,224.7-26.5,222.5z M-26.7,130.8
				c-1.1-1.7,0.1-6.6-0.2-11.1C-25.7,120.9-26.5,127.4-26.7,130.8z M-26.2,332.1c0.1,1.8-0.2,2.3-0.2,3.4c-0.4-0.2-0.5-1.5-0.5-3.4
				H-26.2z M-26.9,351c-0.3-1.2-0.2-5.2,0.5-5.1C-26.1,347.2-26.2,351.2-26.9,351z M-26.2,371.6c-0.1,3.2-0.7,5-1,7.7
				C-28.3,377.4-27.4,370.6-26.2,371.6z M-26.9,397.3c-0.3,1.4-0.6,2.9-0.5,6c-1.5-0.4-0.2-5.5-0.5-9.4
				C-27.6,394.9-27.6,397.3-26.9,397.3z M-27.4,195c0.1,2.2-0.1,3.7-0.7,3.4C-28.2,196.2-28.2,194.2-27.4,195z M-28.1,427.2
				c-0.3-1.1-0.5-2.9-0.5-5.1c0.2-0.5,0.4-0.9,0.7-0.9C-27.4,423.2-27.9,425.5-28.1,427.2z M-27.7,429c0.1,2.7-0.3,3.3-0.5,5.1
				C-28.7,433.3-28.5,427.9-27.7,429z M-27.9,456.3c0,4.1,0.1,8.8-0.7,8.2C-28.9,460.8-29.1,455.1-27.9,456.3z M0,529.3
				C9.1,527.6,10.6,530.8,0,529.3L0,529.3z M19.3,528.8c6.8-0.2,6.5,0.7,7.7,1.4C19.7,530.5,19.1,529.7,19.3,528.8z M-28.9,522.8
				c-0.9,1.8-1.1-1.2-1-6C-28.9,515.2-28.9,518.8-28.9,522.8z M49.6,529.3c2.1,0,4.1,0,5.1,0.2C55.1,530.1,48,530.4,49.6,529.3z
				 M89.9,530c1.1-0.4,7.9-0.5,6.9,0.5C93.5,530.6,91.3,530.4,89.9,530z M103.6,529.7c2.2,0,4.4,0,4.3,0.7c-1.5,0-1.8,0.3-3.4,0.2
				C103.8,530.5,103.5,530.2,103.6,529.7z M116.5,530.7c-3,0.2-3.6-0.3-5.1-0.5C112.3,529.6,117.6,529.5,116.5,530.7z M179,530.9
				c-0.5,0.2-0.9,0.4-0.9,0.7c-5.9-0.3-10.9,0.4-12.9-1.2c1.3-0.5,1.4,0.2,2.6,0.2C171.1,530.9,175.9,530.5,179,530.9z M268.1,530.7
				c3,0.2,1,0.8,0,1.2c-2.2-0.3-6.4-0.1-6.9-1C264.6,530.7,267.2,531.7,268.1,530.7z M281.8,530.9c0.2,1-9.6,1-9.4,0
				C276.1,530.7,277.2,530.9,281.8,530.9z M-31.5,245.6c-0.6-1.2-0.4-3-0.2-5.1C-31.1,240.5-31.2,244.5-31.5,245.6z M-39.7,402.4
				c0.5,0.6,0.1,4.8,0.2,6.9c-0.6,0.5-0.3-1.2-0.2-0.9C-39.9,407.1-40.7,404.7-39.7,402.4z"/>
		</g>
	</g>
</g>
<g>
	<g>
		<g>
			<path d="M169.3,145.4c-1.7,4.1-3.4,8.2-5.1,12.3c-1,2.3-1.9,4.7-2.9,7c-4.8,11.6-9.6,23.2-14.4,34.7c-2.8,6.7-5.6,13.4-8.5,20.1
				c-0.3,0.7-0.7,1.5-1.6,1.4c-0.6-0.1-1.1-0.5-1.3-1.1c-9.7-25.9-18.8-52.1-27.1-78.5c-0.4-1.2,0.9-2.4,2-1.9c0,0,0,0,0,0
				c1,0.5,1.6,1.6,2.1,2.6c1.7,3.5,2.8,7.3,3.9,11c4.8,16.3,10.5,32.3,16.1,48.4l4.3,12.3c0.4,0.1,0.3,0.1,0.7,0.1
				c1.9-2.6,3.2-5.6,4.4-8.6c8.1-20.3,16.1-40.6,23.9-61c0.4-1,0.8-2.1,1.8-2.6c0.5-0.3,1.2-0.3,1.7,0c1,0.7,0.7,2.1,0.2,3.2
				C169.5,144.9,169.4,145.2,169.3,145.4z"/>
		</g>
		<g>
			<path d="M137.4,159.9c-4.7,0-9.5,0-14.2-0.1c4.6,13.7,9.3,27.3,14,40.9c5-13.6,10-27.2,15-40.8
				C147.3,159.9,142.4,159.9,137.4,159.9z"/>
		</g>
	</g>
	<g>
		
			<rect x="179.4" y="152.4" transform="matrix(0.9997 2.314798e-02 -2.314798e-02 0.9997 4.2586 -4.2687)" width="14.3" height="58.7"/>
		<path d="M214.2,219.2L204,219l1.7-74.4l10.1,0.2c0.4,0,0.7-0.3,0.8-0.7l0-2c0-0.4-0.3-0.7-0.7-0.8l-24.2-0.6
			c-0.4,0-0.7,0.3-0.8,0.7l0,2c0,0.4,0.3,0.7,0.7,0.8l11,0.3l-1.7,74.4l-11-0.3c-0.4,0-0.7,0.3-0.8,0.7l0,2c0,0.4,0.3,0.7,0.7,0.8
			l24.2,0.6c0.4,0,0.7-0.3,0.8-0.7l0-2C214.9,219.6,214.6,219.2,214.2,219.2z"/>
	</g>
	<g>
		<g>
			<path d="M85.8,321.9c-4.9-1.1-9.4-4-12.5-7.9c-4.4-5.6-6.1-13.1-5.2-20.1c0.2-1.3,0.4-2.5,0.8-3.7c0.8-2.2,2.2-4.2,3.6-6.1
				c2-2.6,4.2-5.2,7.2-6.8c2.6-1.4,5.6-1.8,8.5-2.1c2.7-0.2,5.4-0.4,8.1,0.2c2.2,0.5,4.3,1.4,6.3,2.5c7.7,4.6,12.6,13.4,12.5,22.4
				c-1-0.2-2-0.3-3-0.3c0.7-5.6-1.1-11.6-4.9-15.8c-3.9-4.3-9.6-6.8-15.4-6.7c-5.8,0-11.5,2.6-15.4,6.8c-5.6,6-7.4,15.4-4.1,23
				s11.7,12.6,19.9,11.9c0,1.1,0,2.1,0,3.2C89.9,322.5,87.8,322.3,85.8,321.9z"/>
		</g>
		<g>
			<path d="M95.1,285.4c2.6,0.9,5,2.7,7.2,4.5c-6.4,7-13.1,13.8-20,20.2c-2.2-1.3-3.3-3.6-4-5.9c-0.6-1.7-1-3.4-1-5.2
				c-0.1-3.2,1.2-6.4,3.4-8.8s5.1-4,8.2-4.9c1.2-0.3,2.4-0.5,3.7-0.4C93.4,284.9,94.3,285.1,95.1,285.4z"/>
		</g>
		<g>
			<path d="M68.9,332.7c0.8,8.2,6,15.9,13.5,19.4c8.5,4.1,19.4,2.4,26.4-4c6.9-6.4,9.5-17.1,6.2-25.9c-3.3-8.8-12.3-15.2-21.7-15.4
				c0,0-0.4,0-0.7,0c-0.2,0.1-0.3,0.2-0.3,0.2c-0.6,0.4-0.5,1.4,0.1,1.8c0.6,0.5,1.3,0.5,2,0.6c7.1,0.8,13.7,5.4,16.9,11.8
				c3.2,6.4,2.8,14.5-0.8,20.6c-0.7,1.2-1.6,2.3-2.6,3.3c-0.8,0.8-1.8,1.6-2.8,2.2c-6.7,4.4-15.7,5.3-22.9,1.6s-11.7-12-10.4-19.9
				c-0.9,0-1.9,0.1-2.8,0.1C68.8,330.3,68.8,331.5,68.9,332.7z"/>
		</g>
		<g>
			<path d="M102.2,340.5c0.1-0.1,0.2-0.3,0.2-0.4c1-1.9,1.4-4.1,1.7-6.2c-3.3,0-6.5-0.1-9.8-0.1c-4.7-0.1-9.3-0.1-14-0.7
				c-0.5,5.1,2.9,10.2,7.7,11.8c2.4,0.8,5,0.8,7.5,0.3c0.8-0.1,1.6-0.3,2.4-0.7C99.8,343.7,101.2,342.2,102.2,340.5z"/>
		</g>
	</g>
	<g>
		<path d="M233.8,276.3l-58.3-1.3c-0.3,0-0.6,0.2-0.6,0.6l0,2c0,0.3,0.2,0.6,0.6,0.6l27.5,0.6l-1.8,76.7c0,0.6,0.5,1.1,1,1.1l1,0
			c0.6,0,1.1-0.5,1.1-1l1.8-76.7l27.6,0.6c0.3,0,0.6-0.2,0.6-0.6l0-2C234.4,276.5,234.1,276.3,233.8,276.3z"/>
		
			<rect x="175.5" y="282.5" transform="matrix(0.9997 2.314798e-02 -2.314798e-02 0.9997 6.7909 -4.2377)" width="21.9" height="17.5"/>
		
			<rect x="211.6" y="283.4" transform="matrix(0.9997 2.314798e-02 -2.314798e-02 0.9997 6.823 -5.0721)" width="21.9" height="17.5"/>
	</g>
	<g>
		<g>
			<path d="M281.3,148.2c-1.7,4.1-3.4,8.2-5.1,12.3c-1,2.3-1.9,4.7-2.9,7c-4.8,11.6-9.6,23.2-14.4,34.7c-2.8,6.7-5.6,13.4-8.5,20.1
				c-0.3,0.7-0.7,1.5-1.6,1.4c-0.6-0.1-1.1-0.5-1.3-1.1c-9.7-25.9-18.8-52.1-27.1-78.5c-0.4-1.2,0.9-2.4,2-1.9c0,0,0,0,0,0
				c1,0.5,1.6,1.6,2.1,2.6c1.7,3.5,2.8,7.3,3.9,11c4.8,16.3,10.5,32.3,16.1,48.4l4.3,12.3c0.4,0.1,0.3,0.1,0.7,0.1
				c1.9-2.6,3.2-5.6,4.4-8.6c8.1-20.3,16.1-40.6,23.9-61c0.4-1,0.8-2.1,1.8-2.6c0.5-0.3,1.2-0.3,1.7,0c1,0.7,0.7,2.1,0.2,3.2
				C281.4,147.8,281.3,148,281.3,148.2z"/>
		</g>
		<g>
			<path d="M249.4,162.7c-4.7,0-9.5,0-14.2-0.1c4.6,13.7,9.3,27.3,14,40.9c5-13.6,10-27.2,15-40.8
				C259.3,162.7,254.3,162.7,249.4,162.7z"/>
		</g>
	</g>
	<g>
		<g>
			<path d="M340.1,221c-1.5-4.2-3-8.4-4.5-12.5c-0.9-2.4-1.7-4.8-2.6-7.2c-4.2-11.8-8.5-23.6-12.8-35.4c-2.5-6.8-5-13.6-7.6-20.4
				c-0.3-0.7-0.6-1.5-1.5-1.4c-0.6,0-1.1,0.5-1.4,1c-10.9,25.5-21.2,51.2-30.7,77.2c-0.5,1.2,0.8,2.5,2,2c0,0,0,0,0,0
				c1-0.5,1.7-1.5,2.2-2.5c1.8-3.4,3.1-7.1,4.4-10.8c5.6-16,12-31.8,18.3-47.6l4.9-12.1c0.4,0,0.3,0,0.7-0.1c1.8,2.7,2.9,5.8,4,8.8
				c7.2,20.6,14.2,41.3,21.1,62c0.3,1,0.7,2.1,1.7,2.7c0.5,0.3,1.2,0.4,1.7,0c1.1-0.7,0.8-2.1,0.4-3.2
				C340.3,221.4,340.2,221.2,340.1,221z"/>
		</g>
		<g>
			<path d="M309,205c-4.7-0.2-9.5-0.4-14.2-0.6c5.3-13.4,10.6-26.8,15.9-40.2c4.4,13.8,8.7,27.6,13.1,41.4
				C318.8,205.4,313.9,205.2,309,205z"/>
		</g>
	</g>
	<g>
		<g>
			<path d="M177.6,351.3c-1.5-4.2-3-8.4-4.5-12.5c-0.9-2.4-1.7-4.8-2.6-7.2c-4.2-11.8-8.5-23.6-12.8-35.4c-2.5-6.8-5-13.6-7.6-20.4
				c-0.3-0.7-0.6-1.5-1.5-1.4c-0.6,0-1.1,0.5-1.4,1c-10.9,25.5-21.2,51.2-30.7,77.2c-0.5,1.2,0.8,2.5,2,2c0,0,0,0,0,0
				c1-0.5,1.7-1.5,2.2-2.5c1.8-3.4,3.1-7.1,4.4-10.8c5.6-16,12-31.8,18.3-47.6l4.9-12.1c0.4,0,0.3,0,0.7-0.1c1.8,2.7,2.9,5.8,4,8.8
				c7.2,20.6,14.2,41.3,21.1,62c0.3,1,0.7,2.1,1.7,2.7c0.5,0.3,1.2,0.4,1.7,0c1.1-0.7,0.8-2.1,0.4-3.2
				C177.7,351.8,177.6,351.6,177.6,351.3z"/>
		</g>
		<g>
			<path d="M146.4,335.4c-4.7-0.2-9.5-0.4-14.2-0.6c5.3-13.4,10.6-26.8,15.9-40.2c4.4,13.8,8.7,27.6,13.1,41.4
				C156.3,335.8,151.3,335.6,146.4,335.4z"/>
		</g>
	</g>
	<g>
		
			<rect x="239.4" y="288.2" transform="matrix(0.9997 2.314798e-02 -2.314798e-02 0.9997 7.4168 -5.6219)" width="14.3" height="58.7"/>
		<path d="M274.2,355l-10.1-0.2l1.7-74.4l10.1,0.2c0.4,0,0.7-0.3,0.8-0.7l0-2c0-0.4-0.3-0.7-0.7-0.8l-24.2-0.6
			c-0.4,0-0.7,0.3-0.8,0.7l0,2c0,0.4,0.3,0.7,0.7,0.8l11,0.3l-1.7,74.4l-11-0.3c-0.4,0-0.7,0.3-0.8,0.7l0,2c0,0.4,0.3,0.7,0.7,0.8
			l24.2,0.6c0.4,0,0.7-0.3,0.8-0.7l0-2C274.9,355.3,274.6,355,274.2,355z"/>
	</g>
	<g>
		<g>
			<path d="M345.3,283.8c-1.7,4.1-3.4,8.2-5.1,12.3c-1,2.3-1.9,4.7-2.9,7c-4.8,11.6-9.6,23.2-14.4,34.7c-2.8,6.7-5.6,13.4-8.5,20.1
				c-0.3,0.7-0.7,1.5-1.6,1.4c-0.6-0.1-1.1-0.5-1.3-1.1c-9.7-25.9-18.8-52.1-27.1-78.5c-0.4-1.2,0.9-2.4,2-1.9c0,0,0,0,0,0
				c1,0.5,1.6,1.6,2.1,2.6c1.7,3.5,2.8,7.3,3.9,11c4.8,16.3,10.5,32.3,16.1,48.4l4.3,12.3c0.4,0.1,0.3,0.1,0.7,0.1
				c1.9-2.6,3.2-5.6,4.4-8.6c8.1-20.3,16.1-40.6,23.9-61c0.4-1,0.8-2.1,1.8-2.6c0.5-0.3,1.2-0.3,1.7,0c1,0.7,0.7,2.1,0.2,3.2
				C345.5,283.4,345.4,283.6,345.3,283.8z"/>
		</g>
		<g>
			<path d="M313.5,298.4c-4.7,0-9.5,0-14.2-0.1c4.6,13.7,9.3,27.3,14,40.9c5-13.6,10-27.2,15-40.8
				C323.3,298.4,318.4,298.4,313.5,298.4z"/>
		</g>
	</g>
	<g>
		<g>
			<path d="M399.8,356.7c-1.5-4.2-3-8.4-4.5-12.5c-0.9-2.4-1.7-4.8-2.6-7.2c-4.2-11.8-8.5-23.6-12.8-35.4c-2.5-6.8-5-13.6-7.6-20.4
				c-0.3-0.7-0.6-1.5-1.5-1.4c-0.6,0-1.1,0.5-1.4,1c-10.9,25.5-21.2,51.2-30.7,77.2c-0.5,1.2,0.8,2.5,2,2c0,0,0,0,0,0
				c1-0.5,1.7-1.5,2.2-2.5c1.8-3.4,3.1-7.1,4.4-10.8c5.6-16,12-31.8,18.3-47.6l4.9-12.1c0.4,0,0.3,0,0.7-0.1c1.8,2.7,2.9,5.8,4,8.8
				c7.2,20.6,14.2,41.3,21.1,62c0.3,1,0.7,2.1,1.7,2.7c0.5,0.3,1.2,0.4,1.7,0c1.1-0.7,0.8-2.1,0.4-3.2
				C400,357.1,399.9,356.9,399.8,356.7z"/>
		</g>
		<g>
			<path d="M368.7,340.7c-4.7-0.2-9.5-0.4-14.2-0.6c5.3-13.4,10.6-26.8,15.9-40.2c4.4,13.8,8.7,27.6,13.1,41.4
				C378.5,341.2,373.6,341,368.7,340.7z"/>
		</g>
	</g>
	<g>
		<g>
			<path d="M90.5,172.5c-0.6,0.9-1.1,2-1.3,3.1c-3.9,17.8-7.8,35.7-11.7,53.5c-0.3,1.6-0.3,3.7,0.9,4.5c0.5,0.3,1.1,0.2,1.5-0.1
				c0.8-0.5,1.3-1.6,1.1-2.6c0-0.2,0-0.4,0-0.7c4.8-18.7,8.8-37.6,12.2-56.6C93.5,172.1,91.5,171.2,90.5,172.5
				C90.5,172.5,90.5,172.5,90.5,172.5z"/>
		</g>
		<circle cx="94.5" cy="160.2" r="7.9"/>
	</g>
	<g>
		<path d="M418.9,339.1c0.6-0.9,1.1-2,1.3-3.1c3.9-17.8,7.8-35.7,11.7-53.5c0.3-1.6,0.3-3.7-0.9-4.5c-0.5-0.3-1.1-0.2-1.5,0.1
			c-0.8,0.5-1.3,1.6-1.1,2.6c0,0.2,0,0.4,0,0.7c-4.8,18.7-8.8,37.6-12.2,56.6C415.8,339.5,417.9,340.4,418.9,339.1
			C418.8,339.1,418.8,339.1,418.9,339.1z"/>
	</g>
	<circle cx="414.8" cy="351.3" r="7.9"/>
</g>
</svg>
